<svg xmlns="http://www.w3.org/2000/svg" version="1.1" style="font-family: 'Helvetica Neue', Helvetica, Arial, sans-serif; font-size: 18px; background-color: white; text-rendering: optimizeLegibility; -webkit-font-smoothing: antialiased;" width="850" height="600"><g class="ChartTab"><g class="HeaderView"><g opacity="0.8" transform="translate(778, 15) scale(0.27)"><a xmlns:xlink="http://www.w3.org/1999/xlink" xlink:href="https://ourworldindata.org" target="_blank"><g><rect x="0" y="0" fill="#1B2543" width="211.2" height="130.1"/><rect x="0" y="112.2" fill="#E63912" width="211.2" height="17.9"/><g><rect x="1.2" y="12.3" fill="none" width="210.2" height="99.2"/><path fill="#FFFFFF" d="M37.8,32.2c0,12.7-7.7,19.4-17.1,19.4c-9.7,0-16.6-7.5-16.6-18.7c0-11.7,7.3-19.3,17.1-19.3 C31.3,13.7,37.8,21.3,37.8,32.2z M9.2,32.8c0,7.9,4.3,14.9,11.8,14.9c7.5,0,11.8-6.9,11.8-15.3c0-7.3-3.8-14.9-11.8-14.9 C13.1,17.5,9.2,24.8,9.2,32.8z"/><path fill="#FFFFFF" d="M62.7,43.8c0,2.7,0.1,5.1,0.2,7.2h-4.3l-0.3-4.3h-0.1c-1.3,2.1-4,4.9-8.8,4.9c-4.2,0-9.1-2.3-9.1-11.6 V24.6h4.8v14.6c0,5,1.5,8.4,5.9,8.4c3.2,0,5.5-2.2,6.3-4.4c0.3-0.7,0.4-1.6,0.4-2.5V24.6h4.8V43.8z"/><path fill="#FFFFFF" d="M67.3,32.8c0-3.1-0.1-5.8-0.2-8.2h4.2l0.2,5.2h0.2c1.2-3.5,4.1-5.8,7.3-5.8c0.5,0,0.9,0.1,1.4,0.2v4.5 c-0.5-0.1-1-0.2-1.6-0.2c-3.4,0-5.8,2.6-6.5,6.2c-0.1,0.7-0.2,1.4-0.2,2.2V51h-4.8V32.8z"/><path fill="#FFFFFF" d="M95.4,51l-9.4-36.8h5l4.4,18.6c1.1,4.6,2.1,9.2,2.7,12.7h0.1c0.6-3.7,1.8-8,3-12.8l4.9-18.5h5l4.5,18.7 c1,4.4,2,8.7,2.6,12.6h0.1c0.8-4,1.8-8.1,3-12.7l4.9-18.5h4.9L120.6,51h-5L111,31.9c-1.1-4.7-1.9-8.3-2.4-12h-0.1 c-0.7,3.7-1.5,7.3-2.8,12L100.4,51H95.4z"/><path fill="#FFFFFF" d="M154.9,37.6c0,9.8-6.8,14-13.2,14c-7.2,0-12.7-5.2-12.7-13.6c0-8.8,5.8-14,13.1-14 C149.8,24,154.9,29.5,154.9,37.6z M133.9,37.9c0,5.8,3.3,10.1,8,10.1c4.6,0,8-4.3,8-10.3c0-4.5-2.2-10.1-7.9-10.1 C136.3,27.6,133.9,32.8,133.9,37.9z"/><path fill="#FFFFFF" d="M158.2,32.8c0-3.1-0.1-5.8-0.2-8.2h4.2l0.2,5.2h0.2c1.2-3.5,4.1-5.8,7.3-5.8c0.5,0,0.9,0.1,1.4,0.2v4.5 c-0.5-0.1-1-0.2-1.6-0.2c-3.4,0-5.8,2.6-6.5,6.2c-0.1,0.7-0.2,1.4-0.2,2.2V51h-4.8V32.8z"/><path fill="#FFFFFF" d="M173.5,12.3h4.8V51h-4.8V12.3z"/><path fill="#FFFFFF" d="M206.5,12.3v31.9c0,2.3,0.1,5,0.2,6.8h-4.3l-0.2-4.6H202c-1.5,2.9-4.7,5.2-9,5.2 c-6.4,0-11.3-5.4-11.3-13.4c-0.1-8.8,5.4-14.2,11.9-14.2c4,0,6.8,1.9,8,4h0.1V12.3H206.5z M201.7,35.4c0-0.6-0.1-1.4-0.2-2 c-0.7-3.1-3.3-5.6-6.9-5.6c-5,0-7.9,4.4-7.9,10.2c0,5.3,2.6,9.8,7.8,9.8c3.2,0,6.2-2.1,7.1-5.7c0.2-0.7,0.2-1.3,0.2-2.1V35.4z"/><path fill="#FFFFFF" d="M42.8,64c0.1,1.6-1.1,2.9-3.1,2.9c-1.7,0-2.9-1.3-2.9-2.9c0-1.7,1.3-3,3-3C41.7,61,42.8,62.3,42.8,64z M37.4,97.8V71.4h4.8v26.4H37.4z"/><path fill="#FFFFFF" d="M47.5,78.6c0-2.7-0.1-5-0.2-7.1h4.3l0.3,4.4h0.1c1.3-2.5,4.4-5,8.8-5c3.7,0,9.4,2.2,9.4,11.2v15.8h-4.8 V82.6c0-4.3-1.6-7.8-6.1-7.8c-3.2,0-5.6,2.2-6.5,4.9c-0.2,0.6-0.3,1.4-0.3,2.2v15.9h-4.8V78.6z"/><path fill="#FFFFFF" d="M84,61.6c2.9-0.4,6.3-0.8,10.1-0.8c6.8,0,11.7,1.6,14.9,4.6c3.3,3,5.2,7.3,5.2,13.2c0,6-1.9,10.9-5.3,14.3 c-3.4,3.4-9.1,5.3-16.3,5.3c-3.4,0-6.2-0.2-8.6-0.4V61.6z M88.8,94.1c1.2,0.2,3,0.3,4.8,0.3c10.2,0,15.7-5.7,15.7-15.6 c0.1-8.7-4.9-14.2-14.9-14.2c-2.5,0-4.3,0.2-5.6,0.5V94.1z"/><path fill="#FFFFFF" d="M132.1,97.8l-0.4-3.3h-0.2c-1.5,2.1-4.3,3.9-8.1,3.9c-5.4,0-8.1-3.8-8.1-7.6c0-6.4,5.7-9.9,15.9-9.8v-0.5 c0-2.2-0.6-6.1-6-6.1c-2.5,0-5,0.8-6.9,2l-1.1-3.2c2.2-1.4,5.4-2.3,8.7-2.3c8.1,0,10.1,5.5,10.1,10.8v9.9c0,2.3,0.1,4.5,0.4,6.3 H132.1z M131.4,84.4c-5.3-0.1-11.2,0.8-11.2,5.9c0,3.1,2.1,4.6,4.5,4.6c3.4,0,5.6-2.2,6.4-4.4c0.2-0.5,0.3-1,0.3-1.5V84.4z"/><path fill="#FFFFFF" d="M146.6,63.9v7.6h6.9v3.7h-6.9v14.2c0,3.3,0.9,5.1,3.6,5.1c1.3,0,2.2-0.2,2.8-0.3l0.2,3.6 c-0.9,0.4-2.4,0.7-4.3,0.7c-2.2,0-4-0.7-5.2-2c-1.4-1.4-1.9-3.8-1.9-6.9V75.1h-4.1v-3.7h4.1v-6.3L146.6,63.9z"/><path fill="#FFFFFF" d="M171.4,97.8l-0.4-3.3h-0.2c-1.5,2.1-4.3,3.9-8.1,3.9c-5.4,0-8.1-3.8-8.1-7.6c0-6.4,5.7-9.9,15.9-9.8v-0.5 c0-2.2-0.6-6.1-6-6.1c-2.5,0-5,0.8-6.9,2l-1.1-3.2c2.2-1.4,5.4-2.3,8.7-2.3c8.1,0,10.1,5.5,10.1,10.8v9.9c0,2.3,0.1,4.5,0.4,6.3 H171.4z M170.7,84.4c-5.3-0.1-11.2,0.8-11.2,5.9c0,3.1,2.1,4.6,4.5,4.6c3.4,0,5.6-2.2,6.4-4.4c0.2-0.5,0.3-1,0.3-1.5V84.4z"/></g></g></a></g><a href="https://ourworldindata.org/grapher/adjusted-net-saving-current-us-dollars" target="_blank"><text font-size="25.20" x="15.0" y="35.2" fill="#555"><tspan x="15" y="35.160000000000004">Adjusted net saving (current US dollars)</tspan></text></a></g><g class="LineChart"><defs><clipPath id="boundsClip-49"><rect x="92.296" y="0" width="830" height="973"></rect></clipPath></defs><g class="AxisBoxView"><g class="HorizontalAxis"><text x="102.3" y="556.5" fill="#666" text-anchor="middle" font-size="16.2">1970</text><text x="233" y="556.5" fill="#666" text-anchor="middle" font-size="16.2">1980</text><text x="363.7" y="556.5" fill="#666" text-anchor="middle" font-size="16.2">1990</text><text x="494.5" y="556.5" fill="#666" text-anchor="middle" font-size="16.2">2000</text><text x="625.2" y="556.5" fill="#666" text-anchor="middle" font-size="16.2">2010</text><text x="703.6" y="556.5" fill="#666" text-anchor="middle" font-size="16.2">2016</text></g><g class="VerticalAxis"><text x="97.30" y="530.2" fill="#666" dominant-baseline="middle" text-anchor="end" font-size="16.2">$0</text><text x="97.30" y="441.1" fill="#666" dominant-baseline="middle" text-anchor="end" font-size="16.2">$100 billion</text><text x="97.30" y="351.9" fill="#666" dominant-baseline="middle" text-anchor="end" font-size="16.2">$200 billion</text><text x="97.30" y="262.8" fill="#666" dominant-baseline="middle" text-anchor="end" font-size="16.2">$300 billion</text><text x="97.30" y="173.7" fill="#666" dominant-baseline="middle" text-anchor="end" font-size="16.2">$400 billion</text><text x="97.30" y="84.6" fill="#666" dominant-baseline="middle" text-anchor="end" font-size="16.2">$500 billion</text></g><g class="AxisGridLines"><line x1="102.30" y1="530.2" x2="703.61" y2="530.2" stroke="#ccc"></line><line x1="102.30" y1="441.1" x2="703.61" y2="441.1" stroke="#ddd" stroke-dasharray="3,2"></line><line x1="102.30" y1="351.9" x2="703.61" y2="351.9" stroke="#ddd" stroke-dasharray="3,2"></line><line x1="102.30" y1="262.8" x2="703.61" y2="262.8" stroke="#ddd" stroke-dasharray="3,2"></line><line x1="102.30" y1="173.7" x2="703.61" y2="173.7" stroke="#ddd" stroke-dasharray="3,2"></line><line x1="102.30" y1="84.6" x2="703.61" y2="84.6" stroke="#ddd" stroke-dasharray="3,2"></line></g></g><g clip-path="url(#boundsClip-49)"><g class="HeightedLegend clickable"><g class="legendMark"><g class="indicator"><line x1="708.61" y1="531.8" x2="731.11" y2="531.8" stroke="#666" stroke-width="0.5"></line><line x1="731.11" y1="531.8" x2="731.11" y2="528.55" stroke="#666" stroke-width="0.5"></line><line x1="731.11" y1="528.55" x2="733.61" y2="528.55" stroke="#666" stroke-width="0.5"></line></g><rect x="703.61" y="521.8" width="74.96000000000001" height="13.5" fill="#fff" opacity="0"></rect><text font-size="13.50" x="738.6" y="532.6" fill="#3360a9"><tspan x="738.61" y="532.5999999999999">Congo</tspan></text></g><g class="legendMark"><g class="indicator"><line x1="708.61" y1="525.7" x2="721.11" y2="525.7" stroke="#666" stroke-width="0.5"></line><line x1="721.11" y1="525.7" x2="721.11" y2="513.05" stroke="#666" stroke-width="0.5"></line><line x1="721.11" y1="513.05" x2="733.61" y2="513.05" stroke="#666" stroke-width="0.5"></line></g><rect x="703.61" y="506.29999999999995" width="85.49000000000001" height="13.5" fill="#fff" opacity="0"></rect><text font-size="13.50" x="738.6" y="517.1" fill="#ca2628"><tspan x="738.61" y="517.0999999999999">Portugal</tspan></text></g><g class="legendMark"><g class="indicator"><line x1="708.61" y1="452.2" x2="731.11" y2="452.2" stroke="#666" stroke-width="0.5"></line><line x1="731.11" y1="452.2" x2="731.11" y2="452.2" stroke="#666" stroke-width="0.5"></line><line x1="731.11" y1="452.2" x2="733.61" y2="452.2" stroke="#666" stroke-width="0.5"></line></g><rect x="703.61" y="445.45" width="131.39" height="13.5" fill="#fff" opacity="0"></rect><text font-size="13.50" x="738.6" y="456.3" fill="#34983f"><tspan x="738.61" y="456.25">United Kingdom</tspan></text></g><g class="legendMark"><g class="indicator"><line x1="708.61" y1="439.8" x2="721.11" y2="439.8" stroke="#666" stroke-width="0.5"></line><line x1="721.11" y1="439.8" x2="721.11" y2="436.7" stroke="#666" stroke-width="0.5"></line><line x1="721.11" y1="436.7" x2="733.61" y2="436.7" stroke="#666" stroke-width="0.5"></line></g><rect x="703.61" y="429.95" width="68.75" height="13.5" fill="#fff" opacity="0"></rect><text font-size="13.50" x="738.6" y="440.8" fill="#f6a324"><tspan x="738.61" y="440.75">Brazil</tspan></text></g><g class="legendMark"><g class="indicator"><line x1="708.61" y1="413.2" x2="721.11" y2="413.2" stroke="#666" stroke-width="0.5"></line><line x1="721.11" y1="413.2" x2="721.11" y2="413.2" stroke="#666" stroke-width="0.5"></line><line x1="721.11" y1="413.2" x2="733.61" y2="413.2" stroke="#666" stroke-width="0.5"></line></g><rect x="703.61" y="406.45" width="77.795" height="13.5" fill="#fff" opacity="0"></rect><text font-size="13.50" x="738.6" y="417.3" fill="#a652ba"><tspan x="738.61" y="417.25">Mexico</tspan></text></g><g class="legendMark"><g class="indicator"><line x1="708.61" y1="370.7" x2="721.11" y2="370.7" stroke="#666" stroke-width="0.5"></line><line x1="721.11" y1="370.7" x2="721.11" y2="370.7" stroke="#666" stroke-width="0.5"></line><line x1="721.11" y1="370.7" x2="733.61" y2="370.7" stroke="#666" stroke-width="0.5"></line></g><rect x="703.61" y="363.95" width="77.12" height="13.5" fill="#fff" opacity="0"></rect><text font-size="13.50" x="738.6" y="374.8" fill="#2a939b"><tspan x="738.61" y="374.75">France</tspan></text></g><g class="legendMark"><g class="indicator"><line x1="708.61" y1="98.1" x2="721.11" y2="98.1" stroke="#666" stroke-width="0.5"></line><line x1="721.11" y1="98.1" x2="721.11" y2="98.1" stroke="#666" stroke-width="0.5"></line><line x1="721.11" y1="98.1" x2="733.61" y2="98.1" stroke="#666" stroke-width="0.5"></line></g><rect x="703.61" y="91.35" width="90.62" height="13.5" fill="#fff" opacity="0"></rect><text font-size="13.50" x="738.6" y="102.1" fill="#e6332e"><tspan x="738.61" y="102.14999999999999">Germany</tspan></text></g></g><g class="Lines"><rect x="102" y="70" width="601" height="465" fill="rgba(255,255,255,0)" opacity="0"></rect><g class="key-Congo_0"><path stroke="#3360a9" stroke-linecap="round" d="M207 530L220 530L233 530L246 530L259 530L272 530L285 530L298 530L311 530L325 530L338 531L351 531L364 531L377 531L390 530L403 531L416 531L429 531L442 531L455 531L468 531L481 531L495 531L508 531L521 531L534 531L547 531L560 532L573 534L586 533L599 534L612 533L625 533L638 535L651 534L664 534L678 533L691 532" fill="none" stroke-width="1.5"></path><g fill="#3360a9"><circle cx="207" cy="530" r="2"></circle><circle cx="220" cy="530" r="2"></circle><circle cx="233" cy="530" r="2"></circle><circle cx="246" cy="530" r="2"></circle><circle cx="259" cy="530" r="2"></circle><circle cx="272" cy="530" r="2"></circle><circle cx="285" cy="530" r="2"></circle><circle cx="298" cy="530" r="2"></circle><circle cx="311" cy="530" r="2"></circle><circle cx="325" cy="530" r="2"></circle><circle cx="338" cy="531" r="2"></circle><circle cx="351" cy="531" r="2"></circle><circle cx="364" cy="531" r="2"></circle><circle cx="377" cy="531" r="2"></circle><circle cx="390" cy="530" r="2"></circle><circle cx="403" cy="531" r="2"></circle><circle cx="416" cy="531" r="2"></circle><circle cx="429" cy="531" r="2"></circle><circle cx="442" cy="531" r="2"></circle><circle cx="455" cy="531" r="2"></circle><circle cx="468" cy="531" r="2"></circle><circle cx="481" cy="531" r="2"></circle><circle cx="495" cy="531" r="2"></circle><circle cx="508" cy="531" r="2"></circle><circle cx="521" cy="531" r="2"></circle><circle cx="534" cy="531" r="2"></circle><circle cx="547" cy="531" r="2"></circle><circle cx="560" cy="532" r="2"></circle><circle cx="573" cy="534" r="2"></circle><circle cx="586" cy="533" r="2"></circle><circle cx="599" cy="534" r="2"></circle><circle cx="612" cy="533" r="2"></circle><circle cx="625" cy="533" r="2"></circle><circle cx="638" cy="535" r="2"></circle><circle cx="651" cy="534" r="2"></circle><circle cx="664" cy="534" r="2"></circle><circle cx="678" cy="533" r="2"></circle><circle cx="691" cy="532" r="2"></circle></g></g><g class="key-Mexico_0"><path stroke="#a652ba" stroke-linecap="round" d="M220 515L233 511L246 503L259 513L272 518L285 517L298 516L311 527L325 522L338 517L351 515L364 510L377 505L390 505L403 498L416 496L429 508L442 496L455 484L468 484L481 474L495 461L508 464L521 468L534 457L547 450L560 450L573 433L586 402L599 402L612 422L625 410L638 419L651 415L664 434L678 412L691 407L704 413" fill="none" stroke-width="1.5"></path><g fill="#a652ba"><circle cx="220" cy="515" r="2"></circle><circle cx="233" cy="511" r="2"></circle><circle cx="246" cy="503" r="2"></circle><circle cx="259" cy="513" r="2"></circle><circle cx="272" cy="518" r="2"></circle><circle cx="285" cy="517" r="2"></circle><circle cx="298" cy="516" r="2"></circle><circle cx="311" cy="527" r="2"></circle><circle cx="325" cy="522" r="2"></circle><circle cx="338" cy="517" r="2"></circle><circle cx="351" cy="515" r="2"></circle><circle cx="364" cy="510" r="2"></circle><circle cx="377" cy="505" r="2"></circle><circle cx="390" cy="505" r="2"></circle><circle cx="403" cy="498" r="2"></circle><circle cx="416" cy="496" r="2"></circle><circle cx="429" cy="508" r="2"></circle><circle cx="442" cy="496" r="2"></circle><circle cx="455" cy="484" r="2"></circle><circle cx="468" cy="484" r="2"></circle><circle cx="481" cy="474" r="2"></circle><circle cx="495" cy="461" r="2"></circle><circle cx="508" cy="464" r="2"></circle><circle cx="521" cy="468" r="2"></circle><circle cx="534" cy="457" r="2"></circle><circle cx="547" cy="450" r="2"></circle><circle cx="560" cy="450" r="2"></circle><circle cx="573" cy="433" r="2"></circle><circle cx="586" cy="402" r="2"></circle><circle cx="599" cy="402" r="2"></circle><circle cx="612" cy="422" r="2"></circle><circle cx="625" cy="410" r="2"></circle><circle cx="638" cy="419" r="2"></circle><circle cx="651" cy="415" r="2"></circle><circle cx="664" cy="434" r="2"></circle><circle cx="678" cy="412" r="2"></circle><circle cx="691" cy="407" r="2"></circle><circle cx="704" cy="413" r="2"></circle></g></g><g class="key-Portugal_0"><path stroke="#ca2628" stroke-linecap="round" d="M168 530L181 529L194 528L207 527L220 526L233 525L246 526L259 527L272 528L285 529L298 528L311 526L325 524L338 522L351 521L364 519L377 519L390 515L403 519L416 520L429 517L442 519L455 519L468 517L481 520L495 523L508 523L521 524L534 524L547 525L560 528L573 530L586 528L599 535L612 535L625 535L638 532L651 532L664 526L678 527L691 528L704 526" fill="none" stroke-width="1.5"></path><g fill="#ca2628"><circle cx="168" cy="530" r="2"></circle><circle cx="181" cy="529" r="2"></circle><circle cx="194" cy="528" r="2"></circle><circle cx="207" cy="527" r="2"></circle><circle cx="220" cy="526" r="2"></circle><circle cx="233" cy="525" r="2"></circle><circle cx="246" cy="526" r="2"></circle><circle cx="259" cy="527" r="2"></circle><circle cx="272" cy="528" r="2"></circle><circle cx="285" cy="529" r="2"></circle><circle cx="298" cy="528" r="2"></circle><circle cx="311" cy="526" r="2"></circle><circle cx="325" cy="524" r="2"></circle><circle cx="338" cy="522" r="2"></circle><circle cx="351" cy="521" r="2"></circle><circle cx="364" cy="519" r="2"></circle><circle cx="377" cy="519" r="2"></circle><circle cx="390" cy="515" r="2"></circle><circle cx="403" cy="519" r="2"></circle><circle cx="416" cy="520" r="2"></circle><circle cx="429" cy="517" r="2"></circle><circle cx="442" cy="519" r="2"></circle><circle cx="455" cy="519" r="2"></circle><circle cx="468" cy="517" r="2"></circle><circle cx="481" cy="520" r="2"></circle><circle cx="495" cy="523" r="2"></circle><circle cx="508" cy="523" r="2"></circle><circle cx="521" cy="524" r="2"></circle><circle cx="534" cy="524" r="2"></circle><circle cx="547" cy="525" r="2"></circle><circle cx="560" cy="528" r="2"></circle><circle cx="573" cy="530" r="2"></circle><circle cx="586" cy="528" r="2"></circle><circle cx="599" cy="535" r="2"></circle><circle cx="612" cy="535" r="2"></circle><circle cx="625" cy="535" r="2"></circle><circle cx="638" cy="532" r="2"></circle><circle cx="651" cy="532" r="2"></circle><circle cx="664" cy="526" r="2"></circle><circle cx="678" cy="527" r="2"></circle><circle cx="691" cy="528" r="2"></circle><circle cx="704" cy="526" r="2"></circle></g></g><g class="key-Germany_0"><path stroke="#e6332e" stroke-linecap="round" d="M377 331L390 311L403 349L416 337L429 298L442 321L455 342L468 337L481 352L495 378L508 384L521 379L534 364L547 276L560 279L573 205L586 89L599 96L612 235L625 177L638 72L651 131L664 121L678 70L691 110L704 98" fill="none" stroke-width="1.5"></path><g fill="#e6332e"><circle cx="377" cy="331" r="2"></circle><circle cx="390" cy="311" r="2"></circle><circle cx="403" cy="349" r="2"></circle><circle cx="416" cy="337" r="2"></circle><circle cx="429" cy="298" r="2"></circle><circle cx="442" cy="321" r="2"></circle><circle cx="455" cy="342" r="2"></circle><circle cx="468" cy="337" r="2"></circle><circle cx="481" cy="352" r="2"></circle><circle cx="495" cy="378" r="2"></circle><circle cx="508" cy="384" r="2"></circle><circle cx="521" cy="379" r="2"></circle><circle cx="534" cy="364" r="2"></circle><circle cx="547" cy="276" r="2"></circle><circle cx="560" cy="279" r="2"></circle><circle cx="573" cy="205" r="2"></circle><circle cx="586" cy="89" r="2"></circle><circle cx="599" cy="96" r="2"></circle><circle cx="612" cy="235" r="2"></circle><circle cx="625" cy="177" r="2"></circle><circle cx="638" cy="72" r="2"></circle><circle cx="651" cy="131" r="2"></circle><circle cx="664" cy="121" r="2"></circle><circle cx="678" cy="70" r="2"></circle><circle cx="691" cy="110" r="2"></circle><circle cx="704" cy="98" r="2"></circle></g></g><g class="key-United-Kingdom_0"><path stroke="#34983f" stroke-linecap="round" d="M102 503L115 501L128 500L142 493L155 495L168 487L181 485L194 481L207 471L220 466L233 462L246 476L259 479L272 480L285 484L298 483L311 469L325 457L338 435L351 444L364 449L377 455L390 452L403 452L416 411L429 474L442 468L455 438L468 420L481 456L495 451L508 461L521 452L534 435L547 427L560 398L573 414L586 376L599 441L612 502L625 446L638 428L651 465L664 464L678 438L691 436L704 452" fill="none" stroke-width="1.5"></path><g fill="#34983f"><circle cx="102" cy="503" r="2"></circle><circle cx="115" cy="501" r="2"></circle><circle cx="128" cy="500" r="2"></circle><circle cx="142" cy="493" r="2"></circle><circle cx="155" cy="495" r="2"></circle><circle cx="168" cy="487" r="2"></circle><circle cx="181" cy="485" r="2"></circle><circle cx="194" cy="481" r="2"></circle><circle cx="207" cy="471" r="2"></circle><circle cx="220" cy="466" r="2"></circle><circle cx="233" cy="462" r="2"></circle><circle cx="246" cy="476" r="2"></circle><circle cx="259" cy="479" r="2"></circle><circle cx="272" cy="480" r="2"></circle><circle cx="285" cy="484" r="2"></circle><circle cx="298" cy="483" r="2"></circle><circle cx="311" cy="469" r="2"></circle><circle cx="325" cy="457" r="2"></circle><circle cx="338" cy="435" r="2"></circle><circle cx="351" cy="444" r="2"></circle><circle cx="364" cy="449" r="2"></circle><circle cx="377" cy="455" r="2"></circle><circle cx="390" cy="452" r="2"></circle><circle cx="403" cy="452" r="2"></circle><circle cx="416" cy="411" r="2"></circle><circle cx="429" cy="474" r="2"></circle><circle cx="442" cy="468" r="2"></circle><circle cx="455" cy="438" r="2"></circle><circle cx="468" cy="420" r="2"></circle><circle cx="481" cy="456" r="2"></circle><circle cx="495" cy="451" r="2"></circle><circle cx="508" cy="461" r="2"></circle><circle cx="521" cy="452" r="2"></circle><circle cx="534" cy="435" r="2"></circle><circle cx="547" cy="427" r="2"></circle><circle cx="560" cy="398" r="2"></circle><circle cx="573" cy="414" r="2"></circle><circle cx="586" cy="376" r="2"></circle><circle cx="599" cy="441" r="2"></circle><circle cx="612" cy="502" r="2"></circle><circle cx="625" cy="446" r="2"></circle><circle cx="638" cy="428" r="2"></circle><circle cx="651" cy="465" r="2"></circle><circle cx="664" cy="464" r="2"></circle><circle cx="678" cy="438" r="2"></circle><circle cx="691" cy="436" r="2"></circle><circle cx="704" cy="452" r="2"></circle></g></g><g class="key-France_0"><path stroke="#2a939b" stroke-linecap="round" d="M168 483L181 483L194 479L207 464L220 451L233 448L246 471L259 480L272 484L285 487L298 484L311 457L325 443L338 424L351 419L364 391L377 399L390 393L403 409L416 397L429 364L442 365L455 367L468 350L481 343L495 370L508 375L521 380L534 352L547 321L560 325L573 305L586 261L599 262L612 366L625 357L638 325L651 374L664 371L678 363L691 367L704 371" fill="none" stroke-width="1.5"></path><g fill="#2a939b"><circle cx="168" cy="483" r="2"></circle><circle cx="181" cy="483" r="2"></circle><circle cx="194" cy="479" r="2"></circle><circle cx="207" cy="464" r="2"></circle><circle cx="220" cy="451" r="2"></circle><circle cx="233" cy="448" r="2"></circle><circle cx="246" cy="471" r="2"></circle><circle cx="259" cy="480" r="2"></circle><circle cx="272" cy="484" r="2"></circle><circle cx="285" cy="487" r="2"></circle><circle cx="298" cy="484" r="2"></circle><circle cx="311" cy="457" r="2"></circle><circle cx="325" cy="443" r="2"></circle><circle cx="338" cy="424" r="2"></circle><circle cx="351" cy="419" r="2"></circle><circle cx="364" cy="391" r="2"></circle><circle cx="377" cy="399" r="2"></circle><circle cx="390" cy="393" r="2"></circle><circle cx="403" cy="409" r="2"></circle><circle cx="416" cy="397" r="2"></circle><circle cx="429" cy="364" r="2"></circle><circle cx="442" cy="365" r="2"></circle><circle cx="455" cy="367" r="2"></circle><circle cx="468" cy="350" r="2"></circle><circle cx="481" cy="343" r="2"></circle><circle cx="495" cy="370" r="2"></circle><circle cx="508" cy="375" r="2"></circle><circle cx="521" cy="380" r="2"></circle><circle cx="534" cy="352" r="2"></circle><circle cx="547" cy="321" r="2"></circle><circle cx="560" cy="325" r="2"></circle><circle cx="573" cy="305" r="2"></circle><circle cx="586" cy="261" r="2"></circle><circle cx="599" cy="262" r="2"></circle><circle cx="612" cy="366" r="2"></circle><circle cx="625" cy="357" r="2"></circle><circle cx="638" cy="325" r="2"></circle><circle cx="651" cy="374" r="2"></circle><circle cx="664" cy="371" r="2"></circle><circle cx="678" cy="363" r="2"></circle><circle cx="691" cy="367" r="2"></circle><circle cx="704" cy="371" r="2"></circle></g></g><g class="key-Brazil_0"><path stroke="#f6a324" stroke-linecap="round" d="M168 514L181 515L194 511L207 509L220 510L233 511L246 506L259 512L272 525L285 521L298 514L311 513L325 498L338 487L351 425L364 488L377 472L390 486L403 482L416 472L429 482L442 489L455 493L468 495L481 519L495 513L508 517L521 511L534 504L547 487L560 476L573 462L586 442L599 431L612 443L625 354L638 313L651 330L664 315L678 369L691 426L704 440" fill="none" stroke-width="1.5"></path><g fill="#f6a324"><circle cx="168" cy="514" r="2"></circle><circle cx="181" cy="515" r="2"></circle><circle cx="194" cy="511" r="2"></circle><circle cx="207" cy="509" r="2"></circle><circle cx="220" cy="510" r="2"></circle><circle cx="233" cy="511" r="2"></circle><circle cx="246" cy="506" r="2"></circle><circle cx="259" cy="512" r="2"></circle><circle cx="272" cy="525" r="2"></circle><circle cx="285" cy="521" r="2"></circle><circle cx="298" cy="514" r="2"></circle><circle cx="311" cy="513" r="2"></circle><circle cx="325" cy="498" r="2"></circle><circle cx="338" cy="487" r="2"></circle><circle cx="351" cy="425" r="2"></circle><circle cx="364" cy="488" r="2"></circle><circle cx="377" cy="472" r="2"></circle><circle cx="390" cy="486" r="2"></circle><circle cx="403" cy="482" r="2"></circle><circle cx="416" cy="472" r="2"></circle><circle cx="429" cy="482" r="2"></circle><circle cx="442" cy="489" r="2"></circle><circle cx="455" cy="493" r="2"></circle><circle cx="468" cy="495" r="2"></circle><circle cx="481" cy="519" r="2"></circle><circle cx="495" cy="513" r="2"></circle><circle cx="508" cy="517" r="2"></circle><circle cx="521" cy="511" r="2"></circle><circle cx="534" cy="504" r="2"></circle><circle cx="547" cy="487" r="2"></circle><circle cx="560" cy="476" r="2"></circle><circle cx="573" cy="462" r="2"></circle><circle cx="586" cy="442" r="2"></circle><circle cx="599" cy="431" r="2"></circle><circle cx="612" cy="443" r="2"></circle><circle cx="625" cy="354" r="2"></circle><circle cx="638" cy="313" r="2"></circle><circle cx="651" cy="330" r="2"></circle><circle cx="664" cy="315" r="2"></circle><circle cx="678" cy="369" r="2"></circle><circle cx="691" cy="426" r="2"></circle><circle cx="704" cy="440" r="2"></circle></g></g></g></g></g><g style="fill: #777;" class="SourcesFooter"><g style="fill: #777;" class="clickable"><text font-size="12.60" x="15.0" y="581.6"><tspan x="15" y="581.58">Source: World Bank</tspan></text></g><text font-size="12.60" x="775.4" y="581.6"><tspan x="775.402" y="581.58"><a style="fill: #777;" class="cclogo" href="http://creativecommons.org/licenses/by-sa/4.0/deed.en_US" target="_blank">CC BY-SA</a></tspan></text></g></g></svg>