<svg xmlns="http://www.w3.org/2000/svg" version="1.1" style="font-family: 'Helvetica Neue', Helvetica, Arial, sans-serif; font-size: 18px; background-color: white; text-rendering: optimizeLegibility; -webkit-font-smoothing: antialiased;" width="850" height="600"><g class="ChartTab"><g class="HeaderView"><g opacity="0.8" transform="translate(778, 15) scale(0.27)"><a xmlns:xlink="http://www.w3.org/1999/xlink" xlink:href="https://ourworldindata.org" target="_blank"><g><rect x="0" y="0" fill="#1B2543" width="211.2" height="130.1"/><rect x="0" y="112.2" fill="#E63912" width="211.2" height="17.9"/><g><rect x="1.2" y="12.3" fill="none" width="210.2" height="99.2"/><path fill="#FFFFFF" d="M37.8,32.2c0,12.7-7.7,19.4-17.1,19.4c-9.7,0-16.6-7.5-16.6-18.7c0-11.7,7.3-19.3,17.1-19.3 C31.3,13.7,37.8,21.3,37.8,32.2z M9.2,32.8c0,7.9,4.3,14.9,11.8,14.9c7.5,0,11.8-6.9,11.8-15.3c0-7.3-3.8-14.9-11.8-14.9 C13.1,17.5,9.2,24.8,9.2,32.8z"/><path fill="#FFFFFF" d="M62.7,43.8c0,2.7,0.1,5.1,0.2,7.2h-4.3l-0.3-4.3h-0.1c-1.3,2.1-4,4.9-8.8,4.9c-4.2,0-9.1-2.3-9.1-11.6 V24.6h4.8v14.6c0,5,1.5,8.4,5.9,8.4c3.2,0,5.5-2.2,6.3-4.4c0.3-0.7,0.4-1.6,0.4-2.5V24.6h4.8V43.8z"/><path fill="#FFFFFF" d="M67.3,32.8c0-3.1-0.1-5.8-0.2-8.2h4.2l0.2,5.2h0.2c1.2-3.5,4.1-5.8,7.3-5.8c0.5,0,0.9,0.1,1.4,0.2v4.5 c-0.5-0.1-1-0.2-1.6-0.2c-3.4,0-5.8,2.6-6.5,6.2c-0.1,0.7-0.2,1.4-0.2,2.2V51h-4.8V32.8z"/><path fill="#FFFFFF" d="M95.4,51l-9.4-36.8h5l4.4,18.6c1.1,4.6,2.1,9.2,2.7,12.7h0.1c0.6-3.7,1.8-8,3-12.8l4.9-18.5h5l4.5,18.7 c1,4.4,2,8.7,2.6,12.6h0.1c0.8-4,1.8-8.1,3-12.7l4.9-18.5h4.9L120.6,51h-5L111,31.9c-1.1-4.7-1.9-8.3-2.4-12h-0.1 c-0.7,3.7-1.5,7.3-2.8,12L100.4,51H95.4z"/><path fill="#FFFFFF" d="M154.9,37.6c0,9.8-6.8,14-13.2,14c-7.2,0-12.7-5.2-12.7-13.6c0-8.8,5.8-14,13.1-14 C149.8,24,154.9,29.5,154.9,37.6z M133.9,37.9c0,5.8,3.3,10.1,8,10.1c4.6,0,8-4.3,8-10.3c0-4.5-2.2-10.1-7.9-10.1 C136.3,27.6,133.9,32.8,133.9,37.9z"/><path fill="#FFFFFF" d="M158.2,32.8c0-3.1-0.1-5.8-0.2-8.2h4.2l0.2,5.2h0.2c1.2-3.5,4.1-5.8,7.3-5.8c0.5,0,0.9,0.1,1.4,0.2v4.5 c-0.5-0.1-1-0.2-1.6-0.2c-3.4,0-5.8,2.6-6.5,6.2c-0.1,0.7-0.2,1.4-0.2,2.2V51h-4.8V32.8z"/><path fill="#FFFFFF" d="M173.5,12.3h4.8V51h-4.8V12.3z"/><path fill="#FFFFFF" d="M206.5,12.3v31.9c0,2.3,0.1,5,0.2,6.8h-4.3l-0.2-4.6H202c-1.5,2.9-4.7,5.2-9,5.2 c-6.4,0-11.3-5.4-11.3-13.4c-0.1-8.8,5.4-14.2,11.9-14.2c4,0,6.8,1.9,8,4h0.1V12.3H206.5z M201.7,35.4c0-0.6-0.1-1.4-0.2-2 c-0.7-3.1-3.3-5.6-6.9-5.6c-5,0-7.9,4.4-7.9,10.2c0,5.3,2.6,9.8,7.8,9.8c3.2,0,6.2-2.1,7.1-5.7c0.2-0.7,0.2-1.3,0.2-2.1V35.4z"/><path fill="#FFFFFF" d="M42.8,64c0.1,1.6-1.1,2.9-3.1,2.9c-1.7,0-2.9-1.3-2.9-2.9c0-1.7,1.3-3,3-3C41.7,61,42.8,62.3,42.8,64z M37.4,97.8V71.4h4.8v26.4H37.4z"/><path fill="#FFFFFF" d="M47.5,78.6c0-2.7-0.1-5-0.2-7.1h4.3l0.3,4.4h0.1c1.3-2.5,4.4-5,8.8-5c3.7,0,9.4,2.2,9.4,11.2v15.8h-4.8 V82.6c0-4.3-1.6-7.8-6.1-7.8c-3.2,0-5.6,2.2-6.5,4.9c-0.2,0.6-0.3,1.4-0.3,2.2v15.9h-4.8V78.6z"/><path fill="#FFFFFF" d="M84,61.6c2.9-0.4,6.3-0.8,10.1-0.8c6.8,0,11.7,1.6,14.9,4.6c3.3,3,5.2,7.3,5.2,13.2c0,6-1.9,10.9-5.3,14.3 c-3.4,3.4-9.1,5.3-16.3,5.3c-3.4,0-6.2-0.2-8.6-0.4V61.6z M88.8,94.1c1.2,0.2,3,0.3,4.8,0.3c10.2,0,15.7-5.7,15.7-15.6 c0.1-8.7-4.9-14.2-14.9-14.2c-2.5,0-4.3,0.2-5.6,0.5V94.1z"/><path fill="#FFFFFF" d="M132.1,97.8l-0.4-3.3h-0.2c-1.5,2.1-4.3,3.9-8.1,3.9c-5.4,0-8.1-3.8-8.1-7.6c0-6.4,5.7-9.9,15.9-9.8v-0.5 c0-2.2-0.6-6.1-6-6.1c-2.5,0-5,0.8-6.9,2l-1.1-3.2c2.2-1.4,5.4-2.3,8.7-2.3c8.1,0,10.1,5.5,10.1,10.8v9.9c0,2.3,0.1,4.5,0.4,6.3 H132.1z M131.4,84.4c-5.3-0.1-11.2,0.8-11.2,5.9c0,3.1,2.1,4.6,4.5,4.6c3.4,0,5.6-2.2,6.4-4.4c0.2-0.5,0.3-1,0.3-1.5V84.4z"/><path fill="#FFFFFF" d="M146.6,63.9v7.6h6.9v3.7h-6.9v14.2c0,3.3,0.9,5.1,3.6,5.1c1.3,0,2.2-0.2,2.8-0.3l0.2,3.6 c-0.9,0.4-2.4,0.7-4.3,0.7c-2.2,0-4-0.7-5.2-2c-1.4-1.4-1.9-3.8-1.9-6.9V75.1h-4.1v-3.7h4.1v-6.3L146.6,63.9z"/><path fill="#FFFFFF" d="M171.4,97.8l-0.4-3.3h-0.2c-1.5,2.1-4.3,3.9-8.1,3.9c-5.4,0-8.1-3.8-8.1-7.6c0-6.4,5.7-9.9,15.9-9.8v-0.5 c0-2.2-0.6-6.1-6-6.1c-2.5,0-5,0.8-6.9,2l-1.1-3.2c2.2-1.4,5.4-2.3,8.7-2.3c8.1,0,10.1,5.5,10.1,10.8v9.9c0,2.3,0.1,4.5,0.4,6.3 H171.4z M170.7,84.4c-5.3-0.1-11.2,0.8-11.2,5.9c0,3.1,2.1,4.6,4.5,4.6c3.4,0,5.6-2.2,6.4-4.4c0.2-0.5,0.3-1,0.3-1.5V84.4z"/></g></g></a></g><a href="https://ourworldindata.org/grapher/age-standardized-death-rate-from-non-communicable-diseases" target="_blank"><text font-size="21.60" x="15.0" y="32.3" fill="#555"><tspan x="15" y="32.279999999999994">Age-standardized death rate from non-communicable diseases, United</tspan><tspan x="15" y="53.87999999999999">Kingdom</tspan></text></a><text font-size="14.40" x="15.0" y="72.7" fill="#666"><tspan x="15" y="72.72">The age-standardized death rate measures the number of deaths per 100,000 individuals, corrected for age differences by</tspan><tspan x="15" y="88.56">normalising to a constant, reference population distribution. The age-standardization death rate therefore corrects for both</tspan><tspan x="15" y="104.4">changes/differences in population sizes, and the influence of a young or aging population.</tspan></text></g><g class="LineChart"><defs><clipPath id="boundsClip-53"><rect x="37.216" y="0" width="830" height="859.8"></rect></clipPath></defs><g class="AxisBoxView"><g class="HorizontalAxis"><text x="47.2" y="556.5" fill="#666" text-anchor="middle" font-size="16.2">1990</text><text x="163.6" y="556.5" fill="#666" text-anchor="middle" font-size="16.2">1995</text><text x="280" y="556.5" fill="#666" text-anchor="middle" font-size="16.2">2000</text><text x="396.5" y="556.5" fill="#666" text-anchor="middle" font-size="16.2">2005</text><text x="512.9" y="556.5" fill="#666" text-anchor="middle" font-size="16.2">2010</text><text x="652.6" y="556.5" fill="#666" text-anchor="middle" font-size="16.2">2016</text></g><g class="VerticalAxis"><text x="42.22" y="535.3" fill="#666" dominant-baseline="middle" text-anchor="end" font-size="16.2">0</text><text x="42.22" y="476.1" fill="#666" dominant-baseline="middle" text-anchor="end" font-size="16.2">50</text><text x="42.22" y="416.8" fill="#666" dominant-baseline="middle" text-anchor="end" font-size="16.2">100</text><text x="42.22" y="357.6" fill="#666" dominant-baseline="middle" text-anchor="end" font-size="16.2">150</text><text x="42.22" y="298.3" fill="#666" dominant-baseline="middle" text-anchor="end" font-size="16.2">200</text><text x="42.22" y="239.1" fill="#666" dominant-baseline="middle" text-anchor="end" font-size="16.2">250</text><text x="42.22" y="179.8" fill="#666" dominant-baseline="middle" text-anchor="end" font-size="16.2">300</text></g><g class="AxisGridLines"><line x1="47.22" y1="535.3" x2="652.58" y2="535.3" stroke="#ccc"></line><line x1="47.22" y1="476.1" x2="652.58" y2="476.1" stroke="#ddd" stroke-dasharray="3,2"></line><line x1="47.22" y1="416.8" x2="652.58" y2="416.8" stroke="#ddd" stroke-dasharray="3,2"></line><line x1="47.22" y1="357.6" x2="652.58" y2="357.6" stroke="#ddd" stroke-dasharray="3,2"></line><line x1="47.22" y1="298.3" x2="652.58" y2="298.3" stroke="#ddd" stroke-dasharray="3,2"></line><line x1="47.22" y1="239.1" x2="652.58" y2="239.1" stroke="#ddd" stroke-dasharray="3,2"></line><line x1="47.22" y1="179.8" x2="652.58" y2="179.8" stroke="#ddd" stroke-dasharray="3,2"></line></g></g><g clip-path="url(#boundsClip-53)"><g class="HeightedLegend clickable"><g class="legendMark"><rect x="652.5799999999999" y="340.35" width="85.355" height="13.5" fill="#fff" opacity="0"></rect><text font-size="13.50" x="657.6" y="351.2" fill="#ca2628"><tspan x="657.5799999999999" y="351.15000000000003">Cancers</tspan></text></g><g class="legendMark"><rect x="652.5799999999999" y="356.75" width="182.42000000000002" height="13.5" fill="#fff" opacity="0"></rect><text font-size="13.50" x="657.6" y="367.6" fill="#3360a9"><tspan x="657.5799999999999" y="367.55">Cardiovascular diseases</tspan></text></g></g><g class="Lines"><rect x="47" y="127" width="605" height="409" fill="rgba(255,255,255,0)" opacity="0"></rect><g class="key-United-Kingdom_1"><path stroke="#3360a9" stroke-linecap="round" d="M47 127L71 136L94 147L117 153L140 168L164 177L187 190L210 202L234 213L257 223L280 238L303 249L327 259L350 269L373 283L397 296L420 309L443 319L466 329L490 339L513 347L536 354L559 357L583 360L606 363L629 364L653 364" fill="none" stroke-width="1.5"></path><g fill="#3360a9"><circle cx="47" cy="127" r="2"></circle><circle cx="71" cy="136" r="2"></circle><circle cx="94" cy="147" r="2"></circle><circle cx="117" cy="153" r="2"></circle><circle cx="140" cy="168" r="2"></circle><circle cx="164" cy="177" r="2"></circle><circle cx="187" cy="190" r="2"></circle><circle cx="210" cy="202" r="2"></circle><circle cx="234" cy="213" r="2"></circle><circle cx="257" cy="223" r="2"></circle><circle cx="280" cy="238" r="2"></circle><circle cx="303" cy="249" r="2"></circle><circle cx="327" cy="259" r="2"></circle><circle cx="350" cy="269" r="2"></circle><circle cx="373" cy="283" r="2"></circle><circle cx="397" cy="296" r="2"></circle><circle cx="420" cy="309" r="2"></circle><circle cx="443" cy="319" r="2"></circle><circle cx="466" cy="329" r="2"></circle><circle cx="490" cy="339" r="2"></circle><circle cx="513" cy="347" r="2"></circle><circle cx="536" cy="354" r="2"></circle><circle cx="559" cy="357" r="2"></circle><circle cx="583" cy="360" r="2"></circle><circle cx="606" cy="363" r="2"></circle><circle cx="629" cy="364" r="2"></circle><circle cx="653" cy="364" r="2"></circle></g></g><g class="key-United-Kingdom_10"><path stroke="#ca2628" stroke-linecap="round" d="M47 301L71 302L94 304L117 304L140 307L164 309L187 311L210 314L234 317L257 319L280 322L303 324L327 325L350 327L373 330L397 332L420 335L443 338L466 340L490 342L513 344L536 345L559 345L583 346L606 346L629 347L653 347" fill="none" stroke-width="1.5"></path><g fill="#ca2628"><circle cx="47" cy="301" r="2"></circle><circle cx="71" cy="302" r="2"></circle><circle cx="94" cy="304" r="2"></circle><circle cx="117" cy="304" r="2"></circle><circle cx="140" cy="307" r="2"></circle><circle cx="164" cy="309" r="2"></circle><circle cx="187" cy="311" r="2"></circle><circle cx="210" cy="314" r="2"></circle><circle cx="234" cy="317" r="2"></circle><circle cx="257" cy="319" r="2"></circle><circle cx="280" cy="322" r="2"></circle><circle cx="303" cy="324" r="2"></circle><circle cx="327" cy="325" r="2"></circle><circle cx="350" cy="327" r="2"></circle><circle cx="373" cy="330" r="2"></circle><circle cx="397" cy="332" r="2"></circle><circle cx="420" cy="335" r="2"></circle><circle cx="443" cy="338" r="2"></circle><circle cx="466" cy="340" r="2"></circle><circle cx="490" cy="342" r="2"></circle><circle cx="513" cy="344" r="2"></circle><circle cx="536" cy="345" r="2"></circle><circle cx="559" cy="345" r="2"></circle><circle cx="583" cy="346" r="2"></circle><circle cx="606" cy="346" r="2"></circle><circle cx="629" cy="347" r="2"></circle><circle cx="653" cy="347" r="2"></circle></g></g></g></g></g><g style="fill: #777;" class="SourcesFooter"><g style="fill: #777;" class="clickable"><text font-size="12.60" x="15.0" y="581.6"><tspan x="15" y="581.58">Source: Institute for Health Metrics and Evaluation (IHME)</tspan></text></g><text font-size="12.60" x="775.4" y="581.6"><tspan x="775.402" y="581.58"><a style="fill: #777;" class="cclogo" href="http://creativecommons.org/licenses/by-sa/4.0/deed.en_US" target="_blank">CC BY-SA</a></tspan></text></g></g></svg>