<svg xmlns="http://www.w3.org/2000/svg" version="1.1" style="font-family: 'Helvetica Neue', Helvetica, Arial, sans-serif; font-size: 18px; background-color: white; text-rendering: optimizeLegibility; -webkit-font-smoothing: antialiased;" width="850" height="600"><g class="ChartTab"><g class="HeaderView"><g opacity="0.8" transform="translate(778, 15) scale(0.27)"><a xmlns:xlink="http://www.w3.org/1999/xlink" xlink:href="https://ourworldindata.org" target="_blank"><g><rect x="0" y="0" fill="#1B2543" width="211.2" height="130.1"/><rect x="0" y="112.2" fill="#E63912" width="211.2" height="17.9"/><g><rect x="1.2" y="12.3" fill="none" width="210.2" height="99.2"/><path fill="#FFFFFF" d="M37.8,32.2c0,12.7-7.7,19.4-17.1,19.4c-9.7,0-16.6-7.5-16.6-18.7c0-11.7,7.3-19.3,17.1-19.3 C31.3,13.7,37.8,21.3,37.8,32.2z M9.2,32.8c0,7.9,4.3,14.9,11.8,14.9c7.5,0,11.8-6.9,11.8-15.3c0-7.3-3.8-14.9-11.8-14.9 C13.1,17.5,9.2,24.8,9.2,32.8z"/><path fill="#FFFFFF" d="M62.7,43.8c0,2.7,0.1,5.1,0.2,7.2h-4.3l-0.3-4.3h-0.1c-1.3,2.1-4,4.9-8.8,4.9c-4.2,0-9.1-2.3-9.1-11.6 V24.6h4.8v14.6c0,5,1.5,8.4,5.9,8.4c3.2,0,5.5-2.2,6.3-4.4c0.3-0.7,0.4-1.6,0.4-2.5V24.6h4.8V43.8z"/><path fill="#FFFFFF" d="M67.3,32.8c0-3.1-0.1-5.8-0.2-8.2h4.2l0.2,5.2h0.2c1.2-3.5,4.1-5.8,7.3-5.8c0.5,0,0.9,0.1,1.4,0.2v4.5 c-0.5-0.1-1-0.2-1.6-0.2c-3.4,0-5.8,2.6-6.5,6.2c-0.1,0.7-0.2,1.4-0.2,2.2V51h-4.8V32.8z"/><path fill="#FFFFFF" d="M95.4,51l-9.4-36.8h5l4.4,18.6c1.1,4.6,2.1,9.2,2.7,12.7h0.1c0.6-3.7,1.8-8,3-12.8l4.9-18.5h5l4.5,18.7 c1,4.4,2,8.7,2.6,12.6h0.1c0.8-4,1.8-8.1,3-12.7l4.9-18.5h4.9L120.6,51h-5L111,31.9c-1.1-4.7-1.9-8.3-2.4-12h-0.1 c-0.7,3.7-1.5,7.3-2.8,12L100.4,51H95.4z"/><path fill="#FFFFFF" d="M154.9,37.6c0,9.8-6.8,14-13.2,14c-7.2,0-12.7-5.2-12.7-13.6c0-8.8,5.8-14,13.1-14 C149.8,24,154.9,29.5,154.9,37.6z M133.9,37.9c0,5.8,3.3,10.1,8,10.1c4.6,0,8-4.3,8-10.3c0-4.5-2.2-10.1-7.9-10.1 C136.3,27.6,133.9,32.8,133.9,37.9z"/><path fill="#FFFFFF" d="M158.2,32.8c0-3.1-0.1-5.8-0.2-8.2h4.2l0.2,5.2h0.2c1.2-3.5,4.1-5.8,7.3-5.8c0.5,0,0.9,0.1,1.4,0.2v4.5 c-0.5-0.1-1-0.2-1.6-0.2c-3.4,0-5.8,2.6-6.5,6.2c-0.1,0.7-0.2,1.4-0.2,2.2V51h-4.8V32.8z"/><path fill="#FFFFFF" d="M173.5,12.3h4.8V51h-4.8V12.3z"/><path fill="#FFFFFF" d="M206.5,12.3v31.9c0,2.3,0.1,5,0.2,6.8h-4.3l-0.2-4.6H202c-1.5,2.9-4.7,5.2-9,5.2 c-6.4,0-11.3-5.4-11.3-13.4c-0.1-8.8,5.4-14.2,11.9-14.2c4,0,6.8,1.9,8,4h0.1V12.3H206.5z M201.7,35.4c0-0.6-0.1-1.4-0.2-2 c-0.7-3.1-3.3-5.6-6.9-5.6c-5,0-7.9,4.4-7.9,10.2c0,5.3,2.6,9.8,7.8,9.8c3.2,0,6.2-2.1,7.1-5.7c0.2-0.7,0.2-1.3,0.2-2.1V35.4z"/><path fill="#FFFFFF" d="M42.8,64c0.1,1.6-1.1,2.9-3.1,2.9c-1.7,0-2.9-1.3-2.9-2.9c0-1.7,1.3-3,3-3C41.7,61,42.8,62.3,42.8,64z M37.4,97.8V71.4h4.8v26.4H37.4z"/><path fill="#FFFFFF" d="M47.5,78.6c0-2.7-0.1-5-0.2-7.1h4.3l0.3,4.4h0.1c1.3-2.5,4.4-5,8.8-5c3.7,0,9.4,2.2,9.4,11.2v15.8h-4.8 V82.6c0-4.3-1.6-7.8-6.1-7.8c-3.2,0-5.6,2.2-6.5,4.9c-0.2,0.6-0.3,1.4-0.3,2.2v15.9h-4.8V78.6z"/><path fill="#FFFFFF" d="M84,61.6c2.9-0.4,6.3-0.8,10.1-0.8c6.8,0,11.7,1.6,14.9,4.6c3.3,3,5.2,7.3,5.2,13.2c0,6-1.9,10.9-5.3,14.3 c-3.4,3.4-9.1,5.3-16.3,5.3c-3.4,0-6.2-0.2-8.6-0.4V61.6z M88.8,94.1c1.2,0.2,3,0.3,4.8,0.3c10.2,0,15.7-5.7,15.7-15.6 c0.1-8.7-4.9-14.2-14.9-14.2c-2.5,0-4.3,0.2-5.6,0.5V94.1z"/><path fill="#FFFFFF" d="M132.1,97.8l-0.4-3.3h-0.2c-1.5,2.1-4.3,3.9-8.1,3.9c-5.4,0-8.1-3.8-8.1-7.6c0-6.4,5.7-9.9,15.9-9.8v-0.5 c0-2.2-0.6-6.1-6-6.1c-2.5,0-5,0.8-6.9,2l-1.1-3.2c2.2-1.4,5.4-2.3,8.7-2.3c8.1,0,10.1,5.5,10.1,10.8v9.9c0,2.3,0.1,4.5,0.4,6.3 H132.1z M131.4,84.4c-5.3-0.1-11.2,0.8-11.2,5.9c0,3.1,2.1,4.6,4.5,4.6c3.4,0,5.6-2.2,6.4-4.4c0.2-0.5,0.3-1,0.3-1.5V84.4z"/><path fill="#FFFFFF" d="M146.6,63.9v7.6h6.9v3.7h-6.9v14.2c0,3.3,0.9,5.1,3.6,5.1c1.3,0,2.2-0.2,2.8-0.3l0.2,3.6 c-0.9,0.4-2.4,0.7-4.3,0.7c-2.2,0-4-0.7-5.2-2c-1.4-1.4-1.9-3.8-1.9-6.9V75.1h-4.1v-3.7h4.1v-6.3L146.6,63.9z"/><path fill="#FFFFFF" d="M171.4,97.8l-0.4-3.3h-0.2c-1.5,2.1-4.3,3.9-8.1,3.9c-5.4,0-8.1-3.8-8.1-7.6c0-6.4,5.7-9.9,15.9-9.8v-0.5 c0-2.2-0.6-6.1-6-6.1c-2.5,0-5,0.8-6.9,2l-1.1-3.2c2.2-1.4,5.4-2.3,8.7-2.3c8.1,0,10.1,5.5,10.1,10.8v9.9c0,2.3,0.1,4.5,0.4,6.3 H171.4z M170.7,84.4c-5.3-0.1-11.2,0.8-11.2,5.9c0,3.1,2.1,4.6,4.5,4.6c3.4,0,5.6-2.2,6.4-4.4c0.2-0.5,0.3-1,0.3-1.5V84.4z"/></g></g></a></g><a href="https://ourworldindata.org/grapher/aid-vs-gdp-per-capita" target="_blank"><text font-size="25.20" x="15.0" y="35.2" fill="#555"><tspan x="15" y="35.160000000000004">Aid received per capita vs. GDP per capita, 2016</tspan></text></a><text font-size="14.40" x="15.0" y="53.7" fill="#666"><tspan x="15" y="53.72">Total aid received directly per capita versus gross domestic product (GDP) per capita. Total aid received directly is</tspan><tspan x="15" y="69.56">the sum of country programmable aid (CPA), humanitarian and food aid, measured in constant 2016 USD per person.</tspan><tspan x="15" y="85.4">GDP per capita is measured in 2011 international-$. Bubble size represents the estimated number of people below</tspan><tspan x="15" y="101.24000000000001">the international poverty line of $1.90 per person per day.</tspan></text></g><g><g class="AxisBoxView"><g class="HorizontalAxis"><text font-size="12.60" x="202.9" y="554.0"><tspan x="202.86" y="553.98">GDP per capita, PPP (constant 2011 international $)</tspan></text><text x="163.4" y="533.9" fill="#666" text-anchor="middle" font-size="16.2">$1,000</text><text x="532.8" y="533.9" fill="#666" text-anchor="middle" font-size="16.2">$10,000</text></g><g class="VerticalAxis"><text font-size="12.60" x="-404.1" y="25.1" transform="rotate(-90)"><tspan x="-404.12299999999993" y="25.080000000000002">Aid received per capita</tspan></text><text x="87.50" y="498.1" fill="#666" dominant-baseline="middle" text-anchor="end" font-size="16.2">$1</text><text x="87.50" y="386" fill="#666" dominant-baseline="middle" text-anchor="end" font-size="16.2">$10</text><text x="87.50" y="274" fill="#666" dominant-baseline="middle" text-anchor="end" font-size="16.2">$100</text><text x="87.50" y="162" fill="#666" dominant-baseline="middle" text-anchor="end" font-size="16.2">$1,000</text></g><g class="AxisGridLines"><line x1="92.50" y1="498.1" x2="684.05" y2="498.1" stroke="#ddd" stroke-dasharray="3,2"></line><line x1="92.50" y1="386" x2="684.05" y2="386" stroke="#ddd" stroke-dasharray="3,2"></line><line x1="92.50" y1="274" x2="684.05" y2="274" stroke="#ddd" stroke-dasharray="3,2"></line><line x1="92.50" y1="162" x2="684.05" y2="162" stroke="#ddd" stroke-dasharray="3,2"></line></g><g class="AxisGridLines"><line x1="163.4" y1="512.70" x2="163.4" y2="123.10" stroke="#ddd" stroke-dasharray="3,2"></line><line x1="532.8" y1="512.70" x2="532.8" y2="123.10" stroke="#ddd" stroke-dasharray="3,2"></line></g></g><g clip-path="url(#scatterBounds-29)" font-family="Arial Narrow, Arial, sans-serif" class="PointsWithLabels clickable"><rect x="92.49600000000001" y="123.1" width="591.552" height="389.59999999999997" fill="rgba(255,255,255,0)"></rect><defs><clipPath id="scatterBounds-29"><rect x="82.49600000000001" y="113.1" width="611.552" height="409.59999999999997"></rect></clipPath></defs><g class="key-India_0"><circle cx="453.00" cy="436.00" r="15.96" fill="#969696" opacity="0.8" stroke="#333" stroke-width="0.7"></circle></g><g class="key-Nigeria_0"><circle cx="435.00" cy="374.00" r="12.46" fill="#969696" opacity="0.8" stroke="#333" stroke-width="0.7"></circle></g><g class="key-Democratic-Republic-of-Congo_0"><circle cx="128.00" cy="341.00" r="10.73" fill="#636363" opacity="0.8" stroke="#333" stroke-width="0.7"></circle></g><g class="key-Ethiopia_0"><circle cx="239.00" cy="318.00" r="7.19" fill="#636363" opacity="0.8" stroke="#333" stroke-width="0.7"></circle></g><g class="key-Tanzania_0"><circle cx="315.00" cy="315.00" r="6.81" fill="#636363" opacity="0.8" stroke="#333" stroke-width="0.7"></circle></g><g class="key-Indonesia_0"><circle cx="544.00" cy="398.00" r="6.55" fill="#969696" opacity="0.8" stroke="#333" stroke-width="0.7"></circle></g><g class="key-Madagascar_0"><circle cx="217.00" cy="340.00" r="6.46" fill="#636363" opacity="0.8" stroke="#fff" stroke-width="0.7"></circle></g><g class="key-Mozambique_0"><circle cx="182.00" cy="299.00" r="6.41" fill="#636363" opacity="0.8" stroke="#333" stroke-width="0.7"></circle></g><g class="key-South-Africa_0"><circle cx="565.00" cy="347.00" r="5.53" fill="#cccccc" opacity="0.8" stroke="#333" stroke-width="0.7"></circle></g><g class="key-Bangladesh_0"><circle cx="355.00" cy="355.00" r="5.40" fill="#969696" opacity="0.8" stroke="#333" stroke-width="0.7"></circle></g><g class="key-Afghanistan_0"><circle cx="257.00" cy="272.00" r="5.36" fill="#636363" opacity="0.8" stroke="#333" stroke-width="0.7"></circle></g><g class="key-Uganda_0"><circle cx="247.00" cy="315.00" r="5.31" fill="#636363" opacity="0.8" stroke="#fff" stroke-width="0.7"></circle></g><g class="key-Malawi_0"><circle cx="176.00" cy="292.00" r="5.16" fill="#636363" opacity="0.8" stroke="#fff" stroke-width="0.7"></circle></g><g class="key-Kenya_0"><circle cx="335.00" cy="311.00" r="5.05" fill="#969696" opacity="0.8" stroke="#fff" stroke-width="0.7"></circle></g><g class="key-Philippines_0"><circle cx="480.00" cy="391.00" r="4.95" fill="#969696" opacity="0.8" stroke="#333" stroke-width="0.7"></circle></g><g class="key-China_0"><circle cx="591.00" cy="512.00" r="4.76" fill="#cccccc" opacity="0.8" stroke="#333" stroke-width="0.7"></circle></g><g class="key-South-Sudan_0"><circle cx="235.00" cy="261.00" r="4.74" fill="#636363" opacity="0.8" stroke="#fff" stroke-width="0.7"></circle></g><g class="key-Zambia_0"><circle cx="371.00" cy="301.00" r="4.69" fill="#969696" opacity="0.8" stroke="#333" stroke-width="0.7"></circle></g><g class="key-Yemen_0"><circle cx="226.00" cy="312.00" r="4.61" fill="#969696" opacity="0.8" stroke="#fff" stroke-width="0.7"></circle></g><g class="key-Niger_0"><circle cx="149.00" cy="310.00" r="4.57" fill="#636363" opacity="0.8" stroke="#333" stroke-width="0.7"></circle></g><g class="key-Burundi_0"><circle cx="110.00" cy="291.00" r="4.55" fill="#636363" opacity="0.8" stroke="#333" stroke-width="0.7"></circle></g><g class="key-Brazil_0"><circle cx="587.00" cy="437.00" r="4.49" fill="#cccccc" opacity="0.8" stroke="#333" stroke-width="0.7"></circle></g><g class="key-Sudan_0"><circle cx="400.00" cy="350.00" r="4.30" fill="#969696" opacity="0.8" stroke="#fff" stroke-width="0.7"></circle></g><g class="key-Pakistan_0"><circle cx="416.00" cy="360.00" r="4.28" fill="#969696" opacity="0.8" stroke="#fff" stroke-width="0.7"></circle></g><g class="key-Angola_0"><circle cx="450.00" cy="389.00" r="4.23" fill="#969696" opacity="0.8" stroke="#fff" stroke-width="0.7"></circle></g><g class="key-Myanmar_0"><circle cx="431.00" cy="333.00" r="4.09" fill="#969696" opacity="0.8" stroke="#333" stroke-width="0.7"></circle></g><g class="key-Zimbabwe_0"><circle cx="264.00" cy="313.00" r="4.03" fill="#636363" opacity="0.8" stroke="#fff" stroke-width="0.7"></circle></g><g class="key-Burkina-Faso_0"><circle cx="243.00" cy="304.00" r="4.01" fill="#636363" opacity="0.8" stroke="#fff" stroke-width="0.7"></circle></g><g class="key-Cote-d__0027Ivoire_0"><circle cx="360.00" cy="318.00" r="3.95" fill="#969696" opacity="0.8" stroke="#fff" stroke-width="0.7"></circle></g><g class="key-Rwanda_0"><circle cx="256.00" cy="276.00" r="3.88" fill="#636363" opacity="0.8" stroke="#fff" stroke-width="0.7"></circle></g><g class="key-Ghana_0"><circle cx="385.00" cy="308.00" r="3.88" fill="#969696" opacity="0.8" stroke="#fff" stroke-width="0.7"></circle></g><g class="key-Chad_0"><circle cx="264.00" cy="314.00" r="3.86" fill="#636363" opacity="0.8" stroke="#fff" stroke-width="0.7"></circle></g><g class="key-Haiti_0"><circle cx="244.00" cy="284.00" r="3.74" fill="#636363" opacity="0.8" stroke="#333" stroke-width="0.7"></circle></g><g class="key-Mali_0"><circle cx="272.00" cy="300.00" r="3.74" fill="#636363" opacity="0.8" stroke="#333" stroke-width="0.7"></circle></g><g class="key-Cameroon_0"><circle cx="357.00" cy="334.00" r="3.74" fill="#969696" opacity="0.8" stroke="#333" stroke-width="0.7"></circle></g><g class="key-Senegal_0"><circle cx="302.00" cy="309.00" r="3.72" fill="#636363" opacity="0.8" stroke="#fff" stroke-width="0.7"></circle></g><g class="key-Benin_0"><circle cx="275.00" cy="313.00" r="3.69" fill="#636363" opacity="0.8" stroke="#fff" stroke-width="0.7"></circle></g><g class="key-Guinea_0"><circle cx="265.00" cy="313.00" r="3.53" fill="#636363" opacity="0.8" stroke="#fff" stroke-width="0.7"></circle></g><g class="key-Uzbekistan_0"><circle cx="451.00" cy="362.00" r="3.50" fill="#969696" opacity="0.8" stroke="#fff" stroke-width="0.7"></circle></g><g class="key-Central-African-Republic_0"><circle cx="92.00" cy="268.00" r="3.32" fill="#636363" opacity="0.8" stroke="#333" stroke-width="0.7"></circle></g><g class="key-Liberia_0"><circle cx="118.00" cy="246.00" r="3.14" fill="#636363" opacity="0.8" stroke="#333" stroke-width="0.7"></circle></g><g class="key-Colombia_0"><circle cx="576.00" cy="349.00" r="3.05" fill="#cccccc" opacity="0.8" stroke="#fff" stroke-width="0.7"></circle></g><g class="key-Sierra-Leone_0"><circle cx="213.00" cy="275.00" r="2.99" fill="#636363" opacity="0.8" stroke="#fff" stroke-width="0.7"></circle></g><g class="key-Mexico_0"><circle cx="619.00" cy="414.00" r="2.97" fill="#cccccc" opacity="0.8" stroke="#333" stroke-width="0.7"></circle></g><g class="key-Togo_0"><circle cx="216.00" cy="345.00" r="2.90" fill="#636363" opacity="0.8" stroke="#333" stroke-width="0.7"></circle></g><g class="key-Nepal_0"><circle cx="296.00" cy="317.00" r="2.89" fill="#636363" opacity="0.8" stroke="#fff" stroke-width="0.7"></circle></g><g class="key-Papua-New-Guinea_0"><circle cx="378.00" cy="292.00" r="2.87" fill="#969696" opacity="0.8" stroke="#fff" stroke-width="0.7"></circle></g><g class="key-Congo_0"><circle cx="429.00" cy="353.00" r="2.75" fill="#969696" opacity="0.8" stroke="#fff" stroke-width="0.7"></circle></g><g class="key-Guatemala_0"><circle cx="483.00" cy="362.00" r="2.48" fill="#969696" opacity="0.8" stroke="#333" stroke-width="0.7"></circle></g><g class="key-Honduras_0"><circle cx="401.00" cy="308.00" r="2.45" fill="#969696" opacity="0.8" stroke="#fff" stroke-width="0.7"></circle></g><g class="key-Laos_0"><circle cx="452.00" cy="293.00" r="2.42" fill="#969696" opacity="0.8" stroke="#333" stroke-width="0.7"></circle></g><g class="key-Tajikistan_0"><circle cx="326.00" cy="316.00" r="2.41" fill="#969696" opacity="0.8" stroke="#fff" stroke-width="0.7"></circle></g><g class="key-Vietnam_0"><circle cx="446.00" cy="320.00" r="2.39" fill="#969696" opacity="0.8" stroke="#333" stroke-width="0.7"></circle></g><g class="key-Guinea__002dBissau_0"><circle cx="228.00" cy="307.00" r="2.34" fill="#636363" opacity="0.8" stroke="#fff" stroke-width="0.7"></circle></g><g class="key-Lesotho_0"><circle cx="324.00" cy="300.00" r="2.34" fill="#969696" opacity="0.8" stroke="#fff" stroke-width="0.7"></circle></g><g class="key-Libya_0"><circle cx="590.00" cy="336.00" r="2.27" fill="#cccccc" opacity="0.8" stroke="#fff" stroke-width="0.7"></circle></g><g class="key-Gambia_0"><circle cx="234.00" cy="305.00" r="2.20" fill="#636363" opacity="0.8" stroke="#fff" stroke-width="0.7"></circle></g><g class="key-Algeria_0"><circle cx="585.00" cy="441.00" r="2.17" fill="#cccccc" opacity="0.8" stroke="#fff" stroke-width="0.7"></circle></g><g class="key-Peru_0"><circle cx="563.00" cy="375.00" r="2.16" fill="#cccccc" opacity="0.8" stroke="#333" stroke-width="0.7"></circle></g><g class="key-Ecuador_0"><circle cx="539.00" cy="376.00" r="2.13" fill="#cccccc" opacity="0.8" stroke="#fff" stroke-width="0.7"></circle></g><g class="key-Bolivia_0"><circle cx="468.00" cy="302.00" r="2.10" fill="#969696" opacity="0.8" stroke="#fff" stroke-width="0.7"></circle></g><g class="key-Eswatini_0"><circle cx="491.00" cy="266.00" r="2.08" fill="#969696" opacity="0.8" stroke="#333" stroke-width="0.7"></circle></g><g class="key-Namibia_0"><circle cx="530.00" cy="284.00" r="2.07" fill="#cccccc" opacity="0.8" stroke="#333" stroke-width="0.7"></circle></g><g class="key-Malaysia_0"><circle cx="684.00" cy="453.00" r="2.05" fill="#cccccc" opacity="0.8" stroke="#333" stroke-width="0.7"></circle></g><g class="key-Nicaragua_0"><circle cx="425.00" cy="287.00" r="2.02" fill="#969696" opacity="0.8" stroke="#fff" stroke-width="0.7"></circle></g><g class="key-Botswana_0"><circle cx="605.00" cy="313.00" r="2.00" fill="#cccccc" opacity="0.8" stroke="#333" stroke-width="0.7"></circle></g><g class="key-Egypt_0"><circle cx="537.00" cy="325.00" r="1.97" fill="#969696" opacity="0.8" stroke="#333" stroke-width="0.7"></circle></g><g class="key-Georgia_0"><circle cx="520.00" cy="265.00" r="1.97" fill="#969696" opacity="0.8" stroke="#fff" stroke-width="0.7"></circle></g><g class="key-Iraq_0"><circle cx="610.00" cy="337.00" r="1.96" fill="#cccccc" opacity="0.8" stroke="#fff" stroke-width="0.7"></circle></g><g class="key-Mauritania_0"><circle cx="367.00" cy="287.00" r="1.92" fill="#969696" opacity="0.8" stroke="#333" stroke-width="0.7"></circle></g><g class="key-Lebanon_0"><circle cx="578.00" cy="261.00" r="1.91" fill="#cccccc" opacity="0.8" stroke="#333" stroke-width="0.7"></circle></g><g class="key-Solomon-Islands_0"><circle cx="288.00" cy="220.00" r="1.90" fill="#969696" opacity="0.8" stroke="#333" stroke-width="0.7"></circle></g><g class="key-El-Salvador_0"><circle cx="479.00" cy="344.00" r="1.89" fill="#969696" opacity="0.8" stroke="#333" stroke-width="0.7"></circle></g><g class="key-Morocco_0"><circle cx="482.00" cy="301.00" r="1.89" fill="#969696" opacity="0.8" stroke="#333" stroke-width="0.7"></circle></g><g class="key-Paraguay_0"><circle cx="513.00" cy="355.00" r="1.86" fill="#cccccc" opacity="0.8" stroke="#fff" stroke-width="0.7"></circle></g><g class="key-Comoros_0"><circle cx="218.00" cy="297.00" r="1.85" fill="#636363" opacity="0.8" stroke="#fff" stroke-width="0.7"></circle></g><g class="key-Suriname_0"><circle cx="585.00" cy="333.00" r="1.85" fill="#cccccc" opacity="0.8" stroke="#fff" stroke-width="0.7"></circle></g><g class="key-Sri-Lanka_0"><circle cx="554.00" cy="318.00" r="1.85" fill="#969696" opacity="0.8" stroke="#fff" stroke-width="0.7"></circle></g><g class="key-Turkey_0"><circle cx="671.00" cy="349.00" r="1.84" fill="#cccccc" opacity="0.8" stroke="#333" stroke-width="0.7"></circle></g><g class="key-Panama_0"><circle cx="655.00" cy="393.00" r="1.84" fill="#cccccc" opacity="0.8" stroke="#333" stroke-width="0.7"></circle></g><g class="key-Cape-Verde_0"><circle cx="452.00" cy="243.00" r="1.84" fill="#969696" opacity="0.8" stroke="#333" stroke-width="0.7"></circle></g><g class="key-Armenia_0"><circle cx="500.00" cy="263.00" r="1.83" fill="#969696" opacity="0.8" stroke="#fff" stroke-width="0.7"></circle></g><g class="key-Tunisia_0"><circle cx="544.00" cy="299.00" r="1.83" fill="#969696" opacity="0.8" stroke="#333" stroke-width="0.7"></circle></g><g class="key-Argentina_0"><circle cx="632.00" cy="482.00" r="1.82" fill="#cccccc" opacity="0.8" stroke="#333" stroke-width="0.7"></circle></g><g class="key-Saint-Lucia_0"><circle cx="543.00" cy="244.00" r="1.82" fill="#cccccc" opacity="0.8" stroke="#333" stroke-width="0.7"></circle></g><g class="key-Kyrgyzstan_0"><circle cx="355.00" cy="274.00" r="1.81" fill="#969696" opacity="0.8" stroke="#333" stroke-width="0.7"></circle></g><g class="key-Sao-Tome-and-Principe_0"><circle cx="339.00" cy="232.00" r="1.81" fill="#969696" opacity="0.8" stroke="#fff" stroke-width="0.7"></circle></g><g class="key-Guyana_0"><circle cx="481.00" cy="268.00" r="1.81" fill="#cccccc" opacity="0.8" stroke="#fff" stroke-width="0.7"></circle></g><g class="key-Gabon_0"><circle cx="615.00" cy="349.00" r="1.81" fill="#cccccc" opacity="0.8" stroke="#fff" stroke-width="0.7"></circle></g><g class="key-Belize_0"><circle cx="495.00" cy="264.00" r="1.81" fill="#cccccc" opacity="0.8" stroke="#fff" stroke-width="0.7"></circle></g><g class="key-Vanuatu_0"><circle cx="331.00" cy="201.00" r="1.81" fill="#969696" opacity="0.8" stroke="#333" stroke-width="0.7"></circle></g><g class="key-Dominican-Republic_0"><circle cx="588.00" cy="349.00" r="1.80" fill="#cccccc" opacity="0.8" stroke="#fff" stroke-width="0.7"></circle></g><g class="key-Cambodia_0"><circle cx="362.00" cy="309.00" r="1.80" fill="#969696" opacity="0.8" stroke="#fff" stroke-width="0.7"></circle></g><g class="key-Azerbaijan_0"><circle cx="608.00" cy="357.00" r="1.80" fill="#cccccc" opacity="0.8" stroke="#fff" stroke-width="0.7"></circle></g><g class="key-Jamaica_0"><circle cx="500.00" cy="335.00" r="1.80" fill="#cccccc" opacity="0.8" stroke="#fff" stroke-width="0.7"></circle></g><g class="key-Ukraine_0"><circle cx="490.00" cy="337.00" r="1.80" fill="#969696" opacity="0.8" stroke="#fff" stroke-width="0.7"></circle></g><g class="key-Kiribati_0"><circle cx="270.00" cy="192.00" r="1.79" fill="#969696" opacity="0.8" stroke="#333" stroke-width="0.7"></circle></g><g class="key-Macedonia_0"><circle cx="576.00" cy="282.00" r="1.79" fill="#cccccc" opacity="0.8" stroke="#333" stroke-width="0.7"></circle></g><g class="key-Serbia_0"><circle cx="583.00" cy="298.00" r="1.79" fill="#cccccc" opacity="0.8" stroke="#333" stroke-width="0.7"></circle></g><g class="key-Iran_0"><circle cx="631.00" cy="497.00" r="1.79" fill="#cccccc" opacity="0.8" stroke="#333" stroke-width="0.7"></circle></g><g class="key-Fiji_0"><circle cx="505.00" cy="277.00" r="1.79" fill="#cccccc" opacity="0.8" stroke="#333" stroke-width="0.7"></circle></g><g class="key-Albania_0"><circle cx="553.00" cy="277.00" r="1.79" fill="#cccccc" opacity="0.8" stroke="#fff" stroke-width="0.7"></circle></g><g class="key-Maldives_0"><circle cx="589.00" cy="275.00" r="1.79" fill="#cccccc" opacity="0.8" stroke="#fff" stroke-width="0.7"></circle></g><g class="key-Chile_0"><circle cx="663.00" cy="378.00" r="1.79" fill="#f7f7f7" opacity="0.8" stroke="#333" stroke-width="0.7"></circle></g><g class="key-Mongolia_0"><circle cx="553.00" cy="263.00" r="1.79" fill="#969696" opacity="0.8" stroke="#fff" stroke-width="0.7"></circle></g><g class="key-Belarus_0"><circle cx="615.00" cy="385.00" r="1.79" fill="#cccccc" opacity="0.8" stroke="#fff" stroke-width="0.7"></circle></g><g class="key-Saint-Vincent-and-the-Grenadines_0"><circle cx="544.00" cy="242.00" r="1.79" fill="#cccccc" opacity="0.8" stroke="#fff" stroke-width="0.7"></circle></g><g class="key-Kazakhstan_0"><circle cx="669.00" cy="411.00" r="1.79" fill="#cccccc" opacity="0.8" stroke="#fff" stroke-width="0.7"></circle></g><g class="key-Grenada_0"><circle cx="576.00" cy="237.00" r="1.79" fill="#cccccc" opacity="0.8" stroke="#fff" stroke-width="0.7"></circle></g><g class="key-Mauritius_0"><circle cx="640.00" cy="304.00" r="1.79" fill="#cccccc" opacity="0.8" stroke="#fff" stroke-width="0.7"></circle></g><g class="key-Palestine_0"><circle cx="413.00" cy="197.00" r="1.79" fill="#969696" opacity="0.8" stroke="#333" stroke-width="0.7"></circle></g><g class="key-Uruguay_0"><circle cx="644.00" cy="407.00" r="1.79" fill="#f7f7f7" opacity="0.8" stroke="#fff" stroke-width="0.7"></circle></g><g class="key-Jordan_0"><circle cx="504.00" cy="219.00" r="1.79" fill="#969696" opacity="0.8" stroke="#333" stroke-width="0.7"></circle></g><g class="key-Antigua-and-Barbuda_0"><circle cx="651.00" cy="291.00" r="1.79" fill="#f7f7f7" opacity="0.8" stroke="#fff" stroke-width="0.7"></circle></g><g class="key-Turkmenistan_0"><circle cx="604.00" cy="421.00" r="1.79" fill="#cccccc" opacity="0.8" stroke="#fff" stroke-width="0.7"></circle></g><g class="key-Bosnia-and-Herzegovina_0"><circle cx="552.00" cy="273.00" r="1.79" fill="#cccccc" opacity="0.8" stroke="#fff" stroke-width="0.7"></circle></g><g class="key-Equatorial-Guinea_0"><circle cx="674.00" cy="400.00" r="1.78" fill="#cccccc" opacity="0.8" stroke="#fff" stroke-width="0.7"></circle></g><g class="key-Bhutan_0"><circle cx="502.00" cy="287.00" r="1.78" fill="#969696" opacity="0.8" stroke="#fff" stroke-width="0.7"></circle></g><g class="key-Seychelles_0"><circle cx="683.00" cy="254.00" r="1.78" fill="#f7f7f7" opacity="0.8" stroke="#333" stroke-width="0.7"></circle></g><g class="key-Moldova_0"><circle cx="420.00" cy="280.00" r="1.78" fill="#969696" opacity="0.8" stroke="#333" stroke-width="0.7"></circle></g><g class="key-Tonga_0"><circle cx="431.00" cy="176.00" r="1.78" fill="#cccccc" opacity="0.8" stroke="#333" stroke-width="0.7"></circle></g><g class="key-Montenegro_0"><circle cx="605.00" cy="265.00" r="1.78" fill="#cccccc" opacity="0.8" stroke="#fff" stroke-width="0.7"></circle></g><g class="key-Samoa_0"><circle cx="448.00" cy="197.00" r="1.78" fill="#cccccc" opacity="0.8" stroke="#fff" stroke-width="0.7"></circle></g><g class="key-Thailand_0"><circle cx="605.00" cy="399.00" r="1.78" fill="#cccccc" opacity="0.8" stroke="#fff" stroke-width="0.7"></circle></g><g class="key-Costa-Rica_0"><circle cx="599.00" cy="347.00" r="1.78" fill="#cccccc" opacity="0.8" stroke="#fff" stroke-width="0.7"></circle></g><g class="key-Dominica_0"><circle cx="535.00" cy="234.00" r="1.78" fill="#cccccc" opacity="0.8" stroke="#fff" stroke-width="0.7"></circle></g><g class="key-Marshall-Islands_0"><circle cx="374.00" cy="235.00" r="1.78" fill="#cccccc" opacity="0.8" stroke="#fff" stroke-width="0.7"></circle></g><g class="key-Nauru_0"><circle cx="574.00" cy="128.00" r="1.78" fill="#cccccc" opacity="0.8" stroke="#333" stroke-width="0.7"></circle></g><g class="key-Palau_0"><circle cx="585.00" cy="175.00" r="1.78" fill="#f7f7f7" opacity="0.8" stroke="#333" stroke-width="0.7"></circle></g><g class="key-Tuvalu_0"><circle cx="364.00" cy="123.00" r="1.78" fill="#cccccc" opacity="0.8" stroke="#333" stroke-width="0.7"></circle></g><g fill="#333" class="backgroundLabels"><text x="453.00" y="419.04" font-size="13.63">India</text><text x="435.00" y="360.54" font-size="12.59">Nigeria</text><text x="128.00" y="329.27" font-size="12.17">Democratic Republic of Congo</text><text x="239.00" y="309.81" font-size="11.51">Ethiopia</text><text x="315.00" y="307.19" font-size="11.45">Tanzania</text><text x="544.00" y="390.45" font-size="11.42">Indonesia</text><text x="182.00" y="291.59" font-size="11.40">Mozambique</text><text x="565.00" y="340.47" font-size="11.29">South Africa</text><text x="355.00" y="348.60" font-size="11.27">Bangladesh</text><text x="257.00" y="265.64" font-size="11.27">Afghanistan</text><text x="480.00" y="385.05" font-size="11.22">Philippines</text><text x="591.00" y="506.24" font-size="11.20">China</text><text x="371.00" y="295.31" font-size="11.20">Zambia</text><text x="149.00" y="304.43" font-size="11.18">Niger</text><text x="110.00" y="285.45" font-size="11.18">Burundi</text><text x="587.00" y="431.51" font-size="11.18">Brazil</text><text x="431.00" y="327.91" font-size="11.14">Myanmar</text><text x="244.00" y="279.26" font-size="11.11">Haiti</text><text x="272.00" y="295.26" font-size="11.11">Mali</text><text x="357.00" y="329.26" font-size="11.11">Cameroon</text><text x="92.00" y="263.68" font-size="11.08">Central African Republic</text><text x="118.00" y="241.86" font-size="11.07">Liberia</text><text x="619.00" y="410.03" font-size="11.06">Mexico</text><text x="216.00" y="341.10" font-size="11.05">Togo</text><text x="483.00" y="358.52" font-size="11.03">Guatemala</text><text x="452.00" y="289.58" font-size="11.03">Laos</text><text x="446.00" y="316.61" font-size="11.03">Vietnam</text><text x="563.00" y="371.84" font-size="11.02">Peru</text><text x="491.00" y="262.92" font-size="11.01">Eswatini</text><text x="530.00" y="280.93" font-size="11.01">Namibia</text><text x="640.51" y="449.95" font-size="11.01">Malaysia</text><text x="605.00" y="310.00" font-size="11.01">Botswana</text><text x="537.00" y="322.03" font-size="11.01">Egypt</text><text x="367.00" y="284.08" font-size="11.01">Mauritania</text><text x="578.00" y="258.09" font-size="11.01">Lebanon</text><text x="288.00" y="217.10" font-size="11.00">Solomon Islands</text><text x="479.00" y="341.11" font-size="11.00">El Salvador</text><text x="482.00" y="298.11" font-size="11.00">Morocco</text><text x="637.33" y="346.16" font-size="11.00">Turkey</text><text x="613.85" y="390.16" font-size="11.00">Panama</text><text x="452.00" y="240.16" font-size="11.00">Cape Verde</text><text x="544.00" y="296.17" font-size="11.00">Tunisia</text><text x="632.00" y="479.18" font-size="11.00">Argentina</text><text x="543.00" y="241.18" font-size="11.00">Saint Lucia</text><text x="355.00" y="271.19" font-size="11.00">Kyrgyzstan</text><text x="331.00" y="198.19" font-size="11.00">Vanuatu</text><text x="270.00" y="189.21" font-size="11.00">Kiribati</text><text x="576.00" y="279.21" font-size="11.00">Macedonia</text><text x="583.00" y="295.21" font-size="11.00">Serbia</text><text x="631.00" y="494.21" font-size="11.00">Iran</text><text x="505.00" y="274.21" font-size="11.00">Fiji</text><text x="637.92" y="375.21" font-size="11.00">Chile</text><text x="413.00" y="194.21" font-size="11.00">Palestine</text><text x="504.00" y="216.21" font-size="11.00">Jordan</text><text x="629.65" y="251.22" font-size="11.00">Seychelles</text><text x="420.00" y="277.22" font-size="11.00">Moldova</text><text x="431.00" y="173.22" font-size="11.00">Tonga</text><text x="574.00" y="134.10" font-size="11.00">Nauru</text><text x="585.00" y="172.22" font-size="11.00">Palau</text><text x="364.00" y="134.10" font-size="11.00">Tuvalu</text></g></g><g style="cursor: pointer;" class="ScatterColorLegend clickable"><g class="legendMark"><rect x="704.048" y="120.6" width="78.41" height="17.6" fill="#fff" opacity="0"></rect>,<rect x="704.048" y="126.1" width="6" height="6" fill="#636363"></rect>,<text font-size="12.60" x="715.0" y="133.2"><tspan x="715.048" y="133.17999999999998">Low income</tspan></text></g><g class="legendMark"><rect x="704.048" y="138.2" width="130.952" height="17.6" fill="#fff" opacity="0"></rect>,<rect x="704.048" y="143.7" width="6" height="6" fill="#969696"></rect>,<text font-size="12.60" x="715.0" y="150.8"><tspan x="715.048" y="150.77999999999997">Lower-middle income</tspan></text></g><g class="legendMark"><rect x="704.048" y="155.8" width="130.952" height="17.6" fill="#fff" opacity="0"></rect>,<rect x="704.048" y="161.3" width="6" height="6" fill="#cccccc"></rect>,<text font-size="12.60" x="715.0" y="168.4"><tspan x="715.048" y="168.38">Upper-middle income</tspan></text></g><g class="legendMark"><rect x="704.048" y="173.4" width="81.182" height="17.6" fill="#fff" opacity="0"></rect>,<rect x="704.048" y="178.9" width="6" height="6" fill="#f7f7f7"></rect>,<text font-size="12.60" x="715.0" y="186.0"><tspan x="715.048" y="185.98">High income</tspan></text></g></g></g><g style="fill: #777;" class="SourcesFooter"><g style="fill: #777;" class="clickable"><text font-size="12.60" x="15.0" y="581.6"><tspan x="15" y="581.58">Source: OECD (2018), World Bank – WDI</tspan></text></g><text font-size="12.60" x="775.4" y="581.6"><tspan x="775.402" y="581.58"><a style="fill: #777;" class="cclogo" href="http://creativecommons.org/licenses/by-sa/4.0/deed.en_US" target="_blank">CC BY-SA</a></tspan></text></g></g></svg>