<svg xmlns="http://www.w3.org/2000/svg" version="1.1" style="font-family:&#x27;Helvetica Neue&#x27;, Helvetica, Arial, sans-serif;font-size:18px;background-color:white;text-rendering:optimizeLegibility;-webkit-font-smoothing:antialiased" width="850" height="600"><g class="HeaderView"><a href="https://mispytest-owid.netlify.com/grapher/arctic-sea-ice-coverage-19352014" target="_blank"><text font-size="25.20" x="15.0" y="35.2" fill="#555"><tspan x="15" y="35.160000000000004">Arctic sea ice coverage (1935–2014)</tspan></text></a><text font-size="14.40" x="15.0" y="53.7" fill="#666"><tspan x="15" y="53.72">Unit 20 &#x27;Capstone: Economics of the environment’ Section 20.8 &#x27;Environmental dynamics&#x27; in The CORE Team, The Economy.</tspan><tspan x="15" y="69.56">Available at https://tinyco.re/2008222 [Figure 20.22]</tspan></text></g><g class="LineChart"><defs><clipPath id="boundsClip-202"><rect x="37.216" y="0" width="830" height="932.8"></rect></clipPath></defs><g class="AxisBoxView"><g class="HorizontalAxis"><text x="47.2" y="556.5" fill="#666" text-anchor="middle" font-size="16.2">1935</text><text x="93.4" y="556.5" fill="#666" text-anchor="middle" font-size="16.2">1940</text><text x="185.8" y="556.5" fill="#666" text-anchor="middle" font-size="16.2">1950</text><text x="278.3" y="556.5" fill="#666" text-anchor="middle" font-size="16.2">1960</text><text x="370.7" y="556.5" fill="#666" text-anchor="middle" font-size="16.2">1970</text><text x="463.1" y="556.5" fill="#666" text-anchor="middle" font-size="16.2">1980</text><text x="555.5" y="556.5" fill="#666" text-anchor="middle" font-size="16.2">1990</text><text x="647.9" y="556.5" fill="#666" text-anchor="middle" font-size="16.2">2000</text><text x="777.3" y="556.5" fill="#666" text-anchor="middle" font-size="16.2">2014</text></g><g class="VerticalAxis"><text x="42.22" y="535.3" fill="#666" dominant-baseline="middle" text-anchor="end" font-size="16.2">0</text><text x="42.22" y="482.8" fill="#666" dominant-baseline="middle" text-anchor="end" font-size="16.2">100</text><text x="42.22" y="430.3" fill="#666" dominant-baseline="middle" text-anchor="end" font-size="16.2">200</text><text x="42.22" y="377.8" fill="#666" dominant-baseline="middle" text-anchor="end" font-size="16.2">300</text><text x="42.22" y="325.3" fill="#666" dominant-baseline="middle" text-anchor="end" font-size="16.2">400</text><text x="42.22" y="272.8" fill="#666" dominant-baseline="middle" text-anchor="end" font-size="16.2">500</text><text x="42.22" y="220.3" fill="#666" dominant-baseline="middle" text-anchor="end" font-size="16.2">600</text><text x="42.22" y="167.8" fill="#666" dominant-baseline="middle" text-anchor="end" font-size="16.2">700</text><text x="42.22" y="115.3" fill="#666" dominant-baseline="middle" text-anchor="end" font-size="16.2">800</text></g><g class="AxisGridLines"><line x1="47.22" y1="535.3" x2="777.32" y2="535.3" stroke="#ccc"></line><line x1="47.22" y1="482.8" x2="777.32" y2="482.8" stroke="#ddd" stroke-dasharray="3,2"></line><line x1="47.22" y1="430.3" x2="777.32" y2="430.3" stroke="#ddd" stroke-dasharray="3,2"></line><line x1="47.22" y1="377.8" x2="777.32" y2="377.8" stroke="#ddd" stroke-dasharray="3,2"></line><line x1="47.22" y1="325.3" x2="777.32" y2="325.3" stroke="#ddd" stroke-dasharray="3,2"></line><line x1="47.22" y1="272.8" x2="777.32" y2="272.8" stroke="#ddd" stroke-dasharray="3,2"></line><line x1="47.22" y1="220.3" x2="777.32" y2="220.3" stroke="#ddd" stroke-dasharray="3,2"></line><line x1="47.22" y1="167.8" x2="777.32" y2="167.8" stroke="#ddd" stroke-dasharray="3,2"></line><line x1="47.22" y1="115.3" x2="777.32" y2="115.3" stroke="#ddd" stroke-dasharray="3,2"></line></g></g><g clip-path="url(#boundsClip-202)"><g class="HeightedLegend clickable"><g class="legendMark"><rect x="777.32" y="251.35000000000002" width="57.68" height="13.5" fill="#fff" opacity="0"></rect><text font-size="13.50" x="782.3" y="262.2" fill="#3360a9"><tspan x="782.32" y="262.15000000000003">528</tspan></text></g></g><g class="Lines"><rect x="47" y="90" width="730" height="445" fill="rgba(255,255,255,0)" opacity="0"></rect><g class="key-Global_0"><path stroke="#3360a9" stroke-linecap="round" d="M47 178L57 151L66 178L75 172L84 170L93 167L103 167L112 159L121 188L130 163L140 190L149 146L158 162L167 148L177 128L186 161L195 163L204 195L214 157L223 150L232 159L241 128L251 130L260 122L269 177L278 186L288 177L297 105L306 90L315 116L325 124L334 128L343 105L352 165L361 91L371 120L380 157L389 132L398 146L408 153L417 137L426 158L435 178L445 122L454 157L463 123L472 155L482 144L491 141L500 159L509 172L519 139L528 143L537 142L546 166L556 208L565 191L574 139L583 194L593 158L602 214L611 122L620 182L630 191L639 208L648 204L657 181L666 222L676 212L685 218L694 243L703 225L713 310L722 287L731 252L740 277L750 292L759 345L768 254L777 258" fill="none" stroke-width="1.5"></path><g fill="#3360a9"><circle cx="47" cy="178" r="2"></circle><circle cx="57" cy="151" r="2"></circle><circle cx="66" cy="178" r="2"></circle><circle cx="75" cy="172" r="2"></circle><circle cx="84" cy="170" r="2"></circle><circle cx="93" cy="167" r="2"></circle><circle cx="103" cy="167" r="2"></circle><circle cx="112" cy="159" r="2"></circle><circle cx="121" cy="188" r="2"></circle><circle cx="130" cy="163" r="2"></circle><circle cx="140" cy="190" r="2"></circle><circle cx="149" cy="146" r="2"></circle><circle cx="158" cy="162" r="2"></circle><circle cx="167" cy="148" r="2"></circle><circle cx="177" cy="128" r="2"></circle><circle cx="186" cy="161" r="2"></circle><circle cx="195" cy="163" r="2"></circle><circle cx="204" cy="195" r="2"></circle><circle cx="214" cy="157" r="2"></circle><circle cx="223" cy="150" r="2"></circle><circle cx="232" cy="159" r="2"></circle><circle cx="241" cy="128" r="2"></circle><circle cx="251" cy="130" r="2"></circle><circle cx="260" cy="122" r="2"></circle><circle cx="269" cy="177" r="2"></circle><circle cx="278" cy="186" r="2"></circle><circle cx="288" cy="177" r="2"></circle><circle cx="297" cy="105" r="2"></circle><circle cx="306" cy="90" r="2"></circle><circle cx="315" cy="116" r="2"></circle><circle cx="325" cy="124" r="2"></circle><circle cx="334" cy="128" r="2"></circle><circle cx="343" cy="105" r="2"></circle><circle cx="352" cy="165" r="2"></circle><circle cx="361" cy="91" r="2"></circle><circle cx="371" cy="120" r="2"></circle><circle cx="380" cy="157" r="2"></circle><circle cx="389" cy="132" r="2"></circle><circle cx="398" cy="146" r="2"></circle><circle cx="408" cy="153" r="2"></circle><circle cx="417" cy="137" r="2"></circle><circle cx="426" cy="158" r="2"></circle><circle cx="435" cy="178" r="2"></circle><circle cx="445" cy="122" r="2"></circle><circle cx="454" cy="157" r="2"></circle><circle cx="463" cy="123" r="2"></circle><circle cx="472" cy="155" r="2"></circle><circle cx="482" cy="144" r="2"></circle><circle cx="491" cy="141" r="2"></circle><circle cx="500" cy="159" r="2"></circle><circle cx="509" cy="172" r="2"></circle><circle cx="519" cy="139" r="2"></circle><circle cx="528" cy="143" r="2"></circle><circle cx="537" cy="142" r="2"></circle><circle cx="546" cy="166" r="2"></circle><circle cx="556" cy="208" r="2"></circle><circle cx="565" cy="191" r="2"></circle><circle cx="574" cy="139" r="2"></circle><circle cx="583" cy="194" r="2"></circle><circle cx="593" cy="158" r="2"></circle><circle cx="602" cy="214" r="2"></circle><circle cx="611" cy="122" r="2"></circle><circle cx="620" cy="182" r="2"></circle><circle cx="630" cy="191" r="2"></circle><circle cx="639" cy="208" r="2"></circle><circle cx="648" cy="204" r="2"></circle><circle cx="657" cy="181" r="2"></circle><circle cx="666" cy="222" r="2"></circle><circle cx="676" cy="212" r="2"></circle><circle cx="685" cy="218" r="2"></circle><circle cx="694" cy="243" r="2"></circle><circle cx="703" cy="225" r="2"></circle><circle cx="713" cy="310" r="2"></circle><circle cx="722" cy="287" r="2"></circle><circle cx="731" cy="252" r="2"></circle><circle cx="740" cy="277" r="2"></circle><circle cx="750" cy="292" r="2"></circle><circle cx="759" cy="345" r="2"></circle><circle cx="768" cy="254" r="2"></circle><circle cx="777" cy="258" r="2"></circle></g></g></g></g></g><g class="SourcesFooter" style="fill:#777"><g class="clickable" style="fill:#777"><text font-size="12.60" x="15.0" y="581.6"><tspan x="15" y="581.58">Source: Pirón and Pasalodos (2016)</tspan></text></g><text font-size="12.60" x="546.0" y="581.6"><tspan x="545.956" y="581.58"><a target='_blank' style='fill: #777;' href='https://tinyco.re/2008222'>tinyco.re/2008222</a> • <a href="https://ourworldindata.org" target="_blank">Powered by ourworldindata.org</a></tspan></text></g></svg>