<svg xmlns="http://www.w3.org/2000/svg" version="1.1" style="font-family: 'Helvetica Neue', Helvetica, Arial, sans-serif; font-size: 18px; background-color: white; text-rendering: optimizeLegibility; -webkit-font-smoothing: antialiased;" width="850" height="600"><g class="ChartTab"><g class="HeaderView"><g opacity="0.8" transform="translate(778, 15) scale(0.27)"><a xmlns:xlink="http://www.w3.org/1999/xlink" xlink:href="https://ourworldindata.org" target="_blank"><g><rect x="0" y="0" fill="#1B2543" width="211.2" height="130.1"/><rect x="0" y="112.2" fill="#E63912" width="211.2" height="17.9"/><g><rect x="1.2" y="12.3" fill="none" width="210.2" height="99.2"/><path fill="#FFFFFF" d="M37.8,32.2c0,12.7-7.7,19.4-17.1,19.4c-9.7,0-16.6-7.5-16.6-18.7c0-11.7,7.3-19.3,17.1-19.3 C31.3,13.7,37.8,21.3,37.8,32.2z M9.2,32.8c0,7.9,4.3,14.9,11.8,14.9c7.5,0,11.8-6.9,11.8-15.3c0-7.3-3.8-14.9-11.8-14.9 C13.1,17.5,9.2,24.8,9.2,32.8z"/><path fill="#FFFFFF" d="M62.7,43.8c0,2.7,0.1,5.1,0.2,7.2h-4.3l-0.3-4.3h-0.1c-1.3,2.1-4,4.9-8.8,4.9c-4.2,0-9.1-2.3-9.1-11.6 V24.6h4.8v14.6c0,5,1.5,8.4,5.9,8.4c3.2,0,5.5-2.2,6.3-4.4c0.3-0.7,0.4-1.6,0.4-2.5V24.6h4.8V43.8z"/><path fill="#FFFFFF" d="M67.3,32.8c0-3.1-0.1-5.8-0.2-8.2h4.2l0.2,5.2h0.2c1.2-3.5,4.1-5.8,7.3-5.8c0.5,0,0.9,0.1,1.4,0.2v4.5 c-0.5-0.1-1-0.2-1.6-0.2c-3.4,0-5.8,2.6-6.5,6.2c-0.1,0.7-0.2,1.4-0.2,2.2V51h-4.8V32.8z"/><path fill="#FFFFFF" d="M95.4,51l-9.4-36.8h5l4.4,18.6c1.1,4.6,2.1,9.2,2.7,12.7h0.1c0.6-3.7,1.8-8,3-12.8l4.9-18.5h5l4.5,18.7 c1,4.4,2,8.7,2.6,12.6h0.1c0.8-4,1.8-8.1,3-12.7l4.9-18.5h4.9L120.6,51h-5L111,31.9c-1.1-4.7-1.9-8.3-2.4-12h-0.1 c-0.7,3.7-1.5,7.3-2.8,12L100.4,51H95.4z"/><path fill="#FFFFFF" d="M154.9,37.6c0,9.8-6.8,14-13.2,14c-7.2,0-12.7-5.2-12.7-13.6c0-8.8,5.8-14,13.1-14 C149.8,24,154.9,29.5,154.9,37.6z M133.9,37.9c0,5.8,3.3,10.1,8,10.1c4.6,0,8-4.3,8-10.3c0-4.5-2.2-10.1-7.9-10.1 C136.3,27.6,133.9,32.8,133.9,37.9z"/><path fill="#FFFFFF" d="M158.2,32.8c0-3.1-0.1-5.8-0.2-8.2h4.2l0.2,5.2h0.2c1.2-3.5,4.1-5.8,7.3-5.8c0.5,0,0.9,0.1,1.4,0.2v4.5 c-0.5-0.1-1-0.2-1.6-0.2c-3.4,0-5.8,2.6-6.5,6.2c-0.1,0.7-0.2,1.4-0.2,2.2V51h-4.8V32.8z"/><path fill="#FFFFFF" d="M173.5,12.3h4.8V51h-4.8V12.3z"/><path fill="#FFFFFF" d="M206.5,12.3v31.9c0,2.3,0.1,5,0.2,6.8h-4.3l-0.2-4.6H202c-1.5,2.9-4.7,5.2-9,5.2 c-6.4,0-11.3-5.4-11.3-13.4c-0.1-8.8,5.4-14.2,11.9-14.2c4,0,6.8,1.9,8,4h0.1V12.3H206.5z M201.7,35.4c0-0.6-0.1-1.4-0.2-2 c-0.7-3.1-3.3-5.6-6.9-5.6c-5,0-7.9,4.4-7.9,10.2c0,5.3,2.6,9.8,7.8,9.8c3.2,0,6.2-2.1,7.1-5.7c0.2-0.7,0.2-1.3,0.2-2.1V35.4z"/><path fill="#FFFFFF" d="M42.8,64c0.1,1.6-1.1,2.9-3.1,2.9c-1.7,0-2.9-1.3-2.9-2.9c0-1.7,1.3-3,3-3C41.7,61,42.8,62.3,42.8,64z M37.4,97.8V71.4h4.8v26.4H37.4z"/><path fill="#FFFFFF" d="M47.5,78.6c0-2.7-0.1-5-0.2-7.1h4.3l0.3,4.4h0.1c1.3-2.5,4.4-5,8.8-5c3.7,0,9.4,2.2,9.4,11.2v15.8h-4.8 V82.6c0-4.3-1.6-7.8-6.1-7.8c-3.2,0-5.6,2.2-6.5,4.9c-0.2,0.6-0.3,1.4-0.3,2.2v15.9h-4.8V78.6z"/><path fill="#FFFFFF" d="M84,61.6c2.9-0.4,6.3-0.8,10.1-0.8c6.8,0,11.7,1.6,14.9,4.6c3.3,3,5.2,7.3,5.2,13.2c0,6-1.9,10.9-5.3,14.3 c-3.4,3.4-9.1,5.3-16.3,5.3c-3.4,0-6.2-0.2-8.6-0.4V61.6z M88.8,94.1c1.2,0.2,3,0.3,4.8,0.3c10.2,0,15.7-5.7,15.7-15.6 c0.1-8.7-4.9-14.2-14.9-14.2c-2.5,0-4.3,0.2-5.6,0.5V94.1z"/><path fill="#FFFFFF" d="M132.1,97.8l-0.4-3.3h-0.2c-1.5,2.1-4.3,3.9-8.1,3.9c-5.4,0-8.1-3.8-8.1-7.6c0-6.4,5.7-9.9,15.9-9.8v-0.5 c0-2.2-0.6-6.1-6-6.1c-2.5,0-5,0.8-6.9,2l-1.1-3.2c2.2-1.4,5.4-2.3,8.7-2.3c8.1,0,10.1,5.5,10.1,10.8v9.9c0,2.3,0.1,4.5,0.4,6.3 H132.1z M131.4,84.4c-5.3-0.1-11.2,0.8-11.2,5.9c0,3.1,2.1,4.6,4.5,4.6c3.4,0,5.6-2.2,6.4-4.4c0.2-0.5,0.3-1,0.3-1.5V84.4z"/><path fill="#FFFFFF" d="M146.6,63.9v7.6h6.9v3.7h-6.9v14.2c0,3.3,0.9,5.1,3.6,5.1c1.3,0,2.2-0.2,2.8-0.3l0.2,3.6 c-0.9,0.4-2.4,0.7-4.3,0.7c-2.2,0-4-0.7-5.2-2c-1.4-1.4-1.9-3.8-1.9-6.9V75.1h-4.1v-3.7h4.1v-6.3L146.6,63.9z"/><path fill="#FFFFFF" d="M171.4,97.8l-0.4-3.3h-0.2c-1.5,2.1-4.3,3.9-8.1,3.9c-5.4,0-8.1-3.8-8.1-7.6c0-6.4,5.7-9.9,15.9-9.8v-0.5 c0-2.2-0.6-6.1-6-6.1c-2.5,0-5,0.8-6.9,2l-1.1-3.2c2.2-1.4,5.4-2.3,8.7-2.3c8.1,0,10.1,5.5,10.1,10.8v9.9c0,2.3,0.1,4.5,0.4,6.3 H171.4z M170.7,84.4c-5.3-0.1-11.2,0.8-11.2,5.9c0,3.1,2.1,4.6,4.5,4.6c3.4,0,5.6-2.2,6.4-4.4c0.2-0.5,0.3-1,0.3-1.5V84.4z"/></g></g></a></g><a href="https://ourworldindata.org/grapher/armed-forces-personnel" target="_blank"><text font-size="25.20" x="15.0" y="35.2" fill="#555"><tspan x="15" y="35.160000000000004">Armed forces personnel</tspan></text></a><text font-size="14.40" x="15.0" y="53.7" fill="#666"><tspan x="15" y="53.72">Armed forces personnel are active duty military personnel, including paramilitary forces if the training, organization,</tspan><tspan x="15" y="69.56">equipment, and control suggest they may be used to support or replace regular military forces.</tspan></text></g><g class="LineChart"><defs><clipPath id="boundsClip-77"><rect x="78.526" y="0" width="830" height="928.8"></rect></clipPath></defs><g class="AxisBoxView"><g class="HorizontalAxis"><text x="88.5" y="556.5" fill="#666" text-anchor="middle" font-size="16.2">1985</text><text x="177.2" y="556.5" fill="#666" text-anchor="middle" font-size="16.2">1990</text><text x="265.8" y="556.5" fill="#666" text-anchor="middle" font-size="16.2">1995</text><text x="354.5" y="556.5" fill="#666" text-anchor="middle" font-size="16.2">2000</text><text x="443.1" y="556.5" fill="#666" text-anchor="middle" font-size="16.2">2005</text><text x="531.8" y="556.5" fill="#666" text-anchor="middle" font-size="16.2">2010</text><text x="638.1" y="556.5" fill="#666" text-anchor="middle" font-size="16.2">2016</text></g><g class="VerticalAxis"><text x="83.53" y="535.3" fill="#666" dominant-baseline="middle" text-anchor="end" font-size="16.2">0</text><text x="83.53" y="461.9" fill="#666" dominant-baseline="middle" text-anchor="end" font-size="16.2">5 million</text><text x="83.53" y="388.5" fill="#666" dominant-baseline="middle" text-anchor="end" font-size="16.2">10 million</text><text x="83.53" y="315.1" fill="#666" dominant-baseline="middle" text-anchor="end" font-size="16.2">15 million</text><text x="83.53" y="241.8" fill="#666" dominant-baseline="middle" text-anchor="end" font-size="16.2">20 million</text><text x="83.53" y="168.4" fill="#666" dominant-baseline="middle" text-anchor="end" font-size="16.2">25 million</text><text x="83.53" y="95" fill="#666" dominant-baseline="middle" text-anchor="end" font-size="16.2">30 million</text></g><g class="AxisGridLines"><line x1="88.53" y1="535.3" x2="638.13" y2="535.3" stroke="#ccc"></line><line x1="88.53" y1="461.9" x2="638.13" y2="461.9" stroke="#ddd" stroke-dasharray="3,2"></line><line x1="88.53" y1="388.5" x2="638.13" y2="388.5" stroke="#ddd" stroke-dasharray="3,2"></line><line x1="88.53" y1="315.1" x2="638.13" y2="315.1" stroke="#ddd" stroke-dasharray="3,2"></line><line x1="88.53" y1="241.8" x2="638.13" y2="241.8" stroke="#ddd" stroke-dasharray="3,2"></line><line x1="88.53" y1="168.4" x2="638.13" y2="168.4" stroke="#ddd" stroke-dasharray="3,2"></line><line x1="88.53" y1="95" x2="638.13" y2="95" stroke="#ddd" stroke-dasharray="3,2"></line></g></g><g clip-path="url(#boundsClip-77)"><g class="HeightedLegend clickable"><g class="legendMark"><g class="indicator"><line x1="643.135" y1="131.1" x2="655.635" y2="131.1" stroke="#666" stroke-width="0.5"></line><line x1="655.635" y1="131.1" x2="655.635" y2="131.1" stroke="#666" stroke-width="0.5"></line><line x1="655.635" y1="131.1" x2="668.135" y2="131.1" stroke="#666" stroke-width="0.5"></line></g><rect x="638.135" y="124.35" width="70.235" height="13.5" fill="#fff" opacity="0"></rect><text font-size="13.50" x="673.1" y="135.2" fill="#e6332e"><tspan x="673.135" y="135.15">World</tspan></text></g><g class="legendMark"><g class="indicator"><line x1="643.135" y1="413.1" x2="655.635" y2="413.1" stroke="#666" stroke-width="0.5"></line><line x1="655.635" y1="413.1" x2="655.635" y2="413.1" stroke="#666" stroke-width="0.5"></line><line x1="655.635" y1="413.1" x2="668.135" y2="413.1" stroke="#666" stroke-width="0.5"></line></g><rect x="638.135" y="406.35" width="148.67000000000002" height="13.5" fill="#fff" opacity="0"></rect><text font-size="13.50" x="673.1" y="417.2" fill="#2a939b"><tspan x="673.135" y="417.15000000000003">East Asia &amp; Pacific</tspan></text></g><g class="legendMark"><g class="indicator"><line x1="643.135" y1="461.4" x2="663.635" y2="461.4" stroke="#666" stroke-width="0.5"></line><line x1="663.635" y1="461.4" x2="663.635" y2="461.4" stroke="#666" stroke-width="0.5"></line><line x1="663.635" y1="461.4" x2="668.135" y2="461.4" stroke="#666" stroke-width="0.5"></line></g><rect x="638.135" y="454.65" width="169.055" height="13.5" fill="#fff" opacity="0"></rect><text font-size="13.50" x="673.1" y="465.4" fill="#a652ba"><tspan x="673.135" y="465.45">Europe &amp; Central Asia</tspan></text></g><g class="legendMark"><g class="indicator"><line x1="643.135" y1="463" x2="659.635" y2="463" stroke="#666" stroke-width="0.5"></line><line x1="659.635" y1="463" x2="659.635" y2="476.9" stroke="#666" stroke-width="0.5"></line><line x1="659.635" y1="476.9" x2="668.135" y2="476.9" stroke="#666" stroke-width="0.5"></line></g><rect x="638.135" y="470.15" width="100.61" height="13.5" fill="#fff" opacity="0"></rect><text font-size="13.50" x="673.1" y="480.9" fill="#f6a324"><tspan x="673.135" y="480.95">South Asia</tspan></text></g><g class="legendMark"><g class="indicator"><line x1="643.135" y1="485.9" x2="655.635" y2="485.9" stroke="#666" stroke-width="0.5"></line><line x1="655.635" y1="485.9" x2="655.635" y2="492.4" stroke="#666" stroke-width="0.5"></line><line x1="655.635" y1="492.4" x2="668.135" y2="492.4" stroke="#666" stroke-width="0.5"></line></g><rect x="638.135" y="485.65" width="193.76000000000002" height="13.5" fill="#fff" opacity="0"></rect><text font-size="13.50" x="673.1" y="496.4" fill="#34983f"><tspan x="673.135" y="496.45">Middle East &amp; North Africa</tspan></text></g><g class="legendMark"><g class="indicator"><line x1="643.135" y1="495.9" x2="651.635" y2="495.9" stroke="#666" stroke-width="0.5"></line><line x1="651.635" y1="495.9" x2="651.635" y2="507.9" stroke="#666" stroke-width="0.5"></line><line x1="651.635" y1="507.9" x2="668.135" y2="507.9" stroke="#666" stroke-width="0.5"></line></g><rect x="638.135" y="501.15" width="196.865" height="13.5" fill="#fff" opacity="0"></rect><text font-size="13.50" x="673.1" y="511.9" fill="#ca2628"><tspan x="673.135" y="511.95">Latin America &amp; Caribbean</tspan></text></g><g class="legendMark"><g class="indicator"><line x1="643.135" y1="508.9" x2="647.635" y2="508.9" stroke="#666" stroke-width="0.5"></line><line x1="647.635" y1="508.9" x2="647.635" y2="523.4" stroke="#666" stroke-width="0.5"></line><line x1="647.635" y1="523.4" x2="668.135" y2="523.4" stroke="#666" stroke-width="0.5"></line></g><rect x="638.135" y="516.65" width="153.26" height="13.5" fill="#fff" opacity="0"></rect><text font-size="13.50" x="673.1" y="527.4" fill="#3360a9"><tspan x="673.135" y="527.4499999999999">Sub-Saharan Africa</tspan></text></g></g><g class="Lines"><rect x="89" y="92" width="550" height="443" fill="rgba(255,255,255,0)" opacity="0"></rect><g class="key-Latin-America-__0026-Caribbean_0"><path stroke="#ca2628" stroke-linecap="round" d="M89 515L159 512L177 512L195 512L213 514L230 514L248 515L266 504L284 504L301 504L319 504L337 505L355 505L372 504L390 504L408 504L425 505L443 505L461 502L479 500L496 500L514 499L532 499L550 499L567 499L585 499L603 497L620 496L638 496" fill="none" stroke-width="1.5"></path><g fill="#ca2628"><circle cx="89" cy="515" r="2"></circle><circle cx="159" cy="512" r="2"></circle><circle cx="177" cy="512" r="2"></circle><circle cx="195" cy="512" r="2"></circle><circle cx="213" cy="514" r="2"></circle><circle cx="230" cy="514" r="2"></circle><circle cx="248" cy="515" r="2"></circle><circle cx="266" cy="504" r="2"></circle><circle cx="284" cy="504" r="2"></circle><circle cx="301" cy="504" r="2"></circle><circle cx="319" cy="504" r="2"></circle><circle cx="337" cy="505" r="2"></circle><circle cx="355" cy="505" r="2"></circle><circle cx="372" cy="504" r="2"></circle><circle cx="390" cy="504" r="2"></circle><circle cx="408" cy="504" r="2"></circle><circle cx="425" cy="505" r="2"></circle><circle cx="443" cy="505" r="2"></circle><circle cx="461" cy="502" r="2"></circle><circle cx="479" cy="500" r="2"></circle><circle cx="496" cy="500" r="2"></circle><circle cx="514" cy="499" r="2"></circle><circle cx="532" cy="499" r="2"></circle><circle cx="550" cy="499" r="2"></circle><circle cx="567" cy="499" r="2"></circle><circle cx="585" cy="499" r="2"></circle><circle cx="603" cy="497" r="2"></circle><circle cx="620" cy="496" r="2"></circle><circle cx="638" cy="496" r="2"></circle></g></g><g class="key-East-Asia-__0026-Pacific_0"><path stroke="#2a939b" stroke-linecap="round" d="M89 414L159 406L177 412L195 414L213 418L230 420L248 425L266 397L284 397L301 402L319 399L337 399L355 398L372 401L390 400L408 401L425 408L443 401L461 403L479 414L496 414L514 412L532 411L550 409L567 409L585 409L603 410L620 412L638 413" fill="none" stroke-width="1.5"></path><g fill="#2a939b"><circle cx="89" cy="414" r="2"></circle><circle cx="159" cy="406" r="2"></circle><circle cx="177" cy="412" r="2"></circle><circle cx="195" cy="414" r="2"></circle><circle cx="213" cy="418" r="2"></circle><circle cx="230" cy="420" r="2"></circle><circle cx="248" cy="425" r="2"></circle><circle cx="266" cy="397" r="2"></circle><circle cx="284" cy="397" r="2"></circle><circle cx="301" cy="402" r="2"></circle><circle cx="319" cy="399" r="2"></circle><circle cx="337" cy="399" r="2"></circle><circle cx="355" cy="398" r="2"></circle><circle cx="372" cy="401" r="2"></circle><circle cx="390" cy="400" r="2"></circle><circle cx="408" cy="401" r="2"></circle><circle cx="425" cy="408" r="2"></circle><circle cx="443" cy="401" r="2"></circle><circle cx="461" cy="403" r="2"></circle><circle cx="479" cy="414" r="2"></circle><circle cx="496" cy="414" r="2"></circle><circle cx="514" cy="412" r="2"></circle><circle cx="532" cy="411" r="2"></circle><circle cx="550" cy="409" r="2"></circle><circle cx="567" cy="409" r="2"></circle><circle cx="585" cy="409" r="2"></circle><circle cx="603" cy="410" r="2"></circle><circle cx="620" cy="412" r="2"></circle><circle cx="638" cy="413" r="2"></circle></g></g><g class="key-Sub__002dSaharan-Africa_0"><path stroke="#3360a9" stroke-linecap="round" d="M89 521L159 517L177 517L195 519L213 519L230 519L248 520L266 510L284 511L301 512L319 511L337 510L355 510L372 511L390 512L408 513L425 513L443 513L479 513L496 513L514 513L532 511L550 508L567 508L585 508L603 508L620 507L638 509" fill="none" stroke-width="1.5"></path><g fill="#3360a9"><circle cx="89" cy="521" r="2"></circle><circle cx="159" cy="517" r="2"></circle><circle cx="177" cy="517" r="2"></circle><circle cx="195" cy="519" r="2"></circle><circle cx="213" cy="519" r="2"></circle><circle cx="230" cy="519" r="2"></circle><circle cx="248" cy="520" r="2"></circle><circle cx="266" cy="510" r="2"></circle><circle cx="284" cy="511" r="2"></circle><circle cx="301" cy="512" r="2"></circle><circle cx="319" cy="511" r="2"></circle><circle cx="337" cy="510" r="2"></circle><circle cx="355" cy="510" r="2"></circle><circle cx="372" cy="511" r="2"></circle><circle cx="390" cy="512" r="2"></circle><circle cx="408" cy="513" r="2"></circle><circle cx="425" cy="513" r="2"></circle><circle cx="443" cy="513" r="2"></circle><circle cx="479" cy="513" r="2"></circle><circle cx="496" cy="513" r="2"></circle><circle cx="514" cy="513" r="2"></circle><circle cx="532" cy="511" r="2"></circle><circle cx="550" cy="508" r="2"></circle><circle cx="567" cy="508" r="2"></circle><circle cx="585" cy="508" r="2"></circle><circle cx="603" cy="508" r="2"></circle><circle cx="620" cy="507" r="2"></circle><circle cx="638" cy="509" r="2"></circle></g></g><g class="key-Middle-East-__0026-North-Africa_0"><path stroke="#34983f" stroke-linecap="round" d="M89 486L159 483L177 479L195 491L213 493L230 493L248 494L266 482L284 479L301 478L319 478L337 478L355 477L372 480L390 480L408 480L425 485L443 481L461 476L479 479L496 475L514 474L532 474L550 477L567 477L585 487L603 486L620 487L638 486" fill="none" stroke-width="1.5"></path><g fill="#34983f"><circle cx="89" cy="486" r="2"></circle><circle cx="159" cy="483" r="2"></circle><circle cx="177" cy="479" r="2"></circle><circle cx="195" cy="491" r="2"></circle><circle cx="213" cy="493" r="2"></circle><circle cx="230" cy="493" r="2"></circle><circle cx="248" cy="494" r="2"></circle><circle cx="266" cy="482" r="2"></circle><circle cx="284" cy="479" r="2"></circle><circle cx="301" cy="478" r="2"></circle><circle cx="319" cy="478" r="2"></circle><circle cx="337" cy="478" r="2"></circle><circle cx="355" cy="477" r="2"></circle><circle cx="372" cy="480" r="2"></circle><circle cx="390" cy="480" r="2"></circle><circle cx="408" cy="480" r="2"></circle><circle cx="425" cy="485" r="2"></circle><circle cx="443" cy="481" r="2"></circle><circle cx="461" cy="476" r="2"></circle><circle cx="479" cy="479" r="2"></circle><circle cx="496" cy="475" r="2"></circle><circle cx="514" cy="474" r="2"></circle><circle cx="532" cy="474" r="2"></circle><circle cx="550" cy="477" r="2"></circle><circle cx="567" cy="477" r="2"></circle><circle cx="585" cy="487" r="2"></circle><circle cx="603" cy="486" r="2"></circle><circle cx="620" cy="487" r="2"></circle><circle cx="638" cy="486" r="2"></circle></g></g><g class="key-Europe-__0026-Central-Asia_0"><path stroke="#a652ba" stroke-linecap="round" d="M213 433L230 441L248 441L266 422L284 426L301 425L319 428L337 433L355 439L372 443L390 445L408 448L425 452L443 449L461 455L479 456L496 456L514 458L532 458L550 462L567 461L585 465L603 463L620 461L638 461" fill="none" stroke-width="1.5"></path><g fill="#a652ba"><circle cx="213" cy="433" r="2"></circle><circle cx="230" cy="441" r="2"></circle><circle cx="248" cy="441" r="2"></circle><circle cx="266" cy="422" r="2"></circle><circle cx="284" cy="426" r="2"></circle><circle cx="301" cy="425" r="2"></circle><circle cx="319" cy="428" r="2"></circle><circle cx="337" cy="433" r="2"></circle><circle cx="355" cy="439" r="2"></circle><circle cx="372" cy="443" r="2"></circle><circle cx="390" cy="445" r="2"></circle><circle cx="408" cy="448" r="2"></circle><circle cx="425" cy="452" r="2"></circle><circle cx="443" cy="449" r="2"></circle><circle cx="461" cy="455" r="2"></circle><circle cx="479" cy="456" r="2"></circle><circle cx="496" cy="456" r="2"></circle><circle cx="514" cy="458" r="2"></circle><circle cx="532" cy="458" r="2"></circle><circle cx="550" cy="462" r="2"></circle><circle cx="567" cy="461" r="2"></circle><circle cx="585" cy="465" r="2"></circle><circle cx="603" cy="463" r="2"></circle><circle cx="620" cy="461" r="2"></circle><circle cx="638" cy="461" r="2"></circle></g></g><g class="key-South-Asia_0"><path stroke="#f6a324" stroke-linecap="round" d="M89 507L159 506L177 506L195 504L213 504L230 504L248 504L266 479L284 477L301 477L319 477L337 477L355 475L372 480L390 477L408 477L425 474L443 468L461 475L479 475L496 474L514 471L532 470L550 469L567 468L585 467L603 468L620 466L638 463" fill="none" stroke-width="1.5"></path><g fill="#f6a324"><circle cx="89" cy="507" r="2"></circle><circle cx="159" cy="506" r="2"></circle><circle cx="177" cy="506" r="2"></circle><circle cx="195" cy="504" r="2"></circle><circle cx="213" cy="504" r="2"></circle><circle cx="230" cy="504" r="2"></circle><circle cx="248" cy="504" r="2"></circle><circle cx="266" cy="479" r="2"></circle><circle cx="284" cy="477" r="2"></circle><circle cx="301" cy="477" r="2"></circle><circle cx="319" cy="477" r="2"></circle><circle cx="337" cy="477" r="2"></circle><circle cx="355" cy="475" r="2"></circle><circle cx="372" cy="480" r="2"></circle><circle cx="390" cy="477" r="2"></circle><circle cx="408" cy="477" r="2"></circle><circle cx="425" cy="474" r="2"></circle><circle cx="443" cy="468" r="2"></circle><circle cx="461" cy="475" r="2"></circle><circle cx="479" cy="475" r="2"></circle><circle cx="496" cy="474" r="2"></circle><circle cx="514" cy="471" r="2"></circle><circle cx="532" cy="470" r="2"></circle><circle cx="550" cy="469" r="2"></circle><circle cx="567" cy="468" r="2"></circle><circle cx="585" cy="467" r="2"></circle><circle cx="603" cy="468" r="2"></circle><circle cx="620" cy="466" r="2"></circle><circle cx="638" cy="463" r="2"></circle></g></g><g class="key-World_0"><path stroke="#e6332e" stroke-linecap="round" d="M89 209L159 179L177 184L195 202L213 175L230 187L248 195L266 92L284 92L301 97L319 96L337 101L355 105L372 121L390 120L408 122L425 138L443 116L461 139L479 135L496 132L514 126L532 122L550 124L567 122L585 136L603 135L620 133L638 131" fill="none" stroke-width="1.5"></path><g fill="#e6332e"><circle cx="89" cy="209" r="2"></circle><circle cx="159" cy="179" r="2"></circle><circle cx="177" cy="184" r="2"></circle><circle cx="195" cy="202" r="2"></circle><circle cx="213" cy="175" r="2"></circle><circle cx="230" cy="187" r="2"></circle><circle cx="248" cy="195" r="2"></circle><circle cx="266" cy="92" r="2"></circle><circle cx="284" cy="92" r="2"></circle><circle cx="301" cy="97" r="2"></circle><circle cx="319" cy="96" r="2"></circle><circle cx="337" cy="101" r="2"></circle><circle cx="355" cy="105" r="2"></circle><circle cx="372" cy="121" r="2"></circle><circle cx="390" cy="120" r="2"></circle><circle cx="408" cy="122" r="2"></circle><circle cx="425" cy="138" r="2"></circle><circle cx="443" cy="116" r="2"></circle><circle cx="461" cy="139" r="2"></circle><circle cx="479" cy="135" r="2"></circle><circle cx="496" cy="132" r="2"></circle><circle cx="514" cy="126" r="2"></circle><circle cx="532" cy="122" r="2"></circle><circle cx="550" cy="124" r="2"></circle><circle cx="567" cy="122" r="2"></circle><circle cx="585" cy="136" r="2"></circle><circle cx="603" cy="135" r="2"></circle><circle cx="620" cy="133" r="2"></circle><circle cx="638" cy="131" r="2"></circle></g></g></g></g></g><g style="fill: #777;" class="SourcesFooter"><g style="fill: #777;" class="clickable"><text font-size="12.60" x="15.0" y="581.6"><tspan x="15" y="581.58">Source: World Bank</tspan></text></g><text font-size="12.60" x="775.4" y="581.6"><tspan x="775.402" y="581.58"><a style="fill: #777;" class="cclogo" href="http://creativecommons.org/licenses/by-sa/4.0/deed.en_US" target="_blank">CC BY-SA</a></tspan></text></g></g></svg>