<svg xmlns="http://www.w3.org/2000/svg" version="1.1" style="font-family:&#x27;Helvetica Neue&#x27;, Helvetica, Arial, sans-serif;font-size:18px;background-color:white;text-rendering:optimizeLegibility;-webkit-font-smoothing:antialiased" width="850" height="600"><g class="HeaderView"><a href="https://mispytest-owid.netlify.com/grapher/average-tariff-rates-per-cent-19882016" target="_blank"><text font-size="25.20" x="15.0" y="35.2" fill="#555"><tspan x="15" y="35.160000000000004">Average tariff rates, per cent (1988–2015)</tspan></text></a><text font-size="14.40" x="15.0" y="53.7" fill="#666"><tspan x="15" y="53.72">Unit 18 &#x27;The nation and the world economy’ Section 18.1 &#x27;Globalization and deglobalization in the long run&#x27; in The CORE</tspan><tspan x="15" y="69.56">Team, The Economy. Available at https://tinyco.re/1801077 [Figure 18.7]</tspan></text></g><g class="LineChart"><defs><clipPath id="boundsClip-232"><rect x="42.562" y="0" width="830" height="932.8"></rect></clipPath></defs><g class="AxisBoxView"><g class="HorizontalAxis"><text x="52.6" y="556.5" fill="#666" text-anchor="middle" font-size="16.2">1988</text><text x="188.9" y="556.5" fill="#666" text-anchor="middle" font-size="16.2">1995</text><text x="286.3" y="556.5" fill="#666" text-anchor="middle" font-size="16.2">2000</text><text x="383.7" y="556.5" fill="#666" text-anchor="middle" font-size="16.2">2005</text><text x="481.1" y="556.5" fill="#666" text-anchor="middle" font-size="16.2">2010</text><text x="578.5" y="556.5" fill="#666" text-anchor="middle" font-size="16.2">2015</text></g><g class="VerticalAxis"><text x="47.56" y="535.3" fill="#666" dominant-baseline="middle" text-anchor="end" font-size="16.2">0%</text><text x="47.56" y="467.5" fill="#666" dominant-baseline="middle" text-anchor="end" font-size="16.2">5%</text><text x="47.56" y="399.7" fill="#666" dominant-baseline="middle" text-anchor="end" font-size="16.2">10%</text><text x="47.56" y="331.8" fill="#666" dominant-baseline="middle" text-anchor="end" font-size="16.2">15%</text><text x="47.56" y="264" fill="#666" dominant-baseline="middle" text-anchor="end" font-size="16.2">20%</text><text x="47.56" y="196.2" fill="#666" dominant-baseline="middle" text-anchor="end" font-size="16.2">25%</text><text x="47.56" y="128.4" fill="#666" dominant-baseline="middle" text-anchor="end" font-size="16.2">30%</text><text x="15" y="82.1" style="font-size:12px;text-transform:uppercase;cursor:pointer" class="clickable">linear</text></g><g class="AxisGridLines"><line x1="52.56" y1="535.3" x2="578.46" y2="535.3" stroke="#ccc"></line><line x1="52.56" y1="467.5" x2="578.46" y2="467.5" stroke="#ddd" stroke-dasharray="3,2"></line><line x1="52.56" y1="399.7" x2="578.46" y2="399.7" stroke="#ddd" stroke-dasharray="3,2"></line><line x1="52.56" y1="331.8" x2="578.46" y2="331.8" stroke="#ddd" stroke-dasharray="3,2"></line><line x1="52.56" y1="264" x2="578.46" y2="264" stroke="#ddd" stroke-dasharray="3,2"></line><line x1="52.56" y1="196.2" x2="578.46" y2="196.2" stroke="#ddd" stroke-dasharray="3,2"></line><line x1="52.56" y1="128.4" x2="578.46" y2="128.4" stroke="#ddd" stroke-dasharray="3,2"></line></g></g><g clip-path="url(#boundsClip-232)"><g class="HeightedLegend clickable"><g class="legendMark"><rect x="578.4649999999999" y="409.84999999999997" width="256.535" height="28.1" fill="#fff" opacity="0"></rect><text font-size="13.50" x="583.5" y="420.6" fill="#3360a9"><tspan x="583.4649999999999" y="420.65">8.21% Average tariff rates in low and</tspan><tspan x="583.4649999999999" y="435.5">middle income countries</tspan></text></g><g class="legendMark"><rect x="578.4649999999999" y="464.05" width="235.47500000000002" height="28.1" fill="#fff" opacity="0"></rect><text font-size="13.50" x="583.5" y="474.9" fill="#ca2628"><tspan x="583.4649999999999" y="474.85">4.22% Average tariff rates in high</tspan><tspan x="583.4649999999999" y="489.70000000000005">income countries</tspan></text></g></g><g class="Lines"><rect x="53" y="90" width="526" height="445" fill="rgba(255,255,255,0)" opacity="0"></rect><g class="key-Global_0"><path stroke="#ca2628" stroke-linecap="round" d="M53 455L111 411L169 429L228 449L286 447L345 463L403 472L462 474L520 473L579 478" fill="none" stroke-width="1.5"></path><g fill="#ca2628"><circle cx="53" cy="455" r="2"></circle><circle cx="111" cy="411" r="2"></circle><circle cx="169" cy="429" r="2"></circle><circle cx="228" cy="449" r="2"></circle><circle cx="286" cy="447" r="2"></circle><circle cx="345" cy="463" r="2"></circle><circle cx="403" cy="472" r="2"></circle><circle cx="462" cy="474" r="2"></circle><circle cx="520" cy="473" r="2"></circle><circle cx="579" cy="478" r="2"></circle></g></g><g class="key-Global_1"><path stroke="#3360a9" stroke-linecap="round" d="M53 119L111 90L169 200L228 317L286 311L345 335L403 389L462 407L520 418L579 424" fill="none" stroke-width="1.5"></path><g fill="#3360a9"><circle cx="53" cy="119" r="2"></circle><circle cx="111" cy="90" r="2"></circle><circle cx="169" cy="200" r="2"></circle><circle cx="228" cy="317" r="2"></circle><circle cx="286" cy="311" r="2"></circle><circle cx="345" cy="335" r="2"></circle><circle cx="403" cy="389" r="2"></circle><circle cx="462" cy="407" r="2"></circle><circle cx="520" cy="418" r="2"></circle><circle cx="579" cy="424" r="2"></circle></g></g></g></g></g><g class="SourcesFooter" style="fill:#777"><g class="clickable" style="fill:#777"><text font-size="12.60" x="15.0" y="581.6"><tspan x="15" y="581.58">Source: The World Bank (2018)</tspan></text></g><text font-size="12.60" x="546.0" y="581.6"><tspan x="545.956" y="581.58"><a target='_blank' style='fill: #777;' href='https://tinyco.re/1801077'>tinyco.re/1801077</a> • <a href="https://ourworldindata.org" target="_blank">Powered by ourworldindata.org</a></tspan></text></g></svg>