<svg xmlns="http://www.w3.org/2000/svg" version="1.1" style="font-family:Lato, &#x27;Helvetica Neue&#x27;, Helvetica, Arial, sans-serif;font-size:18px;background-color:white;text-rendering:optimizeLegibility;-webkit-font-smoothing:antialiased" width="850" height="600"><g class="HeaderView"><g transform="translate(774, 15) scale(0.29)"><svg width="210" height="120" viewBox="0 0 210 120" fill="none" xmlns="http://www.w3.org/2000/svg">
    <g clip-path="url(#clip0)">
        <path d="M0 0H210V107.89H0V0Z" fill="#002147"/>
        <path d="M40.9788 32.248C40.9788 34.6093 40.6048 36.78 39.8568 38.76C39.1088 40.7253 38.0528 42.4193 36.6888 43.842C35.3248 45.2647 33.6821 46.372 31.7608 47.164C29.8541 47.9413 27.7421 48.33 25.4248 48.33C23.1074 48.33 20.9954 47.9413 19.0888 47.164C17.1821 46.372 15.5468 45.2647 14.1828 43.842C12.8188 42.4193 11.7628 40.7253 11.0148 38.76C10.2668 36.78 9.89277 34.6093 9.89277 32.248C9.89277 29.8867 10.2668 27.7233 11.0148 25.758C11.7628 23.778 12.8188 22.0767 14.1828 20.654C15.5468 19.2167 17.1821 18.102 19.0888 17.31C20.9954 16.518 23.1074 16.122 25.4248 16.122C27.7421 16.122 29.8541 16.518 31.7608 17.31C33.6821 18.102 35.3248 19.2167 36.6888 20.654C38.0528 22.0767 39.1088 23.778 39.8568 25.758C40.6048 27.7233 40.9788 29.8867 40.9788 32.248ZM36.6008 32.248C36.6008 30.312 36.3368 28.574 35.8088 27.034C35.2808 25.494 34.5328 24.196 33.5648 23.14C32.5968 22.0693 31.4234 21.248 30.0448 20.676C28.6661 20.104 27.1261 19.818 25.4248 19.818C23.7381 19.818 22.2054 20.104 20.8268 20.676C19.4481 21.248 18.2674 22.0693 17.2848 23.14C16.3168 24.196 15.5688 25.494 15.0408 27.034C14.5128 28.574 14.2488 30.312 14.2488 32.248C14.2488 34.184 14.5128 35.922 15.0408 37.462C15.5688 38.9873 16.3168 40.2853 17.2848 41.356C18.2674 42.412 19.4481 43.226 20.8268 43.798C22.2054 44.3553 23.7381 44.634 25.4248 44.634C27.1261 44.634 28.6661 44.3553 30.0448 43.798C31.4234 43.226 32.5968 42.412 33.5648 41.356C34.5328 40.2853 35.2808 38.9873 35.8088 37.462C36.3368 35.922 36.6008 34.184 36.6008 32.248ZM62.8234 25.714V48H60.4914C59.9341 48 59.5821 47.7287 59.4354 47.186L59.1274 44.788C58.1594 45.8587 57.0741 46.724 55.8714 47.384C54.6687 48.0293 53.2901 48.352 51.7354 48.352C50.5181 48.352 49.4401 48.154 48.5014 47.758C47.5774 47.3473 46.8001 46.7753 46.1694 46.042C45.5387 45.3087 45.0621 44.4213 44.7394 43.38C44.4314 42.3387 44.2774 41.1873 44.2774 39.926V25.714H48.1934V39.926C48.1934 41.6127 48.5747 42.918 49.3374 43.842C50.1147 44.766 51.2954 45.228 52.8794 45.228C54.0381 45.228 55.1161 44.9567 56.1134 44.414C57.1254 43.8567 58.0567 43.094 58.9074 42.126V25.714H62.8234ZM71.4305 30.18C72.1346 28.6547 72.9999 27.4667 74.0266 26.616C75.0532 25.7507 76.3072 25.318 77.7886 25.318C78.2579 25.318 78.7052 25.3693 79.1306 25.472C79.5706 25.5747 79.9592 25.736 80.2966 25.956L80.0106 28.882C79.9226 29.2487 79.7026 29.432 79.3506 29.432C79.1452 29.432 78.8446 29.388 78.4486 29.3C78.0526 29.212 77.6052 29.168 77.1066 29.168C76.4026 29.168 75.7719 29.2707 75.2146 29.476C74.6719 29.6813 74.1806 29.9893 73.7406 30.4C73.3152 30.796 72.9266 31.2947 72.5746 31.896C72.2372 32.4827 71.9292 33.1573 71.6506 33.92V48H67.7125V25.714H69.9566C70.3819 25.714 70.6752 25.7947 70.8366 25.956C70.9979 26.1173 71.1079 26.396 71.1666 26.792L71.4305 30.18ZM132.589 16.474L122.755 48H118.927L110.941 23.954C110.867 23.7193 110.794 23.47 110.721 23.206C110.662 22.942 110.596 22.6633 110.523 22.37C110.449 22.6633 110.376 22.942 110.303 23.206C110.23 23.47 110.156 23.7193 110.083 23.954L102.053 48H98.2248L88.3908 16.474H91.9328C92.3142 16.474 92.6295 16.5693 92.8788 16.76C93.1428 16.9507 93.3115 17.1927 93.3848 17.486L99.8968 39.398C99.9995 39.794 100.095 40.2193 100.183 40.674C100.285 41.1287 100.381 41.6127 100.469 42.126C100.571 41.6127 100.674 41.1287 100.777 40.674C100.894 40.2047 101.019 39.7793 101.151 39.398L108.565 17.486C108.653 17.2367 108.821 17.0093 109.071 16.804C109.335 16.584 109.65 16.474 110.017 16.474H111.249C111.63 16.474 111.938 16.5693 112.173 16.76C112.407 16.9507 112.583 17.1927 112.701 17.486L120.093 39.398C120.225 39.7793 120.342 40.19 120.445 40.63C120.562 41.07 120.672 41.532 120.775 42.016C120.848 41.532 120.929 41.07 121.017 40.63C121.105 40.19 121.2 39.7793 121.303 39.398L127.837 17.486C127.91 17.222 128.072 16.9873 128.321 16.782C128.585 16.5767 128.9 16.474 129.267 16.474H132.589ZM141.94 25.362C143.568 25.362 145.034 25.6333 146.34 26.176C147.645 26.7187 148.76 27.4887 149.684 28.486C150.608 29.4833 151.312 30.6933 151.796 32.116C152.294 33.524 152.544 35.1007 152.544 36.846C152.544 38.606 152.294 40.19 151.796 41.598C151.312 43.006 150.608 44.2087 149.684 45.206C148.76 46.2033 147.645 46.9733 146.34 47.516C145.034 48.044 143.568 48.308 141.94 48.308C140.297 48.308 138.816 48.044 137.496 47.516C136.19 46.9733 135.076 46.2033 134.152 45.206C133.228 44.2087 132.516 43.006 132.018 41.598C131.534 40.19 131.292 38.606 131.292 36.846C131.292 35.1007 131.534 33.524 132.018 32.116C132.516 30.6933 133.228 29.4833 134.152 28.486C135.076 27.4887 136.19 26.7187 137.496 26.176C138.816 25.6333 140.297 25.362 141.94 25.362ZM141.94 45.25C144.14 45.25 145.782 44.5167 146.868 43.05C147.953 41.5687 148.496 39.508 148.496 36.868C148.496 34.2133 147.953 32.1453 146.868 30.664C145.782 29.1827 144.14 28.442 141.94 28.442C140.825 28.442 139.85 28.6327 139.014 29.014C138.192 29.3953 137.503 29.9453 136.946 30.664C136.403 31.3827 135.992 32.27 135.714 33.326C135.45 34.3673 135.318 35.548 135.318 36.868C135.318 39.508 135.86 41.5687 136.946 43.05C138.046 44.5167 139.71 45.25 141.94 45.25ZM159.908 30.18C160.612 28.6547 161.478 27.4667 162.504 26.616C163.531 25.7507 164.785 25.318 166.266 25.318C166.736 25.318 167.183 25.3693 167.608 25.472C168.048 25.5747 168.437 25.736 168.774 25.956L168.488 28.882C168.4 29.2487 168.18 29.432 167.828 29.432C167.623 29.432 167.322 29.388 166.926 29.3C166.53 29.212 166.083 29.168 165.584 29.168C164.88 29.168 164.25 29.2707 163.692 29.476C163.15 29.6813 162.658 29.9893 162.218 30.4C161.793 30.796 161.404 31.2947 161.052 31.896C160.715 32.4827 160.407 33.1573 160.128 33.92V48H156.19V25.714H158.434C158.86 25.714 159.153 25.7947 159.314 25.956C159.476 26.1173 159.586 26.396 159.644 26.792L159.908 30.18ZM174.946 15.594V48H171.03V15.594H174.946ZM194.496 31.016C193.763 30.0333 192.971 29.3513 192.12 28.97C191.269 28.574 190.316 28.376 189.26 28.376C187.192 28.376 185.601 29.1167 184.486 30.598C183.371 32.0793 182.814 34.1913 182.814 36.934C182.814 38.386 182.939 39.6327 183.188 40.674C183.437 41.7007 183.804 42.5513 184.288 43.226C184.772 43.886 185.366 44.37 186.07 44.678C186.774 44.986 187.573 45.14 188.468 45.14C189.759 45.14 190.881 44.8467 191.834 44.26C192.802 43.6733 193.689 42.8447 194.496 41.774V31.016ZM198.412 15.594V48H196.08C195.523 48 195.171 47.7287 195.024 47.186L194.672 44.48C193.719 45.624 192.633 46.548 191.416 47.252C190.199 47.956 188.791 48.308 187.192 48.308C185.916 48.308 184.757 48.066 183.716 47.582C182.675 47.0833 181.787 46.3573 181.054 45.404C180.321 44.4507 179.756 43.2627 179.36 41.84C178.964 40.4173 178.766 38.782 178.766 36.934C178.766 35.2913 178.986 33.766 179.426 32.358C179.866 30.9353 180.497 29.7033 181.318 28.662C182.139 27.6207 183.144 26.8067 184.332 26.22C185.535 25.6187 186.884 25.318 188.38 25.318C189.744 25.318 190.91 25.5527 191.878 26.022C192.861 26.4767 193.733 27.1147 194.496 27.936V15.594H198.412ZM46.6139 70.714V93H42.6979V70.714H46.6139ZM47.4499 63.718C47.4499 64.0993 47.3692 64.4587 47.2079 64.796C47.0612 65.1187 46.8559 65.412 46.5919 65.676C46.3425 65.9253 46.0419 66.1233 45.6899 66.27C45.3525 66.4167 44.9932 66.49 44.6119 66.49C44.2305 66.49 43.8712 66.4167 43.5339 66.27C43.2112 66.1233 42.9252 65.9253 42.6759 65.676C42.4265 65.412 42.2285 65.1187 42.0819 64.796C41.9352 64.4587 41.8619 64.0993 41.8619 63.718C41.8619 63.3367 41.9352 62.9773 42.0819 62.64C42.2285 62.288 42.4265 61.9873 42.6759 61.738C42.9252 61.474 43.2112 61.2687 43.5339 61.122C43.8712 60.9753 44.2305 60.902 44.6119 60.902C44.9932 60.902 45.3525 60.9753 45.6899 61.122C46.0419 61.2687 46.3425 61.474 46.5919 61.738C46.8559 61.9873 47.0612 62.288 47.2079 62.64C47.3692 62.9773 47.4499 63.3367 47.4499 63.718ZM55.4242 73.948C55.9082 73.4053 56.4215 72.914 56.9642 72.474C57.5068 72.034 58.0788 71.66 58.6802 71.352C59.2962 71.0293 59.9415 70.7873 60.6162 70.626C61.3055 70.45 62.0462 70.362 62.8382 70.362C64.0555 70.362 65.1262 70.5673 66.0502 70.978C66.9888 71.374 67.7662 71.946 68.3822 72.694C69.0128 73.4273 69.4895 74.3147 69.8122 75.356C70.1348 76.3973 70.2962 77.5487 70.2962 78.81V93H66.3582V78.81C66.3582 77.1233 65.9695 75.818 65.1922 74.894C64.4295 73.9553 63.2635 73.486 61.6942 73.486C60.5355 73.486 59.4502 73.7647 58.4382 74.322C57.4408 74.8793 56.5168 75.6347 55.6662 76.588V93H51.7282V70.714H54.0822C54.6395 70.714 54.9842 70.9853 55.1162 71.528L55.4242 73.948ZM113.129 77.248C113.129 79.6093 112.755 81.758 112.007 83.694C111.259 85.63 110.203 87.2873 108.839 88.666C107.475 90.0447 105.832 91.1153 103.911 91.878C102.004 92.626 99.8925 93 97.5751 93H85.8051V61.474H97.5751C99.8925 61.474 102.004 61.8553 103.911 62.618C105.832 63.366 107.475 64.4367 108.839 65.83C110.203 67.2087 111.259 68.866 112.007 70.802C112.755 72.738 113.129 74.8867 113.129 77.248ZM108.751 77.248C108.751 75.312 108.487 73.5813 107.959 72.056C107.431 70.5307 106.683 69.24 105.715 68.184C104.747 67.128 103.574 66.3213 102.195 65.764C100.816 65.2067 99.2765 64.928 97.5751 64.928H90.0731V89.546H97.5751C99.2765 89.546 100.816 89.2673 102.195 88.71C103.574 88.1527 104.747 87.3533 105.715 86.312C106.683 85.256 107.431 83.9653 107.959 82.44C108.487 80.9147 108.751 79.184 108.751 77.248ZM128.553 82.968C126.749 83.0267 125.209 83.1733 123.933 83.408C122.672 83.628 121.638 83.9213 120.831 84.288C120.039 84.6547 119.46 85.0873 119.093 85.586C118.741 86.0847 118.565 86.642 118.565 87.258C118.565 87.8447 118.661 88.3507 118.851 88.776C119.042 89.2013 119.299 89.5533 119.621 89.832C119.959 90.096 120.347 90.294 120.787 90.426C121.242 90.5433 121.726 90.602 122.239 90.602C122.929 90.602 123.559 90.536 124.131 90.404C124.703 90.2573 125.239 90.052 125.737 89.788C126.251 89.524 126.735 89.2087 127.189 88.842C127.659 88.4753 128.113 88.0573 128.553 87.588V82.968ZM115.903 73.86C117.135 72.672 118.463 71.7847 119.885 71.198C121.308 70.6113 122.885 70.318 124.615 70.318C125.862 70.318 126.969 70.5233 127.937 70.934C128.905 71.3447 129.719 71.9167 130.379 72.65C131.039 73.3833 131.538 74.2707 131.875 75.312C132.213 76.3533 132.381 77.4973 132.381 78.744V93H130.643C130.262 93 129.969 92.9413 129.763 92.824C129.558 92.692 129.397 92.4427 129.279 92.076L128.839 89.964C128.253 90.5067 127.681 90.9907 127.123 91.416C126.566 91.8267 125.979 92.1787 125.363 92.472C124.747 92.7507 124.087 92.9633 123.383 93.11C122.694 93.2713 121.924 93.352 121.073 93.352C120.208 93.352 119.394 93.2347 118.631 93C117.869 92.7507 117.201 92.384 116.629 91.9C116.072 91.416 115.625 90.8073 115.287 90.074C114.965 89.326 114.803 88.446 114.803 87.434C114.803 86.554 115.045 85.7107 115.529 84.904C116.013 84.0827 116.798 83.3567 117.883 82.726C118.969 82.0953 120.384 81.582 122.129 81.186C123.875 80.7753 126.016 80.5407 128.553 80.482V78.744C128.553 77.0133 128.179 75.708 127.431 74.828C126.683 73.9333 125.591 73.486 124.153 73.486C123.185 73.486 122.371 73.6107 121.711 73.86C121.066 74.0947 120.501 74.366 120.017 74.674C119.548 74.9673 119.137 75.2387 118.785 75.488C118.448 75.7227 118.111 75.84 117.773 75.84C117.509 75.84 117.282 75.774 117.091 75.642C116.901 75.4953 116.739 75.3193 116.607 75.114L115.903 73.86ZM143.568 93.352C141.808 93.352 140.451 92.8607 139.498 91.878C138.559 90.8953 138.09 89.48 138.09 87.632V73.992H135.406C135.171 73.992 134.973 73.926 134.812 73.794C134.65 73.6473 134.57 73.4273 134.57 73.134V71.572L138.222 71.11L139.124 64.224C139.168 64.004 139.263 63.828 139.41 63.696C139.571 63.5493 139.776 63.476 140.026 63.476H142.006V71.154H148.452V73.992H142.006V87.368C142.006 88.3067 142.233 89.0033 142.688 89.458C143.142 89.9127 143.729 90.14 144.448 90.14C144.858 90.14 145.21 90.0887 145.504 89.986C145.812 89.8687 146.076 89.744 146.296 89.612C146.516 89.48 146.699 89.3627 146.846 89.26C147.007 89.1427 147.146 89.084 147.264 89.084C147.469 89.084 147.652 89.2087 147.814 89.458L148.958 91.328C148.283 91.9587 147.469 92.4573 146.516 92.824C145.562 93.176 144.58 93.352 143.568 93.352ZM163.253 82.968C161.449 83.0267 159.909 83.1733 158.633 83.408C157.372 83.628 156.338 83.9213 155.531 84.288C154.739 84.6547 154.16 85.0873 153.793 85.586C153.441 86.0847 153.265 86.642 153.265 87.258C153.265 87.8447 153.36 88.3507 153.551 88.776C153.742 89.2013 153.998 89.5533 154.321 89.832C154.658 90.096 155.047 90.294 155.487 90.426C155.942 90.5433 156.426 90.602 156.939 90.602C157.628 90.602 158.259 90.536 158.831 90.404C159.403 90.2573 159.938 90.052 160.437 89.788C160.95 89.524 161.434 89.2087 161.889 88.842C162.358 88.4753 162.813 88.0573 163.253 87.588V82.968ZM150.603 73.86C151.835 72.672 153.162 71.7847 154.585 71.198C156.008 70.6113 157.584 70.318 159.315 70.318C160.562 70.318 161.669 70.5233 162.637 70.934C163.605 71.3447 164.419 71.9167 165.079 72.65C165.739 73.3833 166.238 74.2707 166.575 75.312C166.912 76.3533 167.081 77.4973 167.081 78.744V93H165.343C164.962 93 164.668 92.9413 164.463 92.824C164.258 92.692 164.096 92.4427 163.979 92.076L163.539 89.964C162.952 90.5067 162.38 90.9907 161.823 91.416C161.266 91.8267 160.679 92.1787 160.063 92.472C159.447 92.7507 158.787 92.9633 158.083 93.11C157.394 93.2713 156.624 93.352 155.773 93.352C154.908 93.352 154.094 93.2347 153.331 93C152.568 92.7507 151.901 92.384 151.329 91.9C150.772 91.416 150.324 90.8073 149.987 90.074C149.664 89.326 149.503 88.446 149.503 87.434C149.503 86.554 149.745 85.7107 150.229 84.904C150.713 84.0827 151.498 83.3567 152.583 82.726C153.668 82.0953 155.084 81.582 156.829 81.186C158.574 80.7753 160.716 80.5407 163.253 80.482V78.744C163.253 77.0133 162.879 75.708 162.131 74.828C161.383 73.9333 160.29 73.486 158.853 73.486C157.885 73.486 157.071 73.6107 156.411 73.86C155.766 74.0947 155.201 74.366 154.717 74.674C154.248 74.9673 153.837 75.2387 153.485 75.488C153.148 75.7227 152.81 75.84 152.473 75.84C152.209 75.84 151.982 75.774 151.791 75.642C151.6 75.4953 151.439 75.3193 151.307 75.114L150.603 73.86Z" fill="white"/>
        <rect y="106.789" width="210" height="13.211" fill="#D42B21"/>
    </g>
    <defs>
        <clipPath id="clip0">
            <rect width="210" height="120" fill="white"/>
        </clipPath>
    </defs>
</svg></g><a href="https://staging-owid.netlify.com/grapher/average-real-gdp-per-capita-regions-1960-2016" target="_blank"><text font-size="25.20" x="15.0" y="35.2" fill="#555"><tspan x="15" y="35.160000000000004">Average real GDP per capita across regions</tspan></text></a><text font-size="14.40" x="15.0" y="53.7" fill="#666"><tspan x="15" y="53.72">The measures are adjusted for inflation (at 2011 prices) and also for price differences between regions (multiple</tspan><tspan x="15" y="69.56">benchmarks allow for cross-regional income comparisons).</tspan></text></g><g class="LineChart"><defs><clipPath id="boundsClip-536"><rect x="68.968" y="0" width="830" height="932.8"></rect></clipPath></defs><g class="AxisBoxView"><g class="HorizontalAxis"><text x="79" y="556.5" fill="#666" text-anchor="middle" font-size="16.2">1870</text><text x="120.7" y="556.5" fill="#666" text-anchor="middle" font-size="16.2">1880</text><text x="204.1" y="556.5" fill="#666" text-anchor="middle" font-size="16.2">1900</text><text x="287.5" y="556.5" fill="#666" text-anchor="middle" font-size="16.2">1920</text><text x="370.9" y="556.5" fill="#666" text-anchor="middle" font-size="16.2">1940</text><text x="454.3" y="556.5" fill="#666" text-anchor="middle" font-size="16.2">1960</text><text x="537.7" y="556.5" fill="#666" text-anchor="middle" font-size="16.2">1980</text><text x="621.1" y="556.5" fill="#666" text-anchor="middle" font-size="16.2">2000</text><text x="687.8" y="556.5" fill="#666" text-anchor="middle" font-size="16.2">2016</text></g><g class="VerticalAxis"><text x="73.97" y="452.1" fill="#666" dominant-baseline="middle" text-anchor="end" font-size="16.2">$10,000</text><text x="73.97" y="364.5" fill="#666" dominant-baseline="middle" text-anchor="end" font-size="16.2">$20,000</text><text x="73.97" y="277" fill="#666" dominant-baseline="middle" text-anchor="end" font-size="16.2">$30,000</text><text x="73.97" y="189.4" fill="#666" dominant-baseline="middle" text-anchor="end" font-size="16.2">$40,000</text><text x="73.97" y="101.9" fill="#666" dominant-baseline="middle" text-anchor="end" font-size="16.2">$50,000</text></g><g class="AxisGridLines"><line x1="78.97" y1="452.1" x2="687.82" y2="452.1" stroke="#ddd" stroke-dasharray="3,2"></line><line x1="78.97" y1="364.5" x2="687.82" y2="364.5" stroke="#ddd" stroke-dasharray="3,2"></line><line x1="78.97" y1="277" x2="687.82" y2="277" stroke="#ddd" stroke-dasharray="3,2"></line><line x1="78.97" y1="189.4" x2="687.82" y2="189.4" stroke="#ddd" stroke-dasharray="3,2"></line><line x1="78.97" y1="101.9" x2="687.82" y2="101.9" stroke="#ddd" stroke-dasharray="3,2"></line></g></g><g clip-path="url(#boundsClip-536)"><g class="HeightedLegend clickable"><g class="legendMark"><g class="indicator"><line x1="692.815" y1="90.1" x2="705.315" y2="90.1" stroke="#666" stroke-width="0.5"></line><line x1="705.315" y1="90.1" x2="705.315" y2="90.1" stroke="#666" stroke-width="0.5"></line><line x1="705.315" y1="90.1" x2="717.815" y2="90.1" stroke="#666" stroke-width="0.5"></line></g><rect x="687.815" y="83.35" width="147.185" height="13.5" fill="#fff" opacity="0"></rect><text font-size="13.50" x="722.8" y="94.1" fill="#34983f"><tspan x="722.815" y="94.14999999999999">Western Offshoots</tspan></text></g><g class="legendMark"><g class="indicator"><line x1="692.815" y1="186.2" x2="705.315" y2="186.2" stroke="#666" stroke-width="0.5"></line><line x1="705.315" y1="186.2" x2="705.315" y2="186.2" stroke="#666" stroke-width="0.5"></line><line x1="705.315" y1="186.2" x2="717.815" y2="186.2" stroke="#666" stroke-width="0.5"></line></g><rect x="687.815" y="179.45" width="132.875" height="13.5" fill="#fff" opacity="0"></rect><text font-size="13.50" x="722.8" y="190.3" fill="rgb(105, 178, 101)"><tspan x="722.815" y="190.25">Western Europe</tspan></text></g><g class="legendMark"><g class="indicator"><line x1="692.815" y1="356.7" x2="715.315" y2="356.7" stroke="#666" stroke-width="0.5"></line><line x1="715.315" y1="356.7" x2="715.315" y2="356.7" stroke="#666" stroke-width="0.5"></line><line x1="715.315" y1="356.7" x2="717.815" y2="356.7" stroke="#666" stroke-width="0.5"></line></g><rect x="687.815" y="349.95" width="115.46000000000001" height="13.5" fill="#fff" opacity="0"></rect><text font-size="13.50" x="722.8" y="360.8" fill="#9ecc8a"><tspan x="722.815" y="360.75">Western Asia</tspan></text></g><g class="legendMark"><g class="indicator"><line x1="692.815" y1="370.2" x2="705.315" y2="370.2" stroke="#666" stroke-width="0.5"></line><line x1="705.315" y1="370.2" x2="705.315" y2="372.2" stroke="#666" stroke-width="0.5"></line><line x1="705.315" y1="372.2" x2="717.815" y2="372.2" stroke="#666" stroke-width="0.5"></line></g><rect x="687.815" y="365.45" width="129.23000000000002" height="13.5" fill="#fff" opacity="0"></rect><text font-size="13.50" x="722.8" y="376.3" fill="#ffd53e"><tspan x="722.815" y="376.25">Eastern Europe</tspan></text></g><g class="legendMark"><g class="indicator"><line x1="692.815" y1="412.1" x2="715.315" y2="412.1" stroke="#666" stroke-width="0.5"></line><line x1="715.315" y1="412.1" x2="715.315" y2="412.1" stroke="#666" stroke-width="0.5"></line><line x1="715.315" y1="412.1" x2="717.815" y2="412.1" stroke="#666" stroke-width="0.5"></line></g><rect x="687.815" y="405.35" width="70.235" height="13.5" fill="#fff" opacity="0"></rect><text font-size="13.50" x="722.8" y="416.2" fill="#ca2628"><tspan x="722.815" y="416.15000000000003">World</tspan></text></g><g class="legendMark"><g class="indicator"><line x1="692.815" y1="421.7" x2="705.315" y2="421.7" stroke="#666" stroke-width="0.5"></line><line x1="705.315" y1="421.7" x2="705.315" y2="427.6" stroke="#666" stroke-width="0.5"></line><line x1="705.315" y1="427.6" x2="717.815" y2="427.6" stroke="#666" stroke-width="0.5"></line></g><rect x="687.815" y="420.85" width="117.75500000000001" height="13.5" fill="#fff" opacity="0"></rect><text font-size="13.50" x="722.8" y="431.7" fill="#e6332e"><tspan x="722.815" y="431.65000000000003">Latin America</tspan></text></g><g class="legendMark"><g class="indicator"><line x1="692.815" y1="449.6" x2="705.315" y2="449.6" stroke="#666" stroke-width="0.5"></line><line x1="705.315" y1="449.6" x2="705.315" y2="449.6" stroke="#666" stroke-width="0.5"></line><line x1="705.315" y1="449.6" x2="717.815" y2="449.6" stroke="#666" stroke-width="0.5"></line></g><rect x="687.815" y="442.85" width="92.24000000000001" height="13.5" fill="#fff" opacity="0"></rect><text font-size="13.50" x="722.8" y="453.7" fill="#2a939b"><tspan x="722.815" y="453.65000000000003">East Asia</tspan></text></g><g class="legendMark"><g class="indicator"><line x1="692.815" y1="498.7" x2="705.315" y2="498.7" stroke="#666" stroke-width="0.5"></line><line x1="705.315" y1="498.7" x2="705.315" y2="498.7" stroke="#666" stroke-width="0.5"></line><line x1="705.315" y1="498.7" x2="717.815" y2="498.7" stroke="#666" stroke-width="0.5"></line></g><rect x="687.815" y="491.95" width="69.56" height="13.5" fill="#fff" opacity="0"></rect><text font-size="13.50" x="722.8" y="502.8" fill="#3360a9"><tspan x="722.815" y="502.75">Africa</tspan></text></g></g><g class="Lines"><rect x="79" y="90" width="609" height="445" fill="rgba(255,255,255,0)" opacity="0"></rect><g class="key-Western-Offshoots_0"><path stroke="#34983f" stroke-linecap="round" d="M79 507L83 507L87 506L92 505L96 506L100 505L104 506L108 505L112 504L117 501L121 498L125 497L129 496L133 496L137 496L142 497L146 496L150 495L154 496L158 494L162 495L167 494L171 491L175 494L179 496L183 492L187 494L192 491L196 490L200 487L204 486L208 482L212 482L217 480L221 482L225 479L229 473L233 473L237 479L242 474L246 474L250 473L254 471L258 469L263 476L267 475L271 467L275 470L279 465L283 465L288 467L292 470L296 467L300 459L304 458L308 457L313 453L317 453L321 452L325 449L329 458L333 464L338 474L342 476L346 471L350 463L354 456L358 450L363 455L367 450L371 442L375 429L379 418L383 408L388 400L392 404L396 416L400 419L404 415L408 419L413 410L417 403L421 400L425 396L429 399L433 392L438 392L442 392L446 395L450 388L454 387L459 386L463 379L467 374L471 367L475 359L479 350L484 347L488 340L492 335L496 337L500 332L504 324L509 314L513 316L517 319L521 310L525 302L529 292L534 286L538 289L542 285L546 292L550 285L554 269L559 261L563 255L567 247L571 237L575 229L579 228L584 233L588 226L592 222L596 213L600 207L604 199L609 188L613 177L617 164L621 152L625 152L629 148L634 141L638 129L642 118L646 112L650 107L655 110L659 128L663 119L667 114L671 110L675 107L680 101L684 94L688 90" fill="none" stroke-width="1.5"></path></g><g class="key-Western-Europe_0"><path stroke="rgb(105, 178, 101)" stroke-linecap="round" d="M79 518L83 518L87 517L92 516L96 516L100 515L104 516L108 515L112 515L117 516L121 515L125 514L129 513L133 513L137 513L142 513L146 512L150 512L154 511L158 510L162 510L167 510L171 509L175 509L179 508L183 508L187 507L192 506L196 505L200 504L204 504L208 504L212 504L217 503L221 503L225 502L229 501L233 500L237 500L242 499L246 499L250 498L254 497L258 497L263 500L267 501L271 500L275 502L279 504L283 505L288 504L292 504L296 501L300 502L304 500L308 498L313 499L317 497L321 496L325 496L329 496L333 498L338 499L342 498L346 496L350 494L354 493L358 491L363 490L367 487L371 488L375 487L379 487L383 487L388 489L392 495L396 498L400 496L404 493L408 490L413 487L417 483L421 481L425 478L429 475L433 471L438 468L442 465L446 463L450 459L454 456L459 452L463 448L467 445L471 440L475 436L479 432L484 429L488 423L492 416L496 411L500 407L504 401L509 394L513 392L517 392L521 385L525 380L529 374L534 367L538 363L542 368L546 370L550 370L554 370L559 369L563 360L567 353L571 344L575 337L579 334L584 328L588 324L592 324L596 316L600 308L604 303L609 290L613 277L617 266L621 251L625 246L629 244L634 247L638 240L642 229L646 219L650 205L655 204L659 215L663 212L667 207L671 204L675 197L680 192L684 188L688 186" fill="none" stroke-width="1.5"></path></g><g class="key-Western-Asia_0"><path stroke="#9ecc8a" stroke-linecap="round" d="M413 519L417 518L421 516L425 514L429 513L433 513L438 512L442 511L446 510L450 509L454 508L459 506L463 505L467 503L471 502L475 500L479 497L484 495L488 491L492 488L496 486L500 482L504 475L509 473L513 451L517 449L521 444L525 448L529 452L534 449L538 450L542 452L546 455L550 460L554 460L559 457L563 466L567 464L571 468L575 470L579 467L584 473L588 465L592 457L596 460L600 458L604 453L609 453L613 455L617 453L621 441L625 442L629 437L634 435L638 422L642 407L646 395L650 386L655 373L659 384L663 373L667 353L671 353L675 351L680 355L684 354L688 357" fill="none" stroke-width="1.5"></path></g><g class="key-Eastern-Europe_0"><path stroke="#ffd53e" stroke-linecap="round" d="M162 526L204 521L258 518L325 517L413 498L417 498L421 497L425 496L429 494L433 491L438 488L442 486L446 483L450 483L454 478L459 475L463 473L467 474L471 467L475 463L479 459L484 456L488 451L492 449L496 443L500 440L504 438L509 430L513 427L517 426L521 421L525 418L529 415L534 415L538 415L542 414L546 411L550 407L554 405L559 403L563 398L567 396L571 393L575 390L579 394L584 405L588 417L592 435L596 449L600 451L604 463L609 466L613 471L617 470L621 463L625 459L629 456L634 450L638 444L642 433L646 421L650 405L655 395L659 407L663 397L667 383L671 376L675 373L680 372L684 372L688 370" fill="none" stroke-width="1.5"></path></g><g class="key-World_0"><path stroke="#ca2628" stroke-linecap="round" d="M79 529L162 525L258 518L325 515L413 511L417 510L421 509L425 508L429 508L433 506L438 505L442 505L446 504L450 504L454 502L459 502L463 500L467 499L471 497L475 496L479 494L484 493L488 491L492 490L496 488L500 487L504 485L509 482L513 481L517 481L521 479L525 478L529 476L534 475L538 474L542 475L546 476L550 476L554 474L559 474L563 472L567 471L571 469L575 468L579 468L584 468L588 467L592 467L596 467L600 465L604 464L609 463L613 462L617 461L621 457L625 456L629 454L634 453L638 449L642 444L646 439L650 434L655 431L659 433L663 426L667 421L671 419L675 417L680 415L684 413L688 412" fill="none" stroke-width="1.5"></path></g><g class="key-Latin-America_0"><path stroke="#e6332e" stroke-linecap="round" d="M79 531L162 529L204 528L208 527L212 528L217 527L221 527L225 526L229 525L233 525L237 525L242 524L246 524L250 524L254 524L258 524L263 525L267 525L271 525L275 525L279 524L283 524L288 523L292 523L296 522L300 521L304 521L308 521L313 520L317 520L321 519L325 519L329 520L333 522L338 523L342 522L346 521L350 520L354 519L358 519L363 519L367 518L371 518L375 518L379 518L383 518L388 517L392 517L396 515L400 515L404 514L408 513L413 513L417 513L421 513L425 512L429 511L433 510L438 510L442 509L446 508L450 509L454 508L459 507L463 506L467 506L471 504L475 503L479 502L484 501L488 499L492 497L496 495L500 493L504 490L509 487L513 484L517 483L521 482L525 480L529 480L534 476L538 475L542 474L546 476L550 479L554 478L559 479L563 478L567 478L571 478L575 479L579 479L584 477L588 475L592 473L596 470L600 468L604 463L609 463L613 464L617 466L621 463L625 464L629 465L634 465L638 460L642 455L646 449L650 442L655 436L659 438L663 428L667 418L671 418L675 415L680 416L684 414L688 422" fill="none" stroke-width="1.5"></path></g><g class="key-East-Asia_0"><path stroke="#2a939b" stroke-linecap="round" d="M79 533L162 531L258 530L325 528L363 528L413 530L417 529L421 529L425 528L429 528L433 528L438 527L442 527L446 527L450 528L454 527L459 527L463 527L467 526L471 526L475 525L479 525L484 525L488 524L492 523L496 522L500 522L504 521L509 520L513 520L517 519L521 519L525 518L529 517L534 517L538 516L542 516L546 516L550 516L554 515L559 515L563 513L567 512L571 511L575 510L579 509L584 508L588 506L592 504L596 503L600 501L604 500L609 499L613 500L617 499L621 497L625 496L629 494L634 492L638 489L642 485L646 482L650 478L655 476L659 474L663 467L667 462L671 460L675 458L680 455L684 452L688 450" fill="none" stroke-width="1.5"></path></g><g class="key-Africa_0"><path stroke="#3360a9" stroke-linecap="round" d="M413 526L417 526L421 526L425 525L429 525L433 524L438 524L442 524L446 524L450 524L454 524L459 523L463 522L467 522L471 521L475 520L479 520L484 520L488 520L492 517L496 514L500 513L504 513L509 511L513 509L517 509L521 508L525 507L529 507L534 506L538 506L542 507L546 507L550 508L554 509L559 508L563 510L567 511L571 511L575 511L579 512L584 513L588 513L592 514L596 515L600 515L604 514L609 514L613 515L617 515L621 514L625 514L629 514L634 513L638 512L642 511L646 509L650 507L655 505L659 505L663 502L667 500L671 499L675 500L680 499L684 499L688 499" fill="none" stroke-width="1.5"></path></g></g></g></g><g class="SourcesFooter" style="fill:#777"><g class="clickable" style="fill:#777"><text font-size="12.60" x="15.0" y="581.6"><tspan x="15" y="581.58">Source: Maddison Project Database (2018)</tspan></text></g><text font-size="12.60" x="796.4" y="581.6"><tspan x="796.444" y="581.58"><a style="fill: #777;" class="cclogo" href="http://creativecommons.org/licenses/by/4.0/deed.en_US" target="_blank">CC BY</a></tspan></text></g></svg>