<svg xmlns="http://www.w3.org/2000/svg" version="1.1" style="font-family:&#x27;Helvetica Neue&#x27;, Helvetica, Arial, sans-serif;font-size:18px;background-color:white;text-rendering:optimizeLegibility;-webkit-font-smoothing:antialiased" width="850" height="600"><g class="HeaderView"><a href="https://mispytest-owid.netlify.com/grapher/carbon-dioxide-emissions-are-higher-in-richer-countries" target="_blank"><text font-size="25.20" x="15.0" y="35.2" fill="#555"><tspan x="15" y="35.160000000000004">Carbon dioxide emissions are higher in richer countries …</tspan></text></a><text font-size="14.40" x="15.0" y="53.7" fill="#666"><tspan x="15" y="53.72">Unit 20 &#x27;Capstone: Economics of the environment’ Section 20.10 &#x27;Policy choices matter&#x27; in The CORE Team, The Economy.</tspan><tspan x="15" y="69.56">Available at https://tinyco.re/2010255 [Figure 20.25a]</tspan></text></g><g><g class="AxisBoxView"><g class="HorizontalAxis"><text font-size="12.60" x="180.7" y="540.3"><tspan x="180.725" y="540.28">GDP per capita in 2014 (PPP, constant 2011 international dollars)</tspan></text><text x="60.7" y="520.1999999999999" fill="#666" text-anchor="middle" font-size="16.2">589</text><text x="142.6" y="520.1999999999999" fill="#666" text-anchor="middle" font-size="16.2">10,000</text><text x="229.5" y="520.1999999999999" fill="#666" text-anchor="middle" font-size="16.2">20,000</text><text x="316.4" y="520.1999999999999" fill="#666" text-anchor="middle" font-size="16.2">30,000</text><text x="403.4" y="520.1999999999999" fill="#666" text-anchor="middle" font-size="16.2">40,000</text><text x="490.3" y="520.1999999999999" fill="#666" text-anchor="middle" font-size="16.2">50,000</text><text x="577.2" y="520.1999999999999" fill="#666" text-anchor="middle" font-size="16.2">60,000</text><text x="664.2" y="520.1999999999999" fill="#666" text-anchor="middle" font-size="16.2">70,000</text><text x="715" y="537.8" style="font-size:12px;text-transform:uppercase;cursor:pointer" class="clickable">linear</text></g><g class="VerticalAxis"><text font-size="12.60" x="-455.2" y="25.1" transform="rotate(-90)"><tspan x="-455.176" y="25.080000000000002">CO2 emissions per capita in 2014 (metric tonnes)</tspan></text><text x="55.74" y="499" fill="#666" dominant-baseline="middle" text-anchor="end" font-size="16.2">0</text><text x="55.74" y="439.2" fill="#666" dominant-baseline="middle" text-anchor="end" font-size="16.2">5</text><text x="55.74" y="379.3" fill="#666" dominant-baseline="middle" text-anchor="end" font-size="16.2">10</text><text x="55.74" y="319.5" fill="#666" dominant-baseline="middle" text-anchor="end" font-size="16.2">15</text><text x="55.74" y="259.6" fill="#666" dominant-baseline="middle" text-anchor="end" font-size="16.2">20</text><text x="55.74" y="199.8" fill="#666" dominant-baseline="middle" text-anchor="end" font-size="16.2">25</text><text x="55.74" y="139.9" fill="#666" dominant-baseline="middle" text-anchor="end" font-size="16.2">30</text><text x="15" y="82.1" style="font-size:12px;text-transform:uppercase;cursor:pointer" class="clickable">linear</text></g><g class="AxisGridLines"><line x1="60.74" y1="499" x2="715.00" y2="499" stroke="#ccc"></line><line x1="60.74" y1="439.2" x2="715.00" y2="439.2" stroke="#ddd" stroke-dasharray="3,2"></line><line x1="60.74" y1="379.3" x2="715.00" y2="379.3" stroke="#ddd" stroke-dasharray="3,2"></line><line x1="60.74" y1="319.5" x2="715.00" y2="319.5" stroke="#ddd" stroke-dasharray="3,2"></line><line x1="60.74" y1="259.6" x2="715.00" y2="259.6" stroke="#ddd" stroke-dasharray="3,2"></line><line x1="60.74" y1="199.8" x2="715.00" y2="199.8" stroke="#ddd" stroke-dasharray="3,2"></line><line x1="60.74" y1="139.9" x2="715.00" y2="139.9" stroke="#ddd" stroke-dasharray="3,2"></line></g><g class="AxisGridLines"><line x1="142.6" y1="499.00" x2="142.6" y2="90.10" stroke="#ddd" stroke-dasharray="3,2"></line><line x1="229.5" y1="499.00" x2="229.5" y2="90.10" stroke="#ddd" stroke-dasharray="3,2"></line><line x1="316.4" y1="499.00" x2="316.4" y2="90.10" stroke="#ddd" stroke-dasharray="3,2"></line><line x1="403.4" y1="499.00" x2="403.4" y2="90.10" stroke="#ddd" stroke-dasharray="3,2"></line><line x1="490.3" y1="499.00" x2="490.3" y2="90.10" stroke="#ddd" stroke-dasharray="3,2"></line><line x1="577.2" y1="499.00" x2="577.2" y2="90.10" stroke="#ddd" stroke-dasharray="3,2"></line><line x1="664.2" y1="499.00" x2="664.2" y2="90.10" stroke="#ddd" stroke-dasharray="3,2"></line></g></g><g class="ComparisonLine"><defs><clipPath id="axisBounds-254"><rect x="60.744" y="90.1" width="654.256" height="408.9"></rect></clipPath></defs><path d="M60.7,492.4L67.3,490.2L73.8,488L80.4,485.8L86.9,483.6L93.5,481.5L100,479.3L106.5,477.1L113.1,474.9L119.6,472.7L126.2,470.6L132.7,468.4L139.3,466.2L145.8,464L152.3,461.8L158.9,459.7L165.4,457.5L172,455.3L178.5,453.1L185.1,450.9L191.6,448.8L198.1,446.6L204.7,444.4L211.2,442.2L217.8,440L224.3,437.9L230.9,435.7L237.4,433.5L243.9,431.3L250.5,429.1L257,427L263.6,424.8L270.1,422.6L276.6,420.4L283.2,418.2L289.7,416.1L296.3,413.9L302.8,411.7L309.4,409.5L315.9,407.3L322.4,405.2L329,403L335.5,400.8L342.1,398.6L348.6,396.4L355.2,394.3L361.7,392.1L368.2,389.9L374.8,387.7L381.3,385.5L387.9,383.4L394.4,381.2L401,379L407.5,376.8L414,374.6L420.6,372.5L427.1,370.3L433.7,368.1L440.2,365.9L446.8,363.7L453.3,361.6L459.8,359.4L466.4,357.2L472.9,355L479.5,352.9L486,350.7L492.6,348.5L499.1,346.3L505.6,344.1L512.2,342L518.7,339.8L525.3,337.6L531.8,335.4L538.4,333.2L544.9,331.1L551.4,328.9L558,326.7L564.5,324.5L571.1,322.3L577.6,320.2L584.1,318L590.7,315.8L597.2,313.6L603.8,311.4L610.3,309.3L616.9,307.1L623.4,304.9L629.9,302.7L636.5,300.5L643,298.4L649.6,296.2L656.1,294L662.7,291.8L669.2,289.6L675.7,287.5L682.3,285.3L688.8,283.1L695.4,280.9L701.9,278.7L708.5,276.6" clip-path="url(#axisBounds-254)" fill="none" stroke="#ccc"></path></g><g class="PointsWithLabels clickable" clip-path="url(#scatterBounds-255)" font-family="Arial, sans-serif"><rect x="60.744" y="90.1" width="654.256" height="408.9" fill="rgba(255,255,255,0)"></rect><defs><clipPath id="scatterBounds-255"><rect x="50.744" y="80.1" width="674.256" height="428.9"></rect></clipPath></defs><g class="key-Afghanistan_0"><circle cx="73.00" cy="495.00" r="1.78" fill="#d14e5b" opacity="0.8" stroke="#333" stroke-width="0.7"></circle></g><g class="key-Albania_0"><circle cx="148.00" cy="475.00" r="1.78" fill="#ffd336" opacity="0.8" stroke="#333" stroke-width="0.7"></circle></g><g class="key-Algeria_0"><circle cx="166.00" cy="454.00" r="1.78" fill="#5675c1" opacity="0.8" stroke="#333" stroke-width="0.7"></circle></g><g class="key-Angola_0"><circle cx="130.00" cy="483.00" r="1.78" fill="#5675c1" opacity="0.8" stroke="#fff" stroke-width="0.7"></circle></g><g class="key-Armenia_0"><circle cx="136.00" cy="476.00" r="1.78" fill="#d14e5b" opacity="0.8" stroke="#fff" stroke-width="0.7"></circle></g><g class="key-Australia_0"><circle cx="437.00" cy="315.00" r="1.78" fill="#a652ba" opacity="0.8" stroke="#333" stroke-width="0.7"></circle></g><g class="key-Austria_0"><circle cx="445.00" cy="416.00" r="1.78" fill="#ffd336" opacity="0.8" stroke="#333" stroke-width="0.7"></circle></g><g class="key-Azerbaijan_0"><circle cx="194.00" cy="451.00" r="1.78" fill="#d14e5b" opacity="0.8" stroke="#fff" stroke-width="0.7"></circle></g><g class="key-Bahrain_0"><circle cx="390.00" cy="218.00" r="1.78" fill="#d14e5b" opacity="0.8" stroke="#333" stroke-width="0.7"></circle></g><g class="key-Bangladesh_0"><circle cx="80.00" cy="493.00" r="1.78" fill="#d14e5b" opacity="0.8" stroke="#fff" stroke-width="0.7"></circle></g><g class="key-Barbados_0"><circle cx="142.00" cy="445.00" r="1.78" fill="#4d824b" opacity="0.8" stroke="#fff" stroke-width="0.7"></circle></g><g class="key-Belarus_0"><circle cx="229.00" cy="418.00" r="1.78" fill="#ffd336" opacity="0.8" stroke="#333" stroke-width="0.7"></circle></g><g class="key-Belgium_0"><circle cx="396.00" cy="399.00" r="1.78" fill="#ffd336" opacity="0.8" stroke="#333" stroke-width="0.7"></circle></g><g class="key-Benin_0"><circle cx="73.00" cy="491.00" r="1.78" fill="#5675c1" opacity="0.8" stroke="#fff" stroke-width="0.7"></circle></g><g class="key-Bolivia_0"><circle cx="105.00" cy="475.00" r="1.78" fill="#69c487" opacity="0.8" stroke="#333" stroke-width="0.7"></circle></g><g class="key-Bosnia-and-Herzegovina_0"><circle cx="142.00" cy="424.00" r="1.78" fill="#ffd336" opacity="0.8" stroke="#fff" stroke-width="0.7"></circle></g><g class="key-Botswana_0"><circle cx="185.00" cy="460.00" r="1.78" fill="#5675c1" opacity="0.8" stroke="#fff" stroke-width="0.7"></circle></g><g class="key-Brazil_0"><circle cx="184.00" cy="467.00" r="1.78" fill="#69c487" opacity="0.8" stroke="#fff" stroke-width="0.7"></circle></g><g class="key-Bulgaria_0"><circle cx="199.00" cy="428.00" r="1.78" fill="#ffd336" opacity="0.8" stroke="#fff" stroke-width="0.7"></circle></g><g class="key-Burkina-Faso_0"><circle cx="68.00" cy="497.00" r="1.78" fill="#5675c1" opacity="0.8" stroke="#fff" stroke-width="0.7"></circle></g><g class="key-Burundi_0"><circle cx="62.00" cy="498.00" r="1.78" fill="#5675c1" opacity="0.8" stroke="#fff" stroke-width="0.7"></circle></g><g class="key-Cape-Verde_0"><circle cx="110.00" cy="487.00" r="1.78" fill="#5675c1" opacity="0.8" stroke="#fff" stroke-width="0.7"></circle></g><g class="key-Cambodia_0"><circle cx="81.00" cy="493.00" r="1.78" fill="#d14e5b" opacity="0.8" stroke="#fff" stroke-width="0.7"></circle></g><g class="key-Cameroon_0"><circle cx="78.00" cy="495.00" r="1.78" fill="#5675c1" opacity="0.8" stroke="#fff" stroke-width="0.7"></circle></g><g class="key-Canada_0"><circle cx="428.00" cy="318.00" r="1.78" fill="#4d824b" opacity="0.8" stroke="#fff" stroke-width="0.7"></circle></g><g class="key-Central-African-Republic_0"><circle cx="60.00" cy="498.00" r="1.78" fill="#5675c1" opacity="0.8" stroke="#fff" stroke-width="0.7"></circle></g><g class="key-Chad_0"><circle cx="75.00" cy="498.00" r="1.78" fill="#5675c1" opacity="0.8" stroke="#fff" stroke-width="0.7"></circle></g><g class="key-Chile_0"><circle cx="239.00" cy="442.00" r="1.78" fill="#69c487" opacity="0.8" stroke="#333" stroke-width="0.7"></circle></g><g class="key-China_0"><circle cx="157.00" cy="408.00" r="1.78" fill="#d14e5b" opacity="0.8" stroke="#333" stroke-width="0.7"></circle></g><g class="key-Colombia_0"><circle cx="165.00" cy="477.00" r="1.78" fill="#69c487" opacity="0.8" stroke="#fff" stroke-width="0.7"></circle></g><g class="key-Comoros_0"><circle cx="70.00" cy="496.00" r="1.78" fill="#5675c1" opacity="0.8" stroke="#fff" stroke-width="0.7"></circle></g><g class="key-Democratic-Republic-of-Congo_0"><circle cx="62.00" cy="498.00" r="1.78" fill="#5675c1" opacity="0.8" stroke="#fff" stroke-width="0.7"></circle></g><g class="key-Congo_0"><circle cx="95.00" cy="491.00" r="1.78" fill="#5675c1" opacity="0.8" stroke="#fff" stroke-width="0.7"></circle></g><g class="key-Costa-Rica_0"><circle cx="169.00" cy="479.00" r="1.78" fill="#4d824b" opacity="0.8" stroke="#fff" stroke-width="0.7"></circle></g><g class="key-Cote-d__0027Ivoire_0"><circle cx="83.00" cy="493.00" r="1.78" fill="#5675c1" opacity="0.8" stroke="#fff" stroke-width="0.7"></circle></g><g class="key-Croatia_0"><circle cx="233.00" cy="451.00" r="1.78" fill="#ffd336" opacity="0.8" stroke="#fff" stroke-width="0.7"></circle></g><g class="key-Cuba_0"><circle cx="121.00" cy="462.00" r="1.78" fill="#4d824b" opacity="0.8" stroke="#333" stroke-width="0.7"></circle></g><g class="key-Cyprus_0"><circle cx="275.00" cy="436.00" r="1.78" fill="#ffd336" opacity="0.8" stroke="#333" stroke-width="0.7"></circle></g><g class="key-Czech-Republic_0"><circle cx="309.00" cy="389.00" r="1.78" fill="#ffd336" opacity="0.8" stroke="#333" stroke-width="0.7"></circle></g><g class="key-Denmark_0"><circle cx="442.00" cy="428.00" r="1.78" fill="#ffd336" opacity="0.8" stroke="#333" stroke-width="0.7"></circle></g><g class="key-Djibouti_0"><circle cx="82.00" cy="489.00" r="1.78" fill="#5675c1" opacity="0.8" stroke="#fff" stroke-width="0.7"></circle></g><g class="key-Dominica_0"><circle cx="140.00" cy="476.00" r="1.78" fill="#4d824b" opacity="0.8" stroke="#fff" stroke-width="0.7"></circle></g><g class="key-Dominican-Republic_0"><circle cx="165.00" cy="474.00" r="1.78" fill="#4d824b" opacity="0.8" stroke="#fff" stroke-width="0.7"></circle></g><g class="key-Ecuador_0"><circle cx="151.00" cy="465.00" r="1.78" fill="#69c487" opacity="0.8" stroke="#fff" stroke-width="0.7"></circle></g><g class="key-Egypt_0"><circle cx="152.00" cy="472.00" r="1.78" fill="#5675c1" opacity="0.8" stroke="#fff" stroke-width="0.7"></circle></g><g class="key-El-Salvador_0"><circle cx="125.00" cy="487.00" r="1.78" fill="#4d824b" opacity="0.8" stroke="#fff" stroke-width="0.7"></circle></g><g class="key-Equatorial-Guinea_0"><circle cx="399.00" cy="442.00" r="1.78" fill="#5675c1" opacity="0.8" stroke="#333" stroke-width="0.7"></circle></g><g class="key-Estonia_0"><circle cx="276.00" cy="321.00" r="1.78" fill="#ffd336" opacity="0.8" stroke="#333" stroke-width="0.7"></circle></g><g class="key-Ethiopia_0"><circle cx="68.00" cy="497.00" r="1.78" fill="#5675c1" opacity="0.8" stroke="#fff" stroke-width="0.7"></circle></g><g class="key-Finland_0"><circle cx="385.00" cy="395.00" r="1.78" fill="#ffd336" opacity="0.8" stroke="#fff" stroke-width="0.7"></circle></g><g class="key-France_0"><circle cx="387.00" cy="444.00" r="1.78" fill="#ffd336" opacity="0.8" stroke="#fff" stroke-width="0.7"></circle></g><g class="key-Gabon_0"><circle cx="177.00" cy="465.00" r="1.78" fill="#5675c1" opacity="0.8" stroke="#fff" stroke-width="0.7"></circle></g><g class="key-Gambia_0"><circle cx="72.00" cy="495.00" r="1.78" fill="#5675c1" opacity="0.8" stroke="#fff" stroke-width="0.7"></circle></g><g class="key-Georgia_0"><circle cx="141.00" cy="470.00" r="1.78" fill="#d14e5b" opacity="0.8" stroke="#fff" stroke-width="0.7"></circle></g><g class="key-Germany_0"><circle cx="455.00" cy="392.00" r="1.78" fill="#ffd336" opacity="0.8" stroke="#333" stroke-width="0.7"></circle></g><g class="key-Ghana_0"><circle cx="87.00" cy="492.00" r="1.78" fill="#5675c1" opacity="0.8" stroke="#fff" stroke-width="0.7"></circle></g><g class="key-Greece_0"><circle cx="268.00" cy="425.00" r="1.78" fill="#ffd336" opacity="0.8" stroke="#fff" stroke-width="0.7"></circle></g><g class="key-Guatemala_0"><circle cx="115.00" cy="485.00" r="1.78" fill="#4d824b" opacity="0.8" stroke="#fff" stroke-width="0.7"></circle></g><g class="key-Guinea_0"><circle cx="69.00" cy="496.00" r="1.78" fill="#5675c1" opacity="0.8" stroke="#fff" stroke-width="0.7"></circle></g><g class="key-Guinea__002dBissau_0"><circle cx="66.00" cy="497.00" r="1.78" fill="#5675c1" opacity="0.8" stroke="#fff" stroke-width="0.7"></circle></g><g class="key-Haiti_0"><circle cx="70.00" cy="495.00" r="1.78" fill="#4d824b" opacity="0.8" stroke="#fff" stroke-width="0.7"></circle></g><g class="key-Honduras_0"><circle cx="92.00" cy="486.00" r="1.78" fill="#4d824b" opacity="0.8" stroke="#fff" stroke-width="0.7"></circle></g><g class="key-Hungary_0"><circle cx="253.00" cy="447.00" r="1.78" fill="#ffd336" opacity="0.8" stroke="#fff" stroke-width="0.7"></circle></g><g class="key-Iceland_0"><circle cx="398.00" cy="426.00" r="1.78" fill="#ffd336" opacity="0.8" stroke="#333" stroke-width="0.7"></circle></g><g class="key-India_0"><circle cx="101.00" cy="478.00" r="1.78" fill="#d14e5b" opacity="0.8" stroke="#fff" stroke-width="0.7"></circle></g><g class="key-Indonesia_0"><circle cx="140.00" cy="477.00" r="1.78" fill="#d14e5b" opacity="0.8" stroke="#fff" stroke-width="0.7"></circle></g><g class="key-Iran_0"><circle cx="188.00" cy="399.00" r="1.78" fill="#d14e5b" opacity="0.8" stroke="#333" stroke-width="0.7"></circle></g><g class="key-Iraq_0"><circle cx="167.00" cy="441.00" r="1.78" fill="#d14e5b" opacity="0.8" stroke="#333" stroke-width="0.7"></circle></g><g class="key-Ireland_0"><circle cx="505.00" cy="411.00" r="1.78" fill="#ffd336" opacity="0.8" stroke="#333" stroke-width="0.7"></circle></g><g class="key-Israel_0"><circle cx="329.00" cy="404.00" r="1.78" fill="#d14e5b" opacity="0.8" stroke="#333" stroke-width="0.7"></circle></g><g class="key-Italy_0"><circle cx="354.00" cy="435.00" r="1.78" fill="#ffd336" opacity="0.8" stroke="#333" stroke-width="0.7"></circle></g><g class="key-Jamaica_0"><circle cx="117.00" cy="468.00" r="1.78" fill="#4d824b" opacity="0.8" stroke="#fff" stroke-width="0.7"></circle></g><g class="key-Japan_0"><circle cx="364.00" cy="384.00" r="1.78" fill="#d14e5b" opacity="0.8" stroke="#fff" stroke-width="0.7"></circle></g><g class="key-Jordan_0"><circle cx="157.00" cy="463.00" r="1.78" fill="#d14e5b" opacity="0.8" stroke="#fff" stroke-width="0.7"></circle></g><g class="key-Kazakhstan_0"><circle cx="259.00" cy="327.00" r="1.78" fill="#d14e5b" opacity="0.8" stroke="#fff" stroke-width="0.7"></circle></g><g class="key-Kenya_0"><circle cx="81.00" cy="495.00" r="1.78" fill="#5675c1" opacity="0.8" stroke="#fff" stroke-width="0.7"></circle></g><g class="key-South-Korea_0"><circle cx="355.00" cy="360.00" r="1.78" fill="#d14e5b" opacity="0.8" stroke="#333" stroke-width="0.7"></circle></g><g class="key-Kuwait_0"><circle cx="657.00" cy="197.00" r="1.78" fill="#d14e5b" opacity="0.8" stroke="#333" stroke-width="0.7"></circle></g><g class="key-Kyrgyzstan_0"><circle cx="105.00" cy="479.00" r="1.78" fill="#d14e5b" opacity="0.8" stroke="#fff" stroke-width="0.7"></circle></g><g class="key-Laos_0"><circle cx="104.00" cy="495.00" r="1.78" fill="#d14e5b" opacity="0.8" stroke="#fff" stroke-width="0.7"></circle></g><g class="key-Latvia_0"><circle cx="246.00" cy="457.00" r="1.78" fill="#ffd336" opacity="0.8" stroke="#333" stroke-width="0.7"></circle></g><g class="key-Lebanon_0"><circle cx="169.00" cy="447.00" r="1.78" fill="#d14e5b" opacity="0.8" stroke="#fff" stroke-width="0.7"></circle></g><g class="key-Lesotho_0"><circle cx="80.00" cy="485.00" r="1.78" fill="#5675c1" opacity="0.8" stroke="#fff" stroke-width="0.7"></circle></g><g class="key-Liberia_0"><circle cx="62.00" cy="496.00" r="1.78" fill="#5675c1" opacity="0.8" stroke="#fff" stroke-width="0.7"></circle></g><g class="key-Libya_0"><circle cx="140.00" cy="389.00" r="1.78" fill="#5675c1" opacity="0.8" stroke="#333" stroke-width="0.7"></circle></g><g class="key-Lithuania_0"><circle cx="269.00" cy="446.00" r="1.78" fill="#ffd336" opacity="0.8" stroke="#fff" stroke-width="0.7"></circle></g><g class="key-Luxembourg_0"><circle cx="635.00" cy="291.00" r="1.78" fill="#ffd336" opacity="0.8" stroke="#333" stroke-width="0.7"></circle></g><g class="key-Macedonia_0"><circle cx="169.00" cy="455.00" r="1.78" fill="#ffd336" opacity="0.8" stroke="#fff" stroke-width="0.7"></circle></g><g class="key-Madagascar_0"><circle cx="66.00" cy="497.00" r="1.78" fill="#5675c1" opacity="0.8" stroke="#fff" stroke-width="0.7"></circle></g><g class="key-Malawi_0"><circle cx="64.00" cy="498.00" r="1.78" fill="#5675c1" opacity="0.8" stroke="#fff" stroke-width="0.7"></circle></g><g class="key-Malaysia_0"><circle cx="241.00" cy="402.00" r="1.78" fill="#d14e5b" opacity="0.8" stroke="#333" stroke-width="0.7"></circle></g><g class="key-Mali_0"><circle cx="68.00" cy="498.00" r="1.78" fill="#5675c1" opacity="0.8" stroke="#fff" stroke-width="0.7"></circle></g><g class="key-Malta_0"><circle cx="273.00" cy="434.00" r="1.78" fill="#ffd336" opacity="0.8" stroke="#fff" stroke-width="0.7"></circle></g><g class="key-Mauritania_0"><circle cx="84.00" cy="491.00" r="1.78" fill="#5675c1" opacity="0.8" stroke="#fff" stroke-width="0.7"></circle></g><g class="key-Mauritius_0"><circle cx="210.00" cy="458.00" r="1.78" fill="#5675c1" opacity="0.8" stroke="#fff" stroke-width="0.7"></circle></g><g class="key-Mexico_0"><circle cx="190.00" cy="452.00" r="1.78" fill="#4d824b" opacity="0.8" stroke="#fff" stroke-width="0.7"></circle></g><g class="key-Moldova_0"><circle cx="103.00" cy="482.00" r="1.78" fill="#ffd336" opacity="0.8" stroke="#fff" stroke-width="0.7"></circle></g><g class="key-Mongolia_0"><circle cx="151.00" cy="413.00" r="1.78" fill="#d14e5b" opacity="0.8" stroke="#fff" stroke-width="0.7"></circle></g><g class="key-Montenegro_0"><circle cx="202.00" cy="456.00" r="1.78" fill="#ffd336" opacity="0.8" stroke="#fff" stroke-width="0.7"></circle></g><g class="key-Morocco_0"><circle cx="119.00" cy="478.00" r="1.78" fill="#5675c1" opacity="0.8" stroke="#fff" stroke-width="0.7"></circle></g><g class="key-Mozambique_0"><circle cx="66.00" cy="495.00" r="1.78" fill="#5675c1" opacity="0.8" stroke="#fff" stroke-width="0.7"></circle></g><g class="key-Namibia_0"><circle cx="155.00" cy="480.00" r="1.78" fill="#5675c1" opacity="0.8" stroke="#fff" stroke-width="0.7"></circle></g><g class="key-Nepal_0"><circle cx="78.00" cy="495.00" r="1.78" fill="#d14e5b" opacity="0.8" stroke="#fff" stroke-width="0.7"></circle></g><g class="key-Netherlands_0"><circle cx="470.00" cy="380.00" r="1.78" fill="#ffd336" opacity="0.8" stroke="#333" stroke-width="0.7"></circle></g><g class="key-New-Zealand_0"><circle cx="343.00" cy="407.00" r="1.78" fill="#a652ba" opacity="0.8" stroke="#fff" stroke-width="0.7"></circle></g><g class="key-Nicaragua_0"><circle cx="95.00" cy="489.00" r="1.78" fill="#4d824b" opacity="0.8" stroke="#fff" stroke-width="0.7"></circle></g><g class="key-Niger_0"><circle cx="63.00" cy="497.00" r="1.78" fill="#5675c1" opacity="0.8" stroke="#fff" stroke-width="0.7"></circle></g><g class="key-Nigeria_0"><circle cx="103.00" cy="492.00" r="1.78" fill="#5675c1" opacity="0.8" stroke="#fff" stroke-width="0.7"></circle></g><g class="key-Norway_0"><circle cx="715.00" cy="388.00" r="1.78" fill="#ffd336" opacity="0.8" stroke="#333" stroke-width="0.7"></circle></g><g class="key-Oman_0"><circle cx="383.00" cy="314.00" r="1.78" fill="#d14e5b" opacity="0.8" stroke="#333" stroke-width="0.7"></circle></g><g class="key-Pakistan_0"><circle cx="98.00" cy="488.00" r="1.78" fill="#d14e5b" opacity="0.8" stroke="#fff" stroke-width="0.7"></circle></g><g class="key-Panama_0"><circle cx="228.00" cy="472.00" r="1.78" fill="#4d824b" opacity="0.8" stroke="#333" stroke-width="0.7"></circle></g><g class="key-Paraguay_0"><circle cx="127.00" cy="488.00" r="1.78" fill="#69c487" opacity="0.8" stroke="#fff" stroke-width="0.7"></circle></g><g class="key-Peru_0"><circle cx="150.00" cy="475.00" r="1.78" fill="#69c487" opacity="0.8" stroke="#fff" stroke-width="0.7"></circle></g><g class="key-Philippines_0"><circle cx="112.00" cy="486.00" r="1.78" fill="#d14e5b" opacity="0.8" stroke="#fff" stroke-width="0.7"></circle></g><g class="key-Poland_0"><circle cx="267.00" cy="409.00" r="1.78" fill="#ffd336" opacity="0.8" stroke="#fff" stroke-width="0.7"></circle></g><g class="key-Portugal_0"><circle cx="287.00" cy="447.00" r="1.78" fill="#ffd336" opacity="0.8" stroke="#fff" stroke-width="0.7"></circle></g><g class="key-Romania_0"><circle cx="226.00" cy="456.00" r="1.78" fill="#ffd336" opacity="0.8" stroke="#fff" stroke-width="0.7"></circle></g><g class="key-Russia_0"><circle cx="262.00" cy="357.00" r="1.78" fill="#ffd336" opacity="0.8" stroke="#333" stroke-width="0.7"></circle></g><g class="key-Rwanda_0"><circle cx="69.00" cy="498.00" r="1.78" fill="#5675c1" opacity="0.8" stroke="#fff" stroke-width="0.7"></circle></g><g class="key-Saudi-Arabia_0"><circle cx="462.00" cy="265.00" r="1.78" fill="#d14e5b" opacity="0.8" stroke="#333" stroke-width="0.7"></circle></g><g class="key-Senegal_0"><circle cx="76.00" cy="491.00" r="1.78" fill="#5675c1" opacity="0.8" stroke="#fff" stroke-width="0.7"></circle></g><g class="key-Serbia_0"><circle cx="172.00" cy="435.00" r="1.78" fill="#ffd336" opacity="0.8" stroke="#fff" stroke-width="0.7"></circle></g><g class="key-Seychelles_0"><circle cx="252.00" cy="434.00" r="1.78" fill="#5675c1" opacity="0.8" stroke="#fff" stroke-width="0.7"></circle></g><g class="key-Sierra-Leone_0"><circle cx="67.00" cy="496.00" r="1.78" fill="#5675c1" opacity="0.8" stroke="#fff" stroke-width="0.7"></circle></g><g class="key-Singapore_0"><circle cx="639.00" cy="375.00" r="1.78" fill="#d14e5b" opacity="0.8" stroke="#333" stroke-width="0.7"></circle></g><g class="key-Slovakia_0"><circle cx="272.00" cy="431.00" r="1.78" fill="#ffd336" opacity="0.8" stroke="#fff" stroke-width="0.7"></circle></g><g class="key-Slovenia_0"><circle cx="294.00" cy="424.00" r="1.78" fill="#ffd336" opacity="0.8" stroke="#333" stroke-width="0.7"></circle></g><g class="key-South-Africa_0"><circle cx="160.00" cy="391.00" r="1.78" fill="#5675c1" opacity="0.8" stroke="#fff" stroke-width="0.7"></circle></g><g class="key-Spain_0"><circle cx="336.00" cy="438.00" r="1.78" fill="#ffd336" opacity="0.8" stroke="#fff" stroke-width="0.7"></circle></g><g class="key-Sri-Lanka_0"><circle cx="145.00" cy="488.00" r="1.78" fill="#d14e5b" opacity="0.8" stroke="#333" stroke-width="0.7"></circle></g><g class="key-Sudan_0"><circle cx="87.00" cy="495.00" r="1.78" fill="#5675c1" opacity="0.8" stroke="#fff" stroke-width="0.7"></circle></g><g class="key-Sweden_0"><circle cx="422.00" cy="445.00" r="1.78" fill="#ffd336" opacity="0.8" stroke="#fff" stroke-width="0.7"></circle></g><g class="key-Switzerland_0"><circle cx="591.00" cy="447.00" r="1.78" fill="#ffd336" opacity="0.8" stroke="#333" stroke-width="0.7"></circle></g><g class="key-Tajikistan_0"><circle cx="83.00" cy="491.00" r="1.78" fill="#d14e5b" opacity="0.8" stroke="#fff" stroke-width="0.7"></circle></g><g class="key-Tanzania_0"><circle cx="75.00" cy="496.00" r="1.78" fill="#5675c1" opacity="0.8" stroke="#fff" stroke-width="0.7"></circle></g><g class="key-Thailand_0"><circle cx="173.00" cy="443.00" r="1.78" fill="#d14e5b" opacity="0.8" stroke="#fff" stroke-width="0.7"></circle></g><g class="key-Togo_0"><circle cx="68.00" cy="494.00" r="1.78" fill="#5675c1" opacity="0.8" stroke="#fff" stroke-width="0.7"></circle></g><g class="key-Tunisia_0"><circle cx="147.00" cy="468.00" r="1.78" fill="#5675c1" opacity="0.8" stroke="#fff" stroke-width="0.7"></circle></g><g class="key-Turkey_0"><circle cx="231.00" cy="445.00" r="1.78" fill="#d14e5b" opacity="0.8" stroke="#fff" stroke-width="0.7"></circle></g><g class="key-Turkmenistan_0"><circle cx="231.00" cy="349.00" r="1.78" fill="#d14e5b" opacity="0.8" stroke="#fff" stroke-width="0.7"></circle></g><g class="key-Uganda_0"><circle cx="71.00" cy="497.00" r="1.78" fill="#5675c1" opacity="0.8" stroke="#fff" stroke-width="0.7"></circle></g><g class="key-Ukraine_0"><circle cx="145.00" cy="438.00" r="1.78" fill="#ffd336" opacity="0.8" stroke="#fff" stroke-width="0.7"></circle></g><g class="key-United-Arab-Emirates_0"><circle cx="640.00" cy="220.00" r="1.78" fill="#d14e5b" opacity="0.8" stroke="#333" stroke-width="0.7"></circle></g><g class="key-United-Kingdom_0"><circle cx="387.00" cy="421.00" r="1.78" fill="#ffd336" opacity="0.8" stroke="#fff" stroke-width="0.7"></circle></g><g class="key-United-States_0"><circle cx="504.00" cy="301.00" r="1.78" fill="#4d824b" opacity="0.8" stroke="#333" stroke-width="0.7"></circle></g><g class="key-Uruguay_0"><circle cx="225.00" cy="475.00" r="1.78" fill="#69c487" opacity="0.8" stroke="#fff" stroke-width="0.7"></circle></g><g class="key-Uzbekistan_0"><circle cx="129.00" cy="458.00" r="1.78" fill="#d14e5b" opacity="0.8" stroke="#fff" stroke-width="0.7"></circle></g><g class="key-Venezuela_0"><circle cx="208.00" cy="426.00" r="1.78" fill="#69c487" opacity="0.8" stroke="#fff" stroke-width="0.7"></circle></g><g class="key-Vietnam_0"><circle cx="102.00" cy="477.00" r="1.78" fill="#d14e5b" opacity="0.8" stroke="#fff" stroke-width="0.7"></circle></g><g class="key-Yemen_0"><circle cx="86.00" cy="488.00" r="1.78" fill="#d14e5b" opacity="0.8" stroke="#fff" stroke-width="0.7"></circle></g><g class="key-Zambia_0"><circle cx="86.00" cy="495.00" r="1.78" fill="#5675c1" opacity="0.8" stroke="#fff" stroke-width="0.7"></circle></g><g class="key-Zimbabwe_0"><circle cx="71.00" cy="489.00" r="1.78" fill="#5675c1" opacity="0.8" stroke="#fff" stroke-width="0.7"></circle></g><g class="key-Trinidad-and-Tobago_0"><circle cx="325.00" cy="90.00" r="1.78" fill="#4d824b" opacity="0.8" stroke="#333" stroke-width="0.7"></circle></g><g class="backgroundLabels" fill="#333"><text x="73.00" y="492.22" font-size="11.00">Afghanistan</text><text x="148.00" y="472.22" font-size="11.00">Albania</text><text x="166.00" y="451.22" font-size="11.00">Algeria</text><text x="437.00" y="312.22" font-size="11.00">Australia</text><text x="445.00" y="413.22" font-size="11.00">Austria</text><text x="390.00" y="215.22" font-size="11.00">Bahrain</text><text x="229.00" y="415.22" font-size="11.00">Belarus</text><text x="396.00" y="396.22" font-size="11.00">Belgium</text><text x="105.00" y="472.22" font-size="11.00">Bolivia</text><text x="239.00" y="439.22" font-size="11.00">Chile</text><text x="157.00" y="405.22" font-size="11.00">China</text><text x="121.00" y="459.22" font-size="11.00">Cuba</text><text x="275.00" y="433.22" font-size="11.00">Cyprus</text><text x="309.00" y="386.22" font-size="11.00">Czech Republic</text><text x="442.00" y="425.22" font-size="11.00">Denmark</text><text x="399.00" y="439.22" font-size="11.00">Equatorial Guinea</text><text x="276.00" y="318.22" font-size="11.00">Estonia</text><text x="455.00" y="389.22" font-size="11.00">Germany</text><text x="398.00" y="423.22" font-size="11.00">Iceland</text><text x="188.00" y="396.22" font-size="11.00">Iran</text><text x="167.00" y="438.22" font-size="11.00">Iraq</text><text x="505.00" y="408.22" font-size="11.00">Ireland</text><text x="329.00" y="401.22" font-size="11.00">Israel</text><text x="354.00" y="432.22" font-size="11.00">Italy</text><text x="355.00" y="357.22" font-size="11.00">South Korea</text><text x="657.00" y="194.22" font-size="11.00">Kuwait</text><text x="246.00" y="454.22" font-size="11.00">Latvia</text><text x="140.00" y="386.22" font-size="11.00">Libya</text><text x="635.00" y="288.22" font-size="11.00">Luxembourg</text><text x="241.00" y="399.22" font-size="11.00">Malaysia</text><text x="470.00" y="377.22" font-size="11.00">Netherlands</text><text x="677.71" y="385.22" font-size="11.00">Norway</text><text x="383.00" y="311.22" font-size="11.00">Oman</text><text x="228.00" y="469.22" font-size="11.00">Panama</text><text x="262.00" y="354.22" font-size="11.00">Russia</text><text x="462.00" y="262.22" font-size="11.00">Saudi Arabia</text><text x="639.00" y="372.22" font-size="11.00">Singapore</text><text x="294.00" y="421.22" font-size="11.00">Slovenia</text><text x="145.00" y="485.22" font-size="11.00">Sri Lanka</text><text x="591.00" y="444.22" font-size="11.00">Switzerland</text><text x="535.17" y="217.22" font-size="11.00">United Arab Emirates</text><text x="504.00" y="298.22" font-size="11.00">United States</text><text x="325.00" y="101.10" font-size="11.00">Trinidad and Tobago</text></g></g><g class="ScatterColorLegend clickable" style="cursor:pointer"><g class="legendMark"><rect x="735" y="87.6" width="43.256" height="17.6" fill="#fff" opacity="0"></rect>,<rect x="735" y="93.1" width="6" height="6" fill="#5675c1"></rect>,<text font-size="12.60" x="746.0" y="100.2"><tspan x="746" y="100.17999999999999">Africa</tspan></text></g><g class="legendMark"><rect x="735" y="105.19999999999999" width="35.57" height="17.6" fill="#fff" opacity="0"></rect>,<rect x="735" y="110.69999999999999" width="6" height="6" fill="#d14e5b"></rect>,<text font-size="12.60" x="746.0" y="117.8"><tspan x="746" y="117.77999999999999">Asia</tspan></text></g><g class="legendMark"><rect x="735" y="122.8" width="51.824" height="17.6" fill="#fff" opacity="0"></rect>,<rect x="735" y="128.3" width="6" height="6" fill="#ffd336"></rect>,<text font-size="12.60" x="746.0" y="135.4"><tspan x="746" y="135.38">Europe</tspan></text></g><g class="legendMark"><rect x="735" y="140.4" width="91.64" height="17.6" fill="#fff" opacity="0"></rect>,<rect x="735" y="145.9" width="6" height="6" fill="#4d824b"></rect>,<text font-size="12.60" x="746.0" y="153.0"><tspan x="746" y="152.98">North America</tspan></text></g><g class="legendMark"><rect x="735" y="158" width="58.124" height="17.6" fill="#fff" opacity="0"></rect>,<rect x="735" y="163.5" width="6" height="6" fill="#a652ba"></rect>,<text font-size="12.60" x="746.0" y="170.6"><tspan x="746" y="170.57999999999998">Oceania</tspan></text></g><g class="legendMark"><rect x="735" y="175.6" width="93.908" height="17.6" fill="#fff" opacity="0"></rect>,<rect x="735" y="181.1" width="6" height="6" fill="#69c487"></rect>,<text font-size="12.60" x="746.0" y="188.2"><tspan x="746" y="188.17999999999998">South America</tspan></text></g></g></g><g class="SourcesFooter" style="fill:#777"><g class="clickable" style="fill:#777"><text font-size="12.60" x="15.0" y="567.9"><tspan x="15" y="567.88">Source: The World Bank (2018); Maddison Project Database (2018)</tspan></text></g><text font-size="12.60" x="15.0" y="582.5"><tspan x="15" y="582.48">Note: CO2 emissions are displayed on the &#x27;MAP&#x27; tab</tspan></text><text font-size="12.60" x="546.0" y="567.9"><tspan x="545.956" y="567.88"><a target='_blank' style='fill: #777;' href='https://tinyco.re/2010255'>tinyco.re/2010255</a> • <a href="https://ourworldindata.org" target="_blank">Powered by ourworldindata.org</a></tspan></text></g></svg>