<svg xmlns="http://www.w3.org/2000/svg" version="1.1" style="font-family:&#x27;Helvetica Neue&#x27;, Helvetica, Arial, sans-serif;font-size:18px;background-color:white;text-rendering:optimizeLegibility;-webkit-font-smoothing:antialiased" width="850" height="600"><g class="HeaderView"><a href="https://mispytest-owid.netlify.com/grapher/catching-up-and-stagnating-manufacturing-wages-relative-to-the-us" target="_blank"><text font-size="21.60" x="15.0" y="32.3" fill="#555"><tspan x="15" y="32.279999999999994">Catching up and stagnating: Manufacturing wages relative to the US (1950–2015)</tspan></text></a><text font-size="14.40" x="15.0" y="50.1" fill="#666"><tspan x="15" y="50.11999999999999">Unit 18 &#x27;The nation and the world economy’ Section 18.10 &#x27;Trade and growth&#x27; in The CORE Team, The Economy. Available at</tspan><tspan x="15" y="65.96">https://tinyco.re/1810233 [Figure 18.23]</tspan></text></g><g class="LineChart"><defs><clipPath id="boundsClip-274"><rect x="37.216" y="0" width="830" height="940"></rect></clipPath></defs><g class="AxisBoxView"><g class="HorizontalAxis"><text x="47.2" y="556.5" fill="#666" text-anchor="middle" font-size="16.2">1950</text><text x="145.6" y="556.5" fill="#666" text-anchor="middle" font-size="16.2">1960</text><text x="244" y="556.5" fill="#666" text-anchor="middle" font-size="16.2">1970</text><text x="342.4" y="556.5" fill="#666" text-anchor="middle" font-size="16.2">1980</text><text x="440.8" y="556.5" fill="#666" text-anchor="middle" font-size="16.2">1990</text><text x="539.2" y="556.5" fill="#666" text-anchor="middle" font-size="16.2">2000</text><text x="637.5" y="556.5" fill="#666" text-anchor="middle" font-size="16.2">2010</text><text x="686.7" y="556.5" fill="#666" text-anchor="middle" font-size="16.2">2015</text></g><g class="VerticalAxis"><text x="42.22" y="347.8" fill="#666" dominant-baseline="middle" text-anchor="end" font-size="16.2">10</text><text x="42.22" y="126.6" fill="#666" dominant-baseline="middle" text-anchor="end" font-size="16.2">100</text><text x="15" y="78.5" style="font-size:12px;text-transform:uppercase;cursor:pointer" class="clickable">log</text></g><g class="AxisGridLines"><line x1="47.22" y1="347.8" x2="686.74" y2="347.8" stroke="#ddd" stroke-dasharray="3,2"></line><line x1="47.22" y1="126.6" x2="686.74" y2="126.6" stroke="#ddd" stroke-dasharray="3,2"></line></g></g><g clip-path="url(#boundsClip-274)"><g class="HeightedLegend clickable"><g class="legendMark"><g class="indicator"><line x1="691.735" y1="114.9" x2="704.235" y2="114.9" stroke="#666" stroke-width="0.5"></line><line x1="704.235" y1="114.9" x2="704.235" y2="114.9" stroke="#666" stroke-width="0.5"></line><line x1="704.235" y1="114.9" x2="716.735" y2="114.9" stroke="#666" stroke-width="0.5"></line></g><rect x="686.735" y="108.15" width="135.98000000000002" height="13.5" fill="#fff" opacity="0"></rect><text font-size="13.50" x="721.7" y="119.0" fill="#e6332e"><tspan x="721.735" y="118.95">112.87 Germany</tspan></text></g><g class="legendMark"><g class="indicator"><line x1="691.735" y1="162.3" x2="714.235" y2="162.3" stroke="#666" stroke-width="0.5"></line><line x1="714.235" y1="162.3" x2="714.235" y2="162.3" stroke="#666" stroke-width="0.5"></line><line x1="714.235" y1="162.3" x2="716.735" y2="162.3" stroke="#666" stroke-width="0.5"></line></g><rect x="686.735" y="155.55" width="109.79" height="13.5" fill="#fff" opacity="0"></rect><text font-size="13.50" x="721.7" y="166.4" fill="#2a939b"><tspan x="721.735" y="166.35000000000002">68.92 Japan</tspan></text></g><g class="legendMark"><g class="indicator"><line x1="691.735" y1="169.8" x2="704.235" y2="169.8" stroke="#666" stroke-width="0.5"></line><line x1="704.235" y1="169.8" x2="704.235" y2="177.8" stroke="#666" stroke-width="0.5"></line><line x1="704.235" y1="177.8" x2="716.735" y2="177.8" stroke="#666" stroke-width="0.5"></line></g><rect x="686.735" y="171.05" width="148.265" height="13.5" fill="#fff" opacity="0"></rect><text font-size="13.50" x="721.7" y="181.9" fill="#a652ba"><tspan x="721.735" y="181.85000000000002">63.76 South Korea</tspan></text></g><g class="legendMark"><g class="indicator"><line x1="691.735" y1="305.9" x2="704.235" y2="305.9" stroke="#666" stroke-width="0.5"></line><line x1="704.235" y1="305.9" x2="704.235" y2="305.9" stroke="#666" stroke-width="0.5"></line><line x1="704.235" y1="305.9" x2="716.735" y2="305.9" stroke="#666" stroke-width="0.5"></line></g><rect x="686.735" y="299.15" width="115.595" height="13.5" fill="#fff" opacity="0"></rect><text font-size="13.50" x="721.7" y="309.9" fill="#f6a324"><tspan x="721.735" y="309.95">15.47 Mexico</tspan></text></g><g class="legendMark"><g class="indicator"><line x1="691.735" y1="352.7" x2="704.235" y2="352.7" stroke="#666" stroke-width="0.5"></line><line x1="704.235" y1="352.7" x2="704.235" y2="352.7" stroke="#666" stroke-width="0.5"></line><line x1="704.235" y1="352.7" x2="716.735" y2="352.7" stroke="#666" stroke-width="0.5"></line></g><rect x="686.735" y="345.95" width="93.05000000000001" height="13.5" fill="#fff" opacity="0"></rect><text font-size="13.50" x="721.7" y="356.8" fill="#34983f"><tspan x="721.735" y="356.75">9.5 China</tspan></text></g><g class="legendMark"><g class="indicator"><line x1="691.735" y1="410.1" x2="704.235" y2="410.1" stroke="#666" stroke-width="0.5"></line><line x1="704.235" y1="410.1" x2="704.235" y2="410.1" stroke="#666" stroke-width="0.5"></line><line x1="704.235" y1="410.1" x2="716.735" y2="410.1" stroke="#666" stroke-width="0.5"></line></g><rect x="686.735" y="403.35" width="130.715" height="13.5" fill="#fff" opacity="0"></rect><text font-size="13.50" x="721.7" y="414.2" fill="#ca2628"><tspan x="721.735" y="414.15000000000003">5.23 Philippines</tspan></text></g><g class="legendMark"><g class="indicator"><line x1="691.735" y1="484.9" x2="704.235" y2="484.9" stroke="#666" stroke-width="0.5"></line><line x1="704.235" y1="484.9" x2="704.235" y2="484.9" stroke="#666" stroke-width="0.5"></line><line x1="704.235" y1="484.9" x2="716.735" y2="484.9" stroke="#666" stroke-width="0.5"></line></g><rect x="686.735" y="478.15" width="114.92" height="13.5" fill="#fff" opacity="0"></rect><text font-size="13.50" x="721.7" y="488.9" fill="#3360a9"><tspan x="721.735" y="488.95">2.4 Sri Lanka</tspan></text></g></g><g class="Lines"><rect x="47" y="87" width="640" height="449" fill="rgba(255,255,255,0)" opacity="0"></rect><g class="key-China_0"><path stroke="#34983f" stroke-linecap="round" d="M342 483L352 492L362 501L372 511L382 522L392 535L401 531L411 527L421 523L431 520L441 516L451 513L460 509L470 506L480 503L490 501L500 496L510 492L520 488L529 484L539 480L549 477L559 474L569 472L579 454L588 440L598 427L608 414L618 404L628 394L638 371L647 353" fill="none" stroke-width="1.5"></path><g fill="#34983f"><circle cx="342" cy="483" r="2"></circle><circle cx="352" cy="492" r="2"></circle><circle cx="362" cy="501" r="2"></circle><circle cx="372" cy="511" r="2"></circle><circle cx="382" cy="522" r="2"></circle><circle cx="392" cy="535" r="2"></circle><circle cx="401" cy="531" r="2"></circle><circle cx="411" cy="527" r="2"></circle><circle cx="421" cy="523" r="2"></circle><circle cx="431" cy="520" r="2"></circle><circle cx="441" cy="516" r="2"></circle><circle cx="451" cy="513" r="2"></circle><circle cx="460" cy="509" r="2"></circle><circle cx="470" cy="506" r="2"></circle><circle cx="480" cy="503" r="2"></circle><circle cx="490" cy="501" r="2"></circle><circle cx="500" cy="496" r="2"></circle><circle cx="510" cy="492" r="2"></circle><circle cx="520" cy="488" r="2"></circle><circle cx="529" cy="484" r="2"></circle><circle cx="539" cy="480" r="2"></circle><circle cx="549" cy="477" r="2"></circle><circle cx="559" cy="474" r="2"></circle><circle cx="569" cy="472" r="2"></circle><circle cx="579" cy="454" r="2"></circle><circle cx="588" cy="440" r="2"></circle><circle cx="598" cy="427" r="2"></circle><circle cx="608" cy="414" r="2"></circle><circle cx="618" cy="404" r="2"></circle><circle cx="628" cy="394" r="2"></circle><circle cx="638" cy="371" r="2"></circle><circle cx="647" cy="353" r="2"></circle></g></g><g class="key-Germany_0"><path stroke="#e6332e" stroke-linecap="round" d="M47 266L57 264L67 263L77 261L87 260L96 258L106 254L116 249L126 245L136 241L146 237L155 229L165 221L175 214L185 208L195 201L205 196L215 191L224 186L234 182L244 178L254 170L264 163L274 156L283 150L293 144L303 146L313 141L323 130L333 123L342 123L352 148L362 156L372 160L382 172L392 173L401 143L411 123L421 118L431 124L441 108L451 109L460 101L470 103L480 100L490 87L500 91L510 106L520 109L529 115L539 127L549 132L559 129L569 113L579 106L588 108L598 106L608 101L618 94L628 99L638 104L647 99L657 103L667 99L677 99L687 115" fill="none" stroke-width="1.5"></path><g fill="#e6332e"><circle cx="47" cy="266" r="2"></circle><circle cx="57" cy="264" r="2"></circle><circle cx="67" cy="263" r="2"></circle><circle cx="77" cy="261" r="2"></circle><circle cx="87" cy="260" r="2"></circle><circle cx="96" cy="258" r="2"></circle><circle cx="106" cy="254" r="2"></circle><circle cx="116" cy="249" r="2"></circle><circle cx="126" cy="245" r="2"></circle><circle cx="136" cy="241" r="2"></circle><circle cx="146" cy="237" r="2"></circle><circle cx="155" cy="229" r="2"></circle><circle cx="165" cy="221" r="2"></circle><circle cx="175" cy="214" r="2"></circle><circle cx="185" cy="208" r="2"></circle><circle cx="195" cy="201" r="2"></circle><circle cx="205" cy="196" r="2"></circle><circle cx="215" cy="191" r="2"></circle><circle cx="224" cy="186" r="2"></circle><circle cx="234" cy="182" r="2"></circle><circle cx="244" cy="178" r="2"></circle><circle cx="254" cy="170" r="2"></circle><circle cx="264" cy="163" r="2"></circle><circle cx="274" cy="156" r="2"></circle><circle cx="283" cy="150" r="2"></circle><circle cx="293" cy="144" r="2"></circle><circle cx="303" cy="146" r="2"></circle><circle cx="313" cy="141" r="2"></circle><circle cx="323" cy="130" r="2"></circle><circle cx="333" cy="123" r="2"></circle><circle cx="342" cy="123" r="2"></circle><circle cx="352" cy="148" r="2"></circle><circle cx="362" cy="156" r="2"></circle><circle cx="372" cy="160" r="2"></circle><circle cx="382" cy="172" r="2"></circle><circle cx="392" cy="173" r="2"></circle><circle cx="401" cy="143" r="2"></circle><circle cx="411" cy="123" r="2"></circle><circle cx="421" cy="118" r="2"></circle><circle cx="431" cy="124" r="2"></circle><circle cx="441" cy="108" r="2"></circle><circle cx="451" cy="109" r="2"></circle><circle cx="460" cy="101" r="2"></circle><circle cx="470" cy="103" r="2"></circle><circle cx="480" cy="100" r="2"></circle><circle cx="490" cy="87" r="2"></circle><circle cx="500" cy="91" r="2"></circle><circle cx="510" cy="106" r="2"></circle><circle cx="520" cy="109" r="2"></circle><circle cx="529" cy="115" r="2"></circle><circle cx="539" cy="127" r="2"></circle><circle cx="549" cy="132" r="2"></circle><circle cx="559" cy="129" r="2"></circle><circle cx="569" cy="113" r="2"></circle><circle cx="579" cy="106" r="2"></circle><circle cx="588" cy="108" r="2"></circle><circle cx="598" cy="106" r="2"></circle><circle cx="608" cy="101" r="2"></circle><circle cx="618" cy="94" r="2"></circle><circle cx="628" cy="99" r="2"></circle><circle cx="638" cy="104" r="2"></circle><circle cx="647" cy="99" r="2"></circle><circle cx="657" cy="103" r="2"></circle><circle cx="667" cy="99" r="2"></circle><circle cx="677" cy="99" r="2"></circle><circle cx="687" cy="115" r="2"></circle></g></g><g class="key-Japan_0"><path stroke="#2a939b" stroke-linecap="round" d="M96 356L106 355L116 354L126 352L136 351L146 350L155 339L165 329L175 320L185 312L195 305L205 295L215 287L224 279L234 271L244 264L254 247L264 232L274 219L283 207L293 197L303 198L313 188L323 166L333 176L342 182L352 182L362 197L372 193L382 194L392 195L401 162L411 149L421 136L431 140L441 143L451 134L460 126L470 114L480 106L490 98L500 114L510 124L520 132L529 120L539 118L549 133L559 141L569 137L579 132L588 136L598 144L608 150L618 136L628 130L638 126L647 117L657 119L667 140L677 148L687 162" fill="none" stroke-width="1.5"></path><g fill="#2a939b"><circle cx="96" cy="356" r="2"></circle><circle cx="106" cy="355" r="2"></circle><circle cx="116" cy="354" r="2"></circle><circle cx="126" cy="352" r="2"></circle><circle cx="136" cy="351" r="2"></circle><circle cx="146" cy="350" r="2"></circle><circle cx="155" cy="339" r="2"></circle><circle cx="165" cy="329" r="2"></circle><circle cx="175" cy="320" r="2"></circle><circle cx="185" cy="312" r="2"></circle><circle cx="195" cy="305" r="2"></circle><circle cx="205" cy="295" r="2"></circle><circle cx="215" cy="287" r="2"></circle><circle cx="224" cy="279" r="2"></circle><circle cx="234" cy="271" r="2"></circle><circle cx="244" cy="264" r="2"></circle><circle cx="254" cy="247" r="2"></circle><circle cx="264" cy="232" r="2"></circle><circle cx="274" cy="219" r="2"></circle><circle cx="283" cy="207" r="2"></circle><circle cx="293" cy="197" r="2"></circle><circle cx="303" cy="198" r="2"></circle><circle cx="313" cy="188" r="2"></circle><circle cx="323" cy="166" r="2"></circle><circle cx="333" cy="176" r="2"></circle><circle cx="342" cy="182" r="2"></circle><circle cx="352" cy="182" r="2"></circle><circle cx="362" cy="197" r="2"></circle><circle cx="372" cy="193" r="2"></circle><circle cx="382" cy="194" r="2"></circle><circle cx="392" cy="195" r="2"></circle><circle cx="401" cy="162" r="2"></circle><circle cx="411" cy="149" r="2"></circle><circle cx="421" cy="136" r="2"></circle><circle cx="431" cy="140" r="2"></circle><circle cx="441" cy="143" r="2"></circle><circle cx="451" cy="134" r="2"></circle><circle cx="460" cy="126" r="2"></circle><circle cx="470" cy="114" r="2"></circle><circle cx="480" cy="106" r="2"></circle><circle cx="490" cy="98" r="2"></circle><circle cx="500" cy="114" r="2"></circle><circle cx="510" cy="124" r="2"></circle><circle cx="520" cy="132" r="2"></circle><circle cx="529" cy="120" r="2"></circle><circle cx="539" cy="118" r="2"></circle><circle cx="549" cy="133" r="2"></circle><circle cx="559" cy="141" r="2"></circle><circle cx="569" cy="137" r="2"></circle><circle cx="579" cy="132" r="2"></circle><circle cx="588" cy="136" r="2"></circle><circle cx="598" cy="144" r="2"></circle><circle cx="608" cy="150" r="2"></circle><circle cx="618" cy="136" r="2"></circle><circle cx="628" cy="130" r="2"></circle><circle cx="638" cy="126" r="2"></circle><circle cx="647" cy="117" r="2"></circle><circle cx="657" cy="119" r="2"></circle><circle cx="667" cy="140" r="2"></circle><circle cx="677" cy="148" r="2"></circle><circle cx="687" cy="162" r="2"></circle></g></g><g class="key-Mexico_0"><path stroke="#f6a324" stroke-linecap="round" d="M333 254L342 255L352 253L362 254L372 262L382 271L392 282L401 307L411 322L421 327L431 332L441 336L451 329L460 319L470 310L480 303L490 305L500 310L510 316L520 325L529 332L539 325L549 316L559 309L569 305L579 304L588 304L598 304L608 304L618 303L628 303L638 303L647 304L657 305L667 305L677 304L687 306" fill="none" stroke-width="1.5"></path><g fill="#f6a324"><circle cx="333" cy="254" r="2"></circle><circle cx="342" cy="255" r="2"></circle><circle cx="352" cy="253" r="2"></circle><circle cx="362" cy="254" r="2"></circle><circle cx="372" cy="262" r="2"></circle><circle cx="382" cy="271" r="2"></circle><circle cx="392" cy="282" r="2"></circle><circle cx="401" cy="307" r="2"></circle><circle cx="411" cy="322" r="2"></circle><circle cx="421" cy="327" r="2"></circle><circle cx="431" cy="332" r="2"></circle><circle cx="441" cy="336" r="2"></circle><circle cx="451" cy="329" r="2"></circle><circle cx="460" cy="319" r="2"></circle><circle cx="470" cy="310" r="2"></circle><circle cx="480" cy="303" r="2"></circle><circle cx="490" cy="305" r="2"></circle><circle cx="500" cy="310" r="2"></circle><circle cx="510" cy="316" r="2"></circle><circle cx="520" cy="325" r="2"></circle><circle cx="529" cy="332" r="2"></circle><circle cx="539" cy="325" r="2"></circle><circle cx="549" cy="316" r="2"></circle><circle cx="559" cy="309" r="2"></circle><circle cx="569" cy="305" r="2"></circle><circle cx="579" cy="304" r="2"></circle><circle cx="588" cy="304" r="2"></circle><circle cx="598" cy="304" r="2"></circle><circle cx="608" cy="304" r="2"></circle><circle cx="618" cy="303" r="2"></circle><circle cx="628" cy="303" r="2"></circle><circle cx="638" cy="303" r="2"></circle><circle cx="647" cy="304" r="2"></circle><circle cx="657" cy="305" r="2"></circle><circle cx="667" cy="305" r="2"></circle><circle cx="677" cy="304" r="2"></circle><circle cx="687" cy="306" r="2"></circle></g></g><g class="key-Philippines_0"><path stroke="#ca2628" stroke-linecap="round" d="M490 421L500 416L510 415L520 418L529 422L539 429L549 440L559 449L569 452L579 456L588 456L598 451L608 445L618 437L628 431L638 425L647 420L657 416L667 414L677 411L687 410" fill="none" stroke-width="1.5"></path><g fill="#ca2628"><circle cx="490" cy="421" r="2"></circle><circle cx="500" cy="416" r="2"></circle><circle cx="510" cy="415" r="2"></circle><circle cx="520" cy="418" r="2"></circle><circle cx="529" cy="422" r="2"></circle><circle cx="539" cy="429" r="2"></circle><circle cx="549" cy="440" r="2"></circle><circle cx="559" cy="449" r="2"></circle><circle cx="569" cy="452" r="2"></circle><circle cx="579" cy="456" r="2"></circle><circle cx="588" cy="456" r="2"></circle><circle cx="598" cy="451" r="2"></circle><circle cx="608" cy="445" r="2"></circle><circle cx="618" cy="437" r="2"></circle><circle cx="628" cy="431" r="2"></circle><circle cx="638" cy="425" r="2"></circle><circle cx="647" cy="420" r="2"></circle><circle cx="657" cy="416" r="2"></circle><circle cx="667" cy="414" r="2"></circle><circle cx="677" cy="411" r="2"></circle><circle cx="687" cy="410" r="2"></circle></g></g><g class="key-South-Korea_0"><path stroke="#a652ba" stroke-linecap="round" d="M333 368L342 357L352 350L362 346L372 346L382 349L392 349L401 348L411 344L421 332L431 313L441 294L451 275L460 257L470 244L480 234L490 224L500 215L510 210L520 212L529 211L539 211L549 215L559 217L569 210L579 207L588 201L598 191L608 182L618 179L628 179L638 179L647 181L657 183L667 180L677 173L687 170" fill="none" stroke-width="1.5"></path><g fill="#a652ba"><circle cx="333" cy="368" r="2"></circle><circle cx="342" cy="357" r="2"></circle><circle cx="352" cy="350" r="2"></circle><circle cx="362" cy="346" r="2"></circle><circle cx="372" cy="346" r="2"></circle><circle cx="382" cy="349" r="2"></circle><circle cx="392" cy="349" r="2"></circle><circle cx="401" cy="348" r="2"></circle><circle cx="411" cy="344" r="2"></circle><circle cx="421" cy="332" r="2"></circle><circle cx="431" cy="313" r="2"></circle><circle cx="441" cy="294" r="2"></circle><circle cx="451" cy="275" r="2"></circle><circle cx="460" cy="257" r="2"></circle><circle cx="470" cy="244" r="2"></circle><circle cx="480" cy="234" r="2"></circle><circle cx="490" cy="224" r="2"></circle><circle cx="500" cy="215" r="2"></circle><circle cx="510" cy="210" r="2"></circle><circle cx="520" cy="212" r="2"></circle><circle cx="529" cy="211" r="2"></circle><circle cx="539" cy="211" r="2"></circle><circle cx="549" cy="215" r="2"></circle><circle cx="559" cy="217" r="2"></circle><circle cx="569" cy="210" r="2"></circle><circle cx="579" cy="207" r="2"></circle><circle cx="588" cy="201" r="2"></circle><circle cx="598" cy="191" r="2"></circle><circle cx="608" cy="182" r="2"></circle><circle cx="618" cy="179" r="2"></circle><circle cx="628" cy="179" r="2"></circle><circle cx="638" cy="179" r="2"></circle><circle cx="647" cy="181" r="2"></circle><circle cx="657" cy="183" r="2"></circle><circle cx="667" cy="180" r="2"></circle><circle cx="677" cy="173" r="2"></circle><circle cx="687" cy="170" r="2"></circle></g></g><g class="key-Sri-Lanka_0"><path stroke="#3360a9" stroke-linecap="round" d="M333 445L342 458L352 468L362 484L372 494L382 499L392 499L401 496L411 495L421 493L431 492L441 491L451 488L460 486L470 484L480 480L490 477L500 476L510 476L520 476L529 478L539 481L549 485L559 486L569 488L579 489L588 490L598 489L608 488L618 485" fill="none" stroke-width="1.5"></path><g fill="#3360a9"><circle cx="333" cy="445" r="2"></circle><circle cx="342" cy="458" r="2"></circle><circle cx="352" cy="468" r="2"></circle><circle cx="362" cy="484" r="2"></circle><circle cx="372" cy="494" r="2"></circle><circle cx="382" cy="499" r="2"></circle><circle cx="392" cy="499" r="2"></circle><circle cx="401" cy="496" r="2"></circle><circle cx="411" cy="495" r="2"></circle><circle cx="421" cy="493" r="2"></circle><circle cx="431" cy="492" r="2"></circle><circle cx="441" cy="491" r="2"></circle><circle cx="451" cy="488" r="2"></circle><circle cx="460" cy="486" r="2"></circle><circle cx="470" cy="484" r="2"></circle><circle cx="480" cy="480" r="2"></circle><circle cx="490" cy="477" r="2"></circle><circle cx="500" cy="476" r="2"></circle><circle cx="510" cy="476" r="2"></circle><circle cx="520" cy="476" r="2"></circle><circle cx="529" cy="478" r="2"></circle><circle cx="539" cy="481" r="2"></circle><circle cx="549" cy="485" r="2"></circle><circle cx="559" cy="486" r="2"></circle><circle cx="569" cy="488" r="2"></circle><circle cx="579" cy="489" r="2"></circle><circle cx="588" cy="490" r="2"></circle><circle cx="598" cy="489" r="2"></circle><circle cx="608" cy="488" r="2"></circle><circle cx="618" cy="485" r="2"></circle></g></g></g></g></g><g class="SourcesFooter" style="fill:#777"><g class="clickable" style="fill:#777"><text font-size="12.60" x="15.0" y="581.6"><tspan x="15" y="581.58">Source: Glyn (2006), N.B.S. of China, Bank of England and US B.L.S</tspan></text></g><text font-size="12.60" x="660.0" y="581.6"><tspan x="659.986" y="581.58"><a href="https://ourworldindata.org" target="_blank">Powered by ourworldindata.org</a></tspan></text></g></svg>