<svg xmlns="http://www.w3.org/2000/svg" version="1.1" style="font-family:&#x27;Helvetica Neue&#x27;, Helvetica, Arial, sans-serif;font-size:18px;background-color:white;text-rendering:optimizeLegibility;-webkit-font-smoothing:antialiased" width="850" height="600"><g class="HeaderView"><a href="https://mispytest-owid.netlify.com/grapher/catching-up-and-stagnating-manufacturing-wages-relative-to-the-us-19502016" target="_blank"><text font-size="21.60" x="15.0" y="32.3" fill="#555"><tspan x="15" y="32.279999999999994">Catching up and stagnating: Manufacturing wages relative to the US (1950–2016)</tspan></text></a><text font-size="14.40" x="15.0" y="50.1" fill="#666"><tspan x="15" y="50.11999999999999">Unit 18 &#x27;The nation and the world economy’ Section 18.10 &#x27;Trade and growth&#x27; in The CORE Team, The Economy. Available at</tspan><tspan x="15" y="65.96">https://tinyco.re/1810233 [Figure 18.23]</tspan></text></g><g class="LineChart"><defs><clipPath id="boundsClip-276"><rect x="37.216" y="0" width="830" height="940"></rect></clipPath></defs><g class="AxisBoxView"><g class="HorizontalAxis"><text x="47.2" y="556.5" fill="#666" text-anchor="middle" font-size="16.2">1950</text><text x="145.3" y="556.5" fill="#666" text-anchor="middle" font-size="16.2">1960</text><text x="243.3" y="556.5" fill="#666" text-anchor="middle" font-size="16.2">1970</text><text x="341.3" y="556.5" fill="#666" text-anchor="middle" font-size="16.2">1980</text><text x="439.4" y="556.5" fill="#666" text-anchor="middle" font-size="16.2">1990</text><text x="537.4" y="556.5" fill="#666" text-anchor="middle" font-size="16.2">2000</text><text x="635.5" y="556.5" fill="#666" text-anchor="middle" font-size="16.2">2010</text><text x="694.3" y="556.5" fill="#666" text-anchor="middle" font-size="16.2">2016</text></g><g class="VerticalAxis"><text x="42.22" y="347.8" fill="#666" dominant-baseline="middle" text-anchor="end" font-size="16.2">10</text><text x="42.22" y="126.6" fill="#666" dominant-baseline="middle" text-anchor="end" font-size="16.2">100</text><text x="15" y="78.5" style="font-size:12px;text-transform:uppercase;cursor:pointer" class="clickable">log</text></g><g class="AxisGridLines"><line x1="47.22" y1="347.8" x2="694.29" y2="347.8" stroke="#ddd" stroke-dasharray="3,2"></line><line x1="47.22" y1="126.6" x2="694.29" y2="126.6" stroke="#ddd" stroke-dasharray="3,2"></line></g></g><g clip-path="url(#boundsClip-276)"><g class="HeightedLegend clickable"><g class="legendMark"><rect x="694.295" y="109.85" width="117.08000000000001" height="13.5" fill="#fff" opacity="0"></rect><text font-size="13.50" x="699.3" y="120.6" fill="#f6a324"><tspan x="699.295" y="120.64999999999999">111 Germany</tspan></text></g><g class="legendMark"><rect x="694.295" y="147.95" width="109.79" height="13.5" fill="#fff" opacity="0"></rect><text font-size="13.50" x="699.3" y="158.8" fill="#ca2628"><tspan x="699.295" y="158.75">74.66 Japan</tspan></text></g><g class="legendMark"><rect x="694.295" y="161.55" width="140.705" height="13.5" fill="#fff" opacity="0"></rect><text font-size="13.50" x="699.3" y="172.4" fill="#3360a9"><tspan x="699.295" y="172.35000000000002">64.8 South Korea</tspan></text></g><g class="legendMark"><rect x="694.295" y="308.55" width="115.595" height="13.5" fill="#fff" opacity="0"></rect><text font-size="13.50" x="699.3" y="319.4" fill="#34983f"><tspan x="699.295" y="319.35">14.03 Mexico</tspan></text></g><g class="legendMark"><rect x="694.295" y="345.95" width="93.05000000000001" height="13.5" fill="#fff" opacity="0"></rect><text font-size="13.50" x="699.3" y="356.8" fill="#a652ba"><tspan x="699.295" y="356.75">9.5 China</tspan></text></g><g class="legendMark"><rect x="694.295" y="404.45" width="130.715" height="13.5" fill="#fff" opacity="0"></rect><text font-size="13.50" x="699.3" y="415.3" fill="#7ec7ce"><tspan x="699.295" y="415.25">5.17 Philippines</tspan></text></g><g class="legendMark"><rect x="694.295" y="478.15" width="114.92" height="13.5" fill="#fff" opacity="0"></rect><text font-size="13.50" x="699.3" y="488.9" fill="#000"><tspan x="699.295" y="488.95">2.4 Sri Lanka</tspan></text></g></g><g class="Lines"><rect x="47" y="87" width="647" height="449" fill="rgba(255,255,255,0)" opacity="0"></rect><g class="key-China_0"><path stroke="#a652ba" stroke-linecap="round" d="M341 483L351 492L361 501L371 511L381 522L390 535L400 531L410 527L420 523L430 520L439 516L449 513L459 509L469 506L479 503L488 501L498 496L508 492L518 488L528 484L537 480L547 477L557 474L567 472L577 454L586 440L596 427L606 414L616 404L626 394L636 371L645 353" fill="none" stroke-width="1.5"></path><g fill="#a652ba"><circle cx="341" cy="483" r="2"></circle><circle cx="351" cy="492" r="2"></circle><circle cx="361" cy="501" r="2"></circle><circle cx="371" cy="511" r="2"></circle><circle cx="381" cy="522" r="2"></circle><circle cx="390" cy="535" r="2"></circle><circle cx="400" cy="531" r="2"></circle><circle cx="410" cy="527" r="2"></circle><circle cx="420" cy="523" r="2"></circle><circle cx="430" cy="520" r="2"></circle><circle cx="439" cy="516" r="2"></circle><circle cx="449" cy="513" r="2"></circle><circle cx="459" cy="509" r="2"></circle><circle cx="469" cy="506" r="2"></circle><circle cx="479" cy="503" r="2"></circle><circle cx="488" cy="501" r="2"></circle><circle cx="498" cy="496" r="2"></circle><circle cx="508" cy="492" r="2"></circle><circle cx="518" cy="488" r="2"></circle><circle cx="528" cy="484" r="2"></circle><circle cx="537" cy="480" r="2"></circle><circle cx="547" cy="477" r="2"></circle><circle cx="557" cy="474" r="2"></circle><circle cx="567" cy="472" r="2"></circle><circle cx="577" cy="454" r="2"></circle><circle cx="586" cy="440" r="2"></circle><circle cx="596" cy="427" r="2"></circle><circle cx="606" cy="414" r="2"></circle><circle cx="616" cy="404" r="2"></circle><circle cx="626" cy="394" r="2"></circle><circle cx="636" cy="371" r="2"></circle><circle cx="645" cy="353" r="2"></circle></g></g><g class="key-Germany_0"><path stroke="#f6a324" stroke-linecap="round" d="M47 266L57 264L67 263L77 261L86 260L96 258L106 254L116 249L126 245L136 241L145 237L155 229L165 221L175 214L185 208L194 201L204 196L214 191L224 186L234 182L243 178L253 170L263 163L273 156L283 150L292 144L302 146L312 141L322 130L332 123L341 123L351 148L361 156L371 160L381 172L390 173L400 143L410 123L420 118L430 124L439 108L449 109L459 101L469 103L479 100L488 87L498 91L508 106L518 109L528 115L537 127L547 132L557 129L567 113L577 106L586 108L596 106L606 101L616 94L626 99L636 104L645 99L655 103L665 99L675 99L685 115L694 117" fill="none" stroke-width="1.5"></path><g fill="#f6a324"><circle cx="47" cy="266" r="2"></circle><circle cx="57" cy="264" r="2"></circle><circle cx="67" cy="263" r="2"></circle><circle cx="77" cy="261" r="2"></circle><circle cx="86" cy="260" r="2"></circle><circle cx="96" cy="258" r="2"></circle><circle cx="106" cy="254" r="2"></circle><circle cx="116" cy="249" r="2"></circle><circle cx="126" cy="245" r="2"></circle><circle cx="136" cy="241" r="2"></circle><circle cx="145" cy="237" r="2"></circle><circle cx="155" cy="229" r="2"></circle><circle cx="165" cy="221" r="2"></circle><circle cx="175" cy="214" r="2"></circle><circle cx="185" cy="208" r="2"></circle><circle cx="194" cy="201" r="2"></circle><circle cx="204" cy="196" r="2"></circle><circle cx="214" cy="191" r="2"></circle><circle cx="224" cy="186" r="2"></circle><circle cx="234" cy="182" r="2"></circle><circle cx="243" cy="178" r="2"></circle><circle cx="253" cy="170" r="2"></circle><circle cx="263" cy="163" r="2"></circle><circle cx="273" cy="156" r="2"></circle><circle cx="283" cy="150" r="2"></circle><circle cx="292" cy="144" r="2"></circle><circle cx="302" cy="146" r="2"></circle><circle cx="312" cy="141" r="2"></circle><circle cx="322" cy="130" r="2"></circle><circle cx="332" cy="123" r="2"></circle><circle cx="341" cy="123" r="2"></circle><circle cx="351" cy="148" r="2"></circle><circle cx="361" cy="156" r="2"></circle><circle cx="371" cy="160" r="2"></circle><circle cx="381" cy="172" r="2"></circle><circle cx="390" cy="173" r="2"></circle><circle cx="400" cy="143" r="2"></circle><circle cx="410" cy="123" r="2"></circle><circle cx="420" cy="118" r="2"></circle><circle cx="430" cy="124" r="2"></circle><circle cx="439" cy="108" r="2"></circle><circle cx="449" cy="109" r="2"></circle><circle cx="459" cy="101" r="2"></circle><circle cx="469" cy="103" r="2"></circle><circle cx="479" cy="100" r="2"></circle><circle cx="488" cy="87" r="2"></circle><circle cx="498" cy="91" r="2"></circle><circle cx="508" cy="106" r="2"></circle><circle cx="518" cy="109" r="2"></circle><circle cx="528" cy="115" r="2"></circle><circle cx="537" cy="127" r="2"></circle><circle cx="547" cy="132" r="2"></circle><circle cx="557" cy="129" r="2"></circle><circle cx="567" cy="113" r="2"></circle><circle cx="577" cy="106" r="2"></circle><circle cx="586" cy="108" r="2"></circle><circle cx="596" cy="106" r="2"></circle><circle cx="606" cy="101" r="2"></circle><circle cx="616" cy="94" r="2"></circle><circle cx="626" cy="99" r="2"></circle><circle cx="636" cy="104" r="2"></circle><circle cx="645" cy="99" r="2"></circle><circle cx="655" cy="103" r="2"></circle><circle cx="665" cy="99" r="2"></circle><circle cx="675" cy="99" r="2"></circle><circle cx="685" cy="115" r="2"></circle><circle cx="694" cy="117" r="2"></circle></g></g><g class="key-Japan_0"><path stroke="#ca2628" stroke-linecap="round" d="M96 356L106 355L116 354L126 352L136 351L145 350L155 339L165 329L175 320L185 312L194 305L204 295L214 287L224 279L234 271L243 264L253 247L263 232L273 219L283 207L292 197L302 198L312 188L322 166L332 176L341 182L351 182L361 197L371 193L381 194L390 195L400 162L410 149L420 136L430 140L439 143L449 134L459 126L469 114L479 106L488 98L498 114L508 124L518 132L528 120L537 118L547 133L557 141L567 137L577 132L586 136L596 144L606 150L616 136L626 130L636 126L645 117L655 119L665 140L675 148L685 162L694 155" fill="none" stroke-width="1.5"></path><g fill="#ca2628"><circle cx="96" cy="356" r="2"></circle><circle cx="106" cy="355" r="2"></circle><circle cx="116" cy="354" r="2"></circle><circle cx="126" cy="352" r="2"></circle><circle cx="136" cy="351" r="2"></circle><circle cx="145" cy="350" r="2"></circle><circle cx="155" cy="339" r="2"></circle><circle cx="165" cy="329" r="2"></circle><circle cx="175" cy="320" r="2"></circle><circle cx="185" cy="312" r="2"></circle><circle cx="194" cy="305" r="2"></circle><circle cx="204" cy="295" r="2"></circle><circle cx="214" cy="287" r="2"></circle><circle cx="224" cy="279" r="2"></circle><circle cx="234" cy="271" r="2"></circle><circle cx="243" cy="264" r="2"></circle><circle cx="253" cy="247" r="2"></circle><circle cx="263" cy="232" r="2"></circle><circle cx="273" cy="219" r="2"></circle><circle cx="283" cy="207" r="2"></circle><circle cx="292" cy="197" r="2"></circle><circle cx="302" cy="198" r="2"></circle><circle cx="312" cy="188" r="2"></circle><circle cx="322" cy="166" r="2"></circle><circle cx="332" cy="176" r="2"></circle><circle cx="341" cy="182" r="2"></circle><circle cx="351" cy="182" r="2"></circle><circle cx="361" cy="197" r="2"></circle><circle cx="371" cy="193" r="2"></circle><circle cx="381" cy="194" r="2"></circle><circle cx="390" cy="195" r="2"></circle><circle cx="400" cy="162" r="2"></circle><circle cx="410" cy="149" r="2"></circle><circle cx="420" cy="136" r="2"></circle><circle cx="430" cy="140" r="2"></circle><circle cx="439" cy="143" r="2"></circle><circle cx="449" cy="134" r="2"></circle><circle cx="459" cy="126" r="2"></circle><circle cx="469" cy="114" r="2"></circle><circle cx="479" cy="106" r="2"></circle><circle cx="488" cy="98" r="2"></circle><circle cx="498" cy="114" r="2"></circle><circle cx="508" cy="124" r="2"></circle><circle cx="518" cy="132" r="2"></circle><circle cx="528" cy="120" r="2"></circle><circle cx="537" cy="118" r="2"></circle><circle cx="547" cy="133" r="2"></circle><circle cx="557" cy="141" r="2"></circle><circle cx="567" cy="137" r="2"></circle><circle cx="577" cy="132" r="2"></circle><circle cx="586" cy="136" r="2"></circle><circle cx="596" cy="144" r="2"></circle><circle cx="606" cy="150" r="2"></circle><circle cx="616" cy="136" r="2"></circle><circle cx="626" cy="130" r="2"></circle><circle cx="636" cy="126" r="2"></circle><circle cx="645" cy="117" r="2"></circle><circle cx="655" cy="119" r="2"></circle><circle cx="665" cy="140" r="2"></circle><circle cx="675" cy="148" r="2"></circle><circle cx="685" cy="162" r="2"></circle><circle cx="694" cy="155" r="2"></circle></g></g><g class="key-Mexico_0"><path stroke="#34983f" stroke-linecap="round" d="M332 254L341 255L351 253L361 254L371 262L381 271L390 282L400 307L410 322L420 327L430 332L439 336L449 329L459 319L469 310L479 303L488 305L498 310L508 316L518 325L528 332L537 325L547 316L557 309L567 305L577 304L586 304L596 304L606 304L616 303L626 303L636 303L645 304L655 305L665 305L675 304L685 306L694 315" fill="none" stroke-width="1.5"></path><g fill="#34983f"><circle cx="332" cy="254" r="2"></circle><circle cx="341" cy="255" r="2"></circle><circle cx="351" cy="253" r="2"></circle><circle cx="361" cy="254" r="2"></circle><circle cx="371" cy="262" r="2"></circle><circle cx="381" cy="271" r="2"></circle><circle cx="390" cy="282" r="2"></circle><circle cx="400" cy="307" r="2"></circle><circle cx="410" cy="322" r="2"></circle><circle cx="420" cy="327" r="2"></circle><circle cx="430" cy="332" r="2"></circle><circle cx="439" cy="336" r="2"></circle><circle cx="449" cy="329" r="2"></circle><circle cx="459" cy="319" r="2"></circle><circle cx="469" cy="310" r="2"></circle><circle cx="479" cy="303" r="2"></circle><circle cx="488" cy="305" r="2"></circle><circle cx="498" cy="310" r="2"></circle><circle cx="508" cy="316" r="2"></circle><circle cx="518" cy="325" r="2"></circle><circle cx="528" cy="332" r="2"></circle><circle cx="537" cy="325" r="2"></circle><circle cx="547" cy="316" r="2"></circle><circle cx="557" cy="309" r="2"></circle><circle cx="567" cy="305" r="2"></circle><circle cx="577" cy="304" r="2"></circle><circle cx="586" cy="304" r="2"></circle><circle cx="596" cy="304" r="2"></circle><circle cx="606" cy="304" r="2"></circle><circle cx="616" cy="303" r="2"></circle><circle cx="626" cy="303" r="2"></circle><circle cx="636" cy="303" r="2"></circle><circle cx="645" cy="304" r="2"></circle><circle cx="655" cy="305" r="2"></circle><circle cx="665" cy="305" r="2"></circle><circle cx="675" cy="304" r="2"></circle><circle cx="685" cy="306" r="2"></circle><circle cx="694" cy="315" r="2"></circle></g></g><g class="key-Philippines_0"><path stroke="#7ec7ce" stroke-linecap="round" d="M488 421L498 416L508 415L518 418L528 422L537 429L547 440L557 449L567 452L577 456L586 456L596 451L606 445L616 437L626 431L636 425L645 420L655 416L665 414L675 411L685 410L694 411" fill="none" stroke-width="1.5"></path><g fill="#7ec7ce"><circle cx="488" cy="421" r="2"></circle><circle cx="498" cy="416" r="2"></circle><circle cx="508" cy="415" r="2"></circle><circle cx="518" cy="418" r="2"></circle><circle cx="528" cy="422" r="2"></circle><circle cx="537" cy="429" r="2"></circle><circle cx="547" cy="440" r="2"></circle><circle cx="557" cy="449" r="2"></circle><circle cx="567" cy="452" r="2"></circle><circle cx="577" cy="456" r="2"></circle><circle cx="586" cy="456" r="2"></circle><circle cx="596" cy="451" r="2"></circle><circle cx="606" cy="445" r="2"></circle><circle cx="616" cy="437" r="2"></circle><circle cx="626" cy="431" r="2"></circle><circle cx="636" cy="425" r="2"></circle><circle cx="645" cy="420" r="2"></circle><circle cx="655" cy="416" r="2"></circle><circle cx="665" cy="414" r="2"></circle><circle cx="675" cy="411" r="2"></circle><circle cx="685" cy="410" r="2"></circle><circle cx="694" cy="411" r="2"></circle></g></g><g class="key-South-Korea_0"><path stroke="#3360a9" stroke-linecap="round" d="M332 368L341 357L351 350L361 346L371 346L381 349L390 349L400 348L410 344L420 332L430 313L439 294L449 275L459 257L469 244L479 234L488 224L498 215L508 210L518 212L528 211L537 211L547 215L557 217L567 210L577 207L586 201L596 191L606 182L616 179L626 179L636 179L645 181L655 183L665 180L675 173L685 170L694 168" fill="none" stroke-width="1.5"></path><g fill="#3360a9"><circle cx="332" cy="368" r="2"></circle><circle cx="341" cy="357" r="2"></circle><circle cx="351" cy="350" r="2"></circle><circle cx="361" cy="346" r="2"></circle><circle cx="371" cy="346" r="2"></circle><circle cx="381" cy="349" r="2"></circle><circle cx="390" cy="349" r="2"></circle><circle cx="400" cy="348" r="2"></circle><circle cx="410" cy="344" r="2"></circle><circle cx="420" cy="332" r="2"></circle><circle cx="430" cy="313" r="2"></circle><circle cx="439" cy="294" r="2"></circle><circle cx="449" cy="275" r="2"></circle><circle cx="459" cy="257" r="2"></circle><circle cx="469" cy="244" r="2"></circle><circle cx="479" cy="234" r="2"></circle><circle cx="488" cy="224" r="2"></circle><circle cx="498" cy="215" r="2"></circle><circle cx="508" cy="210" r="2"></circle><circle cx="518" cy="212" r="2"></circle><circle cx="528" cy="211" r="2"></circle><circle cx="537" cy="211" r="2"></circle><circle cx="547" cy="215" r="2"></circle><circle cx="557" cy="217" r="2"></circle><circle cx="567" cy="210" r="2"></circle><circle cx="577" cy="207" r="2"></circle><circle cx="586" cy="201" r="2"></circle><circle cx="596" cy="191" r="2"></circle><circle cx="606" cy="182" r="2"></circle><circle cx="616" cy="179" r="2"></circle><circle cx="626" cy="179" r="2"></circle><circle cx="636" cy="179" r="2"></circle><circle cx="645" cy="181" r="2"></circle><circle cx="655" cy="183" r="2"></circle><circle cx="665" cy="180" r="2"></circle><circle cx="675" cy="173" r="2"></circle><circle cx="685" cy="170" r="2"></circle><circle cx="694" cy="168" r="2"></circle></g></g><g class="key-Sri-Lanka_0"><path stroke="#000" stroke-linecap="round" d="M332 445L341 458L351 468L361 484L371 494L381 499L390 499L400 496L410 495L420 493L430 492L439 491L449 488L459 486L469 484L479 480L488 477L498 476L508 476L518 476L528 478L537 481L547 485L557 486L567 488L577 489L586 490L596 489L606 488L616 485" fill="none" stroke-width="1.5"></path><g fill="#000"><circle cx="332" cy="445" r="2"></circle><circle cx="341" cy="458" r="2"></circle><circle cx="351" cy="468" r="2"></circle><circle cx="361" cy="484" r="2"></circle><circle cx="371" cy="494" r="2"></circle><circle cx="381" cy="499" r="2"></circle><circle cx="390" cy="499" r="2"></circle><circle cx="400" cy="496" r="2"></circle><circle cx="410" cy="495" r="2"></circle><circle cx="420" cy="493" r="2"></circle><circle cx="430" cy="492" r="2"></circle><circle cx="439" cy="491" r="2"></circle><circle cx="449" cy="488" r="2"></circle><circle cx="459" cy="486" r="2"></circle><circle cx="469" cy="484" r="2"></circle><circle cx="479" cy="480" r="2"></circle><circle cx="488" cy="477" r="2"></circle><circle cx="498" cy="476" r="2"></circle><circle cx="508" cy="476" r="2"></circle><circle cx="518" cy="476" r="2"></circle><circle cx="528" cy="478" r="2"></circle><circle cx="537" cy="481" r="2"></circle><circle cx="547" cy="485" r="2"></circle><circle cx="557" cy="486" r="2"></circle><circle cx="567" cy="488" r="2"></circle><circle cx="577" cy="489" r="2"></circle><circle cx="586" cy="490" r="2"></circle><circle cx="596" cy="489" r="2"></circle><circle cx="606" cy="488" r="2"></circle><circle cx="616" cy="485" r="2"></circle></g></g></g></g></g><g class="SourcesFooter" style="fill:#777"><g class="clickable" style="fill:#777"><text font-size="12.60" x="15.0" y="581.6"><tspan x="15" y="581.58">Source: Glyn (2006); N.B.S of China; Bank of England and US B.L.S</tspan></text></g><text font-size="12.60" x="546.0" y="581.6"><tspan x="545.956" y="581.58"><a target='_blank' style='fill: #777;' href='https://tinyco.re/1810233'>tinyco.re/1810233</a> • <a href="https://ourworldindata.org" target="_blank">Powered by ourworldindata.org</a></tspan></text></g></svg>