<svg xmlns="http://www.w3.org/2000/svg" version="1.1" style="font-family: 'Helvetica Neue', Helvetica, Arial, sans-serif; font-size: 18px; background-color: white; text-rendering: optimizeLegibility; -webkit-font-smoothing: antialiased;" width="850" height="600"><g class="ChartTab"><g class="HeaderView"><g opacity="0.8" transform="translate(778, 15) scale(0.27)"><a xmlns:xlink="http://www.w3.org/1999/xlink" xlink:href="https://ourworldindata.org" target="_blank"><g><rect x="0" y="0" fill="#1B2543" width="211.2" height="130.1"/><rect x="0" y="112.2" fill="#E63912" width="211.2" height="17.9"/><g><rect x="1.2" y="12.3" fill="none" width="210.2" height="99.2"/><path fill="#FFFFFF" d="M37.8,32.2c0,12.7-7.7,19.4-17.1,19.4c-9.7,0-16.6-7.5-16.6-18.7c0-11.7,7.3-19.3,17.1-19.3 C31.3,13.7,37.8,21.3,37.8,32.2z M9.2,32.8c0,7.9,4.3,14.9,11.8,14.9c7.5,0,11.8-6.9,11.8-15.3c0-7.3-3.8-14.9-11.8-14.9 C13.1,17.5,9.2,24.8,9.2,32.8z"/><path fill="#FFFFFF" d="M62.7,43.8c0,2.7,0.1,5.1,0.2,7.2h-4.3l-0.3-4.3h-0.1c-1.3,2.1-4,4.9-8.8,4.9c-4.2,0-9.1-2.3-9.1-11.6 V24.6h4.8v14.6c0,5,1.5,8.4,5.9,8.4c3.2,0,5.5-2.2,6.3-4.4c0.3-0.7,0.4-1.6,0.4-2.5V24.6h4.8V43.8z"/><path fill="#FFFFFF" d="M67.3,32.8c0-3.1-0.1-5.8-0.2-8.2h4.2l0.2,5.2h0.2c1.2-3.5,4.1-5.8,7.3-5.8c0.5,0,0.9,0.1,1.4,0.2v4.5 c-0.5-0.1-1-0.2-1.6-0.2c-3.4,0-5.8,2.6-6.5,6.2c-0.1,0.7-0.2,1.4-0.2,2.2V51h-4.8V32.8z"/><path fill="#FFFFFF" d="M95.4,51l-9.4-36.8h5l4.4,18.6c1.1,4.6,2.1,9.2,2.7,12.7h0.1c0.6-3.7,1.8-8,3-12.8l4.9-18.5h5l4.5,18.7 c1,4.4,2,8.7,2.6,12.6h0.1c0.8-4,1.8-8.1,3-12.7l4.9-18.5h4.9L120.6,51h-5L111,31.9c-1.1-4.7-1.9-8.3-2.4-12h-0.1 c-0.7,3.7-1.5,7.3-2.8,12L100.4,51H95.4z"/><path fill="#FFFFFF" d="M154.9,37.6c0,9.8-6.8,14-13.2,14c-7.2,0-12.7-5.2-12.7-13.6c0-8.8,5.8-14,13.1-14 C149.8,24,154.9,29.5,154.9,37.6z M133.9,37.9c0,5.8,3.3,10.1,8,10.1c4.6,0,8-4.3,8-10.3c0-4.5-2.2-10.1-7.9-10.1 C136.3,27.6,133.9,32.8,133.9,37.9z"/><path fill="#FFFFFF" d="M158.2,32.8c0-3.1-0.1-5.8-0.2-8.2h4.2l0.2,5.2h0.2c1.2-3.5,4.1-5.8,7.3-5.8c0.5,0,0.9,0.1,1.4,0.2v4.5 c-0.5-0.1-1-0.2-1.6-0.2c-3.4,0-5.8,2.6-6.5,6.2c-0.1,0.7-0.2,1.4-0.2,2.2V51h-4.8V32.8z"/><path fill="#FFFFFF" d="M173.5,12.3h4.8V51h-4.8V12.3z"/><path fill="#FFFFFF" d="M206.5,12.3v31.9c0,2.3,0.1,5,0.2,6.8h-4.3l-0.2-4.6H202c-1.5,2.9-4.7,5.2-9,5.2 c-6.4,0-11.3-5.4-11.3-13.4c-0.1-8.8,5.4-14.2,11.9-14.2c4,0,6.8,1.9,8,4h0.1V12.3H206.5z M201.7,35.4c0-0.6-0.1-1.4-0.2-2 c-0.7-3.1-3.3-5.6-6.9-5.6c-5,0-7.9,4.4-7.9,10.2c0,5.3,2.6,9.8,7.8,9.8c3.2,0,6.2-2.1,7.1-5.7c0.2-0.7,0.2-1.3,0.2-2.1V35.4z"/><path fill="#FFFFFF" d="M42.8,64c0.1,1.6-1.1,2.9-3.1,2.9c-1.7,0-2.9-1.3-2.9-2.9c0-1.7,1.3-3,3-3C41.7,61,42.8,62.3,42.8,64z M37.4,97.8V71.4h4.8v26.4H37.4z"/><path fill="#FFFFFF" d="M47.5,78.6c0-2.7-0.1-5-0.2-7.1h4.3l0.3,4.4h0.1c1.3-2.5,4.4-5,8.8-5c3.7,0,9.4,2.2,9.4,11.2v15.8h-4.8 V82.6c0-4.3-1.6-7.8-6.1-7.8c-3.2,0-5.6,2.2-6.5,4.9c-0.2,0.6-0.3,1.4-0.3,2.2v15.9h-4.8V78.6z"/><path fill="#FFFFFF" d="M84,61.6c2.9-0.4,6.3-0.8,10.1-0.8c6.8,0,11.7,1.6,14.9,4.6c3.3,3,5.2,7.3,5.2,13.2c0,6-1.9,10.9-5.3,14.3 c-3.4,3.4-9.1,5.3-16.3,5.3c-3.4,0-6.2-0.2-8.6-0.4V61.6z M88.8,94.1c1.2,0.2,3,0.3,4.8,0.3c10.2,0,15.7-5.7,15.7-15.6 c0.1-8.7-4.9-14.2-14.9-14.2c-2.5,0-4.3,0.2-5.6,0.5V94.1z"/><path fill="#FFFFFF" d="M132.1,97.8l-0.4-3.3h-0.2c-1.5,2.1-4.3,3.9-8.1,3.9c-5.4,0-8.1-3.8-8.1-7.6c0-6.4,5.7-9.9,15.9-9.8v-0.5 c0-2.2-0.6-6.1-6-6.1c-2.5,0-5,0.8-6.9,2l-1.1-3.2c2.2-1.4,5.4-2.3,8.7-2.3c8.1,0,10.1,5.5,10.1,10.8v9.9c0,2.3,0.1,4.5,0.4,6.3 H132.1z M131.4,84.4c-5.3-0.1-11.2,0.8-11.2,5.9c0,3.1,2.1,4.6,4.5,4.6c3.4,0,5.6-2.2,6.4-4.4c0.2-0.5,0.3-1,0.3-1.5V84.4z"/><path fill="#FFFFFF" d="M146.6,63.9v7.6h6.9v3.7h-6.9v14.2c0,3.3,0.9,5.1,3.6,5.1c1.3,0,2.2-0.2,2.8-0.3l0.2,3.6 c-0.9,0.4-2.4,0.7-4.3,0.7c-2.2,0-4-0.7-5.2-2c-1.4-1.4-1.9-3.8-1.9-6.9V75.1h-4.1v-3.7h4.1v-6.3L146.6,63.9z"/><path fill="#FFFFFF" d="M171.4,97.8l-0.4-3.3h-0.2c-1.5,2.1-4.3,3.9-8.1,3.9c-5.4,0-8.1-3.8-8.1-7.6c0-6.4,5.7-9.9,15.9-9.8v-0.5 c0-2.2-0.6-6.1-6-6.1c-2.5,0-5,0.8-6.9,2l-1.1-3.2c2.2-1.4,5.4-2.3,8.7-2.3c8.1,0,10.1,5.5,10.1,10.8v9.9c0,2.3,0.1,4.5,0.4,6.3 H171.4z M170.7,84.4c-5.3-0.1-11.2,0.8-11.2,5.9c0,3.1,2.1,4.6,4.5,4.6c3.4,0,5.6-2.2,6.4-4.4c0.2-0.5,0.3-1,0.3-1.5V84.4z"/></g></g></a></g><a href="https://ourworldindata.org/grapher/child-mortality-byvs-level-of-prosperity-regression-IHME-data" target="_blank"><text font-size="25.20" x="15.0" y="35.2" fill="#555"><tspan x="15" y="35.160000000000004">Child mortality vs level of prosperity, 2015</tspan></text></a><text font-size="14.40" x="15.0" y="53.7" fill="#666"><tspan x="15" y="53.72">Countries below the grey line achieve better child health than predicted by their income. Countries above the line</tspan><tspan x="15" y="69.56">achieve better health than predicted.</tspan></text></g><g><g class="AxisBoxView"><g class="HorizontalAxis"><text font-size="12.60" x="264.4" y="554.0"><tspan x="264.411" y="553.98">GDP per capita (int.-$)</tspan></text><text x="121.4" y="533.9" fill="#666" text-anchor="middle" font-size="16.2">$1,000</text><text x="371" y="533.9" fill="#666" text-anchor="middle" font-size="16.2">$10,000</text><text x="620.7" y="533.9" fill="#666" text-anchor="middle" font-size="16.2">$100,000</text></g><g class="VerticalAxis"><text font-size="12.60" x="-396.9" y="25.1" transform="rotate(-90)"><tspan x="-396.93899999999996" y="25.080000000000002">Child mortality (per 1,000)</tspan></text><text x="64.82" y="351.6" fill="#666" dominant-baseline="middle" text-anchor="end" font-size="16.2">10</text><text x="64.82" y="119" fill="#666" dominant-baseline="middle" text-anchor="end" font-size="16.2">100</text></g><g class="AxisGridLines"><line x1="69.82" y1="351.6" x2="640.20" y2="351.6" stroke="#ddd" stroke-dasharray="3,2"></line><line x1="69.82" y1="119" x2="640.20" y2="119" stroke="#ddd" stroke-dasharray="3,2"></line></g><g class="AxisGridLines"><line x1="121.4" y1="512.70" x2="121.4" y2="92.10" stroke="#ddd" stroke-dasharray="3,2"></line><line x1="371" y1="512.70" x2="371" y2="92.10" stroke="#ddd" stroke-dasharray="3,2"></line><line x1="620.7" y1="512.70" x2="620.7" y2="92.10" stroke="#ddd" stroke-dasharray="3,2"></line></g></g><g class="ComparisonLine"><defs><clipPath id="axisBounds-129"><rect x="69.816" y="92.1" width="570.384" height="420.59999999999997"></rect></clipPath></defs><path d="M69.8,69.1L185.9,154.3L240.6,194.5L276.8,221.1L303.9,241L325.6,256.9L343.6,270.2L359.1,281.5L372.6,291.4L384.7,300.3L395.5,308.2L405.3,315.5L414.4,322.1L422.7,328.2L430.4,333.9L437.7,339.2L444.4,344.2L450.8,348.8L456.8,353.2L462.5,357.4L467.9,361.4L473.1,365.2L478,368.8L482.7,372.3L487.2,375.6L491.6,378.8L495.7,381.8L499.8,384.8L503.6,387.6L507.4,390.4L511,393L514.5,395.6L517.9,398.1L521.1,400.5L524.3,402.8L527.4,405.1L530.4,407.3L533.4,409.4L536.2,411.5L539,413.6L541.7,415.6L544.3,417.5L546.9,419.4L549.4,421.3L551.9,423.1L554.3,424.8L556.7,426.6L559,428.3L561.2,429.9L563.4,431.5L565.6,433.1L567.7,434.7L569.8,436.2L571.9,437.7L573.9,439.2L575.8,440.6L577.8,442.1L579.7,443.5L581.5,444.8L583.4,446.2L585.2,447.5L587,448.8L588.7,450.1L590.4,451.4L592.1,452.6L593.8,453.8L595.4,455L597.1,456.2L598.7,457.4L600.2,458.5L601.8,459.7L603.3,460.8L604.8,461.9L606.3,463L607.8,464.1L609.2,465.1L610.6,466.2L612,467.2L613.4,468.2L614.8,469.2L616.1,470.2L617.5,471.2L618.8,472.2L620.1,473.1L621.4,474.1L622.7,475L623.9,476L625.2,476.9L626.4,477.8L627.6,478.7L628.8,479.6L630,480.4L631.2,481.3L632.4,482.2L633.5,483L634.7,483.8L635.8,484.7L636.9,485.5L638,486.3L639.1,487.1" clip-path="url(#axisBounds-129)" fill="none" stroke="#ccc"></path></g><g clip-path="url(#scatterBounds-130)" font-family="Arial Narrow, Arial, sans-serif" class="PointsWithLabels clickable"><rect x="69.816" y="92.1" width="570.384" height="420.59999999999997" fill="rgba(255,255,255,0)"></rect><defs><clipPath id="scatterBounds-130"><rect x="59.816" y="82.1" width="590.384" height="440.59999999999997"></rect></clipPath></defs><g class="key-China_0"><circle cx="404.00" cy="330.00" r="17.84" fill="#5675c1" opacity="0.8" stroke="#333" stroke-width="0.7"></circle></g><g class="key-India_0"><circle cx="311.00" cy="191.00" r="17.29" fill="#d14e5b" opacity="0.8" stroke="#333" stroke-width="0.7"></circle></g><g class="key-United-States_0"><circle cx="551.00" cy="403.00" r="8.78" fill="#69c487" opacity="0.8" stroke="#333" stroke-width="0.7"></circle></g><g class="key-Indonesia_0"><circle cx="374.00" cy="264.00" r="7.78" fill="#5675c1" opacity="0.8" stroke="#333" stroke-width="0.7"></circle></g><g class="key-Brazil_0"><circle cx="412.00" cy="298.00" r="7.04" fill="#a652ba" opacity="0.8" stroke="#333" stroke-width="0.7"></circle></g><g class="key-Pakistan_0"><circle cx="289.00" cy="165.00" r="6.76" fill="#d14e5b" opacity="0.8" stroke="#333" stroke-width="0.7"></circle></g><g class="key-Nigeria_0"><circle cx="309.00" cy="115.00" r="6.54" fill="#aec7e8" opacity="0.8" stroke="#333" stroke-width="0.7"></circle></g><g class="key-Bangladesh_0"><circle cx="245.00" cy="214.00" r="6.24" fill="#d14e5b" opacity="0.8" stroke="#333" stroke-width="0.7"></circle></g><g class="key-Russia_0"><circle cx="466.00" cy="365.00" r="6.02" fill="#ffd336" opacity="0.8" stroke="#333" stroke-width="0.7"></circle></g><g class="key-Japan_0"><circle cx="515.00" cy="482.00" r="5.70" fill="#5675c1" opacity="0.8" stroke="#333" stroke-width="0.7"></circle></g><g class="key-Mexico_0"><circle cx="428.00" cy="308.00" r="5.51" fill="#a652ba" opacity="0.8" stroke="#fff" stroke-width="0.7"></circle></g><g class="key-Philippines_0"><circle cx="330.00" cy="266.00" r="5.09" fill="#5675c1" opacity="0.8" stroke="#fff" stroke-width="0.7"></circle></g><g class="key-Vietnam_0"><circle cx="307.00" cy="321.00" r="4.92" fill="#5675c1" opacity="0.8" stroke="#333" stroke-width="0.7"></circle></g><g class="key-Ethiopia_0"><circle cx="167.00" cy="170.00" r="4.86" fill="#aec7e8" opacity="0.8" stroke="#333" stroke-width="0.7"></circle></g><g class="key-Egypt_0"><circle cx="372.00" cy="274.00" r="4.79" fill="#4d824b" opacity="0.8" stroke="#333" stroke-width="0.7"></circle></g><g class="key-Germany_0"><circle cx="531.00" cy="456.00" r="4.70" fill="#ffd336" opacity="0.8" stroke="#333" stroke-width="0.7"></circle></g><g class="key-Iran_0"><circle cx="425.00" cy="312.00" r="4.57" fill="#4d824b" opacity="0.8" stroke="#fff" stroke-width="0.7"></circle></g><g class="key-Turkey_0"><circle cx="463.00" cy="300.00" r="4.54" fill="#ffd336" opacity="0.8" stroke="#333" stroke-width="0.7"></circle></g><g class="key-Democratic-Republic-of-Congo_0"><circle cx="98.00" cy="131.00" r="4.44" fill="#aec7e8" opacity="0.8" stroke="#333" stroke-width="0.7"></circle></g><g class="key-Thailand_0"><circle cx="416.00" cy="409.00" r="4.41" fill="#5675c1" opacity="0.8" stroke="#333" stroke-width="0.7"></circle></g><g class="key-France_0"><circle cx="515.00" cy="464.00" r="4.24" fill="#ffd336" opacity="0.8" stroke="#fff" stroke-width="0.7"></circle></g><g class="key-United-Kingdom_0"><circle cx="518.00" cy="428.00" r="4.22" fill="#ffd336" opacity="0.8" stroke="#333" stroke-width="0.7"></circle></g><g class="key-Italy_0"><circle cx="504.00" cy="469.00" r="4.16" fill="#ffd336" opacity="0.8" stroke="#333" stroke-width="0.7"></circle></g><g class="key-South-Africa_0"><circle cx="394.00" cy="206.00" r="3.87" fill="#aec7e8" opacity="0.8" stroke="#333" stroke-width="0.7"></circle></g><g class="key-Tanzania_0"><circle cx="220.00" cy="170.00" r="3.82" fill="#aec7e8" opacity="0.8" stroke="#333" stroke-width="0.7"></circle></g><g class="key-Myanmar_0"><circle cx="297.00" cy="232.00" r="3.82" fill="#5675c1" opacity="0.8" stroke="#333" stroke-width="0.7"></circle></g><g class="key-South-Korea_0"><circle cx="504.00" cy="466.00" r="3.81" fill="#5675c1" opacity="0.8" stroke="#fff" stroke-width="0.7"></circle></g><g class="key-Colombia_0"><circle cx="399.00" cy="305.00" r="3.79" fill="#a652ba" opacity="0.8" stroke="#fff" stroke-width="0.7"></circle></g><g class="key-Spain_0"><circle cx="498.00" cy="473.00" r="3.75" fill="#ffd336" opacity="0.8" stroke="#fff" stroke-width="0.7"></circle></g><g class="key-Ukraine_0"><circle cx="339.00" cy="355.00" r="3.68" fill="#ffd336" opacity="0.8" stroke="#333" stroke-width="0.7"></circle></g><g class="key-Kenya_0"><circle cx="234.00" cy="187.00" r="3.65" fill="#aec7e8" opacity="0.8" stroke="#333" stroke-width="0.7"></circle></g><g class="key-Argentina_0"><circle cx="441.00" cy="328.00" r="3.58" fill="#a652ba" opacity="0.8" stroke="#333" stroke-width="0.7"></circle></g><g class="key-Poland_0"><circle cx="471.00" cy="432.00" r="3.47" fill="#ffd336" opacity="0.8" stroke="#333" stroke-width="0.7"></circle></g><g class="key-Algeria_0"><circle cx="405.00" cy="268.00" r="3.43" fill="#4d824b" opacity="0.8" stroke="#fff" stroke-width="0.7"></circle></g><g class="key-Uganda_0"><circle cx="176.00" cy="156.00" r="3.42" fill="#aec7e8" opacity="0.8" stroke="#333" stroke-width="0.7"></circle></g><g class="key-Sudan_0"><circle cx="279.00" cy="177.00" r="3.39" fill="#aec7e8" opacity="0.8" stroke="#fff" stroke-width="0.7"></circle></g><g class="key-Canada_0"><circle cx="529.00" cy="421.00" r="3.36" fill="#69c487" opacity="0.8" stroke="#fff" stroke-width="0.7"></circle></g><g class="key-Iraq_0"><circle cx="415.00" cy="250.00" r="3.35" fill="#4d824b" opacity="0.8" stroke="#fff" stroke-width="0.7"></circle></g><g class="key-Afghanistan_0"><circle cx="185.00" cy="138.00" r="3.34" fill="#d14e5b" opacity="0.8" stroke="#fff" stroke-width="0.7"></circle></g><g class="key-Morocco_0"><circle cx="336.00" cy="270.00" r="3.29" fill="#4d824b" opacity="0.8" stroke="#fff" stroke-width="0.7"></circle></g><g class="key-Nepal_0"><circle cx="212.00" cy="219.00" r="3.24" fill="#d14e5b" opacity="0.8" stroke="#333" stroke-width="0.7"></circle></g><g class="key-Venezuela_0"><circle cx="426.00" cy="298.00" r="3.19" fill="#a652ba" opacity="0.8" stroke="#fff" stroke-width="0.7"></circle></g><g class="key-Peru_0"><circle cx="388.00" cy="305.00" r="3.19" fill="#a652ba" opacity="0.8" stroke="#fff" stroke-width="0.7"></circle></g><g class="key-Malaysia_0"><circle cx="470.00" cy="395.00" r="3.17" fill="#5675c1" opacity="0.8" stroke="#333" stroke-width="0.7"></circle></g><g class="key-Saudi-Arabia_0"><circle cx="547.00" cy="337.00" r="3.16" fill="#4d824b" opacity="0.8" stroke="#333" stroke-width="0.7"></circle></g><g class="key-Uzbekistan_0"><circle cx="310.00" cy="262.00" r="3.12" fill="#ffd336" opacity="0.8" stroke="#333" stroke-width="0.7"></circle></g><g class="key-Ghana_0"><circle cx="269.00" cy="178.00" r="3.04" fill="#aec7e8" opacity="0.8" stroke="#333" stroke-width="0.7"></circle></g><g class="key-Mozambique_0"><circle cx="133.00" cy="144.00" r="3.00" fill="#aec7e8" opacity="0.8" stroke="#333" stroke-width="0.7"></circle></g><g class="key-Australia_0"><circle cx="531.00" cy="445.00" r="2.92" fill="#5675c1" opacity="0.8" stroke="#fff" stroke-width="0.7"></circle></g><g class="key-Madagascar_0"><circle cx="156.00" cy="163.00" r="2.90" fill="#aec7e8" opacity="0.8" stroke="#fff" stroke-width="0.7"></circle></g><g class="key-Sri-Lanka_0"><circle cx="382.00" cy="373.00" r="2.85" fill="#d14e5b" opacity="0.8" stroke="#333" stroke-width="0.7"></circle></g><g class="key-Romania_0"><circle cx="449.00" cy="369.00" r="2.85" fill="#ffd336" opacity="0.8" stroke="#fff" stroke-width="0.7"></circle></g><g class="key-Cote-d__0027Ivoire_0"><circle cx="248.00" cy="125.00" r="2.84" fill="#aec7e8" opacity="0.8" stroke="#fff" stroke-width="0.7"></circle></g><g class="key-Cameroon_0"><circle cx="250.00" cy="129.00" r="2.83" fill="#aec7e8" opacity="0.8" stroke="#333" stroke-width="0.7"></circle></g><g class="key-Angola_0"><circle cx="319.00" cy="143.00" r="2.82" fill="#aec7e8" opacity="0.8" stroke="#333" stroke-width="0.7"></circle></g><g class="key-Burkina-Faso_0"><circle cx="172.00" cy="109.00" r="2.71" fill="#aec7e8" opacity="0.8" stroke="#333" stroke-width="0.7"></circle></g><g class="key-Chile_0"><circle cx="459.00" cy="379.00" r="2.69" fill="#a652ba" opacity="0.8" stroke="#333" stroke-width="0.7"></circle></g><g class="key-Niger_0"><circle cx="110.00" cy="106.00" r="2.68" fill="#aec7e8" opacity="0.8" stroke="#333" stroke-width="0.7"></circle></g><g class="key-Mali_0"><circle cx="192.00" cy="92.00" r="2.66" fill="#aec7e8" opacity="0.8" stroke="#fff" stroke-width="0.7"></circle></g><g class="key-Netherlands_0"><circle cx="537.00" cy="446.00" r="2.66" fill="#ffd336" opacity="0.8" stroke="#fff" stroke-width="0.7"></circle></g><g class="key-Kazakhstan_0"><circle cx="463.00" cy="296.00" r="2.65" fill="#ffd336" opacity="0.8" stroke="#fff" stroke-width="0.7"></circle></g><g class="key-Malawi_0"><circle cx="130.00" cy="137.00" r="2.64" fill="#aec7e8" opacity="0.8" stroke="#fff" stroke-width="0.7"></circle></g><g class="key-Guatemala_0"><circle cx="336.00" cy="255.00" r="2.60" fill="#a652ba" opacity="0.8" stroke="#fff" stroke-width="0.7"></circle></g><g class="key-Ecuador_0"><circle cx="378.00" cy="293.00" r="2.58" fill="#a652ba" opacity="0.8" stroke="#fff" stroke-width="0.7"></circle></g><g class="key-Cambodia_0"><circle cx="250.00" cy="236.00" r="2.56" fill="#5675c1" opacity="0.8" stroke="#fff" stroke-width="0.7"></circle></g><g class="key-Zambia_0"><circle cx="261.00" cy="161.00" r="2.55" fill="#aec7e8" opacity="0.8" stroke="#fff" stroke-width="0.7"></circle></g><g class="key-Senegal_0"><circle cx="211.00" cy="184.00" r="2.51" fill="#aec7e8" opacity="0.8" stroke="#fff" stroke-width="0.7"></circle></g><g class="key-Zimbabwe_0"><circle cx="191.00" cy="179.00" r="2.50" fill="#aec7e8" opacity="0.8" stroke="#fff" stroke-width="0.7"></circle></g><g class="key-Chad_0"><circle cx="200.00" cy="92.00" r="2.45" fill="#aec7e8" opacity="0.8" stroke="#fff" stroke-width="0.7"></circle></g><g class="key-Rwanda_0"><circle cx="180.00" cy="161.00" r="2.42" fill="#aec7e8" opacity="0.8" stroke="#fff" stroke-width="0.7"></circle></g><g class="key-Greece_0"><circle cx="466.00" cy="463.00" r="2.41" fill="#ffd336" opacity="0.8" stroke="#333" stroke-width="0.7"></circle></g><g class="key-South-Sudan_0"><circle cx="189.00" cy="112.00" r="2.39" fill="#aec7e8" opacity="0.8" stroke="#fff" stroke-width="0.7"></circle></g><g class="key-Belgium_0"><circle cx="525.00" cy="449.00" r="2.38" fill="#ffd336" opacity="0.8" stroke="#fff" stroke-width="0.7"></circle></g><g class="key-Tunisia_0"><circle cx="379.00" cy="319.00" r="2.38" fill="#4d824b" opacity="0.8" stroke="#fff" stroke-width="0.7"></circle></g><g class="key-Guinea_0"><circle cx="182.00" cy="110.00" r="2.38" fill="#aec7e8" opacity="0.8" stroke="#fff" stroke-width="0.7"></circle></g><g class="key-Portugal_0"><circle cx="477.00" cy="474.00" r="2.38" fill="#ffd336" opacity="0.8" stroke="#fff" stroke-width="0.7"></circle></g><g class="key-Czech-Republic_0"><circle cx="492.00" cy="492.00" r="2.37" fill="#ffd336" opacity="0.8" stroke="#333" stroke-width="0.7"></circle></g><g class="key-Bolivia_0"><circle cx="324.00" cy="242.00" r="2.36" fill="#a652ba" opacity="0.8" stroke="#333" stroke-width="0.7"></circle></g><g class="key-Haiti_0"><circle cx="175.00" cy="173.00" r="2.36" fill="#a652ba" opacity="0.8" stroke="#fff" stroke-width="0.7"></circle></g><g class="key-Dominican-Republic_0"><circle cx="402.00" cy="259.00" r="2.36" fill="#a652ba" opacity="0.8" stroke="#fff" stroke-width="0.7"></circle></g><g class="key-Hungary_0"><circle cx="470.00" cy="422.00" r="2.34" fill="#ffd336" opacity="0.8" stroke="#fff" stroke-width="0.7"></circle></g><g class="key-Serbia_0"><circle cx="401.00" cy="377.00" r="2.33" fill="#ffd336" opacity="0.8" stroke="#fff" stroke-width="0.7"></circle></g><g class="key-Benin_0"><circle cx="195.00" cy="144.00" r="2.32" fill="#aec7e8" opacity="0.8" stroke="#fff" stroke-width="0.7"></circle></g><g class="key-Sweden_0"><circle cx="535.00" cy="487.00" r="2.32" fill="#ffd336" opacity="0.8" stroke="#fff" stroke-width="0.7"></circle></g><g class="key-Azerbaijan_0"><circle cx="426.00" cy="241.00" r="2.32" fill="#ffd336" opacity="0.8" stroke="#333" stroke-width="0.7"></circle></g><g class="key-Belarus_0"><circle cx="430.00" cy="408.00" r="2.32" fill="#ffd336" opacity="0.8" stroke="#fff" stroke-width="0.7"></circle></g><g class="key-Burundi_0"><circle cx="90.00" cy="145.00" r="2.29" fill="#aec7e8" opacity="0.8" stroke="#333" stroke-width="0.7"></circle></g><g class="key-Austria_0"><circle cx="532.00" cy="456.00" r="2.26" fill="#ffd336" opacity="0.8" stroke="#fff" stroke-width="0.7"></circle></g><g class="key-United-Arab-Emirates_0"><circle cx="576.00" cy="412.00" r="2.25" fill="#4d824b" opacity="0.8" stroke="#333" stroke-width="0.7"></circle></g><g class="key-Honduras_0"><circle cx="280.00" cy="271.00" r="2.25" fill="#a652ba" opacity="0.8" stroke="#fff" stroke-width="0.7"></circle></g><g class="key-Israel_0"><circle cx="497.00" cy="448.00" r="2.23" fill="#4d824b" opacity="0.8" stroke="#333" stroke-width="0.7"></circle></g><g class="key-Switzerland_0"><circle cx="560.00" cy="442.00" r="2.23" fill="#ffd336" opacity="0.8" stroke="#333" stroke-width="0.7"></circle></g><g class="key-Bulgaria_0"><circle cx="428.00" cy="365.00" r="2.21" fill="#ffd336" opacity="0.8" stroke="#fff" stroke-width="0.7"></circle></g><g class="key-Papua-New-Guinea_0"><circle cx="266.00" cy="200.00" r="2.21" fill="#5675c1" opacity="0.8" stroke="#fff" stroke-width="0.7"></circle></g><g class="key-Tajikistan_0"><circle cx="226.00" cy="231.00" r="2.20" fill="#ffd336" opacity="0.8" stroke="#333" stroke-width="0.7"></circle></g><g class="key-Paraguay_0"><circle cx="355.00" cy="292.00" r="2.18" fill="#a652ba" opacity="0.8" stroke="#333" stroke-width="0.7"></circle></g><g class="key-Jordan_0"><circle cx="353.00" cy="312.00" r="2.17" fill="#4d824b" opacity="0.8" stroke="#333" stroke-width="0.7"></circle></g><g class="key-Libya_0"><circle cx="413.00" cy="295.00" r="2.16" fill="#4d824b" opacity="0.8" stroke="#fff" stroke-width="0.7"></circle></g><g class="key-Laos_0"><circle cx="311.00" cy="170.00" r="2.16" fill="#5675c1" opacity="0.8" stroke="#fff" stroke-width="0.7"></circle></g><g class="key-Togo_0"><circle cx="154.00" cy="144.00" r="2.16" fill="#aec7e8" opacity="0.8" stroke="#fff" stroke-width="0.7"></circle></g><g class="key-El-Salvador_0"><circle cx="332.00" cy="339.00" r="2.15" fill="#a652ba" opacity="0.8" stroke="#333" stroke-width="0.7"></circle></g><g class="key-Sierra-Leone_0"><circle cx="151.00" cy="98.00" r="2.15" fill="#aec7e8" opacity="0.8" stroke="#fff" stroke-width="0.7"></circle></g><g class="key-Nicaragua_0"><circle cx="294.00" cy="308.00" r="2.14" fill="#a652ba" opacity="0.8" stroke="#fff" stroke-width="0.7"></circle></g><g class="key-Eritrea_0"><circle cx="166.00" cy="159.00" r="2.12" fill="#aec7e8" opacity="0.8" stroke="#fff" stroke-width="0.7"></circle></g><g class="key-Denmark_0"><circle cx="535.00" cy="456.00" r="2.11" fill="#ffd336" opacity="0.8" stroke="#fff" stroke-width="0.7"></circle></g><g class="key-Kyrgyzstan_0"><circle cx="248.00" cy="244.00" r="2.11" fill="#ffd336" opacity="0.8" stroke="#333" stroke-width="0.7"></circle></g><g class="key-Slovakia_0"><circle cx="483.00" cy="403.00" r="2.11" fill="#ffd336" opacity="0.8" stroke="#fff" stroke-width="0.7"></circle></g><g class="key-Finland_0"><circle cx="518.00" cy="495.00" r="2.10" fill="#ffd336" opacity="0.8" stroke="#fff" stroke-width="0.7"></circle></g><g class="key-Singapore_0"><circle cx="598.00" cy="506.00" r="2.10" fill="#5675c1" opacity="0.8" stroke="#333" stroke-width="0.7"></circle></g><g class="key-Turkmenistan_0"><circle cx="414.00" cy="212.00" r="2.09" fill="#ffd336" opacity="0.8" stroke="#fff" stroke-width="0.7"></circle></g><g class="key-Norway_0"><circle cx="572.00" cy="483.00" r="2.08" fill="#ffd336" opacity="0.8" stroke="#333" stroke-width="0.7"></circle></g><g class="key-Costa-Rica_0"><circle cx="413.00" cy="354.00" r="2.07" fill="#a652ba" opacity="0.8" stroke="#fff" stroke-width="0.7"></circle></g><g class="key-Central-African-Republic_0"><circle cx="69.00" cy="95.00" r="2.06" fill="#aec7e8" opacity="0.8" stroke="#fff" stroke-width="0.7"></circle></g><g class="key-Ireland_0"><circle cx="566.00" cy="457.00" r="2.06" fill="#ffd336" opacity="0.8" stroke="#fff" stroke-width="0.7"></circle></g><g class="key-New-Zealand_0"><circle cx="507.00" cy="416.00" r="2.05" fill="#5675c1" opacity="0.8" stroke="#fff" stroke-width="0.7"></circle></g><g class="key-Croatia_0"><circle cx="451.00" cy="434.00" r="2.05" fill="#ffd336" opacity="0.8" stroke="#fff" stroke-width="0.7"></circle></g><g class="key-Liberia_0"><circle cx="95.00" cy="153.00" r="2.04" fill="#aec7e8" opacity="0.8" stroke="#fff" stroke-width="0.7"></circle></g><g class="key-Congo_0"><circle cx="307.00" cy="177.00" r="2.04" fill="#aec7e8" opacity="0.8" stroke="#fff" stroke-width="0.7"></circle></g><g class="key-Lebanon_0"><circle cx="402.00" cy="372.00" r="2.04" fill="#4d824b" opacity="0.8" stroke="#fff" stroke-width="0.7"></circle></g><g class="key-Georgia_0"><circle cx="359.00" cy="295.00" r="2.04" fill="#ffd336" opacity="0.8" stroke="#fff" stroke-width="0.7"></circle></g><g class="key-Puerto-Rico_0"><circle cx="507.00" cy="387.00" r="2.01" fill="#a652ba" opacity="0.8" stroke="#fff" stroke-width="0.7"></circle></g><g class="key-Bosnia-and-Herzegovina_0"><circle cx="380.00" cy="414.00" r="2.01" fill="#ffd336" opacity="0.8" stroke="#fff" stroke-width="0.7"></circle></g><g class="key-Mauritania_0"><circle cx="260.00" cy="179.00" r="2.01" fill="#aec7e8" opacity="0.8" stroke="#fff" stroke-width="0.7"></circle></g><g class="key-Panama_0"><circle cx="450.00" cy="294.00" r="2.01" fill="#a652ba" opacity="0.8" stroke="#fff" stroke-width="0.7"></circle></g><g class="key-Moldova_0"><circle cx="290.00" cy="345.00" r="2.00" fill="#ffd336" opacity="0.8" stroke="#333" stroke-width="0.7"></circle></g><g class="key-Uruguay_0"><circle cx="445.00" cy="355.00" r="1.99" fill="#a652ba" opacity="0.8" stroke="#fff" stroke-width="0.7"></circle></g><g class="key-Lithuania_0"><circle cx="478.00" cy="442.00" r="1.98" fill="#ffd336" opacity="0.8" stroke="#fff" stroke-width="0.7"></circle></g><g class="key-Albania_0"><circle cx="381.00" cy="331.00" r="1.98" fill="#ffd336" opacity="0.8" stroke="#fff" stroke-width="0.7"></circle></g><g class="key-Armenia_0"><circle cx="349.00" cy="311.00" r="1.97" fill="#ffd336" opacity="0.8" stroke="#fff" stroke-width="0.7"></circle></g><g class="key-Kuwait_0"><circle cx="579.00" cy="371.00" r="1.96" fill="#4d824b" opacity="0.8" stroke="#333" stroke-width="0.7"></circle></g><g class="key-Oman_0"><circle cx="521.00" cy="358.00" r="1.96" fill="#4d824b" opacity="0.8" stroke="#333" stroke-width="0.7"></circle></g><g class="key-Mongolia_0"><circle cx="385.00" cy="247.00" r="1.96" fill="#5675c1" opacity="0.8" stroke="#fff" stroke-width="0.7"></circle></g><g class="key-Jamaica_0"><circle cx="348.00" cy="291.00" r="1.95" fill="#a652ba" opacity="0.8" stroke="#fff" stroke-width="0.7"></circle></g><g class="key-Namibia_0"><circle cx="370.00" cy="210.00" r="1.93" fill="#aec7e8" opacity="0.8" stroke="#fff" stroke-width="0.7"></circle></g><g class="key-Lesotho_0"><circle cx="229.00" cy="137.00" r="1.92" fill="#aec7e8" opacity="0.8" stroke="#fff" stroke-width="0.7"></circle></g><g class="key-Latvia_0"><circle cx="461.00" cy="417.00" r="1.92" fill="#ffd336" opacity="0.8" stroke="#fff" stroke-width="0.7"></circle></g><g class="key-Botswana_0"><circle cx="417.00" cy="246.00" r="1.91" fill="#aec7e8" opacity="0.8" stroke="#fff" stroke-width="0.7"></circle></g><g class="key-Macedonia_0"><circle cx="397.00" cy="356.00" r="1.91" fill="#ffd336" opacity="0.8" stroke="#333" stroke-width="0.7"></circle></g><g class="key-Slovenia_0"><circle cx="486.00" cy="486.00" r="1.91" fill="#ffd336" opacity="0.8" stroke="#fff" stroke-width="0.7"></circle></g><g class="key-Qatar_0"><circle cx="640.00" cy="366.00" r="1.91" fill="#4d824b" opacity="0.8" stroke="#333" stroke-width="0.7"></circle></g><g class="key-Gambia_0"><circle cx="170.00" cy="198.00" r="1.90" fill="#aec7e8" opacity="0.8" stroke="#333" stroke-width="0.7"></circle></g><g class="key-Guinea__002dBissau_0"><circle cx="161.00" cy="97.00" r="1.88" fill="#aec7e8" opacity="0.8" stroke="#fff" stroke-width="0.7"></circle></g><g class="key-Gabon_0"><circle cx="427.00" cy="197.00" r="1.88" fill="#aec7e8" opacity="0.8" stroke="#fff" stroke-width="0.7"></circle></g><g class="key-Bahrain_0"><circle cx="531.00" cy="393.00" r="1.87" fill="#4d824b" opacity="0.8" stroke="#fff" stroke-width="0.7"></circle></g><g class="key-Trinidad-and-Tobago_0"><circle cx="495.00" cy="285.00" r="1.87" fill="#a652ba" opacity="0.8" stroke="#333" stroke-width="0.7"></circle></g><g class="key-Estonia_0"><circle cx="480.00" cy="463.00" r="1.87" fill="#ffd336" opacity="0.8" stroke="#fff" stroke-width="0.7"></circle></g><g class="key-Mauritius_0"><circle cx="439.00" cy="322.00" r="1.87" fill="#aec7e8" opacity="0.8" stroke="#fff" stroke-width="0.7"></circle></g><g class="key-Eswatini_0"><circle cx="343.00" cy="179.00" r="1.86" fill="#aec7e8" opacity="0.8" stroke="#333" stroke-width="0.7"></circle></g><g class="key-Cyprus_0"><circle cx="492.00" cy="426.00" r="1.85" fill="#ffd336" opacity="0.8" stroke="#fff" stroke-width="0.7"></circle></g><g class="key-Djibouti_0"><circle cx="245.00" cy="161.00" r="1.84" fill="#4d824b" opacity="0.8" stroke="#fff" stroke-width="0.7"></circle></g><g class="key-Fiji_0"><circle cx="353.00" cy="239.00" r="1.84" fill="#5675c1" opacity="0.8" stroke="#fff" stroke-width="0.7"></circle></g><g class="key-Comoros_0"><circle cx="158.00" cy="201.00" r="1.83" fill="#aec7e8" opacity="0.8" stroke="#fff" stroke-width="0.7"></circle></g><g class="key-Bhutan_0"><circle cx="343.00" cy="201.00" r="1.83" fill="#d14e5b" opacity="0.8" stroke="#333" stroke-width="0.7"></circle></g><g class="key-Equatorial-Guinea_0"><circle cx="480.00" cy="132.00" r="1.83" fill="#aec7e8" opacity="0.8" stroke="#333" stroke-width="0.7"></circle></g><g class="key-Guyana_0"><circle cx="333.00" cy="247.00" r="1.83" fill="#a652ba" opacity="0.8" stroke="#fff" stroke-width="0.7"></circle></g><g class="key-Montenegro_0"><circle cx="417.00" cy="418.00" r="1.82" fill="#ffd336" opacity="0.8" stroke="#fff" stroke-width="0.7"></circle></g><g class="key-Solomon-Islands_0"><circle cx="204.00" cy="282.00" r="1.82" fill="#5675c1" opacity="0.8" stroke="#333" stroke-width="0.7"></circle></g><g class="key-Suriname_0"><circle cx="413.00" cy="236.00" r="1.82" fill="#a652ba" opacity="0.8" stroke="#fff" stroke-width="0.7"></circle></g><g class="key-Luxembourg_0"><circle cx="614.00" cy="488.00" r="1.82" fill="#ffd336" opacity="0.8" stroke="#fff" stroke-width="0.7"></circle></g><g class="key-Cape-Verde_0"><circle cx="314.00" cy="247.00" r="1.81" fill="#aec7e8" opacity="0.8" stroke="#fff" stroke-width="0.7"></circle></g><g class="key-Malta_0"><circle cx="504.00" cy="399.00" r="1.81" fill="#4d824b" opacity="0.8" stroke="#fff" stroke-width="0.7"></circle></g><g class="key-Brunei_0"><circle cx="588.00" cy="363.00" r="1.81" fill="#5675c1" opacity="0.8" stroke="#fff" stroke-width="0.7"></circle></g><g class="key-Bahamas_0"><circle cx="484.00" cy="302.00" r="1.80" fill="#a652ba" opacity="0.8" stroke="#fff" stroke-width="0.7"></circle></g><g class="key-Iceland_0"><circle cx="529.00" cy="512.00" r="1.80" fill="#ffd336" opacity="0.8" stroke="#fff" stroke-width="0.7"></circle></g><g class="key-Belize_0"><circle cx="348.00" cy="300.00" r="1.80" fill="#a652ba" opacity="0.8" stroke="#fff" stroke-width="0.7"></circle></g><g class="key-Maldives_0"><circle cx="405.00" cy="329.00" r="1.80" fill="#d14e5b" opacity="0.8" stroke="#fff" stroke-width="0.7"></circle></g><g class="key-Barbados_0"><circle cx="425.00" cy="302.00" r="1.80" fill="#a652ba" opacity="0.8" stroke="#fff" stroke-width="0.7"></circle></g><g class="key-Vanuatu_0"><circle cx="233.00" cy="251.00" r="1.80" fill="#5675c1" opacity="0.8" stroke="#fff" stroke-width="0.7"></circle></g><g class="key-Samoa_0"><circle cx="307.00" cy="365.00" r="1.79" fill="#5675c1" opacity="0.8" stroke="#333" stroke-width="0.7"></circle></g><g class="key-Saint-Lucia_0"><circle cx="378.00" cy="294.00" r="1.79" fill="#a652ba" opacity="0.8" stroke="#fff" stroke-width="0.7"></circle></g><g class="key-Sao-Tome-and-Principe_0"><circle cx="238.00" cy="216.00" r="1.79" fill="#aec7e8" opacity="0.8" stroke="#fff" stroke-width="0.7"></circle></g><g class="key-Saint-Vincent-and-the-Grenadines_0"><circle cx="375.00" cy="272.00" r="1.79" fill="#a652ba" opacity="0.8" stroke="#fff" stroke-width="0.7"></circle></g><g class="key-Grenada_0"><circle cx="397.00" cy="304.00" r="1.79" fill="#a652ba" opacity="0.8" stroke="#fff" stroke-width="0.7"></circle></g><g class="key-Tonga_0"><circle cx="299.00" cy="293.00" r="1.79" fill="#5675c1" opacity="0.8" stroke="#333" stroke-width="0.7"></circle></g><g class="key-Kiribati_0"><circle cx="194.00" cy="213.00" r="1.79" fill="#5675c1" opacity="0.8" stroke="#fff" stroke-width="0.7"></circle></g><g class="key-Antigua-and-Barbuda_0"><circle cx="447.00" cy="326.00" r="1.79" fill="#a652ba" opacity="0.8" stroke="#fff" stroke-width="0.7"></circle></g><g class="key-Seychelles_0"><circle cx="469.00" cy="345.00" r="1.79" fill="#aec7e8" opacity="0.8" stroke="#333" stroke-width="0.7"></circle></g><g class="key-Dominica_0"><circle cx="370.00" cy="253.00" r="1.79" fill="#a652ba" opacity="0.8" stroke="#fff" stroke-width="0.7"></circle></g><g class="key-Bermuda_0"><circle cx="547.00" cy="436.00" r="1.79" fill="#69c487" opacity="0.8" stroke="#fff" stroke-width="0.7"></circle></g><g class="key-Marshall-Islands_0"><circle cx="262.00" cy="287.00" r="1.78" fill="#5675c1" opacity="0.8" stroke="#fff" stroke-width="0.7"></circle></g><g class="key-World_0"><circle cx="413.00" cy="208.00" r="1.78" fill="#000" opacity="0.8" stroke="#fff" stroke-width="0.7"></circle></g><g class="key-Timor_0"><circle cx="204.00" cy="215.00" r="1.78" fill="#5675c1" opacity="0.8" stroke="#fff" stroke-width="0.7"></circle></g><g class="key-Micronesia-__0028country__0029_0"><circle cx="249.00" cy="337.00" r="1.78" fill="#000" opacity="0.8" stroke="#fff" stroke-width="0.7"></circle></g><g class="key-Palestine_0"><circle cx="289.00" cy="296.00" r="1.78" fill="#4d824b" opacity="0.8" stroke="#fff" stroke-width="0.7"></circle></g><g class="key-Yemen_0"><circle cx="212.00" cy="182.00" r="1.78" fill="#4d824b" opacity="0.8" stroke="#fff" stroke-width="0.7"></circle></g><g fill="#333" class="backgroundLabels"><text x="404.00" y="311.16" font-size="14.30">China</text><text x="311.00" y="172.71" font-size="14.10">India</text><text x="551.00" y="393.22" font-size="11.77">United States</text><text x="374.00" y="255.22" font-size="11.60">Indonesia</text><text x="412.00" y="289.96" font-size="11.49">Brazil</text><text x="289.00" y="157.24" font-size="11.44">Pakistan</text><text x="309.00" y="107.46" font-size="11.41">Nigeria</text><text x="245.00" y="206.76" font-size="11.37">Bangladesh</text><text x="466.00" y="357.98" font-size="11.35">Russia</text><text x="515.00" y="475.30" font-size="11.31">Japan</text><text x="307.00" y="315.08" font-size="11.22">Vietnam</text><text x="167.00" y="164.14" font-size="11.21">Ethiopia</text><text x="372.00" y="268.21" font-size="11.21">Egypt</text><text x="531.00" y="450.30" font-size="11.20">Germany</text><text x="463.00" y="294.46" font-size="11.18">Turkey</text><text x="98.00" y="125.56" font-size="11.17">Democratic Republic of Congo</text><text x="416.00" y="403.59" font-size="11.17">Thailand</text><text x="518.00" y="422.78" font-size="11.15">United Kingdom</text><text x="504.00" y="463.84" font-size="11.15">Italy</text><text x="394.00" y="201.13" font-size="11.12">South Africa</text><text x="220.00" y="165.18" font-size="11.12">Tanzania</text><text x="297.00" y="227.18" font-size="11.12">Myanmar</text><text x="339.00" y="350.32" font-size="11.11">Ukraine</text><text x="234.00" y="182.35" font-size="11.11">Kenya</text><text x="441.00" y="323.42" font-size="11.10">Argentina</text><text x="471.00" y="427.53" font-size="11.09">Poland</text><text x="176.00" y="151.58" font-size="11.09">Uganda</text><text x="212.00" y="214.76" font-size="11.08">Nepal</text><text x="470.00" y="390.83" font-size="11.07">Malaysia</text><text x="547.00" y="332.84" font-size="11.07">Saudi Arabia</text><text x="310.00" y="257.88" font-size="11.07">Uzbekistan</text><text x="269.00" y="173.96" font-size="11.06">Ghana</text><text x="133.00" y="140.00" font-size="11.06">Mozambique</text><text x="382.00" y="369.15" font-size="11.05">Sri Lanka</text><text x="250.00" y="125.17" font-size="11.05">Cameroon</text><text x="319.00" y="139.18" font-size="11.05">Angola</text><text x="172.00" y="105.29" font-size="11.04">Burkina Faso</text><text x="459.00" y="375.31" font-size="11.04">Chile</text><text x="110.00" y="102.32" font-size="11.04">Niger</text><text x="466.00" y="459.59" font-size="11.03">Greece</text><text x="492.00" y="488.63" font-size="11.03">Czech Republic</text><text x="324.00" y="238.64" font-size="11.03">Bolivia</text><text x="426.00" y="237.68" font-size="11.02">Azerbaijan</text><text x="90.00" y="141.71" font-size="11.02">Burundi</text><text x="470.98" y="408.75" font-size="11.02">United Arab Emirates</text><text x="497.00" y="444.77" font-size="11.02">Israel</text><text x="560.00" y="438.77" font-size="11.02">Switzerland</text><text x="226.00" y="227.80" font-size="11.02">Tajikistan</text><text x="355.00" y="288.82" font-size="11.02">Paraguay</text><text x="353.00" y="308.83" font-size="11.02">Jordan</text><text x="332.00" y="335.85" font-size="11.02">El Salvador</text><text x="248.00" y="240.89" font-size="11.01">Kyrgyzstan</text><text x="547.56" y="502.90" font-size="11.01">Singapore</text><text x="572.00" y="479.92" font-size="11.01">Norway</text><text x="290.00" y="342.00" font-size="11.01">Moldova</text><text x="579.00" y="368.04" font-size="11.01">Kuwait</text><text x="521.00" y="355.04" font-size="11.01">Oman</text><text x="397.00" y="353.09" font-size="11.00">Macedonia</text><text x="612.38" y="363.09" font-size="11.00">Qatar</text><text x="170.00" y="195.10" font-size="11.00">Gambia</text><text x="495.00" y="282.13" font-size="11.00">Trinidad and Tobago</text><text x="343.00" y="176.14" font-size="11.00">Eswatini</text><text x="343.00" y="198.17" font-size="11.00">Bhutan</text><text x="480.00" y="129.17" font-size="11.00">Equatorial Guinea</text><text x="204.00" y="279.18" font-size="11.00">Solomon Islands</text><text x="307.00" y="362.21" font-size="11.00">Samoa</text><text x="299.00" y="290.21" font-size="11.00">Tonga</text><text x="469.00" y="342.21" font-size="11.00">Seychelles</text></g></g><g style="cursor: pointer;" class="ScatterColorLegend clickable"><g class="legendMark"><rect x="660.2" y="89.6" width="129.81799999999998" height="17.6" fill="#fff" opacity="0"></rect>,<rect x="660.2" y="95.1" width="6" height="6" fill="#5675c1"></rect>,<text font-size="12.60" x="671.2" y="102.2"><tspan x="671.2" y="102.17999999999999">East Asia and Pacific</tspan></text></g><g class="legendMark"><rect x="660.2" y="107.19999999999999" width="121.376" height="17.6" fill="#fff" opacity="0"></rect>,<rect x="660.2" y="112.69999999999999" width="6" height="6" fill="#aec7e8"></rect>,<text font-size="12.60" x="671.2" y="119.8"><tspan x="671.2" y="119.77999999999999">Sub-Saharan Africa</tspan></text></g><g class="legendMark"><rect x="660.2" y="124.8" width="72.23599999999999" height="17.6" fill="#fff" opacity="0"></rect>,<rect x="660.2" y="130.3" width="6" height="6" fill="#d14e5b"></rect>,<text font-size="12.60" x="671.2" y="137.4"><tspan x="671.2" y="137.38">South Asia</tspan></text></g><g class="legendMark"><rect x="660.2" y="142.4" width="148.844" height="17.6" fill="#fff" opacity="0"></rect>,<rect x="660.2" y="147.9" width="6" height="6" fill="#ffd336"></rect>,<text font-size="12.60" x="671.2" y="155.0"><tspan x="671.2" y="154.98">Europe and Central Asia</tspan></text></g><g class="legendMark"><rect x="660.2" y="160" width="171.90200000000002" height="17.6" fill="#fff" opacity="0"></rect>,<rect x="660.2" y="165.5" width="6" height="6" fill="#4d824b"></rect>,<text font-size="12.60" x="671.2" y="172.6"><tspan x="671.2" y="172.57999999999998">Middle East and North Africa</tspan></text></g><g class="legendMark"><rect x="660.2" y="177.6" width="174.8" height="17.6" fill="#fff" opacity="0"></rect>,<rect x="660.2" y="183.1" width="6" height="6" fill="#a652ba"></rect>,<text font-size="12.60" x="671.2" y="190.2"><tspan x="671.2" y="190.17999999999998">Latin America and Caribbean</tspan></text></g><g class="legendMark"><rect x="660.2" y="195.2" width="91.64" height="17.6" fill="#fff" opacity="0"></rect>,<rect x="660.2" y="200.7" width="6" height="6" fill="#69c487"></rect>,<text font-size="12.60" x="671.2" y="207.8"><tspan x="671.2" y="207.77999999999997">North America</tspan></text></g></g></g><g style="fill: #777;" class="SourcesFooter"><g style="fill: #777;" class="clickable"><text font-size="12.60" x="15.0" y="581.6"><tspan x="15" y="581.58">Source: under 5 mortality rate - IHME (2017), World Bank</tspan></text></g><text font-size="12.60" x="775.4" y="581.6"><tspan x="775.402" y="581.58"><a style="fill: #777;" class="cclogo" href="http://creativecommons.org/licenses/by-sa/4.0/deed.en_US" target="_blank">CC BY-SA</a></tspan></text></g></g></svg>