<svg xmlns="http://www.w3.org/2000/svg" version="1.1" style="font-family: 'Helvetica Neue', Helvetica, Arial, sans-serif; font-size: 18px; background-color: white; text-rendering: optimizeLegibility; -webkit-font-smoothing: antialiased;" width="850" height="600"><g class="ChartTab"><g class="HeaderView"><g opacity="0.8" transform="translate(778, 15) scale(0.27)"><a xmlns:xlink="http://www.w3.org/1999/xlink" xlink:href="https://ourworldindata.org" target="_blank"><g><rect x="0" y="0" fill="#1B2543" width="211.2" height="130.1"/><rect x="0" y="112.2" fill="#E63912" width="211.2" height="17.9"/><g><rect x="1.2" y="12.3" fill="none" width="210.2" height="99.2"/><path fill="#FFFFFF" d="M37.8,32.2c0,12.7-7.7,19.4-17.1,19.4c-9.7,0-16.6-7.5-16.6-18.7c0-11.7,7.3-19.3,17.1-19.3 C31.3,13.7,37.8,21.3,37.8,32.2z M9.2,32.8c0,7.9,4.3,14.9,11.8,14.9c7.5,0,11.8-6.9,11.8-15.3c0-7.3-3.8-14.9-11.8-14.9 C13.1,17.5,9.2,24.8,9.2,32.8z"/><path fill="#FFFFFF" d="M62.7,43.8c0,2.7,0.1,5.1,0.2,7.2h-4.3l-0.3-4.3h-0.1c-1.3,2.1-4,4.9-8.8,4.9c-4.2,0-9.1-2.3-9.1-11.6 V24.6h4.8v14.6c0,5,1.5,8.4,5.9,8.4c3.2,0,5.5-2.2,6.3-4.4c0.3-0.7,0.4-1.6,0.4-2.5V24.6h4.8V43.8z"/><path fill="#FFFFFF" d="M67.3,32.8c0-3.1-0.1-5.8-0.2-8.2h4.2l0.2,5.2h0.2c1.2-3.5,4.1-5.8,7.3-5.8c0.5,0,0.9,0.1,1.4,0.2v4.5 c-0.5-0.1-1-0.2-1.6-0.2c-3.4,0-5.8,2.6-6.5,6.2c-0.1,0.7-0.2,1.4-0.2,2.2V51h-4.8V32.8z"/><path fill="#FFFFFF" d="M95.4,51l-9.4-36.8h5l4.4,18.6c1.1,4.6,2.1,9.2,2.7,12.7h0.1c0.6-3.7,1.8-8,3-12.8l4.9-18.5h5l4.5,18.7 c1,4.4,2,8.7,2.6,12.6h0.1c0.8-4,1.8-8.1,3-12.7l4.9-18.5h4.9L120.6,51h-5L111,31.9c-1.1-4.7-1.9-8.3-2.4-12h-0.1 c-0.7,3.7-1.5,7.3-2.8,12L100.4,51H95.4z"/><path fill="#FFFFFF" d="M154.9,37.6c0,9.8-6.8,14-13.2,14c-7.2,0-12.7-5.2-12.7-13.6c0-8.8,5.8-14,13.1-14 C149.8,24,154.9,29.5,154.9,37.6z M133.9,37.9c0,5.8,3.3,10.1,8,10.1c4.6,0,8-4.3,8-10.3c0-4.5-2.2-10.1-7.9-10.1 C136.3,27.6,133.9,32.8,133.9,37.9z"/><path fill="#FFFFFF" d="M158.2,32.8c0-3.1-0.1-5.8-0.2-8.2h4.2l0.2,5.2h0.2c1.2-3.5,4.1-5.8,7.3-5.8c0.5,0,0.9,0.1,1.4,0.2v4.5 c-0.5-0.1-1-0.2-1.6-0.2c-3.4,0-5.8,2.6-6.5,6.2c-0.1,0.7-0.2,1.4-0.2,2.2V51h-4.8V32.8z"/><path fill="#FFFFFF" d="M173.5,12.3h4.8V51h-4.8V12.3z"/><path fill="#FFFFFF" d="M206.5,12.3v31.9c0,2.3,0.1,5,0.2,6.8h-4.3l-0.2-4.6H202c-1.5,2.9-4.7,5.2-9,5.2 c-6.4,0-11.3-5.4-11.3-13.4c-0.1-8.8,5.4-14.2,11.9-14.2c4,0,6.8,1.9,8,4h0.1V12.3H206.5z M201.7,35.4c0-0.6-0.1-1.4-0.2-2 c-0.7-3.1-3.3-5.6-6.9-5.6c-5,0-7.9,4.4-7.9,10.2c0,5.3,2.6,9.8,7.8,9.8c3.2,0,6.2-2.1,7.1-5.7c0.2-0.7,0.2-1.3,0.2-2.1V35.4z"/><path fill="#FFFFFF" d="M42.8,64c0.1,1.6-1.1,2.9-3.1,2.9c-1.7,0-2.9-1.3-2.9-2.9c0-1.7,1.3-3,3-3C41.7,61,42.8,62.3,42.8,64z M37.4,97.8V71.4h4.8v26.4H37.4z"/><path fill="#FFFFFF" d="M47.5,78.6c0-2.7-0.1-5-0.2-7.1h4.3l0.3,4.4h0.1c1.3-2.5,4.4-5,8.8-5c3.7,0,9.4,2.2,9.4,11.2v15.8h-4.8 V82.6c0-4.3-1.6-7.8-6.1-7.8c-3.2,0-5.6,2.2-6.5,4.9c-0.2,0.6-0.3,1.4-0.3,2.2v15.9h-4.8V78.6z"/><path fill="#FFFFFF" d="M84,61.6c2.9-0.4,6.3-0.8,10.1-0.8c6.8,0,11.7,1.6,14.9,4.6c3.3,3,5.2,7.3,5.2,13.2c0,6-1.9,10.9-5.3,14.3 c-3.4,3.4-9.1,5.3-16.3,5.3c-3.4,0-6.2-0.2-8.6-0.4V61.6z M88.8,94.1c1.2,0.2,3,0.3,4.8,0.3c10.2,0,15.7-5.7,15.7-15.6 c0.1-8.7-4.9-14.2-14.9-14.2c-2.5,0-4.3,0.2-5.6,0.5V94.1z"/><path fill="#FFFFFF" d="M132.1,97.8l-0.4-3.3h-0.2c-1.5,2.1-4.3,3.9-8.1,3.9c-5.4,0-8.1-3.8-8.1-7.6c0-6.4,5.7-9.9,15.9-9.8v-0.5 c0-2.2-0.6-6.1-6-6.1c-2.5,0-5,0.8-6.9,2l-1.1-3.2c2.2-1.4,5.4-2.3,8.7-2.3c8.1,0,10.1,5.5,10.1,10.8v9.9c0,2.3,0.1,4.5,0.4,6.3 H132.1z M131.4,84.4c-5.3-0.1-11.2,0.8-11.2,5.9c0,3.1,2.1,4.6,4.5,4.6c3.4,0,5.6-2.2,6.4-4.4c0.2-0.5,0.3-1,0.3-1.5V84.4z"/><path fill="#FFFFFF" d="M146.6,63.9v7.6h6.9v3.7h-6.9v14.2c0,3.3,0.9,5.1,3.6,5.1c1.3,0,2.2-0.2,2.8-0.3l0.2,3.6 c-0.9,0.4-2.4,0.7-4.3,0.7c-2.2,0-4-0.7-5.2-2c-1.4-1.4-1.9-3.8-1.9-6.9V75.1h-4.1v-3.7h4.1v-6.3L146.6,63.9z"/><path fill="#FFFFFF" d="M171.4,97.8l-0.4-3.3h-0.2c-1.5,2.1-4.3,3.9-8.1,3.9c-5.4,0-8.1-3.8-8.1-7.6c0-6.4,5.7-9.9,15.9-9.8v-0.5 c0-2.2-0.6-6.1-6-6.1c-2.5,0-5,0.8-6.9,2l-1.1-3.2c2.2-1.4,5.4-2.3,8.7-2.3c8.1,0,10.1,5.5,10.1,10.8v9.9c0,2.3,0.1,4.5,0.4,6.3 H171.4z M170.7,84.4c-5.3-0.1-11.2,0.8-11.2,5.9c0,3.1,2.1,4.6,4.5,4.6c3.4,0,5.6-2.2,6.4-4.4c0.2-0.5,0.3-1,0.3-1.5V84.4z"/></g></g></a></g><a href="https://ourworldindata.org/grapher/child-mortality-byvs-level-of-prosperity-regression" target="_blank"><text font-size="25.20" x="15.0" y="35.2" fill="#555"><tspan x="15" y="35.160000000000004">Child mortality vs level of prosperity, 2015</tspan></text></a><text font-size="14.40" x="15.0" y="53.7" fill="#666"><tspan x="15" y="53.72">Countries below the grey line achieve better child health than predicted by their income. Countries above the line</tspan><tspan x="15" y="69.56">achieve better health than predicted.</tspan></text></g><g><g class="AxisBoxView"><g class="HorizontalAxis"><text font-size="12.60" x="264.4" y="554.0"><tspan x="264.411" y="553.98">GDP per capita (int.-$)</tspan></text><text x="121.4" y="533.9" fill="#666" text-anchor="middle" font-size="16.2">$1,000</text><text x="371" y="533.9" fill="#666" text-anchor="middle" font-size="16.2">$10,000</text><text x="620.7" y="533.9" fill="#666" text-anchor="middle" font-size="16.2">$100,000</text></g><g class="VerticalAxis"><text font-size="12.60" x="-396.9" y="25.1" transform="rotate(-90)"><tspan x="-396.93899999999996" y="25.080000000000002">Child mortality (per 1,000)</tspan></text><text x="64.82" y="359.7" fill="#666" dominant-baseline="middle" text-anchor="end" font-size="16.2">10</text><text x="64.82" y="120" fill="#666" dominant-baseline="middle" text-anchor="end" font-size="16.2">100</text></g><g class="AxisGridLines"><line x1="69.82" y1="359.7" x2="640.20" y2="359.7" stroke="#ddd" stroke-dasharray="3,2"></line><line x1="69.82" y1="120" x2="640.20" y2="120" stroke="#ddd" stroke-dasharray="3,2"></line></g><g class="AxisGridLines"><line x1="121.4" y1="512.70" x2="121.4" y2="92.10" stroke="#ddd" stroke-dasharray="3,2"></line><line x1="371" y1="512.70" x2="371" y2="92.10" stroke="#ddd" stroke-dasharray="3,2"></line><line x1="620.7" y1="512.70" x2="620.7" y2="92.10" stroke="#ddd" stroke-dasharray="3,2"></line></g></g><g class="ComparisonLine"><defs><clipPath id="axisBounds-135"><rect x="69.816" y="92.1" width="570.384" height="420.59999999999997"></rect></clipPath></defs><path d="M69.8,68.6L185.9,156.4L240.6,197.9L276.8,225.3L303.9,245.8L325.6,262.1L343.6,275.8L359.1,287.5L372.6,297.7L384.7,306.8L395.5,315L405.3,322.5L414.4,329.3L422.7,335.6L430.4,341.5L437.7,346.9L444.4,352L450.8,356.9L456.8,361.4L462.5,365.7L467.9,369.8L473.1,373.7L478,377.4L482.7,381L487.2,384.4L491.6,387.7L495.7,390.9L499.8,393.9L503.6,396.8L507.4,399.6L511,402.4L514.5,405L517.9,407.6L521.1,410.1L524.3,412.5L527.4,414.8L530.4,417.1L533.4,419.3L536.2,421.5L539,423.6L541.7,425.6L544.3,427.6L546.9,429.6L549.4,431.5L551.9,433.3L554.3,435.2L556.7,436.9L559,438.7L561.2,440.4L563.4,442.1L565.6,443.7L567.7,445.3L569.8,446.9L571.9,448.4L573.9,450L575.8,451.5L577.8,452.9L579.7,454.4L581.5,455.8L583.4,457.2L585.2,458.5L587,459.9L588.7,461.2L590.4,462.5L592.1,463.8L593.8,465L595.4,466.3L597.1,467.5L598.7,468.7L600.2,469.9L601.8,471.1L603.3,472.2L604.8,473.4L606.3,474.5L607.8,475.6L609.2,476.7L610.6,477.8L612,478.8L613.4,479.9L614.8,480.9L616.1,481.9L617.5,483L618.8,484L620.1,484.9L621.4,485.9L622.7,486.9L623.9,487.8L625.2,488.8L626.4,489.7L627.6,490.6L628.8,491.5L630,492.5L631.2,493.3L632.4,494.2L633.5,495.1L634.7,496L635.8,496.8L636.9,497.7L638,498.5L639.1,499.3" clip-path="url(#axisBounds-135)" fill="none" stroke="#ccc"></path></g><g clip-path="url(#scatterBounds-136)" font-family="Arial Narrow, Arial, sans-serif" class="PointsWithLabels clickable"><rect x="69.816" y="92.1" width="570.384" height="420.59999999999997" fill="rgba(255,255,255,0)"></rect><defs><clipPath id="scatterBounds-136"><rect x="59.816" y="82.1" width="590.384" height="440.59999999999997"></rect></clipPath></defs><g class="key-China_0"><circle cx="404.00" cy="351.00" r="17.84" fill="#5675c1" opacity="0.8" stroke="#333" stroke-width="0.7"></circle></g><g class="key-India_0"><circle cx="311.00" cy="205.00" r="17.29" fill="#d14e5b" opacity="0.8" stroke="#333" stroke-width="0.7"></circle></g><g class="key-United-States_0"><circle cx="551.00" cy="399.00" r="8.78" fill="#69c487" opacity="0.8" stroke="#333" stroke-width="0.7"></circle></g><g class="key-Indonesia_0"><circle cx="374.00" cy="255.00" r="7.78" fill="#5675c1" opacity="0.8" stroke="#333" stroke-width="0.7"></circle></g><g class="key-Brazil_0"><circle cx="412.00" cy="312.00" r="7.04" fill="#a652ba" opacity="0.8" stroke="#333" stroke-width="0.7"></circle></g><g class="key-Pakistan_0"><circle cx="289.00" cy="143.00" r="6.76" fill="#d14e5b" opacity="0.8" stroke="#333" stroke-width="0.7"></circle></g><g class="key-Nigeria_0"><circle cx="309.00" cy="112.00" r="6.54" fill="#aec7e8" opacity="0.8" stroke="#333" stroke-width="0.7"></circle></g><g class="key-Bangladesh_0"><circle cx="245.00" cy="225.00" r="6.24" fill="#d14e5b" opacity="0.8" stroke="#333" stroke-width="0.7"></circle></g><g class="key-Russia_0"><circle cx="466.00" cy="364.00" r="6.02" fill="#ffd336" opacity="0.8" stroke="#333" stroke-width="0.7"></circle></g><g class="key-Japan_0"><circle cx="515.00" cy="485.00" r="5.70" fill="#5675c1" opacity="0.8" stroke="#333" stroke-width="0.7"></circle></g><g class="key-Mexico_0"><circle cx="428.00" cy="318.00" r="5.51" fill="#a652ba" opacity="0.8" stroke="#fff" stroke-width="0.7"></circle></g><g class="key-Philippines_0"><circle cx="330.00" cy="248.00" r="5.09" fill="#5675c1" opacity="0.8" stroke="#fff" stroke-width="0.7"></circle></g><g class="key-Vietnam_0"><circle cx="307.00" cy="279.00" r="4.92" fill="#5675c1" opacity="0.8" stroke="#333" stroke-width="0.7"></circle></g><g class="key-Ethiopia_0"><circle cx="167.00" cy="166.00" r="4.86" fill="#aec7e8" opacity="0.8" stroke="#333" stroke-width="0.7"></circle></g><g class="key-Egypt_0"><circle cx="372.00" cy="269.00" r="4.79" fill="#4d824b" opacity="0.8" stroke="#333" stroke-width="0.7"></circle></g><g class="key-Germany_0"><circle cx="531.00" cy="457.00" r="4.71" fill="#ffd336" opacity="0.8" stroke="#333" stroke-width="0.7"></circle></g><g class="key-Iran_0"><circle cx="425.00" cy="310.00" r="4.57" fill="#4d824b" opacity="0.8" stroke="#fff" stroke-width="0.7"></circle></g><g class="key-Turkey_0"><circle cx="463.00" cy="329.00" r="4.54" fill="#ffd336" opacity="0.8" stroke="#333" stroke-width="0.7"></circle></g><g class="key-Democratic-Republic-of-Congo_0"><circle cx="98.00" cy="122.00" r="4.44" fill="#aec7e8" opacity="0.8" stroke="#333" stroke-width="0.7"></circle></g><g class="key-Thailand_0"><circle cx="416.00" cy="355.00" r="4.41" fill="#5675c1" opacity="0.8" stroke="#333" stroke-width="0.7"></circle></g><g class="key-France_0"><circle cx="515.00" cy="450.00" r="4.24" fill="#ffd336" opacity="0.8" stroke="#fff" stroke-width="0.7"></circle></g><g class="key-United-Kingdom_0"><circle cx="518.00" cy="442.00" r="4.22" fill="#ffd336" opacity="0.8" stroke="#333" stroke-width="0.7"></circle></g><g class="key-Italy_0"><circle cx="504.00" cy="469.00" r="4.16" fill="#ffd336" opacity="0.8" stroke="#333" stroke-width="0.7"></circle></g><g class="key-South-Africa_0"><circle cx="394.00" cy="214.00" r="3.87" fill="#aec7e8" opacity="0.8" stroke="#333" stroke-width="0.7"></circle></g><g class="key-Tanzania_0"><circle cx="220.00" cy="176.00" r="3.82" fill="#aec7e8" opacity="0.8" stroke="#333" stroke-width="0.7"></circle></g><g class="key-Myanmar_0"><circle cx="297.00" cy="187.00" r="3.82" fill="#5675c1" opacity="0.8" stroke="#fff" stroke-width="0.7"></circle></g><g class="key-South-Korea_0"><circle cx="504.00" cy="469.00" r="3.81" fill="#5675c1" opacity="0.8" stroke="#fff" stroke-width="0.7"></circle></g><g class="key-Colombia_0"><circle cx="399.00" cy="312.00" r="3.79" fill="#a652ba" opacity="0.8" stroke="#fff" stroke-width="0.7"></circle></g><g class="key-Spain_0"><circle cx="498.00" cy="478.00" r="3.75" fill="#ffd336" opacity="0.8" stroke="#fff" stroke-width="0.7"></circle></g><g class="key-Ukraine_0"><circle cx="339.00" cy="366.00" r="3.68" fill="#ffd336" opacity="0.8" stroke="#333" stroke-width="0.7"></circle></g><g class="key-Kenya_0"><circle cx="234.00" cy="194.00" r="3.66" fill="#aec7e8" opacity="0.8" stroke="#333" stroke-width="0.7"></circle></g><g class="key-Argentina_0"><circle cx="441.00" cy="346.00" r="3.58" fill="#a652ba" opacity="0.8" stroke="#fff" stroke-width="0.7"></circle></g><g class="key-Poland_0"><circle cx="471.00" cy="434.00" r="3.47" fill="#ffd336" opacity="0.8" stroke="#333" stroke-width="0.7"></circle></g><g class="key-Algeria_0"><circle cx="405.00" cy="264.00" r="3.43" fill="#4d824b" opacity="0.8" stroke="#333" stroke-width="0.7"></circle></g><g class="key-Uganda_0"><circle cx="176.00" cy="181.00" r="3.42" fill="#aec7e8" opacity="0.8" stroke="#333" stroke-width="0.7"></circle></g><g class="key-Sudan_0"><circle cx="279.00" cy="161.00" r="3.39" fill="#aec7e8" opacity="0.8" stroke="#333" stroke-width="0.7"></circle></g><g class="key-Canada_0"><circle cx="529.00" cy="425.00" r="3.36" fill="#69c487" opacity="0.8" stroke="#333" stroke-width="0.7"></circle></g><g class="key-Iraq_0"><circle cx="415.00" cy="237.00" r="3.35" fill="#4d824b" opacity="0.8" stroke="#333" stroke-width="0.7"></circle></g><g class="key-Afghanistan_0"><circle cx="185.00" cy="152.00" r="3.34" fill="#d14e5b" opacity="0.8" stroke="#333" stroke-width="0.7"></circle></g><g class="key-Morocco_0"><circle cx="336.00" cy="262.00" r="3.29" fill="#4d824b" opacity="0.8" stroke="#fff" stroke-width="0.7"></circle></g><g class="key-Nepal_0"><circle cx="212.00" cy="224.00" r="3.24" fill="#d14e5b" opacity="0.8" stroke="#333" stroke-width="0.7"></circle></g><g class="key-Venezuela_0"><circle cx="426.00" cy="275.00" r="3.20" fill="#a652ba" opacity="0.8" stroke="#333" stroke-width="0.7"></circle></g><g class="key-Peru_0"><circle cx="388.00" cy="309.00" r="3.19" fill="#a652ba" opacity="0.8" stroke="#333" stroke-width="0.7"></circle></g><g class="key-Malaysia_0"><circle cx="470.00" cy="388.00" r="3.18" fill="#5675c1" opacity="0.8" stroke="#333" stroke-width="0.7"></circle></g><g class="key-Saudi-Arabia_0"><circle cx="547.00" cy="377.00" r="3.16" fill="#4d824b" opacity="0.8" stroke="#333" stroke-width="0.7"></circle></g><g class="key-Uzbekistan_0"><circle cx="310.00" cy="261.00" r="3.12" fill="#ffd336" opacity="0.8" stroke="#333" stroke-width="0.7"></circle></g><g class="key-Ghana_0"><circle cx="269.00" cy="182.00" r="3.04" fill="#aec7e8" opacity="0.8" stroke="#333" stroke-width="0.7"></circle></g><g class="key-Mozambique_0"><circle cx="133.00" cy="145.00" r="3.00" fill="#aec7e8" opacity="0.8" stroke="#fff" stroke-width="0.7"></circle></g><g class="key-Australia_0"><circle cx="531.00" cy="460.00" r="2.93" fill="#5675c1" opacity="0.8" stroke="#fff" stroke-width="0.7"></circle></g><g class="key-Madagascar_0"><circle cx="156.00" cy="196.00" r="2.90" fill="#aec7e8" opacity="0.8" stroke="#333" stroke-width="0.7"></circle></g><g class="key-Sri-Lanka_0"><circle cx="382.00" cy="365.00" r="2.85" fill="#d14e5b" opacity="0.8" stroke="#333" stroke-width="0.7"></circle></g><g class="key-Romania_0"><circle cx="449.00" cy="368.00" r="2.85" fill="#ffd336" opacity="0.8" stroke="#fff" stroke-width="0.7"></circle></g><g class="key-Cote-d__0027Ivoire_0"><circle cx="248.00" cy="125.00" r="2.84" fill="#aec7e8" opacity="0.8" stroke="#fff" stroke-width="0.7"></circle></g><g class="key-Cameroon_0"><circle cx="250.00" cy="130.00" r="2.83" fill="#aec7e8" opacity="0.8" stroke="#fff" stroke-width="0.7"></circle></g><g class="key-Angola_0"><circle cx="319.00" cy="132.00" r="2.83" fill="#aec7e8" opacity="0.8" stroke="#fff" stroke-width="0.7"></circle></g><g class="key-Burkina-Faso_0"><circle cx="172.00" cy="132.00" r="2.71" fill="#aec7e8" opacity="0.8" stroke="#333" stroke-width="0.7"></circle></g><g class="key-Chile_0"><circle cx="459.00" cy="384.00" r="2.69" fill="#a652ba" opacity="0.8" stroke="#fff" stroke-width="0.7"></circle></g><g class="key-Niger_0"><circle cx="110.00" cy="127.00" r="2.68" fill="#aec7e8" opacity="0.8" stroke="#fff" stroke-width="0.7"></circle></g><g class="key-Mali_0"><circle cx="192.00" cy="106.00" r="2.66" fill="#aec7e8" opacity="0.8" stroke="#333" stroke-width="0.7"></circle></g><g class="key-Netherlands_0"><circle cx="537.00" cy="455.00" r="2.66" fill="#ffd336" opacity="0.8" stroke="#fff" stroke-width="0.7"></circle></g><g class="key-Kazakhstan_0"><circle cx="463.00" cy="340.00" r="2.65" fill="#ffd336" opacity="0.8" stroke="#333" stroke-width="0.7"></circle></g><g class="key-Malawi_0"><circle cx="130.00" cy="170.00" r="2.64" fill="#aec7e8" opacity="0.8" stroke="#333" stroke-width="0.7"></circle></g><g class="key-Guatemala_0"><circle cx="336.00" cy="246.00" r="2.60" fill="#a652ba" opacity="0.8" stroke="#fff" stroke-width="0.7"></circle></g><g class="key-Ecuador_0"><circle cx="378.00" cy="316.00" r="2.58" fill="#a652ba" opacity="0.8" stroke="#fff" stroke-width="0.7"></circle></g><g class="key-Cambodia_0"><circle cx="250.00" cy="238.00" r="2.56" fill="#5675c1" opacity="0.8" stroke="#333" stroke-width="0.7"></circle></g><g class="key-Zambia_0"><circle cx="261.00" cy="165.00" r="2.55" fill="#aec7e8" opacity="0.8" stroke="#fff" stroke-width="0.7"></circle></g><g class="key-Senegal_0"><circle cx="211.00" cy="192.00" r="2.51" fill="#aec7e8" opacity="0.8" stroke="#fff" stroke-width="0.7"></circle></g><g class="key-Zimbabwe_0"><circle cx="191.00" cy="178.00" r="2.50" fill="#aec7e8" opacity="0.8" stroke="#fff" stroke-width="0.7"></circle></g><g class="key-Chad_0"><circle cx="200.00" cy="92.00" r="2.45" fill="#aec7e8" opacity="0.8" stroke="#fff" stroke-width="0.7"></circle></g><g class="key-Rwanda_0"><circle cx="180.00" cy="210.00" r="2.42" fill="#aec7e8" opacity="0.8" stroke="#333" stroke-width="0.7"></circle></g><g class="key-Greece_0"><circle cx="466.00" cy="436.00" r="2.42" fill="#ffd336" opacity="0.8" stroke="#fff" stroke-width="0.7"></circle></g><g class="key-South-Sudan_0"><circle cx="189.00" cy="123.00" r="2.39" fill="#aec7e8" opacity="0.8" stroke="#fff" stroke-width="0.7"></circle></g><g class="key-Belgium_0"><circle cx="525.00" cy="455.00" r="2.39" fill="#ffd336" opacity="0.8" stroke="#fff" stroke-width="0.7"></circle></g><g class="key-Tunisia_0"><circle cx="379.00" cy="324.00" r="2.38" fill="#4d824b" opacity="0.8" stroke="#fff" stroke-width="0.7"></circle></g><g class="key-Guinea_0"><circle cx="182.00" cy="129.00" r="2.38" fill="#aec7e8" opacity="0.8" stroke="#fff" stroke-width="0.7"></circle></g><g class="key-Portugal_0"><circle cx="477.00" cy="463.00" r="2.38" fill="#ffd336" opacity="0.8" stroke="#fff" stroke-width="0.7"></circle></g><g class="key-Czech-Republic_0"><circle cx="492.00" cy="481.00" r="2.37" fill="#ffd336" opacity="0.8" stroke="#fff" stroke-width="0.7"></circle></g><g class="key-Bolivia_0"><circle cx="324.00" cy="222.00" r="2.37" fill="#a652ba" opacity="0.8" stroke="#333" stroke-width="0.7"></circle></g><g class="key-Haiti_0"><circle cx="175.00" cy="150.00" r="2.36" fill="#a652ba" opacity="0.8" stroke="#fff" stroke-width="0.7"></circle></g><g class="key-Dominican-Republic_0"><circle cx="402.00" cy="240.00" r="2.36" fill="#a652ba" opacity="0.8" stroke="#fff" stroke-width="0.7"></circle></g><g class="key-Hungary_0"><circle cx="470.00" cy="429.00" r="2.34" fill="#ffd336" opacity="0.8" stroke="#fff" stroke-width="0.7"></circle></g><g class="key-Serbia_0"><circle cx="401.00" cy="407.00" r="2.34" fill="#ffd336" opacity="0.8" stroke="#333" stroke-width="0.7"></circle></g><g class="key-Benin_0"><circle cx="195.00" cy="116.00" r="2.33" fill="#aec7e8" opacity="0.8" stroke="#fff" stroke-width="0.7"></circle></g><g class="key-Sweden_0"><circle cx="535.00" cy="488.00" r="2.32" fill="#ffd336" opacity="0.8" stroke="#fff" stroke-width="0.7"></circle></g><g class="key-Azerbaijan_0"><circle cx="426.00" cy="258.00" r="2.32" fill="#ffd336" opacity="0.8" stroke="#fff" stroke-width="0.7"></circle></g><g class="key-Belarus_0"><circle cx="430.00" cy="452.00" r="2.32" fill="#ffd336" opacity="0.8" stroke="#333" stroke-width="0.7"></circle></g><g class="key-Burundi_0"><circle cx="90.00" cy="161.00" r="2.29" fill="#aec7e8" opacity="0.8" stroke="#333" stroke-width="0.7"></circle></g><g class="key-Austria_0"><circle cx="532.00" cy="463.00" r="2.27" fill="#ffd336" opacity="0.8" stroke="#fff" stroke-width="0.7"></circle></g><g class="key-United-Arab-Emirates_0"><circle cx="576.00" cy="374.00" r="2.25" fill="#4d824b" opacity="0.8" stroke="#fff" stroke-width="0.7"></circle></g><g class="key-Honduras_0"><circle cx="280.00" cy="289.00" r="2.25" fill="#a652ba" opacity="0.8" stroke="#333" stroke-width="0.7"></circle></g><g class="key-Israel_0"><circle cx="497.00" cy="460.00" r="2.23" fill="#4d824b" opacity="0.8" stroke="#fff" stroke-width="0.7"></circle></g><g class="key-Switzerland_0"><circle cx="560.00" cy="447.00" r="2.23" fill="#ffd336" opacity="0.8" stroke="#fff" stroke-width="0.7"></circle></g><g class="key-Bulgaria_0"><circle cx="428.00" cy="379.00" r="2.21" fill="#ffd336" opacity="0.8" stroke="#333" stroke-width="0.7"></circle></g><g class="key-Papua-New-Guinea_0"><circle cx="266.00" cy="178.00" r="2.21" fill="#5675c1" opacity="0.8" stroke="#fff" stroke-width="0.7"></circle></g><g class="key-Tajikistan_0"><circle cx="226.00" cy="227.00" r="2.20" fill="#ffd336" opacity="0.8" stroke="#fff" stroke-width="0.7"></circle></g><g class="key-Paraguay_0"><circle cx="355.00" cy="275.00" r="2.18" fill="#a652ba" opacity="0.8" stroke="#fff" stroke-width="0.7"></circle></g><g class="key-Jordan_0"><circle cx="353.00" cy="298.00" r="2.17" fill="#4d824b" opacity="0.8" stroke="#333" stroke-width="0.7"></circle></g><g class="key-Libya_0"><circle cx="413.00" cy="330.00" r="2.17" fill="#4d824b" opacity="0.8" stroke="#fff" stroke-width="0.7"></circle></g><g class="key-Laos_0"><circle cx="311.00" cy="160.00" r="2.16" fill="#5675c1" opacity="0.8" stroke="#fff" stroke-width="0.7"></circle></g><g class="key-Togo_0"><circle cx="154.00" cy="146.00" r="2.16" fill="#aec7e8" opacity="0.8" stroke="#333" stroke-width="0.7"></circle></g><g class="key-El-Salvador_0"><circle cx="332.00" cy="314.00" r="2.15" fill="#a652ba" opacity="0.8" stroke="#fff" stroke-width="0.7"></circle></g><g class="key-Sierra-Leone_0"><circle cx="151.00" cy="99.00" r="2.15" fill="#aec7e8" opacity="0.8" stroke="#fff" stroke-width="0.7"></circle></g><g class="key-Nicaragua_0"><circle cx="294.00" cy="295.00" r="2.14" fill="#a652ba" opacity="0.8" stroke="#fff" stroke-width="0.7"></circle></g><g class="key-Eritrea_0"><circle cx="166.00" cy="200.00" r="2.12" fill="#aec7e8" opacity="0.8" stroke="#fff" stroke-width="0.7"></circle></g><g class="key-Denmark_0"><circle cx="535.00" cy="450.00" r="2.12" fill="#ffd336" opacity="0.8" stroke="#fff" stroke-width="0.7"></circle></g><g class="key-Kyrgyzstan_0"><circle cx="248.00" cy="276.00" r="2.11" fill="#ffd336" opacity="0.8" stroke="#333" stroke-width="0.7"></circle></g><g class="key-Slovakia_0"><circle cx="483.00" cy="392.00" r="2.11" fill="#ffd336" opacity="0.8" stroke="#fff" stroke-width="0.7"></circle></g><g class="key-Finland_0"><circle cx="518.00" cy="508.00" r="2.11" fill="#ffd336" opacity="0.8" stroke="#333" stroke-width="0.7"></circle></g><g class="key-Singapore_0"><circle cx="598.00" cy="496.00" r="2.10" fill="#5675c1" opacity="0.8" stroke="#333" stroke-width="0.7"></circle></g><g class="key-Turkmenistan_0"><circle cx="414.00" cy="191.00" r="2.10" fill="#ffd336" opacity="0.8" stroke="#333" stroke-width="0.7"></circle></g><g class="key-Norway_0"><circle cx="572.00" cy="496.00" r="2.08" fill="#ffd336" opacity="0.8" stroke="#fff" stroke-width="0.7"></circle></g><g class="key-Costa-Rica_0"><circle cx="413.00" cy="366.00" r="2.08" fill="#a652ba" opacity="0.8" stroke="#fff" stroke-width="0.7"></circle></g><g class="key-Central-African-Republic_0"><circle cx="69.00" cy="92.00" r="2.06" fill="#aec7e8" opacity="0.8" stroke="#333" stroke-width="0.7"></circle></g><g class="key-Ireland_0"><circle cx="566.00" cy="463.00" r="2.06" fill="#ffd336" opacity="0.8" stroke="#fff" stroke-width="0.7"></circle></g><g class="key-New-Zealand_0"><circle cx="507.00" cy="420.00" r="2.06" fill="#5675c1" opacity="0.8" stroke="#fff" stroke-width="0.7"></circle></g><g class="key-Croatia_0"><circle cx="451.00" cy="436.00" r="2.05" fill="#ffd336" opacity="0.8" stroke="#fff" stroke-width="0.7"></circle></g><g class="key-Liberia_0"><circle cx="95.00" cy="143.00" r="2.05" fill="#aec7e8" opacity="0.8" stroke="#333" stroke-width="0.7"></circle></g><g class="key-Congo_0"><circle cx="307.00" cy="189.00" r="2.05" fill="#aec7e8" opacity="0.8" stroke="#fff" stroke-width="0.7"></circle></g><g class="key-Lebanon_0"><circle cx="402.00" cy="377.00" r="2.05" fill="#4d824b" opacity="0.8" stroke="#fff" stroke-width="0.7"></circle></g><g class="key-Georgia_0"><circle cx="359.00" cy="339.00" r="2.04" fill="#ffd336" opacity="0.8" stroke="#333" stroke-width="0.7"></circle></g><g class="key-Bosnia-and-Herzegovina_0"><circle cx="380.00" cy="412.00" r="2.01" fill="#ffd336" opacity="0.8" stroke="#fff" stroke-width="0.7"></circle></g><g class="key-Mauritania_0"><circle cx="260.00" cy="138.00" r="2.01" fill="#aec7e8" opacity="0.8" stroke="#fff" stroke-width="0.7"></circle></g><g class="key-Panama_0"><circle cx="450.00" cy="303.00" r="2.01" fill="#a652ba" opacity="0.8" stroke="#333" stroke-width="0.7"></circle></g><g class="key-Moldova_0"><circle cx="290.00" cy="310.00" r="2.00" fill="#ffd336" opacity="0.8" stroke="#333" stroke-width="0.7"></circle></g><g class="key-Uruguay_0"><circle cx="445.00" cy="371.00" r="1.99" fill="#a652ba" opacity="0.8" stroke="#fff" stroke-width="0.7"></circle></g><g class="key-Lithuania_0"><circle cx="478.00" cy="431.00" r="1.99" fill="#ffd336" opacity="0.8" stroke="#fff" stroke-width="0.7"></circle></g><g class="key-Albania_0"><circle cx="381.00" cy="366.00" r="1.98" fill="#ffd336" opacity="0.8" stroke="#fff" stroke-width="0.7"></circle></g><g class="key-Armenia_0"><circle cx="349.00" cy="324.00" r="1.98" fill="#ffd336" opacity="0.8" stroke="#333" stroke-width="0.7"></circle></g><g class="key-Kuwait_0"><circle cx="579.00" cy="373.00" r="1.97" fill="#4d824b" opacity="0.8" stroke="#fff" stroke-width="0.7"></circle></g><g class="key-Oman_0"><circle cx="521.00" cy="347.00" r="1.97" fill="#4d824b" opacity="0.8" stroke="#333" stroke-width="0.7"></circle></g><g class="key-Mongolia_0"><circle cx="385.00" cy="294.00" r="1.96" fill="#5675c1" opacity="0.8" stroke="#fff" stroke-width="0.7"></circle></g><g class="key-Jamaica_0"><circle cx="348.00" cy="309.00" r="1.96" fill="#a652ba" opacity="0.8" stroke="#fff" stroke-width="0.7"></circle></g><g class="key-Namibia_0"><circle cx="370.00" cy="198.00" r="1.93" fill="#aec7e8" opacity="0.8" stroke="#333" stroke-width="0.7"></circle></g><g class="key-Lesotho_0"><circle cx="229.00" cy="126.00" r="1.92" fill="#aec7e8" opacity="0.8" stroke="#fff" stroke-width="0.7"></circle></g><g class="key-Latvia_0"><circle cx="461.00" cy="431.00" r="1.92" fill="#ffd336" opacity="0.8" stroke="#fff" stroke-width="0.7"></circle></g><g class="key-Botswana_0"><circle cx="417.00" cy="213.00" r="1.91" fill="#aec7e8" opacity="0.8" stroke="#fff" stroke-width="0.7"></circle></g><g class="key-Macedonia_0"><circle cx="397.00" cy="339.00" r="1.91" fill="#ffd336" opacity="0.8" stroke="#fff" stroke-width="0.7"></circle></g><g class="key-Slovenia_0"><circle cx="486.00" cy="508.00" r="1.91" fill="#ffd336" opacity="0.8" stroke="#fff" stroke-width="0.7"></circle></g><g class="key-Qatar_0"><circle cx="640.00" cy="381.00" r="1.91" fill="#4d824b" opacity="0.8" stroke="#fff" stroke-width="0.7"></circle></g><g class="key-Gambia_0"><circle cx="170.00" cy="160.00" r="1.90" fill="#aec7e8" opacity="0.8" stroke="#fff" stroke-width="0.7"></circle></g><g class="key-Guinea__002dBissau_0"><circle cx="161.00" cy="130.00" r="1.89" fill="#aec7e8" opacity="0.8" stroke="#fff" stroke-width="0.7"></circle></g><g class="key-Gabon_0"><circle cx="427.00" cy="187.00" r="1.88" fill="#aec7e8" opacity="0.8" stroke="#fff" stroke-width="0.7"></circle></g><g class="key-Bahrain_0"><circle cx="531.00" cy="388.00" r="1.87" fill="#4d824b" opacity="0.8" stroke="#fff" stroke-width="0.7"></circle></g><g class="key-Trinidad-and-Tobago_0"><circle cx="495.00" cy="253.00" r="1.87" fill="#a652ba" opacity="0.8" stroke="#333" stroke-width="0.7"></circle></g><g class="key-Estonia_0"><circle cx="480.00" cy="481.00" r="1.87" fill="#ffd336" opacity="0.8" stroke="#fff" stroke-width="0.7"></circle></g><g class="key-Mauritius_0"><circle cx="439.00" cy="321.00" r="1.87" fill="#aec7e8" opacity="0.8" stroke="#fff" stroke-width="0.7"></circle></g><g class="key-Eswatini_0"><circle cx="343.00" cy="177.00" r="1.86" fill="#aec7e8" opacity="0.8" stroke="#333" stroke-width="0.7"></circle></g><g class="key-Cyprus_0"><circle cx="492.00" cy="488.00" r="1.86" fill="#ffd336" opacity="0.8" stroke="#fff" stroke-width="0.7"></circle></g><g class="key-Djibouti_0"><circle cx="245.00" cy="163.00" r="1.84" fill="#4d824b" opacity="0.8" stroke="#fff" stroke-width="0.7"></circle></g><g class="key-Fiji_0"><circle cx="353.00" cy="266.00" r="1.84" fill="#5675c1" opacity="0.8" stroke="#fff" stroke-width="0.7"></circle></g><g class="key-Comoros_0"><circle cx="158.00" cy="152.00" r="1.83" fill="#aec7e8" opacity="0.8" stroke="#fff" stroke-width="0.7"></circle></g><g class="key-Bhutan_0"><circle cx="343.00" cy="234.00" r="1.83" fill="#d14e5b" opacity="0.8" stroke="#333" stroke-width="0.7"></circle></g><g class="key-Equatorial-Guinea_0"><circle cx="480.00" cy="124.00" r="1.83" fill="#aec7e8" opacity="0.8" stroke="#333" stroke-width="0.7"></circle></g><g class="key-Guyana_0"><circle cx="333.00" cy="234.00" r="1.83" fill="#a652ba" opacity="0.8" stroke="#fff" stroke-width="0.7"></circle></g><g class="key-Montenegro_0"><circle cx="417.00" cy="452.00" r="1.82" fill="#ffd336" opacity="0.8" stroke="#fff" stroke-width="0.7"></circle></g><g class="key-Solomon-Islands_0"><circle cx="204.00" cy="278.00" r="1.82" fill="#5675c1" opacity="0.8" stroke="#fff" stroke-width="0.7"></circle></g><g class="key-Suriname_0"><circle cx="413.00" cy="283.00" r="1.82" fill="#a652ba" opacity="0.8" stroke="#fff" stroke-width="0.7"></circle></g><g class="key-Luxembourg_0"><circle cx="614.00" cy="496.00" r="1.82" fill="#ffd336" opacity="0.8" stroke="#fff" stroke-width="0.7"></circle></g><g class="key-Cape-Verde_0"><circle cx="314.00" cy="266.00" r="1.82" fill="#aec7e8" opacity="0.8" stroke="#fff" stroke-width="0.7"></circle></g><g class="key-Malta_0"><circle cx="504.00" cy="403.00" r="1.81" fill="#4d824b" opacity="0.8" stroke="#333" stroke-width="0.7"></circle></g><g class="key-Brunei_0"><circle cx="588.00" cy="354.00" r="1.81" fill="#5675c1" opacity="0.8" stroke="#333" stroke-width="0.7"></circle></g><g class="key-Bahamas_0"><circle cx="484.00" cy="382.00" r="1.81" fill="#a652ba" opacity="0.8" stroke="#fff" stroke-width="0.7"></circle></g><g class="key-Iceland_0"><circle cx="529.00" cy="512.00" r="1.80" fill="#ffd336" opacity="0.8" stroke="#fff" stroke-width="0.7"></circle></g><g class="key-Belize_0"><circle cx="348.00" cy="313.00" r="1.80" fill="#a652ba" opacity="0.8" stroke="#fff" stroke-width="0.7"></circle></g><g class="key-Maldives_0"><circle cx="405.00" cy="373.00" r="1.80" fill="#d14e5b" opacity="0.8" stroke="#fff" stroke-width="0.7"></circle></g><g class="key-Barbados_0"><circle cx="425.00" cy="331.00" r="1.80" fill="#a652ba" opacity="0.8" stroke="#fff" stroke-width="0.7"></circle></g><g class="key-Vanuatu_0"><circle cx="233.00" cy="251.00" r="1.80" fill="#5675c1" opacity="0.8" stroke="#333" stroke-width="0.7"></circle></g><g class="key-Samoa_0"><circle cx="307.00" cy="302.00" r="1.80" fill="#5675c1" opacity="0.8" stroke="#fff" stroke-width="0.7"></circle></g><g class="key-Saint-Lucia_0"><circle cx="378.00" cy="322.00" r="1.80" fill="#a652ba" opacity="0.8" stroke="#fff" stroke-width="0.7"></circle></g><g class="key-Sao-Tome-and-Principe_0"><circle cx="238.00" cy="229.00" r="1.79" fill="#aec7e8" opacity="0.8" stroke="#fff" stroke-width="0.7"></circle></g><g class="key-Saint-Vincent-and-the-Grenadines_0"><circle cx="375.00" cy="296.00" r="1.79" fill="#a652ba" opacity="0.8" stroke="#fff" stroke-width="0.7"></circle></g><g class="key-Grenada_0"><circle cx="397.00" cy="308.00" r="1.79" fill="#a652ba" opacity="0.8" stroke="#fff" stroke-width="0.7"></circle></g><g class="key-Tonga_0"><circle cx="299.00" cy="306.00" r="1.79" fill="#5675c1" opacity="0.8" stroke="#fff" stroke-width="0.7"></circle></g><g class="key-Kiribati_0"><circle cx="194.00" cy="177.00" r="1.79" fill="#5675c1" opacity="0.8" stroke="#fff" stroke-width="0.7"></circle></g><g class="key-Antigua-and-Barbuda_0"><circle cx="447.00" cy="382.00" r="1.79" fill="#a652ba" opacity="0.8" stroke="#fff" stroke-width="0.7"></circle></g><g class="key-Seychelles_0"><circle cx="469.00" cy="321.00" r="1.79" fill="#aec7e8" opacity="0.8" stroke="#fff" stroke-width="0.7"></circle></g><g class="key-Dominica_0"><circle cx="370.00" cy="241.00" r="1.79" fill="#a652ba" opacity="0.8" stroke="#fff" stroke-width="0.7"></circle></g><g class="key-Marshall-Islands_0"><circle cx="262.00" cy="227.00" r="1.79" fill="#5675c1" opacity="0.8" stroke="#fff" stroke-width="0.7"></circle></g><g class="key-Saint-Kitts-and-Nevis_0"><circle cx="466.00" cy="354.00" r="1.79" fill="#a652ba" opacity="0.8" stroke="#fff" stroke-width="0.7"></circle></g><g class="key-San-Marino_0"><circle cx="558.00" cy="504.00" r="1.79" fill="#ffd336" opacity="0.8" stroke="#fff" stroke-width="0.7"></circle></g><g class="key-Palau_0"><circle cx="407.00" cy="308.00" r="1.78" fill="#5675c1" opacity="0.8" stroke="#fff" stroke-width="0.7"></circle></g><g class="key-Nauru_0"><circle cx="393.00" cy="229.00" r="1.78" fill="#5675c1" opacity="0.8" stroke="#fff" stroke-width="0.7"></circle></g><g class="key-Tuvalu_0"><circle cx="254.00" cy="257.00" r="1.78" fill="#5675c1" opacity="0.8" stroke="#fff" stroke-width="0.7"></circle></g><g class="key-Yemen_0"><circle cx="212.00" cy="181.00" r="1.78" fill="#4d824b" opacity="0.8" stroke="#fff" stroke-width="0.7"></circle></g><g class="key-Palestine_0"><circle cx="289.00" cy="278.00" r="1.78" fill="#4d824b" opacity="0.8" stroke="#fff" stroke-width="0.7"></circle></g><g class="key-Timor_0"><circle cx="204.00" cy="186.00" r="1.78" fill="#5675c1" opacity="0.8" stroke="#fff" stroke-width="0.7"></circle></g><g fill="#333" class="backgroundLabels"><text x="404.00" y="332.16" font-size="14.30">China</text><text x="311.00" y="186.71" font-size="14.10">India</text><text x="551.00" y="389.22" font-size="11.77">United States</text><text x="374.00" y="246.22" font-size="11.60">Indonesia</text><text x="412.00" y="303.96" font-size="11.49">Brazil</text><text x="289.00" y="135.24" font-size="11.44">Pakistan</text><text x="309.00" y="104.46" font-size="11.41">Nigeria</text><text x="245.00" y="217.76" font-size="11.37">Bangladesh</text><text x="466.00" y="356.98" font-size="11.35">Russia</text><text x="515.00" y="478.30" font-size="11.31">Japan</text><text x="307.00" y="273.08" font-size="11.22">Vietnam</text><text x="167.00" y="160.14" font-size="11.21">Ethiopia</text><text x="372.00" y="263.21" font-size="11.21">Egypt</text><text x="531.00" y="451.29" font-size="11.20">Germany</text><text x="463.00" y="323.46" font-size="11.18">Turkey</text><text x="98.00" y="116.56" font-size="11.17">Democratic Republic of Congo</text><text x="416.00" y="349.59" font-size="11.17">Thailand</text><text x="518.00" y="436.78" font-size="11.15">United Kingdom</text><text x="504.00" y="463.84" font-size="11.15">Italy</text><text x="394.00" y="209.13" font-size="11.12">South Africa</text><text x="220.00" y="171.18" font-size="11.12">Tanzania</text><text x="339.00" y="361.32" font-size="11.11">Ukraine</text><text x="234.00" y="189.34" font-size="11.11">Kenya</text><text x="471.00" y="429.53" font-size="11.09">Poland</text><text x="405.00" y="259.57" font-size="11.09">Algeria</text><text x="176.00" y="176.58" font-size="11.09">Uganda</text><text x="279.00" y="156.61" font-size="11.09">Sudan</text><text x="529.00" y="420.64" font-size="11.08">Canada</text><text x="415.00" y="232.65" font-size="11.08">Iraq</text><text x="185.00" y="147.66" font-size="11.08">Afghanistan</text><text x="212.00" y="219.76" font-size="11.08">Nepal</text><text x="426.00" y="270.80" font-size="11.07">Venezuela</text><text x="388.00" y="304.81" font-size="11.07">Peru</text><text x="470.00" y="383.82" font-size="11.07">Malaysia</text><text x="547.00" y="372.84" font-size="11.07">Saudi Arabia</text><text x="310.00" y="256.88" font-size="11.07">Uzbekistan</text><text x="269.00" y="177.96" font-size="11.06">Ghana</text><text x="156.00" y="192.10" font-size="11.05">Madagascar</text><text x="382.00" y="361.15" font-size="11.05">Sri Lanka</text><text x="172.00" y="128.29" font-size="11.04">Burkina Faso</text><text x="192.00" y="102.34" font-size="11.04">Mali</text><text x="463.00" y="336.35" font-size="11.04">Kazakhstan</text><text x="130.00" y="166.36" font-size="11.04">Malawi</text><text x="250.00" y="234.44" font-size="11.04">Cambodia</text><text x="180.00" y="206.58" font-size="11.03">Rwanda</text><text x="324.00" y="218.63" font-size="11.03">Bolivia</text><text x="401.00" y="403.66" font-size="11.02">Serbia</text><text x="430.00" y="448.68" font-size="11.02">Belarus</text><text x="90.00" y="157.71" font-size="11.02">Burundi</text><text x="280.00" y="285.75" font-size="11.02">Honduras</text><text x="428.00" y="375.79" font-size="11.02">Bulgaria</text><text x="353.00" y="294.83" font-size="11.02">Jordan</text><text x="154.00" y="142.84" font-size="11.02">Togo</text><text x="248.00" y="272.89" font-size="11.01">Kyrgyzstan</text><text x="518.00" y="504.89" font-size="11.01">Finland</text><text x="547.56" y="492.90" font-size="11.01">Singapore</text><text x="414.00" y="187.90" font-size="11.01">Turkmenistan</text><text x="69.00" y="103.11" font-size="11.01">Central African Republic</text><text x="95.00" y="139.95" font-size="11.01">Liberia</text><text x="359.00" y="335.96" font-size="11.01">Georgia</text><text x="450.00" y="299.99" font-size="11.01">Panama</text><text x="290.00" y="307.00" font-size="11.01">Moldova</text><text x="349.00" y="321.02" font-size="11.01">Armenia</text><text x="521.00" y="344.03" font-size="11.01">Oman</text><text x="370.00" y="195.07" font-size="11.01">Namibia</text><text x="495.00" y="250.13" font-size="11.00">Trinidad and Tobago</text><text x="343.00" y="174.14" font-size="11.00">Eswatini</text><text x="343.00" y="231.17" font-size="11.00">Bhutan</text><text x="480.00" y="121.17" font-size="11.00">Equatorial Guinea</text><text x="504.00" y="400.19" font-size="11.00">Malta</text><text x="588.00" y="351.19" font-size="11.00">Brunei</text><text x="233.00" y="248.20" font-size="11.00">Vanuatu</text></g></g><g style="cursor: pointer;" class="ScatterColorLegend clickable"><g class="legendMark"><rect x="660.2" y="89.6" width="129.81799999999998" height="17.6" fill="#fff" opacity="0"></rect>,<rect x="660.2" y="95.1" width="6" height="6" fill="#5675c1"></rect>,<text font-size="12.60" x="671.2" y="102.2"><tspan x="671.2" y="102.17999999999999">East Asia and Pacific</tspan></text></g><g class="legendMark"><rect x="660.2" y="107.19999999999999" width="121.376" height="17.6" fill="#fff" opacity="0"></rect>,<rect x="660.2" y="112.69999999999999" width="6" height="6" fill="#aec7e8"></rect>,<text font-size="12.60" x="671.2" y="119.8"><tspan x="671.2" y="119.77999999999999">Sub-Saharan Africa</tspan></text></g><g class="legendMark"><rect x="660.2" y="124.8" width="72.23599999999999" height="17.6" fill="#fff" opacity="0"></rect>,<rect x="660.2" y="130.3" width="6" height="6" fill="#d14e5b"></rect>,<text font-size="12.60" x="671.2" y="137.4"><tspan x="671.2" y="137.38">South Asia</tspan></text></g><g class="legendMark"><rect x="660.2" y="142.4" width="148.844" height="17.6" fill="#fff" opacity="0"></rect>,<rect x="660.2" y="147.9" width="6" height="6" fill="#ffd336"></rect>,<text font-size="12.60" x="671.2" y="155.0"><tspan x="671.2" y="154.98">Europe and Central Asia</tspan></text></g><g class="legendMark"><rect x="660.2" y="160" width="171.90200000000002" height="17.6" fill="#fff" opacity="0"></rect>,<rect x="660.2" y="165.5" width="6" height="6" fill="#4d824b"></rect>,<text font-size="12.60" x="671.2" y="172.6"><tspan x="671.2" y="172.57999999999998">Middle East and North Africa</tspan></text></g><g class="legendMark"><rect x="660.2" y="177.6" width="174.8" height="17.6" fill="#fff" opacity="0"></rect>,<rect x="660.2" y="183.1" width="6" height="6" fill="#a652ba"></rect>,<text font-size="12.60" x="671.2" y="190.2"><tspan x="671.2" y="190.17999999999998">Latin America and Caribbean</tspan></text></g><g class="legendMark"><rect x="660.2" y="195.2" width="91.64" height="17.6" fill="#fff" opacity="0"></rect>,<rect x="660.2" y="200.7" width="6" height="6" fill="#69c487"></rect>,<text font-size="12.60" x="671.2" y="207.8"><tspan x="671.2" y="207.77999999999997">North America</tspan></text></g></g></g><g style="fill: #777;" class="SourcesFooter"><g style="fill: #777;" class="clickable"><text font-size="12.60" x="15.0" y="581.6"><tspan x="15" y="581.58">Source: World Bank</tspan></text></g><text font-size="12.60" x="468.0" y="581.6"><tspan x="467.962" y="581.58"><a target='_blank' style='fill: #777;' href='https://ourworldindata.org/world-after-capital-data-and-viz/'>OurWorldInData.org/world-after-capital-data-and-viz/</a> • <a style="fill: #777;" class="cclogo" href="http://creativecommons.org/licenses/by-sa/4.0/deed.en_US" target="_blank">CC BY-SA</a></tspan></text></g></g></svg>