<svg xmlns="http://www.w3.org/2000/svg" version="1.1" style="font-family: 'Helvetica Neue', Helvetica, Arial, sans-serif; font-size: 18px; background-color: white; text-rendering: optimizeLegibility; -webkit-font-smoothing: antialiased;" width="850" height="600"><g class="ChartTab"><g class="HeaderView"><g opacity="0.8" transform="translate(778, 15) scale(0.27)"><a xmlns:xlink="http://www.w3.org/1999/xlink" xlink:href="https://ourworldindata.org" target="_blank"><g><rect x="0" y="0" fill="#1B2543" width="211.2" height="130.1"/><rect x="0" y="112.2" fill="#E63912" width="211.2" height="17.9"/><g><rect x="1.2" y="12.3" fill="none" width="210.2" height="99.2"/><path fill="#FFFFFF" d="M37.8,32.2c0,12.7-7.7,19.4-17.1,19.4c-9.7,0-16.6-7.5-16.6-18.7c0-11.7,7.3-19.3,17.1-19.3 C31.3,13.7,37.8,21.3,37.8,32.2z M9.2,32.8c0,7.9,4.3,14.9,11.8,14.9c7.5,0,11.8-6.9,11.8-15.3c0-7.3-3.8-14.9-11.8-14.9 C13.1,17.5,9.2,24.8,9.2,32.8z"/><path fill="#FFFFFF" d="M62.7,43.8c0,2.7,0.1,5.1,0.2,7.2h-4.3l-0.3-4.3h-0.1c-1.3,2.1-4,4.9-8.8,4.9c-4.2,0-9.1-2.3-9.1-11.6 V24.6h4.8v14.6c0,5,1.5,8.4,5.9,8.4c3.2,0,5.5-2.2,6.3-4.4c0.3-0.7,0.4-1.6,0.4-2.5V24.6h4.8V43.8z"/><path fill="#FFFFFF" d="M67.3,32.8c0-3.1-0.1-5.8-0.2-8.2h4.2l0.2,5.2h0.2c1.2-3.5,4.1-5.8,7.3-5.8c0.5,0,0.9,0.1,1.4,0.2v4.5 c-0.5-0.1-1-0.2-1.6-0.2c-3.4,0-5.8,2.6-6.5,6.2c-0.1,0.7-0.2,1.4-0.2,2.2V51h-4.8V32.8z"/><path fill="#FFFFFF" d="M95.4,51l-9.4-36.8h5l4.4,18.6c1.1,4.6,2.1,9.2,2.7,12.7h0.1c0.6-3.7,1.8-8,3-12.8l4.9-18.5h5l4.5,18.7 c1,4.4,2,8.7,2.6,12.6h0.1c0.8-4,1.8-8.1,3-12.7l4.9-18.5h4.9L120.6,51h-5L111,31.9c-1.1-4.7-1.9-8.3-2.4-12h-0.1 c-0.7,3.7-1.5,7.3-2.8,12L100.4,51H95.4z"/><path fill="#FFFFFF" d="M154.9,37.6c0,9.8-6.8,14-13.2,14c-7.2,0-12.7-5.2-12.7-13.6c0-8.8,5.8-14,13.1-14 C149.8,24,154.9,29.5,154.9,37.6z M133.9,37.9c0,5.8,3.3,10.1,8,10.1c4.6,0,8-4.3,8-10.3c0-4.5-2.2-10.1-7.9-10.1 C136.3,27.6,133.9,32.8,133.9,37.9z"/><path fill="#FFFFFF" d="M158.2,32.8c0-3.1-0.1-5.8-0.2-8.2h4.2l0.2,5.2h0.2c1.2-3.5,4.1-5.8,7.3-5.8c0.5,0,0.9,0.1,1.4,0.2v4.5 c-0.5-0.1-1-0.2-1.6-0.2c-3.4,0-5.8,2.6-6.5,6.2c-0.1,0.7-0.2,1.4-0.2,2.2V51h-4.8V32.8z"/><path fill="#FFFFFF" d="M173.5,12.3h4.8V51h-4.8V12.3z"/><path fill="#FFFFFF" d="M206.5,12.3v31.9c0,2.3,0.1,5,0.2,6.8h-4.3l-0.2-4.6H202c-1.5,2.9-4.7,5.2-9,5.2 c-6.4,0-11.3-5.4-11.3-13.4c-0.1-8.8,5.4-14.2,11.9-14.2c4,0,6.8,1.9,8,4h0.1V12.3H206.5z M201.7,35.4c0-0.6-0.1-1.4-0.2-2 c-0.7-3.1-3.3-5.6-6.9-5.6c-5,0-7.9,4.4-7.9,10.2c0,5.3,2.6,9.8,7.8,9.8c3.2,0,6.2-2.1,7.1-5.7c0.2-0.7,0.2-1.3,0.2-2.1V35.4z"/><path fill="#FFFFFF" d="M42.8,64c0.1,1.6-1.1,2.9-3.1,2.9c-1.7,0-2.9-1.3-2.9-2.9c0-1.7,1.3-3,3-3C41.7,61,42.8,62.3,42.8,64z M37.4,97.8V71.4h4.8v26.4H37.4z"/><path fill="#FFFFFF" d="M47.5,78.6c0-2.7-0.1-5-0.2-7.1h4.3l0.3,4.4h0.1c1.3-2.5,4.4-5,8.8-5c3.7,0,9.4,2.2,9.4,11.2v15.8h-4.8 V82.6c0-4.3-1.6-7.8-6.1-7.8c-3.2,0-5.6,2.2-6.5,4.9c-0.2,0.6-0.3,1.4-0.3,2.2v15.9h-4.8V78.6z"/><path fill="#FFFFFF" d="M84,61.6c2.9-0.4,6.3-0.8,10.1-0.8c6.8,0,11.7,1.6,14.9,4.6c3.3,3,5.2,7.3,5.2,13.2c0,6-1.9,10.9-5.3,14.3 c-3.4,3.4-9.1,5.3-16.3,5.3c-3.4,0-6.2-0.2-8.6-0.4V61.6z M88.8,94.1c1.2,0.2,3,0.3,4.8,0.3c10.2,0,15.7-5.7,15.7-15.6 c0.1-8.7-4.9-14.2-14.9-14.2c-2.5,0-4.3,0.2-5.6,0.5V94.1z"/><path fill="#FFFFFF" d="M132.1,97.8l-0.4-3.3h-0.2c-1.5,2.1-4.3,3.9-8.1,3.9c-5.4,0-8.1-3.8-8.1-7.6c0-6.4,5.7-9.9,15.9-9.8v-0.5 c0-2.2-0.6-6.1-6-6.1c-2.5,0-5,0.8-6.9,2l-1.1-3.2c2.2-1.4,5.4-2.3,8.7-2.3c8.1,0,10.1,5.5,10.1,10.8v9.9c0,2.3,0.1,4.5,0.4,6.3 H132.1z M131.4,84.4c-5.3-0.1-11.2,0.8-11.2,5.9c0,3.1,2.1,4.6,4.5,4.6c3.4,0,5.6-2.2,6.4-4.4c0.2-0.5,0.3-1,0.3-1.5V84.4z"/><path fill="#FFFFFF" d="M146.6,63.9v7.6h6.9v3.7h-6.9v14.2c0,3.3,0.9,5.1,3.6,5.1c1.3,0,2.2-0.2,2.8-0.3l0.2,3.6 c-0.9,0.4-2.4,0.7-4.3,0.7c-2.2,0-4-0.7-5.2-2c-1.4-1.4-1.9-3.8-1.9-6.9V75.1h-4.1v-3.7h4.1v-6.3L146.6,63.9z"/><path fill="#FFFFFF" d="M171.4,97.8l-0.4-3.3h-0.2c-1.5,2.1-4.3,3.9-8.1,3.9c-5.4,0-8.1-3.8-8.1-7.6c0-6.4,5.7-9.9,15.9-9.8v-0.5 c0-2.2-0.6-6.1-6-6.1c-2.5,0-5,0.8-6.9,2l-1.1-3.2c2.2-1.4,5.4-2.3,8.7-2.3c8.1,0,10.1,5.5,10.1,10.8v9.9c0,2.3,0.1,4.5,0.4,6.3 H171.4z M170.7,84.4c-5.3-0.1-11.2,0.8-11.2,5.9c0,3.1,2.1,4.6,4.5,4.6c3.4,0,5.6-2.2,6.4-4.4c0.2-0.5,0.3-1,0.3-1.5V84.4z"/></g></g></a></g><a href="https://ourworldindata.org/grapher/child-mortality-rate-per-1000-live-births" target="_blank"><text font-size="25.20" x="15.0" y="35.2" fill="#555"><tspan x="15" y="35.160000000000004">Child mortality rate per 1,000 live births</tspan></text></a><text font-size="14.40" x="15.0" y="53.7" fill="#666"><tspan x="15" y="53.72">Under-five mortality rate is the probability per 1,000 that a newborn baby will die before reaching age five, if subject to</tspan><tspan x="15" y="69.56">age-specific mortality rates of the specified year.</tspan></text></g><g class="LineChart"><defs><clipPath id="boundsClip-153"><rect x="37.216" y="0" width="830" height="928.8"></rect></clipPath></defs><g class="AxisBoxView"><g class="HorizontalAxis"><text x="47.2" y="556.5" fill="#666" text-anchor="middle" font-size="16.2">1960</text><text x="166.7" y="556.5" fill="#666" text-anchor="middle" font-size="16.2">1970</text><text x="286.2" y="556.5" fill="#666" text-anchor="middle" font-size="16.2">1980</text><text x="405.7" y="556.5" fill="#666" text-anchor="middle" font-size="16.2">1990</text><text x="525.2" y="556.5" fill="#666" text-anchor="middle" font-size="16.2">2000</text><text x="644.7" y="556.5" fill="#666" text-anchor="middle" font-size="16.2">2010</text><text x="728.3" y="556.5" fill="#666" text-anchor="middle" font-size="16.2">2017</text></g><g class="VerticalAxis"><text x="42.22" y="535.3" fill="#666" dominant-baseline="middle" text-anchor="end" font-size="16.2">0</text><text x="42.22" y="466.6" fill="#666" dominant-baseline="middle" text-anchor="end" font-size="16.2">50</text><text x="42.22" y="398" fill="#666" dominant-baseline="middle" text-anchor="end" font-size="16.2">100</text><text x="42.22" y="329.3" fill="#666" dominant-baseline="middle" text-anchor="end" font-size="16.2">150</text><text x="42.22" y="260.6" fill="#666" dominant-baseline="middle" text-anchor="end" font-size="16.2">200</text><text x="42.22" y="191.9" fill="#666" dominant-baseline="middle" text-anchor="end" font-size="16.2">250</text><text x="42.22" y="123.3" fill="#666" dominant-baseline="middle" text-anchor="end" font-size="16.2">300</text></g><g class="AxisGridLines"><line x1="47.22" y1="535.3" x2="728.32" y2="535.3" stroke="#ccc"></line><line x1="47.22" y1="466.6" x2="728.32" y2="466.6" stroke="#ddd" stroke-dasharray="3,2"></line><line x1="47.22" y1="398" x2="728.32" y2="398" stroke="#ddd" stroke-dasharray="3,2"></line><line x1="47.22" y1="329.3" x2="728.32" y2="329.3" stroke="#ddd" stroke-dasharray="3,2"></line><line x1="47.22" y1="260.6" x2="728.32" y2="260.6" stroke="#ddd" stroke-dasharray="3,2"></line><line x1="47.22" y1="191.9" x2="728.32" y2="191.9" stroke="#ddd" stroke-dasharray="3,2"></line><line x1="47.22" y1="123.3" x2="728.32" y2="123.3" stroke="#ddd" stroke-dasharray="3,2"></line></g></g><g clip-path="url(#boundsClip-153)"><g class="HeightedLegend clickable"><g class="legendMark"><g class="indicator"><line x1="733.315" y1="490.8" x2="755.815" y2="490.8" stroke="#666" stroke-width="0.5"></line><line x1="755.815" y1="490.8" x2="755.815" y2="490.8" stroke="#666" stroke-width="0.5"></line><line x1="755.815" y1="490.8" x2="758.315" y2="490.8" stroke="#666" stroke-width="0.5"></line></g><rect x="728.315" y="484.05" width="106.685" height="13.5" fill="#fff" opacity="0"></rect><text font-size="13.50" x="763.3" y="494.9" fill="#3360a9"><tspan x="763.315" y="494.85">Bangladesh</tspan></text></g><g class="legendMark"><g class="indicator"><line x1="733.315" y1="489" x2="752.4816666666667" y2="489" stroke="#666" stroke-width="0.5"></line><line x1="752.4816666666667" y1="489" x2="752.4816666666667" y2="475.3" stroke="#666" stroke-width="0.5"></line><line x1="752.4816666666667" y1="475.3" x2="758.315" y2="475.3" stroke="#666" stroke-width="0.5"></line></g><rect x="728.315" y="468.55" width="70.37" height="13.5" fill="#fff" opacity="0"></rect><text font-size="13.50" x="763.3" y="479.4" fill="#ca2628"><tspan x="763.315" y="479.35">Nepal</tspan></text></g><g class="legendMark"><g class="indicator"><line x1="733.315" y1="481.6" x2="749.1483333333334" y2="481.6" stroke="#666" stroke-width="0.5"></line><line x1="749.1483333333334" y1="481.6" x2="749.1483333333334" y2="459.8" stroke="#666" stroke-width="0.5"></line><line x1="749.1483333333334" y1="459.8" x2="758.315" y2="459.8" stroke="#666" stroke-width="0.5"></line></g><rect x="728.315" y="453.05" width="70.235" height="13.5" fill="#fff" opacity="0"></rect><text font-size="13.50" x="763.3" y="463.9" fill="#34983f"><tspan x="763.315" y="463.85">World</tspan></text></g><g class="legendMark"><g class="indicator"><line x1="733.315" y1="481.2" x2="745.815" y2="481.2" stroke="#666" stroke-width="0.5"></line><line x1="745.815" y1="481.2" x2="745.815" y2="444.3" stroke="#666" stroke-width="0.5"></line><line x1="745.815" y1="444.3" x2="758.315" y2="444.3" stroke="#666" stroke-width="0.5"></line></g><rect x="728.315" y="437.55" width="64.43" height="13.5" fill="#fff" opacity="0"></rect><text font-size="13.50" x="763.3" y="448.4" fill="#f6a324"><tspan x="763.315" y="448.35">India</tspan></text></g><g class="legendMark"><g class="indicator"><line x1="733.315" y1="473.8" x2="742.4816666666667" y2="473.8" stroke="#666" stroke-width="0.5"></line><line x1="742.4816666666667" y1="473.8" x2="742.4816666666667" y2="428.8" stroke="#666" stroke-width="0.5"></line><line x1="742.4816666666667" y1="428.8" x2="758.315" y2="428.8" stroke="#666" stroke-width="0.5"></line></g><rect x="728.315" y="422.05" width="100.61" height="13.5" fill="#fff" opacity="0"></rect><text font-size="13.50" x="763.3" y="432.9" fill="#a652ba"><tspan x="763.315" y="432.85">South Asia</tspan></text></g><g class="legendMark"><g class="indicator"><line x1="733.315" y1="432.4" x2="739.1483333333334" y2="432.4" stroke="#666" stroke-width="0.5"></line><line x1="739.1483333333334" y1="432.4" x2="739.1483333333334" y2="413.3" stroke="#666" stroke-width="0.5"></line><line x1="739.1483333333334" y1="413.3" x2="758.315" y2="413.3" stroke="#666" stroke-width="0.5"></line></g><rect x="728.315" y="406.55" width="86.975" height="13.5" fill="#fff" opacity="0"></rect><text font-size="13.50" x="763.3" y="417.4" fill="#2a939b"><tspan x="763.315" y="417.35">Pakistan</tspan></text></g></g><g class="Lines"><rect x="47" y="92" width="681" height="443" fill="rgba(255,255,255,0)" opacity="0"></rect><g class="key-Pakistan_0"><path stroke="#2a939b" stroke-linecap="round" d="M47 180L59 193L71 205L83 216L95 226L107 236L119 244L131 252L143 258L155 265L167 270L179 275L191 280L203 285L215 289L227 293L238 297L250 300L262 303L274 306L286 310L298 313L310 316L322 320L334 323L346 327L358 330L370 334L382 337L394 341L406 344L418 348L430 351L442 355L454 358L465 362L477 366L489 369L501 373L513 377L525 381L537 384L549 388L561 391L573 394L585 397L597 400L609 402L621 405L633 408L645 411L657 413L669 416L681 420L693 423L704 426L716 429L728 432" fill="none" stroke-width="1.5"></path><g fill="#2a939b"><circle cx="47" cy="180" r="2"></circle><circle cx="59" cy="193" r="2"></circle><circle cx="71" cy="205" r="2"></circle><circle cx="83" cy="216" r="2"></circle><circle cx="95" cy="226" r="2"></circle><circle cx="107" cy="236" r="2"></circle><circle cx="119" cy="244" r="2"></circle><circle cx="131" cy="252" r="2"></circle><circle cx="143" cy="258" r="2"></circle><circle cx="155" cy="265" r="2"></circle><circle cx="167" cy="270" r="2"></circle><circle cx="179" cy="275" r="2"></circle><circle cx="191" cy="280" r="2"></circle><circle cx="203" cy="285" r="2"></circle><circle cx="215" cy="289" r="2"></circle><circle cx="227" cy="293" r="2"></circle><circle cx="238" cy="297" r="2"></circle><circle cx="250" cy="300" r="2"></circle><circle cx="262" cy="303" r="2"></circle><circle cx="274" cy="306" r="2"></circle><circle cx="286" cy="310" r="2"></circle><circle cx="298" cy="313" r="2"></circle><circle cx="310" cy="316" r="2"></circle><circle cx="322" cy="320" r="2"></circle><circle cx="334" cy="323" r="2"></circle><circle cx="346" cy="327" r="2"></circle><circle cx="358" cy="330" r="2"></circle><circle cx="370" cy="334" r="2"></circle><circle cx="382" cy="337" r="2"></circle><circle cx="394" cy="341" r="2"></circle><circle cx="406" cy="344" r="2"></circle><circle cx="418" cy="348" r="2"></circle><circle cx="430" cy="351" r="2"></circle><circle cx="442" cy="355" r="2"></circle><circle cx="454" cy="358" r="2"></circle><circle cx="465" cy="362" r="2"></circle><circle cx="477" cy="366" r="2"></circle><circle cx="489" cy="369" r="2"></circle><circle cx="501" cy="373" r="2"></circle><circle cx="513" cy="377" r="2"></circle><circle cx="525" cy="381" r="2"></circle><circle cx="537" cy="384" r="2"></circle><circle cx="549" cy="388" r="2"></circle><circle cx="561" cy="391" r="2"></circle><circle cx="573" cy="394" r="2"></circle><circle cx="585" cy="397" r="2"></circle><circle cx="597" cy="400" r="2"></circle><circle cx="609" cy="402" r="2"></circle><circle cx="621" cy="405" r="2"></circle><circle cx="633" cy="408" r="2"></circle><circle cx="645" cy="411" r="2"></circle><circle cx="657" cy="413" r="2"></circle><circle cx="669" cy="416" r="2"></circle><circle cx="681" cy="420" r="2"></circle><circle cx="693" cy="423" r="2"></circle><circle cx="704" cy="426" r="2"></circle><circle cx="716" cy="429" r="2"></circle><circle cx="728" cy="432" r="2"></circle></g></g><g class="key-India_0"><path stroke="#f6a324" stroke-linecap="round" d="M47 203L59 208L71 213L83 217L95 221L107 225L119 228L131 232L143 236L155 240L167 243L179 248L191 253L203 258L215 263L227 269L238 276L250 283L262 290L274 298L286 305L298 312L310 319L322 325L334 330L346 336L358 341L370 346L382 352L394 357L406 362L418 367L430 372L442 376L454 381L465 385L477 390L489 395L501 400L513 404L525 409L537 414L549 419L561 424L573 428L585 433L597 438L609 442L621 446L633 451L645 455L657 459L669 463L681 467L693 471L704 475L716 478L728 481" fill="none" stroke-width="1.5"></path><g fill="#f6a324"><circle cx="47" cy="203" r="2"></circle><circle cx="59" cy="208" r="2"></circle><circle cx="71" cy="213" r="2"></circle><circle cx="83" cy="217" r="2"></circle><circle cx="95" cy="221" r="2"></circle><circle cx="107" cy="225" r="2"></circle><circle cx="119" cy="228" r="2"></circle><circle cx="131" cy="232" r="2"></circle><circle cx="143" cy="236" r="2"></circle><circle cx="155" cy="240" r="2"></circle><circle cx="167" cy="243" r="2"></circle><circle cx="179" cy="248" r="2"></circle><circle cx="191" cy="253" r="2"></circle><circle cx="203" cy="258" r="2"></circle><circle cx="215" cy="263" r="2"></circle><circle cx="227" cy="269" r="2"></circle><circle cx="238" cy="276" r="2"></circle><circle cx="250" cy="283" r="2"></circle><circle cx="262" cy="290" r="2"></circle><circle cx="274" cy="298" r="2"></circle><circle cx="286" cy="305" r="2"></circle><circle cx="298" cy="312" r="2"></circle><circle cx="310" cy="319" r="2"></circle><circle cx="322" cy="325" r="2"></circle><circle cx="334" cy="330" r="2"></circle><circle cx="346" cy="336" r="2"></circle><circle cx="358" cy="341" r="2"></circle><circle cx="370" cy="346" r="2"></circle><circle cx="382" cy="352" r="2"></circle><circle cx="394" cy="357" r="2"></circle><circle cx="406" cy="362" r="2"></circle><circle cx="418" cy="367" r="2"></circle><circle cx="430" cy="372" r="2"></circle><circle cx="442" cy="376" r="2"></circle><circle cx="454" cy="381" r="2"></circle><circle cx="465" cy="385" r="2"></circle><circle cx="477" cy="390" r="2"></circle><circle cx="489" cy="395" r="2"></circle><circle cx="501" cy="400" r="2"></circle><circle cx="513" cy="404" r="2"></circle><circle cx="525" cy="409" r="2"></circle><circle cx="537" cy="414" r="2"></circle><circle cx="549" cy="419" r="2"></circle><circle cx="561" cy="424" r="2"></circle><circle cx="573" cy="428" r="2"></circle><circle cx="585" cy="433" r="2"></circle><circle cx="597" cy="438" r="2"></circle><circle cx="609" cy="442" r="2"></circle><circle cx="621" cy="446" r="2"></circle><circle cx="633" cy="451" r="2"></circle><circle cx="645" cy="455" r="2"></circle><circle cx="657" cy="459" r="2"></circle><circle cx="669" cy="463" r="2"></circle><circle cx="681" cy="467" r="2"></circle><circle cx="693" cy="471" r="2"></circle><circle cx="704" cy="475" r="2"></circle><circle cx="716" cy="478" r="2"></circle><circle cx="728" cy="481" r="2"></circle></g></g><g class="key-World_0"><path stroke="#34983f" stroke-linecap="round" d="M47 284L59 288L71 292L83 296L95 295L107 298L119 300L131 303L143 311L155 330L167 336L179 341L191 345L203 350L215 354L227 358L238 361L250 365L262 369L274 372L286 375L298 380L310 384L322 388L334 392L346 396L358 400L370 403L382 406L394 409L406 407L418 409L430 411L442 412L454 414L465 416L477 418L489 420L501 423L513 426L525 429L537 433L549 437L561 441L573 444L585 448L597 452L609 455L621 458L633 462L645 465L657 468L669 471L681 473L693 476L704 478L716 480L728 482" fill="none" stroke-width="1.5"></path><g fill="#34983f"><circle cx="47" cy="284" r="2"></circle><circle cx="59" cy="288" r="2"></circle><circle cx="71" cy="292" r="2"></circle><circle cx="83" cy="296" r="2"></circle><circle cx="95" cy="295" r="2"></circle><circle cx="107" cy="298" r="2"></circle><circle cx="119" cy="300" r="2"></circle><circle cx="131" cy="303" r="2"></circle><circle cx="143" cy="311" r="2"></circle><circle cx="155" cy="330" r="2"></circle><circle cx="167" cy="336" r="2"></circle><circle cx="179" cy="341" r="2"></circle><circle cx="191" cy="345" r="2"></circle><circle cx="203" cy="350" r="2"></circle><circle cx="215" cy="354" r="2"></circle><circle cx="227" cy="358" r="2"></circle><circle cx="238" cy="361" r="2"></circle><circle cx="250" cy="365" r="2"></circle><circle cx="262" cy="369" r="2"></circle><circle cx="274" cy="372" r="2"></circle><circle cx="286" cy="375" r="2"></circle><circle cx="298" cy="380" r="2"></circle><circle cx="310" cy="384" r="2"></circle><circle cx="322" cy="388" r="2"></circle><circle cx="334" cy="392" r="2"></circle><circle cx="346" cy="396" r="2"></circle><circle cx="358" cy="400" r="2"></circle><circle cx="370" cy="403" r="2"></circle><circle cx="382" cy="406" r="2"></circle><circle cx="394" cy="409" r="2"></circle><circle cx="406" cy="407" r="2"></circle><circle cx="418" cy="409" r="2"></circle><circle cx="430" cy="411" r="2"></circle><circle cx="442" cy="412" r="2"></circle><circle cx="454" cy="414" r="2"></circle><circle cx="465" cy="416" r="2"></circle><circle cx="477" cy="418" r="2"></circle><circle cx="489" cy="420" r="2"></circle><circle cx="501" cy="423" r="2"></circle><circle cx="513" cy="426" r="2"></circle><circle cx="525" cy="429" r="2"></circle><circle cx="537" cy="433" r="2"></circle><circle cx="549" cy="437" r="2"></circle><circle cx="561" cy="441" r="2"></circle><circle cx="573" cy="444" r="2"></circle><circle cx="585" cy="448" r="2"></circle><circle cx="597" cy="452" r="2"></circle><circle cx="609" cy="455" r="2"></circle><circle cx="621" cy="458" r="2"></circle><circle cx="633" cy="462" r="2"></circle><circle cx="645" cy="465" r="2"></circle><circle cx="657" cy="468" r="2"></circle><circle cx="669" cy="471" r="2"></circle><circle cx="681" cy="473" r="2"></circle><circle cx="693" cy="476" r="2"></circle><circle cx="704" cy="478" r="2"></circle><circle cx="716" cy="480" r="2"></circle><circle cx="728" cy="482" r="2"></circle></g></g><g class="key-South-Asia_0"><path stroke="#a652ba" stroke-linecap="round" d="M47 192L59 196L71 202L83 208L95 214L107 219L119 224L131 229L143 234L155 238L167 243L179 247L191 252L203 257L215 262L227 268L238 274L250 280L262 287L274 293L286 300L298 307L310 313L322 319L334 325L346 331L358 336L370 342L382 347L394 353L406 358L418 363L430 368L442 372L454 377L465 382L477 387L489 392L501 397L513 402L525 407L537 411L549 416L561 421L573 425L585 429L597 434L609 438L621 442L633 446L645 450L657 453L669 457L681 461L693 464L704 468L716 471L728 474" fill="none" stroke-width="1.5"></path><g fill="#a652ba"><circle cx="47" cy="192" r="2"></circle><circle cx="59" cy="196" r="2"></circle><circle cx="71" cy="202" r="2"></circle><circle cx="83" cy="208" r="2"></circle><circle cx="95" cy="214" r="2"></circle><circle cx="107" cy="219" r="2"></circle><circle cx="119" cy="224" r="2"></circle><circle cx="131" cy="229" r="2"></circle><circle cx="143" cy="234" r="2"></circle><circle cx="155" cy="238" r="2"></circle><circle cx="167" cy="243" r="2"></circle><circle cx="179" cy="247" r="2"></circle><circle cx="191" cy="252" r="2"></circle><circle cx="203" cy="257" r="2"></circle><circle cx="215" cy="262" r="2"></circle><circle cx="227" cy="268" r="2"></circle><circle cx="238" cy="274" r="2"></circle><circle cx="250" cy="280" r="2"></circle><circle cx="262" cy="287" r="2"></circle><circle cx="274" cy="293" r="2"></circle><circle cx="286" cy="300" r="2"></circle><circle cx="298" cy="307" r="2"></circle><circle cx="310" cy="313" r="2"></circle><circle cx="322" cy="319" r="2"></circle><circle cx="334" cy="325" r="2"></circle><circle cx="346" cy="331" r="2"></circle><circle cx="358" cy="336" r="2"></circle><circle cx="370" cy="342" r="2"></circle><circle cx="382" cy="347" r="2"></circle><circle cx="394" cy="353" r="2"></circle><circle cx="406" cy="358" r="2"></circle><circle cx="418" cy="363" r="2"></circle><circle cx="430" cy="368" r="2"></circle><circle cx="442" cy="372" r="2"></circle><circle cx="454" cy="377" r="2"></circle><circle cx="465" cy="382" r="2"></circle><circle cx="477" cy="387" r="2"></circle><circle cx="489" cy="392" r="2"></circle><circle cx="501" cy="397" r="2"></circle><circle cx="513" cy="402" r="2"></circle><circle cx="525" cy="407" r="2"></circle><circle cx="537" cy="411" r="2"></circle><circle cx="549" cy="416" r="2"></circle><circle cx="561" cy="421" r="2"></circle><circle cx="573" cy="425" r="2"></circle><circle cx="585" cy="429" r="2"></circle><circle cx="597" cy="434" r="2"></circle><circle cx="609" cy="438" r="2"></circle><circle cx="621" cy="442" r="2"></circle><circle cx="633" cy="446" r="2"></circle><circle cx="645" cy="450" r="2"></circle><circle cx="657" cy="453" r="2"></circle><circle cx="669" cy="457" r="2"></circle><circle cx="681" cy="461" r="2"></circle><circle cx="693" cy="464" r="2"></circle><circle cx="704" cy="468" r="2"></circle><circle cx="716" cy="471" r="2"></circle><circle cx="728" cy="474" r="2"></circle></g></g><g class="key-Bangladesh_0"><path stroke="#3360a9" stroke-linecap="round" d="M47 179L59 188L71 196L83 204L95 210L107 216L119 220L131 224L143 227L155 229L167 230L179 231L191 232L203 234L215 236L227 239L238 242L250 246L262 251L274 257L286 263L298 269L310 276L322 283L334 290L346 297L358 305L370 313L382 322L394 330L406 338L418 346L430 354L442 363L454 371L465 379L477 387L489 394L501 401L513 408L525 415L537 422L549 428L561 434L573 439L585 444L597 450L609 454L621 459L633 464L645 468L657 472L669 475L681 479L693 482L704 485L716 488L728 491" fill="none" stroke-width="1.5"></path><g fill="#3360a9"><circle cx="47" cy="179" r="2"></circle><circle cx="59" cy="188" r="2"></circle><circle cx="71" cy="196" r="2"></circle><circle cx="83" cy="204" r="2"></circle><circle cx="95" cy="210" r="2"></circle><circle cx="107" cy="216" r="2"></circle><circle cx="119" cy="220" r="2"></circle><circle cx="131" cy="224" r="2"></circle><circle cx="143" cy="227" r="2"></circle><circle cx="155" cy="229" r="2"></circle><circle cx="167" cy="230" r="2"></circle><circle cx="179" cy="231" r="2"></circle><circle cx="191" cy="232" r="2"></circle><circle cx="203" cy="234" r="2"></circle><circle cx="215" cy="236" r="2"></circle><circle cx="227" cy="239" r="2"></circle><circle cx="238" cy="242" r="2"></circle><circle cx="250" cy="246" r="2"></circle><circle cx="262" cy="251" r="2"></circle><circle cx="274" cy="257" r="2"></circle><circle cx="286" cy="263" r="2"></circle><circle cx="298" cy="269" r="2"></circle><circle cx="310" cy="276" r="2"></circle><circle cx="322" cy="283" r="2"></circle><circle cx="334" cy="290" r="2"></circle><circle cx="346" cy="297" r="2"></circle><circle cx="358" cy="305" r="2"></circle><circle cx="370" cy="313" r="2"></circle><circle cx="382" cy="322" r="2"></circle><circle cx="394" cy="330" r="2"></circle><circle cx="406" cy="338" r="2"></circle><circle cx="418" cy="346" r="2"></circle><circle cx="430" cy="354" r="2"></circle><circle cx="442" cy="363" r="2"></circle><circle cx="454" cy="371" r="2"></circle><circle cx="465" cy="379" r="2"></circle><circle cx="477" cy="387" r="2"></circle><circle cx="489" cy="394" r="2"></circle><circle cx="501" cy="401" r="2"></circle><circle cx="513" cy="408" r="2"></circle><circle cx="525" cy="415" r="2"></circle><circle cx="537" cy="422" r="2"></circle><circle cx="549" cy="428" r="2"></circle><circle cx="561" cy="434" r="2"></circle><circle cx="573" cy="439" r="2"></circle><circle cx="585" cy="444" r="2"></circle><circle cx="597" cy="450" r="2"></circle><circle cx="609" cy="454" r="2"></circle><circle cx="621" cy="459" r="2"></circle><circle cx="633" cy="464" r="2"></circle><circle cx="645" cy="468" r="2"></circle><circle cx="657" cy="472" r="2"></circle><circle cx="669" cy="475" r="2"></circle><circle cx="681" cy="479" r="2"></circle><circle cx="693" cy="482" r="2"></circle><circle cx="704" cy="485" r="2"></circle><circle cx="716" cy="488" r="2"></circle><circle cx="728" cy="491" r="2"></circle></g></g><g class="key-Nepal_0"><path stroke="#ca2628" stroke-linecap="round" d="M47 92L59 98L71 104L83 112L95 120L107 129L119 138L131 147L143 156L155 164L167 172L179 180L191 188L203 195L215 202L227 209L238 217L250 225L262 233L274 241L286 250L298 258L310 267L322 276L334 285L346 294L358 303L370 313L382 323L394 333L406 343L418 352L430 362L442 371L454 379L465 387L477 395L489 403L501 410L513 417L525 423L537 430L549 436L561 441L573 446L585 451L597 455L609 460L621 464L633 467L645 471L657 474L669 477L681 480L693 483L704 485L716 487L728 489" fill="none" stroke-width="1.5"></path><g fill="#ca2628"><circle cx="47" cy="92" r="2"></circle><circle cx="59" cy="98" r="2"></circle><circle cx="71" cy="104" r="2"></circle><circle cx="83" cy="112" r="2"></circle><circle cx="95" cy="120" r="2"></circle><circle cx="107" cy="129" r="2"></circle><circle cx="119" cy="138" r="2"></circle><circle cx="131" cy="147" r="2"></circle><circle cx="143" cy="156" r="2"></circle><circle cx="155" cy="164" r="2"></circle><circle cx="167" cy="172" r="2"></circle><circle cx="179" cy="180" r="2"></circle><circle cx="191" cy="188" r="2"></circle><circle cx="203" cy="195" r="2"></circle><circle cx="215" cy="202" r="2"></circle><circle cx="227" cy="209" r="2"></circle><circle cx="238" cy="217" r="2"></circle><circle cx="250" cy="225" r="2"></circle><circle cx="262" cy="233" r="2"></circle><circle cx="274" cy="241" r="2"></circle><circle cx="286" cy="250" r="2"></circle><circle cx="298" cy="258" r="2"></circle><circle cx="310" cy="267" r="2"></circle><circle cx="322" cy="276" r="2"></circle><circle cx="334" cy="285" r="2"></circle><circle cx="346" cy="294" r="2"></circle><circle cx="358" cy="303" r="2"></circle><circle cx="370" cy="313" r="2"></circle><circle cx="382" cy="323" r="2"></circle><circle cx="394" cy="333" r="2"></circle><circle cx="406" cy="343" r="2"></circle><circle cx="418" cy="352" r="2"></circle><circle cx="430" cy="362" r="2"></circle><circle cx="442" cy="371" r="2"></circle><circle cx="454" cy="379" r="2"></circle><circle cx="465" cy="387" r="2"></circle><circle cx="477" cy="395" r="2"></circle><circle cx="489" cy="403" r="2"></circle><circle cx="501" cy="410" r="2"></circle><circle cx="513" cy="417" r="2"></circle><circle cx="525" cy="423" r="2"></circle><circle cx="537" cy="430" r="2"></circle><circle cx="549" cy="436" r="2"></circle><circle cx="561" cy="441" r="2"></circle><circle cx="573" cy="446" r="2"></circle><circle cx="585" cy="451" r="2"></circle><circle cx="597" cy="455" r="2"></circle><circle cx="609" cy="460" r="2"></circle><circle cx="621" cy="464" r="2"></circle><circle cx="633" cy="467" r="2"></circle><circle cx="645" cy="471" r="2"></circle><circle cx="657" cy="474" r="2"></circle><circle cx="669" cy="477" r="2"></circle><circle cx="681" cy="480" r="2"></circle><circle cx="693" cy="483" r="2"></circle><circle cx="704" cy="485" r="2"></circle><circle cx="716" cy="487" r="2"></circle><circle cx="728" cy="489" r="2"></circle></g></g></g></g></g><g style="fill: #777;" class="SourcesFooter"><g style="fill: #777;" class="clickable"><text font-size="12.60" x="15.0" y="581.6"><tspan x="15" y="581.58">Source: World Bank</tspan></text></g><text font-size="12.60" x="775.4" y="581.6"><tspan x="775.402" y="581.58"><a style="fill: #777;" class="cclogo" href="http://creativecommons.org/licenses/by-sa/4.0/deed.en_US" target="_blank">CC BY-SA</a></tspan></text></g></g></svg>