<svg xmlns="http://www.w3.org/2000/svg" version="1.1" style="font-family:&#x27;Helvetica Neue&#x27;, Helvetica, Arial, sans-serif;font-size:18px;background-color:white;text-rendering:optimizeLegibility;-webkit-font-smoothing:antialiased" width="850" height="600"><g class="HeaderView"><a href="https://mispytest-owid.netlify.com/grapher/cost-of-generating-electricity-new-capacity-from-different-sources-in-the-us-20082018" target="_blank"><text font-size="21.60" x="15.0" y="32.3" fill="#555"><tspan x="15" y="32.279999999999994">Cost of generating electricity (new capacity) from different sources in the US</tspan><tspan x="15" y="53.87999999999999">(2008–2018)</tspan></text></a><text font-size="14.40" x="15.0" y="72.7" fill="#666"><tspan x="15" y="72.72">Unit 20 &#x27;Capstone: Economics of the environment’ Section 20.7 &#x27;Dynamic environmental policies: Future technologies and</tspan><tspan x="15" y="88.56">lifestyles&#x27; in The CORE Team, The Economy. Available at https://tinyco.re/2007191 [Figure 20.19b]</tspan></text></g><g class="LineChart"><defs><clipPath id="boundsClip-402"><rect x="46.288000000000004" y="0" width="830" height="894.8"></rect></clipPath></defs><g class="AxisBoxView"><g class="HorizontalAxis"><text x="56.3" y="556.5" fill="#666" text-anchor="middle" font-size="16.2">2008</text><text x="165" y="556.5" fill="#666" text-anchor="middle" font-size="16.2">2010</text><text x="273.8" y="556.5" fill="#666" text-anchor="middle" font-size="16.2">2012</text><text x="382.6" y="556.5" fill="#666" text-anchor="middle" font-size="16.2">2014</text><text x="491.3" y="556.5" fill="#666" text-anchor="middle" font-size="16.2">2016</text><text x="600.1" y="556.5" fill="#666" text-anchor="middle" font-size="16.2">2018</text></g><g class="VerticalAxis"><text x="51.29" y="535.3" fill="#666" dominant-baseline="middle" text-anchor="end" font-size="16.2">$0</text><text x="51.29" y="478" fill="#666" dominant-baseline="middle" text-anchor="end" font-size="16.2">$50</text><text x="51.29" y="420.7" fill="#666" dominant-baseline="middle" text-anchor="end" font-size="16.2">$100</text><text x="51.29" y="363.4" fill="#666" dominant-baseline="middle" text-anchor="end" font-size="16.2">$150</text><text x="51.29" y="306.2" fill="#666" dominant-baseline="middle" text-anchor="end" font-size="16.2">$200</text><text x="51.29" y="248.9" fill="#666" dominant-baseline="middle" text-anchor="end" font-size="16.2">$250</text><text x="51.29" y="191.6" fill="#666" dominant-baseline="middle" text-anchor="end" font-size="16.2">$300</text><text x="51.29" y="134.3" fill="#666" dominant-baseline="middle" text-anchor="end" font-size="16.2">$350</text><text x="15" y="101.1" style="font-size:12px;text-transform:uppercase;cursor:pointer" class="clickable">linear</text></g><g class="AxisGridLines"><line x1="56.29" y1="535.3" x2="600.07" y2="535.3" stroke="#ccc"></line><line x1="56.29" y1="478" x2="600.07" y2="478" stroke="#ddd" stroke-dasharray="3,2"></line><line x1="56.29" y1="420.7" x2="600.07" y2="420.7" stroke="#ddd" stroke-dasharray="3,2"></line><line x1="56.29" y1="363.4" x2="600.07" y2="363.4" stroke="#ddd" stroke-dasharray="3,2"></line><line x1="56.29" y1="306.2" x2="600.07" y2="306.2" stroke="#ddd" stroke-dasharray="3,2"></line><line x1="56.29" y1="248.9" x2="600.07" y2="248.9" stroke="#ddd" stroke-dasharray="3,2"></line><line x1="56.29" y1="191.6" x2="600.07" y2="191.6" stroke="#ddd" stroke-dasharray="3,2"></line><line x1="56.29" y1="134.3" x2="600.07" y2="134.3" stroke="#ddd" stroke-dasharray="3,2"></line></g></g><g clip-path="url(#boundsClip-402)"><g class="HeightedLegend clickable"><g class="legendMark"><g class="indicator"><line x1="605.065" y1="362.9" x2="617.565" y2="362.9" stroke="#666" stroke-width="0.5"></line><line x1="617.565" y1="362.9" x2="617.565" y2="362.9" stroke="#666" stroke-width="0.5"></line><line x1="617.565" y1="362.9" x2="630.065" y2="362.9" stroke="#666" stroke-width="0.5"></line></g><rect x="600.065" y="356.15" width="126.935" height="13.5" fill="#fff" opacity="0"></rect><text font-size="13.50" x="635.1" y="366.9" fill="#a652ba"><tspan x="635.065" y="366.95">$150.5 Nuclear</tspan></text></g><g class="legendMark"><g class="indicator"><line x1="605.065" y1="419" x2="617.565" y2="419" stroke="#666" stroke-width="0.5"></line><line x1="617.565" y1="419" x2="617.565" y2="419" stroke="#666" stroke-width="0.5"></line><line x1="617.565" y1="419" x2="630.065" y2="419" stroke="#666" stroke-width="0.5"></line></g><rect x="600.065" y="412.25" width="108.17" height="13.5" fill="#fff" opacity="0"></rect><text font-size="13.50" x="635.1" y="423.1" fill="#e6332e"><tspan x="635.065" y="423.05">$101.5 Coal</tspan></text></g><g class="legendMark"><g class="indicator"><line x1="605.065" y1="469.4" x2="617.565" y2="469.4" stroke="#666" stroke-width="0.5"></line><line x1="617.565" y1="469.4" x2="617.565" y2="469.4" stroke="#666" stroke-width="0.5"></line><line x1="617.565" y1="469.4" x2="630.065" y2="469.4" stroke="#666" stroke-width="0.5"></line></g><rect x="600.065" y="462.65" width="197.675" height="13.5" fill="#fff" opacity="0"></rect><text font-size="13.50" x="635.1" y="473.4" fill="#f6a324"><tspan x="635.065" y="473.45">$57.5 Gas Combined cycle</tspan></text></g><g class="legendMark"><g class="indicator"><line x1="605.065" y1="486" x2="627.565" y2="486" stroke="#666" stroke-width="0.5"></line><line x1="627.565" y1="486" x2="627.565" y2="486" stroke="#666" stroke-width="0.5"></line><line x1="627.565" y1="486" x2="630.065" y2="486" stroke="#666" stroke-width="0.5"></line></g><rect x="600.065" y="479.25" width="234.935" height="13.5" fill="#fff" opacity="0"></rect><text font-size="13.50" x="635.1" y="490.1" fill="#6bb537"><tspan x="635.065" y="490.05">$43 Crystalline Utility-Scale Solar</tspan></text></g><g class="legendMark"><g class="indicator"><line x1="605.065" y1="486.6" x2="617.565" y2="486.6" stroke="#666" stroke-width="0.5"></line><line x1="617.565" y1="486.6" x2="617.565" y2="501.5" stroke="#666" stroke-width="0.5"></line><line x1="617.565" y1="501.5" x2="630.065" y2="501.5" stroke="#666" stroke-width="0.5"></line></g><rect x="600.065" y="494.75" width="103.58" height="13.5" fill="#fff" opacity="0"></rect><text font-size="13.50" x="635.1" y="505.6" fill="#3360a9"><tspan x="635.065" y="505.55">$42.5 Wind</tspan></text></g></g><g class="Lines"><rect x="56" y="109" width="544" height="426" fill="rgba(255,255,255,0)" opacity="0"></rect><g class="key-Coal_0"><path stroke="#e6332e" stroke-linecap="round" d="M56 416L111 408L165 409L219 408L274 419L328 415L383 411L437 412L491 419L546 419L600 419" fill="none" stroke-width="1.5"></path><g fill="#e6332e"><circle cx="56" cy="416" r="2"></circle><circle cx="111" cy="408" r="2"></circle><circle cx="165" cy="409" r="2"></circle><circle cx="219" cy="408" r="2"></circle><circle cx="274" cy="419" r="2"></circle><circle cx="328" cy="415" r="2"></circle><circle cx="383" cy="411" r="2"></circle><circle cx="437" cy="412" r="2"></circle><circle cx="491" cy="419" r="2"></circle><circle cx="546" cy="419" r="2"></circle><circle cx="600" cy="419" r="2"></circle></g></g><g class="key-Crystalline-Utility__002dScale-Solar_0"><path stroke="#6bb537" stroke-linecap="round" d="M56 109L111 125L165 251L219 355L274 392L328 424L383 445L437 462L491 472L546 479L600 486" fill="none" stroke-width="1.5"></path><g fill="#6bb537"><circle cx="56" cy="109" r="2"></circle><circle cx="111" cy="125" r="2"></circle><circle cx="165" cy="251" r="2"></circle><circle cx="219" cy="355" r="2"></circle><circle cx="274" cy="392" r="2"></circle><circle cx="328" cy="424" r="2"></circle><circle cx="383" cy="445" r="2"></circle><circle cx="437" cy="462" r="2"></circle><circle cx="491" cy="472" r="2"></circle><circle cx="546" cy="479" r="2"></circle><circle cx="600" cy="486" r="2"></circle></g></g><g class="key-Gas-Combined-cycle_0"><path stroke="#f6a324" stroke-linecap="round" d="M56 436L111 441L165 442L219 440L274 449L328 451L383 451L437 461L491 463L546 467L600 469" fill="none" stroke-width="1.5"></path><g fill="#f6a324"><circle cx="56" cy="436" r="2"></circle><circle cx="111" cy="441" r="2"></circle><circle cx="165" cy="442" r="2"></circle><circle cx="219" cy="440" r="2"></circle><circle cx="274" cy="449" r="2"></circle><circle cx="328" cy="451" r="2"></circle><circle cx="383" cy="451" r="2"></circle><circle cx="437" cy="461" r="2"></circle><circle cx="491" cy="463" r="2"></circle><circle cx="546" cy="467" r="2"></circle><circle cx="600" cy="469" r="2"></circle></g></g><g class="key-Nuclear_0"><path stroke="#a652ba" stroke-linecap="round" d="M56 407L111 395L165 426L219 427L274 426L328 416L383 407L437 402L491 402L546 366L600 363" fill="none" stroke-width="1.5"></path><g fill="#a652ba"><circle cx="56" cy="407" r="2"></circle><circle cx="111" cy="395" r="2"></circle><circle cx="165" cy="426" r="2"></circle><circle cx="219" cy="427" r="2"></circle><circle cx="274" cy="426" r="2"></circle><circle cx="328" cy="416" r="2"></circle><circle cx="383" cy="407" r="2"></circle><circle cx="437" cy="402" r="2"></circle><circle cx="491" cy="402" r="2"></circle><circle cx="546" cy="366" r="2"></circle><circle cx="600" cy="363" r="2"></circle></g></g><g class="key-Wind_0"><path stroke="#3360a9" stroke-linecap="round" d="M56 398L111 381L165 394L219 454L274 453L328 455L383 468L437 473L491 482L546 484L600 487" fill="none" stroke-width="1.5"></path><g fill="#3360a9"><circle cx="56" cy="398" r="2"></circle><circle cx="111" cy="381" r="2"></circle><circle cx="165" cy="394" r="2"></circle><circle cx="219" cy="454" r="2"></circle><circle cx="274" cy="453" r="2"></circle><circle cx="328" cy="455" r="2"></circle><circle cx="383" cy="468" r="2"></circle><circle cx="437" cy="473" r="2"></circle><circle cx="491" cy="482" r="2"></circle><circle cx="546" cy="484" r="2"></circle><circle cx="600" cy="487" r="2"></circle></g></g></g></g></g><g class="SourcesFooter" style="fill:#777"><g class="clickable" style="fill:#777"><text font-size="12.60" x="15.0" y="581.6"><tspan x="15" y="581.58">Source: Lazard (2018)</tspan></text></g><text font-size="12.60" x="546.0" y="581.6"><tspan x="545.956" y="581.58"><a target='_blank' style='fill: #777;' href='https://tinyco.re/2007191'>tinyco.re/2007191</a> • <a href="https://ourworldindata.org" target="_blank">Powered by ourworldindata.org</a></tspan></text></g></svg>