<svg xmlns="http://www.w3.org/2000/svg" version="1.1" style="font-family: 'Helvetica Neue', Helvetica, Arial, sans-serif; font-size: 18px; background-color: white; text-rendering: optimizeLegibility; -webkit-font-smoothing: antialiased;" width="850" height="600"><g class="ChartTab"><g class="HeaderView"><g opacity="0.8" transform="translate(778, 15) scale(0.27)"><a xmlns:xlink="http://www.w3.org/1999/xlink" xlink:href="https://ourworldindata.org" target="_blank"><g><rect x="0" y="0" fill="#1B2543" width="211.2" height="130.1"/><rect x="0" y="112.2" fill="#E63912" width="211.2" height="17.9"/><g><rect x="1.2" y="12.3" fill="none" width="210.2" height="99.2"/><path fill="#FFFFFF" d="M37.8,32.2c0,12.7-7.7,19.4-17.1,19.4c-9.7,0-16.6-7.5-16.6-18.7c0-11.7,7.3-19.3,17.1-19.3 C31.3,13.7,37.8,21.3,37.8,32.2z M9.2,32.8c0,7.9,4.3,14.9,11.8,14.9c7.5,0,11.8-6.9,11.8-15.3c0-7.3-3.8-14.9-11.8-14.9 C13.1,17.5,9.2,24.8,9.2,32.8z"/><path fill="#FFFFFF" d="M62.7,43.8c0,2.7,0.1,5.1,0.2,7.2h-4.3l-0.3-4.3h-0.1c-1.3,2.1-4,4.9-8.8,4.9c-4.2,0-9.1-2.3-9.1-11.6 V24.6h4.8v14.6c0,5,1.5,8.4,5.9,8.4c3.2,0,5.5-2.2,6.3-4.4c0.3-0.7,0.4-1.6,0.4-2.5V24.6h4.8V43.8z"/><path fill="#FFFFFF" d="M67.3,32.8c0-3.1-0.1-5.8-0.2-8.2h4.2l0.2,5.2h0.2c1.2-3.5,4.1-5.8,7.3-5.8c0.5,0,0.9,0.1,1.4,0.2v4.5 c-0.5-0.1-1-0.2-1.6-0.2c-3.4,0-5.8,2.6-6.5,6.2c-0.1,0.7-0.2,1.4-0.2,2.2V51h-4.8V32.8z"/><path fill="#FFFFFF" d="M95.4,51l-9.4-36.8h5l4.4,18.6c1.1,4.6,2.1,9.2,2.7,12.7h0.1c0.6-3.7,1.8-8,3-12.8l4.9-18.5h5l4.5,18.7 c1,4.4,2,8.7,2.6,12.6h0.1c0.8-4,1.8-8.1,3-12.7l4.9-18.5h4.9L120.6,51h-5L111,31.9c-1.1-4.7-1.9-8.3-2.4-12h-0.1 c-0.7,3.7-1.5,7.3-2.8,12L100.4,51H95.4z"/><path fill="#FFFFFF" d="M154.9,37.6c0,9.8-6.8,14-13.2,14c-7.2,0-12.7-5.2-12.7-13.6c0-8.8,5.8-14,13.1-14 C149.8,24,154.9,29.5,154.9,37.6z M133.9,37.9c0,5.8,3.3,10.1,8,10.1c4.6,0,8-4.3,8-10.3c0-4.5-2.2-10.1-7.9-10.1 C136.3,27.6,133.9,32.8,133.9,37.9z"/><path fill="#FFFFFF" d="M158.2,32.8c0-3.1-0.1-5.8-0.2-8.2h4.2l0.2,5.2h0.2c1.2-3.5,4.1-5.8,7.3-5.8c0.5,0,0.9,0.1,1.4,0.2v4.5 c-0.5-0.1-1-0.2-1.6-0.2c-3.4,0-5.8,2.6-6.5,6.2c-0.1,0.7-0.2,1.4-0.2,2.2V51h-4.8V32.8z"/><path fill="#FFFFFF" d="M173.5,12.3h4.8V51h-4.8V12.3z"/><path fill="#FFFFFF" d="M206.5,12.3v31.9c0,2.3,0.1,5,0.2,6.8h-4.3l-0.2-4.6H202c-1.5,2.9-4.7,5.2-9,5.2 c-6.4,0-11.3-5.4-11.3-13.4c-0.1-8.8,5.4-14.2,11.9-14.2c4,0,6.8,1.9,8,4h0.1V12.3H206.5z M201.7,35.4c0-0.6-0.1-1.4-0.2-2 c-0.7-3.1-3.3-5.6-6.9-5.6c-5,0-7.9,4.4-7.9,10.2c0,5.3,2.6,9.8,7.8,9.8c3.2,0,6.2-2.1,7.1-5.7c0.2-0.7,0.2-1.3,0.2-2.1V35.4z"/><path fill="#FFFFFF" d="M42.8,64c0.1,1.6-1.1,2.9-3.1,2.9c-1.7,0-2.9-1.3-2.9-2.9c0-1.7,1.3-3,3-3C41.7,61,42.8,62.3,42.8,64z M37.4,97.8V71.4h4.8v26.4H37.4z"/><path fill="#FFFFFF" d="M47.5,78.6c0-2.7-0.1-5-0.2-7.1h4.3l0.3,4.4h0.1c1.3-2.5,4.4-5,8.8-5c3.7,0,9.4,2.2,9.4,11.2v15.8h-4.8 V82.6c0-4.3-1.6-7.8-6.1-7.8c-3.2,0-5.6,2.2-6.5,4.9c-0.2,0.6-0.3,1.4-0.3,2.2v15.9h-4.8V78.6z"/><path fill="#FFFFFF" d="M84,61.6c2.9-0.4,6.3-0.8,10.1-0.8c6.8,0,11.7,1.6,14.9,4.6c3.3,3,5.2,7.3,5.2,13.2c0,6-1.9,10.9-5.3,14.3 c-3.4,3.4-9.1,5.3-16.3,5.3c-3.4,0-6.2-0.2-8.6-0.4V61.6z M88.8,94.1c1.2,0.2,3,0.3,4.8,0.3c10.2,0,15.7-5.7,15.7-15.6 c0.1-8.7-4.9-14.2-14.9-14.2c-2.5,0-4.3,0.2-5.6,0.5V94.1z"/><path fill="#FFFFFF" d="M132.1,97.8l-0.4-3.3h-0.2c-1.5,2.1-4.3,3.9-8.1,3.9c-5.4,0-8.1-3.8-8.1-7.6c0-6.4,5.7-9.9,15.9-9.8v-0.5 c0-2.2-0.6-6.1-6-6.1c-2.5,0-5,0.8-6.9,2l-1.1-3.2c2.2-1.4,5.4-2.3,8.7-2.3c8.1,0,10.1,5.5,10.1,10.8v9.9c0,2.3,0.1,4.5,0.4,6.3 H132.1z M131.4,84.4c-5.3-0.1-11.2,0.8-11.2,5.9c0,3.1,2.1,4.6,4.5,4.6c3.4,0,5.6-2.2,6.4-4.4c0.2-0.5,0.3-1,0.3-1.5V84.4z"/><path fill="#FFFFFF" d="M146.6,63.9v7.6h6.9v3.7h-6.9v14.2c0,3.3,0.9,5.1,3.6,5.1c1.3,0,2.2-0.2,2.8-0.3l0.2,3.6 c-0.9,0.4-2.4,0.7-4.3,0.7c-2.2,0-4-0.7-5.2-2c-1.4-1.4-1.9-3.8-1.9-6.9V75.1h-4.1v-3.7h4.1v-6.3L146.6,63.9z"/><path fill="#FFFFFF" d="M171.4,97.8l-0.4-3.3h-0.2c-1.5,2.1-4.3,3.9-8.1,3.9c-5.4,0-8.1-3.8-8.1-7.6c0-6.4,5.7-9.9,15.9-9.8v-0.5 c0-2.2-0.6-6.1-6-6.1c-2.5,0-5,0.8-6.9,2l-1.1-3.2c2.2-1.4,5.4-2.3,8.7-2.3c8.1,0,10.1,5.5,10.1,10.8v9.9c0,2.3,0.1,4.5,0.4,6.3 H171.4z M170.7,84.4c-5.3-0.1-11.2,0.8-11.2,5.9c0,3.1,2.1,4.6,4.5,4.6c3.4,0,5.6-2.2,6.4-4.4c0.2-0.5,0.3-1,0.3-1.5V84.4z"/></g></g></a></g><a href="https://ourworldindata.org/grapher/educational-attainment-as-a-proxy-for-literacy-rates" target="_blank"><text font-size="25.20" x="15.0" y="35.2" fill="#555"><tspan x="15" y="35.160000000000004">Educational attainment as a proxy for literacy rates</tspan></text></a><text font-size="14.40" x="15.0" y="53.7" fill="#666"><tspan x="15" y="53.72">The literacy rate refers to the share of men and women in the population, aged 15 and over, who are literate. Listed</tspan><tspan x="15" y="69.56">countries use educational attainment as a proxy when reporting to UNESCO UIS. Saint Lucia and Slovakia are also</tspan><tspan x="15" y="85.4">on this list but data is unavailable.</tspan></text></g><g class="LineChart"><defs><clipPath id="boundsClip-253"><rect x="51.634" y="0" width="830" height="897.8"></rect></clipPath></defs><g class="AxisBoxView"><g class="HorizontalAxis"><text x="61.6" y="556.5" fill="#666" text-anchor="middle" font-size="16.2">1980</text><text x="157.6" y="556.5" fill="#666" text-anchor="middle" font-size="16.2">1985</text><text x="253.7" y="556.5" fill="#666" text-anchor="middle" font-size="16.2">1990</text><text x="349.7" y="556.5" fill="#666" text-anchor="middle" font-size="16.2">1995</text><text x="445.7" y="556.5" fill="#666" text-anchor="middle" font-size="16.2">2000</text><text x="541.7" y="556.5" fill="#666" text-anchor="middle" font-size="16.2">2005</text><text x="637.7" y="556.5" fill="#666" text-anchor="middle" font-size="16.2">2010</text><text x="733.7" y="556.5" fill="#666" text-anchor="middle" font-size="16.2">2015</text></g><g class="VerticalAxis"><text x="56.63" y="535.3" fill="#666" dominant-baseline="middle" text-anchor="end" font-size="16.2">0%</text><text x="56.63" y="449.8" fill="#666" dominant-baseline="middle" text-anchor="end" font-size="16.2">20%</text><text x="56.63" y="364.2" fill="#666" dominant-baseline="middle" text-anchor="end" font-size="16.2">40%</text><text x="56.63" y="278.7" fill="#666" dominant-baseline="middle" text-anchor="end" font-size="16.2">60%</text><text x="56.63" y="193.1" fill="#666" dominant-baseline="middle" text-anchor="end" font-size="16.2">80%</text><text x="56.63" y="107.6" fill="#666" dominant-baseline="middle" text-anchor="end" font-size="16.2">100%</text></g><g class="AxisGridLines"><line x1="61.63" y1="535.3" x2="733.72" y2="535.3" stroke="#ccc"></line><line x1="61.63" y1="449.8" x2="733.72" y2="449.8" stroke="#ddd" stroke-dasharray="3,2"></line><line x1="61.63" y1="364.2" x2="733.72" y2="364.2" stroke="#ddd" stroke-dasharray="3,2"></line><line x1="61.63" y1="278.7" x2="733.72" y2="278.7" stroke="#ddd" stroke-dasharray="3,2"></line><line x1="61.63" y1="193.1" x2="733.72" y2="193.1" stroke="#ddd" stroke-dasharray="3,2"></line><line x1="61.63" y1="107.6" x2="733.72" y2="107.6" stroke="#ddd" stroke-dasharray="3,2"></line></g></g><g clip-path="url(#boundsClip-253)"><g class="HeightedLegend clickable"><g class="legendMark"><g class="indicator"><line x1="738.715" y1="108.4" x2="761.215" y2="108.4" stroke="#666" stroke-width="0.5"></line><line x1="761.215" y1="108.4" x2="761.215" y2="108.4" stroke="#666" stroke-width="0.5"></line><line x1="761.215" y1="108.4" x2="763.715" y2="108.4" stroke="#666" stroke-width="0.5"></line></g><rect x="733.715" y="101.65" width="80.225" height="13.5" fill="#fff" opacity="0"></rect><text font-size="13.50" x="768.7" y="112.5" fill="#9ecc8a"><tspan x="768.715" y="112.45">Estonia</tspan></text></g><g class="legendMark"><g class="indicator"><line x1="738.715" y1="108.6" x2="758.715" y2="108.6" stroke="#666" stroke-width="0.5"></line><line x1="758.715" y1="108.6" x2="758.715" y2="123.9" stroke="#666" stroke-width="0.5"></line><line x1="758.715" y1="123.9" x2="763.715" y2="123.9" stroke="#666" stroke-width="0.5"></line></g><rect x="733.715" y="117.15" width="81.575" height="13.5" fill="#fff" opacity="0"></rect><text font-size="13.50" x="768.7" y="128.0" fill="#e6332e"><tspan x="768.715" y="127.95">Ukraine</tspan></text></g><g class="legendMark"><g class="indicator"><line x1="738.715" y1="110.2" x2="756.215" y2="110.2" stroke="#666" stroke-width="0.5"></line><line x1="756.215" y1="110.2" x2="756.215" y2="139.4" stroke="#666" stroke-width="0.5"></line><line x1="756.215" y1="139.4" x2="763.715" y2="139.4" stroke="#666" stroke-width="0.5"></line></g><rect x="733.715" y="132.65" width="86.165" height="13.5" fill="#fff" opacity="0"></rect><text font-size="13.50" x="768.7" y="143.5" fill="#2a939b"><tspan x="768.715" y="143.45000000000002">Hungary</tspan></text></g><g class="legendMark"><g class="indicator"><line x1="738.715" y1="112.9" x2="753.715" y2="112.9" stroke="#666" stroke-width="0.5"></line><line x1="753.715" y1="112.9" x2="753.715" y2="154.9" stroke="#666" stroke-width="0.5"></line><line x1="753.715" y1="154.9" x2="763.715" y2="154.9" stroke="#666" stroke-width="0.5"></line></g><rect x="733.715" y="148.15" width="89.135" height="13.5" fill="#fff" opacity="0"></rect><text font-size="13.50" x="768.7" y="159.0" fill="#a652ba"><tspan x="768.715" y="158.95000000000002">Romania</tspan></text></g><g class="legendMark"><g class="indicator"><line x1="738.715" y1="116.8" x2="751.215" y2="116.8" stroke="#666" stroke-width="0.5"></line><line x1="751.215" y1="116.8" x2="751.215" y2="170.4" stroke="#666" stroke-width="0.5"></line><line x1="751.215" y1="170.4" x2="763.715" y2="170.4" stroke="#666" stroke-width="0.5"></line></g><rect x="733.715" y="163.65" width="101.28500000000001" height="13.5" fill="#fff" opacity="0"></rect><text font-size="13.50" x="768.7" y="174.5" fill="#f6a324"><tspan x="768.715" y="174.45000000000002">Macedonia</tspan></text></g><g class="legendMark"><g class="indicator"><line x1="738.715" y1="127.7" x2="748.715" y2="127.7" stroke="#666" stroke-width="0.5"></line><line x1="748.715" y1="127.7" x2="748.715" y2="185.9" stroke="#666" stroke-width="0.5"></line><line x1="748.715" y1="185.9" x2="763.715" y2="185.9" stroke="#666" stroke-width="0.5"></line></g><rect x="733.715" y="179.15" width="79.415" height="13.5" fill="#fff" opacity="0"></rect><text font-size="13.50" x="768.7" y="190.0" fill="#34983f"><tspan x="768.715" y="189.95000000000002">Greece</tspan></text></g><g class="legendMark"><g class="indicator"><line x1="738.715" y1="128.7" x2="746.215" y2="128.7" stroke="#666" stroke-width="0.5"></line><line x1="746.215" y1="128.7" x2="746.215" y2="201.4" stroke="#666" stroke-width="0.5"></line><line x1="746.215" y1="201.4" x2="763.715" y2="201.4" stroke="#666" stroke-width="0.5"></line></g><rect x="733.715" y="194.65" width="93.05000000000001" height="13.5" fill="#fff" opacity="0"></rect><text font-size="13.50" x="768.7" y="205.5" fill="#ca2628"><tspan x="768.715" y="205.45000000000002">Paraguay</tspan></text></g><g class="legendMark"><g class="indicator"><line x1="738.715" y1="142.9" x2="743.715" y2="142.9" stroke="#666" stroke-width="0.5"></line><line x1="743.715" y1="142.9" x2="743.715" y2="216.9" stroke="#666" stroke-width="0.5"></line><line x1="743.715" y1="216.9" x2="763.715" y2="216.9" stroke="#666" stroke-width="0.5"></line></g><rect x="733.715" y="210.15" width="68.075" height="13.5" fill="#fff" opacity="0"></rect><text font-size="13.50" x="768.7" y="221.0" fill="#3360a9"><tspan x="768.715" y="220.95000000000002">Israel</tspan></text></g></g><g class="Lines"><rect x="62" y="108" width="672" height="428" fill="rgba(255,255,255,0)" opacity="0"></rect><g class="key-Estonia_0"><path stroke="#9ecc8a" stroke-linecap="round" d="M235 109L446 109L657 108L734 108" fill="none" stroke-width="1.5"></path><g fill="#9ecc8a"><circle cx="235" cy="109" r="2"></circle><circle cx="446" cy="109" r="2"></circle><circle cx="657" cy="108" r="2"></circle><circle cx="734" cy="108" r="2"></circle></g></g><g class="key-Greece_0"><path stroke="#34983f" stroke-linecap="round" d="M81 148L273 139L465 125L542 137L580 134L619 134L657 120L715 118L734 128" fill="none" stroke-width="1.5"></path><g fill="#34983f"><circle cx="81" cy="148" r="2"></circle><circle cx="273" cy="139" r="2"></circle><circle cx="465" cy="125" r="2"></circle><circle cx="542" cy="137" r="2"></circle><circle cx="580" cy="134" r="2"></circle><circle cx="619" cy="134" r="2"></circle><circle cx="657" cy="120" r="2"></circle><circle cx="715" cy="118" r="2"></circle><circle cx="734" cy="128" r="2"></circle></g></g><g class="key-Hungary_0"><path stroke="#2a939b" stroke-linecap="round" d="M62 113L331 112L523 112L715 112L734 110" fill="none" stroke-width="1.5"></path><g fill="#2a939b"><circle cx="62" cy="113" r="2"></circle><circle cx="331" cy="112" r="2"></circle><circle cx="523" cy="112" r="2"></circle><circle cx="715" cy="112" r="2"></circle><circle cx="734" cy="110" r="2"></circle></g></g><g class="key-Israel_0"><path stroke="#3360a9" stroke-linecap="round" d="M119 143" fill="none" stroke-width="1.5"></path><g fill="#3360a9"><circle cx="119" cy="143" r="2"></circle></g></g><g class="key-Paraguay_0"><path stroke="#ca2628" stroke-linecap="round" d="M100 200L292 149L580 131L599 136L619 134L638 134L715 131L734 129" fill="none" stroke-width="1.5"></path><g fill="#ca2628"><circle cx="100" cy="200" r="2"></circle><circle cx="292" cy="149" r="2"></circle><circle cx="580" cy="131" r="2"></circle><circle cx="599" cy="136" r="2"></circle><circle cx="619" cy="134" r="2"></circle><circle cx="638" cy="134" r="2"></circle><circle cx="715" cy="131" r="2"></circle><circle cx="734" cy="129" r="2"></circle></g></g><g class="key-Romania_0"><path stroke="#a652ba" stroke-linecap="round" d="M292 122L484 119L657 114L734 113" fill="none" stroke-width="1.5"></path><g fill="#a652ba"><circle cx="292" cy="122" r="2"></circle><circle cx="484" cy="119" r="2"></circle><circle cx="657" cy="114" r="2"></circle><circle cx="734" cy="113" r="2"></circle></g></g><g class="key-Macedonia_0"><path stroke="#f6a324" stroke-linecap="round" d="M331 133L484 124L715 117L734 117" fill="none" stroke-width="1.5"></path><g fill="#f6a324"><circle cx="331" cy="133" r="2"></circle><circle cx="484" cy="124" r="2"></circle><circle cx="715" cy="117" r="2"></circle><circle cx="734" cy="117" r="2"></circle></g></g><g class="key-Ukraine_0"><path stroke="#e6332e" stroke-linecap="round" d="M465 110L676 108L715 109L734 109" fill="none" stroke-width="1.5"></path><g fill="#e6332e"><circle cx="465" cy="110" r="2"></circle><circle cx="676" cy="108" r="2"></circle><circle cx="715" cy="109" r="2"></circle><circle cx="734" cy="109" r="2"></circle></g></g></g></g></g><g style="fill: #777;" class="SourcesFooter"><g style="fill: #777;" class="clickable"><text font-size="12.60" x="15.0" y="581.6"><tspan x="15" y="581.58">Source: World Bank</tspan></text></g><text font-size="12.60" x="775.4" y="581.6"><tspan x="775.402" y="581.58"><a style="fill: #777;" class="cclogo" href="http://creativecommons.org/licenses/by-sa/4.0/deed.en_US" target="_blank">CC BY-SA</a></tspan></text></g></g></svg>