<svg xmlns="http://www.w3.org/2000/svg" version="1.1" style="font-family:Lato, &#x27;Helvetica Neue&#x27;, Helvetica, Arial, sans-serif;font-size:18px;background-color:white;text-rendering:optimizeLegibility;-webkit-font-smoothing:antialiased" width="850" height="600"><g class="HeaderView"><g transform="translate(739, 15) scale(0.95)"><svg width="102" height="37" viewBox="0 0 102 37" fill="none" xmlns="http://www.w3.org/2000/svg">
    <path d="M47 0H0V37H47V0Z" fill="#EA4148"/>
    <path d="M3.78448 11.8471C3.78448 8.29581 6.4514 6.24184 9.45661 6.24184C10.5862 6.22139 11.6845 6.61681 12.547 7.35439L10.8535 9.70712C10.536 9.39217 10.1133 9.20888 9.66865 9.19339C8.31383 9.19339 7.50968 10.2205 7.50968 11.8465C7.50968 13.4724 8.39833 14.4993 9.54143 14.4993C10.1632 14.4577 10.7559 14.218 11.2346 13.8147L12.6315 16.2106C11.6462 17.0381 10.3987 17.4787 9.11799 17.4515C6.11213 17.4521 3.78448 15.3981 3.78448 11.8471Z" fill="white"/>
    <path d="M18.8533 11.8468C18.8533 10.2208 18.4299 9.1937 17.3295 9.1937C16.2291 9.1937 15.8057 10.2208 15.8057 11.8468C15.8057 13.4728 16.2288 14.4996 17.3295 14.4996C18.4302 14.4996 18.8533 13.4728 18.8533 11.8468ZM12.0805 11.8468C12.0805 8.29548 14.6205 6.24152 17.3295 6.24152C20.0385 6.24152 22.5785 8.29548 22.5785 11.8468C22.5785 15.3981 20.0388 17.4518 17.3295 17.4518C14.6202 17.4518 12.0805 15.3978 12.0805 11.8468" fill="white"/>
    <path d="M23.3444 6.49837H26.3078L26.5629 8.33833H26.6477C27.4305 6.88351 28.616 6.24183 29.653 6.24183C30.1005 6.21786 30.5479 6.2907 30.9654 6.4555L30.3726 9.62169C29.9857 9.51704 29.5878 9.45969 29.1874 9.45088C28.4254 9.45088 27.494 9.92142 26.9873 11.2477V17.1949H23.3444V6.49837Z" fill="white"/>
    <path d="M36.9755 10.5631C36.9755 9.7503 36.6369 9.02289 35.5365 9.02289C34.732 9.02289 34.0548 9.49343 33.843 10.5631H36.9755ZM30.372 11.8468C30.372 8.38121 32.8696 6.24152 35.4517 6.24152C38.5841 6.24152 40.0655 8.55202 40.0655 11.4188C40.0678 11.9359 40.0182 12.452 39.9176 12.959H33.8845C34.2231 14.2427 35.1545 14.6704 36.3397 14.6704C37.1026 14.652 37.8473 14.4306 38.4987 14.0287L39.6838 16.2109C38.5453 16.9915 37.2075 17.4225 35.8321 17.4518C32.7417 17.4518 30.3713 15.3978 30.3713 11.8468" fill="white"/>
    <path d="M10.432 23.8695C10.432 23.0567 10.0934 22.3293 8.993 22.3293C8.18853 22.3293 7.51128 22.7998 7.29956 23.8695H10.432ZM3.82849 25.1532C3.82849 21.6876 6.32609 19.5479 8.90818 19.5479C12.0406 19.5479 13.522 21.8584 13.522 24.7252C13.5243 25.2423 13.4747 25.7584 13.3741 26.2654H7.34196C7.68059 27.5491 8.61197 27.9768 9.79716 27.9768C10.5601 27.9583 11.3047 27.737 11.9561 27.3351L13.1413 29.5173C12.0027 30.2979 10.665 30.7288 9.28954 30.7582C6.19918 30.7582 3.82881 28.7042 3.82881 25.1532" fill="#1A1818"/>
    <path d="M13.9034 25.1532C13.9034 21.6019 16.5703 19.5479 19.5755 19.5479C20.7051 19.5275 21.8034 19.9229 22.6659 20.6605L20.9724 23.0132C20.6549 22.6983 20.2322 22.515 19.7875 22.4995C18.4327 22.4995 17.6286 23.5266 17.6286 25.1526C17.6286 26.7785 18.5172 27.8054 19.6603 27.8054C20.282 27.764 20.8747 27.5245 21.3534 27.1215L22.7504 29.5174C21.7651 30.3449 20.5176 30.7854 19.2369 30.7582C16.2313 30.7582 13.9034 28.7042 13.9034 25.1532" fill="#1A1818"/>
    <path d="M28.9741 25.1532C28.9741 23.5272 28.5507 22.5001 27.4503 22.5001C26.3499 22.5001 25.9265 23.5272 25.9265 25.1532C25.9265 26.7792 26.3496 27.806 27.4503 27.806C28.551 27.806 28.9741 26.7792 28.9741 25.1532ZM22.2013 25.1532C22.2013 21.6019 24.7413 19.5479 27.4503 19.5479C30.1593 19.5479 32.6993 21.6019 32.6993 25.1532C32.6993 28.7045 30.1583 30.7591 27.449 30.7591C24.7397 30.7591 22.2 28.7052 22.2 25.1542" fill="#1A1818"/>
    <path d="M33.5449 19.8048H36.5084L36.7635 21.0885H36.8483C37.6945 20.2757 38.7528 19.5483 40.1921 19.5483C42.5198 19.5483 43.4939 21.2596 43.4939 23.9124V30.5013H39.8522V24.383C39.8522 23.0139 39.5136 22.6716 38.7939 22.6716C38.1167 22.6716 37.7356 22.971 37.1856 23.4844V30.5013H33.5449V19.8048Z" fill="#1A1818"/>
    <rect width="54" height="37" transform="translate(48)" fill="white"/>
    <path d="M48 0H101.93V32.9917H48V0Z" fill="#002147"/>
    <path d="M58.4185 10.86C58.4185 11.4733 58.3189 12.0387 58.1195 12.5562C57.9202 13.0737 57.6384 13.5203 57.2743 13.896C56.9139 14.2678 56.4789 14.5592 55.969 14.77C55.463 14.9808 54.8995 15.0863 54.2785 15.0863C53.6614 15.0863 53.0979 14.9808 52.588 14.77C52.082 14.5592 51.6469 14.2678 51.2828 13.896C50.9186 13.5203 50.6369 13.0737 50.4375 12.5562C50.2382 12.0387 50.1385 11.4733 50.1385 10.86C50.1385 10.2467 50.2382 9.68125 50.4375 9.16375C50.6369 8.64625 50.9186 8.19967 51.2828 7.824C51.6469 7.44833 52.082 7.15508 52.588 6.94425C53.0979 6.73342 53.6614 6.628 54.2785 6.628C54.8995 6.628 55.463 6.73342 55.969 6.94425C56.4789 7.15508 56.9139 7.44833 57.2743 7.824C57.6384 8.19967 57.9202 8.64625 58.1195 9.16375C58.3189 9.68125 58.4185 10.2467 58.4185 10.86ZM57.0443 10.86C57.0443 10.3847 56.9791 9.95725 56.8488 9.57775C56.7223 9.19825 56.5383 8.87625 56.2968 8.61175C56.0591 8.34725 55.7697 8.14408 55.4285 8.00225C55.0874 7.86042 54.704 7.7895 54.2785 7.7895C53.8569 7.7895 53.4754 7.86042 53.1343 8.00225C52.7931 8.14408 52.5018 8.34725 52.2603 8.61175C52.0188 8.87625 51.8329 9.19825 51.7025 9.57775C51.5722 9.95725 51.507 10.3847 51.507 10.86C51.507 11.3392 51.5722 11.7685 51.7025 12.148C51.8329 12.5275 52.0188 12.8495 52.2603 13.114C52.5018 13.3747 52.7931 13.5759 53.1343 13.7177C53.4754 13.8557 53.8569 13.9247 54.2785 13.9247C54.704 13.9247 55.0874 13.8557 55.4285 13.7177C55.7697 13.5759 56.0591 13.3747 56.2968 13.114C56.5383 12.8495 56.7223 12.5275 56.8488 12.148C56.9791 11.7685 57.0443 11.3392 57.0443 10.86ZM64.1841 9.135V15H63.4366C63.2717 15 63.1663 14.9214 63.1203 14.7642L63.0283 14.218C62.9056 14.3483 62.7753 14.4672 62.6373 14.5745C62.5031 14.6818 62.3594 14.7738 62.2061 14.8505C62.0527 14.9272 61.8879 14.9866 61.7116 15.0288C61.5391 15.0709 61.3531 15.092 61.1538 15.092C60.8318 15.092 60.5481 15.0383 60.3028 14.931C60.0575 14.8237 59.8505 14.6722 59.6818 14.4767C59.517 14.2812 59.3924 14.0474 59.3081 13.7752C59.2237 13.4992 59.1816 13.1964 59.1816 12.8667V9.135H60.4178V12.8667C60.4178 13.2616 60.5079 13.5682 60.6881 13.7867C60.8721 14.0052 61.15 14.1145 61.5218 14.1145C61.794 14.1145 62.047 14.0532 62.2808 13.9305C62.5185 13.804 62.7408 13.6315 62.9478 13.413V9.135H64.1841ZM66.5076 10.2217C66.6916 9.84992 66.9139 9.55858 67.1746 9.34775C67.4353 9.13308 67.7477 9.02575 68.1119 9.02575C68.2384 9.02575 68.3572 9.04108 68.4684 9.07175C68.5795 9.09858 68.6792 9.14075 68.7674 9.19825L68.6811 10.1297C68.6658 10.1949 68.6409 10.2409 68.6064 10.2677C68.5757 10.2907 68.5335 10.3022 68.4799 10.3022C68.4224 10.3022 68.3399 10.2927 68.2326 10.2735C68.1253 10.2505 68.0122 10.239 67.8934 10.239C67.7209 10.239 67.5675 10.2639 67.4334 10.3137C67.303 10.3636 67.1842 10.4364 67.0769 10.5322C66.9734 10.6281 66.8814 10.745 66.8009 10.883C66.7204 11.021 66.6456 11.1782 66.5766 11.3545V15H65.3404V9.135H66.0591C66.1894 9.135 66.2795 9.15992 66.3294 9.20975C66.3792 9.25575 66.4137 9.33817 66.4329 9.457L66.5076 10.2217ZM82.5146 6.72L79.9386 15H78.7254L76.7819 9.0545C76.7589 8.98933 76.7359 8.91842 76.7129 8.84175C76.6937 8.76508 76.6745 8.68267 76.6554 8.5945C76.6362 8.68267 76.6151 8.76508 76.5921 8.84175C76.5729 8.91842 76.5519 8.98933 76.5289 9.0545L74.5681 15H73.3549L70.7789 6.72H71.9059C72.0209 6.72 72.1167 6.74875 72.1934 6.80625C72.2739 6.85992 72.3275 6.93467 72.3544 7.0305L73.9069 12.3377C73.9375 12.4527 73.9663 12.5773 73.9931 12.7115C74.0199 12.8457 74.0468 12.9856 74.0736 13.1312C74.1004 12.9856 74.1292 12.8457 74.1599 12.7115C74.1944 12.5735 74.2308 12.4489 74.2691 12.3377L76.0459 7.0305C76.0727 6.95383 76.1264 6.88292 76.2069 6.81775C76.2874 6.75258 76.3832 6.72 76.4944 6.72H76.8854C77.0042 6.72 77.1 6.75067 77.1729 6.812C77.2457 6.8695 77.3013 6.94233 77.3396 7.0305L79.1106 12.3377C79.1489 12.4489 79.1834 12.5697 79.2141 12.7C79.2486 12.8265 79.2793 12.9607 79.3061 13.1025C79.3329 12.9607 79.3579 12.8265 79.3809 12.7C79.4077 12.5697 79.4364 12.4489 79.4671 12.3377L81.0139 7.0305C81.0369 6.94617 81.0886 6.87333 81.1691 6.812C81.2534 6.75067 81.3512 6.72 81.4624 6.72H82.5146ZM84.9222 9.043C85.3553 9.043 85.7463 9.11392 86.0952 9.25575C86.4478 9.39758 86.7468 9.59883 86.9922 9.8595C87.2413 10.1202 87.433 10.4364 87.5672 10.8082C87.7013 11.1801 87.7684 11.5979 87.7684 12.0617C87.7684 12.5256 87.7013 12.9434 87.5672 13.3152C87.433 13.6871 87.2413 14.0052 86.9922 14.2697C86.7468 14.5304 86.4478 14.7317 86.0952 14.8735C85.7463 15.0153 85.3553 15.0863 84.9222 15.0863C84.4852 15.0863 84.0903 15.0153 83.7377 14.8735C83.3888 14.7317 83.0898 14.5304 82.8407 14.2697C82.5915 14.0052 82.3998 13.6871 82.2657 13.3152C82.1315 12.9434 82.0644 12.5256 82.0644 12.0617C82.0644 11.5979 82.1315 11.1801 82.2657 10.8082C82.3998 10.4364 82.5915 10.1202 82.8407 9.8595C83.0898 9.59883 83.3888 9.39758 83.7377 9.25575C84.0903 9.11392 84.4852 9.043 84.9222 9.043ZM84.9222 14.1202C85.4512 14.1202 85.8441 13.9439 86.1009 13.5912C86.3616 13.2347 86.4919 12.7268 86.4919 12.0675C86.4919 11.4082 86.3616 10.9002 86.1009 10.5437C85.8441 10.1834 85.4512 10.0032 84.9222 10.0032C84.3855 10.0032 83.9868 10.1834 83.7262 10.5437C83.4655 10.9002 83.3352 11.4082 83.3352 12.0675C83.3352 12.7268 83.4655 13.2347 83.7262 13.5912C83.9868 13.9439 84.3855 14.1202 84.9222 14.1202ZM89.7785 10.2217C89.9625 9.84992 90.1848 9.55858 90.4455 9.34775C90.7061 9.13308 91.0186 9.02575 91.3827 9.02575C91.5092 9.02575 91.6281 9.04108 91.7392 9.07175C91.8504 9.09858 91.9501 9.14075 92.0382 9.19825L91.952 10.1297C91.9366 10.1949 91.9117 10.2409 91.8772 10.2677C91.8466 10.2907 91.8044 10.3022 91.7507 10.3022C91.6932 10.3022 91.6108 10.2927 91.5035 10.2735C91.3961 10.2505 91.2831 10.239 91.1642 10.239C90.9917 10.239 90.8384 10.2639 90.7042 10.3137C90.5739 10.3636 90.4551 10.4364 90.3477 10.5322C90.2442 10.6281 90.1522 10.745 90.0717 10.883C89.9912 11.021 89.9165 11.1782 89.8475 11.3545V15H88.6112V9.135H89.33C89.4603 9.135 89.5504 9.15992 89.6002 9.20975C89.6501 9.25575 89.6846 9.33817 89.7037 9.457L89.7785 10.2217ZM93.7706 6.49V15H92.5343V6.49H93.7706ZM98.6948 10.5782C98.5223 10.3559 98.3325 10.2007 98.1255 10.1125C97.9185 10.0243 97.6943 9.98025 97.4528 9.98025C96.9698 9.98025 96.5922 10.1585 96.32 10.515C96.0478 10.8677 95.9118 11.3909 95.9118 12.0847C95.9118 12.4451 95.9424 12.7537 96.0038 13.0105C96.0651 13.2635 96.1533 13.4705 96.2683 13.6315C96.3833 13.7925 96.5232 13.9094 96.688 13.9822C96.8528 14.0551 97.0388 14.0915 97.2458 14.0915C97.5601 14.0915 97.8303 14.0244 98.0565 13.8902C98.2865 13.7522 98.4993 13.5587 98.6948 13.3095V10.5782ZM99.931 6.49V15H99.1835C99.0187 15 98.9133 14.9214 98.8673 14.7642L98.758 14.126C98.5127 14.4135 98.2328 14.6454 97.9185 14.8217C97.608 14.9981 97.2458 15.0863 96.8318 15.0863C96.5021 15.0863 96.2031 15.0211 95.9348 14.8907C95.6664 14.7566 95.4364 14.563 95.2448 14.31C95.0531 14.057 94.9036 13.7446 94.7963 13.3727C94.6928 12.9971 94.641 12.5677 94.641 12.0847C94.641 11.6477 94.6985 11.2433 94.8135 10.8715C94.9323 10.4997 95.101 10.1777 95.3195 9.9055C95.538 9.6295 95.8025 9.41483 96.113 9.2615C96.4273 9.10433 96.7781 9.02575 97.1653 9.02575C97.5103 9.02575 97.8035 9.08133 98.045 9.1925C98.2865 9.29983 98.5031 9.45125 98.6948 9.64675V6.49H99.931ZM60.0273 21.135V27H58.7911V21.135H60.0273ZM60.2343 19.364C60.2343 19.4752 60.2113 19.5806 60.1653 19.6802C60.1231 19.7799 60.0637 19.8681 59.9871 19.9447C59.9104 20.0176 59.8203 20.077 59.7168 20.123C59.6171 20.1652 59.5098 20.1862 59.3948 20.1862C59.2836 20.1862 59.1782 20.1652 59.0786 20.123C58.9827 20.077 58.8984 20.0176 58.8256 19.9447C58.7527 19.8681 58.6933 19.7799 58.6473 19.6802C58.6051 19.5806 58.5841 19.4752 58.5841 19.364C58.5841 19.249 58.6051 19.1417 58.6473 19.042C58.6933 18.9423 58.7527 18.8561 58.8256 18.7832C58.8984 18.7066 58.9827 18.6472 59.0786 18.605C59.1782 18.559 59.2836 18.536 59.3948 18.536C59.5098 18.536 59.6171 18.559 59.7168 18.605C59.8203 18.6472 59.9104 18.7066 59.9871 18.7832C60.0637 18.8561 60.1231 18.9423 60.1653 19.042C60.2113 19.1417 60.2343 19.249 60.2343 19.364ZM62.3914 21.9112C62.5179 21.7809 62.6482 21.664 62.7824 21.5605C62.9204 21.4532 63.066 21.3612 63.2194 21.2845C63.3727 21.2078 63.5356 21.1484 63.7081 21.1062C63.8806 21.0641 64.0684 21.043 64.2716 21.043C64.5936 21.043 64.8754 21.0967 65.1169 21.204C65.3622 21.3113 65.5673 21.4627 65.7321 21.6582C65.9008 21.8537 66.0273 22.0895 66.1116 22.3655C66.1959 22.6377 66.2381 22.9386 66.2381 23.2682V27H65.0076V23.2682C65.0076 22.8734 64.9156 22.5667 64.7316 22.3482C64.5514 22.1297 64.2754 22.0205 63.9036 22.0205C63.6276 22.0205 63.3708 22.0837 63.1331 22.2102C62.8993 22.3367 62.6789 22.5092 62.4719 22.7277V27H61.2356V21.135H61.9831C62.1518 21.135 62.2591 21.2136 62.3051 21.3707L62.3914 21.9112ZM77.3537 22.86C77.3537 23.4733 77.254 24.0349 77.0547 24.5447C76.8553 25.0507 76.5736 25.4858 76.2094 25.85C75.8491 26.2142 75.414 26.4978 74.9042 26.701C74.3982 26.9003 73.8347 27 73.2137 27H70.0857V18.72H73.2137C73.8347 18.72 74.3982 18.8216 74.9042 19.0247C75.414 19.2241 75.8491 19.5058 76.2094 19.87C76.5736 20.2342 76.8553 20.6712 77.0547 21.181C77.254 21.687 77.3537 22.2467 77.3537 22.86ZM75.9794 22.86C75.9794 22.3847 75.9143 21.9572 75.7839 21.5777C75.6574 21.1982 75.4734 20.8782 75.2319 20.6175C74.9943 20.3568 74.7048 20.1575 74.3637 20.0195C74.0225 19.8777 73.6392 19.8067 73.2137 19.8067H71.4369V25.9132H73.2137C73.6392 25.9132 74.0225 25.8442 74.3637 25.7062C74.7048 25.5682 74.9943 25.3689 75.2319 25.1082C75.4734 24.8437 75.6574 24.5237 75.7839 24.148C75.9143 23.7685 75.9794 23.3392 75.9794 22.86ZM81.247 24.4355C80.8061 24.4508 80.4343 24.4872 80.1315 24.5447C79.8286 24.5984 79.5833 24.6693 79.3955 24.7575C79.2076 24.8418 79.0715 24.9434 78.9872 25.0622C78.9067 25.1811 78.8665 25.3114 78.8665 25.4532C78.8665 25.5912 78.8875 25.7101 78.9297 25.8097C78.9757 25.9056 79.037 25.9861 79.1137 26.0512C79.1942 26.1126 79.2862 26.1586 79.3897 26.1892C79.497 26.2161 79.614 26.2295 79.7405 26.2295C80.0625 26.2295 80.3385 26.1701 80.5685 26.0512C80.8023 25.9286 81.0285 25.7522 81.247 25.5223V24.4355ZM77.9695 21.9515C78.6326 21.3343 79.4223 21.0257 80.3385 21.0257C80.6758 21.0257 80.9748 21.0813 81.2355 21.1925C81.5 21.2998 81.7204 21.4532 81.8967 21.6525C82.0769 21.8518 82.213 22.0895 82.305 22.3655C82.4008 22.6377 82.4487 22.9405 82.4487 23.274V27H81.8967C81.7779 27 81.6878 26.9827 81.6265 26.9482C81.5651 26.9099 81.5134 26.8352 81.4712 26.724L81.3505 26.2467C81.201 26.3809 81.0534 26.5017 80.9077 26.609C80.762 26.7125 80.6106 26.8007 80.4535 26.8735C80.3001 26.9463 80.1334 27 79.9532 27.0345C79.7769 27.0728 79.5814 27.092 79.3667 27.092C79.129 27.092 78.9067 27.0594 78.6997 26.9942C78.4965 26.9291 78.3202 26.8313 78.1707 26.701C78.0212 26.5668 77.9024 26.402 77.8142 26.2065C77.7299 26.011 77.6877 25.781 77.6877 25.5165C77.6877 25.2903 77.7471 25.0699 77.866 24.8552C77.9886 24.6406 78.188 24.4489 78.464 24.2802C78.7438 24.1077 79.1099 23.9659 79.5622 23.8547C80.0184 23.7436 80.58 23.6803 81.247 23.665V23.274C81.247 22.8523 81.1569 22.538 80.9767 22.331C80.7965 22.124 80.532 22.0205 80.1832 22.0205C79.9455 22.0205 79.7462 22.0512 79.5852 22.1125C79.4242 22.17 79.2843 22.2332 79.1655 22.3022C79.0466 22.3712 78.9412 22.4364 78.8492 22.4977C78.7572 22.5552 78.6595 22.584 78.556 22.584C78.4716 22.584 78.3988 22.5629 78.3375 22.5207C78.28 22.4747 78.232 22.4192 78.1937 22.354L77.9695 21.9515ZM85.3535 27.092C84.8667 27.092 84.491 26.9559 84.2265 26.6837C83.9659 26.4077 83.8355 26.0206 83.8355 25.5223V22.1067H83.1915C83.1225 22.1067 83.0631 22.0857 83.0133 22.0435C82.9635 21.9975 82.9385 21.9304 82.9385 21.8422V21.342L83.8873 21.204L84.1575 19.5077C84.1767 19.4426 84.2093 19.3908 84.2553 19.3525C84.3013 19.3103 84.3626 19.2892 84.4393 19.2892H85.0718V21.2155H86.699V22.1067H85.0718V25.436C85.0718 25.6468 85.1235 25.8078 85.227 25.919C85.3305 26.0302 85.4685 26.0857 85.641 26.0857C85.7369 26.0857 85.8193 26.0742 85.8883 26.0512C85.9573 26.0244 86.0167 25.9976 86.0665 25.9707C86.1164 25.9401 86.1585 25.9132 86.193 25.8902C86.2314 25.8634 86.2678 25.85 86.3023 25.85C86.3713 25.85 86.4269 25.8883 86.469 25.965L86.837 26.5687C86.6454 26.7374 86.4192 26.8677 86.1585 26.9597C85.8979 27.0479 85.6295 27.092 85.3535 27.092ZM90.4622 24.4355C90.0214 24.4508 89.6496 24.4872 89.3467 24.5447C89.0439 24.5984 88.7986 24.6693 88.6107 24.7575C88.4229 24.8418 88.2868 24.9434 88.2025 25.0622C88.122 25.1811 88.0817 25.3114 88.0817 25.4532C88.0817 25.5912 88.1028 25.7101 88.145 25.8097C88.191 25.9056 88.2523 25.9861 88.329 26.0512C88.4095 26.1126 88.5015 26.1586 88.605 26.1892C88.7123 26.2161 88.8292 26.2295 88.9557 26.2295C89.2777 26.2295 89.5537 26.1701 89.7837 26.0512C90.0176 25.9286 90.2437 25.7522 90.4622 25.5223V24.4355ZM87.1847 21.9515C87.8479 21.3343 88.6376 21.0257 89.5537 21.0257C89.8911 21.0257 90.1901 21.0813 90.4507 21.1925C90.7152 21.2998 90.9357 21.4532 91.112 21.6525C91.2922 21.8518 91.4282 22.0895 91.5202 22.3655C91.6161 22.6377 91.664 22.9405 91.664 23.274V27H91.112C90.9932 27 90.9031 26.9827 90.8417 26.9482C90.7804 26.9099 90.7287 26.8352 90.6865 26.724L90.5657 26.2467C90.4162 26.3809 90.2687 26.5017 90.123 26.609C89.9773 26.7125 89.8259 26.8007 89.6687 26.8735C89.5154 26.9463 89.3487 27 89.1685 27.0345C88.9922 27.0728 88.7967 27.092 88.582 27.092C88.3443 27.092 88.122 27.0594 87.915 26.9942C87.7118 26.9291 87.5355 26.8313 87.386 26.701C87.2365 26.5668 87.1177 26.402 87.0295 26.2065C86.9452 26.011 86.903 25.781 86.903 25.5165C86.903 25.2903 86.9624 25.0699 87.0812 24.8552C87.2039 24.6406 87.4032 24.4489 87.6792 24.2802C87.9591 24.1077 88.3252 23.9659 88.7775 23.8547C89.2337 23.7436 89.7952 23.6803 90.4622 23.665V23.274C90.4622 22.8523 90.3722 22.538 90.192 22.331C90.0118 22.124 89.7473 22.0205 89.3985 22.0205C89.1608 22.0205 88.9615 22.0512 88.8005 22.1125C88.6395 22.17 88.4996 22.2332 88.3807 22.3022C88.2619 22.3712 88.1565 22.4364 88.0645 22.4977C87.9725 22.5552 87.8747 22.584 87.7712 22.584C87.6869 22.584 87.6141 22.5629 87.5527 22.5207C87.4952 22.4747 87.4473 22.4192 87.409 22.354L87.1847 21.9515Z" fill="white"/>
    <rect x="48" y="32.647" width="54" height="4.35294" fill="#D42B21"/>
</svg></g><a href="https://staging-owid.netlify.com/grapher/escaping-the-malthusian-trap" target="_blank"><text font-size="21.60" x="15.0" y="32.3" fill="#555"><tspan x="15" y="32.279999999999994">Escaping the Malthusian trap: Population and real wages in England</tspan><tspan x="15" y="53.87999999999999">from the 1280s to the 1860s</tspan></text></a><text font-size="14.40" x="15.0" y="72.7" fill="#666"><tspan x="15" y="72.72">Unit 2 &#x27;Technology, population, and growth’ Section 2.10 &#x27;Escaping from Malthusian stagnation&#x27; in The CORE Team, The</tspan><tspan x="15" y="88.56">Economy. Available at: https://tinyco.re/21020330 [Figure 2.20]</tspan></text></g><g><g class="AxisBoxView"><g class="HorizontalAxis"><text font-size="12.60" x="308.2" y="540.3"><tspan x="308.174" y="540.28">Population (millions)</tspan></text><text x="133.7" y="520.1999999999999" fill="#666" text-anchor="middle" font-size="16.2">4</text><text x="207.6" y="520.1999999999999" fill="#666" text-anchor="middle" font-size="16.2">6</text><text x="281.6" y="520.1999999999999" fill="#666" text-anchor="middle" font-size="16.2">8</text><text x="355.5" y="520.1999999999999" fill="#666" text-anchor="middle" font-size="16.2">10</text><text x="429.5" y="520.1999999999999" fill="#666" text-anchor="middle" font-size="16.2">12</text><text x="503.4" y="520.1999999999999" fill="#666" text-anchor="middle" font-size="16.2">14</text><text x="577.4" y="520.1999999999999" fill="#666" text-anchor="middle" font-size="16.2">16</text><text x="651.3" y="520.1999999999999" fill="#666" text-anchor="middle" font-size="16.2">18</text></g><g class="VerticalAxis"><text font-size="12.60" x="-410.5" y="25.1" transform="rotate(-90)"><tspan x="-410.496" y="25.080000000000002">Real wage index (1860 = 100)</tspan></text><text x="64.82" y="499" fill="#666" dominant-baseline="middle" text-anchor="end" font-size="16.2">40</text><text x="64.82" y="434" fill="#666" dominant-baseline="middle" text-anchor="end" font-size="16.2">50</text><text x="64.82" y="369" fill="#666" dominant-baseline="middle" text-anchor="end" font-size="16.2">60</text><text x="64.82" y="304.1" fill="#666" dominant-baseline="middle" text-anchor="end" font-size="16.2">70</text><text x="64.82" y="239.1" fill="#666" dominant-baseline="middle" text-anchor="end" font-size="16.2">80</text><text x="64.82" y="174.1" fill="#666" dominant-baseline="middle" text-anchor="end" font-size="16.2">90</text><text x="64.82" y="109.1" fill="#666" dominant-baseline="middle" text-anchor="end" font-size="16.2">100</text></g><g class="AxisGridLines"><line x1="69.82" y1="499" x2="715.00" y2="499" stroke="#ddd" stroke-dasharray="3,2"></line><line x1="69.82" y1="434" x2="715.00" y2="434" stroke="#ddd" stroke-dasharray="3,2"></line><line x1="69.82" y1="369" x2="715.00" y2="369" stroke="#ddd" stroke-dasharray="3,2"></line><line x1="69.82" y1="304.1" x2="715.00" y2="304.1" stroke="#ddd" stroke-dasharray="3,2"></line><line x1="69.82" y1="239.1" x2="715.00" y2="239.1" stroke="#ddd" stroke-dasharray="3,2"></line><line x1="69.82" y1="174.1" x2="715.00" y2="174.1" stroke="#ddd" stroke-dasharray="3,2"></line><line x1="69.82" y1="109.1" x2="715.00" y2="109.1" stroke="#ddd" stroke-dasharray="3,2"></line></g><g class="AxisGridLines"><line x1="133.7" y1="499.00" x2="133.7" y2="109.10" stroke="#ddd" stroke-dasharray="3,2"></line><line x1="207.6" y1="499.00" x2="207.6" y2="109.10" stroke="#ddd" stroke-dasharray="3,2"></line><line x1="281.6" y1="499.00" x2="281.6" y2="109.10" stroke="#ddd" stroke-dasharray="3,2"></line><line x1="355.5" y1="499.00" x2="355.5" y2="109.10" stroke="#ddd" stroke-dasharray="3,2"></line><line x1="429.5" y1="499.00" x2="429.5" y2="109.10" stroke="#ddd" stroke-dasharray="3,2"></line><line x1="503.4" y1="499.00" x2="503.4" y2="109.10" stroke="#ddd" stroke-dasharray="3,2"></line><line x1="577.4" y1="499.00" x2="577.4" y2="109.10" stroke="#ddd" stroke-dasharray="3,2"></line><line x1="651.3" y1="499.00" x2="651.3" y2="109.10" stroke="#ddd" stroke-dasharray="3,2"></line></g></g><g class="ComparisonLine"><defs><clipPath id="axisBounds-978"><rect x="69.816" y="109.1" width="645.184" height="389.9"></rect></clipPath></defs><path d="M69.8,180.5L76.3,193L82.7,205.6L89.2,218.1L95.6,230.7L102.1,243.2L108.5,255.8L115,268.3L121.4,280.9L127.9,293.4L134.3,306L140.8,318.5L147.2,331.1L153.7,343.6L160.1,356.2L166.6,368.7L173,381.3L179.5,393.8L185.9,406.4L192.4,418.9L198.9,431.5L205.3,444L211.8,456.6L218.2,469.1L224.7,481.7L231.1,494.2L237.6,506.8L244,519.3L250.5,531.9L256.9,544.4L263.4,557L269.8,569.5L276.3,582.1L282.7,594.6L289.2,607.2L295.6,619.7L302.1,632.3L308.5,644.8L315,657.4L321.4,669.9L327.9,682.5L334.3,695L340.8,707.6L347.2,720.1L353.7,732.7L360.1,745.2L366.6,757.8L373.1,770.3L379.5,782.9L386,795.4L392.4,808L398.9,820.5L405.3,833.1L411.8,845.6L418.2,858.2L424.7,870.7L431.1,883.3L437.6,895.8L444,908.4L450.5,920.9L456.9,933.5L463.4,946L469.8,958.6L476.3,971.1L482.7,983.7L489.2,996.2L495.6,1008.8L502.1,1021.3L508.5,1033.9L515,1046.4L521.4,1059L527.9,1071.5L534.3,1084.1L540.8,1096.6L547.3,1109.2L553.7,1121.7L560.2,1134.3L566.6,1146.8L573.1,1159.4L579.5,1171.9L586,1184.5L592.4,1197L598.9,1209.6L605.3,1222.1L611.8,1234.7L618.2,1247.2L624.7,1259.8L631.1,1272.3L637.6,1284.9L644,1297.4L650.5,1310L656.9,1322.5L663.4,1335.1L669.8,1347.6L676.3,1360.2L682.7,1372.8L689.2,1385.3L695.6,1397.9L702.1,1410.4L708.5,1423" clip-path="url(#axisBounds-978)" fill="none" stroke="#ccc"></path><text x="96.17999999999998" y="340.6" fill="#999" transform="rotate(62.7993640287517,153.7,340.6)" clip-path="url(#axisBounds-978)">Malthusian Trap</text></g><g class="ComparisonLine"><defs><clipPath id="axisBounds-979"><rect x="69.816" y="109.1" width="645.184" height="389.9"></rect></clipPath></defs><path d="M69.8,63.9L76.3,70L82.7,76.2L89.2,82.3L95.6,88.5L102.1,94.6L108.5,100.7L115,106.9L121.4,113L127.9,119.1L134.3,125.3L140.8,131.4L147.2,137.6L153.7,143.7L160.1,149.8L166.6,156L173,162.1L179.5,168.3L185.9,174.4L192.4,180.5L198.9,186.7L205.3,192.8L211.8,198.9L218.2,205.1L224.7,211.2L231.1,217.4L237.6,223.5L244,229.6L250.5,235.8L256.9,241.9L263.4,248.1L269.8,254.2L276.3,260.3L282.7,266.5L289.2,272.6L295.6,278.8L302.1,284.9L308.5,291L315,297.2L321.4,303.3L327.9,309.4L334.3,315.6L340.8,321.7L347.2,327.9L353.7,334L360.1,340.1L366.6,346.3L373.1,352.4L379.5,358.6L386,364.7L392.4,370.8L398.9,377L405.3,383.1L411.8,389.2L418.2,395.4L424.7,401.5L431.1,407.7L437.6,413.8L444,419.9L450.5,426.1L456.9,432.2L463.4,438.4L469.8,444.5L476.3,450.6L482.7,456.8L489.2,462.9L495.6,469.1L502.1,475.2L508.5,481.3L515,487.5L521.4,493.6L527.9,499.7L534.3,505.9L540.8,512L547.3,518.2L553.7,524.3L560.2,530.4L566.6,536.6L573.1,542.7L579.5,548.9L586,555L592.4,561.1L598.9,567.3L605.3,573.4L611.8,579.5L618.2,585.7L624.7,591.8L631.1,598L637.6,604.1L644,610.2L650.5,616.4L656.9,622.5L663.4,628.7L669.8,634.8L676.3,640.9L682.7,647.1L689.2,653.2L695.6,659.4L702.1,665.5L708.5,671.6" clip-path="url(#axisBounds-979)" fill="none" stroke="#ccc"></path><text x="263.88" y="300.3" fill="#999" transform="rotate(43.57633953614287,321.4,300.3)" clip-path="url(#axisBounds-979)">Malthusian Trap</text></g><g class="ComparisonLine"><defs><clipPath id="axisBounds-980"><rect x="69.816" y="109.1" width="645.184" height="389.9"></rect></clipPath></defs><path d="M69.8,347.4L76.3,345L82.7,342.6L89.2,340.2L95.6,337.9L102.1,335.5L108.5,333.1L115,330.7L121.4,328.3L127.9,326L134.3,323.6L140.8,321.2L147.2,318.8L153.7,316.4L160.1,314L166.6,311.7L173,309.3L179.5,306.9L185.9,304.5L192.4,302.1L198.9,299.7L205.3,297.4L211.8,295L218.2,292.6L224.7,290.2L231.1,287.8L237.6,285.5L244,283.1L250.5,280.7L256.9,278.3L263.4,275.9L269.8,273.5L276.3,271.2L282.7,268.8L289.2,266.4L295.6,264L302.1,261.6L308.5,259.2L315,256.9L321.4,254.5L327.9,252.1L334.3,249.7L340.8,247.3L347.2,245L353.7,242.6L360.1,240.2L366.6,237.8L373.1,235.4L379.5,233L386,230.7L392.4,228.3L398.9,225.9L405.3,223.5L411.8,221.1L418.2,218.7L424.7,216.4L431.1,214L437.6,211.6L444,209.2L450.5,206.8L456.9,204.5L463.4,202.1L469.8,199.7L476.3,197.3L482.7,194.9L489.2,192.5L495.6,190.2L502.1,187.8L508.5,185.4L515,183L521.4,180.6L527.9,178.2L534.3,175.9L540.8,173.5L547.3,171.1L553.7,168.7L560.2,166.3L566.6,164L573.1,161.6L579.5,159.2L586,156.8L592.4,154.4L598.9,152L605.3,149.7L611.8,147.3L618.2,144.9L624.7,142.5L631.1,140.1L637.6,137.8L644,135.4L650.5,133L656.9,130.6L663.4,128.2L669.8,125.8L676.3,123.5L682.7,121.1L689.2,118.7L695.6,116.3L702.1,113.9L708.5,111.5" clip-path="url(#axisBounds-980)" fill="none" stroke="#ccc"></path><text x="365.59999999999997" y="225.3" fill="#999" transform="rotate(-20.271464226045307,392.4,225.3)" clip-path="url(#axisBounds-980)">Escape</text></g><g class="PointsWithLabels clickable" clip-path="url(#scatterBounds-981)" font-family="Arial, sans-serif"><rect x="69.816" y="109.1" width="645.184" height="389.9" fill="rgba(255,255,255,0)"></rect><defs><clipPath id="scatterBounds-981"><rect x="59.816" y="99.1" width="665.184" height="409.9"></rect></clipPath></defs><g class="backgroundLabels" fill="#aaa"></g><g class="key-England_0"><defs><marker id="key-England_0-arrow-981" fill="#e6332e" viewBox="0 -5 10 10" refX="5" refY="0" markerWidth="4" markerHeight="4" orient="auto"><path d="M0,-5L10,0L0,5"></path></marker><marker id="key-England_0-circle-981" viewBox="0 0 12 12" refX="4" refY="4" orient="auto" fill="#e6332e"><circle cx="4" cy="4" r="4"></circle></marker></defs><circle cx="166.00" cy="363.00" r="3.178412411615277" fill="none" stroke="#e6332e" opacity="0.6"></circle><polyline stroke-linecap="round" stroke="#e6332e" points="166.00,363.00 182.00,412.00 182.00,358.00 193.00,368.00 169.00,334.00 158.00,290.00 148.00,357.00 116.00,361.00 103.00,295.00 102.00,250.00 89.00,215.00 90.00,213.00 83.00,203.00 79.00,171.00 77.00,145.00 78.00,210.00 69.00,151.00 70.00,152.00 71.00,152.00 73.00,154.00 74.00,186.00 71.00,136.00 80.00,167.00 89.00,195.00 94.00,233.00 97.00,254.00 96.00,294.00 105.00,322.00 104.00,303.00 115.00,295.00 117.00,291.00 139.00,381.00 148.00,358.00 160.00,387.00 171.00,322.00 178.00,292.00 186.00,302.00 193.00,288.00 192.00,191.00 187.00,299.00 185.00,269.00 184.00,326.00 189.00,268.00 196.00,278.00 200.00,279.00 197.00,216.00 209.00,168.00 217.00,200.00 231.00,227.00 245.00,277.00 266.00,230.00 291.00,282.00 322.00,292.00 366.00,264.00 428.00,192.00 495.00,162.00 563.00,185.00 636.00,141.00 715.00,109.00" fill="none" stroke-width="2.178412411615277" opacity="1" marker-start="url(#key-England_0-circle-981)" marker-mid="url(#key-England_0-circle-981)" marker-end="url(#key-England_0-arrow-981)"></polyline></g><text x="146.29" y="358.25" font-size="9" font-family="Arial, sans-serif" fill="#333">1280</text><text x="182.00" y="412.00" font-size="9" font-family="Arial, sans-serif" fill="#333">1290</text><text x="183.49" y="367.27" font-size="9" font-family="Arial, sans-serif" fill="#333">1300</text><text x="173.40" y="331.62" font-size="9" font-family="Arial, sans-serif" fill="#333">1320</text><text x="135.28" y="296.55" font-size="9" font-family="Arial, sans-serif" fill="#333">1330</text><text x="120.30" y="368.05" font-size="9" font-family="Arial, sans-serif" fill="#333">1350</text><text x="107.05" y="292.06" font-size="9" font-family="Arial, sans-serif" fill="#333">1360</text><text x="106.96" y="249.37" font-size="9" font-family="Arial, sans-serif" fill="#333">1370</text><text x="93.93" y="214.14" font-size="9" font-family="Arial, sans-serif" fill="#333">1380</text><text x="87.47" y="200.76" font-size="9" font-family="Arial, sans-serif" fill="#333">1400</text><text x="76.16" y="176.77" font-size="9" font-family="Arial, sans-serif" fill="#333">1410</text><text x="81.97" y="144.49" font-size="9" font-family="Arial, sans-serif" fill="#333">1420</text><text x="70.76" y="160.97" font-size="9" font-family="Arial, sans-serif" fill="#333">1460</text><text x="75.97" y="135.45" font-size="9" font-family="Arial, sans-serif" fill="#333">1490</text><text x="98.89" y="231.96" font-size="9" font-family="Arial, sans-serif" fill="#333">1520</text><text x="73.89" y="259.17" font-size="9" font-family="Arial, sans-serif" fill="#333">1530</text><text x="72.84" y="298.66" font-size="9" font-family="Arial, sans-serif" fill="#333">1540</text><text x="81.87" y="327.08" font-size="9" font-family="Arial, sans-serif" fill="#333">1550</text><text x="82.10" y="310.82" font-size="9" font-family="Arial, sans-serif" fill="#333">1560</text><text x="116.02" y="386.84" font-size="9" font-family="Arial, sans-serif" fill="#333">1590</text><text x="161.37" y="382.19" font-size="9" font-family="Arial, sans-serif" fill="#333">1610</text><text x="148.63" y="319.31" font-size="9" font-family="Arial, sans-serif" fill="#333">1620</text><text x="182.91" y="297.43" font-size="9" font-family="Arial, sans-serif" fill="#333">1630</text><text x="190.00" y="309.50" font-size="9" font-family="Arial, sans-serif" fill="#333">1640</text><text x="173.55" y="283.17" font-size="9" font-family="Arial, sans-serif" fill="#333">1650</text><text x="196.99" y="195.77" font-size="9" font-family="Arial, sans-serif" fill="#333">1660</text><text x="161.86" y="268.55" font-size="9" font-family="Arial, sans-serif" fill="#333">1680</text><text x="200.85" y="283.71" font-size="9" font-family="Arial, sans-serif" fill="#333">1710</text><text x="173.84" y="215.92" font-size="9" font-family="Arial, sans-serif" fill="#333">1730</text><text x="213.98" y="172.90" font-size="9" font-family="Arial, sans-serif" fill="#333">1740</text><text x="208.16" y="233.25" font-size="9" font-family="Arial, sans-serif" fill="#333">1760</text><text x="249.70" y="275.29" font-size="9" font-family="Arial, sans-serif" fill="#333">1770</text><text x="266.43" y="225.02" font-size="9" font-family="Arial, sans-serif" fill="#333">1780</text><text x="272.30" y="291.47" font-size="9" font-family="Arial, sans-serif" fill="#333">1790</text><text x="300.13" y="299.85" font-size="9" font-family="Arial, sans-serif" fill="#333">1800</text><text x="367.17" y="273.36" font-size="9" font-family="Arial, sans-serif" fill="#333">1810</text><text x="431.43" y="200.14" font-size="9" font-family="Arial, sans-serif" fill="#333">1820</text><text x="473.74" y="158.08" font-size="9" font-family="Arial, sans-serif" fill="#333">1830</text><text x="544.58" y="180.01" font-size="9" font-family="Arial, sans-serif" fill="#333">1840</text><text x="636.74" y="150.45" font-size="9" font-family="Arial, sans-serif" fill="#333">1850</text><text x="671.66" y="122.10" font-size="13" font-family="Arial, sans-serif" fill="#333">England</text></g><g class="ScatterColorLegend clickable" style="cursor:pointer"></g><line x1="735" y1="111.1" x2="830" y2="111.1" stroke="#ccc"></line><g class="clickable"><g class="ConnectedScatterLegend"><rect x="735" y="120.1" width="100" height="12.6" fill="#fff" opacity="0"></rect><text font-size="12.60" x="735.0" y="130.2" fill="#333"><tspan x="735" y="130.17999999999998">1280</tspan></text><text font-size="12.60" x="806.8" y="130.2" fill="#333"><tspan x="806.776" y="130.17999999999998">1860</tspan></text><line x1="768.224" y1="125.89999999999999" x2="801.776" y2="125.89999999999999" stroke="#666" stroke-width="1"></line><circle cx="768.224" cy="125.89999999999999" r="2" fill="#666" stroke="#ccc" stroke-width="0.2"></circle><circle cx="779.408" cy="125.89999999999999" r="2" fill="#666" stroke="#ccc" stroke-width="0.2"></circle><circle cx="790.592" cy="125.89999999999999" r="2" fill="#666" stroke="#ccc" stroke-width="0.2"></circle><polygon points="798.78,130.90 801.78,122.90 804.78,128.90" cx="801.776" cy="125.89999999999999" r="3" fill="#666" stroke="#ccc" stroke-width="0.2" transform="rotate(90, 801.776, 125.89999999999999)"></polygon></g></g><g class="scatterTooltip"><text font-size="13.50" x="735.0" y="153.5"><tspan x="735" y="153.5">England</tspan></text><text font-size="11.70" x="735.0" y="170.6"><tspan x="735" y="170.55999999999997">1280</tspan></text><text font-size="9.90" x="735.0" y="180.8"><tspan x="735" y="180.82">Y Axis: 60.93</tspan></text><text font-size="9.90" x="735.0" y="190.7"><tspan x="735" y="190.72">X Axis: 4.88</tspan></text><text font-size="11.70" x="735.0" y="207.1"><tspan x="735" y="207.05999999999997">1860</tspan></text><text font-size="9.90" x="735.0" y="217.3"><tspan x="735" y="217.32">Y Axis: 100</tspan></text><text font-size="9.90" x="735.0" y="227.2"><tspan x="735" y="227.22000000000003">X Axis: 19.72</tspan></text></g></g><g class="SourcesFooter" style="fill:#777"><g class="clickable" style="fill:#777"><text font-size="12.60" x="15.0" y="567.9"><tspan x="15" y="567.88">Source: Clark (2005)</tspan></text></g><text font-size="12.60" x="15.0" y="582.5"><tspan x="15" y="582.48">Note: The data points at each year are calculated averages over the succeeding decade.</tspan></text><text font-size="12.60" x="538.9" y="567.9"><tspan x="538.9" y="567.88"><a target='_blank' style='fill: #777;' href='https://tinyco.re/21020330'>tinyco.re/21020330</a> • <a href="https://ourworldindata.org" target="_blank">Powered by ourworldindata.org</a></tspan></text></g></svg>