<svg xmlns="http://www.w3.org/2000/svg" version="1.1" style="font-family: 'Helvetica Neue', Helvetica, Arial, sans-serif; font-size: 18px; background-color: white; text-rendering: optimizeLegibility; -webkit-font-smoothing: antialiased;" width="850" height="600"><g class="ChartTab"><g class="HeaderView"><g opacity="0.8" transform="translate(778, 15) scale(0.27)"><a xmlns:xlink="http://www.w3.org/1999/xlink" xlink:href="https://ourworldindata.org" target="_blank"><g><rect x="0" y="0" fill="#1B2543" width="211.2" height="130.1"/><rect x="0" y="112.2" fill="#E63912" width="211.2" height="17.9"/><g><rect x="1.2" y="12.3" fill="none" width="210.2" height="99.2"/><path fill="#FFFFFF" d="M37.8,32.2c0,12.7-7.7,19.4-17.1,19.4c-9.7,0-16.6-7.5-16.6-18.7c0-11.7,7.3-19.3,17.1-19.3 C31.3,13.7,37.8,21.3,37.8,32.2z M9.2,32.8c0,7.9,4.3,14.9,11.8,14.9c7.5,0,11.8-6.9,11.8-15.3c0-7.3-3.8-14.9-11.8-14.9 C13.1,17.5,9.2,24.8,9.2,32.8z"/><path fill="#FFFFFF" d="M62.7,43.8c0,2.7,0.1,5.1,0.2,7.2h-4.3l-0.3-4.3h-0.1c-1.3,2.1-4,4.9-8.8,4.9c-4.2,0-9.1-2.3-9.1-11.6 V24.6h4.8v14.6c0,5,1.5,8.4,5.9,8.4c3.2,0,5.5-2.2,6.3-4.4c0.3-0.7,0.4-1.6,0.4-2.5V24.6h4.8V43.8z"/><path fill="#FFFFFF" d="M67.3,32.8c0-3.1-0.1-5.8-0.2-8.2h4.2l0.2,5.2h0.2c1.2-3.5,4.1-5.8,7.3-5.8c0.5,0,0.9,0.1,1.4,0.2v4.5 c-0.5-0.1-1-0.2-1.6-0.2c-3.4,0-5.8,2.6-6.5,6.2c-0.1,0.7-0.2,1.4-0.2,2.2V51h-4.8V32.8z"/><path fill="#FFFFFF" d="M95.4,51l-9.4-36.8h5l4.4,18.6c1.1,4.6,2.1,9.2,2.7,12.7h0.1c0.6-3.7,1.8-8,3-12.8l4.9-18.5h5l4.5,18.7 c1,4.4,2,8.7,2.6,12.6h0.1c0.8-4,1.8-8.1,3-12.7l4.9-18.5h4.9L120.6,51h-5L111,31.9c-1.1-4.7-1.9-8.3-2.4-12h-0.1 c-0.7,3.7-1.5,7.3-2.8,12L100.4,51H95.4z"/><path fill="#FFFFFF" d="M154.9,37.6c0,9.8-6.8,14-13.2,14c-7.2,0-12.7-5.2-12.7-13.6c0-8.8,5.8-14,13.1-14 C149.8,24,154.9,29.5,154.9,37.6z M133.9,37.9c0,5.8,3.3,10.1,8,10.1c4.6,0,8-4.3,8-10.3c0-4.5-2.2-10.1-7.9-10.1 C136.3,27.6,133.9,32.8,133.9,37.9z"/><path fill="#FFFFFF" d="M158.2,32.8c0-3.1-0.1-5.8-0.2-8.2h4.2l0.2,5.2h0.2c1.2-3.5,4.1-5.8,7.3-5.8c0.5,0,0.9,0.1,1.4,0.2v4.5 c-0.5-0.1-1-0.2-1.6-0.2c-3.4,0-5.8,2.6-6.5,6.2c-0.1,0.7-0.2,1.4-0.2,2.2V51h-4.8V32.8z"/><path fill="#FFFFFF" d="M173.5,12.3h4.8V51h-4.8V12.3z"/><path fill="#FFFFFF" d="M206.5,12.3v31.9c0,2.3,0.1,5,0.2,6.8h-4.3l-0.2-4.6H202c-1.5,2.9-4.7,5.2-9,5.2 c-6.4,0-11.3-5.4-11.3-13.4c-0.1-8.8,5.4-14.2,11.9-14.2c4,0,6.8,1.9,8,4h0.1V12.3H206.5z M201.7,35.4c0-0.6-0.1-1.4-0.2-2 c-0.7-3.1-3.3-5.6-6.9-5.6c-5,0-7.9,4.4-7.9,10.2c0,5.3,2.6,9.8,7.8,9.8c3.2,0,6.2-2.1,7.1-5.7c0.2-0.7,0.2-1.3,0.2-2.1V35.4z"/><path fill="#FFFFFF" d="M42.8,64c0.1,1.6-1.1,2.9-3.1,2.9c-1.7,0-2.9-1.3-2.9-2.9c0-1.7,1.3-3,3-3C41.7,61,42.8,62.3,42.8,64z M37.4,97.8V71.4h4.8v26.4H37.4z"/><path fill="#FFFFFF" d="M47.5,78.6c0-2.7-0.1-5-0.2-7.1h4.3l0.3,4.4h0.1c1.3-2.5,4.4-5,8.8-5c3.7,0,9.4,2.2,9.4,11.2v15.8h-4.8 V82.6c0-4.3-1.6-7.8-6.1-7.8c-3.2,0-5.6,2.2-6.5,4.9c-0.2,0.6-0.3,1.4-0.3,2.2v15.9h-4.8V78.6z"/><path fill="#FFFFFF" d="M84,61.6c2.9-0.4,6.3-0.8,10.1-0.8c6.8,0,11.7,1.6,14.9,4.6c3.3,3,5.2,7.3,5.2,13.2c0,6-1.9,10.9-5.3,14.3 c-3.4,3.4-9.1,5.3-16.3,5.3c-3.4,0-6.2-0.2-8.6-0.4V61.6z M88.8,94.1c1.2,0.2,3,0.3,4.8,0.3c10.2,0,15.7-5.7,15.7-15.6 c0.1-8.7-4.9-14.2-14.9-14.2c-2.5,0-4.3,0.2-5.6,0.5V94.1z"/><path fill="#FFFFFF" d="M132.1,97.8l-0.4-3.3h-0.2c-1.5,2.1-4.3,3.9-8.1,3.9c-5.4,0-8.1-3.8-8.1-7.6c0-6.4,5.7-9.9,15.9-9.8v-0.5 c0-2.2-0.6-6.1-6-6.1c-2.5,0-5,0.8-6.9,2l-1.1-3.2c2.2-1.4,5.4-2.3,8.7-2.3c8.1,0,10.1,5.5,10.1,10.8v9.9c0,2.3,0.1,4.5,0.4,6.3 H132.1z M131.4,84.4c-5.3-0.1-11.2,0.8-11.2,5.9c0,3.1,2.1,4.6,4.5,4.6c3.4,0,5.6-2.2,6.4-4.4c0.2-0.5,0.3-1,0.3-1.5V84.4z"/><path fill="#FFFFFF" d="M146.6,63.9v7.6h6.9v3.7h-6.9v14.2c0,3.3,0.9,5.1,3.6,5.1c1.3,0,2.2-0.2,2.8-0.3l0.2,3.6 c-0.9,0.4-2.4,0.7-4.3,0.7c-2.2,0-4-0.7-5.2-2c-1.4-1.4-1.9-3.8-1.9-6.9V75.1h-4.1v-3.7h4.1v-6.3L146.6,63.9z"/><path fill="#FFFFFF" d="M171.4,97.8l-0.4-3.3h-0.2c-1.5,2.1-4.3,3.9-8.1,3.9c-5.4,0-8.1-3.8-8.1-7.6c0-6.4,5.7-9.9,15.9-9.8v-0.5 c0-2.2-0.6-6.1-6-6.1c-2.5,0-5,0.8-6.9,2l-1.1-3.2c2.2-1.4,5.4-2.3,8.7-2.3c8.1,0,10.1,5.5,10.1,10.8v9.9c0,2.3,0.1,4.5,0.4,6.3 H171.4z M170.7,84.4c-5.3-0.1-11.2,0.8-11.2,5.9c0,3.1,2.1,4.6,4.5,4.6c3.4,0,5.6-2.2,6.4-4.4c0.2-0.5,0.3-1,0.3-1.5V84.4z"/></g></g></a></g><a href="https://ourworldindata.org/grapher/exports-of-goods-and-services-income" target="_blank"><text font-size="25.20" x="15.0" y="35.2" fill="#555"><tspan x="15" y="35.160000000000004">Exports of goods and services by income group</tspan></text></a><text font-size="14.40" x="15.0" y="53.7" fill="#666"><tspan x="15" y="53.72">Total export value of goods and services (in constant 2010 US$) aggregated by World Bank income group. Exports of</tspan><tspan x="15" y="69.56">goods and services represent the value of all goods and other market services provided to the rest of the world. </tspan></text></g><g class="LineChart"><defs><clipPath id="boundsClip-273"><rect x="84.034" y="0" width="830" height="928.8"></rect></clipPath></defs><g class="AxisBoxView"><g class="HorizontalAxis"><text x="94" y="556.5" fill="#666" text-anchor="middle" font-size="16.2">1965</text><text x="149.6" y="556.5" fill="#666" text-anchor="middle" font-size="16.2">1970</text><text x="260.8" y="556.5" fill="#666" text-anchor="middle" font-size="16.2">1980</text><text x="372" y="556.5" fill="#666" text-anchor="middle" font-size="16.2">1990</text><text x="483.2" y="556.5" fill="#666" text-anchor="middle" font-size="16.2">2000</text><text x="594.3" y="556.5" fill="#666" text-anchor="middle" font-size="16.2">2010</text><text x="672.2" y="556.5" fill="#666" text-anchor="middle" font-size="16.2">2017</text></g><g class="VerticalAxis"><text x="89.03" y="535.3" fill="#666" dominant-baseline="middle" text-anchor="end" font-size="16.2">$0</text><text x="89.03" y="484.5" fill="#666" dominant-baseline="middle" text-anchor="end" font-size="16.2">$2 trillion</text><text x="89.03" y="433.6" fill="#666" dominant-baseline="middle" text-anchor="end" font-size="16.2">$4 trillion</text><text x="89.03" y="382.8" fill="#666" dominant-baseline="middle" text-anchor="end" font-size="16.2">$6 trillion</text><text x="89.03" y="332" fill="#666" dominant-baseline="middle" text-anchor="end" font-size="16.2">$8 trillion</text><text x="89.03" y="281.1" fill="#666" dominant-baseline="middle" text-anchor="end" font-size="16.2">$10 trillion</text><text x="89.03" y="230.3" fill="#666" dominant-baseline="middle" text-anchor="end" font-size="16.2">$12 trillion</text><text x="89.03" y="179.5" fill="#666" dominant-baseline="middle" text-anchor="end" font-size="16.2">$14 trillion</text><text x="89.03" y="128.6" fill="#666" dominant-baseline="middle" text-anchor="end" font-size="16.2">$16 trillion</text></g><g class="AxisGridLines"><line x1="94.03" y1="535.3" x2="672.15" y2="535.3" stroke="#ccc"></line><line x1="94.03" y1="484.5" x2="672.15" y2="484.5" stroke="#ddd" stroke-dasharray="3,2"></line><line x1="94.03" y1="433.6" x2="672.15" y2="433.6" stroke="#ddd" stroke-dasharray="3,2"></line><line x1="94.03" y1="382.8" x2="672.15" y2="382.8" stroke="#ddd" stroke-dasharray="3,2"></line><line x1="94.03" y1="332" x2="672.15" y2="332" stroke="#ddd" stroke-dasharray="3,2"></line><line x1="94.03" y1="281.1" x2="672.15" y2="281.1" stroke="#ddd" stroke-dasharray="3,2"></line><line x1="94.03" y1="230.3" x2="672.15" y2="230.3" stroke="#ddd" stroke-dasharray="3,2"></line><line x1="94.03" y1="179.5" x2="672.15" y2="179.5" stroke="#ddd" stroke-dasharray="3,2"></line><line x1="94.03" y1="128.6" x2="672.15" y2="128.6" stroke="#ddd" stroke-dasharray="3,2"></line></g></g><g clip-path="url(#boundsClip-273)"><g class="HeightedLegend clickable"><g class="legendMark"><rect x="672.155" y="85.35" width="110.19500000000001" height="13.5" fill="#fff" opacity="0"></rect><text font-size="13.50" x="677.2" y="96.1" fill="#f6a324"><tspan x="677.155" y="96.14999999999999">High income</tspan></text></g><g class="legendMark"><rect x="672.155" y="421.65" width="162.84500000000003" height="13.5" fill="#fff" opacity="0"></rect><text font-size="13.50" x="677.2" y="432.4" fill="#34983f"><tspan x="677.155" y="432.45">Upper middle income</tspan></text></g><g class="legendMark"><rect x="672.155" y="484.75" width="162.84500000000003" height="13.5" fill="#fff" opacity="0"></rect><text font-size="13.50" x="677.2" y="495.6" fill="#ca2628"><tspan x="677.155" y="495.55">Lower middle income</tspan></text></g><g class="legendMark"><rect x="672.155" y="526.05" width="107.22500000000001" height="13.5" fill="#fff" opacity="0"></rect><text font-size="13.50" x="677.2" y="536.8" fill="#3360a9"><tspan x="677.155" y="536.8499999999999">Low income</tspan></text></g></g><g class="Lines"><rect x="94" y="92" width="578" height="443" fill="rgba(255,255,255,0)" opacity="0"></rect><g class="key-Low-income_0"><path stroke="#3360a9" stroke-linecap="round" d="M494 534L505 534L517 534L528 534L539 534L550 534L561 534L572 534L583 534L594 534L605 533L617 534L628 533L639 533L650 533L661 533" fill="none" stroke-width="1.5"></path><g fill="#3360a9"><circle cx="494" cy="534" r="2"></circle><circle cx="505" cy="534" r="2"></circle><circle cx="517" cy="534" r="2"></circle><circle cx="528" cy="534" r="2"></circle><circle cx="539" cy="534" r="2"></circle><circle cx="550" cy="534" r="2"></circle><circle cx="561" cy="534" r="2"></circle><circle cx="572" cy="534" r="2"></circle><circle cx="583" cy="534" r="2"></circle><circle cx="594" cy="534" r="2"></circle><circle cx="605" cy="533" r="2"></circle><circle cx="617" cy="534" r="2"></circle><circle cx="628" cy="533" r="2"></circle><circle cx="639" cy="533" r="2"></circle><circle cx="650" cy="533" r="2"></circle><circle cx="661" cy="533" r="2"></circle></g></g><g class="key-Lower-middle-income_0"><path stroke="#ca2628" stroke-linecap="round" d="M94 533L105 533L116 533L127 533L139 533L150 532L161 532L172 532L183 531L194 531L205 531L216 531L227 530L239 530L250 530L261 529L272 529L283 530L294 530L305 529L316 529L328 529L339 528L350 528L361 527L372 527L383 527L394 528L405 527L416 526L428 526L439 525L450 524L461 524L472 524L483 522L494 522L505 521L517 519L528 516L539 514L550 510L561 509L572 506L583 508L594 505L605 501L617 500L628 498L639 497L650 497L661 496L672 492" fill="none" stroke-width="1.5"></path><g fill="#ca2628"><circle cx="94" cy="533" r="2"></circle><circle cx="105" cy="533" r="2"></circle><circle cx="116" cy="533" r="2"></circle><circle cx="127" cy="533" r="2"></circle><circle cx="139" cy="533" r="2"></circle><circle cx="150" cy="532" r="2"></circle><circle cx="161" cy="532" r="2"></circle><circle cx="172" cy="532" r="2"></circle><circle cx="183" cy="531" r="2"></circle><circle cx="194" cy="531" r="2"></circle><circle cx="205" cy="531" r="2"></circle><circle cx="216" cy="531" r="2"></circle><circle cx="227" cy="530" r="2"></circle><circle cx="239" cy="530" r="2"></circle><circle cx="250" cy="530" r="2"></circle><circle cx="261" cy="529" r="2"></circle><circle cx="272" cy="529" r="2"></circle><circle cx="283" cy="530" r="2"></circle><circle cx="294" cy="530" r="2"></circle><circle cx="305" cy="529" r="2"></circle><circle cx="316" cy="529" r="2"></circle><circle cx="328" cy="529" r="2"></circle><circle cx="339" cy="528" r="2"></circle><circle cx="350" cy="528" r="2"></circle><circle cx="361" cy="527" r="2"></circle><circle cx="372" cy="527" r="2"></circle><circle cx="383" cy="527" r="2"></circle><circle cx="394" cy="528" r="2"></circle><circle cx="405" cy="527" r="2"></circle><circle cx="416" cy="526" r="2"></circle><circle cx="428" cy="526" r="2"></circle><circle cx="439" cy="525" r="2"></circle><circle cx="450" cy="524" r="2"></circle><circle cx="461" cy="524" r="2"></circle><circle cx="472" cy="524" r="2"></circle><circle cx="483" cy="522" r="2"></circle><circle cx="494" cy="522" r="2"></circle><circle cx="505" cy="521" r="2"></circle><circle cx="517" cy="519" r="2"></circle><circle cx="528" cy="516" r="2"></circle><circle cx="539" cy="514" r="2"></circle><circle cx="550" cy="510" r="2"></circle><circle cx="561" cy="509" r="2"></circle><circle cx="572" cy="506" r="2"></circle><circle cx="583" cy="508" r="2"></circle><circle cx="594" cy="505" r="2"></circle><circle cx="605" cy="501" r="2"></circle><circle cx="617" cy="500" r="2"></circle><circle cx="628" cy="498" r="2"></circle><circle cx="639" cy="497" r="2"></circle><circle cx="650" cy="497" r="2"></circle><circle cx="661" cy="496" r="2"></circle><circle cx="672" cy="492" r="2"></circle></g></g><g class="key-Upper-middle-income_0"><path stroke="#34983f" stroke-linecap="round" d="M594 428" fill="none" stroke-width="1.5"></path><g fill="#34983f"><circle cx="594" cy="428" r="2"></circle></g></g><g class="key-High-income_0"><path stroke="#f6a324" stroke-linecap="round" d="M150 496L161 494L172 491L183 486L194 483L205 484L216 479L227 476L239 472L250 468L261 465L272 461L283 461L294 459L305 452L316 448L328 446L339 441L350 433L361 425L372 418L383 412L394 405L405 401L416 389L428 375L439 365L450 347L461 338L472 328L483 303L494 303L505 298L517 289L528 265L539 248L550 224L561 202L572 194L583 230L594 194L605 172L617 162L628 150L639 136L650 121L661 110L672 92" fill="none" stroke-width="1.5"></path><g fill="#f6a324"><circle cx="150" cy="496" r="2"></circle><circle cx="161" cy="494" r="2"></circle><circle cx="172" cy="491" r="2"></circle><circle cx="183" cy="486" r="2"></circle><circle cx="194" cy="483" r="2"></circle><circle cx="205" cy="484" r="2"></circle><circle cx="216" cy="479" r="2"></circle><circle cx="227" cy="476" r="2"></circle><circle cx="239" cy="472" r="2"></circle><circle cx="250" cy="468" r="2"></circle><circle cx="261" cy="465" r="2"></circle><circle cx="272" cy="461" r="2"></circle><circle cx="283" cy="461" r="2"></circle><circle cx="294" cy="459" r="2"></circle><circle cx="305" cy="452" r="2"></circle><circle cx="316" cy="448" r="2"></circle><circle cx="328" cy="446" r="2"></circle><circle cx="339" cy="441" r="2"></circle><circle cx="350" cy="433" r="2"></circle><circle cx="361" cy="425" r="2"></circle><circle cx="372" cy="418" r="2"></circle><circle cx="383" cy="412" r="2"></circle><circle cx="394" cy="405" r="2"></circle><circle cx="405" cy="401" r="2"></circle><circle cx="416" cy="389" r="2"></circle><circle cx="428" cy="375" r="2"></circle><circle cx="439" cy="365" r="2"></circle><circle cx="450" cy="347" r="2"></circle><circle cx="461" cy="338" r="2"></circle><circle cx="472" cy="328" r="2"></circle><circle cx="483" cy="303" r="2"></circle><circle cx="494" cy="303" r="2"></circle><circle cx="505" cy="298" r="2"></circle><circle cx="517" cy="289" r="2"></circle><circle cx="528" cy="265" r="2"></circle><circle cx="539" cy="248" r="2"></circle><circle cx="550" cy="224" r="2"></circle><circle cx="561" cy="202" r="2"></circle><circle cx="572" cy="194" r="2"></circle><circle cx="583" cy="230" r="2"></circle><circle cx="594" cy="194" r="2"></circle><circle cx="605" cy="172" r="2"></circle><circle cx="617" cy="162" r="2"></circle><circle cx="628" cy="150" r="2"></circle><circle cx="639" cy="136" r="2"></circle><circle cx="650" cy="121" r="2"></circle><circle cx="661" cy="110" r="2"></circle><circle cx="672" cy="92" r="2"></circle></g></g></g></g></g><g style="fill: #777;" class="SourcesFooter"><g style="fill: #777;" class="clickable"><text font-size="12.60" x="15.0" y="581.6"><tspan x="15" y="581.58">Source: World Bank</tspan></text></g><text font-size="12.60" x="775.4" y="581.6"><tspan x="775.402" y="581.58"><a style="fill: #777;" class="cclogo" href="http://creativecommons.org/licenses/by-sa/4.0/deed.en_US" target="_blank">CC BY-SA</a></tspan></text></g></g></svg>