<svg xmlns="http://www.w3.org/2000/svg" version="1.1" style="font-family: 'Helvetica Neue', Helvetica, Arial, sans-serif; font-size: 18px; background-color: white; text-rendering: optimizeLegibility; -webkit-font-smoothing: antialiased;" width="850" height="600"><g class="ChartTab"><g class="HeaderView"><g opacity="0.8" transform="translate(778, 15) scale(0.27)"><a xmlns:xlink="http://www.w3.org/1999/xlink" xlink:href="https://ourworldindata.org" target="_blank"><g><rect x="0" y="0" fill="#1B2543" width="211.2" height="130.1"/><rect x="0" y="112.2" fill="#E63912" width="211.2" height="17.9"/><g><rect x="1.2" y="12.3" fill="none" width="210.2" height="99.2"/><path fill="#FFFFFF" d="M37.8,32.2c0,12.7-7.7,19.4-17.1,19.4c-9.7,0-16.6-7.5-16.6-18.7c0-11.7,7.3-19.3,17.1-19.3 C31.3,13.7,37.8,21.3,37.8,32.2z M9.2,32.8c0,7.9,4.3,14.9,11.8,14.9c7.5,0,11.8-6.9,11.8-15.3c0-7.3-3.8-14.9-11.8-14.9 C13.1,17.5,9.2,24.8,9.2,32.8z"/><path fill="#FFFFFF" d="M62.7,43.8c0,2.7,0.1,5.1,0.2,7.2h-4.3l-0.3-4.3h-0.1c-1.3,2.1-4,4.9-8.8,4.9c-4.2,0-9.1-2.3-9.1-11.6 V24.6h4.8v14.6c0,5,1.5,8.4,5.9,8.4c3.2,0,5.5-2.2,6.3-4.4c0.3-0.7,0.4-1.6,0.4-2.5V24.6h4.8V43.8z"/><path fill="#FFFFFF" d="M67.3,32.8c0-3.1-0.1-5.8-0.2-8.2h4.2l0.2,5.2h0.2c1.2-3.5,4.1-5.8,7.3-5.8c0.5,0,0.9,0.1,1.4,0.2v4.5 c-0.5-0.1-1-0.2-1.6-0.2c-3.4,0-5.8,2.6-6.5,6.2c-0.1,0.7-0.2,1.4-0.2,2.2V51h-4.8V32.8z"/><path fill="#FFFFFF" d="M95.4,51l-9.4-36.8h5l4.4,18.6c1.1,4.6,2.1,9.2,2.7,12.7h0.1c0.6-3.7,1.8-8,3-12.8l4.9-18.5h5l4.5,18.7 c1,4.4,2,8.7,2.6,12.6h0.1c0.8-4,1.8-8.1,3-12.7l4.9-18.5h4.9L120.6,51h-5L111,31.9c-1.1-4.7-1.9-8.3-2.4-12h-0.1 c-0.7,3.7-1.5,7.3-2.8,12L100.4,51H95.4z"/><path fill="#FFFFFF" d="M154.9,37.6c0,9.8-6.8,14-13.2,14c-7.2,0-12.7-5.2-12.7-13.6c0-8.8,5.8-14,13.1-14 C149.8,24,154.9,29.5,154.9,37.6z M133.9,37.9c0,5.8,3.3,10.1,8,10.1c4.6,0,8-4.3,8-10.3c0-4.5-2.2-10.1-7.9-10.1 C136.3,27.6,133.9,32.8,133.9,37.9z"/><path fill="#FFFFFF" d="M158.2,32.8c0-3.1-0.1-5.8-0.2-8.2h4.2l0.2,5.2h0.2c1.2-3.5,4.1-5.8,7.3-5.8c0.5,0,0.9,0.1,1.4,0.2v4.5 c-0.5-0.1-1-0.2-1.6-0.2c-3.4,0-5.8,2.6-6.5,6.2c-0.1,0.7-0.2,1.4-0.2,2.2V51h-4.8V32.8z"/><path fill="#FFFFFF" d="M173.5,12.3h4.8V51h-4.8V12.3z"/><path fill="#FFFFFF" d="M206.5,12.3v31.9c0,2.3,0.1,5,0.2,6.8h-4.3l-0.2-4.6H202c-1.5,2.9-4.7,5.2-9,5.2 c-6.4,0-11.3-5.4-11.3-13.4c-0.1-8.8,5.4-14.2,11.9-14.2c4,0,6.8,1.9,8,4h0.1V12.3H206.5z M201.7,35.4c0-0.6-0.1-1.4-0.2-2 c-0.7-3.1-3.3-5.6-6.9-5.6c-5,0-7.9,4.4-7.9,10.2c0,5.3,2.6,9.8,7.8,9.8c3.2,0,6.2-2.1,7.1-5.7c0.2-0.7,0.2-1.3,0.2-2.1V35.4z"/><path fill="#FFFFFF" d="M42.8,64c0.1,1.6-1.1,2.9-3.1,2.9c-1.7,0-2.9-1.3-2.9-2.9c0-1.7,1.3-3,3-3C41.7,61,42.8,62.3,42.8,64z M37.4,97.8V71.4h4.8v26.4H37.4z"/><path fill="#FFFFFF" d="M47.5,78.6c0-2.7-0.1-5-0.2-7.1h4.3l0.3,4.4h0.1c1.3-2.5,4.4-5,8.8-5c3.7,0,9.4,2.2,9.4,11.2v15.8h-4.8 V82.6c0-4.3-1.6-7.8-6.1-7.8c-3.2,0-5.6,2.2-6.5,4.9c-0.2,0.6-0.3,1.4-0.3,2.2v15.9h-4.8V78.6z"/><path fill="#FFFFFF" d="M84,61.6c2.9-0.4,6.3-0.8,10.1-0.8c6.8,0,11.7,1.6,14.9,4.6c3.3,3,5.2,7.3,5.2,13.2c0,6-1.9,10.9-5.3,14.3 c-3.4,3.4-9.1,5.3-16.3,5.3c-3.4,0-6.2-0.2-8.6-0.4V61.6z M88.8,94.1c1.2,0.2,3,0.3,4.8,0.3c10.2,0,15.7-5.7,15.7-15.6 c0.1-8.7-4.9-14.2-14.9-14.2c-2.5,0-4.3,0.2-5.6,0.5V94.1z"/><path fill="#FFFFFF" d="M132.1,97.8l-0.4-3.3h-0.2c-1.5,2.1-4.3,3.9-8.1,3.9c-5.4,0-8.1-3.8-8.1-7.6c0-6.4,5.7-9.9,15.9-9.8v-0.5 c0-2.2-0.6-6.1-6-6.1c-2.5,0-5,0.8-6.9,2l-1.1-3.2c2.2-1.4,5.4-2.3,8.7-2.3c8.1,0,10.1,5.5,10.1,10.8v9.9c0,2.3,0.1,4.5,0.4,6.3 H132.1z M131.4,84.4c-5.3-0.1-11.2,0.8-11.2,5.9c0,3.1,2.1,4.6,4.5,4.6c3.4,0,5.6-2.2,6.4-4.4c0.2-0.5,0.3-1,0.3-1.5V84.4z"/><path fill="#FFFFFF" d="M146.6,63.9v7.6h6.9v3.7h-6.9v14.2c0,3.3,0.9,5.1,3.6,5.1c1.3,0,2.2-0.2,2.8-0.3l0.2,3.6 c-0.9,0.4-2.4,0.7-4.3,0.7c-2.2,0-4-0.7-5.2-2c-1.4-1.4-1.9-3.8-1.9-6.9V75.1h-4.1v-3.7h4.1v-6.3L146.6,63.9z"/><path fill="#FFFFFF" d="M171.4,97.8l-0.4-3.3h-0.2c-1.5,2.1-4.3,3.9-8.1,3.9c-5.4,0-8.1-3.8-8.1-7.6c0-6.4,5.7-9.9,15.9-9.8v-0.5 c0-2.2-0.6-6.1-6-6.1c-2.5,0-5,0.8-6.9,2l-1.1-3.2c2.2-1.4,5.4-2.3,8.7-2.3c8.1,0,10.1,5.5,10.1,10.8v9.9c0,2.3,0.1,4.5,0.4,6.3 H171.4z M170.7,84.4c-5.3-0.1-11.2,0.8-11.2,5.9c0,3.1,2.1,4.6,4.5,4.6c3.4,0,5.6-2.2,6.4-4.4c0.2-0.5,0.3-1,0.3-1.5V84.4z"/></g></g></a></g><a href="https://ourworldindata.org/grapher/exports-of-goods-and-services-constant-2010-us" target="_blank"><text font-size="25.20" x="15.0" y="35.2" fill="#555"><tspan x="15" y="35.160000000000004">Exports of goods and services (constant 2010 US $)</tspan></text></a><text font-size="14.40" x="15.0" y="53.7" fill="#666"><tspan x="15" y="53.72">Exports of goods and services represent the value of all goods and other market services provided to the rest of the</tspan><tspan x="15" y="69.56">world. Data are in constant 2010 U.S. dollars. This means values are corrected for inflation.</tspan></text></g><g class="LineChart"><defs><clipPath id="boundsClip-271"><rect x="88.57000000000001" y="0" width="830" height="928.8"></rect></clipPath></defs><g class="AxisBoxView"><g class="HorizontalAxis"><text x="98.6" y="556.5" fill="#666" text-anchor="middle" font-size="16.2">1960</text><text x="204.7" y="556.5" fill="#666" text-anchor="middle" font-size="16.2">1970</text><text x="310.9" y="556.5" fill="#666" text-anchor="middle" font-size="16.2">1980</text><text x="417" y="556.5" fill="#666" text-anchor="middle" font-size="16.2">1990</text><text x="523.2" y="556.5" fill="#666" text-anchor="middle" font-size="16.2">2000</text><text x="629.3" y="556.5" fill="#666" text-anchor="middle" font-size="16.2">2010</text><text x="703.6" y="556.5" fill="#666" text-anchor="middle" font-size="16.2">2017</text></g><g class="VerticalAxis"><text x="93.57" y="535.3" fill="#666" dominant-baseline="middle" text-anchor="end" font-size="16.2">$0</text><text x="93.57" y="435.4" fill="#666" dominant-baseline="middle" text-anchor="end" font-size="16.2">$500 billion</text><text x="93.57" y="335.5" fill="#666" dominant-baseline="middle" text-anchor="end" font-size="16.2">$1 trillion</text><text x="93.57" y="235.5" fill="#666" dominant-baseline="middle" text-anchor="end" font-size="16.2">$1.5 trillion</text><text x="93.57" y="135.6" fill="#666" dominant-baseline="middle" text-anchor="end" font-size="16.2">$2 trillion</text></g><g class="AxisGridLines"><line x1="98.57" y1="535.3" x2="703.61" y2="535.3" stroke="#ccc"></line><line x1="98.57" y1="435.4" x2="703.61" y2="435.4" stroke="#ddd" stroke-dasharray="3,2"></line><line x1="98.57" y1="335.5" x2="703.61" y2="335.5" stroke="#ddd" stroke-dasharray="3,2"></line><line x1="98.57" y1="235.5" x2="703.61" y2="235.5" stroke="#ddd" stroke-dasharray="3,2"></line><line x1="98.57" y1="135.6" x2="703.61" y2="135.6" stroke="#ddd" stroke-dasharray="3,2"></line></g></g><g clip-path="url(#boundsClip-271)"><g class="HeightedLegend clickable"><g class="legendMark"><g class="indicator"><line x1="708.61" y1="93.6" x2="721.11" y2="93.6" stroke="#666" stroke-width="0.5"></line><line x1="721.11" y1="93.6" x2="721.11" y2="93.6" stroke="#666" stroke-width="0.5"></line><line x1="721.11" y1="93.6" x2="733.61" y2="93.6" stroke="#666" stroke-width="0.5"></line></g><rect x="703.61" y="86.85" width="116.405" height="13.5" fill="#fff" opacity="0"></rect><text font-size="13.50" x="738.6" y="97.6" fill="#9ecc8a"><tspan x="738.61" y="97.64999999999999">United States</tspan></text></g><g class="legendMark"><g class="indicator"><line x1="708.61" y1="149" x2="721.11" y2="149" stroke="#666" stroke-width="0.5"></line><line x1="721.11" y1="149" x2="721.11" y2="149" stroke="#666" stroke-width="0.5"></line><line x1="721.11" y1="149" x2="733.61" y2="149" stroke="#666" stroke-width="0.5"></line></g><rect x="703.61" y="142.25" width="90.62" height="13.5" fill="#fff" opacity="0"></rect><text font-size="13.50" x="738.6" y="153.1" fill="#e6332e"><tspan x="738.61" y="153.05">Germany</tspan></text></g><g class="legendMark"><g class="indicator"><line x1="708.61" y1="356.5" x2="731.11" y2="356.5" stroke="#666" stroke-width="0.5"></line><line x1="731.11" y1="356.5" x2="731.11" y2="356.5" stroke="#666" stroke-width="0.5"></line><line x1="731.11" y1="356.5" x2="733.61" y2="356.5" stroke="#666" stroke-width="0.5"></line></g><rect x="703.61" y="349.75" width="77.12" height="13.5" fill="#fff" opacity="0"></rect><text font-size="13.50" x="738.6" y="360.6" fill="#2a939b"><tspan x="738.61" y="360.55">France</tspan></text></g><g class="legendMark"><g class="indicator"><line x1="708.61" y1="363.1" x2="721.11" y2="363.1" stroke="#666" stroke-width="0.5"></line><line x1="721.11" y1="363.1" x2="721.11" y2="372" stroke="#666" stroke-width="0.5"></line><line x1="721.11" y1="372" x2="733.61" y2="372" stroke="#666" stroke-width="0.5"></line></g><rect x="703.61" y="365.25" width="131.39" height="13.5" fill="#fff" opacity="0"></rect><text font-size="13.50" x="738.6" y="376.1" fill="#a652ba"><tspan x="738.61" y="376.05">United Kingdom</tspan></text></g><g class="legendMark"><g class="indicator"><line x1="708.61" y1="390.1" x2="721.11" y2="390.1" stroke="#666" stroke-width="0.5"></line><line x1="721.11" y1="390.1" x2="721.11" y2="390.1" stroke="#666" stroke-width="0.5"></line><line x1="721.11" y1="390.1" x2="733.61" y2="390.1" stroke="#666" stroke-width="0.5"></line></g><rect x="703.61" y="383.35" width="110.465" height="13.5" fill="#fff" opacity="0"></rect><text font-size="13.50" x="738.6" y="394.2" fill="#f6a324"><tspan x="738.61" y="394.15000000000003">South Korea</tspan></text></g><g class="legendMark"><g class="indicator"><line x1="708.61" y1="477.6" x2="721.11" y2="477.6" stroke="#666" stroke-width="0.5"></line><line x1="721.11" y1="477.6" x2="721.11" y2="477.6" stroke="#666" stroke-width="0.5"></line><line x1="721.11" y1="477.6" x2="733.61" y2="477.6" stroke="#666" stroke-width="0.5"></line></g><rect x="703.61" y="470.85" width="68.75" height="13.5" fill="#fff" opacity="0"></rect><text font-size="13.50" x="738.6" y="481.7" fill="#34983f"><tspan x="738.61" y="481.65000000000003">Brazil</tspan></text></g><g class="legendMark"><g class="indicator"><line x1="708.61" y1="510.8" x2="731.11" y2="510.8" stroke="#666" stroke-width="0.5"></line><line x1="731.11" y1="510.8" x2="731.11" y2="510.8" stroke="#666" stroke-width="0.5"></line><line x1="731.11" y1="510.8" x2="733.61" y2="510.8" stroke="#666" stroke-width="0.5"></line></g><rect x="703.61" y="504.05" width="77.795" height="13.5" fill="#fff" opacity="0"></rect><text font-size="13.50" x="738.6" y="514.8" fill="#ca2628"><tspan x="738.61" y="514.8499999999999">Nigeria</tspan></text></g><g class="legendMark"><g class="indicator"><line x1="708.61" y1="520.5" x2="721.11" y2="520.5" stroke="#666" stroke-width="0.5"></line><line x1="721.11" y1="520.5" x2="721.11" y2="526.3" stroke="#666" stroke-width="0.5"></line><line x1="721.11" y1="526.3" x2="733.61" y2="526.3" stroke="#666" stroke-width="0.5"></line></g><rect x="703.61" y="519.55" width="93.05000000000001" height="13.5" fill="#fff" opacity="0"></rect><text font-size="13.50" x="738.6" y="530.3" fill="#3360a9"><tspan x="738.61" y="530.3499999999999">Argentina</tspan></text></g></g><g class="Lines"><rect x="99" y="92" width="605" height="443" fill="rgba(255,255,255,0)" opacity="0"></rect><g class="key-South-Korea_0"><path stroke="#f6a324" stroke-linecap="round" d="M99 535L109 535L120 535L130 535L141 535L152 535L162 535L173 535L184 535L194 535L205 535L215 535L226 534L237 534L247 534L258 534L268 533L279 533L290 532L300 532L311 532L322 531L332 531L343 530L353 530L364 530L375 528L385 526L396 525L406 525L417 524L428 523L438 522L449 520L460 518L470 514L481 511L491 507L502 503L513 498L523 492L534 493L544 487L555 481L566 470L576 464L587 456L598 446L608 439L619 439L629 427L640 411L651 405L661 399L672 396L682 396L693 393L704 390" fill="none" stroke-width="1.5"></path><g fill="#f6a324"><circle cx="99" cy="535" r="2"></circle><circle cx="109" cy="535" r="2"></circle><circle cx="120" cy="535" r="2"></circle><circle cx="130" cy="535" r="2"></circle><circle cx="141" cy="535" r="2"></circle><circle cx="152" cy="535" r="2"></circle><circle cx="162" cy="535" r="2"></circle><circle cx="173" cy="535" r="2"></circle><circle cx="184" cy="535" r="2"></circle><circle cx="194" cy="535" r="2"></circle><circle cx="205" cy="535" r="2"></circle><circle cx="215" cy="535" r="2"></circle><circle cx="226" cy="534" r="2"></circle><circle cx="237" cy="534" r="2"></circle><circle cx="247" cy="534" r="2"></circle><circle cx="258" cy="534" r="2"></circle><circle cx="268" cy="533" r="2"></circle><circle cx="279" cy="533" r="2"></circle><circle cx="290" cy="532" r="2"></circle><circle cx="300" cy="532" r="2"></circle><circle cx="311" cy="532" r="2"></circle><circle cx="322" cy="531" r="2"></circle><circle cx="332" cy="531" r="2"></circle><circle cx="343" cy="530" r="2"></circle><circle cx="353" cy="530" r="2"></circle><circle cx="364" cy="530" r="2"></circle><circle cx="375" cy="528" r="2"></circle><circle cx="385" cy="526" r="2"></circle><circle cx="396" cy="525" r="2"></circle><circle cx="406" cy="525" r="2"></circle><circle cx="417" cy="524" r="2"></circle><circle cx="428" cy="523" r="2"></circle><circle cx="438" cy="522" r="2"></circle><circle cx="449" cy="520" r="2"></circle><circle cx="460" cy="518" r="2"></circle><circle cx="470" cy="514" r="2"></circle><circle cx="481" cy="511" r="2"></circle><circle cx="491" cy="507" r="2"></circle><circle cx="502" cy="503" r="2"></circle><circle cx="513" cy="498" r="2"></circle><circle cx="523" cy="492" r="2"></circle><circle cx="534" cy="493" r="2"></circle><circle cx="544" cy="487" r="2"></circle><circle cx="555" cy="481" r="2"></circle><circle cx="566" cy="470" r="2"></circle><circle cx="576" cy="464" r="2"></circle><circle cx="587" cy="456" r="2"></circle><circle cx="598" cy="446" r="2"></circle><circle cx="608" cy="439" r="2"></circle><circle cx="619" cy="439" r="2"></circle><circle cx="629" cy="427" r="2"></circle><circle cx="640" cy="411" r="2"></circle><circle cx="651" cy="405" r="2"></circle><circle cx="661" cy="399" r="2"></circle><circle cx="672" cy="396" r="2"></circle><circle cx="682" cy="396" r="2"></circle><circle cx="693" cy="393" r="2"></circle><circle cx="704" cy="390" r="2"></circle></g></g><g class="key-United-States_0"><path stroke="#9ecc8a" stroke-linecap="round" d="M205 496L215 496L226 493L237 485L247 481L258 481L268 479L279 477L290 471L300 465L311 457L322 456L332 462L343 464L353 458L364 456L375 449L385 440L396 425L406 412L417 401L428 392L438 382L449 377L460 363L470 345L481 330L491 305L502 300L513 294L523 273L534 288L544 293L555 288L566 264L576 247L587 221L598 192L608 173L619 205L629 165L640 140L651 126L661 112L672 94L682 92L693 94" fill="none" stroke-width="1.5"></path><g fill="#9ecc8a"><circle cx="205" cy="496" r="2"></circle><circle cx="215" cy="496" r="2"></circle><circle cx="226" cy="493" r="2"></circle><circle cx="237" cy="485" r="2"></circle><circle cx="247" cy="481" r="2"></circle><circle cx="258" cy="481" r="2"></circle><circle cx="268" cy="479" r="2"></circle><circle cx="279" cy="477" r="2"></circle><circle cx="290" cy="471" r="2"></circle><circle cx="300" cy="465" r="2"></circle><circle cx="311" cy="457" r="2"></circle><circle cx="322" cy="456" r="2"></circle><circle cx="332" cy="462" r="2"></circle><circle cx="343" cy="464" r="2"></circle><circle cx="353" cy="458" r="2"></circle><circle cx="364" cy="456" r="2"></circle><circle cx="375" cy="449" r="2"></circle><circle cx="385" cy="440" r="2"></circle><circle cx="396" cy="425" r="2"></circle><circle cx="406" cy="412" r="2"></circle><circle cx="417" cy="401" r="2"></circle><circle cx="428" cy="392" r="2"></circle><circle cx="438" cy="382" r="2"></circle><circle cx="449" cy="377" r="2"></circle><circle cx="460" cy="363" r="2"></circle><circle cx="470" cy="345" r="2"></circle><circle cx="481" cy="330" r="2"></circle><circle cx="491" cy="305" r="2"></circle><circle cx="502" cy="300" r="2"></circle><circle cx="513" cy="294" r="2"></circle><circle cx="523" cy="273" r="2"></circle><circle cx="534" cy="288" r="2"></circle><circle cx="544" cy="293" r="2"></circle><circle cx="555" cy="288" r="2"></circle><circle cx="566" cy="264" r="2"></circle><circle cx="576" cy="247" r="2"></circle><circle cx="587" cy="221" r="2"></circle><circle cx="598" cy="192" r="2"></circle><circle cx="608" cy="173" r="2"></circle><circle cx="619" cy="205" r="2"></circle><circle cx="629" cy="165" r="2"></circle><circle cx="640" cy="140" r="2"></circle><circle cx="651" cy="126" r="2"></circle><circle cx="661" cy="112" r="2"></circle><circle cx="672" cy="94" r="2"></circle><circle cx="682" cy="92" r="2"></circle><circle cx="693" cy="94" r="2"></circle></g></g><g class="key-Germany_0"><path stroke="#e6332e" stroke-linecap="round" d="M205 501L215 500L226 498L237 493L247 489L258 491L268 487L279 485L290 484L300 481L311 478L322 474L332 472L343 472L353 466L364 461L375 462L385 461L396 457L406 449L417 440L428 429L438 429L449 436L460 428L470 421L481 414L491 399L502 389L513 381L523 359L534 349L544 341L555 338L566 315L576 300L587 272L598 247L608 242L619 283L629 247L640 223L651 214L661 209L672 193L682 176L693 166L704 149" fill="none" stroke-width="1.5"></path><g fill="#e6332e"><circle cx="205" cy="501" r="2"></circle><circle cx="215" cy="500" r="2"></circle><circle cx="226" cy="498" r="2"></circle><circle cx="237" cy="493" r="2"></circle><circle cx="247" cy="489" r="2"></circle><circle cx="258" cy="491" r="2"></circle><circle cx="268" cy="487" r="2"></circle><circle cx="279" cy="485" r="2"></circle><circle cx="290" cy="484" r="2"></circle><circle cx="300" cy="481" r="2"></circle><circle cx="311" cy="478" r="2"></circle><circle cx="322" cy="474" r="2"></circle><circle cx="332" cy="472" r="2"></circle><circle cx="343" cy="472" r="2"></circle><circle cx="353" cy="466" r="2"></circle><circle cx="364" cy="461" r="2"></circle><circle cx="375" cy="462" r="2"></circle><circle cx="385" cy="461" r="2"></circle><circle cx="396" cy="457" r="2"></circle><circle cx="406" cy="449" r="2"></circle><circle cx="417" cy="440" r="2"></circle><circle cx="428" cy="429" r="2"></circle><circle cx="438" cy="429" r="2"></circle><circle cx="449" cy="436" r="2"></circle><circle cx="460" cy="428" r="2"></circle><circle cx="470" cy="421" r="2"></circle><circle cx="481" cy="414" r="2"></circle><circle cx="491" cy="399" r="2"></circle><circle cx="502" cy="389" r="2"></circle><circle cx="513" cy="381" r="2"></circle><circle cx="523" cy="359" r="2"></circle><circle cx="534" cy="349" r="2"></circle><circle cx="544" cy="341" r="2"></circle><circle cx="555" cy="338" r="2"></circle><circle cx="566" cy="315" r="2"></circle><circle cx="576" cy="300" r="2"></circle><circle cx="587" cy="272" r="2"></circle><circle cx="598" cy="247" r="2"></circle><circle cx="608" cy="242" r="2"></circle><circle cx="619" cy="283" r="2"></circle><circle cx="629" cy="247" r="2"></circle><circle cx="640" cy="223" r="2"></circle><circle cx="651" cy="214" r="2"></circle><circle cx="661" cy="209" r="2"></circle><circle cx="672" cy="193" r="2"></circle><circle cx="682" cy="176" r="2"></circle><circle cx="693" cy="166" r="2"></circle><circle cx="704" cy="149" r="2"></circle></g></g><g class="key-France_0"><path stroke="#2a939b" stroke-linecap="round" d="M99 527L109 527L120 526L130 526L141 525L152 524L162 523L173 522L184 521L194 519L205 516L215 514L226 512L237 509L247 505L258 506L268 504L279 501L290 499L300 497L311 496L322 494L332 494L343 492L353 489L364 488L375 489L385 488L396 484L406 478L417 476L428 472L438 469L449 468L460 463L470 457L481 453L491 443L502 435L513 430L523 417L534 413L544 411L555 412L566 406L576 401L587 394L598 390L608 389L619 406L629 394L640 384L651 380L661 377L672 372L682 365L693 362L704 357" fill="none" stroke-width="1.5"></path><g fill="#2a939b"><circle cx="99" cy="527" r="2"></circle><circle cx="109" cy="527" r="2"></circle><circle cx="120" cy="526" r="2"></circle><circle cx="130" cy="526" r="2"></circle><circle cx="141" cy="525" r="2"></circle><circle cx="152" cy="524" r="2"></circle><circle cx="162" cy="523" r="2"></circle><circle cx="173" cy="522" r="2"></circle><circle cx="184" cy="521" r="2"></circle><circle cx="194" cy="519" r="2"></circle><circle cx="205" cy="516" r="2"></circle><circle cx="215" cy="514" r="2"></circle><circle cx="226" cy="512" r="2"></circle><circle cx="237" cy="509" r="2"></circle><circle cx="247" cy="505" r="2"></circle><circle cx="258" cy="506" r="2"></circle><circle cx="268" cy="504" r="2"></circle><circle cx="279" cy="501" r="2"></circle><circle cx="290" cy="499" r="2"></circle><circle cx="300" cy="497" r="2"></circle><circle cx="311" cy="496" r="2"></circle><circle cx="322" cy="494" r="2"></circle><circle cx="332" cy="494" r="2"></circle><circle cx="343" cy="492" r="2"></circle><circle cx="353" cy="489" r="2"></circle><circle cx="364" cy="488" r="2"></circle><circle cx="375" cy="489" r="2"></circle><circle cx="385" cy="488" r="2"></circle><circle cx="396" cy="484" r="2"></circle><circle cx="406" cy="478" r="2"></circle><circle cx="417" cy="476" r="2"></circle><circle cx="428" cy="472" r="2"></circle><circle cx="438" cy="469" r="2"></circle><circle cx="449" cy="468" r="2"></circle><circle cx="460" cy="463" r="2"></circle><circle cx="470" cy="457" r="2"></circle><circle cx="481" cy="453" r="2"></circle><circle cx="491" cy="443" r="2"></circle><circle cx="502" cy="435" r="2"></circle><circle cx="513" cy="430" r="2"></circle><circle cx="523" cy="417" r="2"></circle><circle cx="534" cy="413" r="2"></circle><circle cx="544" cy="411" r="2"></circle><circle cx="555" cy="412" r="2"></circle><circle cx="566" cy="406" r="2"></circle><circle cx="576" cy="401" r="2"></circle><circle cx="587" cy="394" r="2"></circle><circle cx="598" cy="390" r="2"></circle><circle cx="608" cy="389" r="2"></circle><circle cx="619" cy="406" r="2"></circle><circle cx="629" cy="394" r="2"></circle><circle cx="640" cy="384" r="2"></circle><circle cx="651" cy="380" r="2"></circle><circle cx="661" cy="377" r="2"></circle><circle cx="672" cy="372" r="2"></circle><circle cx="682" cy="365" r="2"></circle><circle cx="693" cy="362" r="2"></circle><circle cx="704" cy="357" r="2"></circle></g></g><g class="key-Nigeria_0"><path stroke="#ca2628" stroke-linecap="round" d="M322 530L332 530L343 531L353 530L364 530L375 530L385 530L396 530L406 528L417 528L428 528L438 530L449 529L460 529L470 529L481 530L491 527L502 527L513 528L523 527L534 529L544 528L555 526L566 526L576 525L587 519L598 522L608 518L619 523L629 517L640 512L651 513L661 518L672 513L682 513L693 511" fill="none" stroke-width="1.5"></path><g fill="#ca2628"><circle cx="322" cy="530" r="2"></circle><circle cx="332" cy="530" r="2"></circle><circle cx="343" cy="531" r="2"></circle><circle cx="353" cy="530" r="2"></circle><circle cx="364" cy="530" r="2"></circle><circle cx="375" cy="530" r="2"></circle><circle cx="385" cy="530" r="2"></circle><circle cx="396" cy="530" r="2"></circle><circle cx="406" cy="528" r="2"></circle><circle cx="417" cy="528" r="2"></circle><circle cx="428" cy="528" r="2"></circle><circle cx="438" cy="530" r="2"></circle><circle cx="449" cy="529" r="2"></circle><circle cx="460" cy="529" r="2"></circle><circle cx="470" cy="529" r="2"></circle><circle cx="481" cy="530" r="2"></circle><circle cx="491" cy="527" r="2"></circle><circle cx="502" cy="527" r="2"></circle><circle cx="513" cy="528" r="2"></circle><circle cx="523" cy="527" r="2"></circle><circle cx="534" cy="529" r="2"></circle><circle cx="544" cy="528" r="2"></circle><circle cx="555" cy="526" r="2"></circle><circle cx="566" cy="526" r="2"></circle><circle cx="576" cy="525" r="2"></circle><circle cx="587" cy="519" r="2"></circle><circle cx="598" cy="522" r="2"></circle><circle cx="608" cy="518" r="2"></circle><circle cx="619" cy="523" r="2"></circle><circle cx="629" cy="517" r="2"></circle><circle cx="640" cy="512" r="2"></circle><circle cx="651" cy="513" r="2"></circle><circle cx="661" cy="518" r="2"></circle><circle cx="672" cy="513" r="2"></circle><circle cx="682" cy="513" r="2"></circle><circle cx="693" cy="511" r="2"></circle></g></g><g class="key-United-Kingdom_0"><path stroke="#a652ba" stroke-linecap="round" d="M99 521L109 521L120 520L130 520L141 519L152 518L162 517L173 517L184 515L194 513L205 508L215 506L226 506L237 503L247 500L258 501L268 498L279 496L290 495L300 493L311 493L322 494L332 493L343 492L353 489L364 487L375 485L385 482L396 481L406 479L417 476L428 476L438 473L449 470L460 464L470 458L481 452L491 445L502 442L513 439L523 430L534 428L544 426L555 423L566 418L576 408L587 392L598 394L608 393L619 405L629 398L640 389L651 389L661 388L672 384L682 376L693 372L704 363" fill="none" stroke-width="1.5"></path><g fill="#a652ba"><circle cx="99" cy="521" r="2"></circle><circle cx="109" cy="521" r="2"></circle><circle cx="120" cy="520" r="2"></circle><circle cx="130" cy="520" r="2"></circle><circle cx="141" cy="519" r="2"></circle><circle cx="152" cy="518" r="2"></circle><circle cx="162" cy="517" r="2"></circle><circle cx="173" cy="517" r="2"></circle><circle cx="184" cy="515" r="2"></circle><circle cx="194" cy="513" r="2"></circle><circle cx="205" cy="508" r="2"></circle><circle cx="215" cy="506" r="2"></circle><circle cx="226" cy="506" r="2"></circle><circle cx="237" cy="503" r="2"></circle><circle cx="247" cy="500" r="2"></circle><circle cx="258" cy="501" r="2"></circle><circle cx="268" cy="498" r="2"></circle><circle cx="279" cy="496" r="2"></circle><circle cx="290" cy="495" r="2"></circle><circle cx="300" cy="493" r="2"></circle><circle cx="311" cy="493" r="2"></circle><circle cx="322" cy="494" r="2"></circle><circle cx="332" cy="493" r="2"></circle><circle cx="343" cy="492" r="2"></circle><circle cx="353" cy="489" r="2"></circle><circle cx="364" cy="487" r="2"></circle><circle cx="375" cy="485" r="2"></circle><circle cx="385" cy="482" r="2"></circle><circle cx="396" cy="481" r="2"></circle><circle cx="406" cy="479" r="2"></circle><circle cx="417" cy="476" r="2"></circle><circle cx="428" cy="476" r="2"></circle><circle cx="438" cy="473" r="2"></circle><circle cx="449" cy="470" r="2"></circle><circle cx="460" cy="464" r="2"></circle><circle cx="470" cy="458" r="2"></circle><circle cx="481" cy="452" r="2"></circle><circle cx="491" cy="445" r="2"></circle><circle cx="502" cy="442" r="2"></circle><circle cx="513" cy="439" r="2"></circle><circle cx="523" cy="430" r="2"></circle><circle cx="534" cy="428" r="2"></circle><circle cx="544" cy="426" r="2"></circle><circle cx="555" cy="423" r="2"></circle><circle cx="566" cy="418" r="2"></circle><circle cx="576" cy="408" r="2"></circle><circle cx="587" cy="392" r="2"></circle><circle cx="598" cy="394" r="2"></circle><circle cx="608" cy="393" r="2"></circle><circle cx="619" cy="405" r="2"></circle><circle cx="629" cy="398" r="2"></circle><circle cx="640" cy="389" r="2"></circle><circle cx="651" cy="389" r="2"></circle><circle cx="661" cy="388" r="2"></circle><circle cx="672" cy="384" r="2"></circle><circle cx="682" cy="376" r="2"></circle><circle cx="693" cy="372" r="2"></circle><circle cx="704" cy="363" r="2"></circle></g></g><g class="key-Brazil_0"><path stroke="#34983f" stroke-linecap="round" d="M99 534L109 534L120 534L130 534L141 534L152 534L162 534L173 534L184 533L194 533L205 533L215 533L226 532L237 532L247 532L258 531L268 531L279 531L290 531L300 530L311 529L322 528L332 528L343 527L353 525L364 525L375 526L385 524L396 523L406 522L417 523L428 521L438 519L449 517L460 516L470 517L481 517L491 515L502 514L513 512L523 510L534 507L544 505L555 502L566 497L576 494L587 491L598 489L608 489L619 493L629 488L640 486L651 486L661 484L672 485L682 481L693 480L704 478" fill="none" stroke-width="1.5"></path><g fill="#34983f"><circle cx="99" cy="534" r="2"></circle><circle cx="109" cy="534" r="2"></circle><circle cx="120" cy="534" r="2"></circle><circle cx="130" cy="534" r="2"></circle><circle cx="141" cy="534" r="2"></circle><circle cx="152" cy="534" r="2"></circle><circle cx="162" cy="534" r="2"></circle><circle cx="173" cy="534" r="2"></circle><circle cx="184" cy="533" r="2"></circle><circle cx="194" cy="533" r="2"></circle><circle cx="205" cy="533" r="2"></circle><circle cx="215" cy="533" r="2"></circle><circle cx="226" cy="532" r="2"></circle><circle cx="237" cy="532" r="2"></circle><circle cx="247" cy="532" r="2"></circle><circle cx="258" cy="531" r="2"></circle><circle cx="268" cy="531" r="2"></circle><circle cx="279" cy="531" r="2"></circle><circle cx="290" cy="531" r="2"></circle><circle cx="300" cy="530" r="2"></circle><circle cx="311" cy="529" r="2"></circle><circle cx="322" cy="528" r="2"></circle><circle cx="332" cy="528" r="2"></circle><circle cx="343" cy="527" r="2"></circle><circle cx="353" cy="525" r="2"></circle><circle cx="364" cy="525" r="2"></circle><circle cx="375" cy="526" r="2"></circle><circle cx="385" cy="524" r="2"></circle><circle cx="396" cy="523" r="2"></circle><circle cx="406" cy="522" r="2"></circle><circle cx="417" cy="523" r="2"></circle><circle cx="428" cy="521" r="2"></circle><circle cx="438" cy="519" r="2"></circle><circle cx="449" cy="517" r="2"></circle><circle cx="460" cy="516" r="2"></circle><circle cx="470" cy="517" r="2"></circle><circle cx="481" cy="517" r="2"></circle><circle cx="491" cy="515" r="2"></circle><circle cx="502" cy="514" r="2"></circle><circle cx="513" cy="512" r="2"></circle><circle cx="523" cy="510" r="2"></circle><circle cx="534" cy="507" r="2"></circle><circle cx="544" cy="505" r="2"></circle><circle cx="555" cy="502" r="2"></circle><circle cx="566" cy="497" r="2"></circle><circle cx="576" cy="494" r="2"></circle><circle cx="587" cy="491" r="2"></circle><circle cx="598" cy="489" r="2"></circle><circle cx="608" cy="489" r="2"></circle><circle cx="619" cy="493" r="2"></circle><circle cx="629" cy="488" r="2"></circle><circle cx="640" cy="486" r="2"></circle><circle cx="651" cy="486" r="2"></circle><circle cx="661" cy="484" r="2"></circle><circle cx="672" cy="485" r="2"></circle><circle cx="682" cy="481" r="2"></circle><circle cx="693" cy="480" r="2"></circle><circle cx="704" cy="478" r="2"></circle></g></g><g class="key-Argentina_0"><path stroke="#3360a9" stroke-linecap="round" d="M99 534L109 534L120 534L130 534L141 534L152 534L162 534L173 534L184 534L194 533L205 533L215 534L226 534L237 533L247 533L258 533L268 533L279 532L290 532L300 532L311 532L322 532L332 532L343 532L353 532L364 531L375 532L385 532L396 531L406 531L417 530L428 530L438 530L449 530L460 529L470 528L481 528L491 527L502 526L513 526L523 525L534 525L544 525L555 524L566 523L576 522L587 521L598 520L608 520L619 521L629 519L640 519L651 519L661 520L672 521L682 521L693 521L704 521" fill="none" stroke-width="1.5"></path><g fill="#3360a9"><circle cx="99" cy="534" r="2"></circle><circle cx="109" cy="534" r="2"></circle><circle cx="120" cy="534" r="2"></circle><circle cx="130" cy="534" r="2"></circle><circle cx="141" cy="534" r="2"></circle><circle cx="152" cy="534" r="2"></circle><circle cx="162" cy="534" r="2"></circle><circle cx="173" cy="534" r="2"></circle><circle cx="184" cy="534" r="2"></circle><circle cx="194" cy="533" r="2"></circle><circle cx="205" cy="533" r="2"></circle><circle cx="215" cy="534" r="2"></circle><circle cx="226" cy="534" r="2"></circle><circle cx="237" cy="533" r="2"></circle><circle cx="247" cy="533" r="2"></circle><circle cx="258" cy="533" r="2"></circle><circle cx="268" cy="533" r="2"></circle><circle cx="279" cy="532" r="2"></circle><circle cx="290" cy="532" r="2"></circle><circle cx="300" cy="532" r="2"></circle><circle cx="311" cy="532" r="2"></circle><circle cx="322" cy="532" r="2"></circle><circle cx="332" cy="532" r="2"></circle><circle cx="343" cy="532" r="2"></circle><circle cx="353" cy="532" r="2"></circle><circle cx="364" cy="531" r="2"></circle><circle cx="375" cy="532" r="2"></circle><circle cx="385" cy="532" r="2"></circle><circle cx="396" cy="531" r="2"></circle><circle cx="406" cy="531" r="2"></circle><circle cx="417" cy="530" r="2"></circle><circle cx="428" cy="530" r="2"></circle><circle cx="438" cy="530" r="2"></circle><circle cx="449" cy="530" r="2"></circle><circle cx="460" cy="529" r="2"></circle><circle cx="470" cy="528" r="2"></circle><circle cx="481" cy="528" r="2"></circle><circle cx="491" cy="527" r="2"></circle><circle cx="502" cy="526" r="2"></circle><circle cx="513" cy="526" r="2"></circle><circle cx="523" cy="525" r="2"></circle><circle cx="534" cy="525" r="2"></circle><circle cx="544" cy="525" r="2"></circle><circle cx="555" cy="524" r="2"></circle><circle cx="566" cy="523" r="2"></circle><circle cx="576" cy="522" r="2"></circle><circle cx="587" cy="521" r="2"></circle><circle cx="598" cy="520" r="2"></circle><circle cx="608" cy="520" r="2"></circle><circle cx="619" cy="521" r="2"></circle><circle cx="629" cy="519" r="2"></circle><circle cx="640" cy="519" r="2"></circle><circle cx="651" cy="519" r="2"></circle><circle cx="661" cy="520" r="2"></circle><circle cx="672" cy="521" r="2"></circle><circle cx="682" cy="521" r="2"></circle><circle cx="693" cy="521" r="2"></circle><circle cx="704" cy="521" r="2"></circle></g></g></g></g></g><g style="fill: #777;" class="SourcesFooter"><g style="fill: #777;" class="clickable"><text font-size="12.60" x="15.0" y="581.6"><tspan x="15" y="581.58">Source: World Bank</tspan></text></g><text font-size="12.60" x="775.4" y="581.6"><tspan x="775.402" y="581.58"><a style="fill: #777;" class="cclogo" href="http://creativecommons.org/licenses/by-sa/4.0/deed.en_US" target="_blank">CC BY-SA</a></tspan></text></g></g></svg>