<svg xmlns="http://www.w3.org/2000/svg" version="1.1" style="font-family: 'Helvetica Neue', Helvetica, Arial, sans-serif; font-size: 18px; background-color: white; text-rendering: optimizeLegibility; -webkit-font-smoothing: antialiased;" width="850" height="600"><g class="ChartTab"><g class="HeaderView"><g opacity="0.8" transform="translate(778, 15) scale(0.27)"><a xmlns:xlink="http://www.w3.org/1999/xlink" xlink:href="https://ourworldindata.org" target="_blank"><g><rect x="0" y="0" fill="#1B2543" width="211.2" height="130.1"/><rect x="0" y="112.2" fill="#E63912" width="211.2" height="17.9"/><g><rect x="1.2" y="12.3" fill="none" width="210.2" height="99.2"/><path fill="#FFFFFF" d="M37.8,32.2c0,12.7-7.7,19.4-17.1,19.4c-9.7,0-16.6-7.5-16.6-18.7c0-11.7,7.3-19.3,17.1-19.3 C31.3,13.7,37.8,21.3,37.8,32.2z M9.2,32.8c0,7.9,4.3,14.9,11.8,14.9c7.5,0,11.8-6.9,11.8-15.3c0-7.3-3.8-14.9-11.8-14.9 C13.1,17.5,9.2,24.8,9.2,32.8z"/><path fill="#FFFFFF" d="M62.7,43.8c0,2.7,0.1,5.1,0.2,7.2h-4.3l-0.3-4.3h-0.1c-1.3,2.1-4,4.9-8.8,4.9c-4.2,0-9.1-2.3-9.1-11.6 V24.6h4.8v14.6c0,5,1.5,8.4,5.9,8.4c3.2,0,5.5-2.2,6.3-4.4c0.3-0.7,0.4-1.6,0.4-2.5V24.6h4.8V43.8z"/><path fill="#FFFFFF" d="M67.3,32.8c0-3.1-0.1-5.8-0.2-8.2h4.2l0.2,5.2h0.2c1.2-3.5,4.1-5.8,7.3-5.8c0.5,0,0.9,0.1,1.4,0.2v4.5 c-0.5-0.1-1-0.2-1.6-0.2c-3.4,0-5.8,2.6-6.5,6.2c-0.1,0.7-0.2,1.4-0.2,2.2V51h-4.8V32.8z"/><path fill="#FFFFFF" d="M95.4,51l-9.4-36.8h5l4.4,18.6c1.1,4.6,2.1,9.2,2.7,12.7h0.1c0.6-3.7,1.8-8,3-12.8l4.9-18.5h5l4.5,18.7 c1,4.4,2,8.7,2.6,12.6h0.1c0.8-4,1.8-8.1,3-12.7l4.9-18.5h4.9L120.6,51h-5L111,31.9c-1.1-4.7-1.9-8.3-2.4-12h-0.1 c-0.7,3.7-1.5,7.3-2.8,12L100.4,51H95.4z"/><path fill="#FFFFFF" d="M154.9,37.6c0,9.8-6.8,14-13.2,14c-7.2,0-12.7-5.2-12.7-13.6c0-8.8,5.8-14,13.1-14 C149.8,24,154.9,29.5,154.9,37.6z M133.9,37.9c0,5.8,3.3,10.1,8,10.1c4.6,0,8-4.3,8-10.3c0-4.5-2.2-10.1-7.9-10.1 C136.3,27.6,133.9,32.8,133.9,37.9z"/><path fill="#FFFFFF" d="M158.2,32.8c0-3.1-0.1-5.8-0.2-8.2h4.2l0.2,5.2h0.2c1.2-3.5,4.1-5.8,7.3-5.8c0.5,0,0.9,0.1,1.4,0.2v4.5 c-0.5-0.1-1-0.2-1.6-0.2c-3.4,0-5.8,2.6-6.5,6.2c-0.1,0.7-0.2,1.4-0.2,2.2V51h-4.8V32.8z"/><path fill="#FFFFFF" d="M173.5,12.3h4.8V51h-4.8V12.3z"/><path fill="#FFFFFF" d="M206.5,12.3v31.9c0,2.3,0.1,5,0.2,6.8h-4.3l-0.2-4.6H202c-1.5,2.9-4.7,5.2-9,5.2 c-6.4,0-11.3-5.4-11.3-13.4c-0.1-8.8,5.4-14.2,11.9-14.2c4,0,6.8,1.9,8,4h0.1V12.3H206.5z M201.7,35.4c0-0.6-0.1-1.4-0.2-2 c-0.7-3.1-3.3-5.6-6.9-5.6c-5,0-7.9,4.4-7.9,10.2c0,5.3,2.6,9.8,7.8,9.8c3.2,0,6.2-2.1,7.1-5.7c0.2-0.7,0.2-1.3,0.2-2.1V35.4z"/><path fill="#FFFFFF" d="M42.8,64c0.1,1.6-1.1,2.9-3.1,2.9c-1.7,0-2.9-1.3-2.9-2.9c0-1.7,1.3-3,3-3C41.7,61,42.8,62.3,42.8,64z M37.4,97.8V71.4h4.8v26.4H37.4z"/><path fill="#FFFFFF" d="M47.5,78.6c0-2.7-0.1-5-0.2-7.1h4.3l0.3,4.4h0.1c1.3-2.5,4.4-5,8.8-5c3.7,0,9.4,2.2,9.4,11.2v15.8h-4.8 V82.6c0-4.3-1.6-7.8-6.1-7.8c-3.2,0-5.6,2.2-6.5,4.9c-0.2,0.6-0.3,1.4-0.3,2.2v15.9h-4.8V78.6z"/><path fill="#FFFFFF" d="M84,61.6c2.9-0.4,6.3-0.8,10.1-0.8c6.8,0,11.7,1.6,14.9,4.6c3.3,3,5.2,7.3,5.2,13.2c0,6-1.9,10.9-5.3,14.3 c-3.4,3.4-9.1,5.3-16.3,5.3c-3.4,0-6.2-0.2-8.6-0.4V61.6z M88.8,94.1c1.2,0.2,3,0.3,4.8,0.3c10.2,0,15.7-5.7,15.7-15.6 c0.1-8.7-4.9-14.2-14.9-14.2c-2.5,0-4.3,0.2-5.6,0.5V94.1z"/><path fill="#FFFFFF" d="M132.1,97.8l-0.4-3.3h-0.2c-1.5,2.1-4.3,3.9-8.1,3.9c-5.4,0-8.1-3.8-8.1-7.6c0-6.4,5.7-9.9,15.9-9.8v-0.5 c0-2.2-0.6-6.1-6-6.1c-2.5,0-5,0.8-6.9,2l-1.1-3.2c2.2-1.4,5.4-2.3,8.7-2.3c8.1,0,10.1,5.5,10.1,10.8v9.9c0,2.3,0.1,4.5,0.4,6.3 H132.1z M131.4,84.4c-5.3-0.1-11.2,0.8-11.2,5.9c0,3.1,2.1,4.6,4.5,4.6c3.4,0,5.6-2.2,6.4-4.4c0.2-0.5,0.3-1,0.3-1.5V84.4z"/><path fill="#FFFFFF" d="M146.6,63.9v7.6h6.9v3.7h-6.9v14.2c0,3.3,0.9,5.1,3.6,5.1c1.3,0,2.2-0.2,2.8-0.3l0.2,3.6 c-0.9,0.4-2.4,0.7-4.3,0.7c-2.2,0-4-0.7-5.2-2c-1.4-1.4-1.9-3.8-1.9-6.9V75.1h-4.1v-3.7h4.1v-6.3L146.6,63.9z"/><path fill="#FFFFFF" d="M171.4,97.8l-0.4-3.3h-0.2c-1.5,2.1-4.3,3.9-8.1,3.9c-5.4,0-8.1-3.8-8.1-7.6c0-6.4,5.7-9.9,15.9-9.8v-0.5 c0-2.2-0.6-6.1-6-6.1c-2.5,0-5,0.8-6.9,2l-1.1-3.2c2.2-1.4,5.4-2.3,8.7-2.3c8.1,0,10.1,5.5,10.1,10.8v9.9c0,2.3,0.1,4.5,0.4,6.3 H171.4z M170.7,84.4c-5.3-0.1-11.2,0.8-11.2,5.9c0,3.1,2.1,4.6,4.5,4.6c3.4,0,5.6-2.2,6.4-4.4c0.2-0.5,0.3-1,0.3-1.5V84.4z"/></g></g></a></g><a href="https://ourworldindata.org/grapher/female-labor-force-participation-rates-by-family-benefits-public-spending" target="_blank"><text font-size="21.60" x="15.0" y="32.3" fill="#555"><tspan x="15" y="32.279999999999994">Female labor force participation rates by family benefits public spending,</tspan><tspan x="15" y="53.87999999999999">2000 to 2015</tspan></text></a><text font-size="14.40" x="15.0" y="72.7" fill="#666"><tspan x="15" y="72.72">The labor force participation rate corresponds to the proportion of the population ages 15 and older that is economically active.</tspan><tspan x="15" y="88.56">Family benefits spending refer to public spending on financial support for families and children, such as child-related cash</tspan><tspan x="15" y="104.4">transfers, public spending on services, and tax provisions. </tspan></text></g><g><g class="AxisBoxView"><g class="HorizontalAxis"><text font-size="12.60" x="205.7" y="554.0"><tspan x="205.673" y="553.98">Family benefits public spending (% GDP) (OECD (2016))</tspan></text><text x="124.3" y="533.9" fill="#666" text-anchor="middle" font-size="16.2">0.5%</text><text x="204.8" y="533.9" fill="#666" text-anchor="middle" font-size="16.2">1%</text><text x="285.3" y="533.9" fill="#666" text-anchor="middle" font-size="16.2">1.5%</text><text x="365.8" y="533.9" fill="#666" text-anchor="middle" font-size="16.2">2%</text><text x="446.3" y="533.9" fill="#666" text-anchor="middle" font-size="16.2">2.5%</text><text x="526.8" y="533.9" fill="#666" text-anchor="middle" font-size="16.2">3%</text><text x="607.3" y="533.9" fill="#666" text-anchor="middle" font-size="16.2">3.5%</text><text x="687.8" y="533.9" fill="#666" text-anchor="middle" font-size="16.2">4%</text></g><g class="VerticalAxis"><text font-size="12.60" x="-454.3" y="25.1" transform="rotate(-90)"><tspan x="-454.25699999999995" y="25.080000000000002">Female labor force participation rate (%)</tspan></text><text x="55.74" y="512.7" fill="#666" dominant-baseline="middle" text-anchor="end" font-size="16.2">0</text><text x="55.74" y="460.3" fill="#666" dominant-baseline="middle" text-anchor="end" font-size="16.2">10</text><text x="55.74" y="408" fill="#666" dominant-baseline="middle" text-anchor="end" font-size="16.2">20</text><text x="55.74" y="355.6" fill="#666" dominant-baseline="middle" text-anchor="end" font-size="16.2">30</text><text x="55.74" y="303.3" fill="#666" dominant-baseline="middle" text-anchor="end" font-size="16.2">40</text><text x="55.74" y="250.9" fill="#666" dominant-baseline="middle" text-anchor="end" font-size="16.2">50</text><text x="55.74" y="198.5" fill="#666" dominant-baseline="middle" text-anchor="end" font-size="16.2">60</text><text x="55.74" y="146.2" fill="#666" dominant-baseline="middle" text-anchor="end" font-size="16.2">70</text></g><g class="AxisGridLines"><line x1="60.74" y1="512.7" x2="715.00" y2="512.7" stroke="#ccc"></line><line x1="60.74" y1="460.3" x2="715.00" y2="460.3" stroke="#ddd" stroke-dasharray="3,2"></line><line x1="60.74" y1="408" x2="715.00" y2="408" stroke="#ddd" stroke-dasharray="3,2"></line><line x1="60.74" y1="355.6" x2="715.00" y2="355.6" stroke="#ddd" stroke-dasharray="3,2"></line><line x1="60.74" y1="303.3" x2="715.00" y2="303.3" stroke="#ddd" stroke-dasharray="3,2"></line><line x1="60.74" y1="250.9" x2="715.00" y2="250.9" stroke="#ddd" stroke-dasharray="3,2"></line><line x1="60.74" y1="198.5" x2="715.00" y2="198.5" stroke="#ddd" stroke-dasharray="3,2"></line><line x1="60.74" y1="146.2" x2="715.00" y2="146.2" stroke="#ddd" stroke-dasharray="3,2"></line></g><g class="AxisGridLines"><line x1="124.3" y1="512.70" x2="124.3" y2="126.60" stroke="#ddd" stroke-dasharray="3,2"></line><line x1="204.8" y1="512.70" x2="204.8" y2="126.60" stroke="#ddd" stroke-dasharray="3,2"></line><line x1="285.3" y1="512.70" x2="285.3" y2="126.60" stroke="#ddd" stroke-dasharray="3,2"></line><line x1="365.8" y1="512.70" x2="365.8" y2="126.60" stroke="#ddd" stroke-dasharray="3,2"></line><line x1="446.3" y1="512.70" x2="446.3" y2="126.60" stroke="#ddd" stroke-dasharray="3,2"></line><line x1="526.8" y1="512.70" x2="526.8" y2="126.60" stroke="#ddd" stroke-dasharray="3,2"></line><line x1="607.3" y1="512.70" x2="607.3" y2="126.60" stroke="#ddd" stroke-dasharray="3,2"></line><line x1="687.8" y1="512.70" x2="687.8" y2="126.60" stroke="#ddd" stroke-dasharray="3,2"></line></g></g><g clip-path="url(#scatterBounds-295)" font-family="Arial Narrow, Arial, sans-serif" class="PointsWithLabels clickable"><rect x="60.744" y="126.6" width="654.256" height="386.09999999999997" fill="rgba(255,255,255,0)"></rect><defs><clipPath id="scatterBounds-295"><rect x="50.744" y="116.6" width="674.256" height="406.09999999999997"></rect></clipPath></defs><g class="key-United-States_0"><circle cx="170.00" cy="203.00" r="2.05" fill="#4d824b" stroke="#ccc" opacity="0.6"></circle><polyline stroke-linecap="round" stroke="#4d824b" points="170.00,203.00 175.00,204.00 179.00,205.00 172.00,206.00 163.00,208.00 156.00,207.00 157.00,207.00 156.00,207.00 157.00,206.00 162.00,208.00 164.00,211.00 160.00,214.00 155.00,215.00 154.00,217.00" fill="none" stroke-width="1.42" opacity="0.6"></polyline><polygon points="151.88,222.88 154.00,214.88 156.12,219.12" transform="rotate(-153.4349501268608, 154.00, 217.00)" cx="154" cy="217" r="2.115077572595482" fill="#4d824b" stroke="#ccc" stroke-width="0.2" opacity="0.6"></polygon></g><g class="key-Japan_0"><circle cx="147.00" cy="254.00" r="1.71" fill="#d14e5b" stroke="#ccc" opacity="0.6"></circle><polyline stroke-linecap="round" stroke="#d14e5b" points="147.00,254.00 156.00,255.00 161.00,258.00 162.00,258.00 169.00,259.00 174.00,259.00 172.00,259.00 172.00,258.00 185.00,258.00 199.00,257.00 249.00,257.00 261.00,259.00 254.00,259.00 246.00,256.00" fill="none" stroke-width="1.01" opacity="0.6"></polyline><polygon points="244.29,262.29 246.00,254.29 247.71,257.71" transform="rotate(-69.44395537057325, 246.00, 256.00)" cx="246" cy="256" r="1.7071706961311328" fill="#d14e5b" stroke="#ccc" stroke-width="0.2" opacity="0.6"></polygon></g><g class="key-Mexico_0"><circle cx="147.00" cy="309.00" r="1.63" fill="#4d824b" stroke="#ccc" opacity="0.6"></circle><polyline stroke-linecap="round" stroke="#4d824b" points="147.00,309.00 160.00,312.00 176.00,308.00 202.00,311.00 183.00,299.00 199.00,296.00 201.00,290.00 202.00,287.00 219.00,288.00 215.00,285.00 224.00,286.00 218.00,284.00 112.00,279.00 107.00,279.00" fill="none" stroke-width="0.98" opacity="0.6"></polyline><polygon points="105.32,285.32 107.00,277.32 108.68,280.68" transform="rotate(-90.0000007648485, 107.00, 279.00)" cx="107" cy="279" r="1.6824884587089943" fill="#4d824b" stroke="#ccc" stroke-width="0.2" opacity="0.6"></polygon></g><g class="key-Germany_0"><circle cx="373.00" cy="255.00" r="1.57" fill="#ffd336" stroke="#ccc" opacity="0.6"></circle><polyline stroke-linecap="round" stroke="#ffd336" points="373.00,255.00 366.00,254.00 376.00,252.00 378.00,251.00 372.00,251.00 371.00,247.00 321.00,243.00 333.00,240.00 347.00,239.00 390.00,237.00 390.00,236.00 381.00,231.00 385.00,231.00 393.00,228.00" fill="none" stroke-width="0.87" opacity="0.6"></polyline><polygon points="391.43,234.43 393.00,226.43 394.57,229.57" transform="rotate(69.44395537057325, 393.00, 228.00)" cx="393" cy="228" r="1.5725306763283096" fill="#ffd336" stroke="#ccc" stroke-width="0.2" opacity="0.6"></polygon></g><g class="key-Turkey_0"><circle cx="77.00" cy="375.00" r="1.51" fill="#d14e5b" stroke="#ccc" opacity="0.6"></circle><polyline stroke-linecap="round" stroke="#d14e5b" points="77.00,375.00 79.00,372.00 82.00,368.00 81.00,375.00 82.00,390.00 89.00,390.00 83.00,392.00 96.00,391.00 94.00,387.00 102.00,379.00 97.00,371.00 101.00,364.00 107.00,361.00 114.00,355.00" fill="none" stroke-width="0.85" opacity="0.6"></polyline><polygon points="112.45,361.45 114.00,353.45 115.55,356.55" transform="rotate(49.39870577480138, 114.00, 355.00)" cx="114" cy="355" r="1.5503265149443375" fill="#d14e5b" stroke="#ccc" stroke-width="0.2" opacity="0.6"></polygon></g><g class="key-France_0"><circle cx="514.00" cy="258.00" r="1.49" fill="#ffd336" stroke="#ccc" opacity="0.6"></circle><polyline stroke-linecap="round" stroke="#ffd336" points="514.00,258.00 506.00,259.00 506.00,258.00 514.00,251.00 518.00,252.00 514.00,250.00 502.00,250.00 495.00,248.00 492.00,247.00 517.00,245.00 504.00,246.00 496.00,246.00 508.00,246.00 513.00,245.00" fill="none" stroke-width="0.81" opacity="0.6"></polyline><polygon points="511.49,251.49 513.00,243.49 514.51,246.51" transform="rotate(78.69006819471291, 513.00, 245.00)" cx="513" cy="245" r="1.5080150537631698" fill="#ffd336" stroke="#ccc" stroke-width="0.2" opacity="0.6"></polygon></g><g class="key-United-Kingdom_0"><circle cx="455.00" cy="232.00" r="1.49" fill="#ffd336" stroke="#ccc" opacity="0.6"></circle><polyline stroke-linecap="round" stroke="#ffd336" points="455.00,232.00 470.00,233.00 476.00,230.00 514.00,230.00 531.00,228.00 523.00,226.00 520.00,224.00 565.00,225.00 605.00,223.00 660.00,222.00 682.00,222.00 680.00,222.00 686.00,220.00 655.00,218.00" fill="none" stroke-width="0.81" opacity="0.6"></polyline><polygon points="653.49,224.49 655.00,216.49 656.51,219.51" transform="rotate(-86.30861474702665, 655.00, 218.00)" cx="655" cy="218" r="1.5057042659078177" fill="#ffd336" stroke="#ccc" stroke-width="0.2" opacity="0.6"></polygon></g><g class="key-Italy_0"><circle cx="230.00" cy="327.00" r="1.48" fill="#ffd336" stroke="#ccc" opacity="0.6"></circle><polyline stroke-linecap="round" stroke="#ffd336" points="230.00,327.00 239.00,324.00 223.00,321.00 238.00,318.00 240.00,312.00 238.00,314.00 251.00,313.00 256.00,315.00 262.00,311.00 285.00,314.00 260.00,314.00 259.00,314.00 267.00,307.00 272.00,308.00" fill="none" stroke-width="0.80" opacity="0.6"></polyline><polygon points="270.50,314.50 272.00,306.50 273.50,309.50" transform="rotate(101.30993333498411, 272.00, 308.00)" cx="272" cy="308" r="1.4976464268640628" fill="#ffd336" stroke="#ccc" stroke-width="0.2" opacity="0.6"></polygon></g><g class="key-South-Korea_0"><circle cx="60.00" cy="257.00" r="1.44" fill="#d14e5b" stroke="#ccc" opacity="0.6"></circle><polyline stroke-linecap="round" stroke="#d14e5b" points="60.00,257.00 65.00,254.00 65.00,251.00 69.00,255.00 74.00,250.00 75.00,248.00 123.00,247.00 113.00,248.00 134.00,249.00 153.00,254.00 152.00,253.00 152.00,252.00 180.00,250.00 225.00,249.00 223.00,243.00" fill="none" stroke-width="0.75" opacity="0.6"></polyline><polygon points="221.55,249.55 223.00,241.55 224.45,244.45" transform="rotate(-18.43494897958805, 223.00, 243.00)" cx="223" cy="243" r="1.447239018400164" fill="#d14e5b" stroke="#ccc" stroke-width="0.2" opacity="0.6"></polygon></g><g class="key-Spain_0"><circle cx="196.00" cy="300.00" r="1.41" fill="#ffd336" stroke="#ccc" opacity="0.6"></circle><polyline stroke-linecap="round" stroke="#ffd336" points="196.00,300.00 187.00,306.00 189.00,293.00 213.00,285.00 217.00,278.00 229.00,271.00 233.00,264.00 240.00,259.00 257.00,252.00 281.00,246.00 279.00,242.00 261.00,239.00 262.00,237.00 258.00,237.00" fill="none" stroke-width="0.74" opacity="0.6"></polyline><polygon points="256.56,243.56 258.00,235.56 259.44,238.44" transform="rotate(-90.0000007648485, 258.00, 237.00)" cx="258" cy="237" r="1.4396841653232775" fill="#ffd336" stroke="#ccc" stroke-width="0.2" opacity="0.6"></polygon></g><g class="key-Poland_0"><circle cx="234.00" cy="253.00" r="1.40" fill="#ffd336" stroke="#ccc" opacity="0.6"></circle><polyline stroke-linecap="round" stroke="#ffd336" points="234.00,253.00 234.00,251.00 233.00,257.00 225.00,260.00 243.00,264.00 239.00,262.00 236.00,268.00 230.00,269.00 245.00,267.00 252.00,264.00 258.00,259.00 251.00,259.00 243.00,257.00" fill="none" stroke-width="0.70" opacity="0.6"></polyline><polygon points="241.60,263.60 243.00,255.60 244.40,258.40" transform="rotate(-75.96375717763759, 243.00, 257.00)" cx="243" cy="257" r="1.3994609659088932" fill="#ffd336" stroke="#ccc" stroke-width="0.2" opacity="0.6"></polygon></g><g class="key-Canada_0"><circle cx="186.00" cy="205.00" r="1.36" fill="#4d824b" stroke="#ccc" opacity="0.6"></circle><polyline stroke-linecap="round" stroke="#4d824b" points="186.00,205.00 208.00,204.00 213.00,197.00 214.00,192.00 216.00,192.00 215.00,193.00 235.00,192.00 240.00,188.00 240.00,188.00 255.00,188.00 247.00,188.00 241.00,190.00 242.00,190.00 238.00,189.00 234.00,192.00" fill="none" stroke-width="0.68" opacity="0.6"></polyline><polygon points="232.62,198.62 234.00,190.62 235.38,193.38" transform="rotate(-126.86989872402458, 234.00, 192.00)" cx="234" cy="192" r="1.3830317191881871" fill="#4d824b" stroke="#ccc" stroke-width="0.2" opacity="0.6"></polygon></g><g class="key-Australia_0"><circle cx="511.00" cy="226.00" r="1.29" fill="#a652ba" stroke="#ccc" opacity="0.6"></circle><polyline stroke-linecap="round" stroke="#a652ba" points="511.00,226.00 518.00,223.00 494.00,222.00 558.00,219.00 506.00,220.00 485.00,214.00 460.00,211.00 438.00,208.00 574.00,205.00 478.00,204.00 461.00,205.00 465.00,204.00 494.00,204.00 485.00,205.00 494.00,205.00" fill="none" stroke-width="0.62" opacity="0.6"></polyline><polygon points="492.68,211.68 494.00,203.68 495.32,206.32" transform="rotate(90.0000007648485, 494.00, 205.00)" cx="494" cy="205" r="1.3180333484255962" fill="#a652ba" stroke="#ccc" stroke-width="0.2" opacity="0.6"></polygon></g><g class="key-Chile_0"><circle cx="156.00" cy="326.00" r="1.27" fill="#69c487" stroke="#ccc" opacity="0.6"></circle><polyline stroke-linecap="round" stroke="#69c487" points="156.00,326.00 163.00,327.00 163.00,327.00 203.00,321.00 201.00,309.00 178.00,311.00 175.00,307.00 196.00,295.00 229.00,287.00 314.00,285.00 283.00,266.00 255.00,256.00 265.00,255.00 271.00,253.00 291.00,250.00 322.00,250.00" fill="none" stroke-width="0.58" opacity="0.6"></polyline><polygon points="320.72,256.72 322.00,248.72 323.28,251.28" transform="rotate(90.0000007648485, 322.00, 250.00)" cx="322" cy="250" r="1.2816556025608232" fill="#69c487" stroke="#ccc" stroke-width="0.2" opacity="0.6"></polygon></g><g class="key-Netherlands_0"><circle cx="266.00" cy="234.00" r="1.27" fill="#ffd336" stroke="#ccc" opacity="0.6"></circle><polyline stroke-linecap="round" stroke="#ffd336" points="266.00,234.00 264.00,228.00 289.00,225.00 305.00,221.00 301.00,219.00 289.00,216.00 325.00,213.00 335.00,206.00 278.00,202.00 298.00,199.00 291.00,207.00 286.00,208.00 268.00,205.00 260.00,206.00" fill="none" stroke-width="0.58" opacity="0.6"></polyline><polygon points="258.72,212.72 260.00,204.72 261.28,207.28" transform="rotate(-97.12501717430095, 260.00, 206.00)" cx="260" cy="206" r="1.2760167965354325" fill="#ffd336" stroke="#ccc" stroke-width="0.2" opacity="0.6"></polygon></g><g class="key-Greece_0"><circle cx="201.00" cy="298.00" r="1.23" fill="#ffd336" stroke="#ccc" opacity="0.6"></circle><polyline stroke-linecap="round" stroke="#ffd336" points="201.00,298.00 203.00,303.00 213.00,300.00 219.00,296.00 220.00,289.00 217.00,289.00 211.00,286.00 213.00,287.00 230.00,286.00 267.00,281.00 262.00,278.00 265.00,279.00 250.00,277.00" fill="none" stroke-width="0.54" opacity="0.6"></polyline><polygon points="248.76,283.76 250.00,275.76 251.24,278.24" transform="rotate(-82.40535733171538, 250.00, 277.00)" cx="250" cy="277" r="1.2356227520800944" fill="#ffd336" stroke="#ccc" stroke-width="0.2" opacity="0.6"></polygon></g><g class="key-Belgium_0"><circle cx="438.00" cy="284.00" r="1.23" fill="#ffd336" stroke="#ccc" opacity="0.6"></circle><polyline stroke-linecap="round" stroke="#ffd336" points="438.00,284.00 455.00,294.00 460.00,290.00 470.00,289.00 461.00,282.00 458.00,274.00 458.00,273.00 467.00,269.00 471.00,268.00 499.00,267.00 496.00,264.00 500.00,267.00 494.00,267.00 503.00,263.00" fill="none" stroke-width="0.53" opacity="0.6"></polyline><polygon points="501.77,269.77 503.00,261.77 504.23,264.23" transform="rotate(66.03751158662949, 503.00, 263.00)" cx="503" cy="263" r="1.2306174387287185" fill="#ffd336" stroke="#ccc" stroke-width="0.2" opacity="0.6"></polygon></g><g class="key-Portugal_0"><circle cx="200.00" cy="237.00" r="1.23" fill="#ffd336" stroke="#ccc" opacity="0.6"></circle><polyline stroke-linecap="round" stroke="#ffd336" points="200.00,237.00 206.00,233.00 254.00,230.00 270.00,226.00 231.00,228.00 234.00,223.00 231.00,221.00 229.00,219.00 242.00,220.00 276.00,221.00 266.00,220.00 238.00,226.00 242.00,226.00 237.00,229.00" fill="none" stroke-width="0.53" opacity="0.6"></polyline><polygon points="235.77,235.77 237.00,227.77 238.23,230.23" transform="rotate(-120.96375756006182, 237.00, 229.00)" cx="237" cy="229" r="1.2296840606379413" fill="#ffd336" stroke="#ccc" stroke-width="0.2" opacity="0.6"></polygon></g><g class="key-Czech-Republic_0"><circle cx="330.00" cy="242.00" r="1.23" fill="#ffd336" stroke="#ccc" opacity="0.6"></circle><polyline stroke-linecap="round" stroke="#ffd336" points="330.00,242.00 319.00,244.00 327.00,246.00 314.00,245.00 324.00,247.00 374.00,246.00 368.00,247.00 406.00,251.00 414.00,254.00 433.00,253.00 427.00,254.00 398.00,253.00 395.00,250.00 400.00,245.00" fill="none" stroke-width="0.53" opacity="0.6"></polyline><polygon points="398.77,251.77 400.00,243.77 401.23,246.23" transform="rotate(45.000000382424254, 400.00, 245.00)" cx="400" cy="245" r="1.2287158995522234" fill="#ffd336" stroke="#ccc" stroke-width="0.2" opacity="0.6"></polygon></g><g class="key-Hungary_0"><circle cx="526.00" cy="297.00" r="1.23" fill="#ffd336" stroke="#ccc" opacity="0.6"></circle><polyline stroke-linecap="round" stroke="#ffd336" points="526.00,297.00 507.00,298.00 518.00,297.00 562.00,292.00 520.00,292.00 528.00,288.00 573.00,286.00 565.00,288.00 569.00,289.00 594.00,288.00 593.00,283.00 560.00,282.00 542.00,278.00 520.00,277.00" fill="none" stroke-width="0.52" opacity="0.6"></polyline><polygon points="518.78,283.78 520.00,275.78 521.22,278.22" transform="rotate(-87.39743854023129, 520.00, 277.00)" cx="520" cy="277" r="1.2230993053064843" fill="#ffd336" stroke="#ccc" stroke-width="0.2" opacity="0.6"></polygon></g><g class="key-Sweden_0"><circle cx="495.00" cy="207.00" r="1.21" fill="#ffd336" stroke="#ccc" opacity="0.6"></circle><polyline stroke-linecap="round" stroke="#ffd336" points="495.00,207.00 517.00,206.00 541.00,205.00 549.00,205.00 547.00,206.00 551.00,200.00 565.00,202.00 558.00,200.00 579.00,199.00 613.00,202.00 597.00,204.00 599.00,201.00 617.00,200.00 629.00,197.00" fill="none" stroke-width="0.52" opacity="0.6"></polyline><polygon points="627.78,203.78 629.00,195.78 630.22,198.22" transform="rotate(75.96375717763758, 629.00, 197.00)" cx="629" cy="197" r="1.219710033624381" fill="#ffd336" stroke="#ccc" stroke-width="0.2" opacity="0.6"></polygon></g><g class="key-Austria_0"><circle cx="483.00" cy="256.00" r="1.21" fill="#ffd336" stroke="#ccc" opacity="0.6"></circle><polyline stroke-linecap="round" stroke="#ffd336" points="483.00,256.00 479.00,257.00 486.00,250.00 506.00,249.00 496.00,254.00 483.00,247.00 466.00,244.00 447.00,239.00 459.00,236.00 492.00,233.00 497.00,232.00 462.00,230.00 456.00,228.00 458.00,226.00" fill="none" stroke-width="0.51" opacity="0.6"></polyline><polygon points="456.79,232.79 458.00,224.79 459.21,227.21" transform="rotate(45.000000382424254, 458.00, 226.00)" cx="458" cy="226" r="1.2097610631597764" fill="#ffd336" stroke="#ccc" stroke-width="0.2" opacity="0.6"></polygon></g><g class="key-Israel_0"><circle cx="432.00" cy="233.00" r="1.19" fill="#d14e5b" stroke="#ccc" opacity="0.6"></circle><polyline stroke-linecap="round" stroke="#d14e5b" points="432.00,233.00 458.00,232.00 435.00,234.00 403.00,229.00 359.00,227.00 337.00,224.00 342.00,222.00 331.00,220.00 340.00,219.00 354.00,215.00 368.00,214.00 360.00,215.00 364.00,209.00 368.00,208.00 344.00,203.00 349.00,203.00" fill="none" stroke-width="0.50" opacity="0.6"></polyline><polygon points="347.80,209.80 349.00,201.80 350.20,204.20" transform="rotate(90.0000007648485, 349.00, 203.00)" cx="349" cy="203" r="1.2039412845646074" fill="#d14e5b" stroke="#ccc" stroke-width="0.2" opacity="0.6"></polygon></g><g class="key-Switzerland_0"><circle cx="264.00" cy="210.00" r="1.20" fill="#ffd336" stroke="#ccc" opacity="0.6"></circle><polyline stroke-linecap="round" stroke="#ffd336" points="264.00,210.00 265.00,204.00 278.00,201.00 282.00,200.00 275.00,202.00 286.00,201.00 279.00,199.00 269.00,198.00 260.00,191.00 277.00,189.00 281.00,198.00 282.00,195.00 290.00,193.00 294.00,191.00" fill="none" stroke-width="0.50" opacity="0.6"></polyline><polygon points="292.80,197.80 294.00,189.80 295.20,192.20" transform="rotate(63.43494936201229, 294.00, 191.00)" cx="294" cy="191" r="1.2033996027160756" fill="#ffd336" stroke="#ccc" stroke-width="0.2" opacity="0.6"></polygon></g><g class="key-Denmark_0"><circle cx="590.00" cy="198.00" r="1.18" fill="#ffd336" stroke="#ccc" opacity="0.6"></circle><polyline stroke-linecap="round" stroke="#ffd336" points="590.00,198.00 601.00,199.00 616.00,197.00 634.00,200.00 619.00,196.00 607.00,195.00 599.00,192.00 616.00,194.00 626.00,193.00 680.00,195.00 654.00,199.00 657.00,200.00 638.00,203.00 632.00,205.00" fill="none" stroke-width="0.48" opacity="0.6"></polyline><polygon points="630.82,211.82 632.00,203.82 633.18,206.18" transform="rotate(-108.43494974443654, 632.00, 205.00)" cx="632" cy="205" r="1.1818022400828965" fill="#ffd336" stroke="#ccc" stroke-width="0.2" opacity="0.6"></polygon></g><g class="key-Slovakia_0"><circle cx="360.00" cy="237.00" r="1.18" fill="#ffd336" stroke="#ccc" opacity="0.6"></circle><polyline stroke-linecap="round" stroke="#ffd336" points="360.00,237.00 336.00,235.00 332.00,237.00 328.00,236.00 358.00,237.00 350.00,244.00 344.00,247.00 326.00,248.00 316.00,245.00 363.00,249.00 365.00,246.00 367.00,248.00 373.00,246.00 374.00,243.00" fill="none" stroke-width="0.48" opacity="0.6"></polyline><polygon points="372.82,249.82 374.00,241.82 375.18,244.18" transform="rotate(18.43494897958805, 374.00, 243.00)" cx="374" cy="243" r="1.180495222372402" fill="#ffd336" stroke="#ccc" stroke-width="0.2" opacity="0.6"></polygon></g><g class="key-Finland_0"><circle cx="516.00" cy="218.00" r="1.18" fill="#ffd336" stroke="#ccc" opacity="0.6"></circle><polyline stroke-linecap="round" stroke="#ffd336" points="516.00,218.00 498.00,216.00 495.00,215.00 497.00,216.00 498.00,217.00 501.00,216.00 496.00,213.00 482.00,211.00 492.00,211.00 548.00,214.00 546.00,219.00 541.00,220.00 558.00,219.00 560.00,222.00" fill="none" stroke-width="0.48" opacity="0.6"></polyline><polygon points="558.82,228.82 560.00,220.82 561.18,223.18" transform="rotate(146.30993371740837, 560.00, 222.00)" cx="560" cy="222" r="1.1797434178036916" fill="#ffd336" stroke="#ccc" stroke-width="0.2" opacity="0.6"></polygon></g><g class="key-Norway_0"><circle cx="526.00" cy="191.00" r="1.17" fill="#ffd336" stroke="#ccc" opacity="0.6"></circle><polyline stroke-linecap="round" stroke="#ffd336" points="526.00,191.00 547.00,190.00 530.00,186.00 538.00,193.00 522.00,192.00 493.00,194.00 477.00,193.00 485.00,187.00 472.00,181.00 542.00,184.00 538.00,189.00 532.00,189.00 522.00,190.00 530.00,190.00" fill="none" stroke-width="0.48" opacity="0.6"></polyline><polygon points="528.82,196.82 530.00,188.82 531.18,191.18" transform="rotate(90.0000007648485, 530.00, 190.00)" cx="530" cy="190" r="1.1750909116832655" fill="#ffd336" stroke="#ccc" stroke-width="0.2" opacity="0.6"></polygon></g><g class="key-Ireland_0"><circle cx="361.00" cy="263.00" r="1.16" fill="#ffd336" stroke="#ccc" opacity="0.6"></circle><polyline stroke-linecap="round" stroke="#ffd336" points="361.00,263.00 399.00,261.00 456.00,255.00 475.00,252.00 473.00,250.00 469.00,238.00 473.00,234.00 493.00,227.00 576.00,227.00 668.00,231.00 644.00,233.00 602.00,235.00 598.00,236.00 573.00,234.00" fill="none" stroke-width="0.47" opacity="0.6"></polyline><polygon points="571.83,240.83 573.00,232.83 574.17,235.17" transform="rotate(-85.42607946607701, 573.00, 234.00)" cx="573" cy="234" r="1.1710610614321848" fill="#ffd336" stroke="#ccc" stroke-width="0.2" opacity="0.6"></polygon></g><g class="key-New-Zealand_0"><circle cx="480.00" cy="215.00" r="1.16" fill="#a652ba" stroke="#ccc" opacity="0.6"></circle><polyline stroke-linecap="round" stroke="#a652ba" points="480.00,215.00 459.00,210.00 451.00,207.00 437.00,205.00 420.00,203.00 451.00,198.00 513.00,195.00 521.00,192.00 558.00,191.00 595.00,192.00 585.00,193.00 567.00,191.00 545.00,190.00 489.00,188.00 465.00,183.00" fill="none" stroke-width="0.47" opacity="0.6"></polyline><polygon points="463.83,189.83 465.00,181.83 466.17,184.17" transform="rotate(-78.23171173281722, 465.00, 183.00)" cx="465" cy="183" r="1.1696620540707694" fill="#a652ba" stroke="#ccc" stroke-width="0.2" opacity="0.6"></polygon></g><g class="key-Latvia_0"><circle cx="283.00" cy="256.00" r="1.14" fill="#ffd336" stroke="#ccc" opacity="0.6"></circle><polyline stroke-linecap="round" stroke="#ffd336" points="283.00,256.00 275.00,251.00 259.00,245.00 258.00,248.00 243.00,248.00 243.00,248.00 224.00,240.00 219.00,235.00 254.00,225.00 319.00,228.00 288.00,230.00 225.00,235.00 205.00,228.00 232.00,230.00" fill="none" stroke-width="0.44" opacity="0.6"></polyline><polygon points="230.86,236.86 232.00,228.86 233.14,231.14" transform="rotate(94.23639559990956, 232.00, 230.00)" cx="232" cy="230" r="1.1412730062410041" fill="#ffd336" stroke="#ccc" stroke-width="0.2" opacity="0.6"></polygon></g><g class="key-Slovenia_0"><circle cx="386.00" cy="244.00" r="1.14" fill="#ffd336" stroke="#ccc" opacity="0.6"></circle><polyline stroke-linecap="round" stroke="#ffd336" points="386.00,244.00 379.00,246.00 364.00,242.00 358.00,249.00 354.00,236.00 350.00,236.00 344.00,233.00 317.00,232.00 324.00,231.00 374.00,232.00 385.00,234.00 388.00,238.00 377.00,238.00 359.00,241.00" fill="none" stroke-width="0.44" opacity="0.6"></polyline><polygon points="357.86,247.86 359.00,239.86 360.14,242.14" transform="rotate(-99.46232305328793, 359.00, 241.00)" cx="359" cy="241" r="1.1387659353420574" fill="#ffd336" stroke="#ccc" stroke-width="0.2" opacity="0.6"></polygon></g><g class="key-Estonia_0"><circle cx="324.00" cy="237.00" r="1.13" fill="#ffd336" stroke="#ccc" opacity="0.6"></circle><polyline stroke-linecap="round" stroke="#ffd336" points="324.00,237.00 302.00,240.00 299.00,245.00 273.00,238.00 341.00,234.00 325.00,232.00 315.00,226.00 305.00,229.00 384.00,225.00 455.00,226.00 456.00,224.00 403.00,221.00 370.00,222.00 365.00,222.00" fill="none" stroke-width="0.43" opacity="0.6"></polyline><polygon points="363.87,228.87 365.00,220.87 366.13,223.13" transform="rotate(-90.0000007648485, 365.00, 222.00)" cx="365" cy="222" r="1.1285503941036403" fill="#ffd336" stroke="#ccc" stroke-width="0.2" opacity="0.6"></polygon></g><g class="key-Luxembourg_0"><circle cx="519.00" cy="296.00" r="1.11" fill="#ffd336" stroke="#ccc" opacity="0.6"></circle><polyline stroke-linecap="round" stroke="#ffd336" points="519.00,296.00 543.00,297.00 591.00,290.00 654.00,290.00 643.00,280.00 628.00,275.00 594.00,268.00 558.00,267.00 705.00,266.00 715.00,257.00 688.00,257.00 623.00,254.00 632.00,245.00 625.00,245.00" fill="none" stroke-width="0.42" opacity="0.6"></polyline><polygon points="623.88,251.88 625.00,243.88 626.12,246.12" transform="rotate(-90.0000007648485, 625.00, 245.00)" cx="625" cy="245" r="1.1157430331775422" fill="#ffd336" stroke="#ccc" stroke-width="0.2" opacity="0.6"></polygon></g><g class="key-Iceland_0"><circle cx="389.00" cy="126.00" r="1.11" fill="#ffd336" stroke="#ccc" opacity="0.6"></circle><polyline stroke-linecap="round" stroke="#ffd336" points="389.00,126.00 433.00,132.00 466.00,135.00 523.00,136.00 528.00,138.00 506.00,141.00 532.00,138.00 588.00,138.00 611.00,141.00 644.00,144.00 632.00,142.00 590.00,145.00 605.00,141.00 627.00,138.00" fill="none" stroke-width="0.41" opacity="0.6"></polyline><polygon points="625.89,144.89 627.00,136.89 628.11,139.11" transform="rotate(82.23483468043233, 627.00, 138.00)" cx="627" cy="138" r="1.1123852152176934" fill="#ffd336" stroke="#ccc" stroke-width="0.2" opacity="0.6"></polygon></g><g fill="#333" class="backgroundLabels"><text x="65.53" y="228.62" font-size="14.30">United States</text><text x="207.60" y="254.24" font-size="12.31">Japan</text><text x="63.28" y="279.00" font-size="12.22">Mexico</text><text x="397.68" y="226.24" font-size="11.85">Germany</text><text x="117.80" y="351.75" font-size="11.78">Turkey</text><text x="517.90" y="244.02" font-size="11.66">France</text><text x="566.81" y="217.68" font-size="11.65">United Kingdom</text><text x="276.90" y="314.80" font-size="11.63">Italy</text><text x="157.12" y="238.26" font-size="11.50">South Korea</text><text x="223.48" y="237.00" font-size="11.48">Spain</text><text x="190.01" y="200.68" font-size="11.36">Canada</text><text x="499.00" y="205.00" font-size="11.24">Australia</text><text x="327.00" y="250.00" font-size="11.18">Chile</text><text x="194.60" y="212.21" font-size="11.17">Netherlands</text><text x="208.47" y="276.34" font-size="11.12">Greece</text><text x="507.57" y="260.97" font-size="11.11">Belgium</text><text x="403.54" y="241.46" font-size="11.11">Czech Republic</text><text x="472.94" y="276.77" font-size="11.10">Hungary</text><text x="633.85" y="195.79" font-size="11.10">Sweden</text><text x="461.54" y="222.46" font-size="11.08">Austria</text><text x="354.00" y="203.00" font-size="11.08">Israel</text><text x="298.47" y="188.76" font-size="11.08">Switzerland</text><text x="562.77" y="231.69" font-size="11.05">Finland</text><text x="535.00" y="190.00" font-size="11.05">Norway</text><text x="394.84" y="181.98" font-size="11.04">New Zealand</text><text x="323.11" y="222.00" font-size="11.01">Estonia</text><text x="558.61" y="245.00" font-size="11.00">Luxembourg</text><text x="631.95" y="137.32" font-size="11.00">Iceland</text></g></g><g style="cursor: pointer;" class="ScatterColorLegend clickable"><g class="legendMark"><rect x="735" y="124.1" width="35.57" height="17.6" fill="#fff" opacity="0"></rect>,<rect x="735" y="129.6" width="6" height="6" fill="#d14e5b"></rect>,<text font-size="12.60" x="746.0" y="136.7"><tspan x="746" y="136.67999999999998">Asia</tspan></text></g><g class="legendMark"><rect x="735" y="141.7" width="51.824" height="17.6" fill="#fff" opacity="0"></rect>,<rect x="735" y="147.2" width="6" height="6" fill="#ffd336"></rect>,<text font-size="12.60" x="746.0" y="154.3"><tspan x="746" y="154.27999999999997">Europe</tspan></text></g><g class="legendMark"><rect x="735" y="159.3" width="91.64" height="17.6" fill="#fff" opacity="0"></rect>,<rect x="735" y="164.8" width="6" height="6" fill="#4d824b"></rect>,<text font-size="12.60" x="746.0" y="171.9"><tspan x="746" y="171.88">North America</tspan></text></g><g class="legendMark"><rect x="735" y="176.9" width="58.124" height="17.6" fill="#fff" opacity="0"></rect>,<rect x="735" y="182.4" width="6" height="6" fill="#a652ba"></rect>,<text font-size="12.60" x="746.0" y="189.5"><tspan x="746" y="189.48">Oceania</tspan></text></g><g class="legendMark"><rect x="735" y="194.5" width="93.908" height="17.6" fill="#fff" opacity="0"></rect>,<rect x="735" y="200" width="6" height="6" fill="#69c487"></rect>,<text font-size="12.60" x="746.0" y="207.1"><tspan x="746" y="207.07999999999998">South America</tspan></text></g></g><line x1="735" y1="216.6" x2="830" y2="216.6" stroke="#ccc"></line><g class="clickable"><g class="ConnectedScatterLegend"><rect x="735" y="225.6" width="100" height="12.6" fill="#fff" opacity="0"></rect><text font-size="12.60" x="735.0" y="235.7" fill="#333"><tspan x="735" y="235.67999999999998">2000</tspan></text><text font-size="12.60" x="806.8" y="235.7" fill="#333"><tspan x="806.776" y="235.67999999999998">2015</tspan></text><line x1="768.224" y1="231.4" x2="801.776" y2="231.4" stroke="#666" stroke-width="1"></line><circle cx="768.224" cy="231.4" r="2" fill="#666" stroke="#ccc" stroke-width="0.2"></circle><circle cx="779.408" cy="231.4" r="2" fill="#666" stroke="#ccc" stroke-width="0.2"></circle><circle cx="790.592" cy="231.4" r="2" fill="#666" stroke="#ccc" stroke-width="0.2"></circle><polygon points="798.78,236.40 801.78,228.40 804.78,234.40" cx="801.776" cy="231.4" r="3" fill="#666" stroke="#ccc" stroke-width="0.2" transform="rotate(90, 801.776, 231.4)"></polygon></g></g></g><g style="fill: #777;" class="SourcesFooter"><g style="fill: #777;" class="clickable"><text font-size="12.60" x="15.0" y="581.6"><tspan x="15" y="581.58">Source: World Bank, OECD (2016)</tspan></text></g><text font-size="12.60" x="501.0" y="581.6"><tspan x="500.974" y="581.58"><a target='_blank' style='fill: #777;' href='https://ourworldindata.org/women-in-the-labor-force/'>OurWorldInData.org/women-in-the-labor-force/</a> • <a style="fill: #777;" class="cclogo" href="http://creativecommons.org/licenses/by-sa/4.0/deed.en_US" target="_blank">CC BY-SA</a></tspan></text></g></g></svg>