<svg xmlns="http://www.w3.org/2000/svg" version="1.1" style="font-family:&#x27;Helvetica Neue&#x27;, Helvetica, Arial, sans-serif;font-size:18px;background-color:white;text-rendering:optimizeLegibility;-webkit-font-smoothing:antialiased" width="850" height="600"><g class="HeaderView"><a href="https://mispytest-owid.netlify.com/grapher/firm-size-in-the-us-number-of-employees" target="_blank"><text font-size="25.20" x="15.0" y="35.2" fill="#555"><tspan x="15" y="35.160000000000004">Firm size in the US: Number of employees (1900–2006)</tspan></text></a><text font-size="14.40" x="15.0" y="53.7" fill="#666"><tspan x="15" y="53.72">Unit 7 &#x27;The firm and its customers’ in The CORE Team, The Economy. Available at: https://tinyco.re/0701711 [Figure 7.1]</tspan></text></g><g class="LineChart"><defs><clipPath id="boundsClip-516"><rect x="83.062" y="0" width="830" height="963.8"></rect></clipPath></defs><g class="AxisBoxView"><g class="HorizontalAxis"><text x="93.1" y="556.5" fill="#666" text-anchor="middle" font-size="16.2">1887</text><text x="151.3" y="556.5" fill="#666" text-anchor="middle" font-size="16.2">1900</text><text x="240.8" y="556.5" fill="#666" text-anchor="middle" font-size="16.2">1920</text><text x="330.4" y="556.5" fill="#666" text-anchor="middle" font-size="16.2">1940</text><text x="419.9" y="556.5" fill="#666" text-anchor="middle" font-size="16.2">1960</text><text x="509.4" y="556.5" fill="#666" text-anchor="middle" font-size="16.2">1980</text><text x="625.9" y="556.5" fill="#666" text-anchor="middle" font-size="16.2">2006</text></g><g class="VerticalAxis"><text x="88.06" y="535.3" fill="#666" dominant-baseline="middle" text-anchor="end" font-size="16.2">0</text><text x="88.06" y="414.1" fill="#666" dominant-baseline="middle" text-anchor="end" font-size="16.2">500,000</text><text x="88.06" y="292.8" fill="#666" dominant-baseline="middle" text-anchor="end" font-size="16.2">1 million</text><text x="88.06" y="171.6" fill="#666" dominant-baseline="middle" text-anchor="end" font-size="16.2">1.5 million</text><text x="15" y="66.6" style="font-size:12px;text-transform:uppercase;cursor:pointer" class="clickable">linear</text></g><g class="AxisGridLines"><line x1="93.06" y1="535.3" x2="625.85" y2="535.3" stroke="#ccc"></line><line x1="93.06" y1="414.1" x2="625.85" y2="414.1" stroke="#ddd" stroke-dasharray="3,2"></line><line x1="93.06" y1="292.8" x2="625.85" y2="292.8" stroke="#ddd" stroke-dasharray="3,2"></line><line x1="93.06" y1="171.6" x2="625.85" y2="171.6" stroke="#ddd" stroke-dasharray="3,2"></line></g></g><g clip-path="url(#boundsClip-516)"><g class="HeightedLegend clickable"><g class="legendMark"><g class="indicator"><line x1="630.85" y1="531.9" x2="653.35" y2="531.9" stroke="#666" stroke-width="0.5"></line><line x1="653.35" y1="531.9" x2="653.35" y2="528.55" stroke="#666" stroke-width="0.5"></line><line x1="653.35" y1="528.55" x2="655.85" y2="528.55" stroke="#666" stroke-width="0.5"></line></g><rect x="625.85" y="521.8" width="130.04000000000002" height="13.5" fill="#fff" opacity="0"></rect><text font-size="13.50" x="660.9" y="532.6" fill="#3360a9"><tspan x="660.85" y="532.5999999999999">13,900 Amazon</tspan></text></g><g class="legendMark"><g class="indicator"><line x1="630.85" y1="519.3" x2="648.35" y2="519.3" stroke="#666" stroke-width="0.5"></line><line x1="648.35" y1="519.3" x2="648.35" y2="513.05" stroke="#666" stroke-width="0.5"></line><line x1="648.35" y1="513.05" x2="655.85" y2="513.05" stroke="#666" stroke-width="0.5"></line></g><rect x="625.85" y="506.29999999999995" width="103.58" height="13.5" fill="#fff" opacity="0"></rect><text font-size="13.50" x="660.9" y="517.1" fill="#ca2628"><tspan x="660.85" y="517.0999999999999">66,100 Dell</tspan></text></g><g class="legendMark"><g class="indicator"><line x1="630.85" y1="512.5" x2="643.35" y2="512.5" stroke="#666" stroke-width="0.5"></line><line x1="643.35" y1="512.5" x2="643.35" y2="497.54999999999995" stroke="#666" stroke-width="0.5"></line><line x1="643.35" y1="497.54999999999995" x2="655.85" y2="497.54999999999995" stroke="#666" stroke-width="0.5"></line></g><rect x="625.85" y="490.79999999999995" width="106.01" height="13.5" fill="#fff" opacity="0"></rect><text font-size="13.50" x="660.9" y="501.6" fill="#34983f"><tspan x="660.85" y="501.59999999999997">94,100 Intel</tspan></text></g><g class="legendMark"><g class="indicator"><line x1="630.85" y1="501.8" x2="638.35" y2="501.8" stroke="#666" stroke-width="0.5"></line><line x1="638.35" y1="501.8" x2="638.35" y2="482.04999999999995" stroke="#666" stroke-width="0.5"></line><line x1="638.35" y1="482.04999999999995" x2="655.85" y2="482.04999999999995" stroke="#666" stroke-width="0.5"></line></g><rect x="625.85" y="475.29999999999995" width="209.15" height="13.5" fill="#fff" opacity="0"></rect><text font-size="13.50" x="660.9" y="486.1" fill="#f6a324"><tspan x="660.85" y="486.09999999999997">138,000 Proctor and Gamble</tspan></text></g><g class="legendMark"><g class="indicator"><line x1="630.85" y1="467.4" x2="653.35" y2="467.4" stroke="#666" stroke-width="0.5"></line><line x1="653.35" y1="467.4" x2="653.35" y2="467.4" stroke="#666" stroke-width="0.5"></line><line x1="653.35" y1="467.4" x2="655.85" y2="467.4" stroke="#666" stroke-width="0.5"></line></g><rect x="625.85" y="460.65" width="127.07000000000001" height="13.5" fill="#fff" opacity="0"></rect><text font-size="13.50" x="660.9" y="471.4" fill="#a652ba"><tspan x="660.85" y="471.45">280,000 FedEx</tspan></text></g><g class="legendMark"><g class="indicator"><line x1="630.85" y1="466.7" x2="643.35" y2="466.7" stroke="#666" stroke-width="0.5"></line><line x1="643.35" y1="466.7" x2="643.35" y2="451.9" stroke="#666" stroke-width="0.5"></line><line x1="643.35" y1="451.9" x2="655.85" y2="451.9" stroke="#666" stroke-width="0.5"></line></g><rect x="625.85" y="445.15" width="115.73" height="13.5" fill="#fff" opacity="0"></rect><text font-size="13.50" x="660.9" y="455.9" fill="#2a939b"><tspan x="660.85" y="455.95">283,000 Ford</tspan></text></g><g class="legendMark"><g class="indicator"><line x1="630.85" y1="422.5" x2="643.35" y2="422.5" stroke="#666" stroke-width="0.5"></line><line x1="643.35" y1="422.5" x2="643.35" y2="422.5" stroke="#666" stroke-width="0.5"></line><line x1="643.35" y1="422.5" x2="655.85" y2="422.5" stroke="#666" stroke-width="0.5"></line></g><rect x="625.85" y="415.75" width="158.12" height="13.5" fill="#fff" opacity="0"></rect><text font-size="13.50" x="660.9" y="426.6" fill="#e6332e"><tspan x="660.85" y="426.55">465,000 McDonald&#x27;s</tspan></text></g><g class="legendMark"><g class="indicator"><line x1="630.85" y1="74.6" x2="643.35" y2="74.6" stroke="#666" stroke-width="0.5"></line><line x1="643.35" y1="74.6" x2="643.35" y2="74.6" stroke="#666" stroke-width="0.5"></line><line x1="643.35" y1="74.6" x2="655.85" y2="74.6" stroke="#666" stroke-width="0.5"></line></g><rect x="625.85" y="67.85" width="149.885" height="13.5" fill="#fff" opacity="0"></rect><text font-size="13.50" x="660.9" y="78.6" fill="#9ecc8a"><tspan x="660.85" y="78.64999999999999">1.9 million Walmart</tspan></text></g></g><g class="Lines"><rect x="93" y="75" width="533" height="461" fill="rgba(255,255,255,0)" opacity="0"></rect><g class="key-Amazon_0"><path stroke="#3360a9" stroke-linecap="round" d="M581 535L586 535L590 535L595 534L599 533L604 533L608 534L612 533L617 533L621 532L626 532" fill="none" stroke-width="1.5"></path><g fill="#3360a9"><circle cx="581" cy="535" r="2"></circle><circle cx="586" cy="535" r="2"></circle><circle cx="590" cy="535" r="2"></circle><circle cx="595" cy="534" r="2"></circle><circle cx="599" cy="533" r="2"></circle><circle cx="604" cy="533" r="2"></circle><circle cx="608" cy="534" r="2"></circle><circle cx="612" cy="533" r="2"></circle><circle cx="617" cy="533" r="2"></circle><circle cx="621" cy="532" r="2"></circle><circle cx="626" cy="532" r="2"></circle></g></g><g class="key-Dell_0"><path stroke="#ca2628" stroke-linecap="round" d="M541 535L545 535L550 535L554 535L559 535L563 534L568 534L572 534L577 533L581 533L586 531L590 529L595 526L599 526L604 527L608 526L612 524L617 522L621 519" fill="none" stroke-width="1.5"></path><g fill="#ca2628"><circle cx="541" cy="535" r="2"></circle><circle cx="545" cy="535" r="2"></circle><circle cx="550" cy="535" r="2"></circle><circle cx="554" cy="535" r="2"></circle><circle cx="559" cy="535" r="2"></circle><circle cx="563" cy="534" r="2"></circle><circle cx="568" cy="534" r="2"></circle><circle cx="572" cy="534" r="2"></circle><circle cx="577" cy="533" r="2"></circle><circle cx="581" cy="533" r="2"></circle><circle cx="586" cy="531" r="2"></circle><circle cx="590" cy="529" r="2"></circle><circle cx="595" cy="526" r="2"></circle><circle cx="599" cy="526" r="2"></circle><circle cx="604" cy="527" r="2"></circle><circle cx="608" cy="526" r="2"></circle><circle cx="612" cy="524" r="2"></circle><circle cx="617" cy="522" r="2"></circle><circle cx="621" cy="519" r="2"></circle></g></g><g class="key-FedEx_0"><path stroke="#a652ba" stroke-linecap="round" d="M469 535L496 534L501 534L505 533L509 533L514 532L518 531L523 529L527 528L532 527L536 524L541 521L545 516L550 514L554 513L559 512L563 512L568 511L572 509L577 508L581 505L586 494L590 492L595 499L599 492L604 491L608 484L612 477L617 481L621 472L626 467" fill="none" stroke-width="1.5"></path><g fill="#a652ba"><circle cx="469" cy="535" r="2"></circle><circle cx="496" cy="534" r="2"></circle><circle cx="501" cy="534" r="2"></circle><circle cx="505" cy="533" r="2"></circle><circle cx="509" cy="533" r="2"></circle><circle cx="514" cy="532" r="2"></circle><circle cx="518" cy="531" r="2"></circle><circle cx="523" cy="529" r="2"></circle><circle cx="527" cy="528" r="2"></circle><circle cx="532" cy="527" r="2"></circle><circle cx="536" cy="524" r="2"></circle><circle cx="541" cy="521" r="2"></circle><circle cx="545" cy="516" r="2"></circle><circle cx="550" cy="514" r="2"></circle><circle cx="554" cy="513" r="2"></circle><circle cx="559" cy="512" r="2"></circle><circle cx="563" cy="512" r="2"></circle><circle cx="568" cy="511" r="2"></circle><circle cx="572" cy="509" r="2"></circle><circle cx="577" cy="508" r="2"></circle><circle cx="581" cy="505" r="2"></circle><circle cx="586" cy="494" r="2"></circle><circle cx="590" cy="492" r="2"></circle><circle cx="595" cy="499" r="2"></circle><circle cx="599" cy="492" r="2"></circle><circle cx="604" cy="491" r="2"></circle><circle cx="608" cy="484" r="2"></circle><circle cx="612" cy="477" r="2"></circle><circle cx="617" cy="481" r="2"></circle><circle cx="621" cy="472" r="2"></circle><circle cx="626" cy="467" r="2"></circle></g></g><g class="key-Ford_0"><path stroke="#2a939b" stroke-linecap="round" d="M187 535L210 532L214 532L218 531L277 493L317 506L321 505L326 507L344 489L348 500L353 508L357 506L362 503L366 501L384 487L389 474L393 474L398 470L402 471L407 468L411 480L415 474L420 471L424 472L429 462L433 459L438 454L442 447L447 441L451 440L456 435L460 430L465 431L469 430L474 428L478 420L483 423L487 434L492 428L496 419L501 413L505 415L509 432L514 437L518 443L523 443L527 442L532 446L536 443L541 450L545 448L550 446L554 446L559 455L563 456L568 457L572 453L577 451L581 445L586 447L590 452L595 447L599 451L604 449L608 450L612 456L617 457L621 463L626 467" fill="none" stroke-width="1.5"></path><g fill="#2a939b"><circle cx="187" cy="535" r="2"></circle><circle cx="210" cy="532" r="2"></circle><circle cx="214" cy="532" r="2"></circle><circle cx="218" cy="531" r="2"></circle><circle cx="277" cy="493" r="2"></circle><circle cx="317" cy="506" r="2"></circle><circle cx="321" cy="505" r="2"></circle><circle cx="326" cy="507" r="2"></circle><circle cx="344" cy="489" r="2"></circle><circle cx="348" cy="500" r="2"></circle><circle cx="353" cy="508" r="2"></circle><circle cx="357" cy="506" r="2"></circle><circle cx="362" cy="503" r="2"></circle><circle cx="366" cy="501" r="2"></circle><circle cx="384" cy="487" r="2"></circle><circle cx="389" cy="474" r="2"></circle><circle cx="393" cy="474" r="2"></circle><circle cx="398" cy="470" r="2"></circle><circle cx="402" cy="471" r="2"></circle><circle cx="407" cy="468" r="2"></circle><circle cx="411" cy="480" r="2"></circle><circle cx="415" cy="474" r="2"></circle><circle cx="420" cy="471" r="2"></circle><circle cx="424" cy="472" r="2"></circle><circle cx="429" cy="462" r="2"></circle><circle cx="433" cy="459" r="2"></circle><circle cx="438" cy="454" r="2"></circle><circle cx="442" cy="447" r="2"></circle><circle cx="447" cy="441" r="2"></circle><circle cx="451" cy="440" r="2"></circle><circle cx="456" cy="435" r="2"></circle><circle cx="460" cy="430" r="2"></circle><circle cx="465" cy="431" r="2"></circle><circle cx="469" cy="430" r="2"></circle><circle cx="474" cy="428" r="2"></circle><circle cx="478" cy="420" r="2"></circle><circle cx="483" cy="423" r="2"></circle><circle cx="487" cy="434" r="2"></circle><circle cx="492" cy="428" r="2"></circle><circle cx="496" cy="419" r="2"></circle><circle cx="501" cy="413" r="2"></circle><circle cx="505" cy="415" r="2"></circle><circle cx="509" cy="432" r="2"></circle><circle cx="514" cy="437" r="2"></circle><circle cx="518" cy="443" r="2"></circle><circle cx="523" cy="443" r="2"></circle><circle cx="527" cy="442" r="2"></circle><circle cx="532" cy="446" r="2"></circle><circle cx="536" cy="443" r="2"></circle><circle cx="541" cy="450" r="2"></circle><circle cx="545" cy="448" r="2"></circle><circle cx="550" cy="446" r="2"></circle><circle cx="554" cy="446" r="2"></circle><circle cx="559" cy="455" r="2"></circle><circle cx="563" cy="456" r="2"></circle><circle cx="568" cy="457" r="2"></circle><circle cx="572" cy="453" r="2"></circle><circle cx="577" cy="451" r="2"></circle><circle cx="581" cy="445" r="2"></circle><circle cx="586" cy="447" r="2"></circle><circle cx="590" cy="452" r="2"></circle><circle cx="595" cy="447" r="2"></circle><circle cx="599" cy="451" r="2"></circle><circle cx="604" cy="449" r="2"></circle><circle cx="608" cy="450" r="2"></circle><circle cx="612" cy="456" r="2"></circle><circle cx="617" cy="457" r="2"></circle><circle cx="621" cy="463" r="2"></circle><circle cx="626" cy="467" r="2"></circle></g></g><g class="key-Intel_0"><path stroke="#34983f" stroke-linecap="round" d="M469 535L474 535L478 535L483 535L487 534L492 534L496 533L501 533L505 532L509 532L514 531L518 531L523 530L527 529L532 530L536 531L541 531L545 530L550 530L554 530L559 529L563 529L568 528L572 527L577 525L581 524L586 520L590 520L595 518L599 514L604 515L608 516L612 516L617 515L621 511L626 513" fill="none" stroke-width="1.5"></path><g fill="#34983f"><circle cx="469" cy="535" r="2"></circle><circle cx="474" cy="535" r="2"></circle><circle cx="478" cy="535" r="2"></circle><circle cx="483" cy="535" r="2"></circle><circle cx="487" cy="534" r="2"></circle><circle cx="492" cy="534" r="2"></circle><circle cx="496" cy="533" r="2"></circle><circle cx="501" cy="533" r="2"></circle><circle cx="505" cy="532" r="2"></circle><circle cx="509" cy="532" r="2"></circle><circle cx="514" cy="531" r="2"></circle><circle cx="518" cy="531" r="2"></circle><circle cx="523" cy="530" r="2"></circle><circle cx="527" cy="529" r="2"></circle><circle cx="532" cy="530" r="2"></circle><circle cx="536" cy="531" r="2"></circle><circle cx="541" cy="531" r="2"></circle><circle cx="545" cy="530" r="2"></circle><circle cx="550" cy="530" r="2"></circle><circle cx="554" cy="530" r="2"></circle><circle cx="559" cy="529" r="2"></circle><circle cx="563" cy="529" r="2"></circle><circle cx="568" cy="528" r="2"></circle><circle cx="572" cy="527" r="2"></circle><circle cx="577" cy="525" r="2"></circle><circle cx="581" cy="524" r="2"></circle><circle cx="586" cy="520" r="2"></circle><circle cx="590" cy="520" r="2"></circle><circle cx="595" cy="518" r="2"></circle><circle cx="599" cy="514" r="2"></circle><circle cx="604" cy="515" r="2"></circle><circle cx="608" cy="516" r="2"></circle><circle cx="612" cy="516" r="2"></circle><circle cx="617" cy="515" r="2"></circle><circle cx="621" cy="511" r="2"></circle><circle cx="626" cy="513" r="2"></circle></g></g><g class="key-McDonald__0027s_0"><path stroke="#e6332e" stroke-linecap="round" d="M442 535L465 531L469 530L474 528L478 523L483 522L487 518L492 516L496 514L501 512L505 509L509 507L514 502L518 505L523 505L527 502L532 499L536 497L541 497L545 494L550 493L554 492L559 495L563 495L568 495L572 491L577 484L581 478L586 471L590 466L595 459L599 447L604 440L608 435L612 434L617 429L621 427L626 423" fill="none" stroke-width="1.5"></path><g fill="#e6332e"><circle cx="442" cy="535" r="2"></circle><circle cx="465" cy="531" r="2"></circle><circle cx="469" cy="530" r="2"></circle><circle cx="474" cy="528" r="2"></circle><circle cx="478" cy="523" r="2"></circle><circle cx="483" cy="522" r="2"></circle><circle cx="487" cy="518" r="2"></circle><circle cx="492" cy="516" r="2"></circle><circle cx="496" cy="514" r="2"></circle><circle cx="501" cy="512" r="2"></circle><circle cx="505" cy="509" r="2"></circle><circle cx="509" cy="507" r="2"></circle><circle cx="514" cy="502" r="2"></circle><circle cx="518" cy="505" r="2"></circle><circle cx="523" cy="505" r="2"></circle><circle cx="527" cy="502" r="2"></circle><circle cx="532" cy="499" r="2"></circle><circle cx="536" cy="497" r="2"></circle><circle cx="541" cy="497" r="2"></circle><circle cx="545" cy="494" r="2"></circle><circle cx="550" cy="493" r="2"></circle><circle cx="554" cy="492" r="2"></circle><circle cx="559" cy="495" r="2"></circle><circle cx="563" cy="495" r="2"></circle><circle cx="568" cy="495" r="2"></circle><circle cx="572" cy="491" r="2"></circle><circle cx="577" cy="484" r="2"></circle><circle cx="581" cy="478" r="2"></circle><circle cx="586" cy="471" r="2"></circle><circle cx="590" cy="466" r="2"></circle><circle cx="595" cy="459" r="2"></circle><circle cx="599" cy="447" r="2"></circle><circle cx="604" cy="440" r="2"></circle><circle cx="608" cy="435" r="2"></circle><circle cx="612" cy="434" r="2"></circle><circle cx="617" cy="429" r="2"></circle><circle cx="621" cy="427" r="2"></circle><circle cx="626" cy="423" r="2"></circle></g></g><g class="key-Proctor-and-Gamble_0"><path stroke="#f6a324" stroke-linecap="round" d="M93 535L277 533L286 533L290 533L299 533L308 533L312 533L317 533L321 532L326 532L330 532L339 532L366 532L380 530L384 528L389 528L393 529L398 529L402 528L407 528L411 528L415 528L420 528L424 527L429 527L433 528L438 527L442 527L447 526L451 525L456 525L460 525L465 525L469 525L474 524L478 524L483 523L487 523L492 523L496 522L501 522L505 521L509 521L514 521L518 520L523 520L527 520L532 520L536 517L541 518L545 517L550 516L554 514L559 513L563 510L568 510L572 512L577 511L581 510L586 510L590 509L595 509L599 509L604 510L608 511L612 512L617 509L621 509L626 502" fill="none" stroke-width="1.5"></path><g fill="#f6a324"><circle cx="93" cy="535" r="2"></circle><circle cx="277" cy="533" r="2"></circle><circle cx="286" cy="533" r="2"></circle><circle cx="290" cy="533" r="2"></circle><circle cx="299" cy="533" r="2"></circle><circle cx="308" cy="533" r="2"></circle><circle cx="312" cy="533" r="2"></circle><circle cx="317" cy="533" r="2"></circle><circle cx="321" cy="532" r="2"></circle><circle cx="326" cy="532" r="2"></circle><circle cx="330" cy="532" r="2"></circle><circle cx="339" cy="532" r="2"></circle><circle cx="366" cy="532" r="2"></circle><circle cx="380" cy="530" r="2"></circle><circle cx="384" cy="528" r="2"></circle><circle cx="389" cy="528" r="2"></circle><circle cx="393" cy="529" r="2"></circle><circle cx="398" cy="529" r="2"></circle><circle cx="402" cy="528" r="2"></circle><circle cx="407" cy="528" r="2"></circle><circle cx="411" cy="528" r="2"></circle><circle cx="415" cy="528" r="2"></circle><circle cx="420" cy="528" r="2"></circle><circle cx="424" cy="527" r="2"></circle><circle cx="429" cy="527" r="2"></circle><circle cx="433" cy="528" r="2"></circle><circle cx="438" cy="527" r="2"></circle><circle cx="442" cy="527" r="2"></circle><circle cx="447" cy="526" r="2"></circle><circle cx="451" cy="525" r="2"></circle><circle cx="456" cy="525" r="2"></circle><circle cx="460" cy="525" r="2"></circle><circle cx="465" cy="525" r="2"></circle><circle cx="469" cy="525" r="2"></circle><circle cx="474" cy="524" r="2"></circle><circle cx="478" cy="524" r="2"></circle><circle cx="483" cy="523" r="2"></circle><circle cx="487" cy="523" r="2"></circle><circle cx="492" cy="523" r="2"></circle><circle cx="496" cy="522" r="2"></circle><circle cx="501" cy="522" r="2"></circle><circle cx="505" cy="521" r="2"></circle><circle cx="509" cy="521" r="2"></circle><circle cx="514" cy="521" r="2"></circle><circle cx="518" cy="520" r="2"></circle><circle cx="523" cy="520" r="2"></circle><circle cx="527" cy="520" r="2"></circle><circle cx="532" cy="520" r="2"></circle><circle cx="536" cy="517" r="2"></circle><circle cx="541" cy="518" r="2"></circle><circle cx="545" cy="517" r="2"></circle><circle cx="550" cy="516" r="2"></circle><circle cx="554" cy="514" r="2"></circle><circle cx="559" cy="513" r="2"></circle><circle cx="563" cy="510" r="2"></circle><circle cx="568" cy="510" r="2"></circle><circle cx="572" cy="512" r="2"></circle><circle cx="577" cy="511" r="2"></circle><circle cx="581" cy="510" r="2"></circle><circle cx="586" cy="510" r="2"></circle><circle cx="590" cy="509" r="2"></circle><circle cx="595" cy="509" r="2"></circle><circle cx="599" cy="509" r="2"></circle><circle cx="604" cy="510" r="2"></circle><circle cx="608" cy="511" r="2"></circle><circle cx="612" cy="512" r="2"></circle><circle cx="617" cy="509" r="2"></circle><circle cx="621" cy="509" r="2"></circle><circle cx="626" cy="502" r="2"></circle></g></g><g class="key-Walmart_0"><path stroke="#9ecc8a" stroke-linecap="round" d="M465 535L469 535L474 534L478 534L483 534L487 534L492 533L496 532L501 531L505 530L509 529L514 525L518 524L523 520L527 516L532 510L536 501L541 491L545 481L550 470L554 456L559 445L563 430L568 407L572 385L577 372L581 359L586 335L590 315L595 259L599 234L604 200L608 196L612 172L617 123L621 99L626 75" fill="none" stroke-width="1.5"></path><g fill="#9ecc8a"><circle cx="465" cy="535" r="2"></circle><circle cx="469" cy="535" r="2"></circle><circle cx="474" cy="534" r="2"></circle><circle cx="478" cy="534" r="2"></circle><circle cx="483" cy="534" r="2"></circle><circle cx="487" cy="534" r="2"></circle><circle cx="492" cy="533" r="2"></circle><circle cx="496" cy="532" r="2"></circle><circle cx="501" cy="531" r="2"></circle><circle cx="505" cy="530" r="2"></circle><circle cx="509" cy="529" r="2"></circle><circle cx="514" cy="525" r="2"></circle><circle cx="518" cy="524" r="2"></circle><circle cx="523" cy="520" r="2"></circle><circle cx="527" cy="516" r="2"></circle><circle cx="532" cy="510" r="2"></circle><circle cx="536" cy="501" r="2"></circle><circle cx="541" cy="491" r="2"></circle><circle cx="545" cy="481" r="2"></circle><circle cx="550" cy="470" r="2"></circle><circle cx="554" cy="456" r="2"></circle><circle cx="559" cy="445" r="2"></circle><circle cx="563" cy="430" r="2"></circle><circle cx="568" cy="407" r="2"></circle><circle cx="572" cy="385" r="2"></circle><circle cx="577" cy="372" r="2"></circle><circle cx="581" cy="359" r="2"></circle><circle cx="586" cy="335" r="2"></circle><circle cx="590" cy="315" r="2"></circle><circle cx="595" cy="259" r="2"></circle><circle cx="599" cy="234" r="2"></circle><circle cx="604" cy="200" r="2"></circle><circle cx="608" cy="196" r="2"></circle><circle cx="612" cy="172" r="2"></circle><circle cx="617" cy="123" r="2"></circle><circle cx="621" cy="99" r="2"></circle><circle cx="626" cy="75" r="2"></circle></g></g></g></g></g><g class="SourcesFooter" style="fill:#777"><g class="clickable" style="fill:#777"><text font-size="12.60" x="15.0" y="581.6"><tspan x="15" y="581.58">Source: Luttmer (2011)</tspan></text></g><text font-size="12.60" x="660.0" y="581.6"><tspan x="659.986" y="581.58"><a href="https://ourworldindata.org" target="_blank">Powered by ourworldindata.org</a></tspan></text></g></svg>