<svg xmlns="http://www.w3.org/2000/svg" version="1.1" style="font-family: 'Helvetica Neue', Helvetica, Arial, sans-serif; font-size: 18px; background-color: white; text-rendering: optimizeLegibility; -webkit-font-smoothing: antialiased;" width="850" height="600"><g class="ChartTab"><g class="HeaderView"><g opacity="0.8" transform="translate(778, 15) scale(0.27)"><a xmlns:xlink="http://www.w3.org/1999/xlink" xlink:href="https://ourworldindata.org" target="_blank"><g><rect x="0" y="0" fill="#1B2543" width="211.2" height="130.1"/><rect x="0" y="112.2" fill="#E63912" width="211.2" height="17.9"/><g><rect x="1.2" y="12.3" fill="none" width="210.2" height="99.2"/><path fill="#FFFFFF" d="M37.8,32.2c0,12.7-7.7,19.4-17.1,19.4c-9.7,0-16.6-7.5-16.6-18.7c0-11.7,7.3-19.3,17.1-19.3 C31.3,13.7,37.8,21.3,37.8,32.2z M9.2,32.8c0,7.9,4.3,14.9,11.8,14.9c7.5,0,11.8-6.9,11.8-15.3c0-7.3-3.8-14.9-11.8-14.9 C13.1,17.5,9.2,24.8,9.2,32.8z"/><path fill="#FFFFFF" d="M62.7,43.8c0,2.7,0.1,5.1,0.2,7.2h-4.3l-0.3-4.3h-0.1c-1.3,2.1-4,4.9-8.8,4.9c-4.2,0-9.1-2.3-9.1-11.6 V24.6h4.8v14.6c0,5,1.5,8.4,5.9,8.4c3.2,0,5.5-2.2,6.3-4.4c0.3-0.7,0.4-1.6,0.4-2.5V24.6h4.8V43.8z"/><path fill="#FFFFFF" d="M67.3,32.8c0-3.1-0.1-5.8-0.2-8.2h4.2l0.2,5.2h0.2c1.2-3.5,4.1-5.8,7.3-5.8c0.5,0,0.9,0.1,1.4,0.2v4.5 c-0.5-0.1-1-0.2-1.6-0.2c-3.4,0-5.8,2.6-6.5,6.2c-0.1,0.7-0.2,1.4-0.2,2.2V51h-4.8V32.8z"/><path fill="#FFFFFF" d="M95.4,51l-9.4-36.8h5l4.4,18.6c1.1,4.6,2.1,9.2,2.7,12.7h0.1c0.6-3.7,1.8-8,3-12.8l4.9-18.5h5l4.5,18.7 c1,4.4,2,8.7,2.6,12.6h0.1c0.8-4,1.8-8.1,3-12.7l4.9-18.5h4.9L120.6,51h-5L111,31.9c-1.1-4.7-1.9-8.3-2.4-12h-0.1 c-0.7,3.7-1.5,7.3-2.8,12L100.4,51H95.4z"/><path fill="#FFFFFF" d="M154.9,37.6c0,9.8-6.8,14-13.2,14c-7.2,0-12.7-5.2-12.7-13.6c0-8.8,5.8-14,13.1-14 C149.8,24,154.9,29.5,154.9,37.6z M133.9,37.9c0,5.8,3.3,10.1,8,10.1c4.6,0,8-4.3,8-10.3c0-4.5-2.2-10.1-7.9-10.1 C136.3,27.6,133.9,32.8,133.9,37.9z"/><path fill="#FFFFFF" d="M158.2,32.8c0-3.1-0.1-5.8-0.2-8.2h4.2l0.2,5.2h0.2c1.2-3.5,4.1-5.8,7.3-5.8c0.5,0,0.9,0.1,1.4,0.2v4.5 c-0.5-0.1-1-0.2-1.6-0.2c-3.4,0-5.8,2.6-6.5,6.2c-0.1,0.7-0.2,1.4-0.2,2.2V51h-4.8V32.8z"/><path fill="#FFFFFF" d="M173.5,12.3h4.8V51h-4.8V12.3z"/><path fill="#FFFFFF" d="M206.5,12.3v31.9c0,2.3,0.1,5,0.2,6.8h-4.3l-0.2-4.6H202c-1.5,2.9-4.7,5.2-9,5.2 c-6.4,0-11.3-5.4-11.3-13.4c-0.1-8.8,5.4-14.2,11.9-14.2c4,0,6.8,1.9,8,4h0.1V12.3H206.5z M201.7,35.4c0-0.6-0.1-1.4-0.2-2 c-0.7-3.1-3.3-5.6-6.9-5.6c-5,0-7.9,4.4-7.9,10.2c0,5.3,2.6,9.8,7.8,9.8c3.2,0,6.2-2.1,7.1-5.7c0.2-0.7,0.2-1.3,0.2-2.1V35.4z"/><path fill="#FFFFFF" d="M42.8,64c0.1,1.6-1.1,2.9-3.1,2.9c-1.7,0-2.9-1.3-2.9-2.9c0-1.7,1.3-3,3-3C41.7,61,42.8,62.3,42.8,64z M37.4,97.8V71.4h4.8v26.4H37.4z"/><path fill="#FFFFFF" d="M47.5,78.6c0-2.7-0.1-5-0.2-7.1h4.3l0.3,4.4h0.1c1.3-2.5,4.4-5,8.8-5c3.7,0,9.4,2.2,9.4,11.2v15.8h-4.8 V82.6c0-4.3-1.6-7.8-6.1-7.8c-3.2,0-5.6,2.2-6.5,4.9c-0.2,0.6-0.3,1.4-0.3,2.2v15.9h-4.8V78.6z"/><path fill="#FFFFFF" d="M84,61.6c2.9-0.4,6.3-0.8,10.1-0.8c6.8,0,11.7,1.6,14.9,4.6c3.3,3,5.2,7.3,5.2,13.2c0,6-1.9,10.9-5.3,14.3 c-3.4,3.4-9.1,5.3-16.3,5.3c-3.4,0-6.2-0.2-8.6-0.4V61.6z M88.8,94.1c1.2,0.2,3,0.3,4.8,0.3c10.2,0,15.7-5.7,15.7-15.6 c0.1-8.7-4.9-14.2-14.9-14.2c-2.5,0-4.3,0.2-5.6,0.5V94.1z"/><path fill="#FFFFFF" d="M132.1,97.8l-0.4-3.3h-0.2c-1.5,2.1-4.3,3.9-8.1,3.9c-5.4,0-8.1-3.8-8.1-7.6c0-6.4,5.7-9.9,15.9-9.8v-0.5 c0-2.2-0.6-6.1-6-6.1c-2.5,0-5,0.8-6.9,2l-1.1-3.2c2.2-1.4,5.4-2.3,8.7-2.3c8.1,0,10.1,5.5,10.1,10.8v9.9c0,2.3,0.1,4.5,0.4,6.3 H132.1z M131.4,84.4c-5.3-0.1-11.2,0.8-11.2,5.9c0,3.1,2.1,4.6,4.5,4.6c3.4,0,5.6-2.2,6.4-4.4c0.2-0.5,0.3-1,0.3-1.5V84.4z"/><path fill="#FFFFFF" d="M146.6,63.9v7.6h6.9v3.7h-6.9v14.2c0,3.3,0.9,5.1,3.6,5.1c1.3,0,2.2-0.2,2.8-0.3l0.2,3.6 c-0.9,0.4-2.4,0.7-4.3,0.7c-2.2,0-4-0.7-5.2-2c-1.4-1.4-1.9-3.8-1.9-6.9V75.1h-4.1v-3.7h4.1v-6.3L146.6,63.9z"/><path fill="#FFFFFF" d="M171.4,97.8l-0.4-3.3h-0.2c-1.5,2.1-4.3,3.9-8.1,3.9c-5.4,0-8.1-3.8-8.1-7.6c0-6.4,5.7-9.9,15.9-9.8v-0.5 c0-2.2-0.6-6.1-6-6.1c-2.5,0-5,0.8-6.9,2l-1.1-3.2c2.2-1.4,5.4-2.3,8.7-2.3c8.1,0,10.1,5.5,10.1,10.8v9.9c0,2.3,0.1,4.5,0.4,6.3 H171.4z M170.7,84.4c-5.3-0.1-11.2,0.8-11.2,5.9c0,3.1,2.1,4.6,4.5,4.6c3.4,0,5.6-2.2,6.4-4.4c0.2-0.5,0.3-1,0.3-1.5V84.4z"/></g></g></a></g><a href="https://ourworldindata.org/grapher/fixed-landline-telephone-subscriptions-vs-gdp-per-capita" target="_blank"><text font-size="22.50" x="15.0" y="33.0" fill="#555"><tspan x="15" y="33">Fixed (landline) telephone subscriptions vs. GDP per capita, 2015</tspan></text></a><text font-size="14.40" x="15.0" y="51.0" fill="#666"><tspan x="15" y="51.019999999999996">The number of fixed (landline) telephone subscriptions, measured per 100 people versus gross domestic product</tspan><tspan x="15" y="66.86">(GDP) per capita, measured in 2011 international-$.</tspan></text></g><g><g class="AxisBoxView"><g class="HorizontalAxis"><text font-size="12.60" x="218.3" y="554.0"><tspan x="218.336" y="553.98">GDP per capita, PPP (constant 2011 international $)</tspan></text><text x="119.9" y="533.9" fill="#666" text-anchor="middle" font-size="16.2">$1,000</text><text x="406.2" y="533.9" fill="#666" text-anchor="middle" font-size="16.2">$10,000</text><text x="692.6" y="533.9" fill="#666" text-anchor="middle" font-size="16.2">$100,000</text></g><g class="VerticalAxis"><text font-size="12.60" x="-454.8" y="25.1" transform="rotate(-90)"><tspan x="-454.8090000000001" y="25.080000000000002">Fixed telephone subscriptions (per 100 people)</tspan></text><text x="55.74" y="512.7" fill="#666" dominant-baseline="middle" text-anchor="end" font-size="16.2">0</text><text x="55.74" y="442.6" fill="#666" dominant-baseline="middle" text-anchor="end" font-size="16.2">10</text><text x="55.74" y="372.5" fill="#666" dominant-baseline="middle" text-anchor="end" font-size="16.2">20</text><text x="55.74" y="302.4" fill="#666" dominant-baseline="middle" text-anchor="end" font-size="16.2">30</text><text x="55.74" y="232.3" fill="#666" dominant-baseline="middle" text-anchor="end" font-size="16.2">40</text><text x="55.74" y="162.3" fill="#666" dominant-baseline="middle" text-anchor="end" font-size="16.2">50</text><text x="55.74" y="92.2" fill="#666" dominant-baseline="middle" text-anchor="end" font-size="16.2">60</text></g><g class="AxisGridLines"><line x1="60.74" y1="512.7" x2="715.00" y2="512.7" stroke="#ccc"></line><line x1="60.74" y1="442.6" x2="715.00" y2="442.6" stroke="#ddd" stroke-dasharray="3,2"></line><line x1="60.74" y1="372.5" x2="715.00" y2="372.5" stroke="#ddd" stroke-dasharray="3,2"></line><line x1="60.74" y1="302.4" x2="715.00" y2="302.4" stroke="#ddd" stroke-dasharray="3,2"></line><line x1="60.74" y1="232.3" x2="715.00" y2="232.3" stroke="#ddd" stroke-dasharray="3,2"></line><line x1="60.74" y1="162.3" x2="715.00" y2="162.3" stroke="#ddd" stroke-dasharray="3,2"></line><line x1="60.74" y1="92.2" x2="715.00" y2="92.2" stroke="#ddd" stroke-dasharray="3,2"></line></g><g class="AxisGridLines"><line x1="119.9" y1="512.70" x2="119.9" y2="89.40" stroke="#ddd" stroke-dasharray="3,2"></line><line x1="406.2" y1="512.70" x2="406.2" y2="89.40" stroke="#ddd" stroke-dasharray="3,2"></line><line x1="692.6" y1="512.70" x2="692.6" y2="89.40" stroke="#ddd" stroke-dasharray="3,2"></line></g></g><g clip-path="url(#scatterBounds-329)" font-family="Arial Narrow, Arial, sans-serif" class="PointsWithLabels clickable"><rect x="60.744" y="89.4" width="654.256" height="423.3" fill="rgba(255,255,255,0)"></rect><defs><clipPath id="scatterBounds-329"><rect x="50.744" y="79.4" width="674.256" height="443.3"></rect></clipPath></defs><g class="key-China_0"><circle cx="444.00" cy="396.00" r="17.84" fill="#d14e5b" opacity="0.8" stroke="#333" stroke-width="0.7"></circle></g><g class="key-India_0"><circle cx="337.00" cy="499.00" r="17.29" fill="#d14e5b" opacity="0.8" stroke="#333" stroke-width="0.7"></circle></g><g class="key-United-States_0"><circle cx="613.00" cy="239.00" r="8.78" fill="#4d824b" opacity="0.8" stroke="#333" stroke-width="0.7"></circle></g><g class="key-Indonesia_0"><circle cx="410.00" cy="484.00" r="7.78" fill="#d14e5b" opacity="0.8" stroke="#333" stroke-width="0.7"></circle></g><g class="key-Brazil_0"><circle cx="454.00" cy="364.00" r="7.04" fill="#69c487" opacity="0.8" stroke="#333" stroke-width="0.7"></circle></g><g class="key-Pakistan_0"><circle cx="312.00" cy="499.00" r="6.76" fill="#d14e5b" opacity="0.8" stroke="#fff" stroke-width="0.7"></circle></g><g class="key-Nigeria_0"><circle cx="335.00" cy="512.00" r="6.54" fill="#5675c1" opacity="0.8" stroke="#333" stroke-width="0.7"></circle></g><g class="key-Bangladesh_0"><circle cx="261.00" cy="508.00" r="6.24" fill="#d14e5b" opacity="0.8" stroke="#333" stroke-width="0.7"></circle></g><g class="key-Russia_0"><circle cx="515.00" cy="337.00" r="6.02" fill="#ffd336" opacity="0.8" stroke="#333" stroke-width="0.7"></circle></g><g class="key-Japan_0"><circle cx="571.00" cy="163.00" r="5.70" fill="#d14e5b" opacity="0.8" stroke="#333" stroke-width="0.7"></circle></g><g class="key-Mexico_0"><circle cx="471.00" cy="400.00" r="5.51" fill="#4d824b" opacity="0.8" stroke="#333" stroke-width="0.7"></circle></g><g class="key-Philippines_0"><circle cx="359.00" cy="490.00" r="5.09" fill="#d14e5b" opacity="0.8" stroke="#fff" stroke-width="0.7"></circle></g><g class="key-Vietnam_0"><circle cx="333.00" cy="457.00" r="4.92" fill="#d14e5b" opacity="0.8" stroke="#333" stroke-width="0.7"></circle></g><g class="key-Ethiopia_0"><circle cx="173.00" cy="506.00" r="4.86" fill="#5675c1" opacity="0.8" stroke="#333" stroke-width="0.7"></circle></g><g class="key-Egypt_0"><circle cx="407.00" cy="466.00" r="4.79" fill="#5675c1" opacity="0.8" stroke="#333" stroke-width="0.7"></circle></g><g class="key-Germany_0"><circle cx="590.00" cy="123.00" r="4.71" fill="#ffd336" opacity="0.8" stroke="#333" stroke-width="0.7"></circle></g><g class="key-Iran_0"><circle cx="468.00" cy="244.00" r="4.57" fill="#d14e5b" opacity="0.8" stroke="#333" stroke-width="0.7"></circle></g><g class="key-Turkey_0"><circle cx="511.00" cy="409.00" r="4.54" fill="#d14e5b" opacity="0.8" stroke="#333" stroke-width="0.7"></circle></g><g class="key-Democratic-Republic-of-Congo_0"><circle cx="94.00" cy="512.00" r="4.44" fill="#5675c1" opacity="0.8" stroke="#fff" stroke-width="0.7"></circle></g><g class="key-Thailand_0"><circle cx="458.00" cy="458.00" r="4.41" fill="#d14e5b" opacity="0.8" stroke="#333" stroke-width="0.7"></circle></g><g class="key-France_0"><circle cx="571.00" cy="89.00" r="4.24" fill="#ffd336" opacity="0.8" stroke="#333" stroke-width="0.7"></circle></g><g class="key-United-Kingdom_0"><circle cx="575.00" cy="156.00" r="4.22" fill="#ffd336" opacity="0.8" stroke="#fff" stroke-width="0.7"></circle></g><g class="key-Italy_0"><circle cx="559.00" cy="274.00" r="4.16" fill="#ffd336" opacity="0.8" stroke="#333" stroke-width="0.7"></circle></g><g class="key-South-Africa_0"><circle cx="432.00" cy="460.00" r="3.87" fill="#5675c1" opacity="0.8" stroke="#fff" stroke-width="0.7"></circle></g><g class="key-Tanzania_0"><circle cx="233.00" cy="510.00" r="3.82" fill="#5675c1" opacity="0.8" stroke="#fff" stroke-width="0.7"></circle></g><g class="key-Myanmar_0"><circle cx="321.00" cy="505.00" r="3.82" fill="#d14e5b" opacity="0.8" stroke="#fff" stroke-width="0.7"></circle></g><g class="key-South-Korea_0"><circle cx="559.00" cy="112.00" r="3.81" fill="#d14e5b" opacity="0.8" stroke="#fff" stroke-width="0.7"></circle></g><g class="key-Colombia_0"><circle cx="438.00" cy="409.00" r="3.79" fill="#69c487" opacity="0.8" stroke="#fff" stroke-width="0.7"></circle></g><g class="key-Spain_0"><circle cx="552.00" cy="220.00" r="3.75" fill="#ffd336" opacity="0.8" stroke="#333" stroke-width="0.7"></circle></g><g class="key-Ukraine_0"><circle cx="369.00" cy="361.00" r="3.68" fill="#ffd336" opacity="0.8" stroke="#333" stroke-width="0.7"></circle></g><g class="key-Kenya_0"><circle cx="249.00" cy="511.00" r="3.66" fill="#5675c1" opacity="0.8" stroke="#fff" stroke-width="0.7"></circle></g><g class="key-Argentina_0"><circle cx="486.00" cy="350.00" r="3.58" fill="#69c487" opacity="0.8" stroke="#333" stroke-width="0.7"></circle></g><g class="key-Poland_0"><circle cx="521.00" cy="346.00" r="3.47" fill="#ffd336" opacity="0.8" stroke="#fff" stroke-width="0.7"></circle></g><g class="key-Algeria_0"><circle cx="445.00" cy="455.00" r="3.43" fill="#5675c1" opacity="0.8" stroke="#fff" stroke-width="0.7"></circle></g><g class="key-Uganda_0"><circle cx="183.00" cy="507.00" r="3.42" fill="#5675c1" opacity="0.8" stroke="#fff" stroke-width="0.7"></circle></g><g class="key-Sudan_0"><circle cx="301.00" cy="510.00" r="3.39" fill="#5675c1" opacity="0.8" stroke="#fff" stroke-width="0.7"></circle></g><g class="key-Canada_0"><circle cx="588.00" cy="208.00" r="3.36" fill="#4d824b" opacity="0.8" stroke="#333" stroke-width="0.7"></circle></g><g class="key-Iraq_0"><circle cx="457.00" cy="473.00" r="3.35" fill="#d14e5b" opacity="0.8" stroke="#fff" stroke-width="0.7"></circle></g><g class="key-Afghanistan_0"><circle cx="193.00" cy="510.00" r="3.34" fill="#d14e5b" opacity="0.8" stroke="#fff" stroke-width="0.7"></circle></g><g class="key-Morocco_0"><circle cx="367.00" cy="467.00" r="3.29" fill="#5675c1" opacity="0.8" stroke="#fff" stroke-width="0.7"></circle></g><g class="key-Nepal_0"><circle cx="224.00" cy="492.00" r="3.24" fill="#d14e5b" opacity="0.8" stroke="#333" stroke-width="0.7"></circle></g><g class="key-Peru_0"><circle cx="426.00" cy="447.00" r="3.19" fill="#69c487" opacity="0.8" stroke="#333" stroke-width="0.7"></circle></g><g class="key-Malaysia_0"><circle cx="520.00" cy="410.00" r="3.18" fill="#d14e5b" opacity="0.8" stroke="#fff" stroke-width="0.7"></circle></g><g class="key-Saudi-Arabia_0"><circle cx="608.00" cy="429.00" r="3.16" fill="#d14e5b" opacity="0.8" stroke="#333" stroke-width="0.7"></circle></g><g class="key-Uzbekistan_0"><circle cx="336.00" cy="449.00" r="3.12" fill="#d14e5b" opacity="0.8" stroke="#fff" stroke-width="0.7"></circle></g><g class="key-Ghana_0"><circle cx="290.00" cy="505.00" r="3.04" fill="#5675c1" opacity="0.8" stroke="#fff" stroke-width="0.7"></circle></g><g class="key-Mozambique_0"><circle cx="133.00" cy="510.00" r="3.00" fill="#5675c1" opacity="0.8" stroke="#fff" stroke-width="0.7"></circle></g><g class="key-Australia_0"><circle cx="590.00" cy="262.00" r="2.93" fill="#a652ba" opacity="0.8" stroke="#333" stroke-width="0.7"></circle></g><g class="key-Madagascar_0"><circle cx="159.00" cy="508.00" r="2.90" fill="#5675c1" opacity="0.8" stroke="#fff" stroke-width="0.7"></circle></g><g class="key-Sri-Lanka_0"><circle cx="419.00" cy="401.00" r="2.85" fill="#d14e5b" opacity="0.8" stroke="#333" stroke-width="0.7"></circle></g><g class="key-Romania_0"><circle cx="495.00" cy="362.00" r="2.85" fill="#ffd336" opacity="0.8" stroke="#333" stroke-width="0.7"></circle></g><g class="key-Cote-d__0027Ivoire_0"><circle cx="266.00" cy="504.00" r="2.84" fill="#5675c1" opacity="0.8" stroke="#fff" stroke-width="0.7"></circle></g><g class="key-Cameroon_0"><circle cx="267.00" cy="480.00" r="2.83" fill="#5675c1" opacity="0.8" stroke="#333" stroke-width="0.7"></circle></g><g class="key-Angola_0"><circle cx="347.00" cy="505.00" r="2.83" fill="#5675c1" opacity="0.8" stroke="#fff" stroke-width="0.7"></circle></g><g class="key-Burkina-Faso_0"><circle cx="178.00" cy="509.00" r="2.71" fill="#5675c1" opacity="0.8" stroke="#fff" stroke-width="0.7"></circle></g><g class="key-Chile_0"><circle cx="507.00" cy="376.00" r="2.69" fill="#69c487" opacity="0.8" stroke="#333" stroke-width="0.7"></circle></g><g class="key-Niger_0"><circle cx="107.00" cy="508.00" r="2.68" fill="#5675c1" opacity="0.8" stroke="#333" stroke-width="0.7"></circle></g><g class="key-Mali_0"><circle cx="201.00" cy="505.00" r="2.66" fill="#5675c1" opacity="0.8" stroke="#fff" stroke-width="0.7"></circle></g><g class="key-Netherlands_0"><circle cx="597.00" cy="225.00" r="2.66" fill="#ffd336" opacity="0.8" stroke="#fff" stroke-width="0.7"></circle></g><g class="key-Kazakhstan_0"><circle cx="512.00" cy="348.00" r="2.65" fill="#d14e5b" opacity="0.8" stroke="#fff" stroke-width="0.7"></circle></g><g class="key-Malawi_0"><circle cx="130.00" cy="512.00" r="2.64" fill="#5675c1" opacity="0.8" stroke="#fff" stroke-width="0.7"></circle></g><g class="key-Guatemala_0"><circle cx="367.00" cy="438.00" r="2.60" fill="#4d824b" opacity="0.8" stroke="#333" stroke-width="0.7"></circle></g><g class="key-Ecuador_0"><circle cx="415.00" cy="403.00" r="2.58" fill="#69c487" opacity="0.8" stroke="#fff" stroke-width="0.7"></circle></g><g class="key-Cambodia_0"><circle cx="268.00" cy="501.00" r="2.56" fill="#d14e5b" opacity="0.8" stroke="#fff" stroke-width="0.7"></circle></g><g class="key-Zambia_0"><circle cx="280.00" cy="507.00" r="2.55" fill="#5675c1" opacity="0.8" stroke="#fff" stroke-width="0.7"></circle></g><g class="key-Senegal_0"><circle cx="223.00" cy="498.00" r="2.51" fill="#5675c1" opacity="0.8" stroke="#fff" stroke-width="0.7"></circle></g><g class="key-Zimbabwe_0"><circle cx="200.00" cy="497.00" r="2.50" fill="#5675c1" opacity="0.8" stroke="#fff" stroke-width="0.7"></circle></g><g class="key-Chad_0"><circle cx="210.00" cy="511.00" r="2.45" fill="#5675c1" opacity="0.8" stroke="#fff" stroke-width="0.7"></circle></g><g class="key-Rwanda_0"><circle cx="188.00" cy="511.00" r="2.42" fill="#5675c1" opacity="0.8" stroke="#fff" stroke-width="0.7"></circle></g><g class="key-Greece_0"><circle cx="516.00" cy="184.00" r="2.42" fill="#ffd336" opacity="0.8" stroke="#333" stroke-width="0.7"></circle></g><g class="key-South-Sudan_0"><circle cx="198.00" cy="512.00" r="2.39" fill="#5675c1" opacity="0.8" stroke="#fff" stroke-width="0.7"></circle></g><g class="key-Belgium_0"><circle cx="583.00" cy="234.00" r="2.39" fill="#ffd336" opacity="0.8" stroke="#fff" stroke-width="0.7"></circle></g><g class="key-Tunisia_0"><circle cx="415.00" cy="454.00" r="2.38" fill="#5675c1" opacity="0.8" stroke="#fff" stroke-width="0.7"></circle></g><g class="key-Guinea_0"><circle cx="190.00" cy="512.00" r="2.38" fill="#5675c1" opacity="0.8" stroke="#fff" stroke-width="0.7"></circle></g><g class="key-Portugal_0"><circle cx="527.00" cy="197.00" r="2.38" fill="#ffd336" opacity="0.8" stroke="#333" stroke-width="0.7"></circle></g><g class="key-Czech-Republic_0"><circle cx="545.00" cy="386.00" r="2.37" fill="#ffd336" opacity="0.8" stroke="#333" stroke-width="0.7"></circle></g><g class="key-Bolivia_0"><circle cx="353.00" cy="455.00" r="2.37" fill="#69c487" opacity="0.8" stroke="#fff" stroke-width="0.7"></circle></g><g class="key-Haiti_0"><circle cx="182.00" cy="512.00" r="2.36" fill="#4d824b" opacity="0.8" stroke="#fff" stroke-width="0.7"></circle></g><g class="key-Dominican-Republic_0"><circle cx="442.00" cy="425.00" r="2.36" fill="#4d824b" opacity="0.8" stroke="#333" stroke-width="0.7"></circle></g><g class="key-Hungary_0"><circle cx="520.00" cy="291.00" r="2.34" fill="#ffd336" opacity="0.8" stroke="#333" stroke-width="0.7"></circle></g><g class="key-Serbia_0"><circle cx="441.00" cy="236.00" r="2.34" fill="#ffd336" opacity="0.8" stroke="#fff" stroke-width="0.7"></circle></g><g class="key-Benin_0"><circle cx="205.00" cy="499.00" r="2.33" fill="#5675c1" opacity="0.8" stroke="#fff" stroke-width="0.7"></circle></g><g class="key-Sweden_0"><circle cx="595.00" cy="257.00" r="2.32" fill="#ffd336" opacity="0.8" stroke="#fff" stroke-width="0.7"></circle></g><g class="key-Azerbaijan_0"><circle cx="470.00" cy="381.00" r="2.32" fill="#d14e5b" opacity="0.8" stroke="#fff" stroke-width="0.7"></circle></g><g class="key-Belarus_0"><circle cx="473.00" cy="177.00" r="2.32" fill="#ffd336" opacity="0.8" stroke="#333" stroke-width="0.7"></circle></g><g class="key-Burundi_0"><circle cx="83.00" cy="511.00" r="2.29" fill="#5675c1" opacity="0.8" stroke="#fff" stroke-width="0.7"></circle></g><g class="key-Austria_0"><circle cx="591.00" cy="221.00" r="2.27" fill="#ffd336" opacity="0.8" stroke="#fff" stroke-width="0.7"></circle></g><g class="key-United-Arab-Emirates_0"><circle cx="642.00" cy="339.00" r="2.25" fill="#d14e5b" opacity="0.8" stroke="#fff" stroke-width="0.7"></circle></g><g class="key-Honduras_0"><circle cx="301.00" cy="473.00" r="2.25" fill="#4d824b" opacity="0.8" stroke="#fff" stroke-width="0.7"></circle></g><g class="key-Israel_0"><circle cx="551.00" cy="216.00" r="2.23" fill="#d14e5b" opacity="0.8" stroke="#fff" stroke-width="0.7"></circle></g><g class="key-Switzerland_0"><circle cx="623.00" cy="163.00" r="2.23" fill="#ffd336" opacity="0.8" stroke="#333" stroke-width="0.7"></circle></g><g class="key-Bulgaria_0"><circle cx="472.00" cy="351.00" r="2.21" fill="#ffd336" opacity="0.8" stroke="#fff" stroke-width="0.7"></circle></g><g class="key-Papua-New-Guinea_0"><circle cx="286.00" cy="499.00" r="2.21" fill="#a652ba" opacity="0.8" stroke="#fff" stroke-width="0.7"></circle></g><g class="key-Hong-Kong_0"><circle cx="615.00" cy="93.00" r="2.21" fill="#d14e5b" opacity="0.8" stroke="#333" stroke-width="0.7"></circle></g><g class="key-Tajikistan_0"><circle cx="240.00" cy="475.00" r="2.20" fill="#d14e5b" opacity="0.8" stroke="#fff" stroke-width="0.7"></circle></g><g class="key-Paraguay_0"><circle cx="388.00" cy="476.00" r="2.18" fill="#69c487" opacity="0.8" stroke="#fff" stroke-width="0.7"></circle></g><g class="key-Jordan_0"><circle cx="385.00" cy="484.00" r="2.17" fill="#d14e5b" opacity="0.8" stroke="#fff" stroke-width="0.7"></circle></g><g class="key-Libya_0"><circle cx="455.00" cy="393.00" r="2.17" fill="#5675c1" opacity="0.8" stroke="#fff" stroke-width="0.7"></circle></g><g class="key-Laos_0"><circle cx="337.00" cy="411.00" r="2.16" fill="#d14e5b" opacity="0.8" stroke="#333" stroke-width="0.7"></circle></g><g class="key-Togo_0"><circle cx="157.00" cy="507.00" r="2.16" fill="#5675c1" opacity="0.8" stroke="#fff" stroke-width="0.7"></circle></g><g class="key-El-Salvador_0"><circle cx="362.00" cy="407.00" r="2.15" fill="#4d824b" opacity="0.8" stroke="#333" stroke-width="0.7"></circle></g><g class="key-Sierra-Leone_0"><circle cx="153.00" cy="511.00" r="2.15" fill="#5675c1" opacity="0.8" stroke="#fff" stroke-width="0.7"></circle></g><g class="key-Nicaragua_0"><circle cx="319.00" cy="471.00" r="2.14" fill="#4d824b" opacity="0.8" stroke="#fff" stroke-width="0.7"></circle></g><g class="key-Denmark_0"><circle cx="594.00" cy="303.00" r="2.12" fill="#ffd336" opacity="0.8" stroke="#333" stroke-width="0.7"></circle></g><g class="key-Kyrgyzstan_0"><circle cx="266.00" cy="463.00" r="2.11" fill="#d14e5b" opacity="0.8" stroke="#333" stroke-width="0.7"></circle></g><g class="key-Slovakia_0"><circle cx="535.00" cy="401.00" r="2.11" fill="#ffd336" opacity="0.8" stroke="#fff" stroke-width="0.7"></circle></g><g class="key-Finland_0"><circle cx="575.00" cy="444.00" r="2.11" fill="#ffd336" opacity="0.8" stroke="#333" stroke-width="0.7"></circle></g><g class="key-Singapore_0"><circle cx="667.00" cy="257.00" r="2.10" fill="#d14e5b" opacity="0.8" stroke="#fff" stroke-width="0.7"></circle></g><g class="key-Turkmenistan_0"><circle cx="456.00" cy="431.00" r="2.10" fill="#d14e5b" opacity="0.8" stroke="#fff" stroke-width="0.7"></circle></g><g class="key-Norway_0"><circle cx="637.00" cy="385.00" r="2.08" fill="#ffd336" opacity="0.8" stroke="#333" stroke-width="0.7"></circle></g><g class="key-Costa-Rica_0"><circle cx="454.00" cy="387.00" r="2.08" fill="#4d824b" opacity="0.8" stroke="#fff" stroke-width="0.7"></circle></g><g class="key-Central-African-Republic_0"><circle cx="60.00" cy="512.00" r="2.06" fill="#5675c1" opacity="0.8" stroke="#fff" stroke-width="0.7"></circle></g><g class="key-Ireland_0"><circle cx="630.00" cy="224.00" r="2.06" fill="#ffd336" opacity="0.8" stroke="#fff" stroke-width="0.7"></circle></g><g class="key-New-Zealand_0"><circle cx="563.00" cy="231.00" r="2.06" fill="#a652ba" opacity="0.8" stroke="#fff" stroke-width="0.7"></circle></g><g class="key-Croatia_0"><circle cx="498.00" cy="268.00" r="2.05" fill="#ffd336" opacity="0.8" stroke="#333" stroke-width="0.7"></circle></g><g class="key-Liberia_0"><circle cx="89.00" cy="511.00" r="2.05" fill="#5675c1" opacity="0.8" stroke="#fff" stroke-width="0.7"></circle></g><g class="key-Congo_0"><circle cx="332.00" cy="510.00" r="2.05" fill="#5675c1" opacity="0.8" stroke="#fff" stroke-width="0.7"></circle></g><g class="key-Lebanon_0"><circle cx="442.00" cy="391.00" r="2.05" fill="#d14e5b" opacity="0.8" stroke="#fff" stroke-width="0.7"></circle></g><g class="key-Georgia_0"><circle cx="393.00" cy="344.00" r="2.04" fill="#d14e5b" opacity="0.8" stroke="#333" stroke-width="0.7"></circle></g><g class="key-Puerto-Rico_0"><circle cx="563.00" cy="357.00" r="2.01" fill="#4d824b" opacity="0.8" stroke="#333" stroke-width="0.7"></circle></g><g class="key-Bosnia-and-Herzegovina_0"><circle cx="417.00" cy="359.00" r="2.01" fill="#ffd336" opacity="0.8" stroke="#fff" stroke-width="0.7"></circle></g><g class="key-Mauritania_0"><circle cx="279.00" cy="504.00" r="2.01" fill="#5675c1" opacity="0.8" stroke="#fff" stroke-width="0.7"></circle></g><g class="key-Panama_0"><circle cx="497.00" cy="403.00" r="2.01" fill="#4d824b" opacity="0.8" stroke="#fff" stroke-width="0.7"></circle></g><g class="key-Moldova_0"><circle cx="313.00" cy="305.00" r="2.00" fill="#ffd336" opacity="0.8" stroke="#333" stroke-width="0.7"></circle></g><g class="key-Uruguay_0"><circle cx="491.00" cy="286.00" r="1.99" fill="#69c487" opacity="0.8" stroke="#fff" stroke-width="0.7"></circle></g><g class="key-Lithuania_0"><circle cx="530.00" cy="378.00" r="1.99" fill="#ffd336" opacity="0.8" stroke="#fff" stroke-width="0.7"></circle></g><g class="key-Albania_0"><circle cx="417.00" cy="458.00" r="1.98" fill="#ffd336" opacity="0.8" stroke="#fff" stroke-width="0.7"></circle></g><g class="key-Armenia_0"><circle cx="381.00" cy="380.00" r="1.98" fill="#d14e5b" opacity="0.8" stroke="#333" stroke-width="0.7"></circle></g><g class="key-Kuwait_0"><circle cx="645.00" cy="427.00" r="1.97" fill="#d14e5b" opacity="0.8" stroke="#fff" stroke-width="0.7"></circle></g><g class="key-Oman_0"><circle cx="578.00" cy="440.00" r="1.97" fill="#d14e5b" opacity="0.8" stroke="#fff" stroke-width="0.7"></circle></g><g class="key-Mongolia_0"><circle cx="422.00" cy="452.00" r="1.96" fill="#d14e5b" opacity="0.8" stroke="#fff" stroke-width="0.7"></circle></g><g class="key-Jamaica_0"><circle cx="380.00" cy="451.00" r="1.96" fill="#4d824b" opacity="0.8" stroke="#333" stroke-width="0.7"></circle></g><g class="key-Namibia_0"><circle cx="405.00" cy="460.00" r="1.93" fill="#5675c1" opacity="0.8" stroke="#fff" stroke-width="0.7"></circle></g><g class="key-Lesotho_0"><circle cx="243.00" cy="499.00" r="1.92" fill="#5675c1" opacity="0.8" stroke="#fff" stroke-width="0.7"></circle></g><g class="key-Latvia_0"><circle cx="509.00" cy="387.00" r="1.92" fill="#ffd336" opacity="0.8" stroke="#333" stroke-width="0.7"></circle></g><g class="key-Botswana_0"><circle cx="459.00" cy="461.00" r="1.91" fill="#5675c1" opacity="0.8" stroke="#fff" stroke-width="0.7"></circle></g><g class="key-Macedonia_0"><circle cx="436.00" cy="387.00" r="1.91" fill="#ffd336" opacity="0.8" stroke="#fff" stroke-width="0.7"></circle></g><g class="key-Slovenia_0"><circle cx="538.00" cy="258.00" r="1.91" fill="#ffd336" opacity="0.8" stroke="#333" stroke-width="0.7"></circle></g><g class="key-Qatar_0"><circle cx="715.00" cy="382.00" r="1.91" fill="#d14e5b" opacity="0.8" stroke="#333" stroke-width="0.7"></circle></g><g class="key-Gambia_0"><circle cx="175.00" cy="496.00" r="1.90" fill="#5675c1" opacity="0.8" stroke="#fff" stroke-width="0.7"></circle></g><g class="key-Guinea__002dBissau_0"><circle cx="165.00" cy="512.00" r="1.89" fill="#5675c1" opacity="0.8" stroke="#fff" stroke-width="0.7"></circle></g><g class="key-Gabon_0"><circle cx="471.00" cy="505.00" r="1.88" fill="#5675c1" opacity="0.8" stroke="#333" stroke-width="0.7"></circle></g><g class="key-Bahrain_0"><circle cx="590.00" cy="369.00" r="1.87" fill="#d14e5b" opacity="0.8" stroke="#333" stroke-width="0.7"></circle></g><g class="key-Trinidad-and-Tobago_0"><circle cx="549.00" cy="373.00" r="1.87" fill="#4d824b" opacity="0.8" stroke="#fff" stroke-width="0.7"></circle></g><g class="key-Estonia_0"><circle cx="532.00" cy="306.00" r="1.87" fill="#ffd336" opacity="0.8" stroke="#333" stroke-width="0.7"></circle></g><g class="key-Mauritius_0"><circle cx="485.00" cy="301.00" r="1.87" fill="#5675c1" opacity="0.8" stroke="#fff" stroke-width="0.7"></circle></g><g class="key-Eswatini_0"><circle cx="374.00" cy="489.00" r="1.86" fill="#5675c1" opacity="0.8" stroke="#fff" stroke-width="0.7"></circle></g><g class="key-Cyprus_0"><circle cx="545.00" cy="243.00" r="1.86" fill="#ffd336" opacity="0.8" stroke="#333" stroke-width="0.7"></circle></g><g class="key-Djibouti_0"><circle cx="262.00" cy="495.00" r="1.84" fill="#5675c1" opacity="0.8" stroke="#fff" stroke-width="0.7"></circle></g><g class="key-Fiji_0"><circle cx="385.00" cy="455.00" r="1.84" fill="#a652ba" opacity="0.8" stroke="#fff" stroke-width="0.7"></circle></g><g class="key-Comoros_0"><circle cx="162.00" cy="499.00" r="1.83" fill="#5675c1" opacity="0.8" stroke="#fff" stroke-width="0.7"></circle></g><g class="key-Bhutan_0"><circle cx="374.00" cy="493.00" r="1.83" fill="#d14e5b" opacity="0.8" stroke="#333" stroke-width="0.7"></circle></g><g class="key-Equatorial-Guinea_0"><circle cx="532.00" cy="505.00" r="1.83" fill="#5675c1" opacity="0.8" stroke="#333" stroke-width="0.7"></circle></g><g class="key-Guyana_0"><circle cx="363.00" cy="372.00" r="1.83" fill="#69c487" opacity="0.8" stroke="#fff" stroke-width="0.7"></circle></g><g class="key-Montenegro_0"><circle cx="459.00" cy="340.00" r="1.82" fill="#ffd336" opacity="0.8" stroke="#fff" stroke-width="0.7"></circle></g><g class="key-Solomon-Islands_0"><circle cx="215.00" cy="503.00" r="1.82" fill="#a652ba" opacity="0.8" stroke="#fff" stroke-width="0.7"></circle></g><g class="key-Macao_0"><circle cx="693.00" cy="342.00" r="1.82" fill="#d14e5b" opacity="0.8" stroke="#333" stroke-width="0.7"></circle></g><g class="key-Suriname_0"><circle cx="454.00" cy="396.00" r="1.82" fill="#69c487" opacity="0.8" stroke="#fff" stroke-width="0.7"></circle></g><g class="key-Luxembourg_0"><circle cx="685.00" cy="170.00" r="1.82" fill="#ffd336" opacity="0.8" stroke="#fff" stroke-width="0.7"></circle></g><g class="key-Cape-Verde_0"><circle cx="341.00" cy="432.00" r="1.82" fill="#5675c1" opacity="0.8" stroke="#fff" stroke-width="0.7"></circle></g><g class="key-Malta_0"><circle cx="558.00" cy="135.00" r="1.81" fill="#ffd336" opacity="0.8" stroke="#333" stroke-width="0.7"></circle></g><g class="key-Brunei_0"><circle cx="656.00" cy="385.00" r="1.81" fill="#d14e5b" opacity="0.8" stroke="#fff" stroke-width="0.7"></circle></g><g class="key-Bahamas_0"><circle cx="536.00" cy="293.00" r="1.81" fill="#4d824b" opacity="0.8" stroke="#fff" stroke-width="0.7"></circle></g><g class="key-Iceland_0"><circle cx="587.00" cy="155.00" r="1.80" fill="#ffd336" opacity="0.8" stroke="#fff" stroke-width="0.7"></circle></g><g class="key-Belize_0"><circle cx="380.00" cy="466.00" r="1.80" fill="#4d824b" opacity="0.8" stroke="#fff" stroke-width="0.7"></circle></g><g class="key-Maldives_0"><circle cx="445.00" cy="476.00" r="1.80" fill="#d14e5b" opacity="0.8" stroke="#fff" stroke-width="0.7"></circle></g><g class="key-Barbados_0"><circle cx="468.00" cy="144.00" r="1.80" fill="#4d824b" opacity="0.8" stroke="#333" stroke-width="0.7"></circle></g><g class="key-Vanuatu_0"><circle cx="248.00" cy="500.00" r="1.80" fill="#a652ba" opacity="0.8" stroke="#fff" stroke-width="0.7"></circle></g><g class="key-Samoa_0"><circle cx="333.00" cy="471.00" r="1.80" fill="#a652ba" opacity="0.8" stroke="#fff" stroke-width="0.7"></circle></g><g class="key-Saint-Lucia_0"><circle cx="414.00" cy="380.00" r="1.80" fill="#4d824b" opacity="0.8" stroke="#fff" stroke-width="0.7"></circle></g><g class="key-Sao-Tome-and-Principe_0"><circle cx="254.00" cy="489.00" r="1.79" fill="#5675c1" opacity="0.8" stroke="#fff" stroke-width="0.7"></circle></g><g class="key-Saint-Vincent-and-the-Grenadines_0"><circle cx="411.00" cy="353.00" r="1.79" fill="#4d824b" opacity="0.8" stroke="#fff" stroke-width="0.7"></circle></g><g class="key-Grenada_0"><circle cx="436.00" cy="335.00" r="1.79" fill="#4d824b" opacity="0.8" stroke="#333" stroke-width="0.7"></circle></g><g class="key-Tonga_0"><circle cx="324.00" cy="425.00" r="1.79" fill="#a652ba" opacity="0.8" stroke="#333" stroke-width="0.7"></circle></g><g class="key-Kiribati_0"><circle cx="204.00" cy="503.00" r="1.79" fill="#a652ba" opacity="0.8" stroke="#fff" stroke-width="0.7"></circle></g><g class="key-Antigua-and-Barbuda_0"><circle cx="493.00" cy="372.00" r="1.79" fill="#4d824b" opacity="0.8" stroke="#fff" stroke-width="0.7"></circle></g><g class="key-Seychelles_0"><circle cx="519.00" cy="353.00" r="1.79" fill="#5675c1" opacity="0.8" stroke="#fff" stroke-width="0.7"></circle></g><g class="key-Dominica_0"><circle cx="405.00" cy="315.00" r="1.79" fill="#4d824b" opacity="0.8" stroke="#333" stroke-width="0.7"></circle></g><g class="key-Saint-Kitts-and-Nevis_0"><circle cx="515.00" cy="262.00" r="1.79" fill="#4d824b" opacity="0.8" stroke="#fff" stroke-width="0.7"></circle></g><g class="key-San-Marino_0"><circle cx="621.00" cy="160.00" r="1.79" fill="#ffd336" opacity="0.8" stroke="#fff" stroke-width="0.7"></circle></g><g class="key-Palau_0"><circle cx="448.00" cy="275.00" r="1.78" fill="#a652ba" opacity="0.8" stroke="#333" stroke-width="0.7"></circle></g><g class="key-Tuvalu_0"><circle cx="272.00" cy="385.00" r="1.78" fill="#a652ba" opacity="0.8" stroke="#333" stroke-width="0.7"></circle></g><g class="key-Yemen_0"><circle cx="223.00" cy="483.00" r="1.78" fill="#d14e5b" opacity="0.8" stroke="#fff" stroke-width="0.7"></circle></g><g class="key-Micronesia-__0028country__0029_0"><circle cx="267.00" cy="467.00" r="1.78" fill="#a652ba" opacity="0.8" stroke="#fff" stroke-width="0.7"></circle></g><g class="key-Palestine_0"><circle cx="312.00" cy="451.00" r="1.78" fill="#d14e5b" opacity="0.8" stroke="#fff" stroke-width="0.7"></circle></g><g class="key-Timor_0"><circle cx="215.00" cy="511.00" r="1.78" fill="#d14e5b" opacity="0.8" stroke="#333" stroke-width="0.7"></circle></g><g fill="#333" class="backgroundLabels"><text x="444.00" y="377.16" font-size="14.30">China</text><text x="337.00" y="480.71" font-size="14.10">India</text><text x="613.00" y="229.22" font-size="11.77">United States</text><text x="410.00" y="475.22" font-size="11.60">Indonesia</text><text x="454.00" y="355.96" font-size="11.49">Brazil</text><text x="335.00" y="504.46" font-size="11.41">Nigeria</text><text x="261.00" y="500.76" font-size="11.37">Bangladesh</text><text x="515.00" y="329.98" font-size="11.35">Russia</text><text x="571.00" y="156.30" font-size="11.31">Japan</text><text x="471.00" y="393.49" font-size="11.29">Mexico</text><text x="333.00" y="451.08" font-size="11.22">Vietnam</text><text x="173.00" y="500.14" font-size="11.21">Ethiopia</text><text x="407.00" y="460.21" font-size="11.21">Egypt</text><text x="590.00" y="117.29" font-size="11.20">Germany</text><text x="468.00" y="238.43" font-size="11.19">Iran</text><text x="511.00" y="403.46" font-size="11.18">Turkey</text><text x="458.00" y="452.59" font-size="11.17">Thailand</text><text x="571.00" y="100.55" font-size="11.15">France</text><text x="559.00" y="268.84" font-size="11.15">Italy</text><text x="552.00" y="215.25" font-size="11.11">Spain</text><text x="369.00" y="356.32" font-size="11.11">Ukraine</text><text x="486.00" y="345.42" font-size="11.10">Argentina</text><text x="588.00" y="203.64" font-size="11.08">Canada</text><text x="224.00" y="487.76" font-size="11.08">Nepal</text><text x="426.00" y="442.81" font-size="11.07">Peru</text><text x="608.00" y="424.84" font-size="11.07">Saudi Arabia</text><text x="590.00" y="258.07" font-size="11.06">Australia</text><text x="419.00" y="397.15" font-size="11.05">Sri Lanka</text><text x="495.00" y="358.15" font-size="11.05">Romania</text><text x="267.00" y="476.17" font-size="11.05">Cameroon</text><text x="507.00" y="372.31" font-size="11.04">Chile</text><text x="107.00" y="504.32" font-size="11.04">Niger</text><text x="367.00" y="434.40" font-size="11.04">Guatemala</text><text x="516.00" y="180.58" font-size="11.03">Greece</text><text x="527.00" y="193.62" font-size="11.03">Portugal</text><text x="545.00" y="382.63" font-size="11.03">Czech Republic</text><text x="442.00" y="421.64" font-size="11.03">Dominican Republic</text><text x="520.00" y="287.66" font-size="11.02">Hungary</text><text x="473.00" y="173.68" font-size="11.02">Belarus</text><text x="623.00" y="159.77" font-size="11.02">Switzerland</text><text x="615.00" y="100.42" font-size="11.02">Hong Kong</text><text x="337.00" y="407.84" font-size="11.02">Laos</text><text x="362.00" y="403.85" font-size="11.02">El Salvador</text><text x="594.00" y="299.88" font-size="11.01">Denmark</text><text x="266.00" y="459.89" font-size="11.01">Kyrgyzstan</text><text x="575.00" y="440.89" font-size="11.01">Finland</text><text x="637.00" y="381.92" font-size="11.01">Norway</text><text x="498.00" y="264.95" font-size="11.01">Croatia</text><text x="393.00" y="340.96" font-size="11.01">Georgia</text><text x="563.00" y="353.99" font-size="11.01">Puerto Rico</text><text x="313.00" y="302.00" font-size="11.01">Moldova</text><text x="381.00" y="377.02" font-size="11.01">Armenia</text><text x="380.00" y="448.04" font-size="11.01">Jamaica</text><text x="509.00" y="384.08" font-size="11.01">Latvia</text><text x="538.00" y="255.09" font-size="11.00">Slovenia</text><text x="687.38" y="379.09" font-size="11.00">Qatar</text><text x="471.00" y="502.12" font-size="11.00">Gabon</text><text x="590.00" y="366.13" font-size="11.00">Bahrain</text><text x="532.00" y="303.13" font-size="11.00">Estonia</text><text x="545.00" y="240.14" font-size="11.00">Cyprus</text><text x="374.00" y="490.17" font-size="11.00">Bhutan</text><text x="532.00" y="502.17" font-size="11.00">Equatorial Guinea</text><text x="659.89" y="339.18" font-size="11.00">Macao</text><text x="558.00" y="132.19" font-size="11.00">Malta</text><text x="468.00" y="141.20" font-size="11.00">Barbados</text><text x="436.00" y="332.21" font-size="11.00">Grenada</text><text x="324.00" y="422.21" font-size="11.00">Tonga</text><text x="405.00" y="312.21" font-size="11.00">Dominica</text><text x="448.00" y="272.22" font-size="11.00">Palau</text><text x="272.00" y="382.22" font-size="11.00">Tuvalu</text><text x="215.00" y="508.22" font-size="11.00">Timor</text></g></g><g style="cursor: pointer;" class="ScatterColorLegend clickable"><g class="legendMark"><rect x="735" y="86.9" width="43.256" height="17.6" fill="#fff" opacity="0"></rect>,<rect x="735" y="92.4" width="6" height="6" fill="#5675c1"></rect>,<text font-size="12.60" x="746.0" y="99.5"><tspan x="746" y="99.48">Africa</tspan></text></g><g class="legendMark"><rect x="735" y="104.5" width="35.57" height="17.6" fill="#fff" opacity="0"></rect>,<rect x="735" y="110" width="6" height="6" fill="#d14e5b"></rect>,<text font-size="12.60" x="746.0" y="117.1"><tspan x="746" y="117.08">Asia</tspan></text></g><g class="legendMark"><rect x="735" y="122.10000000000001" width="51.824" height="17.6" fill="#fff" opacity="0"></rect>,<rect x="735" y="127.60000000000001" width="6" height="6" fill="#ffd336"></rect>,<text font-size="12.60" x="746.0" y="134.7"><tspan x="746" y="134.68">Europe</tspan></text></g><g class="legendMark"><rect x="735" y="139.70000000000002" width="91.64" height="17.6" fill="#fff" opacity="0"></rect>,<rect x="735" y="145.20000000000002" width="6" height="6" fill="#4d824b"></rect>,<text font-size="12.60" x="746.0" y="152.3"><tspan x="746" y="152.28">North America</tspan></text></g><g class="legendMark"><rect x="735" y="157.3" width="58.124" height="17.6" fill="#fff" opacity="0"></rect>,<rect x="735" y="162.8" width="6" height="6" fill="#a652ba"></rect>,<text font-size="12.60" x="746.0" y="169.9"><tspan x="746" y="169.88">Oceania</tspan></text></g><g class="legendMark"><rect x="735" y="174.9" width="93.908" height="17.6" fill="#fff" opacity="0"></rect>,<rect x="735" y="180.4" width="6" height="6" fill="#69c487"></rect>,<text font-size="12.60" x="746.0" y="187.5"><tspan x="746" y="187.48">South America</tspan></text></g></g></g><g style="fill: #777;" class="SourcesFooter"><g style="fill: #777;" class="clickable"><text font-size="12.60" x="15.0" y="581.6"><tspan x="15" y="581.58">Source: World Bank</tspan></text></g><text font-size="12.60" x="527.9" y="581.6"><tspan x="527.938" y="581.58"><a target='_blank' style='fill: #777;' href='https://ourworldindata.org/technology-adoption/'>OurWorldInData.org/technology-adoption/</a> • <a style="fill: #777;" class="cclogo" href="http://creativecommons.org/licenses/by-sa/4.0/deed.en_US" target="_blank">CC BY-SA</a></tspan></text></g></g></svg>