<svg xmlns="http://www.w3.org/2000/svg" version="1.1" style="font-family: 'Helvetica Neue', Helvetica, Arial, sans-serif; font-size: 18px; background-color: white; text-rendering: optimizeLegibility; -webkit-font-smoothing: antialiased;" width="850" height="600"><g class="ChartTab"><g class="HeaderView"><g opacity="0.8" transform="translate(778, 15) scale(0.27)"><a xmlns:xlink="http://www.w3.org/1999/xlink" xlink:href="https://ourworldindata.org" target="_blank"><g><rect x="0" y="0" fill="#1B2543" width="211.2" height="130.1"/><rect x="0" y="112.2" fill="#E63912" width="211.2" height="17.9"/><g><rect x="1.2" y="12.3" fill="none" width="210.2" height="99.2"/><path fill="#FFFFFF" d="M37.8,32.2c0,12.7-7.7,19.4-17.1,19.4c-9.7,0-16.6-7.5-16.6-18.7c0-11.7,7.3-19.3,17.1-19.3 C31.3,13.7,37.8,21.3,37.8,32.2z M9.2,32.8c0,7.9,4.3,14.9,11.8,14.9c7.5,0,11.8-6.9,11.8-15.3c0-7.3-3.8-14.9-11.8-14.9 C13.1,17.5,9.2,24.8,9.2,32.8z"/><path fill="#FFFFFF" d="M62.7,43.8c0,2.7,0.1,5.1,0.2,7.2h-4.3l-0.3-4.3h-0.1c-1.3,2.1-4,4.9-8.8,4.9c-4.2,0-9.1-2.3-9.1-11.6 V24.6h4.8v14.6c0,5,1.5,8.4,5.9,8.4c3.2,0,5.5-2.2,6.3-4.4c0.3-0.7,0.4-1.6,0.4-2.5V24.6h4.8V43.8z"/><path fill="#FFFFFF" d="M67.3,32.8c0-3.1-0.1-5.8-0.2-8.2h4.2l0.2,5.2h0.2c1.2-3.5,4.1-5.8,7.3-5.8c0.5,0,0.9,0.1,1.4,0.2v4.5 c-0.5-0.1-1-0.2-1.6-0.2c-3.4,0-5.8,2.6-6.5,6.2c-0.1,0.7-0.2,1.4-0.2,2.2V51h-4.8V32.8z"/><path fill="#FFFFFF" d="M95.4,51l-9.4-36.8h5l4.4,18.6c1.1,4.6,2.1,9.2,2.7,12.7h0.1c0.6-3.7,1.8-8,3-12.8l4.9-18.5h5l4.5,18.7 c1,4.4,2,8.7,2.6,12.6h0.1c0.8-4,1.8-8.1,3-12.7l4.9-18.5h4.9L120.6,51h-5L111,31.9c-1.1-4.7-1.9-8.3-2.4-12h-0.1 c-0.7,3.7-1.5,7.3-2.8,12L100.4,51H95.4z"/><path fill="#FFFFFF" d="M154.9,37.6c0,9.8-6.8,14-13.2,14c-7.2,0-12.7-5.2-12.7-13.6c0-8.8,5.8-14,13.1-14 C149.8,24,154.9,29.5,154.9,37.6z M133.9,37.9c0,5.8,3.3,10.1,8,10.1c4.6,0,8-4.3,8-10.3c0-4.5-2.2-10.1-7.9-10.1 C136.3,27.6,133.9,32.8,133.9,37.9z"/><path fill="#FFFFFF" d="M158.2,32.8c0-3.1-0.1-5.8-0.2-8.2h4.2l0.2,5.2h0.2c1.2-3.5,4.1-5.8,7.3-5.8c0.5,0,0.9,0.1,1.4,0.2v4.5 c-0.5-0.1-1-0.2-1.6-0.2c-3.4,0-5.8,2.6-6.5,6.2c-0.1,0.7-0.2,1.4-0.2,2.2V51h-4.8V32.8z"/><path fill="#FFFFFF" d="M173.5,12.3h4.8V51h-4.8V12.3z"/><path fill="#FFFFFF" d="M206.5,12.3v31.9c0,2.3,0.1,5,0.2,6.8h-4.3l-0.2-4.6H202c-1.5,2.9-4.7,5.2-9,5.2 c-6.4,0-11.3-5.4-11.3-13.4c-0.1-8.8,5.4-14.2,11.9-14.2c4,0,6.8,1.9,8,4h0.1V12.3H206.5z M201.7,35.4c0-0.6-0.1-1.4-0.2-2 c-0.7-3.1-3.3-5.6-6.9-5.6c-5,0-7.9,4.4-7.9,10.2c0,5.3,2.6,9.8,7.8,9.8c3.2,0,6.2-2.1,7.1-5.7c0.2-0.7,0.2-1.3,0.2-2.1V35.4z"/><path fill="#FFFFFF" d="M42.8,64c0.1,1.6-1.1,2.9-3.1,2.9c-1.7,0-2.9-1.3-2.9-2.9c0-1.7,1.3-3,3-3C41.7,61,42.8,62.3,42.8,64z M37.4,97.8V71.4h4.8v26.4H37.4z"/><path fill="#FFFFFF" d="M47.5,78.6c0-2.7-0.1-5-0.2-7.1h4.3l0.3,4.4h0.1c1.3-2.5,4.4-5,8.8-5c3.7,0,9.4,2.2,9.4,11.2v15.8h-4.8 V82.6c0-4.3-1.6-7.8-6.1-7.8c-3.2,0-5.6,2.2-6.5,4.9c-0.2,0.6-0.3,1.4-0.3,2.2v15.9h-4.8V78.6z"/><path fill="#FFFFFF" d="M84,61.6c2.9-0.4,6.3-0.8,10.1-0.8c6.8,0,11.7,1.6,14.9,4.6c3.3,3,5.2,7.3,5.2,13.2c0,6-1.9,10.9-5.3,14.3 c-3.4,3.4-9.1,5.3-16.3,5.3c-3.4,0-6.2-0.2-8.6-0.4V61.6z M88.8,94.1c1.2,0.2,3,0.3,4.8,0.3c10.2,0,15.7-5.7,15.7-15.6 c0.1-8.7-4.9-14.2-14.9-14.2c-2.5,0-4.3,0.2-5.6,0.5V94.1z"/><path fill="#FFFFFF" d="M132.1,97.8l-0.4-3.3h-0.2c-1.5,2.1-4.3,3.9-8.1,3.9c-5.4,0-8.1-3.8-8.1-7.6c0-6.4,5.7-9.9,15.9-9.8v-0.5 c0-2.2-0.6-6.1-6-6.1c-2.5,0-5,0.8-6.9,2l-1.1-3.2c2.2-1.4,5.4-2.3,8.7-2.3c8.1,0,10.1,5.5,10.1,10.8v9.9c0,2.3,0.1,4.5,0.4,6.3 H132.1z M131.4,84.4c-5.3-0.1-11.2,0.8-11.2,5.9c0,3.1,2.1,4.6,4.5,4.6c3.4,0,5.6-2.2,6.4-4.4c0.2-0.5,0.3-1,0.3-1.5V84.4z"/><path fill="#FFFFFF" d="M146.6,63.9v7.6h6.9v3.7h-6.9v14.2c0,3.3,0.9,5.1,3.6,5.1c1.3,0,2.2-0.2,2.8-0.3l0.2,3.6 c-0.9,0.4-2.4,0.7-4.3,0.7c-2.2,0-4-0.7-5.2-2c-1.4-1.4-1.9-3.8-1.9-6.9V75.1h-4.1v-3.7h4.1v-6.3L146.6,63.9z"/><path fill="#FFFFFF" d="M171.4,97.8l-0.4-3.3h-0.2c-1.5,2.1-4.3,3.9-8.1,3.9c-5.4,0-8.1-3.8-8.1-7.6c0-6.4,5.7-9.9,15.9-9.8v-0.5 c0-2.2-0.6-6.1-6-6.1c-2.5,0-5,0.8-6.9,2l-1.1-3.2c2.2-1.4,5.4-2.3,8.7-2.3c8.1,0,10.1,5.5,10.1,10.8v9.9c0,2.3,0.1,4.5,0.4,6.3 H171.4z M170.7,84.4c-5.3-0.1-11.2,0.8-11.2,5.9c0,3.1,2.1,4.6,4.5,4.6c3.4,0,5.6-2.2,6.4-4.4c0.2-0.5,0.3-1,0.3-1.5V84.4z"/></g></g></a></g><a href="https://ourworldindata.org/grapher/fruit-consumption-per-capita-kilograms-per-year" target="_blank"><text font-size="25.20" x="15.0" y="35.2" fill="#555"><tspan x="15" y="35.160000000000004">Fruit consumption per capita, kilograms per year</tspan></text></a><text font-size="14.40" x="15.0" y="53.7" fill="#666"><tspan x="15" y="53.72">Average fruit consumption per person, measured in kilograms per year. Data is based on per capita food supply at</tspan><tspan x="15" y="69.56">the consumer level, but does not account for food waste at the consumer level.</tspan></text></g><g class="LineChart"><defs><clipPath id="boundsClip-799"><rect x="58.92400000000001" y="0" width="830" height="928.8"></rect></clipPath></defs><g class="AxisBoxView"><g class="HorizontalAxis"><text x="68.9" y="556.5" fill="#666" text-anchor="middle" font-size="16.2">1961</text><text x="181.4" y="556.5" fill="#666" text-anchor="middle" font-size="16.2">1970</text><text x="306.3" y="556.5" fill="#666" text-anchor="middle" font-size="16.2">1980</text><text x="431.2" y="556.5" fill="#666" text-anchor="middle" font-size="16.2">1990</text><text x="556.2" y="556.5" fill="#666" text-anchor="middle" font-size="16.2">2000</text><text x="718.6" y="556.5" fill="#666" text-anchor="middle" font-size="16.2">2013</text></g><g class="VerticalAxis"><text x="63.92" y="535.3" fill="#666" dominant-baseline="middle" text-anchor="end" font-size="16.2">0 kg</text><text x="63.92" y="474.4" fill="#666" dominant-baseline="middle" text-anchor="end" font-size="16.2">20 kg</text><text x="63.92" y="413.5" fill="#666" dominant-baseline="middle" text-anchor="end" font-size="16.2">40 kg</text><text x="63.92" y="352.6" fill="#666" dominant-baseline="middle" text-anchor="end" font-size="16.2">60 kg</text><text x="63.92" y="291.7" fill="#666" dominant-baseline="middle" text-anchor="end" font-size="16.2">80 kg</text><text x="63.92" y="230.8" fill="#666" dominant-baseline="middle" text-anchor="end" font-size="16.2">100 kg</text><text x="63.92" y="169.8" fill="#666" dominant-baseline="middle" text-anchor="end" font-size="16.2">120 kg</text><text x="63.92" y="108.9" fill="#666" dominant-baseline="middle" text-anchor="end" font-size="16.2">140 kg</text></g><g class="AxisGridLines"><line x1="68.92" y1="535.3" x2="718.60" y2="535.3" stroke="#ccc"></line><line x1="68.92" y1="474.4" x2="718.60" y2="474.4" stroke="#ddd" stroke-dasharray="3,2"></line><line x1="68.92" y1="413.5" x2="718.60" y2="413.5" stroke="#ddd" stroke-dasharray="3,2"></line><line x1="68.92" y1="352.6" x2="718.60" y2="352.6" stroke="#ddd" stroke-dasharray="3,2"></line><line x1="68.92" y1="291.7" x2="718.60" y2="291.7" stroke="#ddd" stroke-dasharray="3,2"></line><line x1="68.92" y1="230.8" x2="718.60" y2="230.8" stroke="#ddd" stroke-dasharray="3,2"></line><line x1="68.92" y1="169.8" x2="718.60" y2="169.8" stroke="#ddd" stroke-dasharray="3,2"></line><line x1="68.92" y1="108.9" x2="718.60" y2="108.9" stroke="#ddd" stroke-dasharray="3,2"></line></g></g><g clip-path="url(#boundsClip-799)"><g class="HeightedLegend clickable"><g class="legendMark"><rect x="718.595" y="85.35" width="92.105" height="13.5" fill="#fff" opacity="0"></rect><text font-size="13.50" x="723.6" y="96.1" fill="#f6a324"><tspan x="723.595" y="96.14999999999999">Colombia</tspan></text></g><g class="legendMark"><rect x="718.595" y="210.25" width="116.405" height="13.5" fill="#fff" opacity="0"></rect><text font-size="13.50" x="723.6" y="221.1" fill="#34983f"><tspan x="723.595" y="221.05">United States</tspan></text></g><g class="legendMark"><rect x="718.595" y="241.75" width="70.37" height="13.5" fill="#fff" opacity="0"></rect><text font-size="13.50" x="723.6" y="252.6" fill="#ca2628"><tspan x="723.595" y="252.55">China</tspan></text></g><g class="legendMark"><rect x="718.595" y="291.45" width="70.235" height="13.5" fill="#fff" opacity="0"></rect><text font-size="13.50" x="723.6" y="302.3" fill="#3360a9"><tspan x="723.595" y="302.25">World</tspan></text></g></g><g class="Lines"><rect x="69" y="92" width="650" height="443" fill="rgba(255,255,255,0)" opacity="0"></rect><g class="key-Colombia_0"><path stroke="#f6a324" stroke-linecap="round" d="M69 256L81 257L94 263L106 262L119 266L131 268L144 250L156 266L169 255L181 246L194 265L206 261L219 248L231 259L244 245L256 250L269 256L281 247L294 244L306 245L319 250L331 290L344 270L356 296L369 292L381 282L394 266L406 263L419 247L431 295L444 277L456 211L469 230L481 243L494 206L506 248L519 237L531 275L544 203L556 175L569 168L581 163L594 170L606 163L619 167L631 125L644 128L656 131L669 162L681 140L694 160L706 134L719 92" fill="none" stroke-width="1.5"></path><g fill="#f6a324"><circle cx="69" cy="256" r="2"></circle><circle cx="81" cy="257" r="2"></circle><circle cx="94" cy="263" r="2"></circle><circle cx="106" cy="262" r="2"></circle><circle cx="119" cy="266" r="2"></circle><circle cx="131" cy="268" r="2"></circle><circle cx="144" cy="250" r="2"></circle><circle cx="156" cy="266" r="2"></circle><circle cx="169" cy="255" r="2"></circle><circle cx="181" cy="246" r="2"></circle><circle cx="194" cy="265" r="2"></circle><circle cx="206" cy="261" r="2"></circle><circle cx="219" cy="248" r="2"></circle><circle cx="231" cy="259" r="2"></circle><circle cx="244" cy="245" r="2"></circle><circle cx="256" cy="250" r="2"></circle><circle cx="269" cy="256" r="2"></circle><circle cx="281" cy="247" r="2"></circle><circle cx="294" cy="244" r="2"></circle><circle cx="306" cy="245" r="2"></circle><circle cx="319" cy="250" r="2"></circle><circle cx="331" cy="290" r="2"></circle><circle cx="344" cy="270" r="2"></circle><circle cx="356" cy="296" r="2"></circle><circle cx="369" cy="292" r="2"></circle><circle cx="381" cy="282" r="2"></circle><circle cx="394" cy="266" r="2"></circle><circle cx="406" cy="263" r="2"></circle><circle cx="419" cy="247" r="2"></circle><circle cx="431" cy="295" r="2"></circle><circle cx="444" cy="277" r="2"></circle><circle cx="456" cy="211" r="2"></circle><circle cx="469" cy="230" r="2"></circle><circle cx="481" cy="243" r="2"></circle><circle cx="494" cy="206" r="2"></circle><circle cx="506" cy="248" r="2"></circle><circle cx="519" cy="237" r="2"></circle><circle cx="531" cy="275" r="2"></circle><circle cx="544" cy="203" r="2"></circle><circle cx="556" cy="175" r="2"></circle><circle cx="569" cy="168" r="2"></circle><circle cx="581" cy="163" r="2"></circle><circle cx="594" cy="170" r="2"></circle><circle cx="606" cy="163" r="2"></circle><circle cx="619" cy="167" r="2"></circle><circle cx="631" cy="125" r="2"></circle><circle cx="644" cy="128" r="2"></circle><circle cx="656" cy="131" r="2"></circle><circle cx="669" cy="162" r="2"></circle><circle cx="681" cy="140" r="2"></circle><circle cx="694" cy="160" r="2"></circle><circle cx="706" cy="134" r="2"></circle><circle cx="719" cy="92" r="2"></circle></g></g><g class="key-China_0"><path stroke="#ca2628" stroke-linecap="round" d="M69 522L81 523L94 522L106 522L119 521L131 521L144 520L156 519L169 520L181 520L194 520L206 519L219 516L231 516L244 516L256 516L269 516L281 514L294 513L306 513L319 510L331 511L344 507L356 506L369 502L381 498L394 490L406 491L419 487L431 487L444 480L456 476L469 462L481 453L494 439L506 430L519 421L531 418L544 402L556 402L569 393L581 388L594 377L606 362L619 356L631 345L644 335L656 326L669 311L681 299L694 278L706 255L719 249" fill="none" stroke-width="1.5"></path><g fill="#ca2628"><circle cx="69" cy="522" r="2"></circle><circle cx="81" cy="523" r="2"></circle><circle cx="94" cy="522" r="2"></circle><circle cx="106" cy="522" r="2"></circle><circle cx="119" cy="521" r="2"></circle><circle cx="131" cy="521" r="2"></circle><circle cx="144" cy="520" r="2"></circle><circle cx="156" cy="519" r="2"></circle><circle cx="169" cy="520" r="2"></circle><circle cx="181" cy="520" r="2"></circle><circle cx="194" cy="520" r="2"></circle><circle cx="206" cy="519" r="2"></circle><circle cx="219" cy="516" r="2"></circle><circle cx="231" cy="516" r="2"></circle><circle cx="244" cy="516" r="2"></circle><circle cx="256" cy="516" r="2"></circle><circle cx="269" cy="516" r="2"></circle><circle cx="281" cy="514" r="2"></circle><circle cx="294" cy="513" r="2"></circle><circle cx="306" cy="513" r="2"></circle><circle cx="319" cy="510" r="2"></circle><circle cx="331" cy="511" r="2"></circle><circle cx="344" cy="507" r="2"></circle><circle cx="356" cy="506" r="2"></circle><circle cx="369" cy="502" r="2"></circle><circle cx="381" cy="498" r="2"></circle><circle cx="394" cy="490" r="2"></circle><circle cx="406" cy="491" r="2"></circle><circle cx="419" cy="487" r="2"></circle><circle cx="431" cy="487" r="2"></circle><circle cx="444" cy="480" r="2"></circle><circle cx="456" cy="476" r="2"></circle><circle cx="469" cy="462" r="2"></circle><circle cx="481" cy="453" r="2"></circle><circle cx="494" cy="439" r="2"></circle><circle cx="506" cy="430" r="2"></circle><circle cx="519" cy="421" r="2"></circle><circle cx="531" cy="418" r="2"></circle><circle cx="544" cy="402" r="2"></circle><circle cx="556" cy="402" r="2"></circle><circle cx="569" cy="393" r="2"></circle><circle cx="581" cy="388" r="2"></circle><circle cx="594" cy="377" r="2"></circle><circle cx="606" cy="362" r="2"></circle><circle cx="619" cy="356" r="2"></circle><circle cx="631" cy="345" r="2"></circle><circle cx="644" cy="335" r="2"></circle><circle cx="656" cy="326" r="2"></circle><circle cx="669" cy="311" r="2"></circle><circle cx="681" cy="299" r="2"></circle><circle cx="694" cy="278" r="2"></circle><circle cx="706" cy="255" r="2"></circle><circle cx="719" cy="249" r="2"></circle></g></g><g class="key-United-States_0"><path stroke="#34983f" stroke-linecap="round" d="M69 302L81 296L94 322L106 314L119 303L131 290L144 279L156 300L169 258L181 266L194 251L206 270L219 239L231 246L244 228L256 235L269 222L281 225L294 220L306 199L319 211L331 226L344 196L356 182L369 203L381 166L394 143L406 175L419 177L431 174L444 213L456 204L469 176L481 170L494 197L506 192L519 170L531 172L544 194L556 154L569 192L581 199L594 187L606 182L619 201L631 205L644 201L656 185L669 203L681 221L694 238L706 221L719 217" fill="none" stroke-width="1.5"></path><g fill="#34983f"><circle cx="69" cy="302" r="2"></circle><circle cx="81" cy="296" r="2"></circle><circle cx="94" cy="322" r="2"></circle><circle cx="106" cy="314" r="2"></circle><circle cx="119" cy="303" r="2"></circle><circle cx="131" cy="290" r="2"></circle><circle cx="144" cy="279" r="2"></circle><circle cx="156" cy="300" r="2"></circle><circle cx="169" cy="258" r="2"></circle><circle cx="181" cy="266" r="2"></circle><circle cx="194" cy="251" r="2"></circle><circle cx="206" cy="270" r="2"></circle><circle cx="219" cy="239" r="2"></circle><circle cx="231" cy="246" r="2"></circle><circle cx="244" cy="228" r="2"></circle><circle cx="256" cy="235" r="2"></circle><circle cx="269" cy="222" r="2"></circle><circle cx="281" cy="225" r="2"></circle><circle cx="294" cy="220" r="2"></circle><circle cx="306" cy="199" r="2"></circle><circle cx="319" cy="211" r="2"></circle><circle cx="331" cy="226" r="2"></circle><circle cx="344" cy="196" r="2"></circle><circle cx="356" cy="182" r="2"></circle><circle cx="369" cy="203" r="2"></circle><circle cx="381" cy="166" r="2"></circle><circle cx="394" cy="143" r="2"></circle><circle cx="406" cy="175" r="2"></circle><circle cx="419" cy="177" r="2"></circle><circle cx="431" cy="174" r="2"></circle><circle cx="444" cy="213" r="2"></circle><circle cx="456" cy="204" r="2"></circle><circle cx="469" cy="176" r="2"></circle><circle cx="481" cy="170" r="2"></circle><circle cx="494" cy="197" r="2"></circle><circle cx="506" cy="192" r="2"></circle><circle cx="519" cy="170" r="2"></circle><circle cx="531" cy="172" r="2"></circle><circle cx="544" cy="194" r="2"></circle><circle cx="556" cy="154" r="2"></circle><circle cx="569" cy="192" r="2"></circle><circle cx="581" cy="199" r="2"></circle><circle cx="594" cy="187" r="2"></circle><circle cx="606" cy="182" r="2"></circle><circle cx="619" cy="201" r="2"></circle><circle cx="631" cy="205" r="2"></circle><circle cx="644" cy="201" r="2"></circle><circle cx="656" cy="185" r="2"></circle><circle cx="669" cy="203" r="2"></circle><circle cx="681" cy="221" r="2"></circle><circle cx="694" cy="238" r="2"></circle><circle cx="706" cy="221" r="2"></circle><circle cx="719" cy="217" r="2"></circle></g></g><g class="key-World_0"><path stroke="#3360a9" stroke-linecap="round" d="M69 420L81 417L94 417L106 415L119 412L131 409L144 405L156 404L169 403L181 402L194 402L206 404L219 401L231 402L244 400L256 398L269 400L281 399L294 394L306 392L319 396L331 392L344 390L356 390L369 388L381 384L394 383L406 384L419 381L431 384L444 385L456 376L469 374L481 371L494 367L506 362L519 356L531 360L544 353L556 349L569 351L581 345L594 342L606 335L619 331L631 324L644 321L656 315L669 313L681 312L694 305L706 301L719 298" fill="none" stroke-width="1.5"></path><g fill="#3360a9"><circle cx="69" cy="420" r="2"></circle><circle cx="81" cy="417" r="2"></circle><circle cx="94" cy="417" r="2"></circle><circle cx="106" cy="415" r="2"></circle><circle cx="119" cy="412" r="2"></circle><circle cx="131" cy="409" r="2"></circle><circle cx="144" cy="405" r="2"></circle><circle cx="156" cy="404" r="2"></circle><circle cx="169" cy="403" r="2"></circle><circle cx="181" cy="402" r="2"></circle><circle cx="194" cy="402" r="2"></circle><circle cx="206" cy="404" r="2"></circle><circle cx="219" cy="401" r="2"></circle><circle cx="231" cy="402" r="2"></circle><circle cx="244" cy="400" r="2"></circle><circle cx="256" cy="398" r="2"></circle><circle cx="269" cy="400" r="2"></circle><circle cx="281" cy="399" r="2"></circle><circle cx="294" cy="394" r="2"></circle><circle cx="306" cy="392" r="2"></circle><circle cx="319" cy="396" r="2"></circle><circle cx="331" cy="392" r="2"></circle><circle cx="344" cy="390" r="2"></circle><circle cx="356" cy="390" r="2"></circle><circle cx="369" cy="388" r="2"></circle><circle cx="381" cy="384" r="2"></circle><circle cx="394" cy="383" r="2"></circle><circle cx="406" cy="384" r="2"></circle><circle cx="419" cy="381" r="2"></circle><circle cx="431" cy="384" r="2"></circle><circle cx="444" cy="385" r="2"></circle><circle cx="456" cy="376" r="2"></circle><circle cx="469" cy="374" r="2"></circle><circle cx="481" cy="371" r="2"></circle><circle cx="494" cy="367" r="2"></circle><circle cx="506" cy="362" r="2"></circle><circle cx="519" cy="356" r="2"></circle><circle cx="531" cy="360" r="2"></circle><circle cx="544" cy="353" r="2"></circle><circle cx="556" cy="349" r="2"></circle><circle cx="569" cy="351" r="2"></circle><circle cx="581" cy="345" r="2"></circle><circle cx="594" cy="342" r="2"></circle><circle cx="606" cy="335" r="2"></circle><circle cx="619" cy="331" r="2"></circle><circle cx="631" cy="324" r="2"></circle><circle cx="644" cy="321" r="2"></circle><circle cx="656" cy="315" r="2"></circle><circle cx="669" cy="313" r="2"></circle><circle cx="681" cy="312" r="2"></circle><circle cx="694" cy="305" r="2"></circle><circle cx="706" cy="301" r="2"></circle><circle cx="719" cy="298" r="2"></circle></g></g></g></g></g><g style="fill: #777;" class="SourcesFooter"><g style="fill: #777;" class="clickable"><text font-size="12.60" x="15.0" y="581.6"><tspan x="15" y="581.58">Source: FAOstat</tspan></text></g><text font-size="12.60" x="543.7" y="581.6"><tspan x="543.688" y="581.58"><a target='_blank' style='fill: #777;' href='https://ourworldindata.org/diet-compositions/'>OurWorldInData.org/diet-compositions/</a> • <a style="fill: #777;" class="cclogo" href="http://creativecommons.org/licenses/by-sa/4.0/deed.en_US" target="_blank">CC BY-SA</a></tspan></text></g></g></svg>