<svg xmlns="http://www.w3.org/2000/svg" version="1.1" style="font-family: 'Helvetica Neue', Helvetica, Arial, sans-serif; font-size: 18px; background-color: white; text-rendering: optimizeLegibility; -webkit-font-smoothing: antialiased;" width="850" height="600"><g class="ChartTab"><g class="HeaderView"><g opacity="0.8" transform="translate(778, 15) scale(0.27)"><a xmlns:xlink="http://www.w3.org/1999/xlink" xlink:href="https://ourworldindata.org" target="_blank"><g><rect x="0" y="0" fill="#1B2543" width="211.2" height="130.1"/><rect x="0" y="112.2" fill="#E63912" width="211.2" height="17.9"/><g><rect x="1.2" y="12.3" fill="none" width="210.2" height="99.2"/><path fill="#FFFFFF" d="M37.8,32.2c0,12.7-7.7,19.4-17.1,19.4c-9.7,0-16.6-7.5-16.6-18.7c0-11.7,7.3-19.3,17.1-19.3 C31.3,13.7,37.8,21.3,37.8,32.2z M9.2,32.8c0,7.9,4.3,14.9,11.8,14.9c7.5,0,11.8-6.9,11.8-15.3c0-7.3-3.8-14.9-11.8-14.9 C13.1,17.5,9.2,24.8,9.2,32.8z"/><path fill="#FFFFFF" d="M62.7,43.8c0,2.7,0.1,5.1,0.2,7.2h-4.3l-0.3-4.3h-0.1c-1.3,2.1-4,4.9-8.8,4.9c-4.2,0-9.1-2.3-9.1-11.6 V24.6h4.8v14.6c0,5,1.5,8.4,5.9,8.4c3.2,0,5.5-2.2,6.3-4.4c0.3-0.7,0.4-1.6,0.4-2.5V24.6h4.8V43.8z"/><path fill="#FFFFFF" d="M67.3,32.8c0-3.1-0.1-5.8-0.2-8.2h4.2l0.2,5.2h0.2c1.2-3.5,4.1-5.8,7.3-5.8c0.5,0,0.9,0.1,1.4,0.2v4.5 c-0.5-0.1-1-0.2-1.6-0.2c-3.4,0-5.8,2.6-6.5,6.2c-0.1,0.7-0.2,1.4-0.2,2.2V51h-4.8V32.8z"/><path fill="#FFFFFF" d="M95.4,51l-9.4-36.8h5l4.4,18.6c1.1,4.6,2.1,9.2,2.7,12.7h0.1c0.6-3.7,1.8-8,3-12.8l4.9-18.5h5l4.5,18.7 c1,4.4,2,8.7,2.6,12.6h0.1c0.8-4,1.8-8.1,3-12.7l4.9-18.5h4.9L120.6,51h-5L111,31.9c-1.1-4.7-1.9-8.3-2.4-12h-0.1 c-0.7,3.7-1.5,7.3-2.8,12L100.4,51H95.4z"/><path fill="#FFFFFF" d="M154.9,37.6c0,9.8-6.8,14-13.2,14c-7.2,0-12.7-5.2-12.7-13.6c0-8.8,5.8-14,13.1-14 C149.8,24,154.9,29.5,154.9,37.6z M133.9,37.9c0,5.8,3.3,10.1,8,10.1c4.6,0,8-4.3,8-10.3c0-4.5-2.2-10.1-7.9-10.1 C136.3,27.6,133.9,32.8,133.9,37.9z"/><path fill="#FFFFFF" d="M158.2,32.8c0-3.1-0.1-5.8-0.2-8.2h4.2l0.2,5.2h0.2c1.2-3.5,4.1-5.8,7.3-5.8c0.5,0,0.9,0.1,1.4,0.2v4.5 c-0.5-0.1-1-0.2-1.6-0.2c-3.4,0-5.8,2.6-6.5,6.2c-0.1,0.7-0.2,1.4-0.2,2.2V51h-4.8V32.8z"/><path fill="#FFFFFF" d="M173.5,12.3h4.8V51h-4.8V12.3z"/><path fill="#FFFFFF" d="M206.5,12.3v31.9c0,2.3,0.1,5,0.2,6.8h-4.3l-0.2-4.6H202c-1.5,2.9-4.7,5.2-9,5.2 c-6.4,0-11.3-5.4-11.3-13.4c-0.1-8.8,5.4-14.2,11.9-14.2c4,0,6.8,1.9,8,4h0.1V12.3H206.5z M201.7,35.4c0-0.6-0.1-1.4-0.2-2 c-0.7-3.1-3.3-5.6-6.9-5.6c-5,0-7.9,4.4-7.9,10.2c0,5.3,2.6,9.8,7.8,9.8c3.2,0,6.2-2.1,7.1-5.7c0.2-0.7,0.2-1.3,0.2-2.1V35.4z"/><path fill="#FFFFFF" d="M42.8,64c0.1,1.6-1.1,2.9-3.1,2.9c-1.7,0-2.9-1.3-2.9-2.9c0-1.7,1.3-3,3-3C41.7,61,42.8,62.3,42.8,64z M37.4,97.8V71.4h4.8v26.4H37.4z"/><path fill="#FFFFFF" d="M47.5,78.6c0-2.7-0.1-5-0.2-7.1h4.3l0.3,4.4h0.1c1.3-2.5,4.4-5,8.8-5c3.7,0,9.4,2.2,9.4,11.2v15.8h-4.8 V82.6c0-4.3-1.6-7.8-6.1-7.8c-3.2,0-5.6,2.2-6.5,4.9c-0.2,0.6-0.3,1.4-0.3,2.2v15.9h-4.8V78.6z"/><path fill="#FFFFFF" d="M84,61.6c2.9-0.4,6.3-0.8,10.1-0.8c6.8,0,11.7,1.6,14.9,4.6c3.3,3,5.2,7.3,5.2,13.2c0,6-1.9,10.9-5.3,14.3 c-3.4,3.4-9.1,5.3-16.3,5.3c-3.4,0-6.2-0.2-8.6-0.4V61.6z M88.8,94.1c1.2,0.2,3,0.3,4.8,0.3c10.2,0,15.7-5.7,15.7-15.6 c0.1-8.7-4.9-14.2-14.9-14.2c-2.5,0-4.3,0.2-5.6,0.5V94.1z"/><path fill="#FFFFFF" d="M132.1,97.8l-0.4-3.3h-0.2c-1.5,2.1-4.3,3.9-8.1,3.9c-5.4,0-8.1-3.8-8.1-7.6c0-6.4,5.7-9.9,15.9-9.8v-0.5 c0-2.2-0.6-6.1-6-6.1c-2.5,0-5,0.8-6.9,2l-1.1-3.2c2.2-1.4,5.4-2.3,8.7-2.3c8.1,0,10.1,5.5,10.1,10.8v9.9c0,2.3,0.1,4.5,0.4,6.3 H132.1z M131.4,84.4c-5.3-0.1-11.2,0.8-11.2,5.9c0,3.1,2.1,4.6,4.5,4.6c3.4,0,5.6-2.2,6.4-4.4c0.2-0.5,0.3-1,0.3-1.5V84.4z"/><path fill="#FFFFFF" d="M146.6,63.9v7.6h6.9v3.7h-6.9v14.2c0,3.3,0.9,5.1,3.6,5.1c1.3,0,2.2-0.2,2.8-0.3l0.2,3.6 c-0.9,0.4-2.4,0.7-4.3,0.7c-2.2,0-4-0.7-5.2-2c-1.4-1.4-1.9-3.8-1.9-6.9V75.1h-4.1v-3.7h4.1v-6.3L146.6,63.9z"/><path fill="#FFFFFF" d="M171.4,97.8l-0.4-3.3h-0.2c-1.5,2.1-4.3,3.9-8.1,3.9c-5.4,0-8.1-3.8-8.1-7.6c0-6.4,5.7-9.9,15.9-9.8v-0.5 c0-2.2-0.6-6.1-6-6.1c-2.5,0-5,0.8-6.9,2l-1.1-3.2c2.2-1.4,5.4-2.3,8.7-2.3c8.1,0,10.1,5.5,10.1,10.8v9.9c0,2.3,0.1,4.5,0.4,6.3 H171.4z M170.7,84.4c-5.3-0.1-11.2,0.8-11.2,5.9c0,3.1,2.1,4.6,4.5,4.6c3.4,0,5.6-2.2,6.4-4.4c0.2-0.5,0.3-1,0.3-1.5V84.4z"/></g></g></a></g><a href="https://ourworldindata.org/grapher/globalization-over-5-centuries-all" target="_blank"><text font-size="25.20" x="15.0" y="35.2" fill="#555"><tspan x="15" y="35.160000000000004">Globalization over 5 centuries</tspan></text></a><text font-size="14.40" x="15.0" y="53.7" fill="#666"><tspan x="15" y="53.72">Shown is the &quot;trade openness index&quot;. This index is defined as the sum of world exports and imports, divided by world</tspan><tspan x="15" y="69.56">GDP. Each series corresponds to a different source.</tspan></text></g><g class="LineChart"><defs><clipPath id="boundsClip-407"><rect x="42.562" y="0" width="830" height="928.8"></rect></clipPath></defs><g class="AxisBoxView"><g class="HorizontalAxis"><text x="52.6" y="556.5" fill="#666" text-anchor="middle" font-size="16.2">1500</text><text x="153.5" y="556.5" fill="#666" text-anchor="middle" font-size="16.2">1600</text><text x="254.4" y="556.5" fill="#666" text-anchor="middle" font-size="16.2">1700</text><text x="355.3" y="556.5" fill="#666" text-anchor="middle" font-size="16.2">1800</text><text x="456.3" y="556.5" fill="#666" text-anchor="middle" font-size="16.2">1900</text><text x="573.3" y="556.5" fill="#666" text-anchor="middle" font-size="16.2">2016</text></g><g class="VerticalAxis"><text x="47.56" y="535.3" fill="#666" dominant-baseline="middle" text-anchor="end" font-size="16.2">0%</text><text x="47.56" y="464" fill="#666" dominant-baseline="middle" text-anchor="end" font-size="16.2">10%</text><text x="47.56" y="392.6" fill="#666" dominant-baseline="middle" text-anchor="end" font-size="16.2">20%</text><text x="47.56" y="321.3" fill="#666" dominant-baseline="middle" text-anchor="end" font-size="16.2">30%</text><text x="47.56" y="249.9" fill="#666" dominant-baseline="middle" text-anchor="end" font-size="16.2">40%</text><text x="47.56" y="178.6" fill="#666" dominant-baseline="middle" text-anchor="end" font-size="16.2">50%</text><text x="47.56" y="107.2" fill="#666" dominant-baseline="middle" text-anchor="end" font-size="16.2">60%</text></g><g class="AxisGridLines"><line x1="52.56" y1="535.3" x2="573.34" y2="535.3" stroke="#ccc"></line><line x1="52.56" y1="464" x2="573.34" y2="464" stroke="#ddd" stroke-dasharray="3,2"></line><line x1="52.56" y1="392.6" x2="573.34" y2="392.6" stroke="#ddd" stroke-dasharray="3,2"></line><line x1="52.56" y1="321.3" x2="573.34" y2="321.3" stroke="#ddd" stroke-dasharray="3,2"></line><line x1="52.56" y1="249.9" x2="573.34" y2="249.9" stroke="#ddd" stroke-dasharray="3,2"></line><line x1="52.56" y1="178.6" x2="573.34" y2="178.6" stroke="#ddd" stroke-dasharray="3,2"></line><line x1="52.56" y1="107.2" x2="573.34" y2="107.2" stroke="#ddd" stroke-dasharray="3,2"></line></g></g><g clip-path="url(#boundsClip-407)"><g class="HeightedLegend clickable"><g class="legendMark"><g class="indicator"><line x1="578.335" y1="119.5" x2="590.835" y2="119.5" stroke="#666" stroke-width="0.5"></line><line x1="590.835" y1="119.5" x2="590.835" y2="119.5" stroke="#666" stroke-width="0.5"></line><line x1="590.835" y1="119.5" x2="603.335" y2="119.5" stroke="#666" stroke-width="0.5"></line></g><rect x="573.335" y="112.75" width="181.745" height="13.5" fill="#fff" opacity="0"></rect><text font-size="13.50" x="608.3" y="123.5" fill="#2a939b"><tspan x="608.335" y="123.55">Penn World Tables (9.0)</tspan></text></g><g class="legendMark"><g class="indicator"><line x1="578.335" y1="134.3" x2="590.835" y2="134.3" stroke="#666" stroke-width="0.5"></line><line x1="590.835" y1="134.3" x2="590.835" y2="134.3" stroke="#666" stroke-width="0.5"></line><line x1="590.835" y1="134.3" x2="603.335" y2="134.3" stroke="#666" stroke-width="0.5"></line></g><rect x="573.335" y="127.55000000000001" width="216.305" height="13.5" fill="#fff" opacity="0"></rect><text font-size="13.50" x="608.3" y="138.4" fill="#a652ba"><tspan x="608.335" y="138.35000000000002">World Development Indicators</tspan></text></g><g class="legendMark"><g class="indicator"><line x1="578.335" y1="418.6" x2="590.835" y2="418.6" stroke="#666" stroke-width="0.5"></line><line x1="590.835" y1="418.6" x2="590.835" y2="418.6" stroke="#666" stroke-width="0.5"></line><line x1="590.835" y1="418.6" x2="603.335" y2="418.6" stroke="#666" stroke-width="0.5"></line></g><rect x="573.335" y="411.85" width="197.54000000000002" height="13.5" fill="#fff" opacity="0"></rect><text font-size="13.50" x="608.3" y="422.7" fill="#f6a324"><tspan x="608.335" y="422.65000000000003">Klasing and Milionis (2014)</tspan></text></g><g class="legendMark"><g class="indicator"><line x1="578.335" y1="447" x2="600.835" y2="447" stroke="#666" stroke-width="0.5"></line><line x1="600.835" y1="447" x2="600.835" y2="447" stroke="#666" stroke-width="0.5"></line><line x1="600.835" y1="447" x2="603.335" y2="447" stroke="#666" stroke-width="0.5"></line></g><rect x="573.335" y="432.95" width="261.665" height="28.1" fill="#fff" opacity="0"></rect><text font-size="13.50" x="608.3" y="443.8" fill="#34983f"><tspan x="608.335" y="443.75">Klasing and Milionis (2014) (based on</tspan><tspan x="608.335" y="458.6">Maddison)</tspan></text></g><g class="legendMark"><g class="indicator"><line x1="578.335" y1="467.5" x2="590.835" y2="467.5" stroke="#666" stroke-width="0.5"></line><line x1="590.835" y1="467.5" x2="590.835" y2="477.1" stroke="#666" stroke-width="0.5"></line><line x1="590.835" y1="477.1" x2="603.335" y2="477.1" stroke="#666" stroke-width="0.5"></line></g><rect x="573.335" y="463.05" width="239.12" height="28.1" fill="#fff" opacity="0"></rect><text font-size="13.50" x="608.3" y="473.9" fill="#ca2628"><tspan x="608.335" y="473.85">Estevadeordal, Frantz, and Taylor</tspan><tspan x="608.335" y="488.70000000000005">(2003) (upper bound)</tspan></text></g><g class="legendMark"><g class="indicator"><line x1="578.335" y1="521" x2="590.835" y2="521" stroke="#666" stroke-width="0.5"></line><line x1="590.835" y1="521" x2="590.835" y2="521" stroke="#666" stroke-width="0.5"></line><line x1="590.835" y1="521" x2="603.335" y2="521" stroke="#666" stroke-width="0.5"></line></g><rect x="573.335" y="506.95" width="239.12" height="28.1" fill="#fff" opacity="0"></rect><text font-size="13.50" x="608.3" y="517.8" fill="#3360a9"><tspan x="608.335" y="517.75">Estevadeordal, Frantz, and Taylor</tspan><tspan x="608.335" y="532.6">(2003) (lower bound)</tspan></text></g></g><g class="Lines"><rect x="53" y="92" width="521" height="443" fill="rgba(255,255,255,0)" opacity="0"></rect><g class="key-World_0"><path stroke="#34983f" stroke-linecap="round" d="M426 451L427 438L428 433L429 435L430 431L431 429L432 428L433 427L434 422L435 421L436 421L437 420L438 419L439 417L440 422L441 425L442 424L443 426L444 423L445 415L446 414L447 416L448 426L449 427L450 424L451 429L452 415L453 413L454 412L455 409L456 412L457 412L458 411L459 411L460 409L461 402L462 395L463 395L464 400L465 396L466 395L467 389L468 383L469 386L470 436L471 431L472 414L473 389L474 402L475 413L476 419L478 454L479 445L480 438L481 435L482 430L483 435L484 432L485 430L486 432L487 447L488 460L489 478L490 476L491 460L492 463L493 461L494 450L495 463L496 463L497 457L498 462L499 469L500 463L501 466L502 475L503 453L504 428L505 443L506 447" fill="none" stroke-width="1.5"></path><g fill="#34983f"><circle cx="426" cy="451" r="2"></circle><circle cx="427" cy="438" r="2"></circle><circle cx="428" cy="433" r="2"></circle><circle cx="429" cy="435" r="2"></circle><circle cx="430" cy="431" r="2"></circle><circle cx="431" cy="429" r="2"></circle><circle cx="432" cy="428" r="2"></circle><circle cx="433" cy="427" r="2"></circle><circle cx="434" cy="422" r="2"></circle><circle cx="435" cy="421" r="2"></circle><circle cx="436" cy="421" r="2"></circle><circle cx="437" cy="420" r="2"></circle><circle cx="438" cy="419" r="2"></circle><circle cx="439" cy="417" r="2"></circle><circle cx="440" cy="422" r="2"></circle><circle cx="441" cy="425" r="2"></circle><circle cx="442" cy="424" r="2"></circle><circle cx="443" cy="426" r="2"></circle><circle cx="444" cy="423" r="2"></circle><circle cx="445" cy="415" r="2"></circle><circle cx="446" cy="414" r="2"></circle><circle cx="447" cy="416" r="2"></circle><circle cx="448" cy="426" r="2"></circle><circle cx="449" cy="427" r="2"></circle><circle cx="450" cy="424" r="2"></circle><circle cx="451" cy="429" r="2"></circle><circle cx="452" cy="415" r="2"></circle><circle cx="453" cy="413" r="2"></circle><circle cx="454" cy="412" r="2"></circle><circle cx="455" cy="409" r="2"></circle><circle cx="456" cy="412" r="2"></circle><circle cx="457" cy="412" r="2"></circle><circle cx="458" cy="411" r="2"></circle><circle cx="459" cy="411" r="2"></circle><circle cx="460" cy="409" r="2"></circle><circle cx="461" cy="402" r="2"></circle><circle cx="462" cy="395" r="2"></circle><circle cx="463" cy="395" r="2"></circle><circle cx="464" cy="400" r="2"></circle><circle cx="465" cy="396" r="2"></circle><circle cx="466" cy="395" r="2"></circle><circle cx="467" cy="389" r="2"></circle><circle cx="468" cy="383" r="2"></circle><circle cx="469" cy="386" r="2"></circle><circle cx="470" cy="436" r="2"></circle><circle cx="471" cy="431" r="2"></circle><circle cx="472" cy="414" r="2"></circle><circle cx="473" cy="389" r="2"></circle><circle cx="474" cy="402" r="2"></circle><circle cx="475" cy="413" r="2"></circle><circle cx="476" cy="419" r="2"></circle><circle cx="478" cy="454" r="2"></circle><circle cx="479" cy="445" r="2"></circle><circle cx="480" cy="438" r="2"></circle><circle cx="481" cy="435" r="2"></circle><circle cx="482" cy="430" r="2"></circle><circle cx="483" cy="435" r="2"></circle><circle cx="484" cy="432" r="2"></circle><circle cx="485" cy="430" r="2"></circle><circle cx="486" cy="432" r="2"></circle><circle cx="487" cy="447" r="2"></circle><circle cx="488" cy="460" r="2"></circle><circle cx="489" cy="478" r="2"></circle><circle cx="490" cy="476" r="2"></circle><circle cx="491" cy="460" r="2"></circle><circle cx="492" cy="463" r="2"></circle><circle cx="493" cy="461" r="2"></circle><circle cx="494" cy="450" r="2"></circle><circle cx="495" cy="463" r="2"></circle><circle cx="496" cy="463" r="2"></circle><circle cx="497" cy="457" r="2"></circle><circle cx="498" cy="462" r="2"></circle><circle cx="499" cy="469" r="2"></circle><circle cx="500" cy="463" r="2"></circle><circle cx="501" cy="466" r="2"></circle><circle cx="502" cy="475" r="2"></circle><circle cx="503" cy="453" r="2"></circle><circle cx="504" cy="428" r="2"></circle><circle cx="505" cy="443" r="2"></circle><circle cx="506" cy="447" r="2"></circle></g></g><g class="key-World_1"><path stroke="#2a939b" stroke-linecap="round" d="M507 395L508 374L509 392L510 403L511 399L512 394L513 387L514 384L515 397L516 395L517 379L518 382L519 384L520 380L521 379L522 380L523 377L524 379L525 374L526 370L527 356L528 355L529 350L530 328L531 283L532 296L533 289L534 287L535 293L536 273L537 253L538 257L539 270L540 281L541 276L542 282L543 295L544 288L545 282L546 275L547 263L548 268L549 254L550 268L551 258L552 240L553 232L554 221L555 223L556 221L557 195L558 204L559 201L560 188L561 160L562 141L563 119L564 107L565 92L566 162L567 127L568 103L569 109L570 111L571 120" fill="none" stroke-width="1.5"></path><g fill="#2a939b"><circle cx="507" cy="395" r="2"></circle><circle cx="508" cy="374" r="2"></circle><circle cx="509" cy="392" r="2"></circle><circle cx="510" cy="403" r="2"></circle><circle cx="511" cy="399" r="2"></circle><circle cx="512" cy="394" r="2"></circle><circle cx="513" cy="387" r="2"></circle><circle cx="514" cy="384" r="2"></circle><circle cx="515" cy="397" r="2"></circle><circle cx="516" cy="395" r="2"></circle><circle cx="517" cy="379" r="2"></circle><circle cx="518" cy="382" r="2"></circle><circle cx="519" cy="384" r="2"></circle><circle cx="520" cy="380" r="2"></circle><circle cx="521" cy="379" r="2"></circle><circle cx="522" cy="380" r="2"></circle><circle cx="523" cy="377" r="2"></circle><circle cx="524" cy="379" r="2"></circle><circle cx="525" cy="374" r="2"></circle><circle cx="526" cy="370" r="2"></circle><circle cx="527" cy="356" r="2"></circle><circle cx="528" cy="355" r="2"></circle><circle cx="529" cy="350" r="2"></circle><circle cx="530" cy="328" r="2"></circle><circle cx="531" cy="283" r="2"></circle><circle cx="532" cy="296" r="2"></circle><circle cx="533" cy="289" r="2"></circle><circle cx="534" cy="287" r="2"></circle><circle cx="535" cy="293" r="2"></circle><circle cx="536" cy="273" r="2"></circle><circle cx="537" cy="253" r="2"></circle><circle cx="538" cy="257" r="2"></circle><circle cx="539" cy="270" r="2"></circle><circle cx="540" cy="281" r="2"></circle><circle cx="541" cy="276" r="2"></circle><circle cx="542" cy="282" r="2"></circle><circle cx="543" cy="295" r="2"></circle><circle cx="544" cy="288" r="2"></circle><circle cx="545" cy="282" r="2"></circle><circle cx="546" cy="275" r="2"></circle><circle cx="547" cy="263" r="2"></circle><circle cx="548" cy="268" r="2"></circle><circle cx="549" cy="254" r="2"></circle><circle cx="550" cy="268" r="2"></circle><circle cx="551" cy="258" r="2"></circle><circle cx="552" cy="240" r="2"></circle><circle cx="553" cy="232" r="2"></circle><circle cx="554" cy="221" r="2"></circle><circle cx="555" cy="223" r="2"></circle><circle cx="556" cy="221" r="2"></circle><circle cx="557" cy="195" r="2"></circle><circle cx="558" cy="204" r="2"></circle><circle cx="559" cy="201" r="2"></circle><circle cx="560" cy="188" r="2"></circle><circle cx="561" cy="160" r="2"></circle><circle cx="562" cy="141" r="2"></circle><circle cx="563" cy="119" r="2"></circle><circle cx="564" cy="107" r="2"></circle><circle cx="565" cy="92" r="2"></circle><circle cx="566" cy="162" r="2"></circle><circle cx="567" cy="127" r="2"></circle><circle cx="568" cy="103" r="2"></circle><circle cx="569" cy="109" r="2"></circle><circle cx="570" cy="111" r="2"></circle><circle cx="571" cy="120" r="2"></circle></g></g><g class="key-World_2"><path stroke="#ca2628" stroke-linecap="round" d="M53 519L154 496L254 496L376 468" fill="none" stroke-width="1.5"></path><g fill="#ca2628"><circle cx="53" cy="519" r="2"></circle><circle cx="154" cy="496" r="2"></circle><circle cx="254" cy="496" r="2"></circle><circle cx="376" cy="468" r="2"></circle></g></g><g class="key-World_3"><path stroke="#f6a324" stroke-linecap="round" d="M426 410L427 389L428 383L429 387L430 381L431 379L432 378L433 377L434 369L435 366L436 367L437 366L438 365L439 362L440 369L441 375L442 374L443 377L444 372L445 362L446 360L447 363L448 378L449 379L450 377L451 384L452 364L453 361L454 361L455 357L456 362L457 361L458 360L459 359L460 357L461 348L462 338L463 339L464 346L465 341L466 339L467 331L468 324L469 328L470 407L471 401L472 380L473 350L474 368L475 375L476 381L478 427L479 416L480 407L481 403L482 397L483 404L484 400L485 399L486 402L487 421L488 437L489 462L490 459L491 439L492 442L493 439L494 426L495 443L496 443L497 436L498 445L499 451L500 446L501 450L502 463L503 428L504 394L505 413L506 419" fill="none" stroke-width="1.5"></path><g fill="#f6a324"><circle cx="426" cy="410" r="2"></circle><circle cx="427" cy="389" r="2"></circle><circle cx="428" cy="383" r="2"></circle><circle cx="429" cy="387" r="2"></circle><circle cx="430" cy="381" r="2"></circle><circle cx="431" cy="379" r="2"></circle><circle cx="432" cy="378" r="2"></circle><circle cx="433" cy="377" r="2"></circle><circle cx="434" cy="369" r="2"></circle><circle cx="435" cy="366" r="2"></circle><circle cx="436" cy="367" r="2"></circle><circle cx="437" cy="366" r="2"></circle><circle cx="438" cy="365" r="2"></circle><circle cx="439" cy="362" r="2"></circle><circle cx="440" cy="369" r="2"></circle><circle cx="441" cy="375" r="2"></circle><circle cx="442" cy="374" r="2"></circle><circle cx="443" cy="377" r="2"></circle><circle cx="444" cy="372" r="2"></circle><circle cx="445" cy="362" r="2"></circle><circle cx="446" cy="360" r="2"></circle><circle cx="447" cy="363" r="2"></circle><circle cx="448" cy="378" r="2"></circle><circle cx="449" cy="379" r="2"></circle><circle cx="450" cy="377" r="2"></circle><circle cx="451" cy="384" r="2"></circle><circle cx="452" cy="364" r="2"></circle><circle cx="453" cy="361" r="2"></circle><circle cx="454" cy="361" r="2"></circle><circle cx="455" cy="357" r="2"></circle><circle cx="456" cy="362" r="2"></circle><circle cx="457" cy="361" r="2"></circle><circle cx="458" cy="360" r="2"></circle><circle cx="459" cy="359" r="2"></circle><circle cx="460" cy="357" r="2"></circle><circle cx="461" cy="348" r="2"></circle><circle cx="462" cy="338" r="2"></circle><circle cx="463" cy="339" r="2"></circle><circle cx="464" cy="346" r="2"></circle><circle cx="465" cy="341" r="2"></circle><circle cx="466" cy="339" r="2"></circle><circle cx="467" cy="331" r="2"></circle><circle cx="468" cy="324" r="2"></circle><circle cx="469" cy="328" r="2"></circle><circle cx="470" cy="407" r="2"></circle><circle cx="471" cy="401" r="2"></circle><circle cx="472" cy="380" r="2"></circle><circle cx="473" cy="350" r="2"></circle><circle cx="474" cy="368" r="2"></circle><circle cx="475" cy="375" r="2"></circle><circle cx="476" cy="381" r="2"></circle><circle cx="478" cy="427" r="2"></circle><circle cx="479" cy="416" r="2"></circle><circle cx="480" cy="407" r="2"></circle><circle cx="481" cy="403" r="2"></circle><circle cx="482" cy="397" r="2"></circle><circle cx="483" cy="404" r="2"></circle><circle cx="484" cy="400" r="2"></circle><circle cx="485" cy="399" r="2"></circle><circle cx="486" cy="402" r="2"></circle><circle cx="487" cy="421" r="2"></circle><circle cx="488" cy="437" r="2"></circle><circle cx="489" cy="462" r="2"></circle><circle cx="490" cy="459" r="2"></circle><circle cx="491" cy="439" r="2"></circle><circle cx="492" cy="442" r="2"></circle><circle cx="493" cy="439" r="2"></circle><circle cx="494" cy="426" r="2"></circle><circle cx="495" cy="443" r="2"></circle><circle cx="496" cy="443" r="2"></circle><circle cx="497" cy="436" r="2"></circle><circle cx="498" cy="445" r="2"></circle><circle cx="499" cy="451" r="2"></circle><circle cx="500" cy="446" r="2"></circle><circle cx="501" cy="450" r="2"></circle><circle cx="502" cy="463" r="2"></circle><circle cx="503" cy="428" r="2"></circle><circle cx="504" cy="394" r="2"></circle><circle cx="505" cy="413" r="2"></circle><circle cx="506" cy="419" r="2"></circle></g></g><g class="key-World_4"><path stroke="#3360a9" stroke-linecap="round" d="M53 532L154 526L254 526L376 521" fill="none" stroke-width="1.5"></path><g fill="#3360a9"><circle cx="53" cy="532" r="2"></circle><circle cx="154" cy="526" r="2"></circle><circle cx="254" cy="526" r="2"></circle><circle cx="376" cy="521" r="2"></circle></g></g><g class="key-World_5"><path stroke="#a652ba" stroke-linecap="round" d="M517 364L518 362L519 368L520 364L521 365L522 364L523 359L524 362L525 352L526 348L527 345L528 344L529 343L530 322L531 285L532 299L533 294L534 292L535 296L536 280L537 259L538 256L539 263L540 269L541 258L542 262L543 282L544 275L545 265L546 258L547 258L548 259L549 241L550 247L551 240L552 225L553 223L554 209L555 206L556 202L557 169L558 177L559 180L560 171L561 148L562 134L563 117L564 114L565 101L566 161L567 129L568 104L569 103L570 106L571 108L572 123L573 134" fill="none" stroke-width="1.5"></path><g fill="#a652ba"><circle cx="517" cy="364" r="2"></circle><circle cx="518" cy="362" r="2"></circle><circle cx="519" cy="368" r="2"></circle><circle cx="520" cy="364" r="2"></circle><circle cx="521" cy="365" r="2"></circle><circle cx="522" cy="364" r="2"></circle><circle cx="523" cy="359" r="2"></circle><circle cx="524" cy="362" r="2"></circle><circle cx="525" cy="352" r="2"></circle><circle cx="526" cy="348" r="2"></circle><circle cx="527" cy="345" r="2"></circle><circle cx="528" cy="344" r="2"></circle><circle cx="529" cy="343" r="2"></circle><circle cx="530" cy="322" r="2"></circle><circle cx="531" cy="285" r="2"></circle><circle cx="532" cy="299" r="2"></circle><circle cx="533" cy="294" r="2"></circle><circle cx="534" cy="292" r="2"></circle><circle cx="535" cy="296" r="2"></circle><circle cx="536" cy="280" r="2"></circle><circle cx="537" cy="259" r="2"></circle><circle cx="538" cy="256" r="2"></circle><circle cx="539" cy="263" r="2"></circle><circle cx="540" cy="269" r="2"></circle><circle cx="541" cy="258" r="2"></circle><circle cx="542" cy="262" r="2"></circle><circle cx="543" cy="282" r="2"></circle><circle cx="544" cy="275" r="2"></circle><circle cx="545" cy="265" r="2"></circle><circle cx="546" cy="258" r="2"></circle><circle cx="547" cy="258" r="2"></circle><circle cx="548" cy="259" r="2"></circle><circle cx="549" cy="241" r="2"></circle><circle cx="550" cy="247" r="2"></circle><circle cx="551" cy="240" r="2"></circle><circle cx="552" cy="225" r="2"></circle><circle cx="553" cy="223" r="2"></circle><circle cx="554" cy="209" r="2"></circle><circle cx="555" cy="206" r="2"></circle><circle cx="556" cy="202" r="2"></circle><circle cx="557" cy="169" r="2"></circle><circle cx="558" cy="177" r="2"></circle><circle cx="559" cy="180" r="2"></circle><circle cx="560" cy="171" r="2"></circle><circle cx="561" cy="148" r="2"></circle><circle cx="562" cy="134" r="2"></circle><circle cx="563" cy="117" r="2"></circle><circle cx="564" cy="114" r="2"></circle><circle cx="565" cy="101" r="2"></circle><circle cx="566" cy="161" r="2"></circle><circle cx="567" cy="129" r="2"></circle><circle cx="568" cy="104" r="2"></circle><circle cx="569" cy="103" r="2"></circle><circle cx="570" cy="106" r="2"></circle><circle cx="571" cy="108" r="2"></circle><circle cx="572" cy="123" r="2"></circle><circle cx="573" cy="134" r="2"></circle></g></g></g></g></g><g style="fill: #777;" class="SourcesFooter"><g style="fill: #777;" class="clickable"><text font-size="12.60" x="15.0" y="581.6"><tspan x="15" y="581.58">Source: Klasing and Milionis (2014), Penn World Tables 9.0, Estevadeordal, Frantz, and Taylor (2003), World Bank</tspan></text></g><text font-size="12.60" x="775.4" y="581.6"><tspan x="775.402" y="581.58"><a style="fill: #777;" class="cclogo" href="http://creativecommons.org/licenses/by-sa/4.0/deed.en_US" target="_blank">CC BY-SA</a></tspan></text></g></g></svg>