<svg xmlns="http://www.w3.org/2000/svg" version="1.1" style="font-family: 'Helvetica Neue', Helvetica, Arial, sans-serif; font-size: 18px; background-color: white; text-rendering: optimizeLegibility; -webkit-font-smoothing: antialiased;" width="850" height="600"><g class="ChartTab"><g class="HeaderView"><g opacity="0.8" transform="translate(778, 15) scale(0.27)"><a xmlns:xlink="http://www.w3.org/1999/xlink" xlink:href="https://ourworldindata.org" target="_blank"><g><rect x="0" y="0" fill="#1B2543" width="211.2" height="130.1"/><rect x="0" y="112.2" fill="#E63912" width="211.2" height="17.9"/><g><rect x="1.2" y="12.3" fill="none" width="210.2" height="99.2"/><path fill="#FFFFFF" d="M37.8,32.2c0,12.7-7.7,19.4-17.1,19.4c-9.7,0-16.6-7.5-16.6-18.7c0-11.7,7.3-19.3,17.1-19.3 C31.3,13.7,37.8,21.3,37.8,32.2z M9.2,32.8c0,7.9,4.3,14.9,11.8,14.9c7.5,0,11.8-6.9,11.8-15.3c0-7.3-3.8-14.9-11.8-14.9 C13.1,17.5,9.2,24.8,9.2,32.8z"/><path fill="#FFFFFF" d="M62.7,43.8c0,2.7,0.1,5.1,0.2,7.2h-4.3l-0.3-4.3h-0.1c-1.3,2.1-4,4.9-8.8,4.9c-4.2,0-9.1-2.3-9.1-11.6 V24.6h4.8v14.6c0,5,1.5,8.4,5.9,8.4c3.2,0,5.5-2.2,6.3-4.4c0.3-0.7,0.4-1.6,0.4-2.5V24.6h4.8V43.8z"/><path fill="#FFFFFF" d="M67.3,32.8c0-3.1-0.1-5.8-0.2-8.2h4.2l0.2,5.2h0.2c1.2-3.5,4.1-5.8,7.3-5.8c0.5,0,0.9,0.1,1.4,0.2v4.5 c-0.5-0.1-1-0.2-1.6-0.2c-3.4,0-5.8,2.6-6.5,6.2c-0.1,0.7-0.2,1.4-0.2,2.2V51h-4.8V32.8z"/><path fill="#FFFFFF" d="M95.4,51l-9.4-36.8h5l4.4,18.6c1.1,4.6,2.1,9.2,2.7,12.7h0.1c0.6-3.7,1.8-8,3-12.8l4.9-18.5h5l4.5,18.7 c1,4.4,2,8.7,2.6,12.6h0.1c0.8-4,1.8-8.1,3-12.7l4.9-18.5h4.9L120.6,51h-5L111,31.9c-1.1-4.7-1.9-8.3-2.4-12h-0.1 c-0.7,3.7-1.5,7.3-2.8,12L100.4,51H95.4z"/><path fill="#FFFFFF" d="M154.9,37.6c0,9.8-6.8,14-13.2,14c-7.2,0-12.7-5.2-12.7-13.6c0-8.8,5.8-14,13.1-14 C149.8,24,154.9,29.5,154.9,37.6z M133.9,37.9c0,5.8,3.3,10.1,8,10.1c4.6,0,8-4.3,8-10.3c0-4.5-2.2-10.1-7.9-10.1 C136.3,27.6,133.9,32.8,133.9,37.9z"/><path fill="#FFFFFF" d="M158.2,32.8c0-3.1-0.1-5.8-0.2-8.2h4.2l0.2,5.2h0.2c1.2-3.5,4.1-5.8,7.3-5.8c0.5,0,0.9,0.1,1.4,0.2v4.5 c-0.5-0.1-1-0.2-1.6-0.2c-3.4,0-5.8,2.6-6.5,6.2c-0.1,0.7-0.2,1.4-0.2,2.2V51h-4.8V32.8z"/><path fill="#FFFFFF" d="M173.5,12.3h4.8V51h-4.8V12.3z"/><path fill="#FFFFFF" d="M206.5,12.3v31.9c0,2.3,0.1,5,0.2,6.8h-4.3l-0.2-4.6H202c-1.5,2.9-4.7,5.2-9,5.2 c-6.4,0-11.3-5.4-11.3-13.4c-0.1-8.8,5.4-14.2,11.9-14.2c4,0,6.8,1.9,8,4h0.1V12.3H206.5z M201.7,35.4c0-0.6-0.1-1.4-0.2-2 c-0.7-3.1-3.3-5.6-6.9-5.6c-5,0-7.9,4.4-7.9,10.2c0,5.3,2.6,9.8,7.8,9.8c3.2,0,6.2-2.1,7.1-5.7c0.2-0.7,0.2-1.3,0.2-2.1V35.4z"/><path fill="#FFFFFF" d="M42.8,64c0.1,1.6-1.1,2.9-3.1,2.9c-1.7,0-2.9-1.3-2.9-2.9c0-1.7,1.3-3,3-3C41.7,61,42.8,62.3,42.8,64z M37.4,97.8V71.4h4.8v26.4H37.4z"/><path fill="#FFFFFF" d="M47.5,78.6c0-2.7-0.1-5-0.2-7.1h4.3l0.3,4.4h0.1c1.3-2.5,4.4-5,8.8-5c3.7,0,9.4,2.2,9.4,11.2v15.8h-4.8 V82.6c0-4.3-1.6-7.8-6.1-7.8c-3.2,0-5.6,2.2-6.5,4.9c-0.2,0.6-0.3,1.4-0.3,2.2v15.9h-4.8V78.6z"/><path fill="#FFFFFF" d="M84,61.6c2.9-0.4,6.3-0.8,10.1-0.8c6.8,0,11.7,1.6,14.9,4.6c3.3,3,5.2,7.3,5.2,13.2c0,6-1.9,10.9-5.3,14.3 c-3.4,3.4-9.1,5.3-16.3,5.3c-3.4,0-6.2-0.2-8.6-0.4V61.6z M88.8,94.1c1.2,0.2,3,0.3,4.8,0.3c10.2,0,15.7-5.7,15.7-15.6 c0.1-8.7-4.9-14.2-14.9-14.2c-2.5,0-4.3,0.2-5.6,0.5V94.1z"/><path fill="#FFFFFF" d="M132.1,97.8l-0.4-3.3h-0.2c-1.5,2.1-4.3,3.9-8.1,3.9c-5.4,0-8.1-3.8-8.1-7.6c0-6.4,5.7-9.9,15.9-9.8v-0.5 c0-2.2-0.6-6.1-6-6.1c-2.5,0-5,0.8-6.9,2l-1.1-3.2c2.2-1.4,5.4-2.3,8.7-2.3c8.1,0,10.1,5.5,10.1,10.8v9.9c0,2.3,0.1,4.5,0.4,6.3 H132.1z M131.4,84.4c-5.3-0.1-11.2,0.8-11.2,5.9c0,3.1,2.1,4.6,4.5,4.6c3.4,0,5.6-2.2,6.4-4.4c0.2-0.5,0.3-1,0.3-1.5V84.4z"/><path fill="#FFFFFF" d="M146.6,63.9v7.6h6.9v3.7h-6.9v14.2c0,3.3,0.9,5.1,3.6,5.1c1.3,0,2.2-0.2,2.8-0.3l0.2,3.6 c-0.9,0.4-2.4,0.7-4.3,0.7c-2.2,0-4-0.7-5.2-2c-1.4-1.4-1.9-3.8-1.9-6.9V75.1h-4.1v-3.7h4.1v-6.3L146.6,63.9z"/><path fill="#FFFFFF" d="M171.4,97.8l-0.4-3.3h-0.2c-1.5,2.1-4.3,3.9-8.1,3.9c-5.4,0-8.1-3.8-8.1-7.6c0-6.4,5.7-9.9,15.9-9.8v-0.5 c0-2.2-0.6-6.1-6-6.1c-2.5,0-5,0.8-6.9,2l-1.1-3.2c2.2-1.4,5.4-2.3,8.7-2.3c8.1,0,10.1,5.5,10.1,10.8v9.9c0,2.3,0.1,4.5,0.4,6.3 H171.4z M170.7,84.4c-5.3-0.1-11.2,0.8-11.2,5.9c0,3.1,2.1,4.6,4.5,4.6c3.4,0,5.6-2.2,6.4-4.4c0.2-0.5,0.3-1,0.3-1.5V84.4z"/></g></g></a></g><a href="https://ourworldindata.org/grapher/government-expenditure-as-share-of-gdp-weighted-average" target="_blank"><text font-size="25.20" x="15.0" y="35.2" fill="#555"><tspan x="15" y="35.160000000000004">Government expenditure as share of GDP, weighted average</tspan></text></a><text font-size="14.40" x="15.0" y="53.7" fill="#666"><tspan x="15" y="53.72">Aggregated government expenditures (payments for operating activities of the government in providing goods and</tspan><tspan x="15" y="69.56">services), as share of aggregated GDP.</tspan></text></g><g class="LineChart"><defs><clipPath id="boundsClip-405"><rect x="42.562" y="0" width="830" height="928.8"></rect></clipPath></defs><g class="AxisBoxView"><g class="HorizontalAxis"><text x="52.6" y="556.5" fill="#666" text-anchor="middle" font-size="16.2">1972</text><text x="174.8" y="556.5" fill="#666" text-anchor="middle" font-size="16.2">1980</text><text x="327.6" y="556.5" fill="#666" text-anchor="middle" font-size="16.2">1990</text><text x="480.4" y="556.5" fill="#666" text-anchor="middle" font-size="16.2">2000</text><text x="633.1" y="556.5" fill="#666" text-anchor="middle" font-size="16.2">2010</text><text x="724.8" y="556.5" fill="#666" text-anchor="middle" font-size="16.2">2016</text></g><g class="VerticalAxis"><text x="47.56" y="505.5" fill="#666" dominant-baseline="middle" text-anchor="end" font-size="16.2">16%</text><text x="47.56" y="445.8" fill="#666" dominant-baseline="middle" text-anchor="end" font-size="16.2">18%</text><text x="47.56" y="386.2" fill="#666" dominant-baseline="middle" text-anchor="end" font-size="16.2">20%</text><text x="47.56" y="326.5" fill="#666" dominant-baseline="middle" text-anchor="end" font-size="16.2">22%</text><text x="47.56" y="266.9" fill="#666" dominant-baseline="middle" text-anchor="end" font-size="16.2">24%</text><text x="47.56" y="207.2" fill="#666" dominant-baseline="middle" text-anchor="end" font-size="16.2">26%</text><text x="47.56" y="147.5" fill="#666" dominant-baseline="middle" text-anchor="end" font-size="16.2">28%</text></g><g class="AxisGridLines"><line x1="52.56" y1="505.5" x2="724.80" y2="505.5" stroke="#ddd" stroke-dasharray="3,2"></line><line x1="52.56" y1="445.8" x2="724.80" y2="445.8" stroke="#ddd" stroke-dasharray="3,2"></line><line x1="52.56" y1="386.2" x2="724.80" y2="386.2" stroke="#ddd" stroke-dasharray="3,2"></line><line x1="52.56" y1="326.5" x2="724.80" y2="326.5" stroke="#ddd" stroke-dasharray="3,2"></line><line x1="52.56" y1="266.9" x2="724.80" y2="266.9" stroke="#ddd" stroke-dasharray="3,2"></line><line x1="52.56" y1="207.2" x2="724.80" y2="207.2" stroke="#ddd" stroke-dasharray="3,2"></line><line x1="52.56" y1="147.5" x2="724.80" y2="147.5" stroke="#ddd" stroke-dasharray="3,2"></line></g></g><g clip-path="url(#boundsClip-405)"><g class="HeightedLegend clickable"><g class="legendMark"><g class="indicator"><line x1="729.805" y1="161" x2="752.305" y2="161" stroke="#666" stroke-width="0.5"></line><line x1="752.305" y1="161" x2="752.305" y2="161" stroke="#666" stroke-width="0.5"></line><line x1="752.305" y1="161" x2="754.805" y2="161" stroke="#666" stroke-width="0.5"></line></g><rect x="724.805" y="154.25" width="110.19500000000001" height="13.5" fill="#fff" opacity="0"></rect><text font-size="13.50" x="759.8" y="165.1" fill="#ca2628"><tspan x="759.805" y="165.05">High income</tspan></text></g><g class="legendMark"><g class="indicator"><line x1="729.805" y1="162.7" x2="742.305" y2="162.7" stroke="#666" stroke-width="0.5"></line><line x1="742.305" y1="162.7" x2="742.305" y2="176.5" stroke="#666" stroke-width="0.5"></line><line x1="742.305" y1="176.5" x2="754.805" y2="176.5" stroke="#666" stroke-width="0.5"></line></g><rect x="724.805" y="169.75" width="70.235" height="13.5" fill="#fff" opacity="0"></rect><text font-size="13.50" x="759.8" y="180.6" fill="#3360a9"><tspan x="759.805" y="180.55">World</tspan></text></g></g><g class="Lines"><rect x="53" y="92" width="672" height="443" fill="rgba(255,255,255,0)" opacity="0"></rect><g class="key-World_0"><path stroke="#3360a9" stroke-linecap="round" d="M68 401L83 385L98 325L114 317L129 315L144 303L160 295L175 275L190 273L205 235L221 235L236 250L251 234L267 205L282 220L297 237L312 241L328 244L343 170L358 161L373 145L389 201L404 198L419 213L435 241L450 242L465 261L480 267L496 240L511 235L526 228L542 244L557 231L572 234L587 239L603 207L618 130L633 130L648 152L664 151L679 205L694 189L710 189L725 163" fill="none" stroke-width="1.5"></path><g fill="#3360a9"><circle cx="68" cy="401" r="2"></circle><circle cx="83" cy="385" r="2"></circle><circle cx="98" cy="325" r="2"></circle><circle cx="114" cy="317" r="2"></circle><circle cx="129" cy="315" r="2"></circle><circle cx="144" cy="303" r="2"></circle><circle cx="160" cy="295" r="2"></circle><circle cx="175" cy="275" r="2"></circle><circle cx="190" cy="273" r="2"></circle><circle cx="205" cy="235" r="2"></circle><circle cx="221" cy="235" r="2"></circle><circle cx="236" cy="250" r="2"></circle><circle cx="251" cy="234" r="2"></circle><circle cx="267" cy="205" r="2"></circle><circle cx="282" cy="220" r="2"></circle><circle cx="297" cy="237" r="2"></circle><circle cx="312" cy="241" r="2"></circle><circle cx="328" cy="244" r="2"></circle><circle cx="343" cy="170" r="2"></circle><circle cx="358" cy="161" r="2"></circle><circle cx="373" cy="145" r="2"></circle><circle cx="389" cy="201" r="2"></circle><circle cx="404" cy="198" r="2"></circle><circle cx="419" cy="213" r="2"></circle><circle cx="435" cy="241" r="2"></circle><circle cx="450" cy="242" r="2"></circle><circle cx="465" cy="261" r="2"></circle><circle cx="480" cy="267" r="2"></circle><circle cx="496" cy="240" r="2"></circle><circle cx="511" cy="235" r="2"></circle><circle cx="526" cy="228" r="2"></circle><circle cx="542" cy="244" r="2"></circle><circle cx="557" cy="231" r="2"></circle><circle cx="572" cy="234" r="2"></circle><circle cx="587" cy="239" r="2"></circle><circle cx="603" cy="207" r="2"></circle><circle cx="618" cy="130" r="2"></circle><circle cx="633" cy="130" r="2"></circle><circle cx="648" cy="152" r="2"></circle><circle cx="664" cy="151" r="2"></circle><circle cx="679" cy="205" r="2"></circle><circle cx="694" cy="189" r="2"></circle><circle cx="710" cy="189" r="2"></circle><circle cx="725" cy="163" r="2"></circle></g></g><g class="key-High-income_0"><path stroke="#ca2628" stroke-linecap="round" d="M53 405L68 383L83 358L98 299L114 290L129 287L144 275L160 268L175 235L190 235L205 203L221 196L236 213L251 206L267 178L282 191L297 217L312 227L328 224L343 110L358 111L373 103L389 170L404 142L419 175L435 205L450 202L465 225L480 234L496 214L511 205L526 196L542 210L557 202L572 210L587 218L603 179L618 95L633 92L648 115L664 117L679 132L694 144L710 154L725 161" fill="none" stroke-width="1.5"></path><g fill="#ca2628"><circle cx="53" cy="405" r="2"></circle><circle cx="68" cy="383" r="2"></circle><circle cx="83" cy="358" r="2"></circle><circle cx="98" cy="299" r="2"></circle><circle cx="114" cy="290" r="2"></circle><circle cx="129" cy="287" r="2"></circle><circle cx="144" cy="275" r="2"></circle><circle cx="160" cy="268" r="2"></circle><circle cx="175" cy="235" r="2"></circle><circle cx="190" cy="235" r="2"></circle><circle cx="205" cy="203" r="2"></circle><circle cx="221" cy="196" r="2"></circle><circle cx="236" cy="213" r="2"></circle><circle cx="251" cy="206" r="2"></circle><circle cx="267" cy="178" r="2"></circle><circle cx="282" cy="191" r="2"></circle><circle cx="297" cy="217" r="2"></circle><circle cx="312" cy="227" r="2"></circle><circle cx="328" cy="224" r="2"></circle><circle cx="343" cy="110" r="2"></circle><circle cx="358" cy="111" r="2"></circle><circle cx="373" cy="103" r="2"></circle><circle cx="389" cy="170" r="2"></circle><circle cx="404" cy="142" r="2"></circle><circle cx="419" cy="175" r="2"></circle><circle cx="435" cy="205" r="2"></circle><circle cx="450" cy="202" r="2"></circle><circle cx="465" cy="225" r="2"></circle><circle cx="480" cy="234" r="2"></circle><circle cx="496" cy="214" r="2"></circle><circle cx="511" cy="205" r="2"></circle><circle cx="526" cy="196" r="2"></circle><circle cx="542" cy="210" r="2"></circle><circle cx="557" cy="202" r="2"></circle><circle cx="572" cy="210" r="2"></circle><circle cx="587" cy="218" r="2"></circle><circle cx="603" cy="179" r="2"></circle><circle cx="618" cy="95" r="2"></circle><circle cx="633" cy="92" r="2"></circle><circle cx="648" cy="115" r="2"></circle><circle cx="664" cy="117" r="2"></circle><circle cx="679" cy="132" r="2"></circle><circle cx="694" cy="144" r="2"></circle><circle cx="710" cy="154" r="2"></circle><circle cx="725" cy="161" r="2"></circle></g></g></g></g></g><g style="fill: #777;" class="SourcesFooter"><g style="fill: #777;" class="clickable"><text font-size="12.60" x="15.0" y="581.6"><tspan x="15" y="581.58">Source: World Bank</tspan></text></g><text font-size="12.60" x="775.4" y="581.6"><tspan x="775.402" y="581.58"><a style="fill: #777;" class="cclogo" href="http://creativecommons.org/licenses/by-sa/4.0/deed.en_US" target="_blank">CC BY-SA</a></tspan></text></g></g></svg>