<svg xmlns="http://www.w3.org/2000/svg" version="1.1" style="font-family: 'Helvetica Neue', Helvetica, Arial, sans-serif; font-size: 18px; background-color: white; text-rendering: optimizeLegibility; -webkit-font-smoothing: antialiased;" width="850" height="600"><g class="ChartTab"><g class="HeaderView"><g opacity="0.8" transform="translate(778, 15) scale(0.27)"><a xmlns:xlink="http://www.w3.org/1999/xlink" xlink:href="https://ourworldindata.org" target="_blank"><g><rect x="0" y="0" fill="#1B2543" width="211.2" height="130.1"/><rect x="0" y="112.2" fill="#E63912" width="211.2" height="17.9"/><g><rect x="1.2" y="12.3" fill="none" width="210.2" height="99.2"/><path fill="#FFFFFF" d="M37.8,32.2c0,12.7-7.7,19.4-17.1,19.4c-9.7,0-16.6-7.5-16.6-18.7c0-11.7,7.3-19.3,17.1-19.3 C31.3,13.7,37.8,21.3,37.8,32.2z M9.2,32.8c0,7.9,4.3,14.9,11.8,14.9c7.5,0,11.8-6.9,11.8-15.3c0-7.3-3.8-14.9-11.8-14.9 C13.1,17.5,9.2,24.8,9.2,32.8z"/><path fill="#FFFFFF" d="M62.7,43.8c0,2.7,0.1,5.1,0.2,7.2h-4.3l-0.3-4.3h-0.1c-1.3,2.1-4,4.9-8.8,4.9c-4.2,0-9.1-2.3-9.1-11.6 V24.6h4.8v14.6c0,5,1.5,8.4,5.9,8.4c3.2,0,5.5-2.2,6.3-4.4c0.3-0.7,0.4-1.6,0.4-2.5V24.6h4.8V43.8z"/><path fill="#FFFFFF" d="M67.3,32.8c0-3.1-0.1-5.8-0.2-8.2h4.2l0.2,5.2h0.2c1.2-3.5,4.1-5.8,7.3-5.8c0.5,0,0.9,0.1,1.4,0.2v4.5 c-0.5-0.1-1-0.2-1.6-0.2c-3.4,0-5.8,2.6-6.5,6.2c-0.1,0.7-0.2,1.4-0.2,2.2V51h-4.8V32.8z"/><path fill="#FFFFFF" d="M95.4,51l-9.4-36.8h5l4.4,18.6c1.1,4.6,2.1,9.2,2.7,12.7h0.1c0.6-3.7,1.8-8,3-12.8l4.9-18.5h5l4.5,18.7 c1,4.4,2,8.7,2.6,12.6h0.1c0.8-4,1.8-8.1,3-12.7l4.9-18.5h4.9L120.6,51h-5L111,31.9c-1.1-4.7-1.9-8.3-2.4-12h-0.1 c-0.7,3.7-1.5,7.3-2.8,12L100.4,51H95.4z"/><path fill="#FFFFFF" d="M154.9,37.6c0,9.8-6.8,14-13.2,14c-7.2,0-12.7-5.2-12.7-13.6c0-8.8,5.8-14,13.1-14 C149.8,24,154.9,29.5,154.9,37.6z M133.9,37.9c0,5.8,3.3,10.1,8,10.1c4.6,0,8-4.3,8-10.3c0-4.5-2.2-10.1-7.9-10.1 C136.3,27.6,133.9,32.8,133.9,37.9z"/><path fill="#FFFFFF" d="M158.2,32.8c0-3.1-0.1-5.8-0.2-8.2h4.2l0.2,5.2h0.2c1.2-3.5,4.1-5.8,7.3-5.8c0.5,0,0.9,0.1,1.4,0.2v4.5 c-0.5-0.1-1-0.2-1.6-0.2c-3.4,0-5.8,2.6-6.5,6.2c-0.1,0.7-0.2,1.4-0.2,2.2V51h-4.8V32.8z"/><path fill="#FFFFFF" d="M173.5,12.3h4.8V51h-4.8V12.3z"/><path fill="#FFFFFF" d="M206.5,12.3v31.9c0,2.3,0.1,5,0.2,6.8h-4.3l-0.2-4.6H202c-1.5,2.9-4.7,5.2-9,5.2 c-6.4,0-11.3-5.4-11.3-13.4c-0.1-8.8,5.4-14.2,11.9-14.2c4,0,6.8,1.9,8,4h0.1V12.3H206.5z M201.7,35.4c0-0.6-0.1-1.4-0.2-2 c-0.7-3.1-3.3-5.6-6.9-5.6c-5,0-7.9,4.4-7.9,10.2c0,5.3,2.6,9.8,7.8,9.8c3.2,0,6.2-2.1,7.1-5.7c0.2-0.7,0.2-1.3,0.2-2.1V35.4z"/><path fill="#FFFFFF" d="M42.8,64c0.1,1.6-1.1,2.9-3.1,2.9c-1.7,0-2.9-1.3-2.9-2.9c0-1.7,1.3-3,3-3C41.7,61,42.8,62.3,42.8,64z M37.4,97.8V71.4h4.8v26.4H37.4z"/><path fill="#FFFFFF" d="M47.5,78.6c0-2.7-0.1-5-0.2-7.1h4.3l0.3,4.4h0.1c1.3-2.5,4.4-5,8.8-5c3.7,0,9.4,2.2,9.4,11.2v15.8h-4.8 V82.6c0-4.3-1.6-7.8-6.1-7.8c-3.2,0-5.6,2.2-6.5,4.9c-0.2,0.6-0.3,1.4-0.3,2.2v15.9h-4.8V78.6z"/><path fill="#FFFFFF" d="M84,61.6c2.9-0.4,6.3-0.8,10.1-0.8c6.8,0,11.7,1.6,14.9,4.6c3.3,3,5.2,7.3,5.2,13.2c0,6-1.9,10.9-5.3,14.3 c-3.4,3.4-9.1,5.3-16.3,5.3c-3.4,0-6.2-0.2-8.6-0.4V61.6z M88.8,94.1c1.2,0.2,3,0.3,4.8,0.3c10.2,0,15.7-5.7,15.7-15.6 c0.1-8.7-4.9-14.2-14.9-14.2c-2.5,0-4.3,0.2-5.6,0.5V94.1z"/><path fill="#FFFFFF" d="M132.1,97.8l-0.4-3.3h-0.2c-1.5,2.1-4.3,3.9-8.1,3.9c-5.4,0-8.1-3.8-8.1-7.6c0-6.4,5.7-9.9,15.9-9.8v-0.5 c0-2.2-0.6-6.1-6-6.1c-2.5,0-5,0.8-6.9,2l-1.1-3.2c2.2-1.4,5.4-2.3,8.7-2.3c8.1,0,10.1,5.5,10.1,10.8v9.9c0,2.3,0.1,4.5,0.4,6.3 H132.1z M131.4,84.4c-5.3-0.1-11.2,0.8-11.2,5.9c0,3.1,2.1,4.6,4.5,4.6c3.4,0,5.6-2.2,6.4-4.4c0.2-0.5,0.3-1,0.3-1.5V84.4z"/><path fill="#FFFFFF" d="M146.6,63.9v7.6h6.9v3.7h-6.9v14.2c0,3.3,0.9,5.1,3.6,5.1c1.3,0,2.2-0.2,2.8-0.3l0.2,3.6 c-0.9,0.4-2.4,0.7-4.3,0.7c-2.2,0-4-0.7-5.2-2c-1.4-1.4-1.9-3.8-1.9-6.9V75.1h-4.1v-3.7h4.1v-6.3L146.6,63.9z"/><path fill="#FFFFFF" d="M171.4,97.8l-0.4-3.3h-0.2c-1.5,2.1-4.3,3.9-8.1,3.9c-5.4,0-8.1-3.8-8.1-7.6c0-6.4,5.7-9.9,15.9-9.8v-0.5 c0-2.2-0.6-6.1-6-6.1c-2.5,0-5,0.8-6.9,2l-1.1-3.2c2.2-1.4,5.4-2.3,8.7-2.3c8.1,0,10.1,5.5,10.1,10.8v9.9c0,2.3,0.1,4.5,0.4,6.3 H171.4z M170.7,84.4c-5.3-0.1-11.2,0.8-11.2,5.9c0,3.1,2.1,4.6,4.5,4.6c3.4,0,5.6-2.2,6.4-4.4c0.2-0.5,0.3-1,0.3-1.5V84.4z"/></g></g></a></g><a href="https://ourworldindata.org/grapher/government-expenditure-per-primary-student-vs-gdp-per-capita" target="_blank"><text font-size="21.60" x="15.0" y="32.3" fill="#555"><tspan x="15" y="32.279999999999994">Government expenditure per primary student vs GDP per capita, 2013</tspan></text></a><text font-size="14.40" x="15.0" y="50.1" fill="#666"><tspan x="15" y="50.11999999999999">The vertical axis shows average total (current, capital and transfers) general government expenditure per student in</tspan><tspan x="15" y="65.96">primary education, expressed in nominal purchasing power parity (PPP) dollars. The horizontal axis shows GDP per</tspan><tspan x="15" y="81.8">capita, also in nominal PPP dollars.</tspan></text></g><g><g class="AxisBoxView"><g class="HorizontalAxis"><text font-size="12.60" x="299.7" y="554.0"><tspan x="299.669" y="553.98">GDP per capita (PPP$)</tspan></text><text x="208.9" y="533.9" fill="#666" text-anchor="middle" font-size="16.2">$10,000</text><text x="325.1" y="533.9" fill="#666" text-anchor="middle" font-size="16.2">$20,000</text><text x="441.4" y="533.9" fill="#666" text-anchor="middle" font-size="16.2">$30,000</text><text x="557.6" y="533.9" fill="#666" text-anchor="middle" font-size="16.2">$40,000</text><text x="673.9" y="533.9" fill="#666" text-anchor="middle" font-size="16.2">$50,000</text></g><g class="VerticalAxis"><text font-size="12.60" x="-478.2" y="25.1" transform="rotate(-90)"><tspan x="-478.174" y="25.080000000000002">Government expenditure per primary student (PPP$)</tspan></text><text x="96.57" y="512.7" fill="#666" dominant-baseline="middle" text-anchor="end" font-size="16.2">$0</text><text x="96.57" y="435.6" fill="#666" dominant-baseline="middle" text-anchor="end" font-size="16.2">$2,000</text><text x="96.57" y="358.6" fill="#666" dominant-baseline="middle" text-anchor="end" font-size="16.2">$4,000</text><text x="96.57" y="281.5" fill="#666" dominant-baseline="middle" text-anchor="end" font-size="16.2">$6,000</text><text x="96.57" y="204.5" fill="#666" dominant-baseline="middle" text-anchor="end" font-size="16.2">$8,000</text><text x="96.57" y="127.4" fill="#666" dominant-baseline="middle" text-anchor="end" font-size="16.2">$10,000</text></g><g class="AxisGridLines"><line x1="101.57" y1="512.7" x2="715.00" y2="512.7" stroke="#ccc"></line><line x1="101.57" y1="435.6" x2="715.00" y2="435.6" stroke="#ddd" stroke-dasharray="3,2"></line><line x1="101.57" y1="358.6" x2="715.00" y2="358.6" stroke="#ddd" stroke-dasharray="3,2"></line><line x1="101.57" y1="281.5" x2="715.00" y2="281.5" stroke="#ddd" stroke-dasharray="3,2"></line><line x1="101.57" y1="204.5" x2="715.00" y2="204.5" stroke="#ddd" stroke-dasharray="3,2"></line><line x1="101.57" y1="127.4" x2="715.00" y2="127.4" stroke="#ddd" stroke-dasharray="3,2"></line></g><g class="AxisGridLines"><line x1="208.9" y1="512.70" x2="208.9" y2="104.00" stroke="#ddd" stroke-dasharray="3,2"></line><line x1="325.1" y1="512.70" x2="325.1" y2="104.00" stroke="#ddd" stroke-dasharray="3,2"></line><line x1="441.4" y1="512.70" x2="441.4" y2="104.00" stroke="#ddd" stroke-dasharray="3,2"></line><line x1="557.6" y1="512.70" x2="557.6" y2="104.00" stroke="#ddd" stroke-dasharray="3,2"></line><line x1="673.9" y1="512.70" x2="673.9" y2="104.00" stroke="#ddd" stroke-dasharray="3,2"></line></g></g><g clip-path="url(#scatterBounds-417)" font-family="Arial Narrow, Arial, sans-serif" class="PointsWithLabels clickable"><rect x="101.56800000000001" y="104" width="613.432" height="408.7" fill="rgba(255,255,255,0)"></rect><defs><clipPath id="scatterBounds-417"><rect x="91.56800000000001" y="94" width="633.432" height="428.7"></rect></clipPath></defs><g class="key-Indonesia_0"><circle cx="208.00" cy="466.00" r="8.07" fill="#d14e5b" opacity="0.8" stroke="#333" stroke-width="0.7"></circle></g><g class="key-Pakistan_0"><circle cx="146.00" cy="499.00" r="7.00" fill="#d14e5b" opacity="0.8" stroke="#333" stroke-width="0.7"></circle></g><g class="key-Japan_0"><circle cx="545.00" cy="184.00" r="5.90" fill="#d14e5b" opacity="0.8" stroke="#333" stroke-width="0.7"></circle></g><g class="key-Iran_0"><circle cx="289.00" cy="460.00" r="4.72" fill="#d14e5b" opacity="0.8" stroke="#333" stroke-width="0.7"></circle></g><g class="key-Democratic-Republic-of-Congo_0"><circle cx="101.00" cy="510.00" r="4.59" fill="#5675c1" opacity="0.8" stroke="#333" stroke-width="0.7"></circle></g><g class="key-Thailand_0"><circle cx="270.00" cy="375.00" r="4.56" fill="#d14e5b" opacity="0.8" stroke="#333" stroke-width="0.7"></circle></g><g class="key-United-Kingdom_0"><circle cx="549.00" cy="174.00" r="4.36" fill="#ffd336" opacity="0.8" stroke="#fff" stroke-width="0.7"></circle></g><g class="key-South-Korea_0"><circle cx="471.00" cy="205.00" r="3.92" fill="#d14e5b" opacity="0.8" stroke="#333" stroke-width="0.7"></circle></g><g class="key-Colombia_0"><circle cx="240.00" cy="429.00" r="3.90" fill="#69c487" opacity="0.8" stroke="#333" stroke-width="0.7"></circle></g><g class="key-Spain_0"><circle cx="471.00" cy="288.00" r="3.87" fill="#ffd336" opacity="0.8" stroke="#333" stroke-width="0.7"></circle></g><g class="key-Ukraine_0"><circle cx="193.00" cy="405.00" r="3.79" fill="#ffd336" opacity="0.8" stroke="#333" stroke-width="0.7"></circle></g><g class="key-Morocco_0"><circle cx="176.00" cy="458.00" r="3.38" fill="#5675c1" opacity="0.8" stroke="#fff" stroke-width="0.7"></circle></g><g class="key-Peru_0"><circle cx="230.00" cy="462.00" r="3.27" fill="#69c487" opacity="0.8" stroke="#fff" stroke-width="0.7"></circle></g><g class="key-Malaysia_0"><circle cx="372.00" cy="356.00" r="3.26" fill="#d14e5b" opacity="0.8" stroke="#333" stroke-width="0.7"></circle></g><g class="key-Ghana_0"><circle cx="138.00" cy="498.00" r="3.12" fill="#5675c1" opacity="0.8" stroke="#fff" stroke-width="0.7"></circle></g><g class="key-Mozambique_0"><circle cx="105.00" cy="506.00" r="3.07" fill="#5675c1" opacity="0.8" stroke="#fff" stroke-width="0.7"></circle></g><g class="key-Australia_0"><circle cx="625.00" cy="199.00" r="3.00" fill="#a652ba" opacity="0.8" stroke="#333" stroke-width="0.7"></circle></g><g class="key-Sri-Lanka_0"><circle cx="215.00" cy="495.00" r="2.92" fill="#d14e5b" opacity="0.8" stroke="#333" stroke-width="0.7"></circle></g><g class="key-Burkina-Faso_0"><circle cx="111.00" cy="501.00" r="2.77" fill="#5675c1" opacity="0.8" stroke="#fff" stroke-width="0.7"></circle></g><g class="key-Chile_0"><circle cx="355.00" cy="378.00" r="2.75" fill="#69c487" opacity="0.8" stroke="#333" stroke-width="0.7"></circle></g><g class="key-Niger_0"><circle cx="103.00" cy="505.00" r="2.74" fill="#5675c1" opacity="0.8" stroke="#fff" stroke-width="0.7"></circle></g><g class="key-Mali_0"><circle cx="114.00" cy="505.00" r="2.72" fill="#5675c1" opacity="0.8" stroke="#fff" stroke-width="0.7"></circle></g><g class="key-Netherlands_0"><circle cx="658.00" cy="195.00" r="2.72" fill="#ffd336" opacity="0.8" stroke="#fff" stroke-width="0.7"></circle></g><g class="key-Malawi_0"><circle cx="105.00" cy="509.00" r="2.70" fill="#5675c1" opacity="0.8" stroke="#fff" stroke-width="0.7"></circle></g><g class="key-Guatemala_0"><circle cx="176.00" cy="486.00" r="2.66" fill="#4d824b" opacity="0.8" stroke="#fff" stroke-width="0.7"></circle></g><g class="key-Ecuador_0"><circle cx="221.00" cy="481.00" r="2.64" fill="#69c487" opacity="0.8" stroke="#333" stroke-width="0.7"></circle></g><g class="key-Cambodia_0"><circle cx="128.00" cy="504.00" r="2.62" fill="#d14e5b" opacity="0.8" stroke="#fff" stroke-width="0.7"></circle></g><g class="key-Rwanda_0"><circle cx="111.00" cy="508.00" r="2.47" fill="#5675c1" opacity="0.8" stroke="#fff" stroke-width="0.7"></circle></g><g class="key-Guinea_0"><circle cx="113.00" cy="507.00" r="2.42" fill="#5675c1" opacity="0.8" stroke="#fff" stroke-width="0.7"></circle></g><g class="key-Bolivia_0"><circle cx="165.00" cy="471.00" r="2.40" fill="#69c487" opacity="0.8" stroke="#333" stroke-width="0.7"></circle></g><g class="key-Dominican-Republic_0"><circle cx="235.00" cy="441.00" r="2.40" fill="#4d824b" opacity="0.8" stroke="#333" stroke-width="0.7"></circle></g><g class="key-Benin_0"><circle cx="115.00" cy="504.00" r="2.36" fill="#5675c1" opacity="0.8" stroke="#fff" stroke-width="0.7"></circle></g><g class="key-Sweden_0"><circle cx="623.00" cy="124.00" r="2.36" fill="#ffd336" opacity="0.8" stroke="#333" stroke-width="0.7"></circle></g><g class="key-Burundi_0"><circle cx="102.00" cy="509.00" r="2.33" fill="#5675c1" opacity="0.8" stroke="#fff" stroke-width="0.7"></circle></g><g class="key-Austria_0"><circle cx="649.00" cy="104.00" r="2.30" fill="#ffd336" opacity="0.8" stroke="#fff" stroke-width="0.7"></circle></g><g class="key-Honduras_0"><circle cx="142.00" cy="477.00" r="2.28" fill="#4d824b" opacity="0.8" stroke="#fff" stroke-width="0.7"></circle></g><g class="key-Israel_0"><circle cx="489.00" cy="233.00" r="2.27" fill="#d14e5b" opacity="0.8" stroke="#333" stroke-width="0.7"></circle></g><g class="key-Hong-Kong_0"><circle cx="715.00" cy="222.00" r="2.24" fill="#d14e5b" opacity="0.8" stroke="#333" stroke-width="0.7"></circle></g><g class="key-Togo_0"><circle cx="108.00" cy="506.00" r="2.19" fill="#5675c1" opacity="0.8" stroke="#fff" stroke-width="0.7"></circle></g><g class="key-Sierra-Leone_0"><circle cx="112.00" cy="508.00" r="2.18" fill="#5675c1" opacity="0.8" stroke="#fff" stroke-width="0.7"></circle></g><g class="key-Slovakia_0"><circle cx="417.00" cy="301.00" r="2.13" fill="#ffd336" opacity="0.8" stroke="#333" stroke-width="0.7"></circle></g><g class="key-Finland_0"><circle cx="572.00" cy="191.00" r="2.13" fill="#ffd336" opacity="0.8" stroke="#fff" stroke-width="0.7"></circle></g><g class="key-Costa-Rica_0"><circle cx="261.00" cy="375.00" r="2.10" fill="#4d824b" opacity="0.8" stroke="#fff" stroke-width="0.7"></circle></g><g class="key-Puerto-Rico_0"><circle cx="512.00" cy="259.00" r="2.03" fill="#4d824b" opacity="0.8" stroke="#333" stroke-width="0.7"></circle></g><g class="key-Mauritania_0"><circle cx="135.00" cy="498.00" r="2.03" fill="#5675c1" opacity="0.8" stroke="#fff" stroke-width="0.7"></circle></g><g class="key-Albania_0"><circle cx="215.00" cy="401.00" r="2.00" fill="#ffd336" opacity="0.8" stroke="#fff" stroke-width="0.7"></circle></g><g class="key-Armenia_0"><circle cx="185.00" cy="479.00" r="1.99" fill="#d14e5b" opacity="0.8" stroke="#fff" stroke-width="0.7"></circle></g><g class="key-Jamaica_0"><circle cx="189.00" cy="438.00" r="1.97" fill="#4d824b" opacity="0.8" stroke="#333" stroke-width="0.7"></circle></g><g class="key-Latvia_0"><circle cx="356.00" cy="291.00" r="1.93" fill="#ffd336" opacity="0.8" stroke="#333" stroke-width="0.7"></circle></g><g class="key-Gambia_0"><circle cx="111.00" cy="506.00" r="1.91" fill="#5675c1" opacity="0.8" stroke="#fff" stroke-width="0.7"></circle></g><g class="key-Mauritius_0"><circle cx="304.00" cy="433.00" r="1.87" fill="#5675c1" opacity="0.8" stroke="#fff" stroke-width="0.7"></circle></g><g class="key-Fiji_0"><circle cx="187.00" cy="473.00" r="1.84" fill="#a652ba" opacity="0.8" stroke="#fff" stroke-width="0.7"></circle></g><g class="key-Bhutan_0"><circle cx="177.00" cy="489.00" r="1.83" fill="#d14e5b" opacity="0.8" stroke="#fff" stroke-width="0.7"></circle></g><g class="key-Cape-Verde_0"><circle cx="164.00" cy="477.00" r="1.82" fill="#5675c1" opacity="0.8" stroke="#fff" stroke-width="0.7"></circle></g><g class="key-Belize_0"><circle cx="187.00" cy="462.00" r="1.80" fill="#4d824b" opacity="0.8" stroke="#fff" stroke-width="0.7"></circle></g><g class="key-Saint-Lucia_0"><circle cx="219.00" cy="440.00" r="1.79" fill="#4d824b" opacity="0.8" stroke="#fff" stroke-width="0.7"></circle></g><g class="key-Sao-Tome-and-Principe_0"><circle cx="126.00" cy="493.00" r="1.79" fill="#5675c1" opacity="0.8" stroke="#fff" stroke-width="0.7"></circle></g><g class="key-Saint-Vincent-and-the-Grenadines_0"><circle cx="215.00" cy="441.00" r="1.79" fill="#4d824b" opacity="0.8" stroke="#fff" stroke-width="0.7"></circle></g><g class="key-Timor_0"><circle cx="117.00" cy="497.00" r="1.78" fill="#d14e5b" opacity="0.8" stroke="#fff" stroke-width="0.7"></circle></g><g fill="#333" class="backgroundLabels"><text x="208.00" y="456.93" font-size="11.65">Indonesia</text><text x="146.00" y="491.00" font-size="11.48">Pakistan</text><text x="545.00" y="177.10" font-size="11.33">Japan</text><text x="289.00" y="454.28" font-size="11.20">Iran</text><text x="101.00" y="504.41" font-size="11.19">Democratic Republic of Congo</text><text x="270.00" y="369.44" font-size="11.18">Thailand</text><text x="471.00" y="200.08" font-size="11.13">South Korea</text><text x="240.00" y="424.10" font-size="11.13">Colombia</text><text x="471.00" y="283.13" font-size="11.12">Spain</text><text x="193.00" y="400.21" font-size="11.12">Ukraine</text><text x="372.00" y="351.74" font-size="11.08">Malaysia</text><text x="625.00" y="195.00" font-size="11.06">Australia</text><text x="215.00" y="491.08" font-size="11.06">Sri Lanka</text><text x="355.00" y="374.25" font-size="11.05">Chile</text><text x="221.00" y="477.36" font-size="11.04">Ecuador</text><text x="165.00" y="467.60" font-size="11.03">Bolivia</text><text x="235.00" y="437.60" font-size="11.03">Dominican Republic</text><text x="623.00" y="120.64" font-size="11.02">Sweden</text><text x="489.00" y="229.73" font-size="11.02">Israel</text><text x="659.57" y="218.76" font-size="11.02">Hong Kong</text><text x="417.00" y="297.87" font-size="11.01">Slovakia</text><text x="512.00" y="255.97" font-size="11.01">Puerto Rico</text><text x="189.00" y="435.03" font-size="11.01">Jamaica</text><text x="356.00" y="288.07" font-size="11.01">Latvia</text></g></g><g style="cursor: pointer;" class="ScatterColorLegend clickable"><g class="legendMark"><rect x="735" y="101.5" width="43.256" height="17.6" fill="#fff" opacity="0"></rect>,<rect x="735" y="107" width="6" height="6" fill="#5675c1"></rect>,<text font-size="12.60" x="746.0" y="114.1"><tspan x="746" y="114.08">Africa</tspan></text></g><g class="legendMark"><rect x="735" y="119.1" width="35.57" height="17.6" fill="#fff" opacity="0"></rect>,<rect x="735" y="124.6" width="6" height="6" fill="#d14e5b"></rect>,<text font-size="12.60" x="746.0" y="131.7"><tspan x="746" y="131.67999999999998">Asia</tspan></text></g><g class="legendMark"><rect x="735" y="136.7" width="51.824" height="17.6" fill="#fff" opacity="0"></rect>,<rect x="735" y="142.2" width="6" height="6" fill="#ffd336"></rect>,<text font-size="12.60" x="746.0" y="149.3"><tspan x="746" y="149.27999999999997">Europe</tspan></text></g><g class="legendMark"><rect x="735" y="154.3" width="91.64" height="17.6" fill="#fff" opacity="0"></rect>,<rect x="735" y="159.8" width="6" height="6" fill="#4d824b"></rect>,<text font-size="12.60" x="746.0" y="166.9"><tspan x="746" y="166.88">North America</tspan></text></g><g class="legendMark"><rect x="735" y="171.9" width="58.124" height="17.6" fill="#fff" opacity="0"></rect>,<rect x="735" y="177.4" width="6" height="6" fill="#a652ba"></rect>,<text font-size="12.60" x="746.0" y="184.5"><tspan x="746" y="184.48">Oceania</tspan></text></g><g class="legendMark"><rect x="735" y="189.5" width="93.908" height="17.6" fill="#fff" opacity="0"></rect>,<rect x="735" y="195" width="6" height="6" fill="#69c487"></rect>,<text font-size="12.60" x="746.0" y="202.1"><tspan x="746" y="202.07999999999998">South America</tspan></text></g></g></g><g style="fill: #777;" class="SourcesFooter"><g style="fill: #777;" class="clickable"><text font-size="12.60" x="15.0" y="581.6"><tspan x="15" y="581.58">Source: World Bank</tspan></text></g><text font-size="12.60" x="775.4" y="581.6"><tspan x="775.402" y="581.58"><a style="fill: #777;" class="cclogo" href="http://creativecommons.org/licenses/by-sa/4.0/deed.en_US" target="_blank">CC BY-SA</a></tspan></text></g></g></svg>