<svg xmlns="http://www.w3.org/2000/svg" version="1.1" style="font-family: 'Helvetica Neue', Helvetica, Arial, sans-serif; font-size: 18px; background-color: white; text-rendering: optimizeLegibility; -webkit-font-smoothing: antialiased;" width="850" height="600"><g class="ChartTab"><g class="HeaderView"><g opacity="0.8" transform="translate(778, 15) scale(0.27)"><a xmlns:xlink="http://www.w3.org/1999/xlink" xlink:href="https://ourworldindata.org" target="_blank"><g><rect x="0" y="0" fill="#1B2543" width="211.2" height="130.1"/><rect x="0" y="112.2" fill="#E63912" width="211.2" height="17.9"/><g><rect x="1.2" y="12.3" fill="none" width="210.2" height="99.2"/><path fill="#FFFFFF" d="M37.8,32.2c0,12.7-7.7,19.4-17.1,19.4c-9.7,0-16.6-7.5-16.6-18.7c0-11.7,7.3-19.3,17.1-19.3 C31.3,13.7,37.8,21.3,37.8,32.2z M9.2,32.8c0,7.9,4.3,14.9,11.8,14.9c7.5,0,11.8-6.9,11.8-15.3c0-7.3-3.8-14.9-11.8-14.9 C13.1,17.5,9.2,24.8,9.2,32.8z"/><path fill="#FFFFFF" d="M62.7,43.8c0,2.7,0.1,5.1,0.2,7.2h-4.3l-0.3-4.3h-0.1c-1.3,2.1-4,4.9-8.8,4.9c-4.2,0-9.1-2.3-9.1-11.6 V24.6h4.8v14.6c0,5,1.5,8.4,5.9,8.4c3.2,0,5.5-2.2,6.3-4.4c0.3-0.7,0.4-1.6,0.4-2.5V24.6h4.8V43.8z"/><path fill="#FFFFFF" d="M67.3,32.8c0-3.1-0.1-5.8-0.2-8.2h4.2l0.2,5.2h0.2c1.2-3.5,4.1-5.8,7.3-5.8c0.5,0,0.9,0.1,1.4,0.2v4.5 c-0.5-0.1-1-0.2-1.6-0.2c-3.4,0-5.8,2.6-6.5,6.2c-0.1,0.7-0.2,1.4-0.2,2.2V51h-4.8V32.8z"/><path fill="#FFFFFF" d="M95.4,51l-9.4-36.8h5l4.4,18.6c1.1,4.6,2.1,9.2,2.7,12.7h0.1c0.6-3.7,1.8-8,3-12.8l4.9-18.5h5l4.5,18.7 c1,4.4,2,8.7,2.6,12.6h0.1c0.8-4,1.8-8.1,3-12.7l4.9-18.5h4.9L120.6,51h-5L111,31.9c-1.1-4.7-1.9-8.3-2.4-12h-0.1 c-0.7,3.7-1.5,7.3-2.8,12L100.4,51H95.4z"/><path fill="#FFFFFF" d="M154.9,37.6c0,9.8-6.8,14-13.2,14c-7.2,0-12.7-5.2-12.7-13.6c0-8.8,5.8-14,13.1-14 C149.8,24,154.9,29.5,154.9,37.6z M133.9,37.9c0,5.8,3.3,10.1,8,10.1c4.6,0,8-4.3,8-10.3c0-4.5-2.2-10.1-7.9-10.1 C136.3,27.6,133.9,32.8,133.9,37.9z"/><path fill="#FFFFFF" d="M158.2,32.8c0-3.1-0.1-5.8-0.2-8.2h4.2l0.2,5.2h0.2c1.2-3.5,4.1-5.8,7.3-5.8c0.5,0,0.9,0.1,1.4,0.2v4.5 c-0.5-0.1-1-0.2-1.6-0.2c-3.4,0-5.8,2.6-6.5,6.2c-0.1,0.7-0.2,1.4-0.2,2.2V51h-4.8V32.8z"/><path fill="#FFFFFF" d="M173.5,12.3h4.8V51h-4.8V12.3z"/><path fill="#FFFFFF" d="M206.5,12.3v31.9c0,2.3,0.1,5,0.2,6.8h-4.3l-0.2-4.6H202c-1.5,2.9-4.7,5.2-9,5.2 c-6.4,0-11.3-5.4-11.3-13.4c-0.1-8.8,5.4-14.2,11.9-14.2c4,0,6.8,1.9,8,4h0.1V12.3H206.5z M201.7,35.4c0-0.6-0.1-1.4-0.2-2 c-0.7-3.1-3.3-5.6-6.9-5.6c-5,0-7.9,4.4-7.9,10.2c0,5.3,2.6,9.8,7.8,9.8c3.2,0,6.2-2.1,7.1-5.7c0.2-0.7,0.2-1.3,0.2-2.1V35.4z"/><path fill="#FFFFFF" d="M42.8,64c0.1,1.6-1.1,2.9-3.1,2.9c-1.7,0-2.9-1.3-2.9-2.9c0-1.7,1.3-3,3-3C41.7,61,42.8,62.3,42.8,64z M37.4,97.8V71.4h4.8v26.4H37.4z"/><path fill="#FFFFFF" d="M47.5,78.6c0-2.7-0.1-5-0.2-7.1h4.3l0.3,4.4h0.1c1.3-2.5,4.4-5,8.8-5c3.7,0,9.4,2.2,9.4,11.2v15.8h-4.8 V82.6c0-4.3-1.6-7.8-6.1-7.8c-3.2,0-5.6,2.2-6.5,4.9c-0.2,0.6-0.3,1.4-0.3,2.2v15.9h-4.8V78.6z"/><path fill="#FFFFFF" d="M84,61.6c2.9-0.4,6.3-0.8,10.1-0.8c6.8,0,11.7,1.6,14.9,4.6c3.3,3,5.2,7.3,5.2,13.2c0,6-1.9,10.9-5.3,14.3 c-3.4,3.4-9.1,5.3-16.3,5.3c-3.4,0-6.2-0.2-8.6-0.4V61.6z M88.8,94.1c1.2,0.2,3,0.3,4.8,0.3c10.2,0,15.7-5.7,15.7-15.6 c0.1-8.7-4.9-14.2-14.9-14.2c-2.5,0-4.3,0.2-5.6,0.5V94.1z"/><path fill="#FFFFFF" d="M132.1,97.8l-0.4-3.3h-0.2c-1.5,2.1-4.3,3.9-8.1,3.9c-5.4,0-8.1-3.8-8.1-7.6c0-6.4,5.7-9.9,15.9-9.8v-0.5 c0-2.2-0.6-6.1-6-6.1c-2.5,0-5,0.8-6.9,2l-1.1-3.2c2.2-1.4,5.4-2.3,8.7-2.3c8.1,0,10.1,5.5,10.1,10.8v9.9c0,2.3,0.1,4.5,0.4,6.3 H132.1z M131.4,84.4c-5.3-0.1-11.2,0.8-11.2,5.9c0,3.1,2.1,4.6,4.5,4.6c3.4,0,5.6-2.2,6.4-4.4c0.2-0.5,0.3-1,0.3-1.5V84.4z"/><path fill="#FFFFFF" d="M146.6,63.9v7.6h6.9v3.7h-6.9v14.2c0,3.3,0.9,5.1,3.6,5.1c1.3,0,2.2-0.2,2.8-0.3l0.2,3.6 c-0.9,0.4-2.4,0.7-4.3,0.7c-2.2,0-4-0.7-5.2-2c-1.4-1.4-1.9-3.8-1.9-6.9V75.1h-4.1v-3.7h4.1v-6.3L146.6,63.9z"/><path fill="#FFFFFF" d="M171.4,97.8l-0.4-3.3h-0.2c-1.5,2.1-4.3,3.9-8.1,3.9c-5.4,0-8.1-3.8-8.1-7.6c0-6.4,5.7-9.9,15.9-9.8v-0.5 c0-2.2-0.6-6.1-6-6.1c-2.5,0-5,0.8-6.9,2l-1.1-3.2c2.2-1.4,5.4-2.3,8.7-2.3c8.1,0,10.1,5.5,10.1,10.8v9.9c0,2.3,0.1,4.5,0.4,6.3 H171.4z M170.7,84.4c-5.3-0.1-11.2,0.8-11.2,5.9c0,3.1,2.1,4.6,4.5,4.6c3.4,0,5.6-2.2,6.4-4.4c0.2-0.5,0.3-1,0.3-1.5V84.4z"/></g></g></a></g><a href="https://ourworldindata.org/grapher/greenhouse-gas-emissions-coe-by-gas" target="_blank"><text font-size="25.20" x="15.0" y="35.2" fill="#555"><tspan x="15" y="35.160000000000004">Greenhouse gas emissions (CO₂e) by gas, World</tspan></text></a><text font-size="14.40" x="15.0" y="53.7" fill="#666"><tspan x="15" y="53.72">Global greenhouse gas emissions by gas source, measured in thousand tonnes of carbon dioxide equivalents (kt</tspan><tspan x="15" y="69.56">CO₂e). Gases are converted to their CO₂e values based on their global warming potential factors. HFC, PFC and</tspan><tspan x="15" y="85.4">SF₆ are collectively known as 'F-gases'.</tspan></text></g><g class="LineChart"><defs><clipPath id="boundsClip-419"><rect x="78.526" y="0" width="830" height="897.8"></rect></clipPath></defs><g class="AxisBoxView"><g class="HorizontalAxis"><text x="88.5" y="556.5" fill="#666" text-anchor="middle" font-size="16.2">1970</text><text x="157.4" y="556.5" fill="#666" text-anchor="middle" font-size="16.2">1975</text><text x="226.3" y="556.5" fill="#666" text-anchor="middle" font-size="16.2">1980</text><text x="295.1" y="556.5" fill="#666" text-anchor="middle" font-size="16.2">1985</text><text x="364" y="556.5" fill="#666" text-anchor="middle" font-size="16.2">1990</text><text x="432.9" y="556.5" fill="#666" text-anchor="middle" font-size="16.2">1995</text><text x="501.7" y="556.5" fill="#666" text-anchor="middle" font-size="16.2">2000</text><text x="570.6" y="556.5" fill="#666" text-anchor="middle" font-size="16.2">2005</text><text x="667" y="556.5" fill="#666" text-anchor="middle" font-size="16.2">2012</text></g><g class="VerticalAxis"><text x="83.53" y="476.9" fill="#666" dominant-baseline="middle" text-anchor="end" font-size="16.2">5 million</text><text x="83.53" y="417.6" fill="#666" dominant-baseline="middle" text-anchor="end" font-size="16.2">10 million</text><text x="83.53" y="358.3" fill="#666" dominant-baseline="middle" text-anchor="end" font-size="16.2">15 million</text><text x="83.53" y="299" fill="#666" dominant-baseline="middle" text-anchor="end" font-size="16.2">20 million</text><text x="83.53" y="239.7" fill="#666" dominant-baseline="middle" text-anchor="end" font-size="16.2">25 million</text><text x="83.53" y="180.4" fill="#666" dominant-baseline="middle" text-anchor="end" font-size="16.2">30 million</text><text x="83.53" y="121.1" fill="#666" dominant-baseline="middle" text-anchor="end" font-size="16.2">35 million</text></g><g class="AxisGridLines"><line x1="88.53" y1="476.9" x2="667.02" y2="476.9" stroke="#ddd" stroke-dasharray="3,2"></line><line x1="88.53" y1="417.6" x2="667.02" y2="417.6" stroke="#ddd" stroke-dasharray="3,2"></line><line x1="88.53" y1="358.3" x2="667.02" y2="358.3" stroke="#ddd" stroke-dasharray="3,2"></line><line x1="88.53" y1="299" x2="667.02" y2="299" stroke="#ddd" stroke-dasharray="3,2"></line><line x1="88.53" y1="239.7" x2="667.02" y2="239.7" stroke="#ddd" stroke-dasharray="3,2"></line><line x1="88.53" y1="180.4" x2="667.02" y2="180.4" stroke="#ddd" stroke-dasharray="3,2"></line><line x1="88.53" y1="121.1" x2="667.02" y2="121.1" stroke="#ddd" stroke-dasharray="3,2"></line></g></g><g clip-path="url(#boundsClip-419)"><g class="HeightedLegend clickable"><g class="legendMark"><g class="indicator"><line x1="672.025" y1="535.3" x2="694.525" y2="535.3" stroke="#666" stroke-width="0.5"></line><line x1="694.525" y1="535.3" x2="694.525" y2="528.55" stroke="#666" stroke-width="0.5"></line><line x1="694.525" y1="528.55" x2="697.025" y2="528.55" stroke="#666" stroke-width="0.5"></line></g><rect x="667.025" y="521.8" width="101.96000000000001" height="13.5" fill="#fff" opacity="0"></rect><text font-size="13.50" x="702.0" y="532.6" fill="#3360a9"><tspan x="702.025" y="532.5999999999999">PFC gases</tspan></text></g><g class="legendMark"><g class="indicator"><line x1="672.025" y1="534.2" x2="689.525" y2="534.2" stroke="#666" stroke-width="0.5"></line><line x1="689.525" y1="534.2" x2="689.525" y2="513.05" stroke="#666" stroke-width="0.5"></line><line x1="689.525" y1="513.05" x2="697.025" y2="513.05" stroke="#666" stroke-width="0.5"></line></g><rect x="667.025" y="506.29999999999995" width="98.99000000000001" height="13.5" fill="#fff" opacity="0"></rect><text font-size="13.50" x="702.0" y="517.1" fill="#ca2628"><tspan x="702.025" y="517.0999999999999">SF₆ gases</tspan></text></g><g class="legendMark"><g class="indicator"><line x1="672.025" y1="526.3" x2="684.525" y2="526.3" stroke="#666" stroke-width="0.5"></line><line x1="684.525" y1="526.3" x2="684.525" y2="497.54999999999995" stroke="#666" stroke-width="0.5"></line><line x1="684.525" y1="497.54999999999995" x2="697.025" y2="497.54999999999995" stroke="#666" stroke-width="0.5"></line></g><rect x="667.025" y="490.79999999999995" width="102.635" height="13.5" fill="#fff" opacity="0"></rect><text font-size="13.50" x="702.0" y="501.6" fill="#34983f"><tspan x="702.025" y="501.59999999999997">HFC gases</tspan></text></g><g class="legendMark"><g class="indicator"><line x1="672.025" y1="498.8" x2="679.525" y2="498.8" stroke="#666" stroke-width="0.5"></line><line x1="679.525" y1="498.8" x2="679.525" y2="482.04999999999995" stroke="#666" stroke-width="0.5"></line><line x1="679.525" y1="482.04999999999995" x2="697.025" y2="482.04999999999995" stroke="#666" stroke-width="0.5"></line></g><rect x="667.025" y="475.29999999999995" width="153.66500000000002" height="13.5" fill="#fff" opacity="0"></rect><text font-size="13.50" x="702.0" y="486.1" fill="#f6a324"><tspan x="702.025" y="486.09999999999997">Nitrous oxide (N₂O)</tspan></text></g><g class="legendMark"><g class="indicator"><line x1="672.025" y1="441.2" x2="684.525" y2="441.2" stroke="#666" stroke-width="0.5"></line><line x1="684.525" y1="441.2" x2="684.525" y2="441.2" stroke="#666" stroke-width="0.5"></line><line x1="684.525" y1="441.2" x2="697.025" y2="441.2" stroke="#666" stroke-width="0.5"></line></g><rect x="667.025" y="434.45" width="126.665" height="13.5" fill="#fff" opacity="0"></rect><text font-size="13.50" x="702.0" y="445.3" fill="#a652ba"><tspan x="702.025" y="445.25">Methane (CH₄)</tspan></text></g><g class="legendMark"><g class="indicator"><line x1="672.025" y1="115.5" x2="684.525" y2="115.5" stroke="#666" stroke-width="0.5"></line><line x1="684.525" y1="115.5" x2="684.525" y2="115.5" stroke="#666" stroke-width="0.5"></line><line x1="684.525" y1="115.5" x2="697.025" y2="115.5" stroke="#666" stroke-width="0.5"></line></g><rect x="667.025" y="108.75" width="167.97500000000002" height="13.5" fill="#fff" opacity="0"></rect><text font-size="13.50" x="702.0" y="119.5" fill="#2a939b"><tspan x="702.025" y="119.55">Carbon Dioxide (CO₂)</tspan></text></g></g><g class="Lines"><rect x="89" y="108" width="578" height="428" fill="rgba(255,255,255,0)" opacity="0"></rect><g class="key-World_0"><path stroke="#ca2628" stroke-linecap="round" d="M640 534" fill="none" stroke-width="1.5"></path><g fill="#ca2628"><circle cx="640" cy="534" r="2"></circle></g></g><g class="key-World_1"><path stroke="#3360a9" stroke-linecap="round" d="M640 535" fill="none" stroke-width="1.5"></path><g fill="#3360a9"><circle cx="640" cy="535" r="2"></circle></g></g><g class="key-World_2"><path stroke="#34983f" stroke-linecap="round" d="M640 526" fill="none" stroke-width="1.5"></path><g fill="#34983f"><circle cx="640" cy="526" r="2"></circle></g></g><g class="key-World_3"><path stroke="#f6a324" stroke-linecap="round" d="M89 510L102 512L116 510L130 509L144 510L157 509L171 508L185 506L199 506L213 504L226 504L240 505L254 503L268 503L281 504L295 504L309 504L323 502L337 503L350 503L364 501L378 502L392 500L405 502L419 501L433 501L447 501L460 498L474 499L488 501L502 502L516 503L529 502L543 503L557 502L571 501L584 500L598 498L612 500L626 500L640 500L653 499L667 499" fill="none" stroke-width="1.5"></path><g fill="#f6a324"><circle cx="89" cy="510" r="2"></circle><circle cx="102" cy="512" r="2"></circle><circle cx="116" cy="510" r="2"></circle><circle cx="130" cy="509" r="2"></circle><circle cx="144" cy="510" r="2"></circle><circle cx="157" cy="509" r="2"></circle><circle cx="171" cy="508" r="2"></circle><circle cx="185" cy="506" r="2"></circle><circle cx="199" cy="506" r="2"></circle><circle cx="213" cy="504" r="2"></circle><circle cx="226" cy="504" r="2"></circle><circle cx="240" cy="505" r="2"></circle><circle cx="254" cy="503" r="2"></circle><circle cx="268" cy="503" r="2"></circle><circle cx="281" cy="504" r="2"></circle><circle cx="295" cy="504" r="2"></circle><circle cx="309" cy="504" r="2"></circle><circle cx="323" cy="502" r="2"></circle><circle cx="337" cy="503" r="2"></circle><circle cx="350" cy="503" r="2"></circle><circle cx="364" cy="501" r="2"></circle><circle cx="378" cy="502" r="2"></circle><circle cx="392" cy="500" r="2"></circle><circle cx="405" cy="502" r="2"></circle><circle cx="419" cy="501" r="2"></circle><circle cx="433" cy="501" r="2"></circle><circle cx="447" cy="501" r="2"></circle><circle cx="460" cy="498" r="2"></circle><circle cx="474" cy="499" r="2"></circle><circle cx="488" cy="501" r="2"></circle><circle cx="502" cy="502" r="2"></circle><circle cx="516" cy="503" r="2"></circle><circle cx="529" cy="502" r="2"></circle><circle cx="543" cy="503" r="2"></circle><circle cx="557" cy="502" r="2"></circle><circle cx="571" cy="501" r="2"></circle><circle cx="584" cy="500" r="2"></circle><circle cx="598" cy="498" r="2"></circle><circle cx="612" cy="500" r="2"></circle><circle cx="626" cy="500" r="2"></circle><circle cx="640" cy="500" r="2"></circle><circle cx="653" cy="499" r="2"></circle><circle cx="667" cy="499" r="2"></circle></g></g><g class="key-World_4"><path stroke="#a652ba" stroke-linecap="round" d="M89 473L102 475L116 473L130 472L144 472L157 471L171 469L185 468L199 468L213 465L226 465L240 467L254 462L268 463L281 465L295 465L309 463L323 460L337 462L350 460L364 457L378 457L392 455L405 459L419 458L433 459L447 459L460 451L474 457L488 459L502 459L516 458L529 456L543 455L557 452L571 450L584 446L598 445L612 446L626 444L640 444L653 442L667 441" fill="none" stroke-width="1.5"></path><g fill="#a652ba"><circle cx="89" cy="473" r="2"></circle><circle cx="102" cy="475" r="2"></circle><circle cx="116" cy="473" r="2"></circle><circle cx="130" cy="472" r="2"></circle><circle cx="144" cy="472" r="2"></circle><circle cx="157" cy="471" r="2"></circle><circle cx="171" cy="469" r="2"></circle><circle cx="185" cy="468" r="2"></circle><circle cx="199" cy="468" r="2"></circle><circle cx="213" cy="465" r="2"></circle><circle cx="226" cy="465" r="2"></circle><circle cx="240" cy="467" r="2"></circle><circle cx="254" cy="462" r="2"></circle><circle cx="268" cy="463" r="2"></circle><circle cx="281" cy="465" r="2"></circle><circle cx="295" cy="465" r="2"></circle><circle cx="309" cy="463" r="2"></circle><circle cx="323" cy="460" r="2"></circle><circle cx="337" cy="462" r="2"></circle><circle cx="350" cy="460" r="2"></circle><circle cx="364" cy="457" r="2"></circle><circle cx="378" cy="457" r="2"></circle><circle cx="392" cy="455" r="2"></circle><circle cx="405" cy="459" r="2"></circle><circle cx="419" cy="458" r="2"></circle><circle cx="433" cy="459" r="2"></circle><circle cx="447" cy="459" r="2"></circle><circle cx="460" cy="451" r="2"></circle><circle cx="474" cy="457" r="2"></circle><circle cx="488" cy="459" r="2"></circle><circle cx="502" cy="459" r="2"></circle><circle cx="516" cy="458" r="2"></circle><circle cx="529" cy="456" r="2"></circle><circle cx="543" cy="455" r="2"></circle><circle cx="557" cy="452" r="2"></circle><circle cx="571" cy="450" r="2"></circle><circle cx="584" cy="446" r="2"></circle><circle cx="598" cy="445" r="2"></circle><circle cx="612" cy="446" r="2"></circle><circle cx="626" cy="444" r="2"></circle><circle cx="640" cy="444" r="2"></circle><circle cx="653" cy="442" r="2"></circle><circle cx="667" cy="441" r="2"></circle></g></g><g class="key-World_5"><path stroke="#2a939b" stroke-linecap="round" d="M89 361L102 355L116 347L130 337L144 336L157 338L171 326L185 319L199 317L213 305L226 307L240 314L254 316L268 317L281 309L295 302L309 295L323 289L337 280L350 275L364 274L378 271L392 273L405 273L419 269L433 263L447 257L460 252L474 250L488 251L502 243L516 236L529 232L543 215L557 200L571 187L584 174L598 166L612 155L626 158L640 139L653 123L667 116" fill="none" stroke-width="1.5"></path><g fill="#2a939b"><circle cx="89" cy="361" r="2"></circle><circle cx="102" cy="355" r="2"></circle><circle cx="116" cy="347" r="2"></circle><circle cx="130" cy="337" r="2"></circle><circle cx="144" cy="336" r="2"></circle><circle cx="157" cy="338" r="2"></circle><circle cx="171" cy="326" r="2"></circle><circle cx="185" cy="319" r="2"></circle><circle cx="199" cy="317" r="2"></circle><circle cx="213" cy="305" r="2"></circle><circle cx="226" cy="307" r="2"></circle><circle cx="240" cy="314" r="2"></circle><circle cx="254" cy="316" r="2"></circle><circle cx="268" cy="317" r="2"></circle><circle cx="281" cy="309" r="2"></circle><circle cx="295" cy="302" r="2"></circle><circle cx="309" cy="295" r="2"></circle><circle cx="323" cy="289" r="2"></circle><circle cx="337" cy="280" r="2"></circle><circle cx="350" cy="275" r="2"></circle><circle cx="364" cy="274" r="2"></circle><circle cx="378" cy="271" r="2"></circle><circle cx="392" cy="273" r="2"></circle><circle cx="405" cy="273" r="2"></circle><circle cx="419" cy="269" r="2"></circle><circle cx="433" cy="263" r="2"></circle><circle cx="447" cy="257" r="2"></circle><circle cx="460" cy="252" r="2"></circle><circle cx="474" cy="250" r="2"></circle><circle cx="488" cy="251" r="2"></circle><circle cx="502" cy="243" r="2"></circle><circle cx="516" cy="236" r="2"></circle><circle cx="529" cy="232" r="2"></circle><circle cx="543" cy="215" r="2"></circle><circle cx="557" cy="200" r="2"></circle><circle cx="571" cy="187" r="2"></circle><circle cx="584" cy="174" r="2"></circle><circle cx="598" cy="166" r="2"></circle><circle cx="612" cy="155" r="2"></circle><circle cx="626" cy="158" r="2"></circle><circle cx="640" cy="139" r="2"></circle><circle cx="653" cy="123" r="2"></circle><circle cx="667" cy="116" r="2"></circle></g></g></g></g></g><g style="fill: #777;" class="SourcesFooter"><g style="fill: #777;" class="clickable"><text font-size="12.60" x="15.0" y="581.6"><tspan x="15" y="581.58">Source: World Bank - World Development Indicators (WDI)</tspan></text></g><text font-size="12.60" x="407.4" y="581.6"><tspan x="407.356" y="581.58"><a target='_blank' style='fill: #777;' href='https://ourworldindata.org/co2-and-other-greenhouse-gas-emissions/'>OurWorldInData.org/co2-and-other-greenhouse-gas-emissions/</a> • <a style="fill: #777;" class="cclogo" href="http://creativecommons.org/licenses/by-sa/4.0/deed.en_US" target="_blank">CC BY-SA</a></tspan></text></g></g></svg>