<svg xmlns="http://www.w3.org/2000/svg" version="1.1" style="font-family:&#x27;Helvetica Neue&#x27;, Helvetica, Arial, sans-serif;font-size:18px;background-color:white;text-rendering:optimizeLegibility;-webkit-font-smoothing:antialiased" width="850" height="600"><g class="HeaderView"><a href="https://mispytest-owid.netlify.com/grapher/growth-rates-of-consumption-investment-and-gdp-in-the-us-per-cent-per-annum-19602016" target="_blank"><text font-size="21.60" x="15.0" y="32.3" fill="#555"><tspan x="15" y="32.279999999999994">Growth rates of consumption, investment, and GDP in the US, per cent per</tspan><tspan x="15" y="53.87999999999999">annum (1960–2016)</tspan></text></a><text font-size="14.40" x="15.0" y="72.7" fill="#666"><tspan x="15" y="72.72">Unit 13 &#x27;Economic fluctuations and unemployment’ Section 13.7 &#x27;Why investment is volatile?&#x27; in The CORE Team, The</tspan><tspan x="15" y="88.56">Economy. Available at: https://tinyco.re/1307191 [Figure 13.19a]</tspan></text></g><g class="LineChart"><defs><clipPath id="boundsClip-646"><rect x="47.908" y="0" width="830" height="894.8"></rect></clipPath></defs><g class="AxisBoxView"><g class="HorizontalAxis"><text x="57.9" y="556.5" fill="#666" text-anchor="middle" font-size="16.2">1960</text><text x="153.4" y="556.5" fill="#666" text-anchor="middle" font-size="16.2">1970</text><text x="249" y="556.5" fill="#666" text-anchor="middle" font-size="16.2">1980</text><text x="344.5" y="556.5" fill="#666" text-anchor="middle" font-size="16.2">1990</text><text x="440.1" y="556.5" fill="#666" text-anchor="middle" font-size="16.2">2000</text><text x="535.6" y="556.5" fill="#666" text-anchor="middle" font-size="16.2">2010</text><text x="592.9" y="556.5" fill="#666" text-anchor="middle" font-size="16.2">2016</text></g><g class="VerticalAxis"><text x="52.91" y="497.7" fill="#666" dominant-baseline="middle" text-anchor="end" font-size="16.2">-10%</text><text x="52.91" y="423.2" fill="#666" dominant-baseline="middle" text-anchor="end" font-size="16.2">-5%</text><text x="52.91" y="348.8" fill="#666" dominant-baseline="middle" text-anchor="end" font-size="16.2">0%</text><text x="52.91" y="274.3" fill="#666" dominant-baseline="middle" text-anchor="end" font-size="16.2">5%</text><text x="52.91" y="199.8" fill="#666" dominant-baseline="middle" text-anchor="end" font-size="16.2">10%</text><text x="52.91" y="125.3" fill="#666" dominant-baseline="middle" text-anchor="end" font-size="16.2">15%</text></g><g class="AxisGridLines"><line x1="57.91" y1="497.7" x2="592.91" y2="497.7" stroke="#ddd" stroke-dasharray="3,2"></line><line x1="57.91" y1="423.2" x2="592.91" y2="423.2" stroke="#ddd" stroke-dasharray="3,2"></line><line x1="57.91" y1="348.8" x2="592.91" y2="348.8" stroke="#ccc"></line><line x1="57.91" y1="274.3" x2="592.91" y2="274.3" stroke="#ddd" stroke-dasharray="3,2"></line><line x1="57.91" y1="199.8" x2="592.91" y2="199.8" stroke="#ddd" stroke-dasharray="3,2"></line><line x1="57.91" y1="125.3" x2="592.91" y2="125.3" stroke="#ddd" stroke-dasharray="3,2"></line></g></g><g clip-path="url(#boundsClip-646)"><g class="HeightedLegend clickable"><g class="legendMark"><g class="indicator"><line x1="597.91" y1="308" x2="617.0766666666666" y2="308" stroke="#666" stroke-width="0.5"></line><line x1="617.0766666666666" y1="308" x2="617.0766666666666" y2="308" stroke="#666" stroke-width="0.5"></line><line x1="617.0766666666666" y1="308" x2="622.91" y2="308" stroke="#666" stroke-width="0.5"></line></g><rect x="592.91" y="293.95" width="242.09" height="28.1" fill="#fff" opacity="0"></rect><text font-size="13.50" x="627.9" y="304.8" fill="#34983f"><tspan x="627.91" y="304.75">2.74% Growth rate of Private Final</tspan><tspan x="627.91" y="319.6">Consumption Expenditure (%)</tspan></text></g><g class="legendMark"><g class="indicator"><line x1="597.91" y1="324.2" x2="610.41" y2="324.2" stroke="#666" stroke-width="0.5"></line><line x1="610.41" y1="324.2" x2="610.41" y2="338.1" stroke="#666" stroke-width="0.5"></line><line x1="610.41" y1="338.1" x2="622.91" y2="338.1" stroke="#666" stroke-width="0.5"></line></g><rect x="592.91" y="324.05" width="239.79500000000002" height="28.1" fill="#fff" opacity="0"></rect><text font-size="13.50" x="627.9" y="334.9" fill="#ed6c2d"><tspan x="627.91" y="334.85">1.65% Growth rate of Gross Fixed</tspan><tspan x="627.91" y="349.70000000000005">Capital Formation (%)</tspan></text></g><g class="legendMark"><g class="indicator"><line x1="597.91" y1="325.4" x2="603.7433333333333" y2="325.4" stroke="#666" stroke-width="0.5"></line><line x1="603.7433333333333" y1="325.4" x2="603.7433333333333" y2="360.90000000000003" stroke="#666" stroke-width="0.5"></line><line x1="603.7433333333333" y1="360.90000000000003" x2="622.91" y2="360.90000000000003" stroke="#666" stroke-width="0.5"></line></g><rect x="592.91" y="354.15000000000003" width="220.895" height="13.5" fill="#fff" opacity="0"></rect><text font-size="13.50" x="627.9" y="365.0" fill="#000"><tspan x="627.91" y="364.95000000000005">1.57% Growth rate of GDP (%)</tspan></text></g></g><g class="Lines"><rect x="58" y="109" width="535" height="426" fill="rgba(255,255,255,0)" opacity="0"></rect><g class="key-United-States_0"><path stroke="#000" stroke-linecap="round" d="M58 310L68 311L77 258L87 284L96 263L106 252L115 251L125 308L134 276L144 302L153 346L163 300L173 270L182 265L192 357L201 352L211 269L220 280L230 266L239 302L249 353L259 311L268 376L278 281L287 241L297 287L306 297L316 297L325 287L335 294L345 321L354 350L364 296L373 308L383 289L392 309L402 293L411 283L421 282L431 278L440 287L450 334L459 323L469 306L478 292L488 296L497 306L507 321L517 351L526 387L536 311L545 326L555 315L564 321L574 312L583 306L593 325" fill="none" stroke-width="1.5"></path><g fill="#000"><circle cx="58" cy="310" r="2"></circle><circle cx="68" cy="311" r="2"></circle><circle cx="77" cy="258" r="2"></circle><circle cx="87" cy="284" r="2"></circle><circle cx="96" cy="263" r="2"></circle><circle cx="106" cy="252" r="2"></circle><circle cx="115" cy="251" r="2"></circle><circle cx="125" cy="308" r="2"></circle><circle cx="134" cy="276" r="2"></circle><circle cx="144" cy="302" r="2"></circle><circle cx="153" cy="346" r="2"></circle><circle cx="163" cy="300" r="2"></circle><circle cx="173" cy="270" r="2"></circle><circle cx="182" cy="265" r="2"></circle><circle cx="192" cy="357" r="2"></circle><circle cx="201" cy="352" r="2"></circle><circle cx="211" cy="269" r="2"></circle><circle cx="220" cy="280" r="2"></circle><circle cx="230" cy="266" r="2"></circle><circle cx="239" cy="302" r="2"></circle><circle cx="249" cy="353" r="2"></circle><circle cx="259" cy="311" r="2"></circle><circle cx="268" cy="376" r="2"></circle><circle cx="278" cy="281" r="2"></circle><circle cx="287" cy="241" r="2"></circle><circle cx="297" cy="287" r="2"></circle><circle cx="306" cy="297" r="2"></circle><circle cx="316" cy="297" r="2"></circle><circle cx="325" cy="287" r="2"></circle><circle cx="335" cy="294" r="2"></circle><circle cx="345" cy="321" r="2"></circle><circle cx="354" cy="350" r="2"></circle><circle cx="364" cy="296" r="2"></circle><circle cx="373" cy="308" r="2"></circle><circle cx="383" cy="289" r="2"></circle><circle cx="392" cy="309" r="2"></circle><circle cx="402" cy="293" r="2"></circle><circle cx="411" cy="283" r="2"></circle><circle cx="421" cy="282" r="2"></circle><circle cx="431" cy="278" r="2"></circle><circle cx="440" cy="287" r="2"></circle><circle cx="450" cy="334" r="2"></circle><circle cx="459" cy="323" r="2"></circle><circle cx="469" cy="306" r="2"></circle><circle cx="478" cy="292" r="2"></circle><circle cx="488" cy="296" r="2"></circle><circle cx="497" cy="306" r="2"></circle><circle cx="507" cy="321" r="2"></circle><circle cx="517" cy="351" r="2"></circle><circle cx="526" cy="387" r="2"></circle><circle cx="536" cy="311" r="2"></circle><circle cx="545" cy="326" r="2"></circle><circle cx="555" cy="315" r="2"></circle><circle cx="564" cy="321" r="2"></circle><circle cx="574" cy="312" r="2"></circle><circle cx="583" cy="306" r="2"></circle><circle cx="593" cy="325" r="2"></circle></g></g><g class="key-United-States_1"><path stroke="#ed6c2d" stroke-linecap="round" d="M58 352L68 311L77 234L87 268L96 237L106 231L115 253L125 350L134 282L144 304L153 396L163 297L173 225L182 229L192 414L201 473L211 228L220 185L230 179L239 264L249 424L259 329L268 439L278 239L287 109L297 249L306 310L316 326L325 311L335 301L345 355L354 424L364 277L373 260L383 240L392 264L402 229L411 228L421 205L431 215L440 248L450 363L459 389L469 286L478 260L488 259L497 309L507 357L517 411L526 535L536 316L545 281L555 246L564 296L574 276L583 300L593 324" fill="none" stroke-width="1.5"></path><g fill="#ed6c2d"><circle cx="58" cy="352" r="2"></circle><circle cx="68" cy="311" r="2"></circle><circle cx="77" cy="234" r="2"></circle><circle cx="87" cy="268" r="2"></circle><circle cx="96" cy="237" r="2"></circle><circle cx="106" cy="231" r="2"></circle><circle cx="115" cy="253" r="2"></circle><circle cx="125" cy="350" r="2"></circle><circle cx="134" cy="282" r="2"></circle><circle cx="144" cy="304" r="2"></circle><circle cx="153" cy="396" r="2"></circle><circle cx="163" cy="297" r="2"></circle><circle cx="173" cy="225" r="2"></circle><circle cx="182" cy="229" r="2"></circle><circle cx="192" cy="414" r="2"></circle><circle cx="201" cy="473" r="2"></circle><circle cx="211" cy="228" r="2"></circle><circle cx="220" cy="185" r="2"></circle><circle cx="230" cy="179" r="2"></circle><circle cx="239" cy="264" r="2"></circle><circle cx="249" cy="424" r="2"></circle><circle cx="259" cy="329" r="2"></circle><circle cx="268" cy="439" r="2"></circle><circle cx="278" cy="239" r="2"></circle><circle cx="287" cy="109" r="2"></circle><circle cx="297" cy="249" r="2"></circle><circle cx="306" cy="310" r="2"></circle><circle cx="316" cy="326" r="2"></circle><circle cx="325" cy="311" r="2"></circle><circle cx="335" cy="301" r="2"></circle><circle cx="345" cy="355" r="2"></circle><circle cx="354" cy="424" r="2"></circle><circle cx="364" cy="277" r="2"></circle><circle cx="373" cy="260" r="2"></circle><circle cx="383" cy="240" r="2"></circle><circle cx="392" cy="264" r="2"></circle><circle cx="402" cy="229" r="2"></circle><circle cx="411" cy="228" r="2"></circle><circle cx="421" cy="205" r="2"></circle><circle cx="431" cy="215" r="2"></circle><circle cx="440" cy="248" r="2"></circle><circle cx="450" cy="363" r="2"></circle><circle cx="459" cy="389" r="2"></circle><circle cx="469" cy="286" r="2"></circle><circle cx="478" cy="260" r="2"></circle><circle cx="488" cy="259" r="2"></circle><circle cx="497" cy="309" r="2"></circle><circle cx="507" cy="357" r="2"></circle><circle cx="517" cy="411" r="2"></circle><circle cx="526" cy="535" r="2"></circle><circle cx="536" cy="316" r="2"></circle><circle cx="545" cy="281" r="2"></circle><circle cx="555" cy="246" r="2"></circle><circle cx="564" cy="296" r="2"></circle><circle cx="574" cy="276" r="2"></circle><circle cx="583" cy="300" r="2"></circle><circle cx="593" cy="324" r="2"></circle></g></g><g class="key-United-States_2"><path stroke="#34983f" stroke-linecap="round" d="M58 308L68 318L77 275L87 287L96 260L106 254L115 264L125 304L134 263L144 293L153 314L163 292L173 258L182 275L192 361L201 315L211 266L220 286L230 284L239 313L249 353L259 328L268 327L278 264L287 270L297 272L306 287L316 298L325 287L335 305L345 319L354 346L364 294L373 297L383 291L392 305L402 297L411 293L421 270L431 270L440 273L450 311L459 311L469 301L478 293L488 296L497 303L507 316L517 352L526 367L536 323L545 321L555 326L564 327L574 305L583 293L593 308" fill="none" stroke-width="1.5"></path><g fill="#34983f"><circle cx="58" cy="308" r="2"></circle><circle cx="68" cy="318" r="2"></circle><circle cx="77" cy="275" r="2"></circle><circle cx="87" cy="287" r="2"></circle><circle cx="96" cy="260" r="2"></circle><circle cx="106" cy="254" r="2"></circle><circle cx="115" cy="264" r="2"></circle><circle cx="125" cy="304" r="2"></circle><circle cx="134" cy="263" r="2"></circle><circle cx="144" cy="293" r="2"></circle><circle cx="153" cy="314" r="2"></circle><circle cx="163" cy="292" r="2"></circle><circle cx="173" cy="258" r="2"></circle><circle cx="182" cy="275" r="2"></circle><circle cx="192" cy="361" r="2"></circle><circle cx="201" cy="315" r="2"></circle><circle cx="211" cy="266" r="2"></circle><circle cx="220" cy="286" r="2"></circle><circle cx="230" cy="284" r="2"></circle><circle cx="239" cy="313" r="2"></circle><circle cx="249" cy="353" r="2"></circle><circle cx="259" cy="328" r="2"></circle><circle cx="268" cy="327" r="2"></circle><circle cx="278" cy="264" r="2"></circle><circle cx="287" cy="270" r="2"></circle><circle cx="297" cy="272" r="2"></circle><circle cx="306" cy="287" r="2"></circle><circle cx="316" cy="298" r="2"></circle><circle cx="325" cy="287" r="2"></circle><circle cx="335" cy="305" r="2"></circle><circle cx="345" cy="319" r="2"></circle><circle cx="354" cy="346" r="2"></circle><circle cx="364" cy="294" r="2"></circle><circle cx="373" cy="297" r="2"></circle><circle cx="383" cy="291" r="2"></circle><circle cx="392" cy="305" r="2"></circle><circle cx="402" cy="297" r="2"></circle><circle cx="411" cy="293" r="2"></circle><circle cx="421" cy="270" r="2"></circle><circle cx="431" cy="270" r="2"></circle><circle cx="440" cy="273" r="2"></circle><circle cx="450" cy="311" r="2"></circle><circle cx="459" cy="311" r="2"></circle><circle cx="469" cy="301" r="2"></circle><circle cx="478" cy="293" r="2"></circle><circle cx="488" cy="296" r="2"></circle><circle cx="497" cy="303" r="2"></circle><circle cx="507" cy="316" r="2"></circle><circle cx="517" cy="352" r="2"></circle><circle cx="526" cy="367" r="2"></circle><circle cx="536" cy="323" r="2"></circle><circle cx="545" cy="321" r="2"></circle><circle cx="555" cy="326" r="2"></circle><circle cx="564" cy="327" r="2"></circle><circle cx="574" cy="305" r="2"></circle><circle cx="583" cy="293" r="2"></circle><circle cx="593" cy="308" r="2"></circle></g></g></g></g></g><g class="SourcesFooter" style="fill:#777"><g class="clickable" style="fill:#777"><text font-size="12.60" x="15.0" y="581.6"><tspan x="15" y="581.58">Source: FRED(2016)</tspan></text></g><text font-size="12.60" x="546.0" y="581.6"><tspan x="545.956" y="581.58"><a target='_blank' style='fill: #777;' href='https://tinyco.re/1307191'>tinyco.re/1307191</a> • <a href="https://ourworldindata.org" target="_blank">Powered by ourworldindata.org</a></tspan></text></g></svg>