<svg xmlns="http://www.w3.org/2000/svg" version="1.1" style="font-family:&#x27;Helvetica Neue&#x27;, Helvetica, Arial, sans-serif;font-size:18px;background-color:white;text-rendering:optimizeLegibility;-webkit-font-smoothing:antialiased" width="850" height="600"><g class="HeaderView"><a href="https://mispytest-owid.netlify.com/grapher/growth-rates-of-consumption-investment-and-gdp-in-the-uk-per-cent-per-annum" target="_blank"><text font-size="21.60" x="15.0" y="32.3" fill="#555"><tspan x="15" y="32.279999999999994">Growth rates of consumption, investment, and GDP in the UK, per cent per</tspan><tspan x="15" y="53.87999999999999">annum (1956–2012)</tspan></text></a><text font-size="14.40" x="15.0" y="72.7" fill="#666"><tspan x="15" y="72.72">Unit 13 &#x27;Economic fluctuations and unemployment’ Section 13.7 &#x27;Why investment is volatile?&#x27; in The CORE Team, The</tspan><tspan x="15" y="88.56">Economy. Available at: https://tinyco.re/1307191 [Figure 13.19a]</tspan></text></g><g class="LineChart"><defs><clipPath id="boundsClip-654"><rect x="47.908" y="0" width="830" height="894.8"></rect></clipPath></defs><g class="AxisBoxView"><g class="HorizontalAxis"><text x="57.9" y="556.5" fill="#666" text-anchor="middle" font-size="16.2">1956</text><text x="191.7" y="556.5" fill="#666" text-anchor="middle" font-size="16.2">1970</text><text x="287.2" y="556.5" fill="#666" text-anchor="middle" font-size="16.2">1980</text><text x="382.7" y="556.5" fill="#666" text-anchor="middle" font-size="16.2">1990</text><text x="478.3" y="556.5" fill="#666" text-anchor="middle" font-size="16.2">2000</text><text x="592.9" y="556.5" fill="#666" text-anchor="middle" font-size="16.2">2012</text></g><g class="VerticalAxis"><text x="52.91" y="512.9" fill="#666" dominant-baseline="middle" text-anchor="end" font-size="16.2">-15%</text><text x="52.91" y="447.7" fill="#666" dominant-baseline="middle" text-anchor="end" font-size="16.2">-10%</text><text x="52.91" y="382.6" fill="#666" dominant-baseline="middle" text-anchor="end" font-size="16.2">-5%</text><text x="52.91" y="317.4" fill="#666" dominant-baseline="middle" text-anchor="end" font-size="16.2">0%</text><text x="52.91" y="252.3" fill="#666" dominant-baseline="middle" text-anchor="end" font-size="16.2">5%</text><text x="52.91" y="187.1" fill="#666" dominant-baseline="middle" text-anchor="end" font-size="16.2">10%</text><text x="52.91" y="122" fill="#666" dominant-baseline="middle" text-anchor="end" font-size="16.2">15%</text></g><g class="AxisGridLines"><line x1="57.91" y1="512.9" x2="592.91" y2="512.9" stroke="#ddd" stroke-dasharray="3,2"></line><line x1="57.91" y1="447.7" x2="592.91" y2="447.7" stroke="#ddd" stroke-dasharray="3,2"></line><line x1="57.91" y1="382.6" x2="592.91" y2="382.6" stroke="#ddd" stroke-dasharray="3,2"></line><line x1="57.91" y1="317.4" x2="592.91" y2="317.4" stroke="#ccc"></line><line x1="57.91" y1="252.3" x2="592.91" y2="252.3" stroke="#ddd" stroke-dasharray="3,2"></line><line x1="57.91" y1="187.1" x2="592.91" y2="187.1" stroke="#ddd" stroke-dasharray="3,2"></line><line x1="57.91" y1="122" x2="592.91" y2="122" stroke="#ddd" stroke-dasharray="3,2"></line></g></g><g clip-path="url(#boundsClip-654)"><g class="HeightedLegend clickable"><g class="legendMark"><g class="indicator"><line x1="597.91" y1="298.3" x2="617.0766666666666" y2="298.3" stroke="#666" stroke-width="0.5"></line><line x1="617.0766666666666" y1="298.3" x2="617.0766666666666" y2="298.3" stroke="#666" stroke-width="0.5"></line><line x1="617.0766666666666" y1="298.3" x2="622.91" y2="298.3" stroke="#666" stroke-width="0.5"></line></g><rect x="592.91" y="284.25" width="242.09" height="28.1" fill="#fff" opacity="0"></rect><text font-size="13.50" x="627.9" y="295.1" fill="#34983f"><tspan x="627.91" y="295.05">1.47% Growth rate of Private Final</tspan><tspan x="627.91" y="309.90000000000003">Consumption Expenditure (%)</tspan></text></g><g class="legendMark"><g class="indicator"><line x1="597.91" y1="308.3" x2="610.41" y2="308.3" stroke="#666" stroke-width="0.5"></line><line x1="610.41" y1="308.3" x2="610.41" y2="328.40000000000003" stroke="#666" stroke-width="0.5"></line><line x1="610.41" y1="328.40000000000003" x2="622.91" y2="328.40000000000003" stroke="#666" stroke-width="0.5"></line></g><rect x="592.91" y="314.35" width="232.235" height="28.1" fill="#fff" opacity="0"></rect><text font-size="13.50" x="627.9" y="325.2" fill="#ca2628"><tspan x="627.91" y="325.15000000000003">0.7% Growth rate of Gross Fixed</tspan><tspan x="627.91" y="340.00000000000006">Capital Formation (%)</tspan></text></g><g class="legendMark"><g class="indicator"><line x1="597.91" y1="314.2" x2="603.7433333333333" y2="314.2" stroke="#666" stroke-width="0.5"></line><line x1="603.7433333333333" y1="314.2" x2="603.7433333333333" y2="351.20000000000005" stroke="#666" stroke-width="0.5"></line><line x1="603.7433333333333" y1="351.20000000000005" x2="622.91" y2="351.20000000000005" stroke="#666" stroke-width="0.5"></line></g><rect x="592.91" y="344.45000000000005" width="220.895" height="13.5" fill="#fff" opacity="0"></rect><text font-size="13.50" x="627.9" y="355.3" fill="#3360a9"><tspan x="627.91" y="355.25000000000006">0.25% Growth rate of GDP (%)</tspan></text></g></g><g class="Lines"><rect x="58" y="109" width="535" height="426" fill="rgba(255,255,255,0)" opacity="0"></rect><g class="key-United-Kingdom_0"><path stroke="#3360a9" stroke-linecap="round" d="M58 301L68 291L77 309L87 256L96 242L106 281L115 298L125 257L134 241L144 284L153 288L163 281L173 258L182 286L192 284L201 287L211 267L220 220L230 332L239 324L249 284L259 286L268 275L278 280L287 344L297 334L306 288L316 268L325 279L335 267L345 261L354 250L364 245L373 284L383 294L392 341L402 306L411 277L421 258L431 276L440 277L450 267L459 271L469 279L478 261L488 289L497 288L507 266L517 276L526 275L536 282L545 273L555 328L564 385L574 296L583 303L593 314" fill="none" stroke-width="1.5"></path><g fill="#3360a9"><circle cx="58" cy="301" r="2"></circle><circle cx="68" cy="291" r="2"></circle><circle cx="77" cy="309" r="2"></circle><circle cx="87" cy="256" r="2"></circle><circle cx="96" cy="242" r="2"></circle><circle cx="106" cy="281" r="2"></circle><circle cx="115" cy="298" r="2"></circle><circle cx="125" cy="257" r="2"></circle><circle cx="134" cy="241" r="2"></circle><circle cx="144" cy="284" r="2"></circle><circle cx="153" cy="288" r="2"></circle><circle cx="163" cy="281" r="2"></circle><circle cx="173" cy="258" r="2"></circle><circle cx="182" cy="286" r="2"></circle><circle cx="192" cy="284" r="2"></circle><circle cx="201" cy="287" r="2"></circle><circle cx="211" cy="267" r="2"></circle><circle cx="220" cy="220" r="2"></circle><circle cx="230" cy="332" r="2"></circle><circle cx="239" cy="324" r="2"></circle><circle cx="249" cy="284" r="2"></circle><circle cx="259" cy="286" r="2"></circle><circle cx="268" cy="275" r="2"></circle><circle cx="278" cy="280" r="2"></circle><circle cx="287" cy="344" r="2"></circle><circle cx="297" cy="334" r="2"></circle><circle cx="306" cy="288" r="2"></circle><circle cx="316" cy="268" r="2"></circle><circle cx="325" cy="279" r="2"></circle><circle cx="335" cy="267" r="2"></circle><circle cx="345" cy="261" r="2"></circle><circle cx="354" cy="250" r="2"></circle><circle cx="364" cy="245" r="2"></circle><circle cx="373" cy="284" r="2"></circle><circle cx="383" cy="294" r="2"></circle><circle cx="392" cy="341" r="2"></circle><circle cx="402" cy="306" r="2"></circle><circle cx="411" cy="277" r="2"></circle><circle cx="421" cy="258" r="2"></circle><circle cx="431" cy="276" r="2"></circle><circle cx="440" cy="277" r="2"></circle><circle cx="450" cy="267" r="2"></circle><circle cx="459" cy="271" r="2"></circle><circle cx="469" cy="279" r="2"></circle><circle cx="478" cy="261" r="2"></circle><circle cx="488" cy="289" r="2"></circle><circle cx="497" cy="288" r="2"></circle><circle cx="507" cy="266" r="2"></circle><circle cx="517" cy="276" r="2"></circle><circle cx="526" cy="275" r="2"></circle><circle cx="536" cy="282" r="2"></circle><circle cx="545" cy="273" r="2"></circle><circle cx="555" cy="328" r="2"></circle><circle cx="564" cy="385" r="2"></circle><circle cx="574" cy="296" r="2"></circle><circle cx="583" cy="303" r="2"></circle><circle cx="593" cy="314" r="2"></circle></g></g><g class="key-United-Kingdom_1"><path stroke="#ca2628" stroke-linecap="round" d="M58 258L68 253L77 307L87 219L96 201L106 194L115 308L125 297L134 109L144 250L153 282L163 201L173 243L182 325L192 279L201 290L211 319L220 231L230 343L239 342L249 294L259 337L268 284L278 281L287 378L297 431L306 239L316 252L325 199L335 263L345 289L354 194L364 124L373 238L383 346L392 400L402 306L411 297L421 234L431 256L440 223L450 201L459 156L469 293L478 284L488 342L497 282L507 288L517 237L526 269L536 244L545 220L555 407L564 535L574 281L583 348L593 308" fill="none" stroke-width="1.5"></path><g fill="#ca2628"><circle cx="58" cy="258" r="2"></circle><circle cx="68" cy="253" r="2"></circle><circle cx="77" cy="307" r="2"></circle><circle cx="87" cy="219" r="2"></circle><circle cx="96" cy="201" r="2"></circle><circle cx="106" cy="194" r="2"></circle><circle cx="115" cy="308" r="2"></circle><circle cx="125" cy="297" r="2"></circle><circle cx="134" cy="109" r="2"></circle><circle cx="144" cy="250" r="2"></circle><circle cx="153" cy="282" r="2"></circle><circle cx="163" cy="201" r="2"></circle><circle cx="173" cy="243" r="2"></circle><circle cx="182" cy="325" r="2"></circle><circle cx="192" cy="279" r="2"></circle><circle cx="201" cy="290" r="2"></circle><circle cx="211" cy="319" r="2"></circle><circle cx="220" cy="231" r="2"></circle><circle cx="230" cy="343" r="2"></circle><circle cx="239" cy="342" r="2"></circle><circle cx="249" cy="294" r="2"></circle><circle cx="259" cy="337" r="2"></circle><circle cx="268" cy="284" r="2"></circle><circle cx="278" cy="281" r="2"></circle><circle cx="287" cy="378" r="2"></circle><circle cx="297" cy="431" r="2"></circle><circle cx="306" cy="239" r="2"></circle><circle cx="316" cy="252" r="2"></circle><circle cx="325" cy="199" r="2"></circle><circle cx="335" cy="263" r="2"></circle><circle cx="345" cy="289" r="2"></circle><circle cx="354" cy="194" r="2"></circle><circle cx="364" cy="124" r="2"></circle><circle cx="373" cy="238" r="2"></circle><circle cx="383" cy="346" r="2"></circle><circle cx="392" cy="400" r="2"></circle><circle cx="402" cy="306" r="2"></circle><circle cx="411" cy="297" r="2"></circle><circle cx="421" cy="234" r="2"></circle><circle cx="431" cy="256" r="2"></circle><circle cx="440" cy="223" r="2"></circle><circle cx="450" cy="201" r="2"></circle><circle cx="459" cy="156" r="2"></circle><circle cx="469" cy="293" r="2"></circle><circle cx="478" cy="284" r="2"></circle><circle cx="488" cy="342" r="2"></circle><circle cx="497" cy="282" r="2"></circle><circle cx="507" cy="288" r="2"></circle><circle cx="517" cy="237" r="2"></circle><circle cx="526" cy="269" r="2"></circle><circle cx="536" cy="244" r="2"></circle><circle cx="545" cy="220" r="2"></circle><circle cx="555" cy="407" r="2"></circle><circle cx="564" cy="535" r="2"></circle><circle cx="574" cy="281" r="2"></circle><circle cx="583" cy="348" r="2"></circle><circle cx="593" cy="308" r="2"></circle></g></g><g class="key-United-Kingdom_2"><path stroke="#34983f" stroke-linecap="round" d="M58 328L68 300L77 288L87 263L96 267L106 287L115 285L125 240L134 273L144 292L153 287L163 278L173 272L182 302L192 272L201 272L211 232L220 241L230 333L239 321L249 316L259 325L268 250L278 254L287 316L297 314L306 299L316 258L325 280L335 259L345 229L354 236L364 207L373 267L383 285L392 347L402 299L411 263L421 274L431 291L440 255L450 256L459 263L469 251L478 248L488 269L497 267L507 270L517 277L526 282L536 295L545 282L555 330L564 364L574 304L583 323L593 298" fill="none" stroke-width="1.5"></path><g fill="#34983f"><circle cx="58" cy="328" r="2"></circle><circle cx="68" cy="300" r="2"></circle><circle cx="77" cy="288" r="2"></circle><circle cx="87" cy="263" r="2"></circle><circle cx="96" cy="267" r="2"></circle><circle cx="106" cy="287" r="2"></circle><circle cx="115" cy="285" r="2"></circle><circle cx="125" cy="240" r="2"></circle><circle cx="134" cy="273" r="2"></circle><circle cx="144" cy="292" r="2"></circle><circle cx="153" cy="287" r="2"></circle><circle cx="163" cy="278" r="2"></circle><circle cx="173" cy="272" r="2"></circle><circle cx="182" cy="302" r="2"></circle><circle cx="192" cy="272" r="2"></circle><circle cx="201" cy="272" r="2"></circle><circle cx="211" cy="232" r="2"></circle><circle cx="220" cy="241" r="2"></circle><circle cx="230" cy="333" r="2"></circle><circle cx="239" cy="321" r="2"></circle><circle cx="249" cy="316" r="2"></circle><circle cx="259" cy="325" r="2"></circle><circle cx="268" cy="250" r="2"></circle><circle cx="278" cy="254" r="2"></circle><circle cx="287" cy="316" r="2"></circle><circle cx="297" cy="314" r="2"></circle><circle cx="306" cy="299" r="2"></circle><circle cx="316" cy="258" r="2"></circle><circle cx="325" cy="280" r="2"></circle><circle cx="335" cy="259" r="2"></circle><circle cx="345" cy="229" r="2"></circle><circle cx="354" cy="236" r="2"></circle><circle cx="364" cy="207" r="2"></circle><circle cx="373" cy="267" r="2"></circle><circle cx="383" cy="285" r="2"></circle><circle cx="392" cy="347" r="2"></circle><circle cx="402" cy="299" r="2"></circle><circle cx="411" cy="263" r="2"></circle><circle cx="421" cy="274" r="2"></circle><circle cx="431" cy="291" r="2"></circle><circle cx="440" cy="255" r="2"></circle><circle cx="450" cy="256" r="2"></circle><circle cx="459" cy="263" r="2"></circle><circle cx="469" cy="251" r="2"></circle><circle cx="478" cy="248" r="2"></circle><circle cx="488" cy="269" r="2"></circle><circle cx="497" cy="267" r="2"></circle><circle cx="507" cy="270" r="2"></circle><circle cx="517" cy="277" r="2"></circle><circle cx="526" cy="282" r="2"></circle><circle cx="536" cy="295" r="2"></circle><circle cx="545" cy="282" r="2"></circle><circle cx="555" cy="330" r="2"></circle><circle cx="564" cy="364" r="2"></circle><circle cx="574" cy="304" r="2"></circle><circle cx="583" cy="323" r="2"></circle><circle cx="593" cy="298" r="2"></circle></g></g></g></g></g><g class="SourcesFooter" style="fill:#777"><g class="clickable" style="fill:#777"><text font-size="12.60" x="15.0" y="581.6"><tspan x="15" y="581.58">Source: FRED (2015)</tspan></text></g><text font-size="12.60" x="660.0" y="581.6"><tspan x="659.986" y="581.58"><a href="https://ourworldindata.org" target="_blank">Powered by ourworldindata.org</a></tspan></text></g></svg>