<svg xmlns="http://www.w3.org/2000/svg" version="1.1" style="font-family:&#x27;Helvetica Neue&#x27;, Helvetica, Arial, sans-serif;font-size:18px;background-color:white;text-rendering:optimizeLegibility;-webkit-font-smoothing:antialiased" width="850" height="600"><g class="HeaderView"><a href="https://mispytest-owid.netlify.com/grapher/growth-rates-of-consumption-investment-and-gdp-in-the-us-per-cent-per-annum" target="_blank"><text font-size="21.60" x="15.0" y="32.3" fill="#555"><tspan x="15" y="32.279999999999994">Growth rates of consumption, investment, and GDP in the US, per cent per</tspan><tspan x="15" y="53.87999999999999">annum (1956–2012)</tspan></text></a><text font-size="14.40" x="15.0" y="72.7" fill="#666"><tspan x="15" y="72.72">Unit 13 &#x27;Economic fluctuations and unemployment’ Section 13.7 &#x27;Why investment is volatile?&#x27; in The CORE Team, The</tspan><tspan x="15" y="88.56">Economy. Available at: https://tinyco.re/1307191 [Figure 13.19a]</tspan></text></g><g class="LineChart"><defs><clipPath id="boundsClip-650"><rect x="47.908" y="0" width="830" height="894.8"></rect></clipPath></defs><g class="AxisBoxView"><g class="HorizontalAxis"><text x="57.9" y="556.5" fill="#666" text-anchor="middle" font-size="16.2">1956</text><text x="192.2" y="556.5" fill="#666" text-anchor="middle" font-size="16.2">1970</text><text x="288.2" y="556.5" fill="#666" text-anchor="middle" font-size="16.2">1980</text><text x="384.1" y="556.5" fill="#666" text-anchor="middle" font-size="16.2">1990</text><text x="480.1" y="556.5" fill="#666" text-anchor="middle" font-size="16.2">2000</text><text x="595.2" y="556.5" fill="#666" text-anchor="middle" font-size="16.2">2012</text></g><g class="VerticalAxis"><text x="52.91" y="490.4" fill="#666" dominant-baseline="middle" text-anchor="end" font-size="16.2">-10%</text><text x="52.91" y="417.3" fill="#666" dominant-baseline="middle" text-anchor="end" font-size="16.2">-5%</text><text x="52.91" y="344.3" fill="#666" dominant-baseline="middle" text-anchor="end" font-size="16.2">0%</text><text x="52.91" y="271.2" fill="#666" dominant-baseline="middle" text-anchor="end" font-size="16.2">5%</text><text x="52.91" y="198.1" fill="#666" dominant-baseline="middle" text-anchor="end" font-size="16.2">10%</text><text x="52.91" y="125" fill="#666" dominant-baseline="middle" text-anchor="end" font-size="16.2">15%</text></g><g class="AxisGridLines"><line x1="57.91" y1="490.4" x2="595.20" y2="490.4" stroke="#ddd" stroke-dasharray="3,2"></line><line x1="57.91" y1="417.3" x2="595.20" y2="417.3" stroke="#ddd" stroke-dasharray="3,2"></line><line x1="57.91" y1="344.3" x2="595.20" y2="344.3" stroke="#ccc"></line><line x1="57.91" y1="271.2" x2="595.20" y2="271.2" stroke="#ddd" stroke-dasharray="3,2"></line><line x1="57.91" y1="198.1" x2="595.20" y2="198.1" stroke="#ddd" stroke-dasharray="3,2"></line><line x1="57.91" y1="125" x2="595.20" y2="125" stroke="#ddd" stroke-dasharray="3,2"></line></g></g><g clip-path="url(#boundsClip-650)"><g class="HeightedLegend clickable"><g class="legendMark"><g class="indicator"><line x1="600.2049999999999" y1="263.6" x2="612.7049999999999" y2="263.6" stroke="#666" stroke-width="0.5"></line><line x1="612.7049999999999" y1="263.6" x2="612.7049999999999" y2="263.6" stroke="#666" stroke-width="0.5"></line><line x1="612.7049999999999" y1="263.6" x2="625.2049999999999" y2="263.6" stroke="#666" stroke-width="0.5"></line></g><rect x="595.2049999999999" y="249.55" width="239.79500000000002" height="28.1" fill="#fff" opacity="0"></rect><text font-size="13.50" x="630.2" y="260.4" fill="#34983f"><tspan x="630.2049999999999" y="260.35">5.52% Growth rate of Gross Fixed</tspan><tspan x="630.2049999999999" y="275.20000000000005">Capital Formation (%)</tspan></text></g><g class="legendMark"><g class="indicator"><line x1="600.2049999999999" y1="303.6" x2="622.7049999999999" y2="303.6" stroke="#666" stroke-width="0.5"></line><line x1="622.7049999999999" y1="303.6" x2="622.7049999999999" y2="303.6" stroke="#666" stroke-width="0.5"></line><line x1="622.7049999999999" y1="303.6" x2="625.2049999999999" y2="303.6" stroke="#666" stroke-width="0.5"></line></g><rect x="595.2049999999999" y="296.85" width="220.895" height="13.5" fill="#fff" opacity="0"></rect><text font-size="13.50" x="630.2" y="307.7" fill="#ca2628"><tspan x="630.2049999999999" y="307.65000000000003">2.78% Growth rate of GDP (%)</tspan></text></g><g class="legendMark"><g class="indicator"><line x1="600.2049999999999" y1="312.1" x2="612.7049999999999" y2="312.1" stroke="#666" stroke-width="0.5"></line><line x1="612.7049999999999" y1="312.1" x2="612.7049999999999" y2="326.40000000000003" stroke="#666" stroke-width="0.5"></line><line x1="612.7049999999999" y1="326.40000000000003" x2="625.2049999999999" y2="326.40000000000003" stroke="#666" stroke-width="0.5"></line></g><rect x="595.2049999999999" y="312.35" width="234.53" height="28.1" fill="#fff" opacity="0"></rect><text font-size="13.50" x="630.2" y="323.2" fill="#3360a9"><tspan x="630.2049999999999" y="323.15000000000003">2.2% Growth rate of Private Final</tspan><tspan x="630.2049999999999" y="338.00000000000006">Consumption Expenditure (%)</tspan></text></g></g><g class="Lines"><rect x="58" y="109" width="537" height="426" fill="rgba(255,255,255,0)" opacity="0"></rect><g class="key-United-States_0"><path stroke="#ca2628" stroke-linecap="round" d="M58 313L68 314L77 355L87 243L96 307L106 307L116 255L125 281L135 260L144 249L154 248L163 304L173 273L183 298L192 341L202 296L211 268L221 262L231 352L240 347L250 266L259 277L269 263L279 298L288 348L298 306L307 372L317 277L327 238L336 282L346 293L355 294L365 283L375 291L384 316L394 345L403 292L413 304L423 285L432 305L442 289L451 279L461 279L471 273L480 285L490 330L499 318L509 304L518 289L528 295L538 305L547 318L557 349L566 385L576 308L586 317L595 304" fill="none" stroke-width="1.5"></path><g fill="#ca2628"><circle cx="58" cy="313" r="2"></circle><circle cx="68" cy="314" r="2"></circle><circle cx="77" cy="355" r="2"></circle><circle cx="87" cy="243" r="2"></circle><circle cx="96" cy="307" r="2"></circle><circle cx="106" cy="307" r="2"></circle><circle cx="116" cy="255" r="2"></circle><circle cx="125" cy="281" r="2"></circle><circle cx="135" cy="260" r="2"></circle><circle cx="144" cy="249" r="2"></circle><circle cx="154" cy="248" r="2"></circle><circle cx="163" cy="304" r="2"></circle><circle cx="173" cy="273" r="2"></circle><circle cx="183" cy="298" r="2"></circle><circle cx="192" cy="341" r="2"></circle><circle cx="202" cy="296" r="2"></circle><circle cx="211" cy="268" r="2"></circle><circle cx="221" cy="262" r="2"></circle><circle cx="231" cy="352" r="2"></circle><circle cx="240" cy="347" r="2"></circle><circle cx="250" cy="266" r="2"></circle><circle cx="259" cy="277" r="2"></circle><circle cx="269" cy="263" r="2"></circle><circle cx="279" cy="298" r="2"></circle><circle cx="288" cy="348" r="2"></circle><circle cx="298" cy="306" r="2"></circle><circle cx="307" cy="372" r="2"></circle><circle cx="317" cy="277" r="2"></circle><circle cx="327" cy="238" r="2"></circle><circle cx="336" cy="282" r="2"></circle><circle cx="346" cy="293" r="2"></circle><circle cx="355" cy="294" r="2"></circle><circle cx="365" cy="283" r="2"></circle><circle cx="375" cy="291" r="2"></circle><circle cx="384" cy="316" r="2"></circle><circle cx="394" cy="345" r="2"></circle><circle cx="403" cy="292" r="2"></circle><circle cx="413" cy="304" r="2"></circle><circle cx="423" cy="285" r="2"></circle><circle cx="432" cy="305" r="2"></circle><circle cx="442" cy="289" r="2"></circle><circle cx="451" cy="279" r="2"></circle><circle cx="461" cy="279" r="2"></circle><circle cx="471" cy="273" r="2"></circle><circle cx="480" cy="285" r="2"></circle><circle cx="490" cy="330" r="2"></circle><circle cx="499" cy="318" r="2"></circle><circle cx="509" cy="304" r="2"></circle><circle cx="518" cy="289" r="2"></circle><circle cx="528" cy="295" r="2"></circle><circle cx="538" cy="305" r="2"></circle><circle cx="547" cy="318" r="2"></circle><circle cx="557" cy="349" r="2"></circle><circle cx="566" cy="385" r="2"></circle><circle cx="576" cy="308" r="2"></circle><circle cx="586" cy="317" r="2"></circle><circle cx="595" cy="304" r="2"></circle></g></g><g class="key-United-States_1"><path stroke="#34983f" stroke-linecap="round" d="M58 340L68 350L77 388L87 158L96 348L106 308L116 232L125 265L135 235L144 229L154 250L163 346L173 279L183 300L192 391L202 294L211 222L221 227L231 408L240 466L250 226L259 183L269 178L279 261L288 418L298 325L307 433L317 237L327 109L336 246L346 306L355 322L365 307L375 298L384 350L394 419L403 273L413 257L423 238L432 261L442 232L451 236L461 214L471 222L480 252L490 352L499 370L509 287L518 259L528 262L538 312L547 362L557 415L566 535L576 328L586 294L595 264" fill="none" stroke-width="1.5"></path><g fill="#34983f"><circle cx="58" cy="340" r="2"></circle><circle cx="68" cy="350" r="2"></circle><circle cx="77" cy="388" r="2"></circle><circle cx="87" cy="158" r="2"></circle><circle cx="96" cy="348" r="2"></circle><circle cx="106" cy="308" r="2"></circle><circle cx="116" cy="232" r="2"></circle><circle cx="125" cy="265" r="2"></circle><circle cx="135" cy="235" r="2"></circle><circle cx="144" cy="229" r="2"></circle><circle cx="154" cy="250" r="2"></circle><circle cx="163" cy="346" r="2"></circle><circle cx="173" cy="279" r="2"></circle><circle cx="183" cy="300" r="2"></circle><circle cx="192" cy="391" r="2"></circle><circle cx="202" cy="294" r="2"></circle><circle cx="211" cy="222" r="2"></circle><circle cx="221" cy="227" r="2"></circle><circle cx="231" cy="408" r="2"></circle><circle cx="240" cy="466" r="2"></circle><circle cx="250" cy="226" r="2"></circle><circle cx="259" cy="183" r="2"></circle><circle cx="269" cy="178" r="2"></circle><circle cx="279" cy="261" r="2"></circle><circle cx="288" cy="418" r="2"></circle><circle cx="298" cy="325" r="2"></circle><circle cx="307" cy="433" r="2"></circle><circle cx="317" cy="237" r="2"></circle><circle cx="327" cy="109" r="2"></circle><circle cx="336" cy="246" r="2"></circle><circle cx="346" cy="306" r="2"></circle><circle cx="355" cy="322" r="2"></circle><circle cx="365" cy="307" r="2"></circle><circle cx="375" cy="298" r="2"></circle><circle cx="384" cy="350" r="2"></circle><circle cx="394" cy="419" r="2"></circle><circle cx="403" cy="273" r="2"></circle><circle cx="413" cy="257" r="2"></circle><circle cx="423" cy="238" r="2"></circle><circle cx="432" cy="261" r="2"></circle><circle cx="442" cy="232" r="2"></circle><circle cx="451" cy="236" r="2"></circle><circle cx="461" cy="214" r="2"></circle><circle cx="471" cy="222" r="2"></circle><circle cx="480" cy="252" r="2"></circle><circle cx="490" cy="352" r="2"></circle><circle cx="499" cy="370" r="2"></circle><circle cx="509" cy="287" r="2"></circle><circle cx="518" cy="259" r="2"></circle><circle cx="528" cy="262" r="2"></circle><circle cx="538" cy="312" r="2"></circle><circle cx="547" cy="362" r="2"></circle><circle cx="557" cy="415" r="2"></circle><circle cx="566" cy="535" r="2"></circle><circle cx="576" cy="328" r="2"></circle><circle cx="586" cy="294" r="2"></circle><circle cx="595" cy="264" r="2"></circle></g></g><g class="key-United-States_2"><path stroke="#3360a9" stroke-linecap="round" d="M58 302L68 308L77 332L87 261L96 304L106 314L116 272L125 284L135 257L144 252L154 262L163 301L173 260L183 290L192 310L202 289L211 255L221 272L231 356L240 311L250 263L259 283L269 280L279 310L288 349L298 323L307 324L317 261L327 267L336 267L346 283L355 295L365 283L375 302L384 314L394 341L403 290L413 294L423 288L432 301L442 293L451 289L461 266L471 264L480 270L490 308L499 307L509 299L518 288L528 293L538 300L547 311L557 350L566 367L576 316L586 307L595 312" fill="none" stroke-width="1.5"></path><g fill="#3360a9"><circle cx="58" cy="302" r="2"></circle><circle cx="68" cy="308" r="2"></circle><circle cx="77" cy="332" r="2"></circle><circle cx="87" cy="261" r="2"></circle><circle cx="96" cy="304" r="2"></circle><circle cx="106" cy="314" r="2"></circle><circle cx="116" cy="272" r="2"></circle><circle cx="125" cy="284" r="2"></circle><circle cx="135" cy="257" r="2"></circle><circle cx="144" cy="252" r="2"></circle><circle cx="154" cy="262" r="2"></circle><circle cx="163" cy="301" r="2"></circle><circle cx="173" cy="260" r="2"></circle><circle cx="183" cy="290" r="2"></circle><circle cx="192" cy="310" r="2"></circle><circle cx="202" cy="289" r="2"></circle><circle cx="211" cy="255" r="2"></circle><circle cx="221" cy="272" r="2"></circle><circle cx="231" cy="356" r="2"></circle><circle cx="240" cy="311" r="2"></circle><circle cx="250" cy="263" r="2"></circle><circle cx="259" cy="283" r="2"></circle><circle cx="269" cy="280" r="2"></circle><circle cx="279" cy="310" r="2"></circle><circle cx="288" cy="349" r="2"></circle><circle cx="298" cy="323" r="2"></circle><circle cx="307" cy="324" r="2"></circle><circle cx="317" cy="261" r="2"></circle><circle cx="327" cy="267" r="2"></circle><circle cx="336" cy="267" r="2"></circle><circle cx="346" cy="283" r="2"></circle><circle cx="355" cy="295" r="2"></circle><circle cx="365" cy="283" r="2"></circle><circle cx="375" cy="302" r="2"></circle><circle cx="384" cy="314" r="2"></circle><circle cx="394" cy="341" r="2"></circle><circle cx="403" cy="290" r="2"></circle><circle cx="413" cy="294" r="2"></circle><circle cx="423" cy="288" r="2"></circle><circle cx="432" cy="301" r="2"></circle><circle cx="442" cy="293" r="2"></circle><circle cx="451" cy="289" r="2"></circle><circle cx="461" cy="266" r="2"></circle><circle cx="471" cy="264" r="2"></circle><circle cx="480" cy="270" r="2"></circle><circle cx="490" cy="308" r="2"></circle><circle cx="499" cy="307" r="2"></circle><circle cx="509" cy="299" r="2"></circle><circle cx="518" cy="288" r="2"></circle><circle cx="528" cy="293" r="2"></circle><circle cx="538" cy="300" r="2"></circle><circle cx="547" cy="311" r="2"></circle><circle cx="557" cy="350" r="2"></circle><circle cx="566" cy="367" r="2"></circle><circle cx="576" cy="316" r="2"></circle><circle cx="586" cy="307" r="2"></circle><circle cx="595" cy="312" r="2"></circle></g></g></g></g></g><g class="SourcesFooter" style="fill:#777"><g class="clickable" style="fill:#777"><text font-size="12.60" x="15.0" y="581.6"><tspan x="15" y="581.58">Source: FRED (2015)</tspan></text></g><text font-size="12.60" x="660.0" y="581.6"><tspan x="659.986" y="581.58"><a href="https://ourworldindata.org" target="_blank">Powered by ourworldindata.org</a></tspan></text></g></svg>