<svg xmlns="http://www.w3.org/2000/svg" version="1.1" style="font-family:&#x27;Helvetica Neue&#x27;, Helvetica, Arial, sans-serif;font-size:18px;background-color:white;text-rendering:optimizeLegibility;-webkit-font-smoothing:antialiased" width="850" height="600"><g class="HeaderView"><a href="https://mispytest-owid.netlify.com/grapher/historys-hockey-stick-worldwide-historical-gross-domestic-product-per-capita-2011" target="_blank"><text font-size="21.60" x="15.0" y="32.3" fill="#555"><tspan x="15" y="32.279999999999994">History’s hockey stick: Worldwide historical gross domestic product per capita</tspan><tspan x="15" y="53.87999999999999">(1000–2016)</tspan></text></a><text font-size="14.40" x="15.0" y="72.7" fill="#666"><tspan x="15" y="72.72">Unit 1 &#x27;The capitalist revolution’ in The CORE Team, The Economy. Available at: https://tinyco.re/1927492 [Figure 1.1a]
</tspan></text></g><g class="LineChart"><defs><clipPath id="boundsClip-696"><rect x="68.968" y="0" width="830" height="898.4000000000001"></rect></clipPath></defs><g class="AxisBoxView"><g class="HorizontalAxis"><text x="79" y="542.8000000000001" fill="#666" text-anchor="middle" font-size="16.2">1000</text><text x="191.5" y="542.8000000000001" fill="#666" text-anchor="middle" font-size="16.2">1200</text><text x="304.1" y="542.8000000000001" fill="#666" text-anchor="middle" font-size="16.2">1400</text><text x="416.6" y="542.8000000000001" fill="#666" text-anchor="middle" font-size="16.2">1600</text><text x="529.1" y="542.8000000000001" fill="#666" text-anchor="middle" font-size="16.2">1800</text><text x="650.7" y="542.8000000000001" fill="#666" text-anchor="middle" font-size="16.2">2016</text></g><g class="VerticalAxis"><text x="73.97" y="521.6" fill="#666" dominant-baseline="middle" text-anchor="end" font-size="16.2">$0</text><text x="73.97" y="467" fill="#666" dominant-baseline="middle" text-anchor="end" font-size="16.2">$5,000</text><text x="73.97" y="412.3" fill="#666" dominant-baseline="middle" text-anchor="end" font-size="16.2">$10,000</text><text x="73.97" y="357.7" fill="#666" dominant-baseline="middle" text-anchor="end" font-size="16.2">$15,000</text><text x="73.97" y="303" fill="#666" dominant-baseline="middle" text-anchor="end" font-size="16.2">$20,000</text><text x="73.97" y="248.4" fill="#666" dominant-baseline="middle" text-anchor="end" font-size="16.2">$25,000</text><text x="73.97" y="193.7" fill="#666" dominant-baseline="middle" text-anchor="end" font-size="16.2">$30,000</text><text x="73.97" y="139.1" fill="#666" dominant-baseline="middle" text-anchor="end" font-size="16.2">$35,000</text><text x="15" y="85.6" style="font-size:12px;text-transform:uppercase;cursor:pointer" class="clickable">linear</text></g><g class="AxisGridLines"><line x1="78.97" y1="521.6" x2="650.69" y2="521.6" stroke="#ccc"></line><line x1="78.97" y1="467" x2="650.69" y2="467" stroke="#ddd" stroke-dasharray="3,2"></line><line x1="78.97" y1="412.3" x2="650.69" y2="412.3" stroke="#ddd" stroke-dasharray="3,2"></line><line x1="78.97" y1="357.7" x2="650.69" y2="357.7" stroke="#ddd" stroke-dasharray="3,2"></line><line x1="78.97" y1="303" x2="650.69" y2="303" stroke="#ddd" stroke-dasharray="3,2"></line><line x1="78.97" y1="248.4" x2="650.69" y2="248.4" stroke="#ddd" stroke-dasharray="3,2"></line><line x1="78.97" y1="193.7" x2="650.69" y2="193.7" stroke="#ddd" stroke-dasharray="3,2"></line><line x1="78.97" y1="139.1" x2="650.69" y2="139.1" stroke="#ddd" stroke-dasharray="3,2"></line></g></g><g clip-path="url(#boundsClip-696)"><g class="HeightedLegend clickable"><g class="legendMark"><rect x="650.69" y="86.85" width="184.31" height="13.5" fill="#fff" opacity="0"></rect><text font-size="13.50" x="655.7" y="97.6" fill="#3360a9"><tspan x="655.69" y="97.64999999999999">$39,162 United Kingdom</tspan></text></g><g class="legendMark"><rect x="650.69" y="116.45" width="124.91000000000001" height="13.5" fill="#fff" opacity="0"></rect><text font-size="13.50" x="655.7" y="127.2" fill="#ed6c2d"><tspan x="655.69" y="127.24999999999999">$36,452 Japan</tspan></text></g><g class="legendMark"><rect x="650.69" y="132.45" width="112.76" height="13.5" fill="#fff" opacity="0"></rect><text font-size="13.50" x="655.7" y="143.3" fill="#34983f"><tspan x="655.69" y="143.25">$34,989 Italy</tspan></text></g><g class="legendMark"><rect x="650.69" y="380.25" width="123.29" height="13.5" fill="#fff" opacity="0"></rect><text font-size="13.50" x="655.7" y="391.1" fill="#a652ba"><tspan x="655.69" y="391.05">$12,320 China</tspan></text></g><g class="legendMark"><rect x="650.69" y="449.75" width="109.79" height="13.5" fill="#fff" opacity="0"></rect><text font-size="13.50" x="655.7" y="460.6" fill="#000"><tspan x="655.69" y="460.55">$5,961 India</tspan></text></g></g><g class="Lines"><rect x="79" y="94" width="572" height="428" fill="rgba(255,255,255,0)" opacity="0"></rect><g class="key-United-Kingdom_0"><path stroke="#3360a9" stroke-linecap="round" d="M79 513L473 504L473 503L474 503L475 505L475 502L476 503L476 506L477 504L477 503L478 505L479 507L479 505L480 505L480 506L481 505L481 505L482 505L482 504L483 503L484 503L484 502L485 503L485 503L486 503L486 503L487 503L488 504L488 504L489 503L489 504L490 503L490 504L491 503L491 502L492 502L493 503L493 502L494 503L494 503L495 503L495 503L496 503L497 502L497 503L498 503L498 503L499 503L499 502L500 502L500 502L501 502L502 503L502 502L503 502L503 503L504 502L504 503L505 502L506 501L506 501L507 501L507 500L508 501L508 501L509 501L509 501L510 501L511 501L511 501L512 500L512 500L513 500L513 501L514 501L515 501L515 501L516 500L516 500L517 500L517 501L518 500L519 499L519 500L520 500L520 500L521 500L521 500L522 501L522 501L523 501L524 500L524 500L525 499L525 500L526 501L526 499L527 498L528 499L528 499L529 499L529 498L530 497L530 497L531 498L531 499L532 498L533 498L533 497L534 498L534 498L535 497L535 497L536 499L537 498L537 499L538 496L538 498L539 498L539 499L540 499L540 498L541 498L542 498L542 497L543 496L543 496L544 498L544 496L545 497L546 497L546 496L547 496L547 496L548 496L548 495L549 494L549 493L550 494L551 493L551 494L552 493L552 494L553 494L553 493L554 491L555 490L555 490L556 491L556 490L557 490L557 490L558 489L558 488L559 488L560 486L560 487L561 486L561 485L562 486L562 485L563 485L564 485L564 487L565 484L565 484L566 483L566 482L567 483L567 481L568 481L569 480L569 480L570 480L570 479L571 479L571 478L572 478L573 478L573 478L574 479L574 477L575 476L575 475L576 474L576 475L577 475L578 475L578 473L579 471L579 468L580 469L580 469L581 470L582 471L582 468L583 466L583 464L584 464L584 462L585 460L585 460L586 461L587 460L587 461L588 461L588 459L589 457L589 457L590 460L591 459L591 457L592 455L592 454L593 452L593 452L594 447L594 447L595 446L596 446L596 455L597 460L597 462L598 456L598 454L599 451L600 448L600 450L601 444L601 444L602 441L602 442L603 446L603 446L604 444L605 439L605 436L606 433L606 430L607 429L607 429L608 420L609 411L609 409L610 407L610 412L611 417L611 422L612 424L612 421L613 418L614 418L614 417L615 418L615 413L616 408L616 404L617 402L618 400L618 400L619 396L619 391L620 386L620 386L621 381L621 374L622 371L623 368L623 364L624 362L624 355L625 350L625 350L626 346L627 335L627 338L628 339L628 332L629 323L629 313L630 302L630 297L631 303L632 305L632 302L633 300L633 295L634 289L634 279L635 269L636 263L636 259L637 263L637 261L638 254L638 245L639 232L639 218L640 196L641 183L641 169L642 146L642 137L643 135L643 135L644 125L645 109L645 104L646 106L646 110L647 131L647 138L648 139L648 131L649 110L650 104L650 98L651 94" fill="none" stroke-width="1.5"></path></g><g class="key-Japan_0"><path stroke="#ed6c2d" stroke-linecap="round" d="M163 514L237 514L332 514L417 513L445 513L473 512L501 513L529 512L557 512L569 511L569 511L570 511L570 511L571 511L571 510L572 510L573 510L573 510L574 509L574 509L575 510L575 509L576 509L576 509L577 509L578 508L578 508L579 509L579 508L580 507L580 508L581 507L582 507L582 505L583 505L583 506L584 506L584 503L585 505L585 504L586 504L587 505L587 504L588 504L588 505L589 503L589 502L590 502L591 503L591 503L592 502L592 501L593 501L593 502L594 501L594 498L595 497L596 497L596 495L597 497L597 495L598 495L598 495L599 495L600 494L600 494L601 494L601 493L602 492L602 495L603 495L603 493L604 491L605 491L605 491L606 489L606 488L607 486L607 481L608 480L609 480L609 481L610 481L610 483L611 502L611 501L612 499L612 497L613 496L614 494L614 490L615 488L615 486L616 485L616 482L617 480L618 477L618 474L619 471L619 465L620 459L620 453L621 449L621 441L622 437L623 428L623 419L624 407L624 393L625 381L625 374L626 363L627 353L627 357L628 350L628 341L629 331L629 319L630 309L630 299L631 304L632 307L632 313L633 315L633 314L634 299L634 286L635 266L636 250L636 234L637 214L637 204L638 194L638 186L639 170L639 166L640 165L641 170L641 172L642 158L642 160L643 159L643 155L644 146L645 136L645 133L646 128L646 136L647 152L647 134L648 139L648 138L649 134L650 133L650 128L651 123" fill="none" stroke-width="1.5"></path></g><g class="key-Italy_0"><path stroke="#34983f" stroke-linecap="round" d="M248 504L275 506L304 503L360 505L400 506L417 507L445 507L473 506L501 505L529 507L530 507L530 507L531 506L531 506L532 506L533 506L533 506L534 505L534 505L535 506L535 507L536 506L537 506L537 506L538 506L538 507L539 507L539 505L540 506L540 506L541 506L542 506L542 506L543 505L543 505L544 505L544 505L545 505L546 505L546 506L547 505L547 505L548 505L548 505L549 504L549 505L550 506L551 506L551 506L552 505L552 505L553 505L553 506L554 506L555 506L555 506L556 506L556 506L557 506L557 506L558 506L558 506L559 506L560 507L560 507L561 507L561 506L562 506L562 506L563 506L564 506L564 506L565 506L565 506L566 505L566 505L567 506L567 506L568 506L569 505L569 506L570 506L570 506L571 505L571 505L572 505L573 505L573 504L574 504L574 504L575 503L575 503L576 503L576 503L577 502L578 502L578 501L579 501L579 502L580 501L580 501L581 501L582 501L582 500L583 500L583 500L584 499L584 499L585 499L585 498L586 498L587 497L587 497L588 496L588 496L589 495L589 494L590 493L591 493L591 493L592 493L592 493L593 492L593 494L594 495L594 494L595 494L596 495L596 496L597 496L597 497L598 495L598 494L599 494L600 492L600 493L601 494L601 493L602 492L602 493L603 493L603 493L604 493L605 493L605 492L606 493L606 490L607 489L607 487L608 487L609 488L609 490L610 495L610 500L611 502L611 495L612 490L612 487L613 484L614 481L614 478L615 475L615 470L616 468L616 464L617 461L618 457L618 453L619 448L619 444L620 438L620 430L621 424L621 421L622 420L623 414L623 405L624 395L624 387L625 383L625 381L626 375L627 366L627 358L628 361L628 347L629 338L629 328L630 312L630 298L631 303L632 305L632 308L633 308L633 305L634 290L634 279L635 269L636 260L636 248L637 238L637 234L638 234L638 225L639 214L639 211L640 199L641 181L641 172L642 159L642 150L643 162L643 167L644 168L645 162L645 150L646 131L646 129L647 142L647 144L648 137L648 138L649 145L650 146L650 143L651 139" fill="none" stroke-width="1.5"></path></g><g class="key-China_0"><path stroke="#a652ba" stroke-linecap="round" d="M451 511L510 514L536 515L540 514L543 514L557 515L569 513L578 513L580 513L585 512L592 513L592 512L593 512L602 511L602 511L603 511L603 511L604 512L605 512L605 511L606 510L606 511L607 511L614 513L614 512L615 511L615 510L616 511L616 510L617 510L618 510L618 510L619 511L619 512L620 513L620 512L621 511L621 510L622 509L623 509L623 509L624 510L624 509L625 508L625 507L626 507L627 507L627 507L628 506L628 507L629 506L629 504L630 504L630 503L631 503L632 502L632 501L633 498L633 496L634 495L634 494L635 494L636 494L636 495L637 494L637 492L638 489L638 487L639 486L639 483L640 483L641 483L641 481L642 477L642 474L643 469L643 466L644 461L645 452L645 446L646 440L646 437L647 430L647 418L648 410L648 405L649 400L650 394L650 390L651 387" fill="none" stroke-width="1.5"></path></g><g class="key-India_0"><path stroke="#000" stroke-linecap="round" d="M417 507L445 508L473 509L501 510L530 510L535 511L541 511L547 511L552 511L558 511L564 512L569 512L576 511L577 511L578 511L578 511L579 510L579 511L580 510L580 511L581 510L582 510L582 510L583 510L583 511L584 509L584 509L585 510L585 509L586 509L587 508L587 508L588 508L588 508L589 508L589 509L590 508L591 507L591 507L592 507L592 507L593 507L593 506L594 506L594 506L595 506L596 508L596 506L597 507L597 506L598 506L598 506L599 506L600 506L600 505L601 505L601 505L602 505L602 505L603 505L603 505L604 505L605 505L605 506L606 505L606 505L607 506L607 505L608 505L609 505L609 505L610 505L610 505L611 505L611 506L612 506L612 506L613 506L614 506L614 506L615 507L615 506L616 506L616 506L617 506L618 507L618 506L619 507L619 506L620 507L620 507L621 507L621 506L622 508L623 508L623 508L624 508L624 508L625 508L625 508L626 508L627 507L627 508L628 507L628 507L629 508L629 508L630 509L630 509L631 510L632 510L632 510L633 510L633 510L634 510L634 510L635 509L636 508L636 508L637 507L637 507L638 506L638 505L639 505L639 503L640 503L641 501L641 501L642 500L642 499L643 498L643 496L644 494L645 491L645 488L646 485L646 481L647 479L647 474L648 470L648 467L649 466L650 464L650 460L651 457" fill="none" stroke-width="1.5"></path></g></g></g></g><g class="SourcesFooter" style="fill:#777"><g class="clickable" style="fill:#777"><text font-size="12.60" x="15.0" y="567.9"><tspan x="15" y="567.88">Source: Maddison Project Database (2018)</tspan></text></g><text font-size="12.60" x="15.0" y="582.5"><tspan x="15" y="582.48">Note: The units of measurement is &#x27;2011 US dollar&#x27; which is used to compare Purchasing Power Parity and GDP across countriesover time.</tspan></text><text font-size="12.60" x="660.0" y="567.9"><tspan x="659.986" y="567.88"><a href="https://ourworldindata.org" target="_blank">Powered by ourworldindata.org</a></tspan></text></g></svg>