<svg xmlns="http://www.w3.org/2000/svg" version="1.1" style="font-family:&#x27;Helvetica Neue&#x27;, Helvetica, Arial, sans-serif;font-size:18px;background-color:white;text-rendering:optimizeLegibility;-webkit-font-smoothing:antialiased" width="850" height="600"><g class="HeaderView"><a href="https://mispytest-owid.netlify.com/grapher/historys-hockey-stick-gross-domestic-product-per-capita-using-the-ratio-scale-2011" target="_blank"><text font-size="21.60" x="15.0" y="32.3" fill="#555"><tspan x="15" y="32.279999999999994">History’s hockey stick: Gross domestic product per capita (1000–2016) using the</tspan><tspan x="15" y="53.87999999999999">ratio scale</tspan></text></a><text font-size="14.40" x="15.0" y="72.7" fill="#666"><tspan x="15" y="72.72">Unit 1 &#x27;The capitalist revolution’ Section 1.3 &#x27;History&#x27;s Hockey Stick: Growth in income&#x27; in The CORE Team, The Economy.</tspan><tspan x="15" y="88.56">Available at: https://tinyco.re/2812637 [Figure 1.1b]</tspan></text></g><g class="LineChart"><defs><clipPath id="boundsClip-694"><rect x="68.968" y="0" width="830" height="867.4"></rect></clipPath></defs><g class="AxisBoxView"><g class="HorizontalAxis"><text x="79" y="542.8" fill="#666" text-anchor="middle" font-size="16.2">1000</text><text x="191.5" y="542.8" fill="#666" text-anchor="middle" font-size="16.2">1200</text><text x="304.1" y="542.8" fill="#666" text-anchor="middle" font-size="16.2">1400</text><text x="416.6" y="542.8" fill="#666" text-anchor="middle" font-size="16.2">1600</text><text x="529.1" y="542.8" fill="#666" text-anchor="middle" font-size="16.2">1800</text><text x="650.7" y="542.8" fill="#666" text-anchor="middle" font-size="16.2">2016</text></g><g class="VerticalAxis"><text x="73.97" y="474.6" fill="#666" dominant-baseline="middle" text-anchor="end" font-size="16.2">$1,000</text><text x="73.97" y="245.1" fill="#666" dominant-baseline="middle" text-anchor="end" font-size="16.2">$10,000</text><text x="15" y="101.1" style="font-size:12px;text-transform:uppercase;cursor:pointer" class="clickable">log</text></g><g class="AxisGridLines"><line x1="78.97" y1="474.6" x2="650.69" y2="474.6" stroke="#ddd" stroke-dasharray="3,2"></line><line x1="78.97" y1="245.1" x2="650.69" y2="245.1" stroke="#ddd" stroke-dasharray="3,2"></line></g></g><g clip-path="url(#boundsClip-694)"><g class="HeightedLegend clickable"><g class="legendMark"><g class="indicator"><line x1="655.69" y1="109.1" x2="674.8566666666667" y2="109.1" stroke="#666" stroke-width="0.5"></line><line x1="674.8566666666667" y1="109.1" x2="674.8566666666667" y2="109.1" stroke="#666" stroke-width="0.5"></line><line x1="674.8566666666667" y1="109.1" x2="680.69" y2="109.1" stroke="#666" stroke-width="0.5"></line></g><rect x="650.69" y="102.35" width="184.31" height="13.5" fill="#fff" opacity="0"></rect><text font-size="13.50" x="685.7" y="113.1" fill="#3360a9"><tspan x="685.69" y="113.14999999999999">$39,162 United Kingdom</tspan></text></g><g class="legendMark"><g class="indicator"><line x1="655.69" y1="116.2" x2="668.19" y2="116.2" stroke="#666" stroke-width="0.5"></line><line x1="668.19" y1="116.2" x2="668.19" y2="124.6" stroke="#666" stroke-width="0.5"></line><line x1="668.19" y1="124.6" x2="680.69" y2="124.6" stroke="#666" stroke-width="0.5"></line></g><rect x="650.69" y="117.85" width="124.91000000000001" height="13.5" fill="#fff" opacity="0"></rect><text font-size="13.50" x="685.7" y="128.7" fill="#ed6c2d"><tspan x="685.69" y="128.65">$36,452 Japan</tspan></text></g><g class="legendMark"><g class="indicator"><line x1="655.69" y1="120.3" x2="661.5233333333334" y2="120.3" stroke="#666" stroke-width="0.5"></line><line x1="661.5233333333334" y1="120.3" x2="661.5233333333334" y2="140.1" stroke="#666" stroke-width="0.5"></line><line x1="661.5233333333334" y1="140.1" x2="680.69" y2="140.1" stroke="#666" stroke-width="0.5"></line></g><rect x="650.69" y="133.35" width="112.76" height="13.5" fill="#fff" opacity="0"></rect><text font-size="13.50" x="685.7" y="144.2" fill="#34983f"><tspan x="685.69" y="144.15">$34,989 Italy</tspan></text></g><g class="legendMark"><g class="indicator"><line x1="655.69" y1="224.3" x2="668.19" y2="224.3" stroke="#666" stroke-width="0.5"></line><line x1="668.19" y1="224.3" x2="668.19" y2="224.3" stroke="#666" stroke-width="0.5"></line><line x1="668.19" y1="224.3" x2="680.69" y2="224.3" stroke="#666" stroke-width="0.5"></line></g><rect x="650.69" y="217.55" width="123.29" height="13.5" fill="#fff" opacity="0"></rect><text font-size="13.50" x="685.7" y="228.4" fill="#a652ba"><tspan x="685.69" y="228.35000000000002">$12,320 China</tspan></text></g><g class="legendMark"><g class="indicator"><line x1="655.69" y1="296.7" x2="668.19" y2="296.7" stroke="#666" stroke-width="0.5"></line><line x1="668.19" y1="296.7" x2="668.19" y2="296.7" stroke="#666" stroke-width="0.5"></line><line x1="668.19" y1="296.7" x2="680.69" y2="296.7" stroke="#666" stroke-width="0.5"></line></g><rect x="650.69" y="289.95" width="109.79" height="13.5" fill="#fff" opacity="0"></rect><text font-size="13.50" x="685.7" y="300.8" fill="#000"><tspan x="685.69" y="300.75">$5,961 India</tspan></text></g></g><g class="Lines"><rect x="79" y="109" width="572" height="413" fill="rgba(255,255,255,0)" opacity="0"></rect><g class="key-United-Kingdom_0"><path stroke="#3360a9" stroke-linecap="round" d="M79 502L473 428L473 420L474 424L475 431L475 414L476 420L476 437L477 425L477 420L478 434L479 444L479 435L480 435L480 440L481 430L481 433L482 430L482 425L483 421L484 423L484 417L485 420L485 420L486 422L486 424L487 421L488 425L488 427L489 423L489 427L490 423L490 425L491 419L491 417L492 419L493 422L493 415L494 422L494 420L495 421L495 424L496 421L497 418L497 420L498 422L498 422L499 419L499 415L500 417L500 418L501 417L502 420L502 416L503 416L503 419L504 417L504 419L505 414L506 413L506 412L507 409L507 406L508 409L508 410L509 410L509 412L510 411L511 410L511 410L512 405L512 408L513 407L513 410L514 409L515 412L515 410L516 408L516 406L517 408L517 409L518 405L519 403L519 405L520 406L520 406L521 408L521 407L522 410L522 411L523 410L524 404L524 405L525 402L525 405L526 409L526 400L527 399L528 401L528 401L529 400L529 396L530 396L530 395L531 399L531 400L532 396L533 398L533 393L534 399L534 397L535 392L535 394L536 400L537 396L537 400L538 392L538 399L539 399L539 400L540 403L540 397L541 397L542 397L542 395L543 391L543 391L544 397L544 391L545 392L546 393L546 390L547 390L547 388L548 388L548 387L549 381L549 380L550 382L551 379L551 381L552 377L552 381L553 383L553 379L554 372L555 369L555 370L556 372L556 369L557 368L557 370L558 367L558 363L559 361L560 358L560 361L561 355L561 355L562 358L562 355L563 354L564 355L564 361L565 352L565 351L566 349L566 347L567 348L567 344L568 344L569 340L569 341L570 341L570 340L571 339L571 337L572 337L573 337L573 337L574 338L574 334L575 331L575 329L576 329L576 329L577 330L578 329L578 326L579 322L579 317L580 317L580 318L581 321L582 321L582 315L583 313L583 310L584 309L584 305L585 301L585 303L586 303L587 302L587 303L588 303L588 301L589 298L589 297L590 302L591 300L591 297L592 295L592 293L593 290L593 290L594 284L594 283L595 282L596 282L596 294L597 302L597 305L598 296L598 293L599 289L600 284L600 288L601 280L601 279L602 275L602 277L603 282L603 282L604 279L605 273L605 270L606 266L606 263L607 262L607 262L608 253L609 244L609 242L610 240L610 245L611 250L611 254L612 256L612 254L613 251L614 251L614 249L615 250L615 246L616 241L616 238L617 236L618 235L618 235L619 231L619 227L620 224L620 224L621 220L621 215L622 213L623 211L623 209L624 207L624 203L625 200L625 200L626 198L627 192L627 193L628 194L628 190L629 186L629 181L630 175L630 173L631 176L632 177L632 176L633 175L633 173L634 170L634 166L635 162L636 159L636 158L637 159L637 159L638 156L638 152L639 148L639 143L640 136L641 133L641 129L642 122L642 120L643 119L643 119L644 117L645 113L645 111L646 112L646 113L647 118L647 120L648 120L648 118L649 113L650 112L650 110L651 109" fill="none" stroke-width="1.5"></path></g><g class="key-Japan_0"><path stroke="#ed6c2d" stroke-linecap="round" d="M163 511L237 510L332 510L417 501L445 504L473 492L501 497L529 490L557 484L569 476L569 476L570 475L570 474L571 474L571 467L572 470L573 468L573 469L574 464L574 460L575 464L575 463L576 464L576 464L577 461L578 455L578 451L579 456L579 453L580 445L580 450L581 445L582 445L582 435L583 434L583 441L584 440L584 424L585 432L585 429L586 427L587 434L587 428L588 429L588 431L589 420L589 418L590 418L591 420L591 419L592 416L592 413L593 413L593 418L594 410L594 397L595 395L596 395L596 386L597 393L597 384L598 386L598 387L599 385L600 383L600 383L601 383L601 377L602 375L602 385L603 385L603 379L604 371L605 372L605 371L606 365L606 362L607 357L607 343L608 341L609 341L609 343L610 343L610 349L611 417L611 411L612 404L612 393L613 389L614 383L614 370L615 362L615 358L616 354L616 346L617 341L618 335L618 329L619 321L619 311L620 301L620 292L621 286L621 276L622 271L623 261L623 252L624 240L624 229L625 220L625 215L626 208L627 202L627 204L628 200L628 195L629 190L629 184L630 179L630 174L631 176L632 178L632 181L633 182L633 181L634 174L634 169L635 160L636 154L636 149L637 142L637 139L638 136L638 133L639 129L639 128L640 127L641 129L641 129L642 125L642 126L643 126L643 124L644 122L645 120L645 119L646 117L646 120L647 124L647 119L648 120L648 120L649 119L650 119L650 117L651 116" fill="none" stroke-width="1.5"></path></g><g class="key-Italy_0"><path stroke="#34983f" stroke-linecap="round" d="M248 429L275 436L304 421L360 435L400 440L417 446L445 444L473 438L501 435L529 446L530 448L530 444L531 442L531 437L532 441L533 438L533 438L534 433L534 432L535 440L535 443L536 441L537 439L537 437L538 442L538 443L539 443L539 435L540 436L540 436L541 438L542 437L542 436L543 433L543 435L544 432L544 434L545 435L546 435L546 436L547 433L547 432L548 432L548 431L549 428L549 436L550 438L551 437L551 437L552 434L552 432L553 432L553 437L554 437L555 436L555 437L556 439L556 436L557 437L557 438L558 438L558 440L559 442L560 449L560 448L561 447L561 440L562 436L562 439L563 440L564 440L564 439L565 437L565 436L566 431L566 431L567 440L567 438L568 436L569 434L569 436L570 439L570 438L571 433L571 432L572 433L573 432L573 429L574 428L574 426L575 422L575 420L576 419L576 420L577 418L578 415L578 412L579 412L579 414L580 414L580 412L581 411L582 409L582 408L583 406L583 404L584 404L584 404L585 402L585 399L586 396L587 394L587 393L588 391L588 388L589 384L589 382L590 379L591 378L591 377L592 377L592 378L593 375L593 381L594 387L594 381L595 381L596 385L596 390L597 389L597 394L598 388L598 381L599 380L600 376L600 377L601 381L601 377L602 374L602 379L603 380L603 378L604 379L605 379L605 374L606 377L606 368L607 365L607 359L608 361L609 363L609 368L610 385L610 405L611 416L611 385L612 368L612 361L613 352L614 344L614 337L615 329L615 320L616 315L616 308L617 304L618 297L618 291L619 285L619 280L620 271L620 263L621 257L621 254L622 252L623 247L623 239L624 231L624 224L625 222L625 220L626 216L627 210L627 205L628 207L628 198L629 194L629 188L630 180L630 174L631 176L632 177L632 178L633 178L633 177L634 170L634 166L635 162L636 158L636 154L637 150L637 149L638 149L638 146L639 142L639 141L640 137L641 132L641 129L642 126L642 123L643 126L643 128L644 128L645 126L645 123L646 118L646 118L647 121L647 122L648 120L648 120L649 122L650 122L650 121L651 120" fill="none" stroke-width="1.5"></path></g><g class="key-China_0"><path stroke="#a652ba" stroke-linecap="round" d="M451 481L510 512L536 522L540 505L543 508L557 519L569 503L578 502L580 496L585 492L592 496L592 492L593 487L602 480L602 479L603 478L603 475L604 487L605 485L605 477L606 472L606 475L607 478L614 502L614 485L615 476L615 465L616 476L616 469L617 465L618 465L618 468L619 476L619 483L620 497L620 489L621 480L621 470L622 462L623 461L623 461L624 466L624 459L625 449L625 444L626 448L627 443L627 443L628 439L628 442L629 440L629 429L630 425L630 422L631 423L632 415L632 410L633 400L633 391L634 387L634 383L635 381L636 383L636 385L637 381L637 375L638 365L638 361L639 356L639 350L640 349L641 348L641 343L642 335L642 327L643 318L643 312L644 303L645 291L645 282L646 274L646 271L647 263L647 251L648 243L648 239L649 235L650 229L650 227L651 224" fill="none" stroke-width="1.5"></path></g><g class="key-India_0"><path stroke="#000" stroke-linecap="round" d="M417 448L445 454L473 456L501 465L530 468L535 473L541 478L547 477L552 477L558 477L564 482L569 488L576 478L577 474L578 477L578 473L579 472L579 474L580 469L580 479L581 471L582 468L582 466L583 468L583 476L584 459L584 458L585 466L585 462L586 461L587 453L587 451L588 451L588 453L589 451L589 457L590 456L591 443L591 443L592 444L592 443L593 445L593 440L594 442L594 439L595 440L596 454L596 440L597 448L597 441L598 438L598 442L599 438L600 437L600 435L601 435L601 435L602 431L602 431L603 433L603 433L604 434L605 434L605 436L606 433L606 436L607 437L607 435L608 433L609 432L609 433L610 430L610 432L611 435L611 441L612 441L612 441L613 439L614 440L614 439L615 443L615 440L616 440L616 442L617 439L618 444L618 442L619 445L619 441L620 443L620 444L621 444L621 442L622 450L623 454L623 451L624 454L624 453L625 454L625 453L626 453L627 448L627 451L628 444L628 448L629 450L629 453L630 462L630 461L631 464L632 468L632 469L633 471L633 473L634 469L634 466L635 459L636 454L636 450L637 449L637 444L638 439L638 435L639 430L639 423L640 419L641 414L641 409L642 405L642 401L643 397L643 389L644 383L645 372L645 363L646 355L646 343L647 338L647 328L648 319L648 315L649 313L650 308L650 302L651 297" fill="none" stroke-width="1.5"></path></g></g></g></g><g class="SourcesFooter" style="fill:#777"><g class="clickable" style="fill:#777"><text font-size="12.60" x="15.0" y="567.9"><tspan x="15" y="567.88">Source: Maddison Project Database (2018)</tspan></text></g><text font-size="12.60" x="15.0" y="582.5"><tspan x="15" y="582.48">Note: The units of measurement is &#x27;2011 US dollar&#x27;. The chart uses ratio scale.</tspan></text><text font-size="12.60" x="660.0" y="567.9"><tspan x="659.986" y="567.88"><a href="https://ourworldindata.org" target="_blank">Powered by ourworldindata.org</a></tspan></text></g></svg>