<svg xmlns="http://www.w3.org/2000/svg" version="1.1" style="font-family:&#x27;Helvetica Neue&#x27;, Helvetica, Arial, sans-serif;font-size:18px;background-color:white;text-rendering:optimizeLegibility;-webkit-font-smoothing:antialiased" width="850" height="600"><g class="HeaderView"><a href="https://mispytest-owid.netlify.com/grapher/inflation-levels-and-volatility-in-high--and-low-income-economies-1960-2017" target="_blank"><text font-size="22.50" x="15.0" y="33.0" fill="#555"><tspan x="15" y="33">Inflation levels and volatility in high- and low-income economies (1960-2017)</tspan></text></a><text font-size="14.40" x="15.0" y="51.0" fill="#666"><tspan x="15" y="51.019999999999996">Unit 13 &#x27;Economic fluctuations and unemployment’ Section 13.8 &#x27;Measuring the economy: Inflation&#x27; in The CORE Team, The</tspan><tspan x="15" y="66.86">Economy. Available at: https://tinyco.re/1308211 [Figure 13.21]</tspan></text></g><g class="LineChart"><defs><clipPath id="boundsClip-736"><rect x="42.562" y="0" width="830" height="938.2"></rect></clipPath></defs><g class="AxisBoxView"><g class="HorizontalAxis"><text x="52.6" y="556.5" fill="#666" text-anchor="middle" font-size="16.2">1960</text><text x="144.8" y="556.5" fill="#666" text-anchor="middle" font-size="16.2">1970</text><text x="237.1" y="556.5" fill="#666" text-anchor="middle" font-size="16.2">1980</text><text x="329.4" y="556.5" fill="#666" text-anchor="middle" font-size="16.2">1990</text><text x="421.7" y="556.5" fill="#666" text-anchor="middle" font-size="16.2">2000</text><text x="514" y="556.5" fill="#666" text-anchor="middle" font-size="16.2">2010</text><text x="578.6" y="556.5" fill="#666" text-anchor="middle" font-size="16.2">2017</text></g><g class="VerticalAxis"><text x="47.56" y="521.2" fill="#666" dominant-baseline="middle" text-anchor="end" font-size="16.2">0%</text><text x="47.56" y="442.2" fill="#666" dominant-baseline="middle" text-anchor="end" font-size="16.2">5%</text><text x="47.56" y="363.2" fill="#666" dominant-baseline="middle" text-anchor="end" font-size="16.2">10%</text><text x="47.56" y="284.1" fill="#666" dominant-baseline="middle" text-anchor="end" font-size="16.2">15%</text><text x="47.56" y="205.1" fill="#666" dominant-baseline="middle" text-anchor="end" font-size="16.2">20%</text><text x="47.56" y="126.1" fill="#666" dominant-baseline="middle" text-anchor="end" font-size="16.2">25%</text></g><g class="AxisGridLines"><line x1="52.56" y1="521.2" x2="578.60" y2="521.2" stroke="#ccc"></line><line x1="52.56" y1="442.2" x2="578.60" y2="442.2" stroke="#ddd" stroke-dasharray="3,2"></line><line x1="52.56" y1="363.2" x2="578.60" y2="363.2" stroke="#ddd" stroke-dasharray="3,2"></line><line x1="52.56" y1="284.1" x2="578.60" y2="284.1" stroke="#ddd" stroke-dasharray="3,2"></line><line x1="52.56" y1="205.1" x2="578.60" y2="205.1" stroke="#ddd" stroke-dasharray="3,2"></line><line x1="52.56" y1="126.1" x2="578.60" y2="126.1" stroke="#ddd" stroke-dasharray="3,2"></line></g></g><g clip-path="url(#boundsClip-736)"><g class="HeightedLegend clickable"><g class="legendMark"><g class="indicator"><line x1="583.6" y1="496" x2="606.1" y2="496" stroke="#666" stroke-width="0.5"></line><line x1="606.1" y1="496" x2="606.1" y2="496" stroke="#666" stroke-width="0.5"></line><line x1="606.1" y1="496" x2="608.6" y2="496" stroke="#666" stroke-width="0.5"></line></g><rect x="578.6" y="489.25" width="228.455" height="13.5" fill="#fff" opacity="0"></rect><text font-size="13.50" x="613.6" y="500.1" fill="#7ec7ce"><tspan x="613.6" y="500.05">1.6% Middle East &amp; North Africa</tspan></text></g><g class="legendMark"><g class="indicator"><line x1="583.6" y1="492.4" x2="602.7666666666667" y2="492.4" stroke="#666" stroke-width="0.5"></line><line x1="602.7666666666667" y1="492.4" x2="602.7666666666667" y2="480.5" stroke="#666" stroke-width="0.5"></line><line x1="602.7666666666667" y1="480.5" x2="608.6" y2="480.5" stroke="#666" stroke-width="0.5"></line></g><rect x="578.6" y="473.75" width="176.345" height="13.5" fill="#fff" opacity="0"></rect><text font-size="13.50" x="613.6" y="484.6" fill="#000"><tspan x="613.6" y="484.55">1.82% OECD members</tspan></text></g><g class="legendMark"><g class="indicator"><line x1="583.6" y1="479.8" x2="599.4333333333334" y2="479.8" stroke="#666" stroke-width="0.5"></line><line x1="599.4333333333334" y1="479.8" x2="599.4333333333334" y2="465" stroke="#666" stroke-width="0.5"></line><line x1="599.4333333333334" y1="465" x2="608.6" y2="465" stroke="#666" stroke-width="0.5"></line></g><rect x="578.6" y="458.25" width="239.12" height="13.5" fill="#fff" opacity="0"></rect><text font-size="13.50" x="613.6" y="469.1" fill="#34983f"><tspan x="613.6" y="469.05">2.62% Latin America &amp; Caribbean</tspan></text></g><g class="legendMark"><g class="indicator"><line x1="583.6" y1="475.8" x2="596.1" y2="475.8" stroke="#666" stroke-width="0.5"></line><line x1="596.1" y1="475.8" x2="596.1" y2="442.2" stroke="#666" stroke-width="0.5"></line><line x1="596.1" y1="442.2" x2="608.6" y2="442.2" stroke="#666" stroke-width="0.5"></line></g><rect x="578.6" y="428.15" width="256.4" height="28.1" fill="#fff" opacity="0"></rect><text font-size="13.50" x="613.6" y="438.9" fill="#a652ba"><tspan x="613.6" y="438.95">2.87% East Asia &amp; Pacific (excluding</tspan><tspan x="613.6" y="453.8">high income)</tspan></text></g><g class="legendMark"><g class="indicator"><line x1="583.6" y1="460.2" x2="592.7666666666667" y2="460.2" stroke="#666" stroke-width="0.5"></line><line x1="592.7666666666667" y1="460.2" x2="592.7666666666667" y2="419.4" stroke="#666" stroke-width="0.5"></line><line x1="592.7666666666667" y1="419.4" x2="608.6" y2="419.4" stroke="#666" stroke-width="0.5"></line></g><rect x="578.6" y="412.65" width="142.865" height="13.5" fill="#fff" opacity="0"></rect><text font-size="13.50" x="613.6" y="423.4" fill="#ed6c2d"><tspan x="613.6" y="423.45">3.86% South Asia</tspan></text></g><g class="legendMark"><g class="indicator"><line x1="583.6" y1="437.2" x2="589.4333333333334" y2="437.2" stroke="#666" stroke-width="0.5"></line><line x1="589.4333333333334" y1="437.2" x2="589.4333333333334" y2="403.9" stroke="#666" stroke-width="0.5"></line><line x1="589.4333333333334" y1="403.9" x2="608.6" y2="403.9" stroke="#666" stroke-width="0.5"></line></g><rect x="578.6" y="397.15" width="195.51500000000001" height="13.5" fill="#fff" opacity="0"></rect><text font-size="13.50" x="613.6" y="407.9" fill="#ffd53e"><tspan x="613.6" y="407.95">5.31% Sub-Saharan Africa</tspan></text></g></g><g class="Lines"><rect x="53" y="87" width="526" height="448" fill="rgba(255,255,255,0)" opacity="0"></rect><g class="key-East-Asia-__0026-Pacific-__0028excluding-high-income__0029_0"><path stroke="#a652ba" stroke-linecap="round" d="M302 439L311 374L320 419L329 392L339 411L348 402L357 431L366 400L376 429L385 406L394 433L403 385L413 453L422 487L431 454L440 470L449 463L459 454L468 435L477 444L486 445L496 360L505 455L514 463L523 437L533 473L542 475L551 472L560 502L569 490L579 476" fill="none" stroke-width="1.5"></path><g fill="#a652ba"><circle cx="302" cy="439" r="2"></circle><circle cx="311" cy="374" r="2"></circle><circle cx="320" cy="419" r="2"></circle><circle cx="329" cy="392" r="2"></circle><circle cx="339" cy="411" r="2"></circle><circle cx="348" cy="402" r="2"></circle><circle cx="357" cy="431" r="2"></circle><circle cx="366" cy="400" r="2"></circle><circle cx="376" cy="429" r="2"></circle><circle cx="385" cy="406" r="2"></circle><circle cx="394" cy="433" r="2"></circle><circle cx="403" cy="385" r="2"></circle><circle cx="413" cy="453" r="2"></circle><circle cx="422" cy="487" r="2"></circle><circle cx="431" cy="454" r="2"></circle><circle cx="440" cy="470" r="2"></circle><circle cx="449" cy="463" r="2"></circle><circle cx="459" cy="454" r="2"></circle><circle cx="468" cy="435" r="2"></circle><circle cx="477" cy="444" r="2"></circle><circle cx="486" cy="445" r="2"></circle><circle cx="496" cy="360" r="2"></circle><circle cx="505" cy="455" r="2"></circle><circle cx="514" cy="463" r="2"></circle><circle cx="523" cy="437" r="2"></circle><circle cx="533" cy="473" r="2"></circle><circle cx="542" cy="475" r="2"></circle><circle cx="551" cy="472" r="2"></circle><circle cx="560" cy="502" r="2"></circle><circle cx="569" cy="490" r="2"></circle><circle cx="579" cy="476" r="2"></circle></g></g><g class="key-Latin-America-__0026-Caribbean_0"><path stroke="#34983f" stroke-linecap="round" d="M117 474L126 457L136 480L145 448L154 446L163 416L173 306L182 149L191 256L200 366L210 352L219 358L228 289L237 238L246 295L256 398L265 359L274 339L283 316L293 367L302 339L311 395L320 341L329 181L339 180L348 353L357 359L366 368L376 360L385 405L394 411L403 440L413 466L422 448L431 452L440 462L449 461L459 453L468 447L477 454L486 449L496 393L505 482L514 467L523 443L533 461L542 481L551 470L560 488L569 494L579 480" fill="none" stroke-width="1.5"></path><g fill="#34983f"><circle cx="117" cy="474" r="2"></circle><circle cx="126" cy="457" r="2"></circle><circle cx="136" cy="480" r="2"></circle><circle cx="145" cy="448" r="2"></circle><circle cx="154" cy="446" r="2"></circle><circle cx="163" cy="416" r="2"></circle><circle cx="173" cy="306" r="2"></circle><circle cx="182" cy="149" r="2"></circle><circle cx="191" cy="256" r="2"></circle><circle cx="200" cy="366" r="2"></circle><circle cx="210" cy="352" r="2"></circle><circle cx="219" cy="358" r="2"></circle><circle cx="228" cy="289" r="2"></circle><circle cx="237" cy="238" r="2"></circle><circle cx="246" cy="295" r="2"></circle><circle cx="256" cy="398" r="2"></circle><circle cx="265" cy="359" r="2"></circle><circle cx="274" cy="339" r="2"></circle><circle cx="283" cy="316" r="2"></circle><circle cx="293" cy="367" r="2"></circle><circle cx="302" cy="339" r="2"></circle><circle cx="311" cy="395" r="2"></circle><circle cx="320" cy="341" r="2"></circle><circle cx="329" cy="181" r="2"></circle><circle cx="339" cy="180" r="2"></circle><circle cx="348" cy="353" r="2"></circle><circle cx="357" cy="359" r="2"></circle><circle cx="366" cy="368" r="2"></circle><circle cx="376" cy="360" r="2"></circle><circle cx="385" cy="405" r="2"></circle><circle cx="394" cy="411" r="2"></circle><circle cx="403" cy="440" r="2"></circle><circle cx="413" cy="466" r="2"></circle><circle cx="422" cy="448" r="2"></circle><circle cx="431" cy="452" r="2"></circle><circle cx="440" cy="462" r="2"></circle><circle cx="449" cy="461" r="2"></circle><circle cx="459" cy="453" r="2"></circle><circle cx="468" cy="447" r="2"></circle><circle cx="477" cy="454" r="2"></circle><circle cx="486" cy="449" r="2"></circle><circle cx="496" cy="393" r="2"></circle><circle cx="505" cy="482" r="2"></circle><circle cx="514" cy="467" r="2"></circle><circle cx="523" cy="443" r="2"></circle><circle cx="533" cy="461" r="2"></circle><circle cx="542" cy="481" r="2"></circle><circle cx="551" cy="470" r="2"></circle><circle cx="560" cy="488" r="2"></circle><circle cx="569" cy="494" r="2"></circle><circle cx="579" cy="480" r="2"></circle></g></g><g class="key-Middle-East-__0026-North-Africa_0"><path stroke="#7ec7ce" stroke-linecap="round" d="M145 462L154 455L163 457L173 391L182 296L191 368L200 343L210 332L219 368L228 399L237 357L246 343L256 390L265 434L274 393L283 452L293 424L302 457L311 426L320 434L329 394L339 379L348 401L357 394L366 440L376 415L385 451L394 465L403 472L413 479L422 493L431 494L440 492L449 490L459 472L468 472L477 466L486 455L496 343L505 475L514 459L523 450L533 462L542 474L551 479L560 496L569 487L579 496" fill="none" stroke-width="1.5"></path><g fill="#7ec7ce"><circle cx="145" cy="462" r="2"></circle><circle cx="154" cy="455" r="2"></circle><circle cx="163" cy="457" r="2"></circle><circle cx="173" cy="391" r="2"></circle><circle cx="182" cy="296" r="2"></circle><circle cx="191" cy="368" r="2"></circle><circle cx="200" cy="343" r="2"></circle><circle cx="210" cy="332" r="2"></circle><circle cx="219" cy="368" r="2"></circle><circle cx="228" cy="399" r="2"></circle><circle cx="237" cy="357" r="2"></circle><circle cx="246" cy="343" r="2"></circle><circle cx="256" cy="390" r="2"></circle><circle cx="265" cy="434" r="2"></circle><circle cx="274" cy="393" r="2"></circle><circle cx="283" cy="452" r="2"></circle><circle cx="293" cy="424" r="2"></circle><circle cx="302" cy="457" r="2"></circle><circle cx="311" cy="426" r="2"></circle><circle cx="320" cy="434" r="2"></circle><circle cx="329" cy="394" r="2"></circle><circle cx="339" cy="379" r="2"></circle><circle cx="348" cy="401" r="2"></circle><circle cx="357" cy="394" r="2"></circle><circle cx="366" cy="440" r="2"></circle><circle cx="376" cy="415" r="2"></circle><circle cx="385" cy="451" r="2"></circle><circle cx="394" cy="465" r="2"></circle><circle cx="403" cy="472" r="2"></circle><circle cx="413" cy="479" r="2"></circle><circle cx="422" cy="493" r="2"></circle><circle cx="431" cy="494" r="2"></circle><circle cx="440" cy="492" r="2"></circle><circle cx="449" cy="490" r="2"></circle><circle cx="459" cy="472" r="2"></circle><circle cx="468" cy="472" r="2"></circle><circle cx="477" cy="466" r="2"></circle><circle cx="486" cy="455" r="2"></circle><circle cx="496" cy="343" r="2"></circle><circle cx="505" cy="475" r="2"></circle><circle cx="514" cy="459" r="2"></circle><circle cx="523" cy="450" r="2"></circle><circle cx="533" cy="462" r="2"></circle><circle cx="542" cy="474" r="2"></circle><circle cx="551" cy="479" r="2"></circle><circle cx="560" cy="496" r="2"></circle><circle cx="569" cy="487" r="2"></circle><circle cx="579" cy="496" r="2"></circle></g></g><g class="key-OECD-members_0"><path stroke="#000" stroke-linecap="round" d="M53 491L62 487L71 454L80 474L90 467L99 455L108 455L117 465L126 460L136 467L145 434L154 422L163 419L173 383L182 280L191 319L200 359L210 345L219 385L228 361L237 307L246 311L256 351L265 384L274 410L283 425L293 454L302 452L311 441L320 431L329 419L339 429L348 456L357 450L366 476L376 458L385 477L394 487L403 490L413 487L422 474L431 475L440 483L449 488L459 486L468 483L477 482L486 482L496 457L505 507L514 493L523 469L533 482L542 499L551 512L560 518L569 514L579 492" fill="none" stroke-width="1.5"></path><g fill="#000"><circle cx="53" cy="491" r="2"></circle><circle cx="62" cy="487" r="2"></circle><circle cx="71" cy="454" r="2"></circle><circle cx="80" cy="474" r="2"></circle><circle cx="90" cy="467" r="2"></circle><circle cx="99" cy="455" r="2"></circle><circle cx="108" cy="455" r="2"></circle><circle cx="117" cy="465" r="2"></circle><circle cx="126" cy="460" r="2"></circle><circle cx="136" cy="467" r="2"></circle><circle cx="145" cy="434" r="2"></circle><circle cx="154" cy="422" r="2"></circle><circle cx="163" cy="419" r="2"></circle><circle cx="173" cy="383" r="2"></circle><circle cx="182" cy="280" r="2"></circle><circle cx="191" cy="319" r="2"></circle><circle cx="200" cy="359" r="2"></circle><circle cx="210" cy="345" r="2"></circle><circle cx="219" cy="385" r="2"></circle><circle cx="228" cy="361" r="2"></circle><circle cx="237" cy="307" r="2"></circle><circle cx="246" cy="311" r="2"></circle><circle cx="256" cy="351" r="2"></circle><circle cx="265" cy="384" r="2"></circle><circle cx="274" cy="410" r="2"></circle><circle cx="283" cy="425" r="2"></circle><circle cx="293" cy="454" r="2"></circle><circle cx="302" cy="452" r="2"></circle><circle cx="311" cy="441" r="2"></circle><circle cx="320" cy="431" r="2"></circle><circle cx="329" cy="419" r="2"></circle><circle cx="339" cy="429" r="2"></circle><circle cx="348" cy="456" r="2"></circle><circle cx="357" cy="450" r="2"></circle><circle cx="366" cy="476" r="2"></circle><circle cx="376" cy="458" r="2"></circle><circle cx="385" cy="477" r="2"></circle><circle cx="394" cy="487" r="2"></circle><circle cx="403" cy="490" r="2"></circle><circle cx="413" cy="487" r="2"></circle><circle cx="422" cy="474" r="2"></circle><circle cx="431" cy="475" r="2"></circle><circle cx="440" cy="483" r="2"></circle><circle cx="449" cy="488" r="2"></circle><circle cx="459" cy="486" r="2"></circle><circle cx="468" cy="483" r="2"></circle><circle cx="477" cy="482" r="2"></circle><circle cx="486" cy="482" r="2"></circle><circle cx="496" cy="457" r="2"></circle><circle cx="505" cy="507" r="2"></circle><circle cx="514" cy="493" r="2"></circle><circle cx="523" cy="469" r="2"></circle><circle cx="533" cy="482" r="2"></circle><circle cx="542" cy="499" r="2"></circle><circle cx="551" cy="512" r="2"></circle><circle cx="560" cy="518" r="2"></circle><circle cx="569" cy="514" r="2"></circle><circle cx="579" cy="492" r="2"></circle></g></g><g class="key-South-Asia_0"><path stroke="#ed6c2d" stroke-linecap="round" d="M99 410L108 379L117 450L126 488L136 464L145 433L154 476L163 420L173 297L182 154L191 409L200 535L210 377L219 415L228 407L237 311L246 333L256 365L265 326L274 410L283 433L293 383L302 391L311 376L320 390L329 379L339 328L348 338L357 383L366 389L376 365L385 377L394 413L403 364L413 436L422 458L431 469L440 469L449 446L459 433L468 410L477 413L486 408L496 348L505 443L514 401L523 368L533 373L542 401L551 413L560 456L569 453L579 460" fill="none" stroke-width="1.5"></path><g fill="#ed6c2d"><circle cx="99" cy="410" r="2"></circle><circle cx="108" cy="379" r="2"></circle><circle cx="117" cy="450" r="2"></circle><circle cx="126" cy="488" r="2"></circle><circle cx="136" cy="464" r="2"></circle><circle cx="145" cy="433" r="2"></circle><circle cx="154" cy="476" r="2"></circle><circle cx="163" cy="420" r="2"></circle><circle cx="173" cy="297" r="2"></circle><circle cx="182" cy="154" r="2"></circle><circle cx="191" cy="409" r="2"></circle><circle cx="200" cy="535" r="2"></circle><circle cx="210" cy="377" r="2"></circle><circle cx="219" cy="415" r="2"></circle><circle cx="228" cy="407" r="2"></circle><circle cx="237" cy="311" r="2"></circle><circle cx="246" cy="333" r="2"></circle><circle cx="256" cy="365" r="2"></circle><circle cx="265" cy="326" r="2"></circle><circle cx="274" cy="410" r="2"></circle><circle cx="283" cy="433" r="2"></circle><circle cx="293" cy="383" r="2"></circle><circle cx="302" cy="391" r="2"></circle><circle cx="311" cy="376" r="2"></circle><circle cx="320" cy="390" r="2"></circle><circle cx="329" cy="379" r="2"></circle><circle cx="339" cy="328" r="2"></circle><circle cx="348" cy="338" r="2"></circle><circle cx="357" cy="383" r="2"></circle><circle cx="366" cy="389" r="2"></circle><circle cx="376" cy="365" r="2"></circle><circle cx="385" cy="377" r="2"></circle><circle cx="394" cy="413" r="2"></circle><circle cx="403" cy="364" r="2"></circle><circle cx="413" cy="436" r="2"></circle><circle cx="422" cy="458" r="2"></circle><circle cx="431" cy="469" r="2"></circle><circle cx="440" cy="469" r="2"></circle><circle cx="449" cy="446" r="2"></circle><circle cx="459" cy="433" r="2"></circle><circle cx="468" cy="410" r="2"></circle><circle cx="477" cy="413" r="2"></circle><circle cx="486" cy="408" r="2"></circle><circle cx="496" cy="348" r="2"></circle><circle cx="505" cy="443" r="2"></circle><circle cx="514" cy="401" r="2"></circle><circle cx="523" cy="368" r="2"></circle><circle cx="533" cy="373" r="2"></circle><circle cx="542" cy="401" r="2"></circle><circle cx="551" cy="413" r="2"></circle><circle cx="560" cy="456" r="2"></circle><circle cx="569" cy="453" r="2"></circle><circle cx="579" cy="460" r="2"></circle></g></g><g class="key-Sub__002dSaharan-Africa_0"><path stroke="#ffd53e" stroke-linecap="round" d="M191 232L200 339L210 286L219 340L228 305L237 306L246 327L256 330L265 340L274 346L283 373L293 413L302 401L311 389L320 394L329 402L339 380L348 371L357 371L366 87L376 341L385 408L394 400L403 420L413 452L422 450L431 439L440 447L449 431L459 456L468 409L477 420L486 418L496 354L505 405L514 458L523 436L533 417L542 443L551 452L560 457L569 433L579 437" fill="none" stroke-width="1.5"></path><g fill="#ffd53e"><circle cx="191" cy="232" r="2"></circle><circle cx="200" cy="339" r="2"></circle><circle cx="210" cy="286" r="2"></circle><circle cx="219" cy="340" r="2"></circle><circle cx="228" cy="305" r="2"></circle><circle cx="237" cy="306" r="2"></circle><circle cx="246" cy="327" r="2"></circle><circle cx="256" cy="330" r="2"></circle><circle cx="265" cy="340" r="2"></circle><circle cx="274" cy="346" r="2"></circle><circle cx="283" cy="373" r="2"></circle><circle cx="293" cy="413" r="2"></circle><circle cx="302" cy="401" r="2"></circle><circle cx="311" cy="389" r="2"></circle><circle cx="320" cy="394" r="2"></circle><circle cx="329" cy="402" r="2"></circle><circle cx="339" cy="380" r="2"></circle><circle cx="348" cy="371" r="2"></circle><circle cx="357" cy="371" r="2"></circle><circle cx="366" cy="87" r="2"></circle><circle cx="376" cy="341" r="2"></circle><circle cx="385" cy="408" r="2"></circle><circle cx="394" cy="400" r="2"></circle><circle cx="403" cy="420" r="2"></circle><circle cx="413" cy="452" r="2"></circle><circle cx="422" cy="450" r="2"></circle><circle cx="431" cy="439" r="2"></circle><circle cx="440" cy="447" r="2"></circle><circle cx="449" cy="431" r="2"></circle><circle cx="459" cy="456" r="2"></circle><circle cx="468" cy="409" r="2"></circle><circle cx="477" cy="420" r="2"></circle><circle cx="486" cy="418" r="2"></circle><circle cx="496" cy="354" r="2"></circle><circle cx="505" cy="405" r="2"></circle><circle cx="514" cy="458" r="2"></circle><circle cx="523" cy="436" r="2"></circle><circle cx="533" cy="417" r="2"></circle><circle cx="542" cy="443" r="2"></circle><circle cx="551" cy="452" r="2"></circle><circle cx="560" cy="457" r="2"></circle><circle cx="569" cy="433" r="2"></circle><circle cx="579" cy="437" r="2"></circle></g></g></g></g></g><g class="SourcesFooter" style="fill:#777"><g class="clickable" style="fill:#777"><text font-size="12.60" x="15.0" y="581.6"><tspan x="15" y="581.58">Source: The World Bank (2019)</tspan></text></g><text font-size="12.60" x="546.0" y="581.6"><tspan x="545.956" y="581.58"><a target='_blank' style='fill: #777;' href='https://tinyco.re/1308211'>tinyco.re/1308211</a> • <a href="https://ourworldindata.org" target="_blank">Powered by ourworldindata.org</a></tspan></text></g></svg>