<svg xmlns="http://www.w3.org/2000/svg" version="1.1" style="font-family: 'Helvetica Neue', Helvetica, Arial, sans-serif; font-size: 18px; background-color: white; text-rendering: optimizeLegibility; -webkit-font-smoothing: antialiased;" width="850" height="600"><g class="ChartTab"><g class="HeaderView"><g opacity="0.8" transform="translate(778, 15) scale(0.27)"><a xmlns:xlink="http://www.w3.org/1999/xlink" xlink:href="https://ourworldindata.org" target="_blank"><g><rect x="0" y="0" fill="#1B2543" width="211.2" height="130.1"/><rect x="0" y="112.2" fill="#E63912" width="211.2" height="17.9"/><g><rect x="1.2" y="12.3" fill="none" width="210.2" height="99.2"/><path fill="#FFFFFF" d="M37.8,32.2c0,12.7-7.7,19.4-17.1,19.4c-9.7,0-16.6-7.5-16.6-18.7c0-11.7,7.3-19.3,17.1-19.3 C31.3,13.7,37.8,21.3,37.8,32.2z M9.2,32.8c0,7.9,4.3,14.9,11.8,14.9c7.5,0,11.8-6.9,11.8-15.3c0-7.3-3.8-14.9-11.8-14.9 C13.1,17.5,9.2,24.8,9.2,32.8z"/><path fill="#FFFFFF" d="M62.7,43.8c0,2.7,0.1,5.1,0.2,7.2h-4.3l-0.3-4.3h-0.1c-1.3,2.1-4,4.9-8.8,4.9c-4.2,0-9.1-2.3-9.1-11.6 V24.6h4.8v14.6c0,5,1.5,8.4,5.9,8.4c3.2,0,5.5-2.2,6.3-4.4c0.3-0.7,0.4-1.6,0.4-2.5V24.6h4.8V43.8z"/><path fill="#FFFFFF" d="M67.3,32.8c0-3.1-0.1-5.8-0.2-8.2h4.2l0.2,5.2h0.2c1.2-3.5,4.1-5.8,7.3-5.8c0.5,0,0.9,0.1,1.4,0.2v4.5 c-0.5-0.1-1-0.2-1.6-0.2c-3.4,0-5.8,2.6-6.5,6.2c-0.1,0.7-0.2,1.4-0.2,2.2V51h-4.8V32.8z"/><path fill="#FFFFFF" d="M95.4,51l-9.4-36.8h5l4.4,18.6c1.1,4.6,2.1,9.2,2.7,12.7h0.1c0.6-3.7,1.8-8,3-12.8l4.9-18.5h5l4.5,18.7 c1,4.4,2,8.7,2.6,12.6h0.1c0.8-4,1.8-8.1,3-12.7l4.9-18.5h4.9L120.6,51h-5L111,31.9c-1.1-4.7-1.9-8.3-2.4-12h-0.1 c-0.7,3.7-1.5,7.3-2.8,12L100.4,51H95.4z"/><path fill="#FFFFFF" d="M154.9,37.6c0,9.8-6.8,14-13.2,14c-7.2,0-12.7-5.2-12.7-13.6c0-8.8,5.8-14,13.1-14 C149.8,24,154.9,29.5,154.9,37.6z M133.9,37.9c0,5.8,3.3,10.1,8,10.1c4.6,0,8-4.3,8-10.3c0-4.5-2.2-10.1-7.9-10.1 C136.3,27.6,133.9,32.8,133.9,37.9z"/><path fill="#FFFFFF" d="M158.2,32.8c0-3.1-0.1-5.8-0.2-8.2h4.2l0.2,5.2h0.2c1.2-3.5,4.1-5.8,7.3-5.8c0.5,0,0.9,0.1,1.4,0.2v4.5 c-0.5-0.1-1-0.2-1.6-0.2c-3.4,0-5.8,2.6-6.5,6.2c-0.1,0.7-0.2,1.4-0.2,2.2V51h-4.8V32.8z"/><path fill="#FFFFFF" d="M173.5,12.3h4.8V51h-4.8V12.3z"/><path fill="#FFFFFF" d="M206.5,12.3v31.9c0,2.3,0.1,5,0.2,6.8h-4.3l-0.2-4.6H202c-1.5,2.9-4.7,5.2-9,5.2 c-6.4,0-11.3-5.4-11.3-13.4c-0.1-8.8,5.4-14.2,11.9-14.2c4,0,6.8,1.9,8,4h0.1V12.3H206.5z M201.7,35.4c0-0.6-0.1-1.4-0.2-2 c-0.7-3.1-3.3-5.6-6.9-5.6c-5,0-7.9,4.4-7.9,10.2c0,5.3,2.6,9.8,7.8,9.8c3.2,0,6.2-2.1,7.1-5.7c0.2-0.7,0.2-1.3,0.2-2.1V35.4z"/><path fill="#FFFFFF" d="M42.8,64c0.1,1.6-1.1,2.9-3.1,2.9c-1.7,0-2.9-1.3-2.9-2.9c0-1.7,1.3-3,3-3C41.7,61,42.8,62.3,42.8,64z M37.4,97.8V71.4h4.8v26.4H37.4z"/><path fill="#FFFFFF" d="M47.5,78.6c0-2.7-0.1-5-0.2-7.1h4.3l0.3,4.4h0.1c1.3-2.5,4.4-5,8.8-5c3.7,0,9.4,2.2,9.4,11.2v15.8h-4.8 V82.6c0-4.3-1.6-7.8-6.1-7.8c-3.2,0-5.6,2.2-6.5,4.9c-0.2,0.6-0.3,1.4-0.3,2.2v15.9h-4.8V78.6z"/><path fill="#FFFFFF" d="M84,61.6c2.9-0.4,6.3-0.8,10.1-0.8c6.8,0,11.7,1.6,14.9,4.6c3.3,3,5.2,7.3,5.2,13.2c0,6-1.9,10.9-5.3,14.3 c-3.4,3.4-9.1,5.3-16.3,5.3c-3.4,0-6.2-0.2-8.6-0.4V61.6z M88.8,94.1c1.2,0.2,3,0.3,4.8,0.3c10.2,0,15.7-5.7,15.7-15.6 c0.1-8.7-4.9-14.2-14.9-14.2c-2.5,0-4.3,0.2-5.6,0.5V94.1z"/><path fill="#FFFFFF" d="M132.1,97.8l-0.4-3.3h-0.2c-1.5,2.1-4.3,3.9-8.1,3.9c-5.4,0-8.1-3.8-8.1-7.6c0-6.4,5.7-9.9,15.9-9.8v-0.5 c0-2.2-0.6-6.1-6-6.1c-2.5,0-5,0.8-6.9,2l-1.1-3.2c2.2-1.4,5.4-2.3,8.7-2.3c8.1,0,10.1,5.5,10.1,10.8v9.9c0,2.3,0.1,4.5,0.4,6.3 H132.1z M131.4,84.4c-5.3-0.1-11.2,0.8-11.2,5.9c0,3.1,2.1,4.6,4.5,4.6c3.4,0,5.6-2.2,6.4-4.4c0.2-0.5,0.3-1,0.3-1.5V84.4z"/><path fill="#FFFFFF" d="M146.6,63.9v7.6h6.9v3.7h-6.9v14.2c0,3.3,0.9,5.1,3.6,5.1c1.3,0,2.2-0.2,2.8-0.3l0.2,3.6 c-0.9,0.4-2.4,0.7-4.3,0.7c-2.2,0-4-0.7-5.2-2c-1.4-1.4-1.9-3.8-1.9-6.9V75.1h-4.1v-3.7h4.1v-6.3L146.6,63.9z"/><path fill="#FFFFFF" d="M171.4,97.8l-0.4-3.3h-0.2c-1.5,2.1-4.3,3.9-8.1,3.9c-5.4,0-8.1-3.8-8.1-7.6c0-6.4,5.7-9.9,15.9-9.8v-0.5 c0-2.2-0.6-6.1-6-6.1c-2.5,0-5,0.8-6.9,2l-1.1-3.2c2.2-1.4,5.4-2.3,8.7-2.3c8.1,0,10.1,5.5,10.1,10.8v9.9c0,2.3,0.1,4.5,0.4,6.3 H171.4z M170.7,84.4c-5.3-0.1-11.2,0.8-11.2,5.9c0,3.1,2.1,4.6,4.5,4.6c3.4,0,5.6-2.2,6.4-4.4c0.2-0.5,0.3-1,0.3-1.5V84.4z"/></g></g></a></g><a href="https://ourworldindata.org/grapher/life-expectancy-at-birth-total-years" target="_blank"><text font-size="25.20" x="15.0" y="35.2" fill="#555"><tspan x="15" y="35.160000000000004">Life expectancy at birth, total (years)</tspan></text></a></g><g class="LineChart"><defs><clipPath id="boundsClip-489"><rect x="72.37" y="0" width="830" height="973"></rect></clipPath></defs><g class="AxisBoxView"><g class="HorizontalAxis"><text x="82.4" y="556.5" fill="#666" text-anchor="middle" font-size="16.2">1960</text><text x="170" y="556.5" fill="#666" text-anchor="middle" font-size="16.2">1970</text><text x="257.7" y="556.5" fill="#666" text-anchor="middle" font-size="16.2">1980</text><text x="345.3" y="556.5" fill="#666" text-anchor="middle" font-size="16.2">1990</text><text x="433" y="556.5" fill="#666" text-anchor="middle" font-size="16.2">2000</text><text x="520.6" y="556.5" fill="#666" text-anchor="middle" font-size="16.2">2010</text><text x="573.2" y="556.5" fill="#666" text-anchor="middle" font-size="16.2">2016</text></g><g class="VerticalAxis"><text x="77.37" y="535.3" fill="#666" dominant-baseline="middle" text-anchor="end" font-size="16.2">0 years</text><text x="77.37" y="470.7" fill="#666" dominant-baseline="middle" text-anchor="end" font-size="16.2">10 years</text><text x="77.37" y="406.1" fill="#666" dominant-baseline="middle" text-anchor="end" font-size="16.2">20 years</text><text x="77.37" y="341.5" fill="#666" dominant-baseline="middle" text-anchor="end" font-size="16.2">30 years</text><text x="77.37" y="276.9" fill="#666" dominant-baseline="middle" text-anchor="end" font-size="16.2">40 years</text><text x="77.37" y="212.3" fill="#666" dominant-baseline="middle" text-anchor="end" font-size="16.2">50 years</text><text x="77.37" y="147.7" fill="#666" dominant-baseline="middle" text-anchor="end" font-size="16.2">60 years</text><text x="77.37" y="83.1" fill="#666" dominant-baseline="middle" text-anchor="end" font-size="16.2">70 years</text></g><g class="AxisGridLines"><line x1="82.37" y1="535.3" x2="573.20" y2="535.3" stroke="#ccc"></line><line x1="82.37" y1="470.7" x2="573.20" y2="470.7" stroke="#ddd" stroke-dasharray="3,2"></line><line x1="82.37" y1="406.1" x2="573.20" y2="406.1" stroke="#ddd" stroke-dasharray="3,2"></line><line x1="82.37" y1="341.5" x2="573.20" y2="341.5" stroke="#ddd" stroke-dasharray="3,2"></line><line x1="82.37" y1="276.9" x2="573.20" y2="276.9" stroke="#ddd" stroke-dasharray="3,2"></line><line x1="82.37" y1="212.3" x2="573.20" y2="212.3" stroke="#ddd" stroke-dasharray="3,2"></line><line x1="82.37" y1="147.7" x2="573.20" y2="147.7" stroke="#ddd" stroke-dasharray="3,2"></line><line x1="82.37" y1="83.1" x2="573.20" y2="83.1" stroke="#ddd" stroke-dasharray="3,2"></line></g></g><g clip-path="url(#boundsClip-489)"><g class="HeightedLegend clickable"><g class="legendMark"><rect x="573.2" y="63.25" width="70.235" height="13.5" fill="#fff" opacity="0"></rect><text font-size="13.50" x="578.2" y="74.0" fill="#ca2628"><tspan x="578.2" y="74.05">World</tspan></text></g><g class="legendMark"><rect x="573.2" y="124.35" width="261.8" height="13.5" fill="#fff" opacity="0"></rect><text font-size="13.50" x="578.2" y="135.2" fill="#3360a9"><tspan x="578.2" y="135.15">Fragile and conflict affected situations</tspan></text></g></g><g class="Lines"><rect x="82" y="70" width="491" height="465" fill="rgba(255,255,255,0)" opacity="0"></rect><g class="key-Fragile-and-conflict-affected-situations_0"><path stroke="#3360a9" stroke-linecap="round" d="M82 272L91 268L100 265L109 261L117 257L126 253L135 249L144 245L153 241L161 238L170 234L179 231L188 228L196 224L205 221L214 218L223 216L231 213L240 211L249 208L258 206L266 203L275 200L284 198L293 195L302 192L310 190L319 187L328 185L337 183L345 181L354 180L363 179L372 178L380 177L389 176L398 175L407 174L415 173L424 172L433 170L442 168L451 166L459 164L468 161L477 158L486 156L494 153L503 150L512 147L521 145L529 142L538 140L547 138L556 136L564 133L573 131" fill="none" stroke-width="1.5"></path><g fill="#3360a9"><circle cx="82" cy="272" r="2"></circle><circle cx="91" cy="268" r="2"></circle><circle cx="100" cy="265" r="2"></circle><circle cx="109" cy="261" r="2"></circle><circle cx="117" cy="257" r="2"></circle><circle cx="126" cy="253" r="2"></circle><circle cx="135" cy="249" r="2"></circle><circle cx="144" cy="245" r="2"></circle><circle cx="153" cy="241" r="2"></circle><circle cx="161" cy="238" r="2"></circle><circle cx="170" cy="234" r="2"></circle><circle cx="179" cy="231" r="2"></circle><circle cx="188" cy="228" r="2"></circle><circle cx="196" cy="224" r="2"></circle><circle cx="205" cy="221" r="2"></circle><circle cx="214" cy="218" r="2"></circle><circle cx="223" cy="216" r="2"></circle><circle cx="231" cy="213" r="2"></circle><circle cx="240" cy="211" r="2"></circle><circle cx="249" cy="208" r="2"></circle><circle cx="258" cy="206" r="2"></circle><circle cx="266" cy="203" r="2"></circle><circle cx="275" cy="200" r="2"></circle><circle cx="284" cy="198" r="2"></circle><circle cx="293" cy="195" r="2"></circle><circle cx="302" cy="192" r="2"></circle><circle cx="310" cy="190" r="2"></circle><circle cx="319" cy="187" r="2"></circle><circle cx="328" cy="185" r="2"></circle><circle cx="337" cy="183" r="2"></circle><circle cx="345" cy="181" r="2"></circle><circle cx="354" cy="180" r="2"></circle><circle cx="363" cy="179" r="2"></circle><circle cx="372" cy="178" r="2"></circle><circle cx="380" cy="177" r="2"></circle><circle cx="389" cy="176" r="2"></circle><circle cx="398" cy="175" r="2"></circle><circle cx="407" cy="174" r="2"></circle><circle cx="415" cy="173" r="2"></circle><circle cx="424" cy="172" r="2"></circle><circle cx="433" cy="170" r="2"></circle><circle cx="442" cy="168" r="2"></circle><circle cx="451" cy="166" r="2"></circle><circle cx="459" cy="164" r="2"></circle><circle cx="468" cy="161" r="2"></circle><circle cx="477" cy="158" r="2"></circle><circle cx="486" cy="156" r="2"></circle><circle cx="494" cy="153" r="2"></circle><circle cx="503" cy="150" r="2"></circle><circle cx="512" cy="147" r="2"></circle><circle cx="521" cy="145" r="2"></circle><circle cx="529" cy="142" r="2"></circle><circle cx="538" cy="140" r="2"></circle><circle cx="547" cy="138" r="2"></circle><circle cx="556" cy="136" r="2"></circle><circle cx="564" cy="133" r="2"></circle><circle cx="573" cy="131" r="2"></circle></g></g><g class="key-World_0"><path stroke="#ca2628" stroke-linecap="round" d="M82 196L91 193L100 190L109 186L117 182L126 178L135 173L144 168L153 164L161 160L170 156L179 153L188 150L196 147L205 144L214 141L223 138L231 136L240 133L249 131L258 129L266 127L275 125L284 124L293 122L302 120L310 118L319 117L328 115L337 114L345 113L354 111L363 110L372 110L380 108L389 107L398 105L407 103L415 101L424 100L433 98L442 96L451 95L459 93L468 91L477 89L486 87L494 85L503 83L512 81L521 79L529 77L538 75L547 74L556 72L564 71L573 70" fill="none" stroke-width="1.5"></path><g fill="#ca2628"><circle cx="82" cy="196" r="2"></circle><circle cx="91" cy="193" r="2"></circle><circle cx="100" cy="190" r="2"></circle><circle cx="109" cy="186" r="2"></circle><circle cx="117" cy="182" r="2"></circle><circle cx="126" cy="178" r="2"></circle><circle cx="135" cy="173" r="2"></circle><circle cx="144" cy="168" r="2"></circle><circle cx="153" cy="164" r="2"></circle><circle cx="161" cy="160" r="2"></circle><circle cx="170" cy="156" r="2"></circle><circle cx="179" cy="153" r="2"></circle><circle cx="188" cy="150" r="2"></circle><circle cx="196" cy="147" r="2"></circle><circle cx="205" cy="144" r="2"></circle><circle cx="214" cy="141" r="2"></circle><circle cx="223" cy="138" r="2"></circle><circle cx="231" cy="136" r="2"></circle><circle cx="240" cy="133" r="2"></circle><circle cx="249" cy="131" r="2"></circle><circle cx="258" cy="129" r="2"></circle><circle cx="266" cy="127" r="2"></circle><circle cx="275" cy="125" r="2"></circle><circle cx="284" cy="124" r="2"></circle><circle cx="293" cy="122" r="2"></circle><circle cx="302" cy="120" r="2"></circle><circle cx="310" cy="118" r="2"></circle><circle cx="319" cy="117" r="2"></circle><circle cx="328" cy="115" r="2"></circle><circle cx="337" cy="114" r="2"></circle><circle cx="345" cy="113" r="2"></circle><circle cx="354" cy="111" r="2"></circle><circle cx="363" cy="110" r="2"></circle><circle cx="372" cy="110" r="2"></circle><circle cx="380" cy="108" r="2"></circle><circle cx="389" cy="107" r="2"></circle><circle cx="398" cy="105" r="2"></circle><circle cx="407" cy="103" r="2"></circle><circle cx="415" cy="101" r="2"></circle><circle cx="424" cy="100" r="2"></circle><circle cx="433" cy="98" r="2"></circle><circle cx="442" cy="96" r="2"></circle><circle cx="451" cy="95" r="2"></circle><circle cx="459" cy="93" r="2"></circle><circle cx="468" cy="91" r="2"></circle><circle cx="477" cy="89" r="2"></circle><circle cx="486" cy="87" r="2"></circle><circle cx="494" cy="85" r="2"></circle><circle cx="503" cy="83" r="2"></circle><circle cx="512" cy="81" r="2"></circle><circle cx="521" cy="79" r="2"></circle><circle cx="529" cy="77" r="2"></circle><circle cx="538" cy="75" r="2"></circle><circle cx="547" cy="74" r="2"></circle><circle cx="556" cy="72" r="2"></circle><circle cx="564" cy="71" r="2"></circle><circle cx="573" cy="70" r="2"></circle></g></g></g></g></g><g style="fill: #777;" class="SourcesFooter"><g style="fill: #777;" class="clickable"><text font-size="12.60" x="15.0" y="581.6"><tspan x="15" y="581.58">Source: World Bank</tspan></text></g><text font-size="12.60" x="775.4" y="581.6"><tspan x="775.402" y="581.58"><a style="fill: #777;" class="cclogo" href="http://creativecommons.org/licenses/by-sa/4.0/deed.en_US" target="_blank">CC BY-SA</a></tspan></text></g></g></svg>