<svg xmlns="http://www.w3.org/2000/svg" version="1.1" style="font-family: 'Helvetica Neue', Helvetica, Arial, sans-serif; font-size: 18px; background-color: white; text-rendering: optimizeLegibility; -webkit-font-smoothing: antialiased;" width="850" height="600"><g class="ChartTab"><g class="HeaderView"><g opacity="0.8" transform="translate(778, 15) scale(0.27)"><a xmlns:xlink="http://www.w3.org/1999/xlink" xlink:href="https://ourworldindata.org" target="_blank"><g><rect x="0" y="0" fill="#1B2543" width="211.2" height="130.1"/><rect x="0" y="112.2" fill="#E63912" width="211.2" height="17.9"/><g><rect x="1.2" y="12.3" fill="none" width="210.2" height="99.2"/><path fill="#FFFFFF" d="M37.8,32.2c0,12.7-7.7,19.4-17.1,19.4c-9.7,0-16.6-7.5-16.6-18.7c0-11.7,7.3-19.3,17.1-19.3 C31.3,13.7,37.8,21.3,37.8,32.2z M9.2,32.8c0,7.9,4.3,14.9,11.8,14.9c7.5,0,11.8-6.9,11.8-15.3c0-7.3-3.8-14.9-11.8-14.9 C13.1,17.5,9.2,24.8,9.2,32.8z"/><path fill="#FFFFFF" d="M62.7,43.8c0,2.7,0.1,5.1,0.2,7.2h-4.3l-0.3-4.3h-0.1c-1.3,2.1-4,4.9-8.8,4.9c-4.2,0-9.1-2.3-9.1-11.6 V24.6h4.8v14.6c0,5,1.5,8.4,5.9,8.4c3.2,0,5.5-2.2,6.3-4.4c0.3-0.7,0.4-1.6,0.4-2.5V24.6h4.8V43.8z"/><path fill="#FFFFFF" d="M67.3,32.8c0-3.1-0.1-5.8-0.2-8.2h4.2l0.2,5.2h0.2c1.2-3.5,4.1-5.8,7.3-5.8c0.5,0,0.9,0.1,1.4,0.2v4.5 c-0.5-0.1-1-0.2-1.6-0.2c-3.4,0-5.8,2.6-6.5,6.2c-0.1,0.7-0.2,1.4-0.2,2.2V51h-4.8V32.8z"/><path fill="#FFFFFF" d="M95.4,51l-9.4-36.8h5l4.4,18.6c1.1,4.6,2.1,9.2,2.7,12.7h0.1c0.6-3.7,1.8-8,3-12.8l4.9-18.5h5l4.5,18.7 c1,4.4,2,8.7,2.6,12.6h0.1c0.8-4,1.8-8.1,3-12.7l4.9-18.5h4.9L120.6,51h-5L111,31.9c-1.1-4.7-1.9-8.3-2.4-12h-0.1 c-0.7,3.7-1.5,7.3-2.8,12L100.4,51H95.4z"/><path fill="#FFFFFF" d="M154.9,37.6c0,9.8-6.8,14-13.2,14c-7.2,0-12.7-5.2-12.7-13.6c0-8.8,5.8-14,13.1-14 C149.8,24,154.9,29.5,154.9,37.6z M133.9,37.9c0,5.8,3.3,10.1,8,10.1c4.6,0,8-4.3,8-10.3c0-4.5-2.2-10.1-7.9-10.1 C136.3,27.6,133.9,32.8,133.9,37.9z"/><path fill="#FFFFFF" d="M158.2,32.8c0-3.1-0.1-5.8-0.2-8.2h4.2l0.2,5.2h0.2c1.2-3.5,4.1-5.8,7.3-5.8c0.5,0,0.9,0.1,1.4,0.2v4.5 c-0.5-0.1-1-0.2-1.6-0.2c-3.4,0-5.8,2.6-6.5,6.2c-0.1,0.7-0.2,1.4-0.2,2.2V51h-4.8V32.8z"/><path fill="#FFFFFF" d="M173.5,12.3h4.8V51h-4.8V12.3z"/><path fill="#FFFFFF" d="M206.5,12.3v31.9c0,2.3,0.1,5,0.2,6.8h-4.3l-0.2-4.6H202c-1.5,2.9-4.7,5.2-9,5.2 c-6.4,0-11.3-5.4-11.3-13.4c-0.1-8.8,5.4-14.2,11.9-14.2c4,0,6.8,1.9,8,4h0.1V12.3H206.5z M201.7,35.4c0-0.6-0.1-1.4-0.2-2 c-0.7-3.1-3.3-5.6-6.9-5.6c-5,0-7.9,4.4-7.9,10.2c0,5.3,2.6,9.8,7.8,9.8c3.2,0,6.2-2.1,7.1-5.7c0.2-0.7,0.2-1.3,0.2-2.1V35.4z"/><path fill="#FFFFFF" d="M42.8,64c0.1,1.6-1.1,2.9-3.1,2.9c-1.7,0-2.9-1.3-2.9-2.9c0-1.7,1.3-3,3-3C41.7,61,42.8,62.3,42.8,64z M37.4,97.8V71.4h4.8v26.4H37.4z"/><path fill="#FFFFFF" d="M47.5,78.6c0-2.7-0.1-5-0.2-7.1h4.3l0.3,4.4h0.1c1.3-2.5,4.4-5,8.8-5c3.7,0,9.4,2.2,9.4,11.2v15.8h-4.8 V82.6c0-4.3-1.6-7.8-6.1-7.8c-3.2,0-5.6,2.2-6.5,4.9c-0.2,0.6-0.3,1.4-0.3,2.2v15.9h-4.8V78.6z"/><path fill="#FFFFFF" d="M84,61.6c2.9-0.4,6.3-0.8,10.1-0.8c6.8,0,11.7,1.6,14.9,4.6c3.3,3,5.2,7.3,5.2,13.2c0,6-1.9,10.9-5.3,14.3 c-3.4,3.4-9.1,5.3-16.3,5.3c-3.4,0-6.2-0.2-8.6-0.4V61.6z M88.8,94.1c1.2,0.2,3,0.3,4.8,0.3c10.2,0,15.7-5.7,15.7-15.6 c0.1-8.7-4.9-14.2-14.9-14.2c-2.5,0-4.3,0.2-5.6,0.5V94.1z"/><path fill="#FFFFFF" d="M132.1,97.8l-0.4-3.3h-0.2c-1.5,2.1-4.3,3.9-8.1,3.9c-5.4,0-8.1-3.8-8.1-7.6c0-6.4,5.7-9.9,15.9-9.8v-0.5 c0-2.2-0.6-6.1-6-6.1c-2.5,0-5,0.8-6.9,2l-1.1-3.2c2.2-1.4,5.4-2.3,8.7-2.3c8.1,0,10.1,5.5,10.1,10.8v9.9c0,2.3,0.1,4.5,0.4,6.3 H132.1z M131.4,84.4c-5.3-0.1-11.2,0.8-11.2,5.9c0,3.1,2.1,4.6,4.5,4.6c3.4,0,5.6-2.2,6.4-4.4c0.2-0.5,0.3-1,0.3-1.5V84.4z"/><path fill="#FFFFFF" d="M146.6,63.9v7.6h6.9v3.7h-6.9v14.2c0,3.3,0.9,5.1,3.6,5.1c1.3,0,2.2-0.2,2.8-0.3l0.2,3.6 c-0.9,0.4-2.4,0.7-4.3,0.7c-2.2,0-4-0.7-5.2-2c-1.4-1.4-1.9-3.8-1.9-6.9V75.1h-4.1v-3.7h4.1v-6.3L146.6,63.9z"/><path fill="#FFFFFF" d="M171.4,97.8l-0.4-3.3h-0.2c-1.5,2.1-4.3,3.9-8.1,3.9c-5.4,0-8.1-3.8-8.1-7.6c0-6.4,5.7-9.9,15.9-9.8v-0.5 c0-2.2-0.6-6.1-6-6.1c-2.5,0-5,0.8-6.9,2l-1.1-3.2c2.2-1.4,5.4-2.3,8.7-2.3c8.1,0,10.1,5.5,10.1,10.8v9.9c0,2.3,0.1,4.5,0.4,6.3 H171.4z M170.7,84.4c-5.3-0.1-11.2,0.8-11.2,5.9c0,3.1,2.1,4.6,4.5,4.6c3.4,0,5.6-2.2,6.4-4.4c0.2-0.5,0.3-1,0.3-1.5V84.4z"/></g></g></a></g><a href="https://ourworldindata.org/grapher/literacy-rate" target="_blank"><text font-size="25.20" x="15.0" y="35.2" fill="#555"><tspan x="15" y="35.160000000000004">Literacy rates</tspan></text></a><text font-size="14.40" x="15.0" y="53.7" fill="#666"><tspan x="15" y="53.72">The literacy rate illustrates the total share of men and women in the population, aged 15 and over, who are literate</tspan><tspan x="15" y="69.56">(i.e. who can read and write). However, there is no commonly agreed definition of what this constitutes, differing</tspan><tspan x="15" y="85.4">country-to-country.</tspan></text></g><g class="LineChart"><defs><clipPath id="boundsClip-507"><rect x="51.634" y="0" width="830" height="897.8"></rect></clipPath></defs><g class="AxisBoxView"><g class="HorizontalAxis"><text x="61.6" y="556.5" fill="#666" text-anchor="middle" font-size="16.2">1979</text><text x="169.1" y="556.5" fill="#666" text-anchor="middle" font-size="16.2">1985</text><text x="258.7" y="556.5" fill="#666" text-anchor="middle" font-size="16.2">1990</text><text x="348.3" y="556.5" fill="#666" text-anchor="middle" font-size="16.2">1995</text><text x="437.9" y="556.5" fill="#666" text-anchor="middle" font-size="16.2">2000</text><text x="527.5" y="556.5" fill="#666" text-anchor="middle" font-size="16.2">2005</text><text x="617" y="556.5" fill="#666" text-anchor="middle" font-size="16.2">2010</text><text x="724.5" y="556.5" fill="#666" text-anchor="middle" font-size="16.2">2016</text></g><g class="VerticalAxis"><text x="56.63" y="535.3" fill="#666" dominant-baseline="middle" text-anchor="end" font-size="16.2">0%</text><text x="56.63" y="449.8" fill="#666" dominant-baseline="middle" text-anchor="end" font-size="16.2">20%</text><text x="56.63" y="364.2" fill="#666" dominant-baseline="middle" text-anchor="end" font-size="16.2">40%</text><text x="56.63" y="278.7" fill="#666" dominant-baseline="middle" text-anchor="end" font-size="16.2">60%</text><text x="56.63" y="193.1" fill="#666" dominant-baseline="middle" text-anchor="end" font-size="16.2">80%</text><text x="56.63" y="107.6" fill="#666" dominant-baseline="middle" text-anchor="end" font-size="16.2">100%</text></g><g class="AxisGridLines"><line x1="61.63" y1="535.3" x2="724.53" y2="535.3" stroke="#ccc"></line><line x1="61.63" y1="449.8" x2="724.53" y2="449.8" stroke="#ddd" stroke-dasharray="3,2"></line><line x1="61.63" y1="364.2" x2="724.53" y2="364.2" stroke="#ddd" stroke-dasharray="3,2"></line><line x1="61.63" y1="278.7" x2="724.53" y2="278.7" stroke="#ddd" stroke-dasharray="3,2"></line><line x1="61.63" y1="193.1" x2="724.53" y2="193.1" stroke="#ddd" stroke-dasharray="3,2"></line><line x1="61.63" y1="107.6" x2="724.53" y2="107.6" stroke="#ddd" stroke-dasharray="3,2"></line></g></g><g clip-path="url(#boundsClip-507)"><g class="HeightedLegend clickable"><g class="legendMark"><g class="indicator"><line x1="729.535" y1="111.8" x2="750.9238888888889" y2="111.8" stroke="#666" stroke-width="0.5"></line><line x1="750.9238888888889" y1="111.8" x2="750.9238888888889" y2="111.8" stroke="#666" stroke-width="0.5"></line><line x1="750.9238888888889" y1="111.8" x2="754.535" y2="111.8" stroke="#666" stroke-width="0.5"></line></g><rect x="724.535" y="105.05" width="59.84" height="13.5" fill="#fff" opacity="0"></rect><text font-size="13.50" x="759.5" y="115.8" fill="#b077b1"><tspan x="759.535" y="115.85">Italy</tspan></text></g><g class="legendMark"><g class="indicator"><line x1="729.535" y1="115.1" x2="748.7016666666666" y2="115.1" stroke="#666" stroke-width="0.5"></line><line x1="748.7016666666666" y1="115.1" x2="748.7016666666666" y2="127.3" stroke="#666" stroke-width="0.5"></line><line x1="748.7016666666666" y1="127.3" x2="754.535" y2="127.3" stroke="#666" stroke-width="0.5"></line></g><rect x="724.535" y="120.55" width="69.695" height="13.5" fill="#fff" opacity="0"></rect><text font-size="13.50" x="759.5" y="131.4" fill="#ffd53e"><tspan x="759.535" y="131.35000000000002">Spain</tspan></text></g><g class="legendMark"><g class="indicator"><line x1="729.535" y1="116.1" x2="746.4794444444444" y2="116.1" stroke="#666" stroke-width="0.5"></line><line x1="746.4794444444444" y1="116.1" x2="746.4794444444444" y2="142.8" stroke="#666" stroke-width="0.5"></line><line x1="746.4794444444444" y1="142.8" x2="754.535" y2="142.8" stroke="#666" stroke-width="0.5"></line></g><rect x="724.535" y="136.05" width="76.445" height="13.5" fill="#fff" opacity="0"></rect><text font-size="13.50" x="759.5" y="146.9" fill="#9ecc8a"><tspan x="759.535" y="146.85000000000002">Jordan</tspan></text></g><g class="legendMark"><g class="indicator"><line x1="729.535" y1="116.3" x2="744.2572222222221" y2="116.3" stroke="#666" stroke-width="0.5"></line><line x1="744.2572222222221" y1="116.3" x2="744.2572222222221" y2="158.3" stroke="#666" stroke-width="0.5"></line><line x1="744.2572222222221" y1="158.3" x2="754.535" y2="158.3" stroke="#666" stroke-width="0.5"></line></g><rect x="724.535" y="151.55" width="110.465" height="13.5" fill="#fff" opacity="0"></rect><text font-size="13.50" x="759.5" y="162.4" fill="#e6332e"><tspan x="759.535" y="162.35000000000002">South Korea</tspan></text></g><g class="legendMark"><g class="indicator"><line x1="729.535" y1="127.4" x2="742.035" y2="127.4" stroke="#666" stroke-width="0.5"></line><line x1="742.035" y1="127.4" x2="742.035" y2="173.8" stroke="#666" stroke-width="0.5"></line><line x1="742.035" y1="173.8" x2="754.535" y2="173.8" stroke="#666" stroke-width="0.5"></line></g><rect x="724.535" y="167.05" width="93.86000000000001" height="13.5" fill="#fff" opacity="0"></rect><text font-size="13.50" x="759.5" y="177.9" fill="#2a939b"><tspan x="759.535" y="177.85000000000002">Indonesia</tspan></text></g><g class="legendMark"><g class="indicator"><line x1="729.535" y1="131.8" x2="739.8127777777778" y2="131.8" stroke="#666" stroke-width="0.5"></line><line x1="739.8127777777778" y1="131.8" x2="739.8127777777778" y2="189.3" stroke="#666" stroke-width="0.5"></line><line x1="739.8127777777778" y1="189.3" x2="754.535" y2="189.3" stroke="#666" stroke-width="0.5"></line></g><rect x="724.535" y="182.55" width="85.49000000000001" height="13.5" fill="#fff" opacity="0"></rect><text font-size="13.50" x="759.5" y="193.4" fill="#a652ba"><tspan x="759.535" y="193.35000000000002">Ecuador</tspan></text></g><g class="legendMark"><g class="indicator"><line x1="729.535" y1="139.3" x2="737.5905555555555" y2="139.3" stroke="#666" stroke-width="0.5"></line><line x1="737.5905555555555" y1="139.3" x2="737.5905555555555" y2="204.8" stroke="#666" stroke-width="0.5"></line><line x1="737.5905555555555" y1="204.8" x2="754.535" y2="204.8" stroke="#666" stroke-width="0.5"></line></g><rect x="724.535" y="198.05" width="68.75" height="13.5" fill="#fff" opacity="0"></rect><text font-size="13.50" x="759.5" y="208.9" fill="#f6a324"><tspan x="759.535" y="208.85000000000002">Brazil</tspan></text></g><g class="legendMark"><g class="indicator"><line x1="729.535" y1="163.7" x2="735.3683333333333" y2="163.7" stroke="#666" stroke-width="0.5"></line><line x1="735.3683333333333" y1="163.7" x2="735.3683333333333" y2="220.3" stroke="#666" stroke-width="0.5"></line><line x1="735.3683333333333" y1="220.3" x2="754.535" y2="220.3" stroke="#666" stroke-width="0.5"></line></g><rect x="724.535" y="213.55" width="97.37" height="13.5" fill="#fff" opacity="0"></rect><text font-size="13.50" x="759.5" y="224.4" fill="#34983f"><tspan x="759.535" y="224.35000000000002">Zimbabwe</tspan></text></g><g class="legendMark"><g class="indicator"><line x1="729.535" y1="226.4" x2="733.146111111111" y2="226.4" stroke="#666" stroke-width="0.5"></line><line x1="733.146111111111" y1="226.4" x2="733.146111111111" y2="235.8" stroke="#666" stroke-width="0.5"></line><line x1="733.146111111111" y1="235.8" x2="754.535" y2="235.8" stroke="#666" stroke-width="0.5"></line></g><rect x="724.535" y="229.05" width="64.43" height="13.5" fill="#fff" opacity="0"></rect><text font-size="13.50" x="759.5" y="239.9" fill="#ca2628"><tspan x="759.535" y="239.85000000000002">India</tspan></text></g><g class="legendMark"><g class="indicator"><line x1="729.535" y1="325.6" x2="742.035" y2="325.6" stroke="#666" stroke-width="0.5"></line><line x1="742.035" y1="325.6" x2="742.035" y2="325.6" stroke="#666" stroke-width="0.5"></line><line x1="742.035" y1="325.6" x2="754.535" y2="325.6" stroke="#666" stroke-width="0.5"></line></g><rect x="724.535" y="318.85" width="84.005" height="13.5" fill="#fff" opacity="0"></rect><text font-size="13.50" x="759.5" y="329.7" fill="#3360a9"><tspan x="759.535" y="329.65000000000003">Ethiopia</tspan></text></g></g><g class="Lines"><rect x="62" y="108" width="663" height="428" fill="rgba(255,255,255,0)" opacity="0"></rect><g class="key-South-Korea_0"><path stroke="#e6332e" stroke-linecap="round" d="M581 116" fill="none" stroke-width="1.5"></path><g fill="#e6332e"><circle cx="581" cy="116" r="2"></circle></g></g><g class="key-Spain_0"><path stroke="#ffd53e" stroke-linecap="round" d="M98 138L277 123L510 120L528 117L563 116L581 118L599 118L617 117L635 117L653 117L671 116L689 116L707 116L725 115" fill="none" stroke-width="1.5"></path><g fill="#ffd53e"><circle cx="98" cy="138" r="2"></circle><circle cx="277" cy="123" r="2"></circle><circle cx="510" cy="120" r="2"></circle><circle cx="528" cy="117" r="2"></circle><circle cx="563" cy="116" r="2"></circle><circle cx="581" cy="118" r="2"></circle><circle cx="599" cy="118" r="2"></circle><circle cx="617" cy="117" r="2"></circle><circle cx="635" cy="117" r="2"></circle><circle cx="653" cy="117" r="2"></circle><circle cx="671" cy="116" r="2"></circle><circle cx="689" cy="116" r="2"></circle><circle cx="707" cy="116" r="2"></circle><circle cx="725" cy="115" r="2"></circle></g></g><g class="key-Brazil_0"><path stroke="#f6a324" stroke-linecap="round" d="M80 216L438 166L510 156L545 152L563 150L581 150L599 149L617 149L635 144L653 145L671 144L689 143L707 139" fill="none" stroke-width="1.5"></path><g fill="#f6a324"><circle cx="80" cy="216" r="2"></circle><circle cx="438" cy="166" r="2"></circle><circle cx="510" cy="156" r="2"></circle><circle cx="545" cy="152" r="2"></circle><circle cx="563" cy="150" r="2"></circle><circle cx="581" cy="150" r="2"></circle><circle cx="599" cy="149" r="2"></circle><circle cx="617" cy="149" r="2"></circle><circle cx="635" cy="144" r="2"></circle><circle cx="653" cy="145" r="2"></circle><circle cx="671" cy="144" r="2"></circle><circle cx="689" cy="143" r="2"></circle><circle cx="707" cy="139" r="2"></circle></g></g><g class="key-Ethiopia_0"><path stroke="#3360a9" stroke-linecap="round" d="M330 420L510 382L528 408L563 369L707 326" fill="none" stroke-width="1.5"></path><g fill="#3360a9"><circle cx="330" cy="420" r="2"></circle><circle cx="510" cy="382" r="2"></circle><circle cx="528" cy="408" r="2"></circle><circle cx="563" cy="369" r="2"></circle><circle cx="707" cy="326" r="2"></circle></g></g><g class="key-Jordan_0"><path stroke="#9ecc8a" stroke-linecap="round" d="M62 250L492 151L528 146L563 141L617 140L635 125L653 117L707 116" fill="none" stroke-width="1.5"></path><g fill="#9ecc8a"><circle cx="62" cy="250" r="2"></circle><circle cx="492" cy="151" r="2"></circle><circle cx="528" cy="146" r="2"></circle><circle cx="563" cy="141" r="2"></circle><circle cx="617" cy="140" r="2"></circle><circle cx="635" cy="125" r="2"></circle><circle cx="653" cy="117" r="2"></circle><circle cx="707" cy="116" r="2"></circle></g></g><g class="key-Italy_0"><path stroke="#b077b1" stroke-linecap="round" d="M98 123L456 114L635 113L707 112" fill="none" stroke-width="1.5"></path><g fill="#b077b1"><circle cx="98" cy="123" r="2"></circle><circle cx="456" cy="114" r="2"></circle><circle cx="635" cy="113" r="2"></circle><circle cx="707" cy="112" r="2"></circle></g></g><g class="key-India_0"><path stroke="#ca2628" stroke-linecap="round" d="M98 361L277 329L456 274L545 267L635 239L707 226" fill="none" stroke-width="1.5"></path><g fill="#ca2628"><circle cx="98" cy="361" r="2"></circle><circle cx="277" cy="329" r="2"></circle><circle cx="456" cy="274" r="2"></circle><circle cx="545" cy="267" r="2"></circle><circle cx="635" cy="239" r="2"></circle><circle cx="707" cy="226" r="2"></circle></g></g><g class="key-Zimbabwe_0"><path stroke="#34983f" stroke-linecap="round" d="M115 203L295 178L635 178L689 156L707 164" fill="none" stroke-width="1.5"></path><g fill="#34983f"><circle cx="115" cy="203" r="2"></circle><circle cx="295" cy="178" r="2"></circle><circle cx="635" cy="178" r="2"></circle><circle cx="689" cy="156" r="2"></circle><circle cx="707" cy="164" r="2"></circle></g></g><g class="key-Indonesia_0"><path stroke="#2a939b" stroke-linecap="round" d="M80 247L259 187L510 149L545 142L581 141L599 139L635 138L689 129L707 128L725 127" fill="none" stroke-width="1.5"></path><g fill="#2a939b"><circle cx="80" cy="247" r="2"></circle><circle cx="259" cy="187" r="2"></circle><circle cx="510" cy="149" r="2"></circle><circle cx="545" cy="142" r="2"></circle><circle cx="581" cy="141" r="2"></circle><circle cx="599" cy="139" r="2"></circle><circle cx="635" cy="138" r="2"></circle><circle cx="689" cy="129" r="2"></circle><circle cx="707" cy="128" r="2"></circle><circle cx="725" cy="127" r="2"></circle></g></g><g class="key-Ecuador_0"><path stroke="#a652ba" stroke-linecap="round" d="M115 178L259 158L456 146L563 175L599 175L617 142L635 144L653 142L671 136L689 132L707 131L725 132" fill="none" stroke-width="1.5"></path><g fill="#a652ba"><circle cx="115" cy="178" r="2"></circle><circle cx="259" cy="158" r="2"></circle><circle cx="456" cy="146" r="2"></circle><circle cx="563" cy="175" r="2"></circle><circle cx="599" cy="175" r="2"></circle><circle cx="617" cy="142" r="2"></circle><circle cx="635" cy="144" r="2"></circle><circle cx="653" cy="142" r="2"></circle><circle cx="671" cy="136" r="2"></circle><circle cx="689" cy="132" r="2"></circle><circle cx="707" cy="131" r="2"></circle><circle cx="725" cy="132" r="2"></circle></g></g></g></g></g><g style="fill: #777;" class="SourcesFooter"><g style="fill: #777;" class="clickable"><text font-size="12.60" x="15.0" y="581.6"><tspan x="15" y="581.58">Source: World Bank</tspan></text></g><text font-size="12.60" x="775.4" y="581.6"><tspan x="775.402" y="581.58"><a style="fill: #777;" class="cclogo" href="http://creativecommons.org/licenses/by-sa/4.0/deed.en_US" target="_blank">CC BY-SA</a></tspan></text></g></g></svg>