<svg xmlns="http://www.w3.org/2000/svg" version="1.1" style="font-family:&#x27;Helvetica Neue&#x27;, Helvetica, Arial, sans-serif;font-size:18px;background-color:white;text-rendering:optimizeLegibility;-webkit-font-smoothing:antialiased" width="850" height="600"><g class="HeaderView"><a href="https://mispytest-owid.netlify.com/grapher/long-run-unemployment-and-real-wage-growth-across-the-oecd" target="_blank"><text font-size="22.50" x="15.0" y="33.0" fill="#555"><tspan x="15" y="33">Long-run unemployment and real wage growth across the OECD (1970–2011)</tspan></text></a><text font-size="14.40" x="15.0" y="51.0" fill="#666"><tspan x="15" y="51.019999999999996">Unit 16 &#x27;Technological progress, employment, and living standards in the long run’ Section 16.8 &#x27;Institutions and policies: Why</tspan><tspan x="15" y="66.86">do some countries do better than others?&#x27; in The CORE Team, The Economy. Available at: https://tinyco.re/1608122 [Figure</tspan><tspan x="15" y="82.7">16.12]</tspan></text></g><g><g class="AxisBoxView"><g class="HorizontalAxis"><text font-size="12.60" x="213.8" y="540.3"><tspan x="213.8" y="540.2800000000001">Unemployment rate (average annual rate, 1970-2011)</tspan></text><text x="79.7" y="520.2" fill="#666" text-anchor="middle" font-size="16.2">0%</text><text x="172.4" y="520.2" fill="#666" text-anchor="middle" font-size="16.2">2%</text><text x="265.2" y="520.2" fill="#666" text-anchor="middle" font-size="16.2">4%</text><text x="357.9" y="520.2" fill="#666" text-anchor="middle" font-size="16.2">6%</text><text x="450.7" y="520.2" fill="#666" text-anchor="middle" font-size="16.2">8%</text><text x="543.4" y="520.2" fill="#666" text-anchor="middle" font-size="16.2">10%</text><text x="636.2" y="520.2" fill="#666" text-anchor="middle" font-size="16.2">12%</text></g><g class="VerticalAxis"><text font-size="12.60" x="-492.0" y="25.1" transform="rotate(-90)"><tspan x="-492.005" y="25.080000000000002">Real wage growth (average annual growth rate, 1970-2011) </tspan></text><text x="74.70" y="499" fill="#666" dominant-baseline="middle" text-anchor="end" font-size="16.2">0%</text><text x="74.70" y="433" fill="#666" dominant-baseline="middle" text-anchor="end" font-size="16.2">0.5%</text><text x="74.70" y="367.1" fill="#666" dominant-baseline="middle" text-anchor="end" font-size="16.2">1%</text><text x="74.70" y="301.1" fill="#666" dominant-baseline="middle" text-anchor="end" font-size="16.2">1.5%</text><text x="74.70" y="235.2" fill="#666" dominant-baseline="middle" text-anchor="end" font-size="16.2">2%</text><text x="74.70" y="169.2" fill="#666" dominant-baseline="middle" text-anchor="end" font-size="16.2">2.5%</text><text x="74.70" y="103.3" fill="#666" dominant-baseline="middle" text-anchor="end" font-size="16.2">3%</text></g><g class="AxisGridLines"><line x1="79.70" y1="499" x2="715.00" y2="499" stroke="#ccc"></line><line x1="79.70" y1="433" x2="715.00" y2="433" stroke="#ddd" stroke-dasharray="3,2"></line><line x1="79.70" y1="367.1" x2="715.00" y2="367.1" stroke="#ddd" stroke-dasharray="3,2"></line><line x1="79.70" y1="301.1" x2="715.00" y2="301.1" stroke="#ddd" stroke-dasharray="3,2"></line><line x1="79.70" y1="235.2" x2="715.00" y2="235.2" stroke="#ddd" stroke-dasharray="3,2"></line><line x1="79.70" y1="169.2" x2="715.00" y2="169.2" stroke="#ddd" stroke-dasharray="3,2"></line><line x1="79.70" y1="103.3" x2="715.00" y2="103.3" stroke="#ddd" stroke-dasharray="3,2"></line></g><g class="AxisGridLines"><line x1="79.7" y1="499.00" x2="79.7" y2="102.90" stroke="#ccc"></line><line x1="172.4" y1="499.00" x2="172.4" y2="102.90" stroke="#ddd" stroke-dasharray="3,2"></line><line x1="265.2" y1="499.00" x2="265.2" y2="102.90" stroke="#ddd" stroke-dasharray="3,2"></line><line x1="357.9" y1="499.00" x2="357.9" y2="102.90" stroke="#ddd" stroke-dasharray="3,2"></line><line x1="450.7" y1="499.00" x2="450.7" y2="102.90" stroke="#ddd" stroke-dasharray="3,2"></line><line x1="543.4" y1="499.00" x2="543.4" y2="102.90" stroke="#ddd" stroke-dasharray="3,2"></line><line x1="636.2" y1="499.00" x2="636.2" y2="102.90" stroke="#ddd" stroke-dasharray="3,2"></line></g></g><g class="ComparisonLine"><defs><clipPath id="axisBounds-794"><rect x="79.69800000000001" y="102.9" width="635.302" height="396.1"></rect></clipPath></defs><path d="M79.7,499L86.1,490.9L92.4,482.7L98.8,474.6L105.1,466.5L111.5,458.3L117.8,450.2L124.2,442.1L130.5,433.9L136.9,425.8L143.2,417.7L149.6,409.5L155.9,401.4L162.3,393.3L168.6,385.1L175,377L181.3,368.9L187.7,360.8L194.1,352.6L200.4,344.5L206.8,336.4L213.1,328.2L219.5,320.1L225.8,312L232.2,303.8L238.5,295.7L244.9,287.6L251.2,279.4L257.6,271.3L263.9,263.2L270.3,255L276.6,246.9L283,238.8L289.3,230.6L295.7,222.5L302.1,214.4L308.4,206.2L314.8,198.1L321.1,190L327.5,181.8L333.8,173.7L340.2,165.6L346.5,157.4L352.9,149.3L359.2,141.2L365.6,133L371.9,124.9L378.3,116.8L384.6,108.6L391,100.5L397.3,92.4L403.7,84.3L410.1,76.1L416.4,68L422.8,59.9L429.1,51.7L435.5,43.6L441.8,35.5L448.2,27.3L454.5,19.2L460.9,11.1L467.2,2.9L473.6,-5.2L479.9,-13.3L486.3,-21.5L492.6,-29.6L499,-37.7L505.4,-45.9L511.7,-54L518.1,-62.1L524.4,-70.3L530.8,-78.4L537.1,-86.5L543.5,-94.7L549.8,-102.8L556.2,-110.9L562.5,-119.1L568.9,-127.2L575.2,-135.3L581.6,-143.5L587.9,-151.6L594.3,-159.7L600.6,-167.8L607,-176L613.4,-184.1L619.7,-192.2L626.1,-200.4L632.4,-208.5L638.8,-216.6L645.1,-224.8L651.5,-232.9L657.8,-241L664.2,-249.2L670.5,-257.3L676.9,-265.4L683.2,-273.6L689.6,-281.7L695.9,-289.8L702.3,-298L708.6,-306.1" clip-path="url(#axisBounds-794)" fill="none" stroke="#ccc"></path></g><g class="PointsWithLabels clickable" clip-path="url(#scatterBounds-795)" font-family="Arial, sans-serif"><rect x="79.69800000000001" y="102.9" width="635.302" height="396.1" fill="rgba(255,255,255,0)"></rect><defs><clipPath id="scatterBounds-795"><rect x="69.69800000000001" y="92.9" width="655.302" height="416.1"></rect></clipPath></defs><g class="key-United-States_0"><circle cx="373.00" cy="361.00" r="1.78" fill="#a652ba" opacity="0.8" stroke="#333" stroke-width="0.7"></circle></g><g class="key-Belgium_0"><circle cx="479.00" cy="216.00" r="1.78" fill="#f6a324" opacity="0.8" stroke="#333" stroke-width="0.7"></circle></g><g class="key-Canada_0"><circle cx="457.00" cy="353.00" r="1.78" fill="#a652ba" opacity="0.8" stroke="#333" stroke-width="0.7"></circle></g><g class="key-Denmark_0"><circle cx="363.00" cy="197.00" r="1.78" fill="#f6a324" opacity="0.8" stroke="#333" stroke-width="0.7"></circle></g><g class="key-Finland_0"><circle cx="415.00" cy="102.00" r="1.78" fill="#f6a324" opacity="0.8" stroke="#333" stroke-width="0.7"></circle></g><g class="key-France_0"><circle cx="411.00" cy="180.00" r="1.78" fill="#f6a324" opacity="0.8" stroke="#333" stroke-width="0.7"></circle></g><g class="key-Germany_0"><circle cx="374.00" cy="181.00" r="1.78" fill="#f6a324" opacity="0.8" stroke="#fff" stroke-width="0.7"></circle></g><g class="key-Italy_0"><circle cx="497.00" cy="228.00" r="1.78" fill="#f6a324" opacity="0.8" stroke="#333" stroke-width="0.7"></circle></g><g class="key-Japan_0"><circle cx="221.00" cy="235.00" r="1.78" fill="#34983f" opacity="0.8" stroke="#333" stroke-width="0.7"></circle></g><g class="key-Netherlands_0"><circle cx="344.00" cy="258.00" r="1.78" fill="#f6a324" opacity="0.8" stroke="#333" stroke-width="0.7"></circle></g><g class="key-Norway_0"><circle cx="229.00" cy="187.00" r="1.78" fill="#f6a324" opacity="0.8" stroke="#333" stroke-width="0.7"></circle></g><g class="key-Spain_0"><circle cx="715.00" cy="147.00" r="1.78" fill="#f6a324" opacity="0.8" stroke="#333" stroke-width="0.7"></circle></g><g class="key-Sweden_0"><circle cx="305.00" cy="262.00" r="1.78" fill="#f6a324" opacity="0.8" stroke="#fff" stroke-width="0.7"></circle></g><g class="key-United-Kingdom_0"><circle cx="392.00" cy="224.00" r="1.78" fill="#f6a324" opacity="0.8" stroke="#333" stroke-width="0.7"></circle></g><g class="backgroundLabels" fill="#333"><text x="373.00" y="358.22" font-size="11.00">United States</text><text x="479.00" y="213.22" font-size="11.00">Belgium</text><text x="457.00" y="350.22" font-size="11.00">Canada</text><text x="363.00" y="194.22" font-size="11.00">Denmark</text><text x="415.00" y="113.90" font-size="11.00">Finland</text><text x="411.00" y="177.22" font-size="11.00">France</text><text x="497.00" y="225.22" font-size="11.00">Italy</text><text x="221.00" y="232.22" font-size="11.00">Japan</text><text x="344.00" y="255.22" font-size="11.00">Netherlands</text><text x="229.00" y="184.22" font-size="11.00">Norway</text><text x="686.73" y="144.22" font-size="11.00">Spain</text><text x="392.00" y="221.22" font-size="11.00">United Kingdom</text></g></g><g class="ScatterColorLegend clickable" style="cursor:pointer"><g class="legendMark"><rect x="735" y="100.4" width="35.57" height="17.6" fill="#fff" opacity="0"></rect>,<rect x="735" y="105.9" width="6" height="6" fill="#34983f"></rect>,<text font-size="12.60" x="746.0" y="113.0"><tspan x="746" y="112.98">Asia</tspan></text></g><g class="legendMark"><rect x="735" y="118" width="51.824" height="17.6" fill="#fff" opacity="0"></rect>,<rect x="735" y="123.5" width="6" height="6" fill="#f6a324"></rect>,<text font-size="12.60" x="746.0" y="130.6"><tspan x="746" y="130.57999999999998">Europe</tspan></text></g><g class="legendMark"><rect x="735" y="135.60000000000002" width="91.64" height="17.6" fill="#fff" opacity="0"></rect>,<rect x="735" y="141.10000000000002" width="6" height="6" fill="#a652ba"></rect>,<text font-size="12.60" x="746.0" y="148.2"><tspan x="746" y="148.18">North America</tspan></text></g></g></g><g class="SourcesFooter" style="fill:#777"><g class="clickable" style="fill:#777"><text font-size="12.60" x="15.0" y="567.9"><tspan x="15" y="567.88">Source: BLS (2011), OECD (2015)</tspan></text></g><text font-size="12.60" x="15.0" y="582.5"><tspan x="15" y="582.48">Note: The comparison line separates the high performing countries from the lower performing ones</tspan></text><text font-size="12.60" x="660.0" y="567.9"><tspan x="659.986" y="567.88"><a href="https://ourworldindata.org" target="_blank">Powered by ourworldindata.org</a></tspan></text></g></svg>