<svg xmlns="http://www.w3.org/2000/svg" version="1.1" style="font-family:&#x27;Helvetica Neue&#x27;, Helvetica, Arial, sans-serif;font-size:18px;background-color:white;text-rendering:optimizeLegibility;-webkit-font-smoothing:antialiased" width="850" height="600"><g class="HeaderView"><a href="https://mispytest-owid.netlify.com/grapher/manufacturing-wages-relative-to-the-us" target="_blank"><text font-size="25.20" x="15.0" y="35.2" fill="#555"><tspan x="15" y="35.160000000000004">Manufacturing wages relative to the US (1975 and 2012)</tspan></text></a><text font-size="14.40" x="15.0" y="53.7" fill="#666"><tspan x="15" y="53.72">Unit 18 &#x27;The nation and the world economy’ Section 18.3 &#x27;Globalization and migration&#x27; in The CORE Team, The Economy.</tspan><tspan x="15" y="69.56">Available at https://tinyco.re/1803122 [Figure 18.12]</tspan></text></g><g class="LineChart"><defs><clipPath id="boundsClip-838"><rect x="37.216" y="0" width="830" height="932.8"></rect></clipPath></defs><g class="AxisBoxView"><g class="HorizontalAxis"><text x="47.2" y="556.5" fill="#666" text-anchor="middle" font-size="16.2">1975</text><text x="131.3" y="556.5" fill="#666" text-anchor="middle" font-size="16.2">1980</text><text x="215.4" y="556.5" fill="#666" text-anchor="middle" font-size="16.2">1985</text><text x="299.5" y="556.5" fill="#666" text-anchor="middle" font-size="16.2">1990</text><text x="383.6" y="556.5" fill="#666" text-anchor="middle" font-size="16.2">1995</text><text x="467.7" y="556.5" fill="#666" text-anchor="middle" font-size="16.2">2000</text><text x="551.8" y="556.5" fill="#666" text-anchor="middle" font-size="16.2">2005</text><text x="669.6" y="556.5" fill="#666" text-anchor="middle" font-size="16.2">2012</text></g><g class="VerticalAxis"><text x="42.22" y="535.3" fill="#666" dominant-baseline="middle" text-anchor="end" font-size="16.2">0</text><text x="42.22" y="485.3" fill="#666" dominant-baseline="middle" text-anchor="end" font-size="16.2">20</text><text x="42.22" y="435.3" fill="#666" dominant-baseline="middle" text-anchor="end" font-size="16.2">40</text><text x="42.22" y="385.2" fill="#666" dominant-baseline="middle" text-anchor="end" font-size="16.2">60</text><text x="42.22" y="335.2" fill="#666" dominant-baseline="middle" text-anchor="end" font-size="16.2">80</text><text x="42.22" y="285.2" fill="#666" dominant-baseline="middle" text-anchor="end" font-size="16.2">100</text><text x="42.22" y="235.2" fill="#666" dominant-baseline="middle" text-anchor="end" font-size="16.2">120</text><text x="42.22" y="185.1" fill="#666" dominant-baseline="middle" text-anchor="end" font-size="16.2">140</text><text x="42.22" y="135.1" fill="#666" dominant-baseline="middle" text-anchor="end" font-size="16.2">160</text><text x="15" y="82.1" style="font-size:12px;text-transform:uppercase;cursor:pointer" class="clickable">linear</text></g><g class="AxisGridLines"><line x1="47.22" y1="535.3" x2="669.59" y2="535.3" stroke="#ccc"></line><line x1="47.22" y1="485.3" x2="669.59" y2="485.3" stroke="#ddd" stroke-dasharray="3,2"></line><line x1="47.22" y1="435.3" x2="669.59" y2="435.3" stroke="#ddd" stroke-dasharray="3,2"></line><line x1="47.22" y1="385.2" x2="669.59" y2="385.2" stroke="#ddd" stroke-dasharray="3,2"></line><line x1="47.22" y1="335.2" x2="669.59" y2="335.2" stroke="#ddd" stroke-dasharray="3,2"></line><line x1="47.22" y1="285.2" x2="669.59" y2="285.2" stroke="#ddd" stroke-dasharray="3,2"></line><line x1="47.22" y1="235.2" x2="669.59" y2="235.2" stroke="#ddd" stroke-dasharray="3,2"></line><line x1="47.22" y1="185.1" x2="669.59" y2="185.1" stroke="#ddd" stroke-dasharray="3,2"></line><line x1="47.22" y1="135.1" x2="669.59" y2="135.1" stroke="#ddd" stroke-dasharray="3,2"></line></g></g><g clip-path="url(#boundsClip-838)"><g class="HeightedLegend clickable"><g class="legendMark"><g class="indicator"><line x1="674.59" y1="90.1" x2="687.09" y2="90.1" stroke="#666" stroke-width="0.5"></line><line x1="687.09" y1="90.1" x2="687.09" y2="90.1" stroke="#666" stroke-width="0.5"></line><line x1="687.09" y1="90.1" x2="699.59" y2="90.1" stroke="#666" stroke-width="0.5"></line></g><rect x="669.59" y="83.35" width="107.22500000000001" height="13.5" fill="#fff" opacity="0"></rect><text font-size="13.50" x="704.6" y="94.1" fill="#818282"><tspan x="704.59" y="94.14999999999999">178 Norway</tspan></text></g><g class="legendMark"><g class="indicator"><line x1="674.59" y1="185.1" x2="697.09" y2="185.1" stroke="#666" stroke-width="0.5"></line><line x1="697.09" y1="185.1" x2="697.09" y2="185.1" stroke="#666" stroke-width="0.5"></line><line x1="697.09" y1="185.1" x2="699.59" y2="185.1" stroke="#666" stroke-width="0.5"></line></g><rect x="669.59" y="178.35" width="110.465" height="13.5" fill="#fff" opacity="0"></rect><text font-size="13.50" x="704.6" y="189.2" fill="#5eb77e"><tspan x="704.59" y="189.15">140 Sweden</tspan></text></g><g class="legendMark"><g class="indicator"><line x1="674.59" y1="195.1" x2="687.09" y2="195.1" stroke="#666" stroke-width="0.5"></line><line x1="687.09" y1="195.1" x2="687.09" y2="200.6" stroke="#666" stroke-width="0.5"></line><line x1="687.09" y1="200.6" x2="699.59" y2="200.6" stroke="#666" stroke-width="0.5"></line></g><rect x="669.59" y="193.85" width="116.27000000000001" height="13.5" fill="#fff" opacity="0"></rect><text font-size="13.50" x="704.6" y="204.7" fill="#ce8ebd"><tspan x="704.59" y="204.65">136 Denmark</tspan></text></g><g class="legendMark"><g class="indicator"><line x1="674.59" y1="215.2" x2="687.09" y2="215.2" stroke="#666" stroke-width="0.5"></line><line x1="687.09" y1="215.2" x2="687.09" y2="215.2" stroke="#666" stroke-width="0.5"></line><line x1="687.09" y1="215.2" x2="699.59" y2="215.2" stroke="#666" stroke-width="0.5"></line></g><rect x="669.59" y="208.45" width="117.08000000000001" height="13.5" fill="#fff" opacity="0"></rect><text font-size="13.50" x="704.6" y="219.3" fill="#f07f59"><tspan x="704.59" y="219.25">128 Germany</tspan></text></g><g class="legendMark"><g class="indicator"><line x1="674.59" y1="237.7" x2="687.09" y2="237.7" stroke="#666" stroke-width="0.5"></line><line x1="687.09" y1="237.7" x2="687.09" y2="237.7" stroke="#666" stroke-width="0.5"></line><line x1="687.09" y1="237.7" x2="699.59" y2="237.7" stroke="#666" stroke-width="0.5"></line></g><rect x="669.59" y="230.95" width="105.875" height="13.5" fill="#fff" opacity="0"></rect><text font-size="13.50" x="704.6" y="241.8" fill="#6bb537"><tspan x="704.59" y="241.75">119 Finland</tspan></text></g><g class="legendMark"><g class="indicator"><line x1="674.59" y1="255.2" x2="697.09" y2="255.2" stroke="#666" stroke-width="0.5"></line><line x1="697.09" y1="255.2" x2="697.09" y2="255.2" stroke="#666" stroke-width="0.5"></line><line x1="697.09" y1="255.2" x2="699.59" y2="255.2" stroke="#666" stroke-width="0.5"></line></g><rect x="669.59" y="248.45" width="103.58" height="13.5" fill="#fff" opacity="0"></rect><text font-size="13.50" x="704.6" y="259.3" fill="#e6332e"><tspan x="704.59" y="259.25">112 France</tspan></text></g><g class="legendMark"><g class="indicator"><line x1="674.59" y1="257.7" x2="687.09" y2="257.7" stroke="#666" stroke-width="0.5"></line><line x1="687.09" y1="257.7" x2="687.09" y2="270.7" stroke="#666" stroke-width="0.5"></line><line x1="687.09" y1="270.7" x2="699.59" y2="270.7" stroke="#666" stroke-width="0.5"></line></g><rect x="669.59" y="263.95" width="134.495" height="13.5" fill="#fff" opacity="0"></rect><text font-size="13.50" x="704.6" y="274.8" fill="#7ec7ce"><tspan x="704.59" y="274.75">111 Netherlands</tspan></text></g><g class="legendMark"><g class="indicator"><line x1="674.59" y1="285.2" x2="697.09" y2="285.2" stroke="#666" stroke-width="0.5"></line><line x1="697.09" y1="285.2" x2="697.09" y2="285.2" stroke="#666" stroke-width="0.5"></line><line x1="697.09" y1="285.2" x2="699.59" y2="285.2" stroke="#666" stroke-width="0.5"></line></g><rect x="669.59" y="278.45" width="142.865" height="13.5" fill="#fff" opacity="0"></rect><text font-size="13.50" x="704.6" y="289.3" fill="#b077b1"><tspan x="704.59" y="289.25">100 United States</tspan></text></g><g class="legendMark"><g class="indicator"><line x1="674.59" y1="287.7" x2="692.09" y2="287.7" stroke="#666" stroke-width="0.5"></line><line x1="692.09" y1="287.7" x2="692.09" y2="300.7" stroke="#666" stroke-width="0.5"></line><line x1="692.09" y1="300.7" x2="699.59" y2="300.7" stroke="#666" stroke-width="0.5"></line></g><rect x="669.59" y="293.95" width="90.89" height="13.5" fill="#fff" opacity="0"></rect><text font-size="13.50" x="704.6" y="304.8" fill="#ffd53e"><tspan x="704.59" y="304.75">99 Japan</tspan></text></g><g class="legendMark"><g class="indicator"><line x1="674.59" y1="295.2" x2="687.09" y2="295.2" stroke="#666" stroke-width="0.5"></line><line x1="687.09" y1="295.2" x2="687.09" y2="316.2" stroke="#666" stroke-width="0.5"></line><line x1="687.09" y1="316.2" x2="699.59" y2="316.2" stroke="#666" stroke-width="0.5"></line></g><rect x="669.59" y="309.45" width="78.74000000000001" height="13.5" fill="#fff" opacity="0"></rect><text font-size="13.50" x="704.6" y="320.3" fill="#9ecc8a"><tspan x="704.59" y="320.25">96 Italy</tspan></text></g><g class="legendMark"><g class="indicator"><line x1="674.59" y1="315.2" x2="682.09" y2="315.2" stroke="#666" stroke-width="0.5"></line><line x1="682.09" y1="315.2" x2="682.09" y2="331.7" stroke="#666" stroke-width="0.5"></line><line x1="682.09" y1="331.7" x2="699.59" y2="331.7" stroke="#666" stroke-width="0.5"></line></g><rect x="669.59" y="324.95" width="150.29000000000002" height="13.5" fill="#fff" opacity="0"></rect><text font-size="13.50" x="704.6" y="335.8" fill="#e6332e"><tspan x="704.59" y="335.75">88 United Kingdom</tspan></text></g><g class="legendMark"><g class="indicator"><line x1="674.59" y1="365.2" x2="687.09" y2="365.2" stroke="#666" stroke-width="0.5"></line><line x1="687.09" y1="365.2" x2="687.09" y2="365.2" stroke="#666" stroke-width="0.5"></line><line x1="687.09" y1="365.2" x2="699.59" y2="365.2" stroke="#666" stroke-width="0.5"></line></g><rect x="669.59" y="358.45" width="115.73" height="13.5" fill="#fff" opacity="0"></rect><text font-size="13.50" x="704.6" y="369.3" fill="#2a939b"><tspan x="704.59" y="369.25">68 Singapore</tspan></text></g><g class="legendMark"><g class="indicator"><line x1="674.59" y1="390.2" x2="687.09" y2="390.2" stroke="#666" stroke-width="0.5"></line><line x1="687.09" y1="390.2" x2="687.09" y2="390.2" stroke="#666" stroke-width="0.5"></line><line x1="687.09" y1="390.2" x2="699.59" y2="390.2" stroke="#666" stroke-width="0.5"></line></g><rect x="669.59" y="383.45" width="165.41" height="13.5" fill="#fff" opacity="0"></rect><text font-size="13.50" x="704.6" y="394.3" fill="#a652ba"><tspan x="704.59" y="394.25">58 Korea, Republic of</tspan></text></g><g class="legendMark"><g class="indicator"><line x1="674.59" y1="450.3" x2="687.09" y2="450.3" stroke="#666" stroke-width="0.5"></line><line x1="687.09" y1="450.3" x2="687.09" y2="450.3" stroke="#666" stroke-width="0.5"></line><line x1="687.09" y1="450.3" x2="699.59" y2="450.3" stroke="#666" stroke-width="0.5"></line></g><rect x="669.59" y="443.55" width="104.39" height="13.5" fill="#fff" opacity="0"></rect><text font-size="13.50" x="704.6" y="454.4" fill="#f6a324"><tspan x="704.59" y="454.35">34 Portugal</tspan></text></g><g class="legendMark"><g class="indicator"><line x1="674.59" y1="467.8" x2="687.09" y2="467.8" stroke="#666" stroke-width="0.5"></line><line x1="687.09" y1="467.8" x2="687.09" y2="467.8" stroke="#666" stroke-width="0.5"></line><line x1="687.09" y1="467.8" x2="699.59" y2="467.8" stroke="#666" stroke-width="0.5"></line></g><rect x="669.59" y="461.05" width="97.505" height="13.5" fill="#fff" opacity="0"></rect><text font-size="13.50" x="704.6" y="471.9" fill="#34983f"><tspan x="704.59" y="471.85">27 Taiwan</tspan></text></g><g class="legendMark"><g class="indicator"><line x1="674.59" y1="490.3" x2="687.09" y2="490.3" stroke="#666" stroke-width="0.5"></line><line x1="687.09" y1="490.3" x2="687.09" y2="490.3" stroke="#666" stroke-width="0.5"></line><line x1="687.09" y1="490.3" x2="699.59" y2="490.3" stroke="#666" stroke-width="0.5"></line></g><rect x="669.59" y="483.55" width="96.69500000000001" height="13.5" fill="#fff" opacity="0"></rect><text font-size="13.50" x="704.6" y="494.4" fill="#ca2628"><tspan x="704.59" y="494.35">18 Mexico</tspan></text></g><g class="legendMark"><g class="indicator"><line x1="674.59" y1="528.6" x2="687.09" y2="528.6" stroke="#666" stroke-width="0.5"></line><line x1="687.09" y1="528.6" x2="687.09" y2="528.6" stroke="#666" stroke-width="0.5"></line><line x1="687.09" y1="528.6" x2="699.59" y2="528.6" stroke="#666" stroke-width="0.5"></line></g><rect x="669.59" y="521.85" width="122.48" height="13.5" fill="#fff" opacity="0"></rect><text font-size="13.50" x="704.6" y="532.6" fill="#3360a9"><tspan x="704.59" y="532.65">2.66 Sri Lanka</tspan></text></g></g><g class="Lines"><rect x="47" y="90" width="622" height="445" fill="rgba(255,255,255,0)" opacity="0"></rect><g class="key-France_0"><path stroke="#e6332e" stroke-linecap="round" d="M47 345L670 255" fill="none" stroke-width="1.5"></path><g fill="#e6332e"><circle cx="47" cy="345" r="2"></circle><circle cx="670" cy="255" r="2"></circle></g></g><g class="key-Japan_0"><path stroke="#ffd53e" stroke-linecap="round" d="M47 416L670 288" fill="none" stroke-width="1.5"></path><g fill="#ffd53e"><circle cx="47" cy="416" r="2"></circle><circle cx="670" cy="288" r="2"></circle></g></g><g class="key-Mexico_0"><path stroke="#ca2628" stroke-linecap="round" d="M47 463L670 490" fill="none" stroke-width="1.5"></path><g fill="#ca2628"><circle cx="47" cy="463" r="2"></circle><circle cx="670" cy="490" r="2"></circle></g></g><g class="key-Denmark_0"><path stroke="#ce8ebd" stroke-linecap="round" d="M47 284L670 195" fill="none" stroke-width="1.5"></path><g fill="#ce8ebd"><circle cx="47" cy="284" r="2"></circle><circle cx="670" cy="195" r="2"></circle></g></g><g class="key-Finland_0"><path stroke="#6bb537" stroke-linecap="round" d="M47 334L670 238" fill="none" stroke-width="1.5"></path><g fill="#6bb537"><circle cx="47" cy="334" r="2"></circle><circle cx="670" cy="238" r="2"></circle></g></g><g class="key-Germany_0"><path stroke="#f07f59" stroke-linecap="round" d="M47 327L670 215" fill="none" stroke-width="1.5"></path><g fill="#f07f59"><circle cx="47" cy="327" r="2"></circle><circle cx="670" cy="215" r="2"></circle></g></g><g class="key-Italy_0"><path stroke="#9ecc8a" stroke-linecap="round" d="M47 345L670 295" fill="none" stroke-width="1.5"></path><g fill="#9ecc8a"><circle cx="47" cy="345" r="2"></circle><circle cx="670" cy="295" r="2"></circle></g></g><g class="key-Korea__002c-Republic-of_0"><path stroke="#a652ba" stroke-linecap="round" d="M47 522L670 390" fill="none" stroke-width="1.5"></path><g fill="#a652ba"><circle cx="47" cy="522" r="2"></circle><circle cx="670" cy="390" r="2"></circle></g></g><g class="key-Netherlands_0"><path stroke="#7ec7ce" stroke-linecap="round" d="M47 270L670 258" fill="none" stroke-width="1.5"></path><g fill="#7ec7ce"><circle cx="47" cy="270" r="2"></circle><circle cx="670" cy="258" r="2"></circle></g></g><g class="key-Norway_0"><path stroke="#818282" stroke-linecap="round" d="M47 252L670 90" fill="none" stroke-width="1.5"></path><g fill="#818282"><circle cx="47" cy="252" r="2"></circle><circle cx="670" cy="90" r="2"></circle></g></g><g class="key-Portugal_0"><path stroke="#f6a324" stroke-linecap="round" d="M47 463L670 450" fill="none" stroke-width="1.5"></path><g fill="#f6a324"><circle cx="47" cy="463" r="2"></circle><circle cx="670" cy="450" r="2"></circle></g></g><g class="key-Singapore_0"><path stroke="#2a939b" stroke-linecap="round" d="M47 501L670 365" fill="none" stroke-width="1.5"></path><g fill="#2a939b"><circle cx="47" cy="501" r="2"></circle><circle cx="670" cy="365" r="2"></circle></g></g><g class="key-Sri-Lanka_0"><path stroke="#3360a9" stroke-linecap="round" d="M47 524L670 529" fill="none" stroke-width="1.5"></path><g fill="#3360a9"><circle cx="47" cy="524" r="2"></circle><circle cx="670" cy="529" r="2"></circle></g></g><g class="key-Sweden_0"><path stroke="#5eb77e" stroke-linecap="round" d="M47 249L670 185" fill="none" stroke-width="1.5"></path><g fill="#5eb77e"><circle cx="47" cy="249" r="2"></circle><circle cx="670" cy="185" r="2"></circle></g></g><g class="key-Taiwan_0"><path stroke="#34983f" stroke-linecap="round" d="M47 520L670 468" fill="none" stroke-width="1.5"></path><g fill="#34983f"><circle cx="47" cy="520" r="2"></circle><circle cx="670" cy="468" r="2"></circle></g></g><g class="key-United-Kingdom_0"><path stroke="#e6332e" stroke-linecap="round" d="M47 404L670 315" fill="none" stroke-width="1.5"></path><g fill="#e6332e"><circle cx="47" cy="404" r="2"></circle><circle cx="670" cy="315" r="2"></circle></g></g><g class="key-United-States_0"><path stroke="#b077b1" stroke-linecap="round" d="M47 285L670 285" fill="none" stroke-width="1.5"></path><g fill="#b077b1"><circle cx="47" cy="285" r="2"></circle><circle cx="670" cy="285" r="2"></circle></g></g></g></g></g><g class="SourcesFooter" style="fill:#777"><g class="clickable" style="fill:#777"><text font-size="12.60" x="15.0" y="581.6"><tspan x="15" y="581.58">Source: US Bureau of Labor Statistics (2015)</tspan></text></g><text font-size="12.60" x="568.6" y="581.6"><tspan x="568.636" y="581.58"><a target='_blank' style='fill: #777;' href='https://core-econ.org'>core-econ.org</a> • <a href="https://ourworldindata.org" target="_blank">Powered by ourworldindata.org</a></tspan></text></g></svg>