<svg xmlns="http://www.w3.org/2000/svg" version="1.1" style="font-family: 'Helvetica Neue', Helvetica, Arial, sans-serif; font-size: 18px; background-color: white; text-rendering: optimizeLegibility; -webkit-font-smoothing: antialiased;" width="850" height="600"><g class="ChartTab"><g class="HeaderView"><g opacity="0.8" transform="translate(778, 15) scale(0.27)"><a xmlns:xlink="http://www.w3.org/1999/xlink" xlink:href="https://ourworldindata.org" target="_blank"><g><rect x="0" y="0" fill="#1B2543" width="211.2" height="130.1"/><rect x="0" y="112.2" fill="#E63912" width="211.2" height="17.9"/><g><rect x="1.2" y="12.3" fill="none" width="210.2" height="99.2"/><path fill="#FFFFFF" d="M37.8,32.2c0,12.7-7.7,19.4-17.1,19.4c-9.7,0-16.6-7.5-16.6-18.7c0-11.7,7.3-19.3,17.1-19.3 C31.3,13.7,37.8,21.3,37.8,32.2z M9.2,32.8c0,7.9,4.3,14.9,11.8,14.9c7.5,0,11.8-6.9,11.8-15.3c0-7.3-3.8-14.9-11.8-14.9 C13.1,17.5,9.2,24.8,9.2,32.8z"/><path fill="#FFFFFF" d="M62.7,43.8c0,2.7,0.1,5.1,0.2,7.2h-4.3l-0.3-4.3h-0.1c-1.3,2.1-4,4.9-8.8,4.9c-4.2,0-9.1-2.3-9.1-11.6 V24.6h4.8v14.6c0,5,1.5,8.4,5.9,8.4c3.2,0,5.5-2.2,6.3-4.4c0.3-0.7,0.4-1.6,0.4-2.5V24.6h4.8V43.8z"/><path fill="#FFFFFF" d="M67.3,32.8c0-3.1-0.1-5.8-0.2-8.2h4.2l0.2,5.2h0.2c1.2-3.5,4.1-5.8,7.3-5.8c0.5,0,0.9,0.1,1.4,0.2v4.5 c-0.5-0.1-1-0.2-1.6-0.2c-3.4,0-5.8,2.6-6.5,6.2c-0.1,0.7-0.2,1.4-0.2,2.2V51h-4.8V32.8z"/><path fill="#FFFFFF" d="M95.4,51l-9.4-36.8h5l4.4,18.6c1.1,4.6,2.1,9.2,2.7,12.7h0.1c0.6-3.7,1.8-8,3-12.8l4.9-18.5h5l4.5,18.7 c1,4.4,2,8.7,2.6,12.6h0.1c0.8-4,1.8-8.1,3-12.7l4.9-18.5h4.9L120.6,51h-5L111,31.9c-1.1-4.7-1.9-8.3-2.4-12h-0.1 c-0.7,3.7-1.5,7.3-2.8,12L100.4,51H95.4z"/><path fill="#FFFFFF" d="M154.9,37.6c0,9.8-6.8,14-13.2,14c-7.2,0-12.7-5.2-12.7-13.6c0-8.8,5.8-14,13.1-14 C149.8,24,154.9,29.5,154.9,37.6z M133.9,37.9c0,5.8,3.3,10.1,8,10.1c4.6,0,8-4.3,8-10.3c0-4.5-2.2-10.1-7.9-10.1 C136.3,27.6,133.9,32.8,133.9,37.9z"/><path fill="#FFFFFF" d="M158.2,32.8c0-3.1-0.1-5.8-0.2-8.2h4.2l0.2,5.2h0.2c1.2-3.5,4.1-5.8,7.3-5.8c0.5,0,0.9,0.1,1.4,0.2v4.5 c-0.5-0.1-1-0.2-1.6-0.2c-3.4,0-5.8,2.6-6.5,6.2c-0.1,0.7-0.2,1.4-0.2,2.2V51h-4.8V32.8z"/><path fill="#FFFFFF" d="M173.5,12.3h4.8V51h-4.8V12.3z"/><path fill="#FFFFFF" d="M206.5,12.3v31.9c0,2.3,0.1,5,0.2,6.8h-4.3l-0.2-4.6H202c-1.5,2.9-4.7,5.2-9,5.2 c-6.4,0-11.3-5.4-11.3-13.4c-0.1-8.8,5.4-14.2,11.9-14.2c4,0,6.8,1.9,8,4h0.1V12.3H206.5z M201.7,35.4c0-0.6-0.1-1.4-0.2-2 c-0.7-3.1-3.3-5.6-6.9-5.6c-5,0-7.9,4.4-7.9,10.2c0,5.3,2.6,9.8,7.8,9.8c3.2,0,6.2-2.1,7.1-5.7c0.2-0.7,0.2-1.3,0.2-2.1V35.4z"/><path fill="#FFFFFF" d="M42.8,64c0.1,1.6-1.1,2.9-3.1,2.9c-1.7,0-2.9-1.3-2.9-2.9c0-1.7,1.3-3,3-3C41.7,61,42.8,62.3,42.8,64z M37.4,97.8V71.4h4.8v26.4H37.4z"/><path fill="#FFFFFF" d="M47.5,78.6c0-2.7-0.1-5-0.2-7.1h4.3l0.3,4.4h0.1c1.3-2.5,4.4-5,8.8-5c3.7,0,9.4,2.2,9.4,11.2v15.8h-4.8 V82.6c0-4.3-1.6-7.8-6.1-7.8c-3.2,0-5.6,2.2-6.5,4.9c-0.2,0.6-0.3,1.4-0.3,2.2v15.9h-4.8V78.6z"/><path fill="#FFFFFF" d="M84,61.6c2.9-0.4,6.3-0.8,10.1-0.8c6.8,0,11.7,1.6,14.9,4.6c3.3,3,5.2,7.3,5.2,13.2c0,6-1.9,10.9-5.3,14.3 c-3.4,3.4-9.1,5.3-16.3,5.3c-3.4,0-6.2-0.2-8.6-0.4V61.6z M88.8,94.1c1.2,0.2,3,0.3,4.8,0.3c10.2,0,15.7-5.7,15.7-15.6 c0.1-8.7-4.9-14.2-14.9-14.2c-2.5,0-4.3,0.2-5.6,0.5V94.1z"/><path fill="#FFFFFF" d="M132.1,97.8l-0.4-3.3h-0.2c-1.5,2.1-4.3,3.9-8.1,3.9c-5.4,0-8.1-3.8-8.1-7.6c0-6.4,5.7-9.9,15.9-9.8v-0.5 c0-2.2-0.6-6.1-6-6.1c-2.5,0-5,0.8-6.9,2l-1.1-3.2c2.2-1.4,5.4-2.3,8.7-2.3c8.1,0,10.1,5.5,10.1,10.8v9.9c0,2.3,0.1,4.5,0.4,6.3 H132.1z M131.4,84.4c-5.3-0.1-11.2,0.8-11.2,5.9c0,3.1,2.1,4.6,4.5,4.6c3.4,0,5.6-2.2,6.4-4.4c0.2-0.5,0.3-1,0.3-1.5V84.4z"/><path fill="#FFFFFF" d="M146.6,63.9v7.6h6.9v3.7h-6.9v14.2c0,3.3,0.9,5.1,3.6,5.1c1.3,0,2.2-0.2,2.8-0.3l0.2,3.6 c-0.9,0.4-2.4,0.7-4.3,0.7c-2.2,0-4-0.7-5.2-2c-1.4-1.4-1.9-3.8-1.9-6.9V75.1h-4.1v-3.7h4.1v-6.3L146.6,63.9z"/><path fill="#FFFFFF" d="M171.4,97.8l-0.4-3.3h-0.2c-1.5,2.1-4.3,3.9-8.1,3.9c-5.4,0-8.1-3.8-8.1-7.6c0-6.4,5.7-9.9,15.9-9.8v-0.5 c0-2.2-0.6-6.1-6-6.1c-2.5,0-5,0.8-6.9,2l-1.1-3.2c2.2-1.4,5.4-2.3,8.7-2.3c8.1,0,10.1,5.5,10.1,10.8v9.9c0,2.3,0.1,4.5,0.4,6.3 H171.4z M170.7,84.4c-5.3-0.1-11.2,0.8-11.2,5.9c0,3.1,2.1,4.6,4.5,4.6c3.4,0,5.6-2.2,6.4-4.4c0.2-0.5,0.3-1,0.3-1.5V84.4z"/></g></g></a></g><a href="https://ourworldindata.org/grapher/median-monthly-per-capita-expenditure-around-1985-versus-median-monthly-per-capita-expenditure-around-2010" target="_blank"><text font-size="21.60" x="15.0" y="32.3" fill="#555"><tspan x="15" y="32.279999999999994">Median monthly per capita expenditure around 1985 versus Median monthly</tspan><tspan x="15" y="53.87999999999999">per capita expenditure around 2010, 2014</tspan></text></a><text font-size="14.40" x="15.0" y="72.7" fill="#666"><tspan x="15" y="72.72">Countries for which the per capita consumption expenditure is not available income is shown instead. All measures are adjusted</tspan><tspan x="15" y="88.56">for price differences over time (expressed in 2011 prices) and are adjusted for price differences between countries (expressed in</tspan><tspan x="15" y="104.4">international dollars). Since the data is not available annually it has to be shown in a range around the two years (the exact year</tspan><tspan x="15" y="120.24000000000001">is visible on hover).</tspan></text></g><g><g class="AxisBoxView"><g class="HorizontalAxis"><text font-size="12.60" x="146.3" y="554.0"><tspan x="146.264" y="553.98">Median monthly per capita expenditure in 2011 int-$ (PovcalNet 2017) in 1985</tspan></text><text x="317.1" y="533.9" fill="#666" text-anchor="middle" font-size="16.2">$100</text><text x="675.5" y="533.9" fill="#666" text-anchor="middle" font-size="16.2">$1,000</text></g><g class="VerticalAxis"><text font-size="12.60" x="-527.5" y="25.1" transform="rotate(-90)"><tspan x="-527.5269999999999" y="25.080000000000002">Median monthly per capita expenditure in 2011 int-$ (PovcalNet</tspan><tspan x="-527.5269999999999" y="38.940000000000005">2017)</tspan></text><text x="101.20" y="433.8" fill="#666" dominant-baseline="middle" text-anchor="end" font-size="16.2">$100</text><text x="101.20" y="183.6" fill="#666" dominant-baseline="middle" text-anchor="end" font-size="16.2">$1,000</text></g><g class="AxisGridLines"><line x1="92.50" y1="433.8" x2="715.00" y2="433.8" stroke="#ddd" stroke-dasharray="3,2"></line><line x1="92.50" y1="183.6" x2="715.00" y2="183.6" stroke="#ddd" stroke-dasharray="3,2"></line></g><g class="AxisGridLines"><line x1="317.1" y1="512.70" x2="317.1" y2="142.10" stroke="#ddd" stroke-dasharray="3,2"></line><line x1="675.5" y1="512.70" x2="675.5" y2="142.10" stroke="#ddd" stroke-dasharray="3,2"></line></g></g><g class="ComparisonLine"><defs><clipPath id="axisBounds-1233"><rect x="92.49600000000001" y="142.1" width="622.504" height="370.59999999999997"></rect></clipPath></defs><path d="M92.5,590.6L159.3,544L205.8,511.5L241.6,486.5L270.7,466.2L295.2,449.1L316.4,434.3L335,421.3L351.6,409.7L366.7,399.2L380.4,389.7L393,380.9L404.6,372.7L415.4,365.2L425.6,358.1L435.1,351.5L444,345.2L452.5,339.3L460.6,333.7L468.2,328.3L475.5,323.2L482.5,318.4L489.1,313.7L495.5,309.3L501.6,305L507.5,300.9L513.2,296.9L518.7,293.1L524,289.4L529.2,285.8L534.1,282.3L538.9,279L543.6,275.7L548.1,272.5L552.5,269.5L556.8,266.5L561,263.6L565,260.7L569,258L572.8,255.3L576.6,252.7L580.3,250.1L583.9,247.6L587.4,245.1L590.8,242.7L594.2,240.4L597.4,238.1L600.7,235.9L603.8,233.7L606.9,231.5L609.9,229.4L612.9,227.3L615.8,225.3L618.7,223.3L621.5,221.3L624.3,219.4L627,217.5L629.6,215.6L632.3,213.8L634.8,212L637.4,210.2L639.9,208.5L642.3,206.8L644.7,205.1L647.1,203.4L649.5,201.8L651.8,200.2L654.1,198.6L656.3,197L658.5,195.5L660.7,194L662.9,192.5L665,191L667.1,189.5L669.1,188.1L671.2,186.6L673.2,185.2L675.2,183.9L677.1,182.5L679.1,181.1L681,179.8L682.9,178.5L684.7,177.2L686.6,175.9L688.4,174.6L690.2,173.4L692,172.1L693.7,170.9L695.5,169.7L697.2,168.5L698.9,167.3L700.6,166.1L702.3,164.9L703.9,163.8L705.6,162.6L707.2,161.5L708.8,160.4L710.3,159.3L711.9,158.2L713.5,157.1" clip-path="url(#axisBounds-1233)" fill="none" stroke="#ccc"></path></g><g clip-path="url(#scatterBounds-1234)" font-family="Arial Narrow, Arial, sans-serif" class="PointsWithLabels clickable"><rect x="92.49600000000001" y="142.1" width="622.504" height="370.59999999999997" fill="rgba(255,255,255,0)"></rect><defs><clipPath id="scatterBounds-1234"><rect x="82.49600000000001" y="132.1" width="642.504" height="390.59999999999997"></rect></clipPath></defs><g class="key-United-States_0"><circle cx="715.00" cy="142.00" r="17.84" fill="#4d824b" opacity="0.8" stroke="#333" stroke-width="0.7"></circle></g><g class="key-Brazil_0"><circle cx="337.00" cy="295.00" r="14.17" fill="#69c487" opacity="0.8" stroke="#333" stroke-width="0.7"></circle></g><g class="key-Pakistan_0"><circle cx="207.00" cy="423.00" r="13.56" fill="#d14e5b" opacity="0.8" stroke="#333" stroke-width="0.7"></circle></g><g class="key-Russia_0"><circle cx="389.00" cy="246.00" r="11.98" fill="#ffd336" opacity="0.8" stroke="#333" stroke-width="0.7"></circle></g><g class="key-Mexico_0"><circle cx="420.00" cy="350.00" r="10.90" fill="#4d824b" opacity="0.8" stroke="#333" stroke-width="0.7"></circle></g><g class="key-Philippines_0"><circle cx="292.00" cy="414.00" r="9.97" fill="#d14e5b" opacity="0.8" stroke="#333" stroke-width="0.7"></circle></g><g class="key-Iran_0"><circle cx="415.00" cy="285.00" r="8.83" fill="#d14e5b" opacity="0.8" stroke="#333" stroke-width="0.7"></circle></g><g class="key-Turkey_0"><circle cx="437.00" cy="285.00" r="8.77" fill="#d14e5b" opacity="0.8" stroke="#333" stroke-width="0.7"></circle></g><g class="key-Thailand_0"><circle cx="341.00" cy="302.00" r="8.48" fill="#d14e5b" opacity="0.8" stroke="#333" stroke-width="0.7"></circle></g><g class="key-Ukraine_0"><circle cx="406.00" cy="299.00" r="6.82" fill="#ffd336" opacity="0.8" stroke="#333" stroke-width="0.7"></circle></g><g class="key-Poland_0"><circle cx="534.00" cy="276.00" r="6.34" fill="#ffd336" opacity="0.8" stroke="#333" stroke-width="0.7"></circle></g><g class="key-Uganda_0"><circle cx="92.00" cy="467.00" r="6.21" fill="#5675c1" opacity="0.8" stroke="#333" stroke-width="0.7"></circle></g><g class="key-Peru_0"><circle cx="348.00" cy="311.00" r="5.65" fill="#69c487" opacity="0.8" stroke="#333" stroke-width="0.7"></circle></g><g class="key-Sri-Lanka_0"><circle cx="322.00" cy="379.00" r="4.83" fill="#d14e5b" opacity="0.8" stroke="#333" stroke-width="0.7"></circle></g><g class="key-Romania_0"><circle cx="532.00" cy="339.00" r="4.82" fill="#ffd336" opacity="0.8" stroke="#333" stroke-width="0.7"></circle></g><g class="key-Chile_0"><circle cx="410.00" cy="275.00" r="4.42" fill="#69c487" opacity="0.8" stroke="#fff" stroke-width="0.7"></circle></g><g class="key-Kazakhstan_0"><circle cx="536.00" cy="308.00" r="4.30" fill="#d14e5b" opacity="0.8" stroke="#333" stroke-width="0.7"></circle></g><g class="key-Guatemala_0"><circle cx="228.00" cy="377.00" r="4.18" fill="#4d824b" opacity="0.8" stroke="#333" stroke-width="0.7"></circle></g><g class="key-Ecuador_0"><circle cx="344.00" cy="334.00" r="4.13" fill="#69c487" opacity="0.8" stroke="#333" stroke-width="0.7"></circle></g><g class="key-Rwanda_0"><circle cx="208.00" cy="512.00" r="3.69" fill="#5675c1" opacity="0.8" stroke="#333" stroke-width="0.7"></circle></g><g class="key-Czech-Republic_0"><circle cx="581.00" cy="220.00" r="3.55" fill="#ffd336" opacity="0.8" stroke="#333" stroke-width="0.7"></circle></g><g class="key-Dominican-Republic_0"><circle cx="272.00" cy="335.00" r="3.51" fill="#4d824b" opacity="0.8" stroke="#fff" stroke-width="0.7"></circle></g><g class="key-Hungary_0"><circle cx="591.00" cy="258.00" r="3.46" fill="#ffd336" opacity="0.8" stroke="#333" stroke-width="0.7"></circle></g><g class="key-Belarus_0"><circle cx="483.00" cy="245.00" r="3.39" fill="#ffd336" opacity="0.8" stroke="#333" stroke-width="0.7"></circle></g><g class="key-Honduras_0"><circle cx="279.00" cy="388.00" r="3.18" fill="#4d824b" opacity="0.8" stroke="#fff" stroke-width="0.7"></circle></g><g class="key-Bulgaria_0"><circle cx="608.00" cy="284.00" r="3.06" fill="#ffd336" opacity="0.8" stroke="#333" stroke-width="0.7"></circle></g><g class="key-Paraguay_0"><circle cx="491.00" cy="297.00" r="2.97" fill="#69c487" opacity="0.8" stroke="#fff" stroke-width="0.7"></circle></g><g class="key-Kyrgyzstan_0"><circle cx="325.00" cy="399.00" r="2.75" fill="#d14e5b" opacity="0.8" stroke="#fff" stroke-width="0.7"></circle></g><g class="key-Slovakia_0"><circle cx="584.00" cy="208.00" r="2.74" fill="#ffd336" opacity="0.8" stroke="#333" stroke-width="0.7"></circle></g><g class="key-Costa-Rica_0"><circle cx="392.00" cy="275.00" r="2.63" fill="#4d824b" opacity="0.8" stroke="#fff" stroke-width="0.7"></circle></g><g class="key-Croatia_0"><circle cx="592.00" cy="270.00" r="2.54" fill="#ffd336" opacity="0.8" stroke="#333" stroke-width="0.7"></circle></g><g class="key-Mauritania_0"><circle cx="264.00" cy="391.00" r="2.40" fill="#5675c1" opacity="0.8" stroke="#333" stroke-width="0.7"></circle></g><g class="key-Panama_0"><circle cx="395.00" cy="282.00" r="2.40" fill="#4d824b" opacity="0.8" stroke="#fff" stroke-width="0.7"></circle></g><g class="key-Moldova_0"><circle cx="537.00" cy="336.00" r="2.36" fill="#ffd336" opacity="0.8" stroke="#fff" stroke-width="0.7"></circle></g><g class="key-Uruguay_0"><circle cx="528.00" cy="243.00" r="2.34" fill="#69c487" opacity="0.8" stroke="#333" stroke-width="0.7"></circle></g><g class="key-Lithuania_0"><circle cx="520.00" cy="260.00" r="2.31" fill="#ffd336" opacity="0.8" stroke="#333" stroke-width="0.7"></circle></g><g class="key-Latvia_0"><circle cx="622.00" cy="270.00" r="2.07" fill="#ffd336" opacity="0.8" stroke="#fff" stroke-width="0.7"></circle></g><g class="key-Slovenia_0"><circle cx="577.00" cy="193.00" r="2.03" fill="#ffd336" opacity="0.8" stroke="#333" stroke-width="0.7"></circle></g><g class="key-Estonia_0"><circle cx="569.00" cy="243.00" r="1.85" fill="#ffd336" opacity="0.8" stroke="#fff" stroke-width="0.7"></circle></g><g class="key-China-__0028Rural__0029_0"><circle cx="158.00" cy="386.00" r="1.44" fill="#000" opacity="0.8" stroke="#333" stroke-width="0.7"></circle></g><g class="key-China-__0028Urban__0029_0"><circle cx="240.00" cy="315.00" r="1.44" fill="#000" opacity="0.8" stroke="#333" stroke-width="0.7"></circle></g><g class="key-India-__0028Rural__0029_0"><circle cx="213.00" cy="461.00" r="1.44" fill="#000" opacity="0.8" stroke="#333" stroke-width="0.7"></circle></g><g class="key-India-__0028Urban__0029_0"><circle cx="265.00" cy="426.00" r="1.44" fill="#000" opacity="0.8" stroke="#333" stroke-width="0.7"></circle></g><g class="key-Indonesia-__0028Rural__0029_0"><circle cx="173.00" cy="425.00" r="1.44" fill="#000" opacity="0.8" stroke="#333" stroke-width="0.7"></circle></g><g class="key-Indonesia-__0028Urban__0029_0"><circle cx="237.00" cy="404.00" r="1.44" fill="#000" opacity="0.8" stroke="#fff" stroke-width="0.7"></circle></g><g class="key-Argentina-__0028Urban__0029_0"><circle cx="583.00" cy="273.00" r="1.44" fill="#000" opacity="0.8" stroke="#fff" stroke-width="0.7"></circle></g><g fill="#333" class="backgroundLabels"><text x="628.77" y="156.40" font-size="14.30">United States</text><text x="337.00" y="279.83" font-size="13.07">Brazil</text><text x="207.00" y="408.44" font-size="12.89">Pakistan</text><text x="389.00" y="233.02" font-size="12.47">Russia</text><text x="420.00" y="338.10" font-size="12.21">Mexico</text><text x="292.00" y="403.03" font-size="12.01">Philippines</text><text x="415.00" y="275.17" font-size="11.78">Iran</text><text x="437.00" y="275.23" font-size="11.77">Turkey</text><text x="341.00" y="292.52" font-size="11.72">Thailand</text><text x="406.00" y="291.18" font-size="11.45">Ukraine</text><text x="534.00" y="268.66" font-size="11.39">Poland</text><text x="92.00" y="459.79" font-size="11.37">Uganda</text><text x="348.00" y="304.35" font-size="11.30">Peru</text><text x="322.00" y="373.17" font-size="11.21">Sri Lanka</text><text x="532.00" y="333.18" font-size="11.21">Romania</text><text x="536.00" y="302.70" font-size="11.16">Kazakhstan</text><text x="228.00" y="371.82" font-size="11.15">Guatemala</text><text x="344.00" y="328.87" font-size="11.15">Ecuador</text><text x="208.00" y="507.31" font-size="11.11">Rwanda</text><text x="581.00" y="215.45" font-size="11.10">Czech Republic</text><text x="591.00" y="253.54" font-size="11.09">Hungary</text><text x="483.00" y="240.61" font-size="11.09">Belarus</text><text x="608.00" y="279.94" font-size="11.06">Bulgaria</text><text x="584.00" y="204.26" font-size="11.05">Slovakia</text><text x="592.00" y="266.46" font-size="11.03">Croatia</text><text x="264.00" y="387.60" font-size="11.03">Mauritania</text><text x="528.00" y="239.66" font-size="11.02">Uruguay</text><text x="520.00" y="256.69" font-size="11.02">Lithuania</text><text x="577.00" y="189.97" font-size="11.01">Slovenia</text><text x="158.00" y="383.56" font-size="10.99">China (Rural)</text><text x="240.00" y="312.56" font-size="10.99">China (Urban)</text><text x="213.00" y="458.56" font-size="10.99">India (Rural)</text><text x="265.00" y="423.56" font-size="10.99">India (Urban)</text><text x="173.00" y="422.56" font-size="10.99">Indonesia (Rural)</text></g></g><g style="cursor: pointer;" class="ScatterColorLegend clickable"><g class="legendMark"><rect x="735" y="139.6" width="43.256" height="17.6" fill="#fff" opacity="0"></rect>,<rect x="735" y="145.1" width="6" height="6" fill="#5675c1"></rect>,<text font-size="12.60" x="746.0" y="152.2"><tspan x="746" y="152.17999999999998">Africa</tspan></text></g><g class="legendMark"><rect x="735" y="157.2" width="35.57" height="17.6" fill="#fff" opacity="0"></rect>,<rect x="735" y="162.7" width="6" height="6" fill="#d14e5b"></rect>,<text font-size="12.60" x="746.0" y="169.8"><tspan x="746" y="169.77999999999997">Asia</tspan></text></g><g class="legendMark"><rect x="735" y="174.8" width="51.824" height="17.6" fill="#fff" opacity="0"></rect>,<rect x="735" y="180.3" width="6" height="6" fill="#ffd336"></rect>,<text font-size="12.60" x="746.0" y="187.4"><tspan x="746" y="187.38">Europe</tspan></text></g><g class="legendMark"><rect x="735" y="192.4" width="91.64" height="17.6" fill="#fff" opacity="0"></rect>,<rect x="735" y="197.9" width="6" height="6" fill="#4d824b"></rect>,<text font-size="12.60" x="746.0" y="205.0"><tspan x="746" y="204.98">North America</tspan></text></g><g class="legendMark"><rect x="735" y="210" width="93.908" height="17.6" fill="#fff" opacity="0"></rect>,<rect x="735" y="215.5" width="6" height="6" fill="#69c487"></rect>,<text font-size="12.60" x="746.0" y="222.6"><tspan x="746" y="222.57999999999998">South America</tspan></text></g></g></g><g style="fill: #777;" class="SourcesFooter"><g style="fill: #777;" class="clickable"><text font-size="12.60" x="15.0" y="581.6"><tspan x="15" y="581.58">Source: World Bank</tspan></text></g><text font-size="12.60" x="775.4" y="581.6"><tspan x="775.402" y="581.58"><a style="fill: #777;" class="cclogo" href="http://creativecommons.org/licenses/by-sa/4.0/deed.en_US" target="_blank">CC BY-SA</a></tspan></text></g></g></svg>