<svg xmlns="http://www.w3.org/2000/svg" version="1.1" style="font-family: 'Helvetica Neue', Helvetica, Arial, sans-serif; font-size: 18px; background-color: white; text-rendering: optimizeLegibility; -webkit-font-smoothing: antialiased;" width="850" height="600"><g class="ChartTab"><g class="HeaderView"><g opacity="0.8" transform="translate(778, 15) scale(0.27)"><a xmlns:xlink="http://www.w3.org/1999/xlink" xlink:href="https://ourworldindata.org" target="_blank"><g><rect x="0" y="0" fill="#1B2543" width="211.2" height="130.1"/><rect x="0" y="112.2" fill="#E63912" width="211.2" height="17.9"/><g><rect x="1.2" y="12.3" fill="none" width="210.2" height="99.2"/><path fill="#FFFFFF" d="M37.8,32.2c0,12.7-7.7,19.4-17.1,19.4c-9.7,0-16.6-7.5-16.6-18.7c0-11.7,7.3-19.3,17.1-19.3 C31.3,13.7,37.8,21.3,37.8,32.2z M9.2,32.8c0,7.9,4.3,14.9,11.8,14.9c7.5,0,11.8-6.9,11.8-15.3c0-7.3-3.8-14.9-11.8-14.9 C13.1,17.5,9.2,24.8,9.2,32.8z"/><path fill="#FFFFFF" d="M62.7,43.8c0,2.7,0.1,5.1,0.2,7.2h-4.3l-0.3-4.3h-0.1c-1.3,2.1-4,4.9-8.8,4.9c-4.2,0-9.1-2.3-9.1-11.6 V24.6h4.8v14.6c0,5,1.5,8.4,5.9,8.4c3.2,0,5.5-2.2,6.3-4.4c0.3-0.7,0.4-1.6,0.4-2.5V24.6h4.8V43.8z"/><path fill="#FFFFFF" d="M67.3,32.8c0-3.1-0.1-5.8-0.2-8.2h4.2l0.2,5.2h0.2c1.2-3.5,4.1-5.8,7.3-5.8c0.5,0,0.9,0.1,1.4,0.2v4.5 c-0.5-0.1-1-0.2-1.6-0.2c-3.4,0-5.8,2.6-6.5,6.2c-0.1,0.7-0.2,1.4-0.2,2.2V51h-4.8V32.8z"/><path fill="#FFFFFF" d="M95.4,51l-9.4-36.8h5l4.4,18.6c1.1,4.6,2.1,9.2,2.7,12.7h0.1c0.6-3.7,1.8-8,3-12.8l4.9-18.5h5l4.5,18.7 c1,4.4,2,8.7,2.6,12.6h0.1c0.8-4,1.8-8.1,3-12.7l4.9-18.5h4.9L120.6,51h-5L111,31.9c-1.1-4.7-1.9-8.3-2.4-12h-0.1 c-0.7,3.7-1.5,7.3-2.8,12L100.4,51H95.4z"/><path fill="#FFFFFF" d="M154.9,37.6c0,9.8-6.8,14-13.2,14c-7.2,0-12.7-5.2-12.7-13.6c0-8.8,5.8-14,13.1-14 C149.8,24,154.9,29.5,154.9,37.6z M133.9,37.9c0,5.8,3.3,10.1,8,10.1c4.6,0,8-4.3,8-10.3c0-4.5-2.2-10.1-7.9-10.1 C136.3,27.6,133.9,32.8,133.9,37.9z"/><path fill="#FFFFFF" d="M158.2,32.8c0-3.1-0.1-5.8-0.2-8.2h4.2l0.2,5.2h0.2c1.2-3.5,4.1-5.8,7.3-5.8c0.5,0,0.9,0.1,1.4,0.2v4.5 c-0.5-0.1-1-0.2-1.6-0.2c-3.4,0-5.8,2.6-6.5,6.2c-0.1,0.7-0.2,1.4-0.2,2.2V51h-4.8V32.8z"/><path fill="#FFFFFF" d="M173.5,12.3h4.8V51h-4.8V12.3z"/><path fill="#FFFFFF" d="M206.5,12.3v31.9c0,2.3,0.1,5,0.2,6.8h-4.3l-0.2-4.6H202c-1.5,2.9-4.7,5.2-9,5.2 c-6.4,0-11.3-5.4-11.3-13.4c-0.1-8.8,5.4-14.2,11.9-14.2c4,0,6.8,1.9,8,4h0.1V12.3H206.5z M201.7,35.4c0-0.6-0.1-1.4-0.2-2 c-0.7-3.1-3.3-5.6-6.9-5.6c-5,0-7.9,4.4-7.9,10.2c0,5.3,2.6,9.8,7.8,9.8c3.2,0,6.2-2.1,7.1-5.7c0.2-0.7,0.2-1.3,0.2-2.1V35.4z"/><path fill="#FFFFFF" d="M42.8,64c0.1,1.6-1.1,2.9-3.1,2.9c-1.7,0-2.9-1.3-2.9-2.9c0-1.7,1.3-3,3-3C41.7,61,42.8,62.3,42.8,64z M37.4,97.8V71.4h4.8v26.4H37.4z"/><path fill="#FFFFFF" d="M47.5,78.6c0-2.7-0.1-5-0.2-7.1h4.3l0.3,4.4h0.1c1.3-2.5,4.4-5,8.8-5c3.7,0,9.4,2.2,9.4,11.2v15.8h-4.8 V82.6c0-4.3-1.6-7.8-6.1-7.8c-3.2,0-5.6,2.2-6.5,4.9c-0.2,0.6-0.3,1.4-0.3,2.2v15.9h-4.8V78.6z"/><path fill="#FFFFFF" d="M84,61.6c2.9-0.4,6.3-0.8,10.1-0.8c6.8,0,11.7,1.6,14.9,4.6c3.3,3,5.2,7.3,5.2,13.2c0,6-1.9,10.9-5.3,14.3 c-3.4,3.4-9.1,5.3-16.3,5.3c-3.4,0-6.2-0.2-8.6-0.4V61.6z M88.8,94.1c1.2,0.2,3,0.3,4.8,0.3c10.2,0,15.7-5.7,15.7-15.6 c0.1-8.7-4.9-14.2-14.9-14.2c-2.5,0-4.3,0.2-5.6,0.5V94.1z"/><path fill="#FFFFFF" d="M132.1,97.8l-0.4-3.3h-0.2c-1.5,2.1-4.3,3.9-8.1,3.9c-5.4,0-8.1-3.8-8.1-7.6c0-6.4,5.7-9.9,15.9-9.8v-0.5 c0-2.2-0.6-6.1-6-6.1c-2.5,0-5,0.8-6.9,2l-1.1-3.2c2.2-1.4,5.4-2.3,8.7-2.3c8.1,0,10.1,5.5,10.1,10.8v9.9c0,2.3,0.1,4.5,0.4,6.3 H132.1z M131.4,84.4c-5.3-0.1-11.2,0.8-11.2,5.9c0,3.1,2.1,4.6,4.5,4.6c3.4,0,5.6-2.2,6.4-4.4c0.2-0.5,0.3-1,0.3-1.5V84.4z"/><path fill="#FFFFFF" d="M146.6,63.9v7.6h6.9v3.7h-6.9v14.2c0,3.3,0.9,5.1,3.6,5.1c1.3,0,2.2-0.2,2.8-0.3l0.2,3.6 c-0.9,0.4-2.4,0.7-4.3,0.7c-2.2,0-4-0.7-5.2-2c-1.4-1.4-1.9-3.8-1.9-6.9V75.1h-4.1v-3.7h4.1v-6.3L146.6,63.9z"/><path fill="#FFFFFF" d="M171.4,97.8l-0.4-3.3h-0.2c-1.5,2.1-4.3,3.9-8.1,3.9c-5.4,0-8.1-3.8-8.1-7.6c0-6.4,5.7-9.9,15.9-9.8v-0.5 c0-2.2-0.6-6.1-6-6.1c-2.5,0-5,0.8-6.9,2l-1.1-3.2c2.2-1.4,5.4-2.3,8.7-2.3c8.1,0,10.1,5.5,10.1,10.8v9.9c0,2.3,0.1,4.5,0.4,6.3 H171.4z M170.7,84.4c-5.3-0.1-11.2,0.8-11.2,5.9c0,3.1,2.1,4.6,4.5,4.6c3.4,0,5.6-2.2,6.4-4.4c0.2-0.5,0.3-1,0.3-1.5V84.4z"/></g></g></a></g><a href="https://ourworldindata.org/grapher/number-of-under-five-deaths" target="_blank"><text font-size="25.20" x="15.0" y="35.2" fill="#555"><tspan x="15" y="35.160000000000004">Number of under-five deaths</tspan></text></a><text font-size="14.40" x="15.0" y="53.7" fill="#666"><tspan x="15" y="53.72">Number of children dying before reaching age five.</tspan></text></g><g class="LineChart"><defs><clipPath id="boundsClip-615"><rect x="78.526" y="0" width="830" height="959.8"></rect></clipPath></defs><g class="AxisBoxView"><g class="HorizontalAxis"><text x="88.5" y="556.5" fill="#666" text-anchor="middle" font-size="16.2">1960</text><text x="202.4" y="556.5" fill="#666" text-anchor="middle" font-size="16.2">1970</text><text x="316.3" y="556.5" fill="#666" text-anchor="middle" font-size="16.2">1980</text><text x="430.2" y="556.5" fill="#666" text-anchor="middle" font-size="16.2">1990</text><text x="544" y="556.5" fill="#666" text-anchor="middle" font-size="16.2">2000</text><text x="657.9" y="556.5" fill="#666" text-anchor="middle" font-size="16.2">2010</text><text x="737.6" y="556.5" fill="#666" text-anchor="middle" font-size="16.2">2017</text></g><g class="VerticalAxis"><text x="83.53" y="535.3" fill="#666" dominant-baseline="middle" text-anchor="end" font-size="16.2">0</text><text x="83.53" y="420.1" fill="#666" dominant-baseline="middle" text-anchor="end" font-size="16.2">5 million</text><text x="83.53" y="304.9" fill="#666" dominant-baseline="middle" text-anchor="end" font-size="16.2">10 million</text><text x="83.53" y="189.7" fill="#666" dominant-baseline="middle" text-anchor="end" font-size="16.2">15 million</text></g><g class="AxisGridLines"><line x1="88.53" y1="535.3" x2="737.63" y2="535.3" stroke="#ccc"></line><line x1="88.53" y1="420.1" x2="737.63" y2="420.1" stroke="#ddd" stroke-dasharray="3,2"></line><line x1="88.53" y1="304.9" x2="737.63" y2="304.9" stroke="#ddd" stroke-dasharray="3,2"></line><line x1="88.53" y1="189.7" x2="737.63" y2="189.7" stroke="#ddd" stroke-dasharray="3,2"></line></g></g><g clip-path="url(#boundsClip-615)"><g class="HeightedLegend clickable"><g class="legendMark"><g class="indicator"><line x1="742.63" y1="535.3" x2="765.13" y2="535.3" stroke="#666" stroke-width="0.5"></line><line x1="765.13" y1="535.3" x2="765.13" y2="528.55" stroke="#666" stroke-width="0.5"></line><line x1="765.13" y1="528.55" x2="767.63" y2="528.55" stroke="#666" stroke-width="0.5"></line></g><rect x="737.63" y="521.8" width="94.535" height="13.5" fill="#fff" opacity="0"></rect><text font-size="13.50" x="772.6" y="532.6" fill="#3360a9"><tspan x="772.63" y="532.5999999999999">Botswana</tspan></text></g><g class="legendMark"><g class="indicator"><line x1="742.63" y1="534.9" x2="761.7966666666666" y2="534.9" stroke="#666" stroke-width="0.5"></line><line x1="761.7966666666666" y1="534.9" x2="761.7966666666666" y2="513.05" stroke="#666" stroke-width="0.5"></line><line x1="761.7966666666666" y1="513.05" x2="767.63" y2="513.05" stroke="#666" stroke-width="0.5"></line></g><rect x="737.63" y="506.29999999999995" width="62" height="13.5" fill="#fff" opacity="0"></rect><text font-size="13.50" x="772.6" y="517.1" fill="#ca2628"><tspan x="772.63" y="517.0999999999999">Haiti</tspan></text></g><g class="legendMark"><g class="indicator"><line x1="742.63" y1="534.7" x2="758.4633333333334" y2="534.7" stroke="#666" stroke-width="0.5"></line><line x1="758.4633333333334" y1="534.7" x2="758.4633333333334" y2="497.54999999999995" stroke="#666" stroke-width="0.5"></line><line x1="758.4633333333334" y1="497.54999999999995" x2="767.63" y2="497.54999999999995" stroke="#666" stroke-width="0.5"></line></g><rect x="737.63" y="490.79999999999995" width="97.37" height="13.5" fill="#fff" opacity="0"></rect><text font-size="13.50" x="772.6" y="501.6" fill="#34983f"><tspan x="772.63" y="501.59999999999997">Zimbabwe</tspan></text></g><g class="legendMark"><g class="indicator"><line x1="742.63" y1="534.3" x2="755.13" y2="534.3" stroke="#666" stroke-width="0.5"></line><line x1="755.13" y1="534.3" x2="755.13" y2="482.04999999999995" stroke="#666" stroke-width="0.5"></line><line x1="755.13" y1="482.04999999999995" x2="767.63" y2="482.04999999999995" stroke="#666" stroke-width="0.5"></line></g><rect x="737.63" y="475.29999999999995" width="68.75" height="13.5" fill="#fff" opacity="0"></rect><text font-size="13.50" x="772.6" y="486.1" fill="#f6a324"><tspan x="772.63" y="486.09999999999997">Brazil</tspan></text></g><g class="legendMark"><g class="indicator"><line x1="742.63" y1="531.7" x2="751.7966666666666" y2="531.7" stroke="#666" stroke-width="0.5"></line><line x1="751.7966666666666" y1="531.7" x2="751.7966666666666" y2="466.54999999999995" stroke="#666" stroke-width="0.5"></line><line x1="751.7966666666666" y1="466.54999999999995" x2="767.63" y2="466.54999999999995" stroke="#666" stroke-width="0.5"></line></g><rect x="737.63" y="459.79999999999995" width="70.37" height="13.5" fill="#fff" opacity="0"></rect><text font-size="13.50" x="772.6" y="470.6" fill="#a652ba"><tspan x="772.63" y="470.59999999999997">China</tspan></text></g><g class="legendMark"><g class="indicator"><line x1="742.63" y1="512.5" x2="748.4633333333334" y2="512.5" stroke="#666" stroke-width="0.5"></line><line x1="748.4633333333334" y1="512.5" x2="748.4633333333334" y2="451.04999999999995" stroke="#666" stroke-width="0.5"></line><line x1="748.4633333333334" y1="451.04999999999995" x2="767.63" y2="451.04999999999995" stroke="#666" stroke-width="0.5"></line></g><rect x="737.63" y="444.29999999999995" width="64.43" height="13.5" fill="#fff" opacity="0"></rect><text font-size="13.50" x="772.6" y="455.1" fill="#2a939b"><tspan x="772.63" y="455.09999999999997">India</tspan></text></g><g class="legendMark"><g class="indicator"><line x1="742.63" y1="410.5" x2="755.13" y2="410.5" stroke="#666" stroke-width="0.5"></line><line x1="755.13" y1="410.5" x2="755.13" y2="410.5" stroke="#666" stroke-width="0.5"></line><line x1="755.13" y1="410.5" x2="767.63" y2="410.5" stroke="#666" stroke-width="0.5"></line></g><rect x="737.63" y="403.75" width="70.235" height="13.5" fill="#fff" opacity="0"></rect><text font-size="13.50" x="772.6" y="414.6" fill="#e6332e"><tspan x="772.63" y="414.55">World</tspan></text></g></g><g class="Lines"><rect x="89" y="77" width="649" height="459" fill="rgba(255,255,255,0)" opacity="0"></rect><g class="key-World_0"><path stroke="#e6332e" stroke-linecap="round" d="M89 119L100 117L111 113L123 106L134 88L146 82L157 77L168 77L180 88L191 126L202 138L214 146L225 153L237 161L248 169L259 177L271 186L282 195L294 203L305 210L316 214L328 219L339 222L350 223L362 225L373 227L385 229L396 230L407 233L419 237L430 245L442 251L453 257L464 263L476 269L487 276L499 283L510 289L521 295L533 302L544 309L555 316L567 323L578 330L590 336L601 344L612 350L624 357L635 362L647 369L658 374L669 381L681 387L692 392L704 397L715 402L726 406L738 411" fill="none" stroke-width="1.5"></path><g fill="#e6332e"><circle cx="89" cy="119" r="2"></circle><circle cx="100" cy="117" r="2"></circle><circle cx="111" cy="113" r="2"></circle><circle cx="123" cy="106" r="2"></circle><circle cx="134" cy="88" r="2"></circle><circle cx="146" cy="82" r="2"></circle><circle cx="157" cy="77" r="2"></circle><circle cx="168" cy="77" r="2"></circle><circle cx="180" cy="88" r="2"></circle><circle cx="191" cy="126" r="2"></circle><circle cx="202" cy="138" r="2"></circle><circle cx="214" cy="146" r="2"></circle><circle cx="225" cy="153" r="2"></circle><circle cx="237" cy="161" r="2"></circle><circle cx="248" cy="169" r="2"></circle><circle cx="259" cy="177" r="2"></circle><circle cx="271" cy="186" r="2"></circle><circle cx="282" cy="195" r="2"></circle><circle cx="294" cy="203" r="2"></circle><circle cx="305" cy="210" r="2"></circle><circle cx="316" cy="214" r="2"></circle><circle cx="328" cy="219" r="2"></circle><circle cx="339" cy="222" r="2"></circle><circle cx="350" cy="223" r="2"></circle><circle cx="362" cy="225" r="2"></circle><circle cx="373" cy="227" r="2"></circle><circle cx="385" cy="229" r="2"></circle><circle cx="396" cy="230" r="2"></circle><circle cx="407" cy="233" r="2"></circle><circle cx="419" cy="237" r="2"></circle><circle cx="430" cy="245" r="2"></circle><circle cx="442" cy="251" r="2"></circle><circle cx="453" cy="257" r="2"></circle><circle cx="464" cy="263" r="2"></circle><circle cx="476" cy="269" r="2"></circle><circle cx="487" cy="276" r="2"></circle><circle cx="499" cy="283" r="2"></circle><circle cx="510" cy="289" r="2"></circle><circle cx="521" cy="295" r="2"></circle><circle cx="533" cy="302" r="2"></circle><circle cx="544" cy="309" r="2"></circle><circle cx="555" cy="316" r="2"></circle><circle cx="567" cy="323" r="2"></circle><circle cx="578" cy="330" r="2"></circle><circle cx="590" cy="336" r="2"></circle><circle cx="601" cy="344" r="2"></circle><circle cx="612" cy="350" r="2"></circle><circle cx="624" cy="357" r="2"></circle><circle cx="635" cy="362" r="2"></circle><circle cx="647" cy="369" r="2"></circle><circle cx="658" cy="374" r="2"></circle><circle cx="669" cy="381" r="2"></circle><circle cx="681" cy="387" r="2"></circle><circle cx="692" cy="392" r="2"></circle><circle cx="704" cy="397" r="2"></circle><circle cx="715" cy="402" r="2"></circle><circle cx="726" cy="406" r="2"></circle><circle cx="738" cy="411" r="2"></circle></g></g><g class="key-India_0"><path stroke="#2a939b" stroke-linecap="round" d="M89 434L100 434L111 434L123 434L134 434L146 433L157 433L168 433L180 433L191 433L202 433L214 433L225 433L237 433L248 434L259 435L271 436L282 437L294 439L305 440L316 442L328 443L339 444L350 445L362 446L373 448L385 449L396 451L407 453L419 455L430 457L442 459L453 461L464 463L476 465L487 467L499 469L510 471L521 473L533 475L544 477L555 479L567 482L578 484L590 486L601 488L612 490L624 493L635 495L647 497L658 500L669 502L681 504L692 506L704 508L715 510L726 511L738 513" fill="none" stroke-width="1.5"></path><g fill="#2a939b"><circle cx="89" cy="434" r="2"></circle><circle cx="100" cy="434" r="2"></circle><circle cx="111" cy="434" r="2"></circle><circle cx="123" cy="434" r="2"></circle><circle cx="134" cy="434" r="2"></circle><circle cx="146" cy="433" r="2"></circle><circle cx="157" cy="433" r="2"></circle><circle cx="168" cy="433" r="2"></circle><circle cx="180" cy="433" r="2"></circle><circle cx="191" cy="433" r="2"></circle><circle cx="202" cy="433" r="2"></circle><circle cx="214" cy="433" r="2"></circle><circle cx="225" cy="433" r="2"></circle><circle cx="237" cy="433" r="2"></circle><circle cx="248" cy="434" r="2"></circle><circle cx="259" cy="435" r="2"></circle><circle cx="271" cy="436" r="2"></circle><circle cx="282" cy="437" r="2"></circle><circle cx="294" cy="439" r="2"></circle><circle cx="305" cy="440" r="2"></circle><circle cx="316" cy="442" r="2"></circle><circle cx="328" cy="443" r="2"></circle><circle cx="339" cy="444" r="2"></circle><circle cx="350" cy="445" r="2"></circle><circle cx="362" cy="446" r="2"></circle><circle cx="373" cy="448" r="2"></circle><circle cx="385" cy="449" r="2"></circle><circle cx="396" cy="451" r="2"></circle><circle cx="407" cy="453" r="2"></circle><circle cx="419" cy="455" r="2"></circle><circle cx="430" cy="457" r="2"></circle><circle cx="442" cy="459" r="2"></circle><circle cx="453" cy="461" r="2"></circle><circle cx="464" cy="463" r="2"></circle><circle cx="476" cy="465" r="2"></circle><circle cx="487" cy="467" r="2"></circle><circle cx="499" cy="469" r="2"></circle><circle cx="510" cy="471" r="2"></circle><circle cx="521" cy="473" r="2"></circle><circle cx="533" cy="475" r="2"></circle><circle cx="544" cy="477" r="2"></circle><circle cx="555" cy="479" r="2"></circle><circle cx="567" cy="482" r="2"></circle><circle cx="578" cy="484" r="2"></circle><circle cx="590" cy="486" r="2"></circle><circle cx="601" cy="488" r="2"></circle><circle cx="612" cy="490" r="2"></circle><circle cx="624" cy="493" r="2"></circle><circle cx="635" cy="495" r="2"></circle><circle cx="647" cy="497" r="2"></circle><circle cx="658" cy="500" r="2"></circle><circle cx="669" cy="502" r="2"></circle><circle cx="681" cy="504" r="2"></circle><circle cx="692" cy="506" r="2"></circle><circle cx="704" cy="508" r="2"></circle><circle cx="715" cy="510" r="2"></circle><circle cx="726" cy="511" r="2"></circle><circle cx="738" cy="513" r="2"></circle></g></g><g class="key-China_0"><path stroke="#a652ba" stroke-linecap="round" d="M191 451L202 456L214 461L225 467L237 474L248 481L259 486L271 491L282 496L294 500L305 503L316 505L328 506L339 507L350 507L362 506L373 505L385 504L396 503L407 502L419 502L430 503L442 505L453 507L464 509L476 511L487 513L499 515L510 517L521 519L533 520L544 521L555 523L567 524L578 525L590 526L601 526L612 527L624 528L635 528L647 529L658 529L669 530L681 530L692 530L704 531L715 531L726 531L738 532" fill="none" stroke-width="1.5"></path><g fill="#a652ba"><circle cx="191" cy="451" r="2"></circle><circle cx="202" cy="456" r="2"></circle><circle cx="214" cy="461" r="2"></circle><circle cx="225" cy="467" r="2"></circle><circle cx="237" cy="474" r="2"></circle><circle cx="248" cy="481" r="2"></circle><circle cx="259" cy="486" r="2"></circle><circle cx="271" cy="491" r="2"></circle><circle cx="282" cy="496" r="2"></circle><circle cx="294" cy="500" r="2"></circle><circle cx="305" cy="503" r="2"></circle><circle cx="316" cy="505" r="2"></circle><circle cx="328" cy="506" r="2"></circle><circle cx="339" cy="507" r="2"></circle><circle cx="350" cy="507" r="2"></circle><circle cx="362" cy="506" r="2"></circle><circle cx="373" cy="505" r="2"></circle><circle cx="385" cy="504" r="2"></circle><circle cx="396" cy="503" r="2"></circle><circle cx="407" cy="502" r="2"></circle><circle cx="419" cy="502" r="2"></circle><circle cx="430" cy="503" r="2"></circle><circle cx="442" cy="505" r="2"></circle><circle cx="453" cy="507" r="2"></circle><circle cx="464" cy="509" r="2"></circle><circle cx="476" cy="511" r="2"></circle><circle cx="487" cy="513" r="2"></circle><circle cx="499" cy="515" r="2"></circle><circle cx="510" cy="517" r="2"></circle><circle cx="521" cy="519" r="2"></circle><circle cx="533" cy="520" r="2"></circle><circle cx="544" cy="521" r="2"></circle><circle cx="555" cy="523" r="2"></circle><circle cx="567" cy="524" r="2"></circle><circle cx="578" cy="525" r="2"></circle><circle cx="590" cy="526" r="2"></circle><circle cx="601" cy="526" r="2"></circle><circle cx="612" cy="527" r="2"></circle><circle cx="624" cy="528" r="2"></circle><circle cx="635" cy="528" r="2"></circle><circle cx="647" cy="529" r="2"></circle><circle cx="658" cy="529" r="2"></circle><circle cx="669" cy="530" r="2"></circle><circle cx="681" cy="530" r="2"></circle><circle cx="692" cy="530" r="2"></circle><circle cx="704" cy="531" r="2"></circle><circle cx="715" cy="531" r="2"></circle><circle cx="726" cy="531" r="2"></circle><circle cx="738" cy="532" r="2"></circle></g></g><g class="key-Brazil_0"><path stroke="#f6a324" stroke-linecap="round" d="M89 524L100 524L111 524L123 524L134 524L146 524L157 525L168 525L180 525L191 525L202 525L214 525L225 526L237 526L248 526L259 526L271 526L282 526L294 527L305 527L316 527L328 527L339 527L350 528L362 528L373 528L385 529L396 529L407 529L419 530L430 530L442 530L453 531L464 531L476 531L487 531L499 532L510 532L521 532L533 532L544 533L555 533L567 533L578 533L590 533L601 533L612 534L624 534L635 534L647 534L658 534L669 534L681 534L692 534L704 534L715 534L726 534L738 534" fill="none" stroke-width="1.5"></path><g fill="#f6a324"><circle cx="89" cy="524" r="2"></circle><circle cx="100" cy="524" r="2"></circle><circle cx="111" cy="524" r="2"></circle><circle cx="123" cy="524" r="2"></circle><circle cx="134" cy="524" r="2"></circle><circle cx="146" cy="524" r="2"></circle><circle cx="157" cy="525" r="2"></circle><circle cx="168" cy="525" r="2"></circle><circle cx="180" cy="525" r="2"></circle><circle cx="191" cy="525" r="2"></circle><circle cx="202" cy="525" r="2"></circle><circle cx="214" cy="525" r="2"></circle><circle cx="225" cy="526" r="2"></circle><circle cx="237" cy="526" r="2"></circle><circle cx="248" cy="526" r="2"></circle><circle cx="259" cy="526" r="2"></circle><circle cx="271" cy="526" r="2"></circle><circle cx="282" cy="526" r="2"></circle><circle cx="294" cy="527" r="2"></circle><circle cx="305" cy="527" r="2"></circle><circle cx="316" cy="527" r="2"></circle><circle cx="328" cy="527" r="2"></circle><circle cx="339" cy="527" r="2"></circle><circle cx="350" cy="528" r="2"></circle><circle cx="362" cy="528" r="2"></circle><circle cx="373" cy="528" r="2"></circle><circle cx="385" cy="529" r="2"></circle><circle cx="396" cy="529" r="2"></circle><circle cx="407" cy="529" r="2"></circle><circle cx="419" cy="530" r="2"></circle><circle cx="430" cy="530" r="2"></circle><circle cx="442" cy="530" r="2"></circle><circle cx="453" cy="531" r="2"></circle><circle cx="464" cy="531" r="2"></circle><circle cx="476" cy="531" r="2"></circle><circle cx="487" cy="531" r="2"></circle><circle cx="499" cy="532" r="2"></circle><circle cx="510" cy="532" r="2"></circle><circle cx="521" cy="532" r="2"></circle><circle cx="533" cy="532" r="2"></circle><circle cx="544" cy="533" r="2"></circle><circle cx="555" cy="533" r="2"></circle><circle cx="567" cy="533" r="2"></circle><circle cx="578" cy="533" r="2"></circle><circle cx="590" cy="533" r="2"></circle><circle cx="601" cy="533" r="2"></circle><circle cx="612" cy="534" r="2"></circle><circle cx="624" cy="534" r="2"></circle><circle cx="635" cy="534" r="2"></circle><circle cx="647" cy="534" r="2"></circle><circle cx="658" cy="534" r="2"></circle><circle cx="669" cy="534" r="2"></circle><circle cx="681" cy="534" r="2"></circle><circle cx="692" cy="534" r="2"></circle><circle cx="704" cy="534" r="2"></circle><circle cx="715" cy="534" r="2"></circle><circle cx="726" cy="534" r="2"></circle><circle cx="738" cy="534" r="2"></circle></g></g><g class="key-Haiti_0"><path stroke="#ca2628" stroke-linecap="round" d="M89 534L100 534L111 534L123 534L134 534L146 534L157 534L168 534L180 534L191 534L202 534L214 534L225 534L237 534L248 534L259 534L271 534L282 534L294 534L305 534L316 534L328 534L339 534L350 534L362 534L373 534L385 534L396 534L407 534L419 534L430 534L442 535L453 535L464 535L476 535L487 535L499 535L510 535L521 535L533 535L544 535L555 535L567 535L578 535L590 535L601 535L612 535L624 535L635 535L647 535L658 534L669 535L681 535L692 535L704 535L715 535L726 535L738 535" fill="none" stroke-width="1.5"></path><g fill="#ca2628"><circle cx="89" cy="534" r="2"></circle><circle cx="100" cy="534" r="2"></circle><circle cx="111" cy="534" r="2"></circle><circle cx="123" cy="534" r="2"></circle><circle cx="134" cy="534" r="2"></circle><circle cx="146" cy="534" r="2"></circle><circle cx="157" cy="534" r="2"></circle><circle cx="168" cy="534" r="2"></circle><circle cx="180" cy="534" r="2"></circle><circle cx="191" cy="534" r="2"></circle><circle cx="202" cy="534" r="2"></circle><circle cx="214" cy="534" r="2"></circle><circle cx="225" cy="534" r="2"></circle><circle cx="237" cy="534" r="2"></circle><circle cx="248" cy="534" r="2"></circle><circle cx="259" cy="534" r="2"></circle><circle cx="271" cy="534" r="2"></circle><circle cx="282" cy="534" r="2"></circle><circle cx="294" cy="534" r="2"></circle><circle cx="305" cy="534" r="2"></circle><circle cx="316" cy="534" r="2"></circle><circle cx="328" cy="534" r="2"></circle><circle cx="339" cy="534" r="2"></circle><circle cx="350" cy="534" r="2"></circle><circle cx="362" cy="534" r="2"></circle><circle cx="373" cy="534" r="2"></circle><circle cx="385" cy="534" r="2"></circle><circle cx="396" cy="534" r="2"></circle><circle cx="407" cy="534" r="2"></circle><circle cx="419" cy="534" r="2"></circle><circle cx="430" cy="534" r="2"></circle><circle cx="442" cy="535" r="2"></circle><circle cx="453" cy="535" r="2"></circle><circle cx="464" cy="535" r="2"></circle><circle cx="476" cy="535" r="2"></circle><circle cx="487" cy="535" r="2"></circle><circle cx="499" cy="535" r="2"></circle><circle cx="510" cy="535" r="2"></circle><circle cx="521" cy="535" r="2"></circle><circle cx="533" cy="535" r="2"></circle><circle cx="544" cy="535" r="2"></circle><circle cx="555" cy="535" r="2"></circle><circle cx="567" cy="535" r="2"></circle><circle cx="578" cy="535" r="2"></circle><circle cx="590" cy="535" r="2"></circle><circle cx="601" cy="535" r="2"></circle><circle cx="612" cy="535" r="2"></circle><circle cx="624" cy="535" r="2"></circle><circle cx="635" cy="535" r="2"></circle><circle cx="647" cy="535" r="2"></circle><circle cx="658" cy="534" r="2"></circle><circle cx="669" cy="535" r="2"></circle><circle cx="681" cy="535" r="2"></circle><circle cx="692" cy="535" r="2"></circle><circle cx="704" cy="535" r="2"></circle><circle cx="715" cy="535" r="2"></circle><circle cx="726" cy="535" r="2"></circle><circle cx="738" cy="535" r="2"></circle></g></g><g class="key-Botswana_0"><path stroke="#3360a9" stroke-linecap="round" d="M89 535L100 535L111 535L123 535L134 535L146 535L157 535L168 535L180 535L191 535L202 535L214 535L225 535L237 535L248 535L259 535L271 535L282 535L294 535L305 535L316 535L328 535L339 535L350 535L362 535L373 535L385 535L396 535L407 535L419 535L430 535L442 535L453 535L464 535L476 535L487 535L499 535L510 535L521 535L533 535L544 535L555 535L567 535L578 535L590 535L601 535L612 535L624 535L635 535L647 535L658 535L669 535L681 535L692 535L704 535L715 535L726 535L738 535" fill="none" stroke-width="1.5"></path><g fill="#3360a9"><circle cx="89" cy="535" r="2"></circle><circle cx="100" cy="535" r="2"></circle><circle cx="111" cy="535" r="2"></circle><circle cx="123" cy="535" r="2"></circle><circle cx="134" cy="535" r="2"></circle><circle cx="146" cy="535" r="2"></circle><circle cx="157" cy="535" r="2"></circle><circle cx="168" cy="535" r="2"></circle><circle cx="180" cy="535" r="2"></circle><circle cx="191" cy="535" r="2"></circle><circle cx="202" cy="535" r="2"></circle><circle cx="214" cy="535" r="2"></circle><circle cx="225" cy="535" r="2"></circle><circle cx="237" cy="535" r="2"></circle><circle cx="248" cy="535" r="2"></circle><circle cx="259" cy="535" r="2"></circle><circle cx="271" cy="535" r="2"></circle><circle cx="282" cy="535" r="2"></circle><circle cx="294" cy="535" r="2"></circle><circle cx="305" cy="535" r="2"></circle><circle cx="316" cy="535" r="2"></circle><circle cx="328" cy="535" r="2"></circle><circle cx="339" cy="535" r="2"></circle><circle cx="350" cy="535" r="2"></circle><circle cx="362" cy="535" r="2"></circle><circle cx="373" cy="535" r="2"></circle><circle cx="385" cy="535" r="2"></circle><circle cx="396" cy="535" r="2"></circle><circle cx="407" cy="535" r="2"></circle><circle cx="419" cy="535" r="2"></circle><circle cx="430" cy="535" r="2"></circle><circle cx="442" cy="535" r="2"></circle><circle cx="453" cy="535" r="2"></circle><circle cx="464" cy="535" r="2"></circle><circle cx="476" cy="535" r="2"></circle><circle cx="487" cy="535" r="2"></circle><circle cx="499" cy="535" r="2"></circle><circle cx="510" cy="535" r="2"></circle><circle cx="521" cy="535" r="2"></circle><circle cx="533" cy="535" r="2"></circle><circle cx="544" cy="535" r="2"></circle><circle cx="555" cy="535" r="2"></circle><circle cx="567" cy="535" r="2"></circle><circle cx="578" cy="535" r="2"></circle><circle cx="590" cy="535" r="2"></circle><circle cx="601" cy="535" r="2"></circle><circle cx="612" cy="535" r="2"></circle><circle cx="624" cy="535" r="2"></circle><circle cx="635" cy="535" r="2"></circle><circle cx="647" cy="535" r="2"></circle><circle cx="658" cy="535" r="2"></circle><circle cx="669" cy="535" r="2"></circle><circle cx="681" cy="535" r="2"></circle><circle cx="692" cy="535" r="2"></circle><circle cx="704" cy="535" r="2"></circle><circle cx="715" cy="535" r="2"></circle><circle cx="726" cy="535" r="2"></circle><circle cx="738" cy="535" r="2"></circle></g></g><g class="key-Zimbabwe_0"><path stroke="#34983f" stroke-linecap="round" d="M89 535L100 535L111 535L123 535L134 535L146 535L157 535L168 535L180 535L191 535L202 535L214 535L225 535L237 535L248 535L259 535L271 535L282 535L294 535L305 535L316 535L328 535L339 535L350 535L362 535L373 535L385 535L396 535L407 535L419 535L430 535L442 535L453 535L464 535L476 535L487 534L499 534L510 534L521 534L533 534L544 534L555 534L567 534L578 534L590 534L601 534L612 534L624 534L635 534L647 534L658 534L669 534L681 534L692 535L704 535L715 535L726 535L738 535" fill="none" stroke-width="1.5"></path><g fill="#34983f"><circle cx="89" cy="535" r="2"></circle><circle cx="100" cy="535" r="2"></circle><circle cx="111" cy="535" r="2"></circle><circle cx="123" cy="535" r="2"></circle><circle cx="134" cy="535" r="2"></circle><circle cx="146" cy="535" r="2"></circle><circle cx="157" cy="535" r="2"></circle><circle cx="168" cy="535" r="2"></circle><circle cx="180" cy="535" r="2"></circle><circle cx="191" cy="535" r="2"></circle><circle cx="202" cy="535" r="2"></circle><circle cx="214" cy="535" r="2"></circle><circle cx="225" cy="535" r="2"></circle><circle cx="237" cy="535" r="2"></circle><circle cx="248" cy="535" r="2"></circle><circle cx="259" cy="535" r="2"></circle><circle cx="271" cy="535" r="2"></circle><circle cx="282" cy="535" r="2"></circle><circle cx="294" cy="535" r="2"></circle><circle cx="305" cy="535" r="2"></circle><circle cx="316" cy="535" r="2"></circle><circle cx="328" cy="535" r="2"></circle><circle cx="339" cy="535" r="2"></circle><circle cx="350" cy="535" r="2"></circle><circle cx="362" cy="535" r="2"></circle><circle cx="373" cy="535" r="2"></circle><circle cx="385" cy="535" r="2"></circle><circle cx="396" cy="535" r="2"></circle><circle cx="407" cy="535" r="2"></circle><circle cx="419" cy="535" r="2"></circle><circle cx="430" cy="535" r="2"></circle><circle cx="442" cy="535" r="2"></circle><circle cx="453" cy="535" r="2"></circle><circle cx="464" cy="535" r="2"></circle><circle cx="476" cy="535" r="2"></circle><circle cx="487" cy="534" r="2"></circle><circle cx="499" cy="534" r="2"></circle><circle cx="510" cy="534" r="2"></circle><circle cx="521" cy="534" r="2"></circle><circle cx="533" cy="534" r="2"></circle><circle cx="544" cy="534" r="2"></circle><circle cx="555" cy="534" r="2"></circle><circle cx="567" cy="534" r="2"></circle><circle cx="578" cy="534" r="2"></circle><circle cx="590" cy="534" r="2"></circle><circle cx="601" cy="534" r="2"></circle><circle cx="612" cy="534" r="2"></circle><circle cx="624" cy="534" r="2"></circle><circle cx="635" cy="534" r="2"></circle><circle cx="647" cy="534" r="2"></circle><circle cx="658" cy="534" r="2"></circle><circle cx="669" cy="534" r="2"></circle><circle cx="681" cy="534" r="2"></circle><circle cx="692" cy="535" r="2"></circle><circle cx="704" cy="535" r="2"></circle><circle cx="715" cy="535" r="2"></circle><circle cx="726" cy="535" r="2"></circle><circle cx="738" cy="535" r="2"></circle></g></g></g></g></g><g style="fill: #777;" class="SourcesFooter"><g style="fill: #777;" class="clickable"><text font-size="12.60" x="15.0" y="581.6"><tspan x="15" y="581.58">Source: World Bank</tspan></text></g><text font-size="12.60" x="775.4" y="581.6"><tspan x="775.402" y="581.58"><a style="fill: #777;" class="cclogo" href="http://creativecommons.org/licenses/by-sa/4.0/deed.en_US" target="_blank">CC BY-SA</a></tspan></text></g></g></svg>