<svg xmlns="http://www.w3.org/2000/svg" version="1.1" style="font-family: 'Helvetica Neue', Helvetica, Arial, sans-serif; font-size: 18px; background-color: white; text-rendering: optimizeLegibility; -webkit-font-smoothing: antialiased;" width="850" height="600"><g class="ChartTab"><g class="HeaderView"><g opacity="0.8" transform="translate(778, 15) scale(0.27)"><a xmlns:xlink="http://www.w3.org/1999/xlink" xlink:href="https://ourworldindata.org" target="_blank"><g><rect x="0" y="0" fill="#1B2543" width="211.2" height="130.1"/><rect x="0" y="112.2" fill="#E63912" width="211.2" height="17.9"/><g><rect x="1.2" y="12.3" fill="none" width="210.2" height="99.2"/><path fill="#FFFFFF" d="M37.8,32.2c0,12.7-7.7,19.4-17.1,19.4c-9.7,0-16.6-7.5-16.6-18.7c0-11.7,7.3-19.3,17.1-19.3 C31.3,13.7,37.8,21.3,37.8,32.2z M9.2,32.8c0,7.9,4.3,14.9,11.8,14.9c7.5,0,11.8-6.9,11.8-15.3c0-7.3-3.8-14.9-11.8-14.9 C13.1,17.5,9.2,24.8,9.2,32.8z"/><path fill="#FFFFFF" d="M62.7,43.8c0,2.7,0.1,5.1,0.2,7.2h-4.3l-0.3-4.3h-0.1c-1.3,2.1-4,4.9-8.8,4.9c-4.2,0-9.1-2.3-9.1-11.6 V24.6h4.8v14.6c0,5,1.5,8.4,5.9,8.4c3.2,0,5.5-2.2,6.3-4.4c0.3-0.7,0.4-1.6,0.4-2.5V24.6h4.8V43.8z"/><path fill="#FFFFFF" d="M67.3,32.8c0-3.1-0.1-5.8-0.2-8.2h4.2l0.2,5.2h0.2c1.2-3.5,4.1-5.8,7.3-5.8c0.5,0,0.9,0.1,1.4,0.2v4.5 c-0.5-0.1-1-0.2-1.6-0.2c-3.4,0-5.8,2.6-6.5,6.2c-0.1,0.7-0.2,1.4-0.2,2.2V51h-4.8V32.8z"/><path fill="#FFFFFF" d="M95.4,51l-9.4-36.8h5l4.4,18.6c1.1,4.6,2.1,9.2,2.7,12.7h0.1c0.6-3.7,1.8-8,3-12.8l4.9-18.5h5l4.5,18.7 c1,4.4,2,8.7,2.6,12.6h0.1c0.8-4,1.8-8.1,3-12.7l4.9-18.5h4.9L120.6,51h-5L111,31.9c-1.1-4.7-1.9-8.3-2.4-12h-0.1 c-0.7,3.7-1.5,7.3-2.8,12L100.4,51H95.4z"/><path fill="#FFFFFF" d="M154.9,37.6c0,9.8-6.8,14-13.2,14c-7.2,0-12.7-5.2-12.7-13.6c0-8.8,5.8-14,13.1-14 C149.8,24,154.9,29.5,154.9,37.6z M133.9,37.9c0,5.8,3.3,10.1,8,10.1c4.6,0,8-4.3,8-10.3c0-4.5-2.2-10.1-7.9-10.1 C136.3,27.6,133.9,32.8,133.9,37.9z"/><path fill="#FFFFFF" d="M158.2,32.8c0-3.1-0.1-5.8-0.2-8.2h4.2l0.2,5.2h0.2c1.2-3.5,4.1-5.8,7.3-5.8c0.5,0,0.9,0.1,1.4,0.2v4.5 c-0.5-0.1-1-0.2-1.6-0.2c-3.4,0-5.8,2.6-6.5,6.2c-0.1,0.7-0.2,1.4-0.2,2.2V51h-4.8V32.8z"/><path fill="#FFFFFF" d="M173.5,12.3h4.8V51h-4.8V12.3z"/><path fill="#FFFFFF" d="M206.5,12.3v31.9c0,2.3,0.1,5,0.2,6.8h-4.3l-0.2-4.6H202c-1.5,2.9-4.7,5.2-9,5.2 c-6.4,0-11.3-5.4-11.3-13.4c-0.1-8.8,5.4-14.2,11.9-14.2c4,0,6.8,1.9,8,4h0.1V12.3H206.5z M201.7,35.4c0-0.6-0.1-1.4-0.2-2 c-0.7-3.1-3.3-5.6-6.9-5.6c-5,0-7.9,4.4-7.9,10.2c0,5.3,2.6,9.8,7.8,9.8c3.2,0,6.2-2.1,7.1-5.7c0.2-0.7,0.2-1.3,0.2-2.1V35.4z"/><path fill="#FFFFFF" d="M42.8,64c0.1,1.6-1.1,2.9-3.1,2.9c-1.7,0-2.9-1.3-2.9-2.9c0-1.7,1.3-3,3-3C41.7,61,42.8,62.3,42.8,64z M37.4,97.8V71.4h4.8v26.4H37.4z"/><path fill="#FFFFFF" d="M47.5,78.6c0-2.7-0.1-5-0.2-7.1h4.3l0.3,4.4h0.1c1.3-2.5,4.4-5,8.8-5c3.7,0,9.4,2.2,9.4,11.2v15.8h-4.8 V82.6c0-4.3-1.6-7.8-6.1-7.8c-3.2,0-5.6,2.2-6.5,4.9c-0.2,0.6-0.3,1.4-0.3,2.2v15.9h-4.8V78.6z"/><path fill="#FFFFFF" d="M84,61.6c2.9-0.4,6.3-0.8,10.1-0.8c6.8,0,11.7,1.6,14.9,4.6c3.3,3,5.2,7.3,5.2,13.2c0,6-1.9,10.9-5.3,14.3 c-3.4,3.4-9.1,5.3-16.3,5.3c-3.4,0-6.2-0.2-8.6-0.4V61.6z M88.8,94.1c1.2,0.2,3,0.3,4.8,0.3c10.2,0,15.7-5.7,15.7-15.6 c0.1-8.7-4.9-14.2-14.9-14.2c-2.5,0-4.3,0.2-5.6,0.5V94.1z"/><path fill="#FFFFFF" d="M132.1,97.8l-0.4-3.3h-0.2c-1.5,2.1-4.3,3.9-8.1,3.9c-5.4,0-8.1-3.8-8.1-7.6c0-6.4,5.7-9.9,15.9-9.8v-0.5 c0-2.2-0.6-6.1-6-6.1c-2.5,0-5,0.8-6.9,2l-1.1-3.2c2.2-1.4,5.4-2.3,8.7-2.3c8.1,0,10.1,5.5,10.1,10.8v9.9c0,2.3,0.1,4.5,0.4,6.3 H132.1z M131.4,84.4c-5.3-0.1-11.2,0.8-11.2,5.9c0,3.1,2.1,4.6,4.5,4.6c3.4,0,5.6-2.2,6.4-4.4c0.2-0.5,0.3-1,0.3-1.5V84.4z"/><path fill="#FFFFFF" d="M146.6,63.9v7.6h6.9v3.7h-6.9v14.2c0,3.3,0.9,5.1,3.6,5.1c1.3,0,2.2-0.2,2.8-0.3l0.2,3.6 c-0.9,0.4-2.4,0.7-4.3,0.7c-2.2,0-4-0.7-5.2-2c-1.4-1.4-1.9-3.8-1.9-6.9V75.1h-4.1v-3.7h4.1v-6.3L146.6,63.9z"/><path fill="#FFFFFF" d="M171.4,97.8l-0.4-3.3h-0.2c-1.5,2.1-4.3,3.9-8.1,3.9c-5.4,0-8.1-3.8-8.1-7.6c0-6.4,5.7-9.9,15.9-9.8v-0.5 c0-2.2-0.6-6.1-6-6.1c-2.5,0-5,0.8-6.9,2l-1.1-3.2c2.2-1.4,5.4-2.3,8.7-2.3c8.1,0,10.1,5.5,10.1,10.8v9.9c0,2.3,0.1,4.5,0.4,6.3 H171.4z M170.7,84.4c-5.3-0.1-11.2,0.8-11.2,5.9c0,3.1,2.1,4.6,4.5,4.6c3.4,0,5.6-2.2,6.4-4.4c0.2-0.5,0.3-1,0.3-1.5V84.4z"/></g></g></a></g><a href="https://ourworldindata.org/grapher/number-of-neonatal-deaths-by-region" target="_blank"><text font-size="25.20" x="15.0" y="35.2" fill="#555"><tspan x="15" y="35.160000000000004">Number of neonatal deaths by region</tspan></text></a><text font-size="14.40" x="15.0" y="53.7" fill="#666"><tspan x="15" y="53.72">Number of neonates dying before reaching 28 days of age.</tspan></text></g><g class="StackedArea"><defs><clipPath id="boundsClip-605"><rect x="79.45400000000001" y="0" width="820" height="959.8"></rect></clipPath></defs><g class="AxisBoxView"><g class="HorizontalAxis"><text x="79.5" y="556.5" fill="#666" text-anchor="middle" font-size="16.2">1990</text><text x="191.8" y="556.5" fill="#666" text-anchor="middle" font-size="16.2">1995</text><text x="304.2" y="556.5" fill="#666" text-anchor="middle" font-size="16.2">2000</text><text x="416.6" y="556.5" fill="#666" text-anchor="middle" font-size="16.2">2005</text><text x="529" y="556.5" fill="#666" text-anchor="middle" font-size="16.2">2010</text><text x="641.4" y="556.5" fill="#666" text-anchor="middle" font-size="16.2">2015</text><text x="686.3" y="556.5" fill="#666" text-anchor="middle" font-size="16.2">2017</text></g><g class="VerticalAxis"><text x="74.45" y="535.3" fill="#666" dominant-baseline="middle" text-anchor="end" font-size="16.2">0</text><text x="74.45" y="442.5" fill="#666" dominant-baseline="middle" text-anchor="end" font-size="16.2">1 million</text><text x="74.45" y="349.6" fill="#666" dominant-baseline="middle" text-anchor="end" font-size="16.2">2 million</text><text x="74.45" y="256.8" fill="#666" dominant-baseline="middle" text-anchor="end" font-size="16.2">3 million</text><text x="74.45" y="164" fill="#666" dominant-baseline="middle" text-anchor="end" font-size="16.2">4 million</text></g><g class="AxisGridLines"><line x1="79.45" y1="535.3" x2="686.33" y2="535.3" stroke="#ccc"></line><line x1="79.45" y1="442.5" x2="686.33" y2="442.5" stroke="#ddd" stroke-dasharray="3,2"></line><line x1="79.45" y1="349.6" x2="686.33" y2="349.6" stroke="#ddd" stroke-dasharray="3,2"></line><line x1="79.45" y1="256.8" x2="686.33" y2="256.8" stroke="#ddd" stroke-dasharray="3,2"></line><line x1="79.45" y1="164" x2="686.33" y2="164" stroke="#ddd" stroke-dasharray="3,2"></line></g></g><g clip-path="url(#boundsClip-605)"><g class="HeightedLegend clickable"><g class="legendMark"><g class="indicator"><line x1="691.3299999999999" y1="490.7" x2="703.8299999999999" y2="490.7" stroke="#666" stroke-width="0.5"></line><line x1="703.8299999999999" y1="490.7" x2="703.8299999999999" y2="490.7" stroke="#666" stroke-width="0.5"></line><line x1="703.8299999999999" y1="490.7" x2="716.3299999999999" y2="490.7" stroke="#666" stroke-width="0.5"></line></g><rect x="686.3299999999999" y="483.95" width="100.61" height="13.5" fill="#fff" opacity="0"></rect><text font-size="13.50" x="721.3" y="494.8" fill="#3360a9"><tspan x="721.3299999999999" y="494.75">South Asia</tspan></text></g><g class="legendMark"><g class="indicator"><line x1="691.3299999999999" y1="397.9" x2="703.8299999999999" y2="397.9" stroke="#666" stroke-width="0.5"></line><line x1="703.8299999999999" y1="397.9" x2="703.8299999999999" y2="397.9" stroke="#666" stroke-width="0.5"></line><line x1="703.8299999999999" y1="397.9" x2="716.3299999999999" y2="397.9" stroke="#666" stroke-width="0.5"></line></g><rect x="686.3299999999999" y="376.54999999999995" width="135.03500000000003" height="42.7" fill="#fff" opacity="0"></rect><text font-size="13.50" x="721.3" y="387.3" fill="#e6332e"><tspan x="721.3299999999999" y="387.34999999999997">Sub-Saharan</tspan><tspan x="721.3299999999999" y="402.2">Africa (excluding</tspan><tspan x="721.3299999999999" y="417.04999999999995">high income)</tspan></text></g><g class="legendMark"><g class="indicator"><line x1="691.3299999999999" y1="338.7" x2="713.8299999999999" y2="338.7" stroke="#666" stroke-width="0.5"></line><line x1="713.8299999999999" y1="338.7" x2="713.8299999999999" y2="338.7" stroke="#666" stroke-width="0.5"></line><line x1="713.8299999999999" y1="338.7" x2="716.3299999999999" y2="338.7" stroke="#666" stroke-width="0.5"></line></g><rect x="686.3299999999999" y="317.34999999999997" width="148.67000000000002" height="42.7" fill="#fff" opacity="0"></rect><text font-size="13.50" x="721.3" y="328.1" fill="#ca2628"><tspan x="721.3299999999999" y="328.15">East Asia &amp; Pacific</tspan><tspan x="721.3299999999999" y="343">(excluding high</tspan><tspan x="721.3299999999999" y="357.84999999999997">income)</tspan></text></g><g class="legendMark"><g class="indicator"><line x1="691.3299999999999" y1="322" x2="708.8299999999999" y2="322" stroke="#666" stroke-width="0.5"></line><line x1="708.8299999999999" y1="322" x2="708.8299999999999" y2="286.69999999999993" stroke="#666" stroke-width="0.5"></line><line x1="708.8299999999999" y1="286.69999999999993" x2="716.3299999999999" y2="286.69999999999993" stroke="#666" stroke-width="0.5"></line></g><rect x="686.3299999999999" y="258.04999999999995" width="126.125" height="57.3" fill="#fff" opacity="0"></rect><text font-size="13.50" x="721.3" y="268.8" fill="#ffd53e"><tspan x="721.3299999999999" y="268.84999999999997">Middle East &amp;</tspan><tspan x="721.3299999999999" y="283.7">North Africa</tspan><tspan x="721.3299999999999" y="298.54999999999995">(excluding high</tspan><tspan x="721.3299999999999" y="313.4">income)</tspan></text></g><g class="legendMark"><g class="indicator"><line x1="691.3299999999999" y1="312" x2="703.8299999999999" y2="312" stroke="#666" stroke-width="0.5"></line><line x1="703.8299999999999" y1="312" x2="703.8299999999999" y2="227.39999999999995" stroke="#666" stroke-width="0.5"></line><line x1="703.8299999999999" y1="227.39999999999995" x2="716.3299999999999" y2="227.39999999999995" stroke="#666" stroke-width="0.5"></line></g><rect x="686.3299999999999" y="198.74999999999994" width="130.58" height="57.3" fill="#fff" opacity="0"></rect><text font-size="13.50" x="721.3" y="209.5" fill="#9ecc8a"><tspan x="721.3299999999999" y="209.54999999999995">Latin America &amp;</tspan><tspan x="721.3299999999999" y="224.39999999999995">Caribbean</tspan><tspan x="721.3299999999999" y="239.24999999999994">(excluding high</tspan><tspan x="721.3299999999999" y="254.09999999999997">income)</tspan></text></g><g class="legendMark"><g class="indicator"><line x1="691.3299999999999" y1="305.8" x2="698.8299999999999" y2="305.8" stroke="#666" stroke-width="0.5"></line><line x1="698.8299999999999" y1="305.8" x2="698.8299999999999" y2="175.39999999999995" stroke="#666" stroke-width="0.5"></line><line x1="698.8299999999999" y1="175.39999999999995" x2="716.3299999999999" y2="175.39999999999995" stroke="#666" stroke-width="0.5"></line></g><rect x="686.3299999999999" y="154.04999999999995" width="138.95" height="42.7" fill="#fff" opacity="0"></rect><text font-size="13.50" x="721.3" y="164.8" fill="#34983f"><tspan x="721.3299999999999" y="164.84999999999997">Europe &amp; Central</tspan><tspan x="721.3299999999999" y="179.69999999999996">Asia (excluding</tspan><tspan x="721.3299999999999" y="194.54999999999995">high income)</tspan></text></g></g><g class="Areas"><rect x="79.45400000000001" y="76.6" width="606.876" height="458.69999999999993" opacity="0" fill="rgba(255,255,255,0)"></rect><path stroke-linecap="round" d="M79.5 332.6L101.9 335.7L124.4 338.7L146.9 341.9L169.4 345.2L191.8 348.8L214.3 352.6L236.8 356.7L259.3 361.1L281.7 365.8L304.2 370.7L326.7 375.7L349.2 380.7L371.7 385.8L394.1 390.7L416.6 395.4L439.1 400L461.6 404.4L484 408.7L506.5 413.2L529 417.7L551.5 422.3L573.9 426.8L596.4 431L618.9 435.1L641.4 439L663.9 442.7L686.3 446.1L686.3299999999999 535.3L79.45400000000001 535.3" fill="#3360a9" fill-opacity="0.7" class="South-Asia_0-area"></path><path stroke-linecap="round" d="M79.5 236.8L101.9 238.7L124.4 240.4L146.9 242.2L169.4 244.1L191.8 246.4L214.3 249L236.8 252.1L259.3 255.8L281.7 260.1L304.2 264.9L326.7 270.1L349.2 275.3L371.7 280.7L394.1 286L416.6 291.2L439.1 296.2L461.6 301L484 305.8L506.5 310.9L529 316L551.5 321.3L573.9 326.6L596.4 331.6L618.9 336.6L641.4 341.2L663.9 345.7L686.3 349.8L686.3 446.1L663.9 442.7L641.4 439L618.9 435.1L596.4 431L573.9 426.8L551.5 422.3L529 417.7L506.5 413.2L484 408.7L461.6 404.4L439.1 400L416.6 395.4L394.1 390.7L371.7 385.8L349.2 380.7L326.7 375.7L304.2 370.7L281.7 365.8L259.3 361.1L236.8 356.7L214.3 352.6L191.8 348.8L169.4 345.2L146.9 341.9L124.4 338.7L101.9 335.7L79.5 332.6" fill="#e6332e" fill-opacity="0.7" class="Sub__002dSaharan-Africa-__0028excluding-high-income__0029_0-area"></path><path stroke-linecap="round" d="M79.5 134.5L101.9 141.2L124.4 148.5L146.9 156.2L169.4 164L191.8 171.7L214.3 179.1L236.8 186.4L259.3 193.7L281.7 201.2L304.2 208.7L326.7 216.9L349.2 225L371.7 233.2L394.1 241.2L416.6 249.1L439.1 256.4L461.6 263.4L484 270.3L506.5 277.3L529 284.2L551.5 291.2L573.9 297.9L596.4 304.5L618.9 310.8L641.4 316.7L663.9 322.4L686.3 327.7L686.3 349.8L663.9 345.7L641.4 341.2L618.9 336.6L596.4 331.6L573.9 326.6L551.5 321.3L529 316L506.5 310.9L484 305.8L461.6 301L439.1 296.2L416.6 291.2L394.1 286L371.7 280.7L349.2 275.3L326.7 270.1L304.2 264.9L281.7 260.1L259.3 255.8L236.8 252.1L214.3 249L191.8 246.4L169.4 244.1L146.9 242.2L124.4 240.4L101.9 238.7L79.5 236.8" fill="#ca2628" fill-opacity="0.7" class="East-Asia-__0026-Pacific-__0028excluding-high-income__0029_0-area"></path><path stroke-linecap="round" d="M79.5 113.5L101.9 121L124.4 129.1L146.9 137.6L169.4 146.1L191.8 154.5L214.3 162.6L236.8 170.4L259.3 178.2L281.7 186.1L304.2 194.1L326.7 202.5L349.2 210.9L371.7 219.3L394.1 227.5L416.6 235.6L439.1 243.1L461.6 250.2L484 257.2L506.5 264.3L529 271.3L551.5 278.4L573.9 285.3L596.4 292L618.9 298.6L641.4 304.8L663.9 310.9L686.3 316.4L686.3 327.7L663.9 322.4L641.4 316.7L618.9 310.8L596.4 304.5L573.9 297.9L551.5 291.2L529 284.2L506.5 277.3L484 270.3L461.6 263.4L439.1 256.4L416.6 249.1L394.1 241.2L371.7 233.2L349.2 225L326.7 216.9L304.2 208.7L281.7 201.2L259.3 193.7L236.8 186.4L214.3 179.1L191.8 171.7L169.4 164L146.9 156.2L124.4 148.5L101.9 141.2L79.5 134.5" fill="#ffd53e" fill-opacity="0.7" class="Middle-East-__0026-North-Africa-__0028excluding-high-income__0029_0-area"></path><path stroke-linecap="round" d="M79.5 90L101.9 98.3L124.4 107.1L146.9 116.3L169.4 125.5L191.8 134.7L214.3 143.5L236.8 152L259.3 160.6L281.7 169.2L304.2 178.1L326.7 187.4L349.2 196.6L371.7 205.8L394.1 214.6L416.6 223.3L439.1 231.3L461.6 238.9L484 246.3L506.5 253.7L529 261L551.5 268.4L573.9 275.6L596.4 282.6L618.9 289.3L641.4 295.7L663.9 301.7L686.3 307.6L686.3 316.4L663.9 310.9L641.4 304.8L618.9 298.6L596.4 292L573.9 285.3L551.5 278.4L529 271.3L506.5 264.3L484 257.2L461.6 250.2L439.1 243.1L416.6 235.6L394.1 227.5L371.7 219.3L349.2 210.9L326.7 202.5L304.2 194.1L281.7 186.1L259.3 178.2L236.8 170.4L214.3 162.6L191.8 154.5L169.4 146.1L146.9 137.6L124.4 129.1L101.9 121L79.5 113.5" fill="#9ecc8a" fill-opacity="0.7" class="Latin-America-__0026-Caribbean-__0028excluding-high-income__0029_0-area"></path><path stroke-linecap="round" d="M79.5 76.6L101.9 85.4L124.4 94.8L146.9 104.5L169.4 114.3L191.8 124L214.3 133.4L236.8 142.4L259.3 151.5L281.7 160.6L304.2 169.9L326.7 179.6L349.2 189.2L371.7 198.7L394.1 207.9L416.6 216.8L439.1 225.1L461.6 233L484 240.5L506.5 248.2L529 255.6L551.5 263.3L573.9 270.7L596.4 277.9L618.9 284.8L641.4 291.5L663.9 297.8L686.3 303.9L686.3 307.6L663.9 301.7L641.4 295.7L618.9 289.3L596.4 282.6L573.9 275.6L551.5 268.4L529 261L506.5 253.7L484 246.3L461.6 238.9L439.1 231.3L416.6 223.3L394.1 214.6L371.7 205.8L349.2 196.6L326.7 187.4L304.2 178.1L281.7 169.2L259.3 160.6L236.8 152L214.3 143.5L191.8 134.7L169.4 125.5L146.9 116.3L124.4 107.1L101.9 98.3L79.5 90" fill="#34983f" fill-opacity="0.7" class="Europe-__0026-Central-Asia-__0028excluding-high-income__0029_0-area"></path><path stroke-linecap="round" d="M79.5 332.6L101.9 335.7L124.4 338.7L146.9 341.9L169.4 345.2L191.8 348.8L214.3 352.6L236.8 356.7L259.3 361.1L281.7 365.8L304.2 370.7L326.7 375.7L349.2 380.7L371.7 385.8L394.1 390.7L416.6 395.4L439.1 400L461.6 404.4L484 408.7L506.5 413.2L529 417.7L551.5 422.3L573.9 426.8L596.4 431L618.9 435.1L641.4 439L663.9 442.7L686.3 446.1" stroke="rgb(43, 80, 141)" stroke-opacity="0.7" stroke-width="0.5" fill="none" class="South-Asia_0-border"></path><path stroke-linecap="round" d="M79.5 236.8L101.9 238.7L124.4 240.4L146.9 242.2L169.4 244.1L191.8 246.4L214.3 249L236.8 252.1L259.3 255.8L281.7 260.1L304.2 264.9L326.7 270.1L349.2 275.3L371.7 280.7L394.1 286L416.6 291.2L439.1 296.2L461.6 301L484 305.8L506.5 310.9L529 316L551.5 321.3L573.9 326.6L596.4 331.6L618.9 336.6L641.4 341.2L663.9 345.7L686.3 349.8" stroke="rgb(192, 43, 38)" stroke-opacity="0.7" stroke-width="0.5" fill="none" class="Sub__002dSaharan-Africa-__0028excluding-high-income__0029_0-border"></path><path stroke-linecap="round" d="M79.5 134.5L101.9 141.2L124.4 148.5L146.9 156.2L169.4 164L191.8 171.7L214.3 179.1L236.8 186.4L259.3 193.7L281.7 201.2L304.2 208.7L326.7 216.9L349.2 225L371.7 233.2L394.1 241.2L416.6 249.1L439.1 256.4L461.6 263.4L484 270.3L506.5 277.3L529 284.2L551.5 291.2L573.9 297.9L596.4 304.5L618.9 310.8L641.4 316.7L663.9 322.4L686.3 327.7" stroke="rgb(169, 32, 33)" stroke-opacity="0.7" stroke-width="0.5" fill="none" class="East-Asia-__0026-Pacific-__0028excluding-high-income__0029_0-border"></path><path stroke-linecap="round" d="M79.5 113.5L101.9 121L124.4 129.1L146.9 137.6L169.4 146.1L191.8 154.5L214.3 162.6L236.8 170.4L259.3 178.2L281.7 186.1L304.2 194.1L326.7 202.5L349.2 210.9L371.7 219.3L394.1 227.5L416.6 235.6L439.1 243.1L461.6 250.2L484 257.2L506.5 264.3L529 271.3L551.5 278.4L573.9 285.3L596.4 292L618.9 298.6L641.4 304.8L663.9 310.9L686.3 316.4" stroke="rgb(213, 178, 52)" stroke-opacity="0.7" stroke-width="0.5" fill="none" class="Middle-East-__0026-North-Africa-__0028excluding-high-income__0029_0-border"></path><path stroke-linecap="round" d="M79.5 90L101.9 98.3L124.4 107.1L146.9 116.3L169.4 125.5L191.8 134.7L214.3 143.5L236.8 152L259.3 160.6L281.7 169.2L304.2 178.1L326.7 187.4L349.2 196.6L371.7 205.8L394.1 214.6L416.6 223.3L439.1 231.3L461.6 238.9L484 246.3L506.5 253.7L529 261L551.5 268.4L573.9 275.6L596.4 282.6L618.9 289.3L641.4 295.7L663.9 301.7L686.3 307.6" stroke="rgb(132, 171, 115)" stroke-opacity="0.7" stroke-width="0.5" fill="none" class="Latin-America-__0026-Caribbean-__0028excluding-high-income__0029_0-border"></path><path stroke-linecap="round" d="M79.5 76.6L101.9 85.4L124.4 94.8L146.9 104.5L169.4 114.3L191.8 124L214.3 133.4L236.8 142.4L259.3 151.5L281.7 160.6L304.2 169.9L326.7 179.6L349.2 189.2L371.7 198.7L394.1 207.9L416.6 216.8L439.1 225.1L461.6 233L484 240.5L506.5 248.2L529 255.6L551.5 263.3L573.9 270.7L596.4 277.9L618.9 284.8L641.4 291.5L663.9 297.8L686.3 303.9" stroke="rgb(44, 127, 53)" stroke-opacity="0.7" stroke-width="0.5" fill="none" class="Europe-__0026-Central-Asia-__0028excluding-high-income__0029_0-border"></path></g></g></g><g style="fill: #777;" class="SourcesFooter"><g style="fill: #777;" class="clickable"><text font-size="12.60" x="15.0" y="581.6"><tspan x="15" y="581.58">Source: World Bank</tspan></text></g><text font-size="12.60" x="649.0" y="581.6"><tspan x="649.024" y="581.58"><a target='_blank' style='fill: #777;' href='https://ourworldindata.org'>OurWorldInData.org</a> • <a style="fill: #777;" class="cclogo" href="http://creativecommons.org/licenses/by-sa/4.0/deed.en_US" target="_blank">CC BY-SA</a></tspan></text></g></g></svg>