<svg xmlns="http://www.w3.org/2000/svg" version="1.1" style="font-family: 'Helvetica Neue', Helvetica, Arial, sans-serif; font-size: 18px; background-color: white; text-rendering: optimizeLegibility; -webkit-font-smoothing: antialiased;" width="850" height="600"><g class="ChartTab"><g class="HeaderView"><g opacity="0.8" transform="translate(778, 15) scale(0.27)"><a xmlns:xlink="http://www.w3.org/1999/xlink" xlink:href="https://ourworldindata.org" target="_blank"><g><rect x="0" y="0" fill="#1B2543" width="211.2" height="130.1"/><rect x="0" y="112.2" fill="#E63912" width="211.2" height="17.9"/><g><rect x="1.2" y="12.3" fill="none" width="210.2" height="99.2"/><path fill="#FFFFFF" d="M37.8,32.2c0,12.7-7.7,19.4-17.1,19.4c-9.7,0-16.6-7.5-16.6-18.7c0-11.7,7.3-19.3,17.1-19.3 C31.3,13.7,37.8,21.3,37.8,32.2z M9.2,32.8c0,7.9,4.3,14.9,11.8,14.9c7.5,0,11.8-6.9,11.8-15.3c0-7.3-3.8-14.9-11.8-14.9 C13.1,17.5,9.2,24.8,9.2,32.8z"/><path fill="#FFFFFF" d="M62.7,43.8c0,2.7,0.1,5.1,0.2,7.2h-4.3l-0.3-4.3h-0.1c-1.3,2.1-4,4.9-8.8,4.9c-4.2,0-9.1-2.3-9.1-11.6 V24.6h4.8v14.6c0,5,1.5,8.4,5.9,8.4c3.2,0,5.5-2.2,6.3-4.4c0.3-0.7,0.4-1.6,0.4-2.5V24.6h4.8V43.8z"/><path fill="#FFFFFF" d="M67.3,32.8c0-3.1-0.1-5.8-0.2-8.2h4.2l0.2,5.2h0.2c1.2-3.5,4.1-5.8,7.3-5.8c0.5,0,0.9,0.1,1.4,0.2v4.5 c-0.5-0.1-1-0.2-1.6-0.2c-3.4,0-5.8,2.6-6.5,6.2c-0.1,0.7-0.2,1.4-0.2,2.2V51h-4.8V32.8z"/><path fill="#FFFFFF" d="M95.4,51l-9.4-36.8h5l4.4,18.6c1.1,4.6,2.1,9.2,2.7,12.7h0.1c0.6-3.7,1.8-8,3-12.8l4.9-18.5h5l4.5,18.7 c1,4.4,2,8.7,2.6,12.6h0.1c0.8-4,1.8-8.1,3-12.7l4.9-18.5h4.9L120.6,51h-5L111,31.9c-1.1-4.7-1.9-8.3-2.4-12h-0.1 c-0.7,3.7-1.5,7.3-2.8,12L100.4,51H95.4z"/><path fill="#FFFFFF" d="M154.9,37.6c0,9.8-6.8,14-13.2,14c-7.2,0-12.7-5.2-12.7-13.6c0-8.8,5.8-14,13.1-14 C149.8,24,154.9,29.5,154.9,37.6z M133.9,37.9c0,5.8,3.3,10.1,8,10.1c4.6,0,8-4.3,8-10.3c0-4.5-2.2-10.1-7.9-10.1 C136.3,27.6,133.9,32.8,133.9,37.9z"/><path fill="#FFFFFF" d="M158.2,32.8c0-3.1-0.1-5.8-0.2-8.2h4.2l0.2,5.2h0.2c1.2-3.5,4.1-5.8,7.3-5.8c0.5,0,0.9,0.1,1.4,0.2v4.5 c-0.5-0.1-1-0.2-1.6-0.2c-3.4,0-5.8,2.6-6.5,6.2c-0.1,0.7-0.2,1.4-0.2,2.2V51h-4.8V32.8z"/><path fill="#FFFFFF" d="M173.5,12.3h4.8V51h-4.8V12.3z"/><path fill="#FFFFFF" d="M206.5,12.3v31.9c0,2.3,0.1,5,0.2,6.8h-4.3l-0.2-4.6H202c-1.5,2.9-4.7,5.2-9,5.2 c-6.4,0-11.3-5.4-11.3-13.4c-0.1-8.8,5.4-14.2,11.9-14.2c4,0,6.8,1.9,8,4h0.1V12.3H206.5z M201.7,35.4c0-0.6-0.1-1.4-0.2-2 c-0.7-3.1-3.3-5.6-6.9-5.6c-5,0-7.9,4.4-7.9,10.2c0,5.3,2.6,9.8,7.8,9.8c3.2,0,6.2-2.1,7.1-5.7c0.2-0.7,0.2-1.3,0.2-2.1V35.4z"/><path fill="#FFFFFF" d="M42.8,64c0.1,1.6-1.1,2.9-3.1,2.9c-1.7,0-2.9-1.3-2.9-2.9c0-1.7,1.3-3,3-3C41.7,61,42.8,62.3,42.8,64z M37.4,97.8V71.4h4.8v26.4H37.4z"/><path fill="#FFFFFF" d="M47.5,78.6c0-2.7-0.1-5-0.2-7.1h4.3l0.3,4.4h0.1c1.3-2.5,4.4-5,8.8-5c3.7,0,9.4,2.2,9.4,11.2v15.8h-4.8 V82.6c0-4.3-1.6-7.8-6.1-7.8c-3.2,0-5.6,2.2-6.5,4.9c-0.2,0.6-0.3,1.4-0.3,2.2v15.9h-4.8V78.6z"/><path fill="#FFFFFF" d="M84,61.6c2.9-0.4,6.3-0.8,10.1-0.8c6.8,0,11.7,1.6,14.9,4.6c3.3,3,5.2,7.3,5.2,13.2c0,6-1.9,10.9-5.3,14.3 c-3.4,3.4-9.1,5.3-16.3,5.3c-3.4,0-6.2-0.2-8.6-0.4V61.6z M88.8,94.1c1.2,0.2,3,0.3,4.8,0.3c10.2,0,15.7-5.7,15.7-15.6 c0.1-8.7-4.9-14.2-14.9-14.2c-2.5,0-4.3,0.2-5.6,0.5V94.1z"/><path fill="#FFFFFF" d="M132.1,97.8l-0.4-3.3h-0.2c-1.5,2.1-4.3,3.9-8.1,3.9c-5.4,0-8.1-3.8-8.1-7.6c0-6.4,5.7-9.9,15.9-9.8v-0.5 c0-2.2-0.6-6.1-6-6.1c-2.5,0-5,0.8-6.9,2l-1.1-3.2c2.2-1.4,5.4-2.3,8.7-2.3c8.1,0,10.1,5.5,10.1,10.8v9.9c0,2.3,0.1,4.5,0.4,6.3 H132.1z M131.4,84.4c-5.3-0.1-11.2,0.8-11.2,5.9c0,3.1,2.1,4.6,4.5,4.6c3.4,0,5.6-2.2,6.4-4.4c0.2-0.5,0.3-1,0.3-1.5V84.4z"/><path fill="#FFFFFF" d="M146.6,63.9v7.6h6.9v3.7h-6.9v14.2c0,3.3,0.9,5.1,3.6,5.1c1.3,0,2.2-0.2,2.8-0.3l0.2,3.6 c-0.9,0.4-2.4,0.7-4.3,0.7c-2.2,0-4-0.7-5.2-2c-1.4-1.4-1.9-3.8-1.9-6.9V75.1h-4.1v-3.7h4.1v-6.3L146.6,63.9z"/><path fill="#FFFFFF" d="M171.4,97.8l-0.4-3.3h-0.2c-1.5,2.1-4.3,3.9-8.1,3.9c-5.4,0-8.1-3.8-8.1-7.6c0-6.4,5.7-9.9,15.9-9.8v-0.5 c0-2.2-0.6-6.1-6-6.1c-2.5,0-5,0.8-6.9,2l-1.1-3.2c2.2-1.4,5.4-2.3,8.7-2.3c8.1,0,10.1,5.5,10.1,10.8v9.9c0,2.3,0.1,4.5,0.4,6.3 H171.4z M170.7,84.4c-5.3-0.1-11.2,0.8-11.2,5.9c0,3.1,2.1,4.6,4.5,4.6c3.4,0,5.6-2.2,6.4-4.4c0.2-0.5,0.3-1,0.3-1.5V84.4z"/></g></g></a></g><a href="https://ourworldindata.org/grapher/number-of-maternal-deaths-by-region" target="_blank"><text font-size="25.20" x="15.0" y="35.2" fill="#555"><tspan x="15" y="35.160000000000004">Number of maternal deaths by region</tspan></text></a><text font-size="14.40" x="15.0" y="53.7" fill="#666"><tspan x="15" y="53.72">A maternal death refers to the death of a woman while pregnant or within 42 days of termination of pregnancy,</tspan><tspan x="15" y="69.56">irrespective of the duration and site of the pregnancy, from any cause related to or aggravated by the pregnancy or its</tspan><tspan x="15" y="85.4">management but not from accidental or incidental causes.</tspan></text></g><g class="StackedArea"><defs><clipPath id="boundsClip-599"><rect x="78.968" y="0" width="820" height="897.8"></rect></clipPath></defs><g class="AxisBoxView"><g class="HorizontalAxis"><text x="79" y="556.5" fill="#666" text-anchor="middle" font-size="16.2">1990</text><text x="200.4" y="556.5" fill="#666" text-anchor="middle" font-size="16.2">1995</text><text x="321.9" y="556.5" fill="#666" text-anchor="middle" font-size="16.2">2000</text><text x="443.4" y="556.5" fill="#666" text-anchor="middle" font-size="16.2">2005</text><text x="564.9" y="556.5" fill="#666" text-anchor="middle" font-size="16.2">2010</text><text x="686.3" y="556.5" fill="#666" text-anchor="middle" font-size="16.2">2015</text></g><g class="VerticalAxis"><text x="73.97" y="535.3" fill="#666" dominant-baseline="middle" text-anchor="end" font-size="16.2">0</text><text x="73.97" y="454.9" fill="#666" dominant-baseline="middle" text-anchor="end" font-size="16.2">100,000</text><text x="73.97" y="374.5" fill="#666" dominant-baseline="middle" text-anchor="end" font-size="16.2">200,000</text><text x="73.97" y="294.1" fill="#666" dominant-baseline="middle" text-anchor="end" font-size="16.2">300,000</text><text x="73.97" y="213.7" fill="#666" dominant-baseline="middle" text-anchor="end" font-size="16.2">400,000</text><text x="73.97" y="133.3" fill="#666" dominant-baseline="middle" text-anchor="end" font-size="16.2">500,000</text></g><g class="AxisGridLines"><line x1="78.97" y1="535.3" x2="686.33" y2="535.3" stroke="#ccc"></line><line x1="78.97" y1="454.9" x2="686.33" y2="454.9" stroke="#ddd" stroke-dasharray="3,2"></line><line x1="78.97" y1="374.5" x2="686.33" y2="374.5" stroke="#ddd" stroke-dasharray="3,2"></line><line x1="78.97" y1="294.1" x2="686.33" y2="294.1" stroke="#ddd" stroke-dasharray="3,2"></line><line x1="78.97" y1="213.7" x2="686.33" y2="213.7" stroke="#ddd" stroke-dasharray="3,2"></line><line x1="78.97" y1="133.3" x2="686.33" y2="133.3" stroke="#ddd" stroke-dasharray="3,2"></line></g></g><g clip-path="url(#boundsClip-599)"><g class="HeightedLegend clickable"><g class="legendMark"><g class="indicator"><line x1="691.3299999999999" y1="292.2" x2="713.8299999999999" y2="292.2" stroke="#666" stroke-width="0.5"></line><line x1="713.8299999999999" y1="292.2" x2="713.8299999999999" y2="292.2" stroke="#666" stroke-width="0.5"></line><line x1="713.8299999999999" y1="292.2" x2="716.3299999999999" y2="292.2" stroke="#666" stroke-width="0.5"></line></g><rect x="686.3299999999999" y="285.45" width="121.4" height="13.5" fill="#fff" opacity="0"></rect><text font-size="13.50" x="721.3" y="296.3" fill="#34983f"><tspan x="721.3299999999999" y="296.25">North America</tspan></text></g><g class="legendMark"><g class="indicator"><line x1="691.3299999999999" y1="293.2" x2="710.4966666666666" y2="293.2" stroke="#666" stroke-width="0.5"></line><line x1="710.4966666666666" y1="293.2" x2="710.4966666666666" y2="315" stroke="#666" stroke-width="0.5"></line><line x1="710.4966666666666" y1="315" x2="716.3299999999999" y2="315" stroke="#666" stroke-width="0.5"></line></g><rect x="686.3299999999999" y="300.95" width="138.95" height="28.1" fill="#fff" opacity="0"></rect><text font-size="13.50" x="721.3" y="311.8" fill="#9ecc8a"><tspan x="721.3299999999999" y="311.75">Europe &amp; Central</tspan><tspan x="721.3299999999999" y="326.6">Asia</tspan></text></g><g class="legendMark"><g class="indicator"><line x1="691.3299999999999" y1="297.1" x2="707.1633333333333" y2="297.1" stroke="#666" stroke-width="0.5"></line><line x1="707.1633333333333" y1="297.1" x2="707.1633333333333" y2="345.1" stroke="#666" stroke-width="0.5"></line><line x1="707.1633333333333" y1="345.1" x2="716.3299999999999" y2="345.1" stroke="#666" stroke-width="0.5"></line></g><rect x="686.3299999999999" y="331.05" width="118.56500000000001" height="28.1" fill="#fff" opacity="0"></rect><text font-size="13.50" x="721.3" y="341.9" fill="#ffd53e"><tspan x="721.3299999999999" y="341.85">Middle East &amp;</tspan><tspan x="721.3299999999999" y="356.70000000000005">North Africa</tspan></text></g><g class="legendMark"><g class="indicator"><line x1="691.3299999999999" y1="303.2" x2="703.8299999999999" y2="303.2" stroke="#666" stroke-width="0.5"></line><line x1="703.8299999999999" y1="303.2" x2="703.8299999999999" y2="375.20000000000005" stroke="#666" stroke-width="0.5"></line><line x1="703.8299999999999" y1="375.20000000000005" x2="716.3299999999999" y2="375.20000000000005" stroke="#666" stroke-width="0.5"></line></g><rect x="686.3299999999999" y="361.15000000000003" width="130.58" height="28.1" fill="#fff" opacity="0"></rect><text font-size="13.50" x="721.3" y="372.0" fill="#ca2628"><tspan x="721.3299999999999" y="371.95000000000005">Latin America &amp;</tspan><tspan x="721.3299999999999" y="386.80000000000007">Caribbean</tspan></text></g><g class="legendMark"><g class="indicator"><line x1="691.3299999999999" y1="313.4" x2="700.4966666666666" y2="313.4" stroke="#666" stroke-width="0.5"></line><line x1="700.4966666666666" y1="313.4" x2="700.4966666666666" y2="398.00000000000006" stroke="#666" stroke-width="0.5"></line><line x1="700.4966666666666" y1="398.00000000000006" x2="716.3299999999999" y2="398.00000000000006" stroke="#666" stroke-width="0.5"></line></g><rect x="686.3299999999999" y="391.25000000000006" width="148.67000000000002" height="13.5" fill="#fff" opacity="0"></rect><text font-size="13.50" x="721.3" y="402.1" fill="#e6332e"><tspan x="721.3299999999999" y="402.05000000000007">East Asia &amp; Pacific</tspan></text></g><g class="legendMark"><g class="indicator"><line x1="691.3299999999999" y1="347.2" x2="697.1633333333333" y2="347.2" stroke="#666" stroke-width="0.5"></line><line x1="697.1633333333333" y1="347.2" x2="697.1633333333333" y2="413.50000000000006" stroke="#666" stroke-width="0.5"></line><line x1="697.1633333333333" y1="413.50000000000006" x2="716.3299999999999" y2="413.50000000000006" stroke="#666" stroke-width="0.5"></line></g><rect x="686.3299999999999" y="406.75000000000006" width="100.61" height="13.5" fill="#fff" opacity="0"></rect><text font-size="13.50" x="721.3" y="417.6" fill="#2a939b"><tspan x="721.3299999999999" y="417.55000000000007">South Asia</tspan></text></g><g class="legendMark"><g class="indicator"><line x1="691.3299999999999" y1="454.5" x2="703.8299999999999" y2="454.5" stroke="#666" stroke-width="0.5"></line><line x1="703.8299999999999" y1="454.5" x2="703.8299999999999" y2="454.5" stroke="#666" stroke-width="0.5"></line><line x1="703.8299999999999" y1="454.5" x2="716.3299999999999" y2="454.5" stroke="#666" stroke-width="0.5"></line></g><rect x="686.3299999999999" y="440.45" width="114.92" height="28.1" fill="#fff" opacity="0"></rect><text font-size="13.50" x="721.3" y="451.3" fill="#3360a9"><tspan x="721.3299999999999" y="451.25">Sub-Saharan</tspan><tspan x="721.3299999999999" y="466.1">Africa</tspan></text></g></g><g class="Areas"><rect x="78.968" y="107.60000000000001" width="607.362" height="427.69999999999993" opacity="0" fill="rgba(255,255,255,0)"></rect><path stroke-linecap="round" d="M79 356L103.3 354.4L127.6 352.8L151.9 350.4L176.1 348.8L200.4 348L224.7 346.4L249 345.6L273.3 344.8L297.6 344.8L321.9 345.6L346.2 345.6L370.5 348L394.8 350.4L419.1 353.6L443.4 356.8L467.7 360.8L492 361.6L516.3 365.7L540.6 363.3L564.9 364.9L589.2 368.9L613.4 369.7L637.7 371.3L662 372.1L686.3 373.7L686.3299999999999 535.3L78.968 535.3" fill="#3360a9" fill-opacity="0.7" class="Sub__002dSaharan-Africa_0-area"></path><path stroke-linecap="round" d="M79 188.8L103.3 192L127.6 195.2L151.9 196.8L176.1 200.1L200.4 203.3L224.7 206.5L249 210.5L273.3 215.3L297.6 220.2L321.9 227.4L346.2 233L370.5 241.1L394.8 249.1L419.1 257.9L443.4 266.8L467.7 275.6L492 281.3L516.3 290.1L540.6 291.7L564.9 297.3L589.2 304.6L613.4 308.6L637.7 313.4L662 316.6L686.3 320.6L686.3 373.7L662 372.1L637.7 371.3L613.4 369.7L589.2 368.9L564.9 364.9L540.6 363.3L516.3 365.7L492 361.6L467.7 360.8L443.4 356.8L419.1 353.6L394.8 350.4L370.5 348L346.2 345.6L321.9 345.6L297.6 344.8L273.3 344.8L249 345.6L224.7 346.4L200.4 348L176.1 348.8L151.9 350.4L127.6 352.8L103.3 354.4L79 356" fill="#2a939b" fill-opacity="0.7" class="South-Asia_0-area"></path><path stroke-linecap="round" d="M79 136.5L103.3 143L127.6 150.2L151.9 155L176.1 162.3L200.4 167.9L224.7 173.5L249 180L273.3 186.4L297.6 192L321.9 200.1L346.2 207.3L370.5 216.1L394.8 225L419.1 234.6L443.4 244.3L467.7 253.9L492 260.3L516.3 270L540.6 272.4L564.9 278.8L589.2 286.9L613.4 291.7L637.7 297.3L662 301.4L686.3 306.2L686.3 320.6L662 316.6L637.7 313.4L613.4 308.6L589.2 304.6L564.9 297.3L540.6 291.7L516.3 290.1L492 281.3L467.7 275.6L443.4 266.8L419.1 257.9L394.8 249.1L370.5 241.1L346.2 233L321.9 227.4L297.6 220.2L273.3 215.3L249 210.5L224.7 206.5L200.4 203.3L176.1 200.1L151.9 196.8L127.6 195.2L103.3 192L79 188.8" fill="#e6332e" fill-opacity="0.7" class="East-Asia-__0026-Pacific_0-area"></path><path stroke-linecap="round" d="M79 123.7L103.3 130.1L127.6 138.1L151.9 143L176.1 151L200.4 156.6L224.7 162.3L249 169.5L273.3 175.9L297.6 181.6L321.9 190.4L346.2 198.4L370.5 207.3L394.8 216.9L419.1 226.6L443.4 236.2L467.7 246L492 252.7L516.3 262.5L540.6 264.9L564.9 271.7L589.2 280L613.4 285.1L637.7 291.1L662 295.3L686.3 300.3L686.3 306.2L662 301.4L637.7 297.3L613.4 291.7L589.2 286.9L564.9 278.8L540.6 272.4L516.3 270L492 260.3L467.7 253.9L443.4 244.3L419.1 234.6L394.8 225L370.5 216.1L346.2 207.3L321.9 200.1L297.6 192L273.3 186.4L249 180L224.7 173.5L200.4 167.9L176.1 162.3L151.9 155L127.6 150.2L103.3 143L79 136.5" fill="#ca2628" fill-opacity="0.7" class="Latin-America-__0026-Caribbean_0-area"></path><path stroke-linecap="round" d="M79 112.4L103.3 119.7L127.6 127.7L151.9 133.3L176.1 141.4L200.4 147.8L224.7 154.2L249 161.5L273.3 168.3L297.6 174.2L321.9 183.4L346.2 191.6L370.5 200.5L394.8 210.3L419.1 220L443.4 229.6L467.7 239.4L492 246L516.3 255.8L540.6 258.3L564.9 264.9L589.2 273.3L613.4 278.4L637.7 284.4L662 288.7L686.3 293.9L686.3 300.3L662 295.3L637.7 291.1L613.4 285.1L589.2 280L564.9 271.7L540.6 264.9L516.3 262.5L492 252.7L467.7 246L443.4 236.2L419.1 226.6L394.8 216.9L370.5 207.3L346.2 198.4L321.9 190.4L297.6 181.6L273.3 175.9L249 169.5L224.7 162.3L200.4 156.6L176.1 151L151.9 143L127.6 138.1L103.3 130.1L79 123.7" fill="#ffd53e" fill-opacity="0.7" class="Middle-East-__0026-North-Africa_0-area"></path><path stroke-linecap="round" d="M79 108L103.3 115.5L127.6 123.7L151.9 129.2L176.1 137.3L200.4 144.1L224.7 150.9L249 158.3L273.3 165.4L297.6 171.4L321.9 180.7L346.2 189L370.5 198L394.8 207.9L419.1 217.7L443.4 227.4L467.7 237.4L492 244.1L516.3 254L540.6 256.5L564.9 263.2L589.2 271.7L613.4 276.8L637.7 282.9L662 287.2L686.3 292.4L686.3 293.9L662 288.7L637.7 284.4L613.4 278.4L589.2 273.3L564.9 264.9L540.6 258.3L516.3 255.8L492 246L467.7 239.4L443.4 229.6L419.1 220L394.8 210.3L370.5 200.5L346.2 191.6L321.9 183.4L297.6 174.2L273.3 168.3L249 161.5L224.7 154.2L200.4 147.8L176.1 141.4L151.9 133.3L127.6 127.7L103.3 119.7L79 112.4" fill="#9ecc8a" fill-opacity="0.7" class="Europe-__0026-Central-Asia_0-area"></path><path stroke-linecap="round" d="M79 107.6L103.3 115.1L127.6 123.3L151.9 128.8L176.1 136.9L200.4 143.7L224.7 150.5L249 158L273.3 165L297.6 171L321.9 180.3L346.2 188.5L370.5 197.5L394.8 207.4L419.1 217.2L443.4 226.9L467.7 236.9L492 243.6L516.3 253.5L540.6 256L564.9 262.7L589.2 271.2L613.4 276.3L637.7 282.4L662 286.7L686.3 292L686.3 292.4L662 287.2L637.7 282.9L613.4 276.8L589.2 271.7L564.9 263.2L540.6 256.5L516.3 254L492 244.1L467.7 237.4L443.4 227.4L419.1 217.7L394.8 207.9L370.5 198L346.2 189L321.9 180.7L297.6 171.4L273.3 165.4L249 158.3L224.7 150.9L200.4 144.1L176.1 137.3L151.9 129.2L127.6 123.7L103.3 115.5L79 108" fill="#34983f" fill-opacity="0.7" class="North-America_0-area"></path><path stroke-linecap="round" d="M79 356L103.3 354.4L127.6 352.8L151.9 350.4L176.1 348.8L200.4 348L224.7 346.4L249 345.6L273.3 344.8L297.6 344.8L321.9 345.6L346.2 345.6L370.5 348L394.8 350.4L419.1 353.6L443.4 356.8L467.7 360.8L492 361.6L516.3 365.7L540.6 363.3L564.9 364.9L589.2 368.9L613.4 369.7L637.7 371.3L662 372.1L686.3 373.7" stroke="rgb(43, 80, 141)" stroke-opacity="0.7" stroke-width="0.5" fill="none" class="Sub__002dSaharan-Africa_0-border"></path><path stroke-linecap="round" d="M79 188.8L103.3 192L127.6 195.2L151.9 196.8L176.1 200.1L200.4 203.3L224.7 206.5L249 210.5L273.3 215.3L297.6 220.2L321.9 227.4L346.2 233L370.5 241.1L394.8 249.1L419.1 257.9L443.4 266.8L467.7 275.6L492 281.3L516.3 290.1L540.6 291.7L564.9 297.3L589.2 304.6L613.4 308.6L637.7 313.4L662 316.6L686.3 320.6" stroke="rgb(35, 123, 130)" stroke-opacity="0.7" stroke-width="0.5" fill="none" class="South-Asia_0-border"></path><path stroke-linecap="round" d="M79 136.5L103.3 143L127.6 150.2L151.9 155L176.1 162.3L200.4 167.9L224.7 173.5L249 180L273.3 186.4L297.6 192L321.9 200.1L346.2 207.3L370.5 216.1L394.8 225L419.1 234.6L443.4 244.3L467.7 253.9L492 260.3L516.3 270L540.6 272.4L564.9 278.8L589.2 286.9L613.4 291.7L637.7 297.3L662 301.4L686.3 306.2" stroke="rgb(192, 43, 38)" stroke-opacity="0.7" stroke-width="0.5" fill="none" class="East-Asia-__0026-Pacific_0-border"></path><path stroke-linecap="round" d="M79 123.7L103.3 130.1L127.6 138.1L151.9 143L176.1 151L200.4 156.6L224.7 162.3L249 169.5L273.3 175.9L297.6 181.6L321.9 190.4L346.2 198.4L370.5 207.3L394.8 216.9L419.1 226.6L443.4 236.2L467.7 246L492 252.7L516.3 262.5L540.6 264.9L564.9 271.7L589.2 280L613.4 285.1L637.7 291.1L662 295.3L686.3 300.3" stroke="rgb(169, 32, 33)" stroke-opacity="0.7" stroke-width="0.5" fill="none" class="Latin-America-__0026-Caribbean_0-border"></path><path stroke-linecap="round" d="M79 112.4L103.3 119.7L127.6 127.7L151.9 133.3L176.1 141.4L200.4 147.8L224.7 154.2L249 161.5L273.3 168.3L297.6 174.2L321.9 183.4L346.2 191.6L370.5 200.5L394.8 210.3L419.1 220L443.4 229.6L467.7 239.4L492 246L516.3 255.8L540.6 258.3L564.9 264.9L589.2 273.3L613.4 278.4L637.7 284.4L662 288.7L686.3 293.9" stroke="rgb(213, 178, 52)" stroke-opacity="0.7" stroke-width="0.5" fill="none" class="Middle-East-__0026-North-Africa_0-border"></path><path stroke-linecap="round" d="M79 108L103.3 115.5L127.6 123.7L151.9 129.2L176.1 137.3L200.4 144.1L224.7 150.9L249 158.3L273.3 165.4L297.6 171.4L321.9 180.7L346.2 189L370.5 198L394.8 207.9L419.1 217.7L443.4 227.4L467.7 237.4L492 244.1L516.3 254L540.6 256.5L564.9 263.2L589.2 271.7L613.4 276.8L637.7 282.9L662 287.2L686.3 292.4" stroke="rgb(132, 171, 115)" stroke-opacity="0.7" stroke-width="0.5" fill="none" class="Europe-__0026-Central-Asia_0-border"></path><path stroke-linecap="round" d="M79 107.6L103.3 115.1L127.6 123.3L151.9 128.8L176.1 136.9L200.4 143.7L224.7 150.5L249 158L273.3 165L297.6 171L321.9 180.3L346.2 188.5L370.5 197.5L394.8 207.4L419.1 217.2L443.4 226.9L467.7 236.9L492 243.6L516.3 253.5L540.6 256L564.9 262.7L589.2 271.2L613.4 276.3L637.7 282.4L662 286.7L686.3 292" stroke="rgb(44, 127, 53)" stroke-opacity="0.7" stroke-width="0.5" fill="none" class="North-America_0-border"></path></g></g></g><g style="fill: #777;" class="SourcesFooter"><g style="fill: #777;" class="clickable"><text font-size="12.60" x="15.0" y="581.6"><tspan x="15" y="581.58">Source: World Bank</tspan></text></g><text font-size="12.60" x="775.4" y="581.6"><tspan x="775.402" y="581.58"><a style="fill: #777;" class="cclogo" href="http://creativecommons.org/licenses/by-sa/4.0/deed.en_US" target="_blank">CC BY-SA</a></tspan></text></g></g></svg>