<svg xmlns="http://www.w3.org/2000/svg" version="1.1" style="font-family: 'Helvetica Neue', Helvetica, Arial, sans-serif; font-size: 18px; background-color: white; text-rendering: optimizeLegibility; -webkit-font-smoothing: antialiased;" width="850" height="600"><g class="ChartTab"><g class="HeaderView"><g opacity="0.8" transform="translate(778, 15) scale(0.27)"><a xmlns:xlink="http://www.w3.org/1999/xlink" xlink:href="https://ourworldindata.org" target="_blank"><g><rect x="0" y="0" fill="#1B2543" width="211.2" height="130.1"/><rect x="0" y="112.2" fill="#E63912" width="211.2" height="17.9"/><g><rect x="1.2" y="12.3" fill="none" width="210.2" height="99.2"/><path fill="#FFFFFF" d="M37.8,32.2c0,12.7-7.7,19.4-17.1,19.4c-9.7,0-16.6-7.5-16.6-18.7c0-11.7,7.3-19.3,17.1-19.3 C31.3,13.7,37.8,21.3,37.8,32.2z M9.2,32.8c0,7.9,4.3,14.9,11.8,14.9c7.5,0,11.8-6.9,11.8-15.3c0-7.3-3.8-14.9-11.8-14.9 C13.1,17.5,9.2,24.8,9.2,32.8z"/><path fill="#FFFFFF" d="M62.7,43.8c0,2.7,0.1,5.1,0.2,7.2h-4.3l-0.3-4.3h-0.1c-1.3,2.1-4,4.9-8.8,4.9c-4.2,0-9.1-2.3-9.1-11.6 V24.6h4.8v14.6c0,5,1.5,8.4,5.9,8.4c3.2,0,5.5-2.2,6.3-4.4c0.3-0.7,0.4-1.6,0.4-2.5V24.6h4.8V43.8z"/><path fill="#FFFFFF" d="M67.3,32.8c0-3.1-0.1-5.8-0.2-8.2h4.2l0.2,5.2h0.2c1.2-3.5,4.1-5.8,7.3-5.8c0.5,0,0.9,0.1,1.4,0.2v4.5 c-0.5-0.1-1-0.2-1.6-0.2c-3.4,0-5.8,2.6-6.5,6.2c-0.1,0.7-0.2,1.4-0.2,2.2V51h-4.8V32.8z"/><path fill="#FFFFFF" d="M95.4,51l-9.4-36.8h5l4.4,18.6c1.1,4.6,2.1,9.2,2.7,12.7h0.1c0.6-3.7,1.8-8,3-12.8l4.9-18.5h5l4.5,18.7 c1,4.4,2,8.7,2.6,12.6h0.1c0.8-4,1.8-8.1,3-12.7l4.9-18.5h4.9L120.6,51h-5L111,31.9c-1.1-4.7-1.9-8.3-2.4-12h-0.1 c-0.7,3.7-1.5,7.3-2.8,12L100.4,51H95.4z"/><path fill="#FFFFFF" d="M154.9,37.6c0,9.8-6.8,14-13.2,14c-7.2,0-12.7-5.2-12.7-13.6c0-8.8,5.8-14,13.1-14 C149.8,24,154.9,29.5,154.9,37.6z M133.9,37.9c0,5.8,3.3,10.1,8,10.1c4.6,0,8-4.3,8-10.3c0-4.5-2.2-10.1-7.9-10.1 C136.3,27.6,133.9,32.8,133.9,37.9z"/><path fill="#FFFFFF" d="M158.2,32.8c0-3.1-0.1-5.8-0.2-8.2h4.2l0.2,5.2h0.2c1.2-3.5,4.1-5.8,7.3-5.8c0.5,0,0.9,0.1,1.4,0.2v4.5 c-0.5-0.1-1-0.2-1.6-0.2c-3.4,0-5.8,2.6-6.5,6.2c-0.1,0.7-0.2,1.4-0.2,2.2V51h-4.8V32.8z"/><path fill="#FFFFFF" d="M173.5,12.3h4.8V51h-4.8V12.3z"/><path fill="#FFFFFF" d="M206.5,12.3v31.9c0,2.3,0.1,5,0.2,6.8h-4.3l-0.2-4.6H202c-1.5,2.9-4.7,5.2-9,5.2 c-6.4,0-11.3-5.4-11.3-13.4c-0.1-8.8,5.4-14.2,11.9-14.2c4,0,6.8,1.9,8,4h0.1V12.3H206.5z M201.7,35.4c0-0.6-0.1-1.4-0.2-2 c-0.7-3.1-3.3-5.6-6.9-5.6c-5,0-7.9,4.4-7.9,10.2c0,5.3,2.6,9.8,7.8,9.8c3.2,0,6.2-2.1,7.1-5.7c0.2-0.7,0.2-1.3,0.2-2.1V35.4z"/><path fill="#FFFFFF" d="M42.8,64c0.1,1.6-1.1,2.9-3.1,2.9c-1.7,0-2.9-1.3-2.9-2.9c0-1.7,1.3-3,3-3C41.7,61,42.8,62.3,42.8,64z M37.4,97.8V71.4h4.8v26.4H37.4z"/><path fill="#FFFFFF" d="M47.5,78.6c0-2.7-0.1-5-0.2-7.1h4.3l0.3,4.4h0.1c1.3-2.5,4.4-5,8.8-5c3.7,0,9.4,2.2,9.4,11.2v15.8h-4.8 V82.6c0-4.3-1.6-7.8-6.1-7.8c-3.2,0-5.6,2.2-6.5,4.9c-0.2,0.6-0.3,1.4-0.3,2.2v15.9h-4.8V78.6z"/><path fill="#FFFFFF" d="M84,61.6c2.9-0.4,6.3-0.8,10.1-0.8c6.8,0,11.7,1.6,14.9,4.6c3.3,3,5.2,7.3,5.2,13.2c0,6-1.9,10.9-5.3,14.3 c-3.4,3.4-9.1,5.3-16.3,5.3c-3.4,0-6.2-0.2-8.6-0.4V61.6z M88.8,94.1c1.2,0.2,3,0.3,4.8,0.3c10.2,0,15.7-5.7,15.7-15.6 c0.1-8.7-4.9-14.2-14.9-14.2c-2.5,0-4.3,0.2-5.6,0.5V94.1z"/><path fill="#FFFFFF" d="M132.1,97.8l-0.4-3.3h-0.2c-1.5,2.1-4.3,3.9-8.1,3.9c-5.4,0-8.1-3.8-8.1-7.6c0-6.4,5.7-9.9,15.9-9.8v-0.5 c0-2.2-0.6-6.1-6-6.1c-2.5,0-5,0.8-6.9,2l-1.1-3.2c2.2-1.4,5.4-2.3,8.7-2.3c8.1,0,10.1,5.5,10.1,10.8v9.9c0,2.3,0.1,4.5,0.4,6.3 H132.1z M131.4,84.4c-5.3-0.1-11.2,0.8-11.2,5.9c0,3.1,2.1,4.6,4.5,4.6c3.4,0,5.6-2.2,6.4-4.4c0.2-0.5,0.3-1,0.3-1.5V84.4z"/><path fill="#FFFFFF" d="M146.6,63.9v7.6h6.9v3.7h-6.9v14.2c0,3.3,0.9,5.1,3.6,5.1c1.3,0,2.2-0.2,2.8-0.3l0.2,3.6 c-0.9,0.4-2.4,0.7-4.3,0.7c-2.2,0-4-0.7-5.2-2c-1.4-1.4-1.9-3.8-1.9-6.9V75.1h-4.1v-3.7h4.1v-6.3L146.6,63.9z"/><path fill="#FFFFFF" d="M171.4,97.8l-0.4-3.3h-0.2c-1.5,2.1-4.3,3.9-8.1,3.9c-5.4,0-8.1-3.8-8.1-7.6c0-6.4,5.7-9.9,15.9-9.8v-0.5 c0-2.2-0.6-6.1-6-6.1c-2.5,0-5,0.8-6.9,2l-1.1-3.2c2.2-1.4,5.4-2.3,8.7-2.3c8.1,0,10.1,5.5,10.1,10.8v9.9c0,2.3,0.1,4.5,0.4,6.3 H171.4z M170.7,84.4c-5.3-0.1-11.2,0.8-11.2,5.9c0,3.1,2.1,4.6,4.5,4.6c3.4,0,5.6-2.2,6.4-4.4c0.2-0.5,0.3-1,0.3-1.5V84.4z"/></g></g></a></g><a href="https://ourworldindata.org/grapher/per-capita-plastic-waste-vs-gdp-per-capita" target="_blank"><text font-size="25.20" x="15.0" y="35.2" fill="#555"><tspan x="15" y="35.160000000000004">Per capita plastic waste vs. GDP per capita, 2010</tspan></text></a><text font-size="14.40" x="15.0" y="53.7" fill="#666"><tspan x="15" y="53.72">Per capita plastic waste generation rate (measured in kilograms per person per day) versus gross domestic product</tspan><tspan x="15" y="69.56">(GDP) per capita (measured in 2011 international-$).</tspan></text></g><g><g class="AxisBoxView"><g class="HorizontalAxis"><text font-size="12.60" x="218.3" y="554.0"><tspan x="218.336" y="553.98">GDP per capita, PPP (constant 2011 international $)</tspan></text><text x="136.7" y="533.9" fill="#666" text-anchor="middle" font-size="16.2">$1,000</text><text x="412.4" y="533.9" fill="#666" text-anchor="middle" font-size="16.2">$10,000</text><text x="688.1" y="533.9" fill="#666" text-anchor="middle" font-size="16.2">$100,000</text></g><g class="VerticalAxis"><text font-size="12.60" x="-390.7" y="25.1" transform="rotate(-90)"><tspan x="-390.70199999999994" y="25.080000000000002">Per capita plastic waste</tspan></text><text x="81.99" y="512.7" fill="#666" dominant-baseline="middle" text-anchor="end" font-size="16.2">0 kg</text><text x="81.99" y="451.4" fill="#666" dominant-baseline="middle" text-anchor="end" font-size="16.2">0.1 kg</text><text x="81.99" y="390.1" fill="#666" dominant-baseline="middle" text-anchor="end" font-size="16.2">0.2 kg</text><text x="81.99" y="328.8" fill="#666" dominant-baseline="middle" text-anchor="end" font-size="16.2">0.3 kg</text><text x="81.99" y="267.5" fill="#666" dominant-baseline="middle" text-anchor="end" font-size="16.2">0.4 kg</text><text x="81.99" y="206.1" fill="#666" dominant-baseline="middle" text-anchor="end" font-size="16.2">0.5 kg</text><text x="81.99" y="144.8" fill="#666" dominant-baseline="middle" text-anchor="end" font-size="16.2">0.6 kg</text></g><g class="AxisGridLines"><line x1="86.99" y1="512.7" x2="715.00" y2="512.7" stroke="#ccc"></line><line x1="86.99" y1="451.4" x2="715.00" y2="451.4" stroke="#ddd" stroke-dasharray="3,2"></line><line x1="86.99" y1="390.1" x2="715.00" y2="390.1" stroke="#ddd" stroke-dasharray="3,2"></line><line x1="86.99" y1="328.8" x2="715.00" y2="328.8" stroke="#ddd" stroke-dasharray="3,2"></line><line x1="86.99" y1="267.5" x2="715.00" y2="267.5" stroke="#ddd" stroke-dasharray="3,2"></line><line x1="86.99" y1="206.1" x2="715.00" y2="206.1" stroke="#ddd" stroke-dasharray="3,2"></line><line x1="86.99" y1="144.8" x2="715.00" y2="144.8" stroke="#ddd" stroke-dasharray="3,2"></line></g><g class="AxisGridLines"><line x1="136.7" y1="512.70" x2="136.7" y2="92.10" stroke="#ddd" stroke-dasharray="3,2"></line><line x1="412.4" y1="512.70" x2="412.4" y2="92.10" stroke="#ddd" stroke-dasharray="3,2"></line><line x1="688.1" y1="512.70" x2="688.1" y2="92.10" stroke="#ddd" stroke-dasharray="3,2"></line></g></g><g clip-path="url(#scatterBounds-645)" font-family="Arial Narrow, Arial, sans-serif" class="PointsWithLabels clickable"><rect x="86.988" y="92.1" width="628.012" height="420.59999999999997" fill="rgba(255,255,255,0)"></rect><defs><clipPath id="scatterBounds-645"><rect x="76.988" y="82.1" width="648.012" height="440.59999999999997"></rect></clipPath></defs><g class="key-China_0"><circle cx="406.00" cy="438.00" r="17.84" fill="#d14e5b" opacity="0.8" stroke="#333" stroke-width="0.7"></circle></g><g class="key-India_0"><circle cx="314.00" cy="506.00" r="17.06" fill="#d14e5b" opacity="0.8" stroke="#333" stroke-width="0.7"></circle></g><g class="key-United-States_0"><circle cx="603.00" cy="307.00" r="8.72" fill="#4d824b" opacity="0.8" stroke="#333" stroke-width="0.7"></circle></g><g class="key-Indonesia_0"><circle cx="392.00" cy="477.00" r="7.72" fill="#d14e5b" opacity="0.8" stroke="#333" stroke-width="0.7"></circle></g><g class="key-Brazil_0"><circle cx="457.00" cy="411.00" r="7.00" fill="#69c487" opacity="0.8" stroke="#333" stroke-width="0.7"></circle></g><g class="key-Pakistan_0"><circle cx="310.00" cy="449.00" r="6.63" fill="#d14e5b" opacity="0.8" stroke="#333" stroke-width="0.7"></circle></g><g class="key-Nigeria_0"><circle cx="333.00" cy="449.00" r="6.36" fill="#5675c1" opacity="0.8" stroke="#fff" stroke-width="0.7"></circle></g><g class="key-Bangladesh_0"><circle cx="243.00" cy="491.00" r="6.17" fill="#d14e5b" opacity="0.8" stroke="#333" stroke-width="0.7"></circle></g><g class="key-Russia_0"><circle cx="512.00" cy="444.00" r="6.06" fill="#ffd336" opacity="0.8" stroke="#333" stroke-width="0.7"></circle></g><g class="key-Japan_0"><circle cx="565.00" cy="407.00" r="5.74" fill="#d14e5b" opacity="0.8" stroke="#333" stroke-width="0.7"></circle></g><g class="key-Mexico_0"><circle cx="466.00" cy="459.00" r="5.46" fill="#4d824b" opacity="0.8" stroke="#333" stroke-width="0.7"></circle></g><g class="key-Philippines_0"><circle cx="342.00" cy="466.00" r="5.01" fill="#d14e5b" opacity="0.8" stroke="#fff" stroke-width="0.7"></circle></g><g class="key-Vietnam_0"><circle cx="314.00" cy="449.00" r="4.88" fill="#d14e5b" opacity="0.8" stroke="#fff" stroke-width="0.7"></circle></g><g class="key-Germany_0"><circle cx="579.00" cy="215.00" r="4.75" fill="#ffd336" opacity="0.8" stroke="#333" stroke-width="0.7"></circle></g><g class="key-Egypt_0"><circle cx="410.00" cy="403.00" r="4.72" fill="#5675c1" opacity="0.8" stroke="#333" stroke-width="0.7"></circle></g><g class="key-Iran_0"><circle cx="482.00" cy="424.00" r="4.53" fill="#d14e5b" opacity="0.8" stroke="#333" stroke-width="0.7"></circle></g><g class="key-Turkey_0"><circle cx="482.00" cy="382.00" r="4.50" fill="#d14e5b" opacity="0.8" stroke="#333" stroke-width="0.7"></circle></g><g class="key-Thailand_0"><circle cx="448.00" cy="424.00" r="4.41" fill="#d14e5b" opacity="0.8" stroke="#fff" stroke-width="0.7"></circle></g><g class="key-Democratic-Republic-of-Congo_0"><circle cx="87.00" cy="485.00" r="4.32" fill="#5675c1" opacity="0.8" stroke="#333" stroke-width="0.7"></circle></g><g class="key-France_0"><circle cx="568.00" cy="395.00" r="4.23" fill="#ffd336" opacity="0.8" stroke="#fff" stroke-width="0.7"></circle></g><g class="key-United-Kingdom_0"><circle cx="567.00" cy="380.00" r="4.21" fill="#ffd336" opacity="0.8" stroke="#333" stroke-width="0.7"></circle></g><g class="key-Italy_0"><circle cx="566.00" cy="430.00" r="4.17" fill="#ffd336" opacity="0.8" stroke="#333" stroke-width="0.7"></circle></g><g class="key-South-Africa_0"><circle cx="433.00" cy="365.00" r="3.87" fill="#5675c1" opacity="0.8" stroke="#333" stroke-width="0.7"></circle></g><g class="key-South-Korea_0"><circle cx="545.00" cy="444.00" r="3.81" fill="#d14e5b" opacity="0.8" stroke="#fff" stroke-width="0.7"></circle></g><g class="key-Myanmar_0"><circle cx="294.00" cy="466.00" r="3.80" fill="#d14e5b" opacity="0.8" stroke="#333" stroke-width="0.7"></circle></g><g class="key-Colombia_0"><circle cx="422.00" cy="424.00" r="3.75" fill="#69c487" opacity="0.8" stroke="#fff" stroke-width="0.7"></circle></g><g class="key-Spain_0"><circle cx="553.00" cy="342.00" r="3.74" fill="#ffd336" opacity="0.8" stroke="#333" stroke-width="0.7"></circle></g><g class="key-Ukraine_0"><circle cx="383.00" cy="449.00" r="3.72" fill="#ffd336" opacity="0.8" stroke="#333" stroke-width="0.7"></circle></g><g class="key-Tanzania_0"><circle cx="225.00" cy="498.00" r="3.70" fill="#5675c1" opacity="0.8" stroke="#fff" stroke-width="0.7"></circle></g><g class="key-Kenya_0"><circle cx="245.00" cy="496.00" r="3.56" fill="#5675c1" opacity="0.8" stroke="#fff" stroke-width="0.7"></circle></g><g class="key-Argentina_0"><circle cx="487.00" cy="400.00" r="3.56" fill="#69c487" opacity="0.8" stroke="#333" stroke-width="0.7"></circle></g><g class="key-Poland_0"><circle cx="505.00" cy="453.00" r="3.49" fill="#ffd336" opacity="0.8" stroke="#333" stroke-width="0.7"></circle></g><g class="key-Algeria_0"><circle cx="442.00" cy="424.00" r="3.39" fill="#5675c1" opacity="0.8" stroke="#fff" stroke-width="0.7"></circle></g><g class="key-Sudan_0"><circle cx="282.00" cy="449.00" r="3.35" fill="#5675c1" opacity="0.8" stroke="#fff" stroke-width="0.7"></circle></g><g class="key-Canada_0"><circle cx="580.00" cy="455.00" r="3.34" fill="#4d824b" opacity="0.8" stroke="#333" stroke-width="0.7"></circle></g><g class="key-Morocco_0"><circle cx="359.00" cy="467.00" r="3.27" fill="#5675c1" opacity="0.8" stroke="#fff" stroke-width="0.7"></circle></g><g class="key-Iraq_0"><circle cx="441.00" cy="449.00" r="3.26" fill="#d14e5b" opacity="0.8" stroke="#333" stroke-width="0.7"></circle></g><g class="key-Peru_0"><circle cx="411.00" cy="424.00" r="3.16" fill="#69c487" opacity="0.8" stroke="#fff" stroke-width="0.7"></circle></g><g class="key-Venezuela_0"><circle cx="472.00" cy="358.00" r="3.16" fill="#69c487" opacity="0.8" stroke="#fff" stroke-width="0.7"></circle></g><g class="key-Malaysia_0"><circle cx="501.00" cy="391.00" r="3.14" fill="#d14e5b" opacity="0.8" stroke="#fff" stroke-width="0.7"></circle></g><g class="key-Saudi-Arabia_0"><circle cx="593.00" cy="417.00" r="3.10" fill="#d14e5b" opacity="0.8" stroke="#333" stroke-width="0.7"></circle></g><g class="key-Ghana_0"><circle cx="270.00" cy="488.00" r="2.99" fill="#5675c1" opacity="0.8" stroke="#fff" stroke-width="0.7"></circle></g><g class="key-Mozambique_0"><circle cx="126.00" cy="503.00" r="2.95" fill="#5675c1" opacity="0.8" stroke="#333" stroke-width="0.7"></circle></g><g class="key-Australia_0"><circle cx="582.00" cy="444.00" r="2.90" fill="#a652ba" opacity="0.8" stroke="#fff" stroke-width="0.7"></circle></g><g class="key-Romania_0"><circle cx="479.00" cy="486.00" r="2.87" fill="#ffd336" opacity="0.8" stroke="#333" stroke-width="0.7"></circle></g><g class="key-Sri-Lanka_0"><circle cx="393.00" cy="293.00" r="2.84" fill="#d14e5b" opacity="0.8" stroke="#333" stroke-width="0.7"></circle></g><g class="key-Madagascar_0"><circle cx="175.00" cy="502.00" r="2.84" fill="#5675c1" opacity="0.8" stroke="#fff" stroke-width="0.7"></circle></g><g class="key-Cote-d__0027Ivoire_0"><circle cx="255.00" cy="449.00" r="2.80" fill="#5675c1" opacity="0.8" stroke="#fff" stroke-width="0.7"></circle></g><g class="key-Cameroon_0"><circle cx="265.00" cy="484.00" r="2.79" fill="#5675c1" opacity="0.8" stroke="#fff" stroke-width="0.7"></circle></g><g class="key-Angola_0"><circle cx="349.00" cy="474.00" r="2.77" fill="#5675c1" opacity="0.8" stroke="#333" stroke-width="0.7"></circle></g><g class="key-Chile_0"><circle cx="492.00" cy="439.00" r="2.68" fill="#69c487" opacity="0.8" stroke="#fff" stroke-width="0.7"></circle></g><g class="key-Netherlands_0"><circle cx="593.00" cy="252.00" r="2.66" fill="#ffd336" opacity="0.8" stroke="#333" stroke-width="0.7"></circle></g><g class="key-Ecuador_0"><circle cx="404.00" cy="422.00" r="2.56" fill="#69c487" opacity="0.8" stroke="#fff" stroke-width="0.7"></circle></g><g class="key-Guatemala_0"><circle cx="364.00" cy="341.00" r="2.56" fill="#4d824b" opacity="0.8" stroke="#333" stroke-width="0.7"></circle></g><g class="key-Cambodia_0"><circle cx="247.00" cy="472.00" r="2.55" fill="#d14e5b" opacity="0.8" stroke="#fff" stroke-width="0.7"></circle></g><g class="key-Senegal_0"><circle cx="230.00" cy="449.00" r="2.47" fill="#5675c1" opacity="0.8" stroke="#333" stroke-width="0.7"></circle></g><g class="key-Greece_0"><circle cx="538.00" cy="390.00" r="2.42" fill="#ffd336" opacity="0.8" stroke="#333" stroke-width="0.7"></circle></g><g class="key-Belgium_0"><circle cx="581.00" cy="463.00" r="2.39" fill="#ffd336" opacity="0.8" stroke="#fff" stroke-width="0.7"></circle></g><g class="key-Portugal_0"><circle cx="532.00" cy="350.00" r="2.39" fill="#ffd336" opacity="0.8" stroke="#fff" stroke-width="0.7"></circle></g><g class="key-Tunisia_0"><circle cx="417.00" cy="424.00" r="2.38" fill="#5675c1" opacity="0.8" stroke="#fff" stroke-width="0.7"></circle></g><g class="key-Haiti_0"><circle cx="185.00" cy="457.00" r="2.35" fill="#4d824b" opacity="0.8" stroke="#333" stroke-width="0.7"></circle></g><g class="key-Guinea_0"><circle cx="191.00" cy="494.00" r="2.35" fill="#5675c1" opacity="0.8" stroke="#fff" stroke-width="0.7"></circle></g><g class="key-Dominican-Republic_0"><circle cx="425.00" cy="424.00" r="2.35" fill="#4d824b" opacity="0.8" stroke="#fff" stroke-width="0.7"></circle></g><g class="key-Sweden_0"><circle cx="586.00" cy="483.00" r="2.32" fill="#ffd336" opacity="0.8" stroke="#333" stroke-width="0.7"></circle></g><g class="key-Benin_0"><circle cx="208.00" cy="486.00" r="2.29" fill="#5675c1" opacity="0.8" stroke="#fff" stroke-width="0.7"></circle></g><g class="key-Honduras_0"><circle cx="301.00" cy="396.00" r="2.23" fill="#4d824b" opacity="0.8" stroke="#333" stroke-width="0.7"></circle></g><g class="key-United-Arab-Emirates_0"><circle cx="621.00" cy="390.00" r="2.22" fill="#d14e5b" opacity="0.8" stroke="#fff" stroke-width="0.7"></circle></g><g class="key-Bulgaria_0"><circle cx="463.00" cy="418.00" r="2.22" fill="#ffd336" opacity="0.8" stroke="#fff" stroke-width="0.7"></circle></g><g class="key-Israel_0"><circle cx="542.00" cy="330.00" r="2.22" fill="#d14e5b" opacity="0.8" stroke="#fff" stroke-width="0.7"></circle></g><g class="key-Hong-Kong_0"><circle cx="600.00" cy="268.00" r="2.20" fill="#d14e5b" opacity="0.8" stroke="#333" stroke-width="0.7"></circle></g><g class="key-Papua-New-Guinea_0"><circle cx="275.00" cy="449.00" r="2.19" fill="#a652ba" opacity="0.8" stroke="#fff" stroke-width="0.7"></circle></g><g class="key-Libya_0"><circle cx="542.00" cy="424.00" r="2.16" fill="#5675c1" opacity="0.8" stroke="#fff" stroke-width="0.7"></circle></g><g class="key-El-Salvador_0"><circle cx="357.00" cy="422.00" r="2.15" fill="#4d824b" opacity="0.8" stroke="#fff" stroke-width="0.7"></circle></g><g class="key-Jordan_0"><circle cx="405.00" cy="424.00" r="2.15" fill="#d14e5b" opacity="0.8" stroke="#fff" stroke-width="0.7"></circle></g><g class="key-Togo_0"><circle cx="159.00" cy="477.00" r="2.14" fill="#5675c1" opacity="0.8" stroke="#fff" stroke-width="0.7"></circle></g><g class="key-Sierra-Leone_0"><circle cx="158.00" cy="487.00" r="2.14" fill="#5675c1" opacity="0.8" stroke="#fff" stroke-width="0.7"></circle></g><g class="key-Nicaragua_0"><circle cx="303.00" cy="425.00" r="2.13" fill="#4d824b" opacity="0.8" stroke="#333" stroke-width="0.7"></circle></g><g class="key-Denmark_0"><circle cx="589.00" cy="483.00" r="2.12" fill="#ffd336" opacity="0.8" stroke="#fff" stroke-width="0.7"></circle></g><g class="key-Finland_0"><circle cx="578.00" cy="369.00" r="2.11" fill="#ffd336" opacity="0.8" stroke="#fff" stroke-width="0.7"></circle></g><g class="key-Eritrea_0"><circle cx="178.00" cy="485.00" r="2.10" fill="#5675c1" opacity="0.8" stroke="#fff" stroke-width="0.7"></circle></g><g class="key-Singapore_0"><circle cx="649.00" cy="393.00" r="2.09" fill="#d14e5b" opacity="0.8" stroke="#333" stroke-width="0.7"></circle></g><g class="key-Norway_0"><circle cx="631.00" cy="341.00" r="2.08" fill="#ffd336" opacity="0.8" stroke="#333" stroke-width="0.7"></circle></g><g class="key-Costa-Rica_0"><circle cx="443.00" cy="354.00" r="2.07" fill="#4d824b" opacity="0.8" stroke="#fff" stroke-width="0.7"></circle></g><g class="key-Ireland_0"><circle cx="589.00" cy="249.00" r="2.06" fill="#ffd336" opacity="0.8" stroke="#fff" stroke-width="0.7"></circle></g><g class="key-Croatia_0"><circle cx="496.00" cy="358.00" r="2.05" fill="#ffd336" opacity="0.8" stroke="#333" stroke-width="0.7"></circle></g><g class="key-New-Zealand_0"><circle cx="552.00" cy="309.00" r="2.05" fill="#a652ba" opacity="0.8" stroke="#fff" stroke-width="0.7"></circle></g><g class="key-Georgia_0"><circle cx="365.00" cy="471.00" r="2.05" fill="#d14e5b" opacity="0.8" stroke="#fff" stroke-width="0.7"></circle></g><g class="key-Lebanon_0"><circle cx="472.00" cy="455.00" r="2.04" fill="#d14e5b" opacity="0.8" stroke="#fff" stroke-width="0.7"></circle></g><g class="key-Congo_0"><circle cx="333.00" cy="470.00" r="2.03" fill="#5675c1" opacity="0.8" stroke="#fff" stroke-width="0.7"></circle></g><g class="key-Liberia_0"><circle cx="93.00" cy="461.00" r="2.03" fill="#5675c1" opacity="0.8" stroke="#333" stroke-width="0.7"></circle></g><g class="key-Bosnia-and-Herzegovina_0"><circle cx="409.00" cy="424.00" r="2.02" fill="#ffd336" opacity="0.8" stroke="#fff" stroke-width="0.7"></circle></g><g class="key-Puerto-Rico_0"><circle cx="558.00" cy="358.00" r="2.02" fill="#4d824b" opacity="0.8" stroke="#333" stroke-width="0.7"></circle></g><g class="key-Panama_0"><circle cx="465.00" cy="423.00" r="2.00" fill="#4d824b" opacity="0.8" stroke="#fff" stroke-width="0.7"></circle></g><g class="key-Mauritania_0"><circle cx="280.00" cy="485.00" r="2.00" fill="#5675c1" opacity="0.8" stroke="#fff" stroke-width="0.7"></circle></g><g class="key-Uruguay_0"><circle cx="476.00" cy="358.00" r="1.99" fill="#69c487" opacity="0.8" stroke="#fff" stroke-width="0.7"></circle></g><g class="key-Lithuania_0"><circle cx="501.00" cy="431.00" r="1.99" fill="#ffd336" opacity="0.8" stroke="#fff" stroke-width="0.7"></circle></g><g class="key-Albania_0"><circle cx="411.00" cy="470.00" r="1.98" fill="#ffd336" opacity="0.8" stroke="#fff" stroke-width="0.7"></circle></g><g class="key-Oman_0"><circle cx="593.00" cy="461.00" r="1.96" fill="#d14e5b" opacity="0.8" stroke="#fff" stroke-width="0.7"></circle></g><g class="key-Jamaica_0"><circle cx="385.00" cy="491.00" r="1.96" fill="#4d824b" opacity="0.8" stroke="#333" stroke-width="0.7"></circle></g><g class="key-Kuwait_0"><circle cx="654.00" cy="92.00" r="1.96" fill="#d14e5b" opacity="0.8" stroke="#333" stroke-width="0.7"></circle></g><g class="key-Namibia_0"><circle cx="392.00" cy="424.00" r="1.93" fill="#5675c1" opacity="0.8" stroke="#fff" stroke-width="0.7"></circle></g><g class="key-Latvia_0"><circle cx="484.00" cy="436.00" r="1.93" fill="#ffd336" opacity="0.8" stroke="#fff" stroke-width="0.7"></circle></g><g class="key-Slovenia_0"><circle cx="538.00" cy="423.00" r="1.91" fill="#ffd336" opacity="0.8" stroke="#fff" stroke-width="0.7"></circle></g><g class="key-Qatar_0"><circle cx="715.00" cy="414.00" r="1.90" fill="#d14e5b" opacity="0.8" stroke="#333" stroke-width="0.7"></circle></g><g class="key-Gambia_0"><circle cx="196.00" cy="483.00" r="1.89" fill="#5675c1" opacity="0.8" stroke="#fff" stroke-width="0.7"></circle></g><g class="key-Guinea__002dBissau_0"><circle cx="177.00" cy="479.00" r="1.88" fill="#5675c1" opacity="0.8" stroke="#fff" stroke-width="0.7"></circle></g><g class="key-Gabon_0"><circle cx="463.00" cy="479.00" r="1.88" fill="#5675c1" opacity="0.8" stroke="#fff" stroke-width="0.7"></circle></g><g class="key-Estonia_0"><circle cx="510.00" cy="404.00" r="1.87" fill="#ffd336" opacity="0.8" stroke="#fff" stroke-width="0.7"></circle></g><g class="key-Mauritius_0"><circle cx="468.00" cy="371.00" r="1.87" fill="#5675c1" opacity="0.8" stroke="#fff" stroke-width="0.7"></circle></g><g class="key-Bahrain_0"><circle cx="580.00" cy="431.00" r="1.86" fill="#d14e5b" opacity="0.8" stroke="#fff" stroke-width="0.7"></circle></g><g class="key-Cyprus_0"><circle cx="558.00" cy="360.00" r="1.85" fill="#ffd336" opacity="0.8" stroke="#fff" stroke-width="0.7"></circle></g><g class="key-Djibouti_0"><circle cx="252.00" cy="449.00" r="1.84" fill="#5675c1" opacity="0.8" stroke="#fff" stroke-width="0.7"></circle></g><g class="key-Fiji_0"><circle cx="375.00" cy="396.00" r="1.84" fill="#a652ba" opacity="0.8" stroke="#333" stroke-width="0.7"></circle></g><g class="key-Guyana_0"><circle cx="348.00" cy="153.00" r="1.83" fill="#69c487" opacity="0.8" stroke="#333" stroke-width="0.7"></circle></g><g class="key-Comoros_0"><circle cx="178.00" cy="389.00" r="1.83" fill="#5675c1" opacity="0.8" stroke="#333" stroke-width="0.7"></circle></g><g class="key-Equatorial-Guinea_0"><circle cx="558.00" cy="424.00" r="1.83" fill="#5675c1" opacity="0.8" stroke="#fff" stroke-width="0.7"></circle></g><g class="key-Montenegro_0"><circle cx="453.00" cy="424.00" r="1.82" fill="#ffd336" opacity="0.8" stroke="#fff" stroke-width="0.7"></circle></g><g class="key-Macao_0"><circle cx="686.00" cy="287.00" r="1.82" fill="#d14e5b" opacity="0.8" stroke="#333" stroke-width="0.7"></circle></g><g class="key-Solomon-Islands_0"><circle cx="211.00" cy="449.00" r="1.82" fill="#a652ba" opacity="0.8" stroke="#fff" stroke-width="0.7"></circle></g><g class="key-Suriname_0"><circle cx="454.00" cy="412.00" r="1.82" fill="#69c487" opacity="0.8" stroke="#fff" stroke-width="0.7"></circle></g><g class="key-Cape-Verde_0"><circle cx="347.00" cy="472.00" r="1.82" fill="#5675c1" opacity="0.8" stroke="#fff" stroke-width="0.7"></circle></g><g class="key-Malta_0"><circle cx="537.00" cy="381.00" r="1.81" fill="#ffd336" opacity="0.8" stroke="#fff" stroke-width="0.7"></circle></g><g class="key-Brunei_0"><circle cx="662.00" cy="496.00" r="1.81" fill="#d14e5b" opacity="0.8" stroke="#333" stroke-width="0.7"></circle></g><g class="key-Bahamas_0"><circle cx="540.00" cy="273.00" r="1.81" fill="#4d824b" opacity="0.8" stroke="#333" stroke-width="0.7"></circle></g><g class="key-Iceland_0"><circle cx="575.00" cy="340.00" r="1.80" fill="#ffd336" opacity="0.8" stroke="#fff" stroke-width="0.7"></circle></g><g class="key-Maldives_0"><circle cx="434.00" cy="315.00" r="1.80" fill="#d14e5b" opacity="0.8" stroke="#333" stroke-width="0.7"></circle></g><g class="key-Belize_0"><circle cx="383.00" cy="407.00" r="1.80" fill="#4d824b" opacity="0.8" stroke="#fff" stroke-width="0.7"></circle></g><g class="key-Barbados_0"><circle cx="471.00" cy="163.00" r="1.80" fill="#4d824b" opacity="0.8" stroke="#333" stroke-width="0.7"></circle></g><g class="key-Vanuatu_0"><circle cx="266.00" cy="331.00" r="1.80" fill="#a652ba" opacity="0.8" stroke="#333" stroke-width="0.7"></circle></g><g class="key-Samoa_0"><circle cx="338.00" cy="449.00" r="1.80" fill="#a652ba" opacity="0.8" stroke="#fff" stroke-width="0.7"></circle></g><g class="key-Saint-Lucia_0"><circle cx="422.00" cy="192.00" r="1.79" fill="#4d824b" opacity="0.8" stroke="#333" stroke-width="0.7"></circle></g><g class="key-Sao-Tome-and-Principe_0"><circle cx="253.00" cy="449.00" r="1.79" fill="#5675c1" opacity="0.8" stroke="#fff" stroke-width="0.7"></circle></g><g class="key-Saint-Vincent-and-the-Grenadines_0"><circle cx="411.00" cy="377.00" r="1.79" fill="#4d824b" opacity="0.8" stroke="#fff" stroke-width="0.7"></circle></g><g class="key-Grenada_0"><circle cx="425.00" cy="313.00" r="1.79" fill="#4d824b" opacity="0.8" stroke="#fff" stroke-width="0.7"></circle></g><g class="key-Tonga_0"><circle cx="329.00" cy="376.00" r="1.79" fill="#a652ba" opacity="0.8" stroke="#333" stroke-width="0.7"></circle></g><g class="key-Kiribati_0"><circle cx="202.00" cy="449.00" r="1.79" fill="#a652ba" opacity="0.8" stroke="#fff" stroke-width="0.7"></circle></g><g class="key-Antigua-and-Barbuda_0"><circle cx="490.00" cy="108.00" r="1.79" fill="#4d824b" opacity="0.8" stroke="#333" stroke-width="0.7"></circle></g><g class="key-Seychelles_0"><circle cx="497.00" cy="293.00" r="1.79" fill="#5675c1" opacity="0.8" stroke="#333" stroke-width="0.7"></circle></g><g class="key-Dominica_0"><circle cx="414.00" cy="421.00" r="1.79" fill="#4d824b" opacity="0.8" stroke="#fff" stroke-width="0.7"></circle></g><g class="key-Bermuda_0"><circle cx="619.00" cy="358.00" r="1.79" fill="#4d824b" opacity="0.8" stroke="#333" stroke-width="0.7"></circle></g><g class="key-Marshall-Islands_0"><circle cx="286.00" cy="395.00" r="1.79" fill="#a652ba" opacity="0.8" stroke="#fff" stroke-width="0.7"></circle></g><g class="key-Saint-Kitts-and-Nevis_0"><circle cx="503.00" cy="111.00" r="1.79" fill="#4d824b" opacity="0.8" stroke="#fff" stroke-width="0.7"></circle></g><g class="key-Palau_0"><circle cx="432.00" cy="424.00" r="1.78" fill="#a652ba" opacity="0.8" stroke="#fff" stroke-width="0.7"></circle></g><g class="key-Nauru_0"><circle cx="362.00" cy="424.00" r="1.78" fill="#a652ba" opacity="0.8" stroke="#333" stroke-width="0.7"></circle></g><g class="key-Tuvalu_0"><circle cx="267.00" cy="424.00" r="1.78" fill="#a652ba" opacity="0.8" stroke="#333" stroke-width="0.7"></circle></g><g class="key-Micronesia-__0028country__0029_0"><circle cx="279.00" cy="449.00" r="1.78" fill="#a652ba" opacity="0.8" stroke="#fff" stroke-width="0.7"></circle></g><g class="key-Palestine_0"><circle cx="307.00" cy="474.00" r="1.78" fill="#d14e5b" opacity="0.8" stroke="#fff" stroke-width="0.7"></circle></g><g class="key-Yemen_0"><circle cx="316.00" cy="449.00" r="1.78" fill="#d14e5b" opacity="0.8" stroke="#fff" stroke-width="0.7"></circle></g><g fill="#333" class="backgroundLabels"><text x="406.00" y="419.16" font-size="14.30">China</text><text x="314.00" y="487.94" font-size="14.01">India</text><text x="603.00" y="297.28" font-size="11.76">United States</text><text x="392.00" y="468.28" font-size="11.59">Indonesia</text><text x="457.00" y="403.00" font-size="11.48">Brazil</text><text x="310.00" y="441.37" font-size="11.43">Pakistan</text><text x="243.00" y="483.83" font-size="11.37">Bangladesh</text><text x="512.00" y="436.94" font-size="11.35">Russia</text><text x="565.00" y="400.26" font-size="11.31">Japan</text><text x="466.00" y="452.54" font-size="11.28">Mexico</text><text x="579.00" y="209.25" font-size="11.20">Germany</text><text x="410.00" y="397.28" font-size="11.20">Egypt</text><text x="482.00" y="418.47" font-size="11.18">Iran</text><text x="482.00" y="376.50" font-size="11.18">Turkey</text><text x="87.00" y="479.68" font-size="11.16">Democratic Republic of Congo</text><text x="567.00" y="374.79" font-size="11.15">United Kingdom</text><text x="566.00" y="424.83" font-size="11.15">Italy</text><text x="433.00" y="360.13" font-size="11.12">South Africa</text><text x="294.00" y="461.20" font-size="11.12">Myanmar</text><text x="553.00" y="337.26" font-size="11.11">Spain</text><text x="383.00" y="444.28" font-size="11.11">Ukraine</text><text x="487.00" y="395.44" font-size="11.10">Argentina</text><text x="505.00" y="448.51" font-size="11.09">Poland</text><text x="580.00" y="450.66" font-size="11.08">Canada</text><text x="441.00" y="444.74" font-size="11.08">Iraq</text><text x="593.00" y="412.90" font-size="11.07">Saudi Arabia</text><text x="126.00" y="499.05" font-size="11.06">Mozambique</text><text x="479.00" y="482.13" font-size="11.05">Romania</text><text x="393.00" y="289.16" font-size="11.05">Sri Lanka</text><text x="349.00" y="470.23" font-size="11.05">Angola</text><text x="593.00" y="248.34" font-size="11.04">Netherlands</text><text x="364.00" y="337.44" font-size="11.04">Guatemala</text><text x="230.00" y="445.53" font-size="11.03">Senegal</text><text x="538.00" y="386.58" font-size="11.03">Greece</text><text x="185.00" y="453.65" font-size="11.02">Haiti</text><text x="586.00" y="479.68" font-size="11.02">Sweden</text><text x="301.00" y="392.77" font-size="11.02">Honduras</text><text x="600.00" y="264.80" font-size="11.02">Hong Kong</text><text x="303.00" y="421.87" font-size="11.01">Nicaragua</text><text x="649.00" y="389.91" font-size="11.01">Singapore</text><text x="631.00" y="337.92" font-size="11.01">Norway</text><text x="496.00" y="354.95" font-size="11.01">Croatia</text><text x="93.00" y="457.97" font-size="11.01">Liberia</text><text x="558.00" y="354.98" font-size="11.01">Puerto Rico</text><text x="385.00" y="488.04" font-size="11.01">Jamaica</text><text x="654.00" y="103.11" font-size="11.01">Kuwait</text><text x="687.38" y="411.10" font-size="11.00">Qatar</text><text x="375.00" y="393.16" font-size="11.00">Fiji</text><text x="348.00" y="150.17" font-size="11.00">Guyana</text><text x="178.00" y="386.17" font-size="11.00">Comoros</text><text x="652.89" y="284.18" font-size="11.00">Macao</text><text x="662.00" y="493.19" font-size="11.00">Brunei</text><text x="540.00" y="270.19" font-size="11.00">Bahamas</text><text x="434.00" y="312.20" font-size="11.00">Maldives</text><text x="471.00" y="160.20" font-size="11.00">Barbados</text><text x="266.00" y="328.20" font-size="11.00">Vanuatu</text><text x="422.00" y="189.21" font-size="11.00">Saint Lucia</text><text x="329.00" y="373.21" font-size="11.00">Tonga</text><text x="490.00" y="105.21" font-size="11.00">Antigua and Barbuda</text><text x="497.00" y="290.21" font-size="11.00">Seychelles</text><text x="619.00" y="355.21" font-size="11.00">Bermuda</text><text x="362.00" y="421.22" font-size="11.00">Nauru</text><text x="267.00" y="421.22" font-size="11.00">Tuvalu</text></g></g><g style="cursor: pointer;" class="ScatterColorLegend clickable"><g class="legendMark"><rect x="735" y="89.6" width="43.256" height="17.6" fill="#fff" opacity="0"></rect>,<rect x="735" y="95.1" width="6" height="6" fill="#5675c1"></rect>,<text font-size="12.60" x="746.0" y="102.2"><tspan x="746" y="102.17999999999999">Africa</tspan></text></g><g class="legendMark"><rect x="735" y="107.19999999999999" width="35.57" height="17.6" fill="#fff" opacity="0"></rect>,<rect x="735" y="112.69999999999999" width="6" height="6" fill="#d14e5b"></rect>,<text font-size="12.60" x="746.0" y="119.8"><tspan x="746" y="119.77999999999999">Asia</tspan></text></g><g class="legendMark"><rect x="735" y="124.8" width="51.824" height="17.6" fill="#fff" opacity="0"></rect>,<rect x="735" y="130.3" width="6" height="6" fill="#ffd336"></rect>,<text font-size="12.60" x="746.0" y="137.4"><tspan x="746" y="137.38">Europe</tspan></text></g><g class="legendMark"><rect x="735" y="142.4" width="91.64" height="17.6" fill="#fff" opacity="0"></rect>,<rect x="735" y="147.9" width="6" height="6" fill="#4d824b"></rect>,<text font-size="12.60" x="746.0" y="155.0"><tspan x="746" y="154.98">North America</tspan></text></g><g class="legendMark"><rect x="735" y="160" width="58.124" height="17.6" fill="#fff" opacity="0"></rect>,<rect x="735" y="165.5" width="6" height="6" fill="#a652ba"></rect>,<text font-size="12.60" x="746.0" y="172.6"><tspan x="746" y="172.57999999999998">Oceania</tspan></text></g><g class="legendMark"><rect x="735" y="177.6" width="93.908" height="17.6" fill="#fff" opacity="0"></rect>,<rect x="735" y="183.1" width="6" height="6" fill="#69c487"></rect>,<text font-size="12.60" x="746.0" y="190.2"><tspan x="746" y="190.17999999999998">South America</tspan></text></g></g></g><g style="fill: #777;" class="SourcesFooter"><g style="fill: #777;" class="clickable"><text font-size="12.60" x="15.0" y="581.6"><tspan x="15" y="581.58">Source: Jambeck et al. (2015) &amp; World Bank – WDI</tspan></text></g><text font-size="12.60" x="775.4" y="581.6"><tspan x="775.402" y="581.58"><a style="fill: #777;" class="cclogo" href="http://creativecommons.org/licenses/by-sa/4.0/deed.en_US" target="_blank">CC BY-SA</a></tspan></text></g></g></svg>