<svg xmlns="http://www.w3.org/2000/svg" version="1.1" style="font-family:&#x27;Helvetica Neue&#x27;, Helvetica, Arial, sans-serif;font-size:18px;background-color:white;text-rendering:optimizeLegibility;-webkit-font-smoothing:antialiased" width="850" height="600"><g class="HeaderView"><g opacity="0.8" transform="translate(774, 15) scale(0.29)"><svg width="210" height="120" viewBox="0 0 210 120" fill="none" xmlns="http://www.w3.org/2000/svg">
    <a xmlns:xlink="http://www.w3.org/1999/xlink" xlink:href="https://ourworldindata.org" target="_blank">
        <g clip-path="url(#clip0)">
            <path d="M0 0H210V107.89H0V0Z" fill="#002147"/>
            <path d="M40.9788 32.248C40.9788 34.6093 40.6048 36.78 39.8568 38.76C39.1088 40.7253 38.0528 42.4193 36.6888 43.842C35.3248 45.2647 33.6821 46.372 31.7608 47.164C29.8541 47.9413 27.7421 48.33 25.4248 48.33C23.1074 48.33 20.9954 47.9413 19.0888 47.164C17.1821 46.372 15.5468 45.2647 14.1828 43.842C12.8188 42.4193 11.7628 40.7253 11.0148 38.76C10.2668 36.78 9.89277 34.6093 9.89277 32.248C9.89277 29.8867 10.2668 27.7233 11.0148 25.758C11.7628 23.778 12.8188 22.0767 14.1828 20.654C15.5468 19.2167 17.1821 18.102 19.0888 17.31C20.9954 16.518 23.1074 16.122 25.4248 16.122C27.7421 16.122 29.8541 16.518 31.7608 17.31C33.6821 18.102 35.3248 19.2167 36.6888 20.654C38.0528 22.0767 39.1088 23.778 39.8568 25.758C40.6048 27.7233 40.9788 29.8867 40.9788 32.248ZM36.6008 32.248C36.6008 30.312 36.3368 28.574 35.8088 27.034C35.2808 25.494 34.5328 24.196 33.5648 23.14C32.5968 22.0693 31.4234 21.248 30.0448 20.676C28.6661 20.104 27.1261 19.818 25.4248 19.818C23.7381 19.818 22.2054 20.104 20.8268 20.676C19.4481 21.248 18.2674 22.0693 17.2848 23.14C16.3168 24.196 15.5688 25.494 15.0408 27.034C14.5128 28.574 14.2488 30.312 14.2488 32.248C14.2488 34.184 14.5128 35.922 15.0408 37.462C15.5688 38.9873 16.3168 40.2853 17.2848 41.356C18.2674 42.412 19.4481 43.226 20.8268 43.798C22.2054 44.3553 23.7381 44.634 25.4248 44.634C27.1261 44.634 28.6661 44.3553 30.0448 43.798C31.4234 43.226 32.5968 42.412 33.5648 41.356C34.5328 40.2853 35.2808 38.9873 35.8088 37.462C36.3368 35.922 36.6008 34.184 36.6008 32.248ZM62.8234 25.714V48H60.4914C59.9341 48 59.5821 47.7287 59.4354 47.186L59.1274 44.788C58.1594 45.8587 57.0741 46.724 55.8714 47.384C54.6687 48.0293 53.2901 48.352 51.7354 48.352C50.5181 48.352 49.4401 48.154 48.5014 47.758C47.5774 47.3473 46.8001 46.7753 46.1694 46.042C45.5387 45.3087 45.0621 44.4213 44.7394 43.38C44.4314 42.3387 44.2774 41.1873 44.2774 39.926V25.714H48.1934V39.926C48.1934 41.6127 48.5747 42.918 49.3374 43.842C50.1147 44.766 51.2954 45.228 52.8794 45.228C54.0381 45.228 55.1161 44.9567 56.1134 44.414C57.1254 43.8567 58.0567 43.094 58.9074 42.126V25.714H62.8234ZM71.4305 30.18C72.1346 28.6547 72.9999 27.4667 74.0266 26.616C75.0532 25.7507 76.3072 25.318 77.7886 25.318C78.2579 25.318 78.7052 25.3693 79.1306 25.472C79.5706 25.5747 79.9592 25.736 80.2966 25.956L80.0106 28.882C79.9226 29.2487 79.7026 29.432 79.3506 29.432C79.1452 29.432 78.8446 29.388 78.4486 29.3C78.0526 29.212 77.6052 29.168 77.1066 29.168C76.4026 29.168 75.7719 29.2707 75.2146 29.476C74.6719 29.6813 74.1806 29.9893 73.7406 30.4C73.3152 30.796 72.9266 31.2947 72.5746 31.896C72.2372 32.4827 71.9292 33.1573 71.6506 33.92V48H67.7125V25.714H69.9566C70.3819 25.714 70.6752 25.7947 70.8366 25.956C70.9979 26.1173 71.1079 26.396 71.1666 26.792L71.4305 30.18ZM132.589 16.474L122.755 48H118.927L110.941 23.954C110.867 23.7193 110.794 23.47 110.721 23.206C110.662 22.942 110.596 22.6633 110.523 22.37C110.449 22.6633 110.376 22.942 110.303 23.206C110.23 23.47 110.156 23.7193 110.083 23.954L102.053 48H98.2248L88.3908 16.474H91.9328C92.3142 16.474 92.6295 16.5693 92.8788 16.76C93.1428 16.9507 93.3115 17.1927 93.3848 17.486L99.8968 39.398C99.9995 39.794 100.095 40.2193 100.183 40.674C100.285 41.1287 100.381 41.6127 100.469 42.126C100.571 41.6127 100.674 41.1287 100.777 40.674C100.894 40.2047 101.019 39.7793 101.151 39.398L108.565 17.486C108.653 17.2367 108.821 17.0093 109.071 16.804C109.335 16.584 109.65 16.474 110.017 16.474H111.249C111.63 16.474 111.938 16.5693 112.173 16.76C112.407 16.9507 112.583 17.1927 112.701 17.486L120.093 39.398C120.225 39.7793 120.342 40.19 120.445 40.63C120.562 41.07 120.672 41.532 120.775 42.016C120.848 41.532 120.929 41.07 121.017 40.63C121.105 40.19 121.2 39.7793 121.303 39.398L127.837 17.486C127.91 17.222 128.072 16.9873 128.321 16.782C128.585 16.5767 128.9 16.474 129.267 16.474H132.589ZM141.94 25.362C143.568 25.362 145.034 25.6333 146.34 26.176C147.645 26.7187 148.76 27.4887 149.684 28.486C150.608 29.4833 151.312 30.6933 151.796 32.116C152.294 33.524 152.544 35.1007 152.544 36.846C152.544 38.606 152.294 40.19 151.796 41.598C151.312 43.006 150.608 44.2087 149.684 45.206C148.76 46.2033 147.645 46.9733 146.34 47.516C145.034 48.044 143.568 48.308 141.94 48.308C140.297 48.308 138.816 48.044 137.496 47.516C136.19 46.9733 135.076 46.2033 134.152 45.206C133.228 44.2087 132.516 43.006 132.018 41.598C131.534 40.19 131.292 38.606 131.292 36.846C131.292 35.1007 131.534 33.524 132.018 32.116C132.516 30.6933 133.228 29.4833 134.152 28.486C135.076 27.4887 136.19 26.7187 137.496 26.176C138.816 25.6333 140.297 25.362 141.94 25.362ZM141.94 45.25C144.14 45.25 145.782 44.5167 146.868 43.05C147.953 41.5687 148.496 39.508 148.496 36.868C148.496 34.2133 147.953 32.1453 146.868 30.664C145.782 29.1827 144.14 28.442 141.94 28.442C140.825 28.442 139.85 28.6327 139.014 29.014C138.192 29.3953 137.503 29.9453 136.946 30.664C136.403 31.3827 135.992 32.27 135.714 33.326C135.45 34.3673 135.318 35.548 135.318 36.868C135.318 39.508 135.86 41.5687 136.946 43.05C138.046 44.5167 139.71 45.25 141.94 45.25ZM159.908 30.18C160.612 28.6547 161.478 27.4667 162.504 26.616C163.531 25.7507 164.785 25.318 166.266 25.318C166.736 25.318 167.183 25.3693 167.608 25.472C168.048 25.5747 168.437 25.736 168.774 25.956L168.488 28.882C168.4 29.2487 168.18 29.432 167.828 29.432C167.623 29.432 167.322 29.388 166.926 29.3C166.53 29.212 166.083 29.168 165.584 29.168C164.88 29.168 164.25 29.2707 163.692 29.476C163.15 29.6813 162.658 29.9893 162.218 30.4C161.793 30.796 161.404 31.2947 161.052 31.896C160.715 32.4827 160.407 33.1573 160.128 33.92V48H156.19V25.714H158.434C158.86 25.714 159.153 25.7947 159.314 25.956C159.476 26.1173 159.586 26.396 159.644 26.792L159.908 30.18ZM174.946 15.594V48H171.03V15.594H174.946ZM194.496 31.016C193.763 30.0333 192.971 29.3513 192.12 28.97C191.269 28.574 190.316 28.376 189.26 28.376C187.192 28.376 185.601 29.1167 184.486 30.598C183.371 32.0793 182.814 34.1913 182.814 36.934C182.814 38.386 182.939 39.6327 183.188 40.674C183.437 41.7007 183.804 42.5513 184.288 43.226C184.772 43.886 185.366 44.37 186.07 44.678C186.774 44.986 187.573 45.14 188.468 45.14C189.759 45.14 190.881 44.8467 191.834 44.26C192.802 43.6733 193.689 42.8447 194.496 41.774V31.016ZM198.412 15.594V48H196.08C195.523 48 195.171 47.7287 195.024 47.186L194.672 44.48C193.719 45.624 192.633 46.548 191.416 47.252C190.199 47.956 188.791 48.308 187.192 48.308C185.916 48.308 184.757 48.066 183.716 47.582C182.675 47.0833 181.787 46.3573 181.054 45.404C180.321 44.4507 179.756 43.2627 179.36 41.84C178.964 40.4173 178.766 38.782 178.766 36.934C178.766 35.2913 178.986 33.766 179.426 32.358C179.866 30.9353 180.497 29.7033 181.318 28.662C182.139 27.6207 183.144 26.8067 184.332 26.22C185.535 25.6187 186.884 25.318 188.38 25.318C189.744 25.318 190.91 25.5527 191.878 26.022C192.861 26.4767 193.733 27.1147 194.496 27.936V15.594H198.412ZM46.6139 70.714V93H42.6979V70.714H46.6139ZM47.4499 63.718C47.4499 64.0993 47.3692 64.4587 47.2079 64.796C47.0612 65.1187 46.8559 65.412 46.5919 65.676C46.3425 65.9253 46.0419 66.1233 45.6899 66.27C45.3525 66.4167 44.9932 66.49 44.6119 66.49C44.2305 66.49 43.8712 66.4167 43.5339 66.27C43.2112 66.1233 42.9252 65.9253 42.6759 65.676C42.4265 65.412 42.2285 65.1187 42.0819 64.796C41.9352 64.4587 41.8619 64.0993 41.8619 63.718C41.8619 63.3367 41.9352 62.9773 42.0819 62.64C42.2285 62.288 42.4265 61.9873 42.6759 61.738C42.9252 61.474 43.2112 61.2687 43.5339 61.122C43.8712 60.9753 44.2305 60.902 44.6119 60.902C44.9932 60.902 45.3525 60.9753 45.6899 61.122C46.0419 61.2687 46.3425 61.474 46.5919 61.738C46.8559 61.9873 47.0612 62.288 47.2079 62.64C47.3692 62.9773 47.4499 63.3367 47.4499 63.718ZM55.4242 73.948C55.9082 73.4053 56.4215 72.914 56.9642 72.474C57.5068 72.034 58.0788 71.66 58.6802 71.352C59.2962 71.0293 59.9415 70.7873 60.6162 70.626C61.3055 70.45 62.0462 70.362 62.8382 70.362C64.0555 70.362 65.1262 70.5673 66.0502 70.978C66.9888 71.374 67.7662 71.946 68.3822 72.694C69.0128 73.4273 69.4895 74.3147 69.8122 75.356C70.1348 76.3973 70.2962 77.5487 70.2962 78.81V93H66.3582V78.81C66.3582 77.1233 65.9695 75.818 65.1922 74.894C64.4295 73.9553 63.2635 73.486 61.6942 73.486C60.5355 73.486 59.4502 73.7647 58.4382 74.322C57.4408 74.8793 56.5168 75.6347 55.6662 76.588V93H51.7282V70.714H54.0822C54.6395 70.714 54.9842 70.9853 55.1162 71.528L55.4242 73.948ZM113.129 77.248C113.129 79.6093 112.755 81.758 112.007 83.694C111.259 85.63 110.203 87.2873 108.839 88.666C107.475 90.0447 105.832 91.1153 103.911 91.878C102.004 92.626 99.8925 93 97.5751 93H85.8051V61.474H97.5751C99.8925 61.474 102.004 61.8553 103.911 62.618C105.832 63.366 107.475 64.4367 108.839 65.83C110.203 67.2087 111.259 68.866 112.007 70.802C112.755 72.738 113.129 74.8867 113.129 77.248ZM108.751 77.248C108.751 75.312 108.487 73.5813 107.959 72.056C107.431 70.5307 106.683 69.24 105.715 68.184C104.747 67.128 103.574 66.3213 102.195 65.764C100.816 65.2067 99.2765 64.928 97.5751 64.928H90.0731V89.546H97.5751C99.2765 89.546 100.816 89.2673 102.195 88.71C103.574 88.1527 104.747 87.3533 105.715 86.312C106.683 85.256 107.431 83.9653 107.959 82.44C108.487 80.9147 108.751 79.184 108.751 77.248ZM128.553 82.968C126.749 83.0267 125.209 83.1733 123.933 83.408C122.672 83.628 121.638 83.9213 120.831 84.288C120.039 84.6547 119.46 85.0873 119.093 85.586C118.741 86.0847 118.565 86.642 118.565 87.258C118.565 87.8447 118.661 88.3507 118.851 88.776C119.042 89.2013 119.299 89.5533 119.621 89.832C119.959 90.096 120.347 90.294 120.787 90.426C121.242 90.5433 121.726 90.602 122.239 90.602C122.929 90.602 123.559 90.536 124.131 90.404C124.703 90.2573 125.239 90.052 125.737 89.788C126.251 89.524 126.735 89.2087 127.189 88.842C127.659 88.4753 128.113 88.0573 128.553 87.588V82.968ZM115.903 73.86C117.135 72.672 118.463 71.7847 119.885 71.198C121.308 70.6113 122.885 70.318 124.615 70.318C125.862 70.318 126.969 70.5233 127.937 70.934C128.905 71.3447 129.719 71.9167 130.379 72.65C131.039 73.3833 131.538 74.2707 131.875 75.312C132.213 76.3533 132.381 77.4973 132.381 78.744V93H130.643C130.262 93 129.969 92.9413 129.763 92.824C129.558 92.692 129.397 92.4427 129.279 92.076L128.839 89.964C128.253 90.5067 127.681 90.9907 127.123 91.416C126.566 91.8267 125.979 92.1787 125.363 92.472C124.747 92.7507 124.087 92.9633 123.383 93.11C122.694 93.2713 121.924 93.352 121.073 93.352C120.208 93.352 119.394 93.2347 118.631 93C117.869 92.7507 117.201 92.384 116.629 91.9C116.072 91.416 115.625 90.8073 115.287 90.074C114.965 89.326 114.803 88.446 114.803 87.434C114.803 86.554 115.045 85.7107 115.529 84.904C116.013 84.0827 116.798 83.3567 117.883 82.726C118.969 82.0953 120.384 81.582 122.129 81.186C123.875 80.7753 126.016 80.5407 128.553 80.482V78.744C128.553 77.0133 128.179 75.708 127.431 74.828C126.683 73.9333 125.591 73.486 124.153 73.486C123.185 73.486 122.371 73.6107 121.711 73.86C121.066 74.0947 120.501 74.366 120.017 74.674C119.548 74.9673 119.137 75.2387 118.785 75.488C118.448 75.7227 118.111 75.84 117.773 75.84C117.509 75.84 117.282 75.774 117.091 75.642C116.901 75.4953 116.739 75.3193 116.607 75.114L115.903 73.86ZM143.568 93.352C141.808 93.352 140.451 92.8607 139.498 91.878C138.559 90.8953 138.09 89.48 138.09 87.632V73.992H135.406C135.171 73.992 134.973 73.926 134.812 73.794C134.65 73.6473 134.57 73.4273 134.57 73.134V71.572L138.222 71.11L139.124 64.224C139.168 64.004 139.263 63.828 139.41 63.696C139.571 63.5493 139.776 63.476 140.026 63.476H142.006V71.154H148.452V73.992H142.006V87.368C142.006 88.3067 142.233 89.0033 142.688 89.458C143.142 89.9127 143.729 90.14 144.448 90.14C144.858 90.14 145.21 90.0887 145.504 89.986C145.812 89.8687 146.076 89.744 146.296 89.612C146.516 89.48 146.699 89.3627 146.846 89.26C147.007 89.1427 147.146 89.084 147.264 89.084C147.469 89.084 147.652 89.2087 147.814 89.458L148.958 91.328C148.283 91.9587 147.469 92.4573 146.516 92.824C145.562 93.176 144.58 93.352 143.568 93.352ZM163.253 82.968C161.449 83.0267 159.909 83.1733 158.633 83.408C157.372 83.628 156.338 83.9213 155.531 84.288C154.739 84.6547 154.16 85.0873 153.793 85.586C153.441 86.0847 153.265 86.642 153.265 87.258C153.265 87.8447 153.36 88.3507 153.551 88.776C153.742 89.2013 153.998 89.5533 154.321 89.832C154.658 90.096 155.047 90.294 155.487 90.426C155.942 90.5433 156.426 90.602 156.939 90.602C157.628 90.602 158.259 90.536 158.831 90.404C159.403 90.2573 159.938 90.052 160.437 89.788C160.95 89.524 161.434 89.2087 161.889 88.842C162.358 88.4753 162.813 88.0573 163.253 87.588V82.968ZM150.603 73.86C151.835 72.672 153.162 71.7847 154.585 71.198C156.008 70.6113 157.584 70.318 159.315 70.318C160.562 70.318 161.669 70.5233 162.637 70.934C163.605 71.3447 164.419 71.9167 165.079 72.65C165.739 73.3833 166.238 74.2707 166.575 75.312C166.912 76.3533 167.081 77.4973 167.081 78.744V93H165.343C164.962 93 164.668 92.9413 164.463 92.824C164.258 92.692 164.096 92.4427 163.979 92.076L163.539 89.964C162.952 90.5067 162.38 90.9907 161.823 91.416C161.266 91.8267 160.679 92.1787 160.063 92.472C159.447 92.7507 158.787 92.9633 158.083 93.11C157.394 93.2713 156.624 93.352 155.773 93.352C154.908 93.352 154.094 93.2347 153.331 93C152.568 92.7507 151.901 92.384 151.329 91.9C150.772 91.416 150.324 90.8073 149.987 90.074C149.664 89.326 149.503 88.446 149.503 87.434C149.503 86.554 149.745 85.7107 150.229 84.904C150.713 84.0827 151.498 83.3567 152.583 82.726C153.668 82.0953 155.084 81.582 156.829 81.186C158.574 80.7753 160.716 80.5407 163.253 80.482V78.744C163.253 77.0133 162.879 75.708 162.131 74.828C161.383 73.9333 160.29 73.486 158.853 73.486C157.885 73.486 157.071 73.6107 156.411 73.86C155.766 74.0947 155.201 74.366 154.717 74.674C154.248 74.9673 153.837 75.2387 153.485 75.488C153.148 75.7227 152.81 75.84 152.473 75.84C152.209 75.84 151.982 75.774 151.791 75.642C151.6 75.4953 151.439 75.3193 151.307 75.114L150.603 73.86Z" fill="white"/>
            <rect y="106.789" width="210" height="13.211" fill="#D42B21"/>
        </g>
        <defs>
            <clipPath id="clip0">
                <rect width="210" height="120" fill="white"/>
            </clipPath>
        </defs>
    </a>
</svg></g><a href="https://mispytest-owid.netlify.com/grapher/population-growth-by-world-region-the-annual-change-of-the-population" target="_blank"><text font-size="22.50" x="15.0" y="33.0" fill="#555"><tspan x="15" y="33">Population growth by world region: The annual change of the population</tspan></text></a></g><g class="LineChart"><defs><clipPath id="boundsClip-1022"><rect x="83.872" y="0" width="830" height="973"></rect></clipPath></defs><g class="AxisBoxView"><g class="HorizontalAxis"><text x="93.9" y="556.5" fill="#666" text-anchor="middle" font-size="16.2">1950</text><text x="190.1" y="556.5" fill="#666" text-anchor="middle" font-size="16.2">1980</text><text x="254.3" y="556.5" fill="#666" text-anchor="middle" font-size="16.2">2000</text><text x="318.4" y="556.5" fill="#666" text-anchor="middle" font-size="16.2">2020</text><text x="382.6" y="556.5" fill="#666" text-anchor="middle" font-size="16.2">2040</text><text x="446.7" y="556.5" fill="#666" text-anchor="middle" font-size="16.2">2060</text><text x="510.9" y="556.5" fill="#666" text-anchor="middle" font-size="16.2">2080</text><text x="571.9" y="556.5" fill="#666" text-anchor="middle" font-size="16.2">2099</text></g><g class="VerticalAxis"><text x="88.87" y="504.3" fill="#666" dominant-baseline="middle" text-anchor="end" font-size="16.2">-10 million</text><text x="88.87" y="444.1" fill="#666" dominant-baseline="middle" text-anchor="end" font-size="16.2">0</text><text x="88.87" y="383.8" fill="#666" dominant-baseline="middle" text-anchor="end" font-size="16.2">10 million</text><text x="88.87" y="323.6" fill="#666" dominant-baseline="middle" text-anchor="end" font-size="16.2">20 million</text><text x="88.87" y="263.4" fill="#666" dominant-baseline="middle" text-anchor="end" font-size="16.2">30 million</text><text x="88.87" y="203.1" fill="#666" dominant-baseline="middle" text-anchor="end" font-size="16.2">40 million</text><text x="88.87" y="142.9" fill="#666" dominant-baseline="middle" text-anchor="end" font-size="16.2">50 million</text><text x="88.87" y="82.7" fill="#666" dominant-baseline="middle" text-anchor="end" font-size="16.2">60 million</text></g><g class="AxisGridLines"><line x1="93.87" y1="504.3" x2="571.85" y2="504.3" stroke="#ddd" stroke-dasharray="3,2"></line><line x1="93.87" y1="444.1" x2="571.85" y2="444.1" stroke="#ccc"></line><line x1="93.87" y1="383.8" x2="571.85" y2="383.8" stroke="#ddd" stroke-dasharray="3,2"></line><line x1="93.87" y1="323.6" x2="571.85" y2="323.6" stroke="#ddd" stroke-dasharray="3,2"></line><line x1="93.87" y1="263.4" x2="571.85" y2="263.4" stroke="#ddd" stroke-dasharray="3,2"></line><line x1="93.87" y1="203.1" x2="571.85" y2="203.1" stroke="#ddd" stroke-dasharray="3,2"></line><line x1="93.87" y1="142.9" x2="571.85" y2="142.9" stroke="#ddd" stroke-dasharray="3,2"></line><line x1="93.87" y1="82.7" x2="571.85" y2="82.7" stroke="#ddd" stroke-dasharray="3,2"></line></g></g><g clip-path="url(#boundsClip-1022)"><g class="HeightedLegend clickable"><g class="legendMark"><g class="indicator"><line x1="576.85" y1="535.3" x2="589.35" y2="535.3" stroke="#666" stroke-width="0.5"></line><line x1="589.35" y1="535.3" x2="589.35" y2="521.2499999999999" stroke="#666" stroke-width="0.5"></line><line x1="589.35" y1="521.2499999999999" x2="601.85" y2="521.2499999999999" stroke="#666" stroke-width="0.5"></line></g><rect x="571.85" y="507.19999999999993" width="214.82000000000002" height="28.1" fill="#fff" opacity="0"></rect><text font-size="13.50" x="606.9" y="518.0" fill="#932834"><tspan x="606.85" y="517.9999999999999">-15.15 million Asia - Projected</tspan><tspan x="606.85" y="532.8499999999999">population change</tspan></text></g><g class="legendMark"><g class="indicator"><line x1="576.85" y1="460.6" x2="599.35" y2="460.6" stroke="#666" stroke-width="0.5"></line><line x1="599.35" y1="460.6" x2="599.35" y2="460.6" stroke="#666" stroke-width="0.5"></line><line x1="599.35" y1="460.6" x2="601.85" y2="460.6" stroke="#666" stroke-width="0.5"></line></g><rect x="571.85" y="439.25" width="243.57500000000002" height="42.7" fill="#fff" opacity="0"></rect><text font-size="13.50" x="606.9" y="450.1" fill="#9ecc8a"><tspan x="606.85" y="450.05">-2.75 million Latin America and the</tspan><tspan x="606.85" y="464.90000000000003">Caribbean - Projected population</tspan><tspan x="606.85" y="479.75">change</tspan></text></g><g class="legendMark"><g class="indicator"><line x1="576.85" y1="448.7" x2="594.35" y2="448.7" stroke="#666" stroke-width="0.5"></line><line x1="594.35" y1="448.7" x2="594.35" y2="423.2" stroke="#666" stroke-width="0.5"></line><line x1="594.35" y1="423.2" x2="601.85" y2="423.2" stroke="#666" stroke-width="0.5"></line></g><rect x="571.85" y="409.15" width="205.37" height="28.1" fill="#fff" opacity="0"></rect><text font-size="13.50" x="606.9" y="419.9" fill="#f6a324"><tspan x="606.85" y="419.95">-764,606 Europe - Projected</tspan><tspan x="606.85" y="434.8">population change</tspan></text></g><g class="legendMark"><g class="indicator"><line x1="576.85" y1="443.1" x2="589.35" y2="443.1" stroke="#666" stroke-width="0.5"></line><line x1="589.35" y1="443.1" x2="589.35" y2="393.09999999999997" stroke="#666" stroke-width="0.5"></line><line x1="589.35" y1="393.09999999999997" x2="601.85" y2="393.09999999999997" stroke="#666" stroke-width="0.5"></line></g><rect x="571.85" y="379.04999999999995" width="207.66500000000002" height="28.1" fill="#fff" opacity="0"></rect><text font-size="13.50" x="606.9" y="389.8" fill="#a652ba"><tspan x="606.85" y="389.84999999999997">157,745 Oceania - Projected</tspan><tspan x="606.85" y="404.7">population change</tspan></text></g><g class="legendMark"><g class="indicator"><line x1="576.85" y1="439.3" x2="584.35" y2="439.3" stroke="#666" stroke-width="0.5"></line><line x1="584.35" y1="439.3" x2="584.35" y2="362.99999999999994" stroke="#666" stroke-width="0.5"></line><line x1="584.35" y1="362.99999999999994" x2="601.85" y2="362.99999999999994" stroke="#666" stroke-width="0.5"></line></g><rect x="571.85" y="348.94999999999993" width="263.15" height="28.1" fill="#fff" opacity="0"></rect><text font-size="13.50" x="606.9" y="359.7" fill="#e6332e"><tspan x="606.85" y="359.74999999999994">796,778 Northern America - Projected</tspan><tspan x="606.85" y="374.59999999999997">population change</tspan></text></g><g class="legendMark"><g class="indicator"><line x1="576.85" y1="273.9" x2="589.35" y2="273.9" stroke="#666" stroke-width="0.5"></line><line x1="589.35" y1="273.9" x2="589.35" y2="273.9" stroke="#666" stroke-width="0.5"></line><line x1="589.35" y1="273.9" x2="601.85" y2="273.9" stroke="#666" stroke-width="0.5"></line></g><rect x="571.85" y="259.84999999999997" width="218.60000000000002" height="28.1" fill="#fff" opacity="0"></rect><text font-size="13.50" x="606.9" y="270.6" fill="#3360a9"><tspan x="606.85" y="270.65">28.26 million Africa - Projected</tspan><tspan x="606.85" y="285.5">population change</tspan></text></g></g><g class="Lines"><rect x="94" y="70" width="478" height="465" fill="rgba(255,255,255,0)" opacity="0"></rect><g class="key-Africa_0"><path stroke="#3360a9" stroke-linecap="round" d="M94 417L97 416L100 414L104 413L107 412L110 410L113 409L116 407L120 406L123 404L126 403L129 401L132 400L136 398L139 397L142 395L145 394L148 392L152 390L155 389L158 387L161 385L164 383L168 381L171 379L174 376L177 373L181 371L184 368L187 365L190 363L193 360L197 358L200 355L203 353L206 351L209 348L213 346L216 345L219 343L222 341L225 340L229 338L232 337L235 336L238 334L241 333L245 332L248 329L251 327L254 324L258 320L261 317L264 313L267 309L270 305L274 301L277 297L280 292L283 287L286 281L290 276L293 271L296 267L299 263L302 261" fill="none" stroke-width="1.5"></path></g><g class="key-Africa_1"><path stroke="#3360a9" stroke-linecap="round" d="M302 261L306 258L309 255L312 252L315 249L318 246L322 244L325 241L328 238L331 236L335 233L338 230L341 227L344 224L347 221L351 218L354 216L357 213L360 210L363 207L367 205L370 202L373 200L376 198L379 196L383 194L386 192L389 190L392 189L395 187L399 186L402 185L405 184L408 183L412 183L415 182L418 181L421 181L424 181L428 181L431 181L434 181L437 181L440 181L444 181L447 182L450 182L453 183L456 183L460 184L463 185L466 186L469 187L472 188L476 189L479 191L482 192L485 194L488 196L492 198L495 200L498 202L501 204L505 207L508 209L511 212L514 214L517 217L521 220L524 223L527 226L530 229L533 232L537 235L540 238L543 242L546 245L549 248L553 252L556 255L559 259L562 263L565 266L569 270L572 274" fill="none" stroke-width="1.5" stroke-dasharray="1,4"></path></g><g class="key-Asia_0"><path stroke="#932834" stroke-linecap="round" d="M94 263L97 266L100 275L104 278L107 278L110 274L113 269L116 262L120 255L123 248L126 241L129 233L132 223L136 210L139 195L142 178L145 162L148 148L152 139L155 135L158 134L161 133L164 133L168 135L171 138L174 142L177 146L181 149L184 147L187 142L190 135L193 128L197 121L200 111L203 100L206 89L209 77L213 70L216 71L219 79L222 92L225 106L229 118L232 128L235 135L238 141L241 147L245 153L248 157L251 159L254 160L258 161L261 162L264 163L267 164L270 165L274 166L277 167L280 167L283 168L286 168L290 168L293 170L296 173L299 178L302 183" fill="none" stroke-width="1.5"></path></g><g class="key-Asia_1"><path stroke="#932834" stroke-linecap="round" d="M302 183L306 190L309 196L312 202L315 208L318 215L322 221L325 228L328 235L331 242L335 249L338 257L341 264L344 271L347 278L351 285L354 292L357 299L360 306L363 312L367 319L370 326L373 333L376 339L379 345L383 352L386 358L389 364L392 370L395 376L399 382L402 389L405 395L408 401L412 407L415 413L418 419L421 426L424 431L428 437L431 443L434 449L437 454L440 459L444 464L447 469L450 473L453 477L456 481L460 485L463 488L466 492L469 495L472 498L476 501L479 504L482 506L485 509L488 511L492 513L495 515L498 518L501 519L505 521L508 523L511 524L514 526L517 527L521 528L524 529L527 529L530 530L533 530L537 531L540 531L543 532L546 532L549 533L553 533L556 533L559 534L562 534L565 534L569 535L572 535" fill="none" stroke-width="1.5" stroke-dasharray="1,4"></path></g><g class="key-Europe_1"><path stroke="#f6a324" stroke-linecap="round" d="M302 440L306 440L309 440L312 441L315 442L318 443L322 444L325 445L328 446L331 446L335 447L338 447L341 448L344 448L347 449L351 449L354 450L357 450L360 450L363 450L367 451L370 451L373 451L376 451L379 451L383 451L386 451L389 451L392 452L395 452L399 452L402 452L405 452L408 453L412 453L415 453L418 453L421 454L424 454L428 454L431 455L434 455L437 455L440 455L444 455L447 455L450 455L453 455L456 455L460 455L463 455L466 455L469 454L472 454L476 454L479 453L482 453L485 453L488 452L492 452L495 452L498 451L501 451L505 451L508 450L511 450L514 450L517 449L521 449L524 449L527 449L530 449L533 448L537 448L540 448L543 448L546 448L549 448L553 448L556 448L559 448L562 448L565 448L569 449L572 449" fill="none" stroke-width="1.5" stroke-dasharray="1,4"></path></g><g class="key-Europe_0"><path stroke="#ffd53e" stroke-linecap="round" d="M94 414L97 412L100 411L104 410L107 409L110 410L113 410L116 410L120 410L123 409L126 408L129 407L132 407L136 408L139 410L142 413L145 415L148 418L152 419L155 419L158 419L161 419L164 419L168 420L171 421L174 422L177 423L181 424L184 425L187 425L190 426L193 427L197 427L200 428L203 427L206 427L209 427L213 427L216 428L219 429L222 431L225 433L229 435L232 437L235 440L238 442L241 444L245 446L248 446L251 445L254 444L258 442L261 441L264 440L267 438L270 437L274 436L277 435L280 435L283 436L286 437L290 439L293 440L296 440L299 441L302 440" fill="none" stroke-width="1.5"></path></g><g class="key-Oceania_1"><path stroke="#a652ba" stroke-linecap="round" d="M302 441L306 441L309 441L312 441L315 441L318 441L322 441L325 441L328 441L331 441L335 441L338 441L341 441L344 441L347 441L351 441L354 441L357 441L360 441L363 441L367 441L370 441L373 441L376 441L379 441L383 441L386 441L389 441L392 441L395 441L399 441L402 441L405 441L408 441L412 441L415 441L418 442L421 442L424 442L428 442L431 442L434 442L437 442L440 442L444 442L447 442L450 442L453 442L456 442L460 442L463 442L466 442L469 442L472 442L476 442L479 442L482 442L485 442L488 442L492 442L495 442L498 442L501 442L505 442L508 442L511 443L514 443L517 443L521 443L524 443L527 443L530 443L533 443L537 443L540 443L543 443L546 443L549 443L553 443L556 443L559 443L562 443L565 443L569 443L572 443" fill="none" stroke-width="1.5" stroke-dasharray="1,4"></path></g><g class="key-Oceania_0"><path stroke="#b077b1" stroke-linecap="round" d="M94 442L97 442L100 442L104 442L107 442L110 442L113 442L116 442L120 442L123 442L126 442L129 442L132 442L136 442L139 442L142 442L145 442L148 441L152 441L155 442L158 442L161 442L164 442L168 442L171 442L174 442L177 442L181 442L184 442L187 442L190 442L193 442L197 442L200 442L203 442L206 442L209 442L213 442L216 441L219 441L222 442L225 442L229 442L232 442L235 442L238 442L241 442L245 442L248 442L251 442L254 442L258 441L261 441L264 441L267 441L270 441L274 441L277 440L280 440L283 440L286 440L290 441L293 441L296 441L299 441L302 441" fill="none" stroke-width="1.5"></path></g><g class="key-Latin-America-and-the-Caribbean_0"><path stroke="#34983f" stroke-linecap="round" d="M94 417L97 416L100 415L104 414L107 414L110 413L113 412L116 411L120 410L123 409L126 408L129 406L132 405L136 405L139 404L142 404L145 403L148 403L152 402L155 401L158 401L161 400L164 400L168 399L171 399L174 398L177 398L181 397L184 397L187 396L190 396L193 395L197 395L200 395L203 395L206 395L209 395L213 395L216 395L219 395L222 395L225 395L229 395L232 395L235 395L238 396L241 396L245 397L248 397L251 398L254 399L258 400L261 401L264 401L267 401L270 401L274 401L277 401L280 401L283 401L286 401L290 401L293 402L296 402L299 403L302 404" fill="none" stroke-width="1.5"></path></g><g class="key-Latin-America-and-the-Caribbean_1"><path stroke="#9ecc8a" stroke-linecap="round" d="M302 404L306 404L309 405L312 406L315 407L318 407L322 408L325 409L328 410L331 411L335 412L338 412L341 413L344 414L347 415L351 416L354 417L357 418L360 419L363 420L367 421L370 422L373 423L376 424L379 425L383 426L386 427L389 428L392 428L395 429L399 430L402 431L405 432L408 433L412 434L415 435L418 436L421 437L424 438L428 439L431 440L434 440L437 441L440 442L444 443L447 444L450 445L453 446L456 446L460 447L463 448L466 449L469 450L472 450L476 451L479 452L482 452L485 453L488 454L492 454L495 455L498 455L501 456L505 456L508 457L511 457L514 458L517 458L521 458L524 459L527 459L530 459L533 459L537 460L540 460L543 460L546 460L549 460L553 460L556 460L559 461L562 461L565 461L569 461L572 461" fill="none" stroke-width="1.5" stroke-dasharray="1,4"></path></g><g class="key-Northern-America_1"><path stroke="#e6332e" stroke-linecap="round" d="M302 429L306 428L309 428L312 428L315 428L318 428L322 428L325 428L328 428L331 428L335 428L338 428L341 428L344 429L347 429L351 429L354 430L357 430L360 430L363 431L367 431L370 431L373 432L376 432L379 432L383 433L386 433L389 433L392 433L395 434L399 434L402 434L405 434L408 434L412 434L415 434L418 434L421 434L424 434L428 434L431 434L434 434L437 434L440 434L444 434L447 434L450 434L453 434L456 434L460 434L463 434L466 434L469 434L472 435L476 435L479 435L482 435L485 435L488 436L492 436L495 436L498 436L501 437L505 437L508 437L511 437L514 437L517 438L521 438L524 438L527 438L530 438L533 438L537 438L540 439L543 439L546 439L549 439L553 439L556 439L559 439L562 439L565 439L569 439L572 439" fill="none" stroke-width="1.5" stroke-dasharray="1,4"></path></g><g class="key-Northern-America_0"><path stroke="#9ecc8a" stroke-linecap="round" d="M94 429L97 428L100 426L104 425L107 424L110 423L113 423L116 423L120 423L123 424L126 424L129 425L132 426L136 427L139 428L142 428L145 429L148 430L152 431L155 431L158 431L161 431L164 431L168 430L171 430L174 430L177 430L181 430L184 430L187 430L190 429L193 429L197 429L200 429L203 429L206 429L209 428L213 428L216 428L219 427L222 427L225 427L229 427L232 426L235 425L238 424L241 423L245 422L248 422L251 423L254 424L258 426L261 427L264 427L267 427L270 426L274 425L277 425L280 425L283 426L286 427L290 428L293 428L296 429L299 429L302 429" fill="none" stroke-width="1.5"></path></g></g></g></g><g class="SourcesFooter" style="fill:#777"><g class="clickable" style="fill:#777"><text font-size="12.60" x="15.0" y="581.6"><tspan x="15" y="581.58">Source: UN Population Division (2017 Revision)</tspan></text></g><text font-size="12.60" x="796.4" y="581.6"><tspan x="796.444" y="581.58"><a style="fill: #777;" class="cclogo" href="http://creativecommons.org/licenses/by/4.0/deed.en_US" target="_blank">CC BY</a></tspan></text></g></svg>