<svg xmlns="http://www.w3.org/2000/svg" version="1.1" style="font-family: 'Helvetica Neue', Helvetica, Arial, sans-serif; font-size: 18px; background-color: white; text-rendering: optimizeLegibility; -webkit-font-smoothing: antialiased;" width="850" height="600"><g class="ChartTab"><g class="HeaderView"><g opacity="0.8" transform="translate(778, 15) scale(0.27)"><a xmlns:xlink="http://www.w3.org/1999/xlink" xlink:href="https://ourworldindata.org" target="_blank"><g><rect x="0" y="0" fill="#1B2543" width="211.2" height="130.1"/><rect x="0" y="112.2" fill="#E63912" width="211.2" height="17.9"/><g><rect x="1.2" y="12.3" fill="none" width="210.2" height="99.2"/><path fill="#FFFFFF" d="M37.8,32.2c0,12.7-7.7,19.4-17.1,19.4c-9.7,0-16.6-7.5-16.6-18.7c0-11.7,7.3-19.3,17.1-19.3 C31.3,13.7,37.8,21.3,37.8,32.2z M9.2,32.8c0,7.9,4.3,14.9,11.8,14.9c7.5,0,11.8-6.9,11.8-15.3c0-7.3-3.8-14.9-11.8-14.9 C13.1,17.5,9.2,24.8,9.2,32.8z"/><path fill="#FFFFFF" d="M62.7,43.8c0,2.7,0.1,5.1,0.2,7.2h-4.3l-0.3-4.3h-0.1c-1.3,2.1-4,4.9-8.8,4.9c-4.2,0-9.1-2.3-9.1-11.6 V24.6h4.8v14.6c0,5,1.5,8.4,5.9,8.4c3.2,0,5.5-2.2,6.3-4.4c0.3-0.7,0.4-1.6,0.4-2.5V24.6h4.8V43.8z"/><path fill="#FFFFFF" d="M67.3,32.8c0-3.1-0.1-5.8-0.2-8.2h4.2l0.2,5.2h0.2c1.2-3.5,4.1-5.8,7.3-5.8c0.5,0,0.9,0.1,1.4,0.2v4.5 c-0.5-0.1-1-0.2-1.6-0.2c-3.4,0-5.8,2.6-6.5,6.2c-0.1,0.7-0.2,1.4-0.2,2.2V51h-4.8V32.8z"/><path fill="#FFFFFF" d="M95.4,51l-9.4-36.8h5l4.4,18.6c1.1,4.6,2.1,9.2,2.7,12.7h0.1c0.6-3.7,1.8-8,3-12.8l4.9-18.5h5l4.5,18.7 c1,4.4,2,8.7,2.6,12.6h0.1c0.8-4,1.8-8.1,3-12.7l4.9-18.5h4.9L120.6,51h-5L111,31.9c-1.1-4.7-1.9-8.3-2.4-12h-0.1 c-0.7,3.7-1.5,7.3-2.8,12L100.4,51H95.4z"/><path fill="#FFFFFF" d="M154.9,37.6c0,9.8-6.8,14-13.2,14c-7.2,0-12.7-5.2-12.7-13.6c0-8.8,5.8-14,13.1-14 C149.8,24,154.9,29.5,154.9,37.6z M133.9,37.9c0,5.8,3.3,10.1,8,10.1c4.6,0,8-4.3,8-10.3c0-4.5-2.2-10.1-7.9-10.1 C136.3,27.6,133.9,32.8,133.9,37.9z"/><path fill="#FFFFFF" d="M158.2,32.8c0-3.1-0.1-5.8-0.2-8.2h4.2l0.2,5.2h0.2c1.2-3.5,4.1-5.8,7.3-5.8c0.5,0,0.9,0.1,1.4,0.2v4.5 c-0.5-0.1-1-0.2-1.6-0.2c-3.4,0-5.8,2.6-6.5,6.2c-0.1,0.7-0.2,1.4-0.2,2.2V51h-4.8V32.8z"/><path fill="#FFFFFF" d="M173.5,12.3h4.8V51h-4.8V12.3z"/><path fill="#FFFFFF" d="M206.5,12.3v31.9c0,2.3,0.1,5,0.2,6.8h-4.3l-0.2-4.6H202c-1.5,2.9-4.7,5.2-9,5.2 c-6.4,0-11.3-5.4-11.3-13.4c-0.1-8.8,5.4-14.2,11.9-14.2c4,0,6.8,1.9,8,4h0.1V12.3H206.5z M201.7,35.4c0-0.6-0.1-1.4-0.2-2 c-0.7-3.1-3.3-5.6-6.9-5.6c-5,0-7.9,4.4-7.9,10.2c0,5.3,2.6,9.8,7.8,9.8c3.2,0,6.2-2.1,7.1-5.7c0.2-0.7,0.2-1.3,0.2-2.1V35.4z"/><path fill="#FFFFFF" d="M42.8,64c0.1,1.6-1.1,2.9-3.1,2.9c-1.7,0-2.9-1.3-2.9-2.9c0-1.7,1.3-3,3-3C41.7,61,42.8,62.3,42.8,64z M37.4,97.8V71.4h4.8v26.4H37.4z"/><path fill="#FFFFFF" d="M47.5,78.6c0-2.7-0.1-5-0.2-7.1h4.3l0.3,4.4h0.1c1.3-2.5,4.4-5,8.8-5c3.7,0,9.4,2.2,9.4,11.2v15.8h-4.8 V82.6c0-4.3-1.6-7.8-6.1-7.8c-3.2,0-5.6,2.2-6.5,4.9c-0.2,0.6-0.3,1.4-0.3,2.2v15.9h-4.8V78.6z"/><path fill="#FFFFFF" d="M84,61.6c2.9-0.4,6.3-0.8,10.1-0.8c6.8,0,11.7,1.6,14.9,4.6c3.3,3,5.2,7.3,5.2,13.2c0,6-1.9,10.9-5.3,14.3 c-3.4,3.4-9.1,5.3-16.3,5.3c-3.4,0-6.2-0.2-8.6-0.4V61.6z M88.8,94.1c1.2,0.2,3,0.3,4.8,0.3c10.2,0,15.7-5.7,15.7-15.6 c0.1-8.7-4.9-14.2-14.9-14.2c-2.5,0-4.3,0.2-5.6,0.5V94.1z"/><path fill="#FFFFFF" d="M132.1,97.8l-0.4-3.3h-0.2c-1.5,2.1-4.3,3.9-8.1,3.9c-5.4,0-8.1-3.8-8.1-7.6c0-6.4,5.7-9.9,15.9-9.8v-0.5 c0-2.2-0.6-6.1-6-6.1c-2.5,0-5,0.8-6.9,2l-1.1-3.2c2.2-1.4,5.4-2.3,8.7-2.3c8.1,0,10.1,5.5,10.1,10.8v9.9c0,2.3,0.1,4.5,0.4,6.3 H132.1z M131.4,84.4c-5.3-0.1-11.2,0.8-11.2,5.9c0,3.1,2.1,4.6,4.5,4.6c3.4,0,5.6-2.2,6.4-4.4c0.2-0.5,0.3-1,0.3-1.5V84.4z"/><path fill="#FFFFFF" d="M146.6,63.9v7.6h6.9v3.7h-6.9v14.2c0,3.3,0.9,5.1,3.6,5.1c1.3,0,2.2-0.2,2.8-0.3l0.2,3.6 c-0.9,0.4-2.4,0.7-4.3,0.7c-2.2,0-4-0.7-5.2-2c-1.4-1.4-1.9-3.8-1.9-6.9V75.1h-4.1v-3.7h4.1v-6.3L146.6,63.9z"/><path fill="#FFFFFF" d="M171.4,97.8l-0.4-3.3h-0.2c-1.5,2.1-4.3,3.9-8.1,3.9c-5.4,0-8.1-3.8-8.1-7.6c0-6.4,5.7-9.9,15.9-9.8v-0.5 c0-2.2-0.6-6.1-6-6.1c-2.5,0-5,0.8-6.9,2l-1.1-3.2c2.2-1.4,5.4-2.3,8.7-2.3c8.1,0,10.1,5.5,10.1,10.8v9.9c0,2.3,0.1,4.5,0.4,6.3 H171.4z M170.7,84.4c-5.3-0.1-11.2,0.8-11.2,5.9c0,3.1,2.1,4.6,4.5,4.6c3.4,0,5.6-2.2,6.4-4.4c0.2-0.5,0.3-1,0.3-1.5V84.4z"/></g></g></a></g><a href="https://ourworldindata.org/grapher/population-by-income-level" target="_blank"><text font-size="25.20" x="15.0" y="35.2" fill="#555"><tspan x="15" y="35.160000000000004">Population by income level</tspan></text></a><text font-size="14.40" x="15.0" y="53.7" fill="#666"><tspan x="15" y="53.72">Total population, differentiated by World Bank income level.</tspan></text></g><g class="StackedArea"><defs><clipPath id="boundsClip-663"><rect x="75.08" y="0" width="820" height="959.8"></rect></clipPath></defs><g class="AxisBoxView"><g class="HorizontalAxis"><text x="75.1" y="556.5" fill="#666" text-anchor="middle" font-size="16.2">1960</text><text x="188.1" y="556.5" fill="#666" text-anchor="middle" font-size="16.2">1970</text><text x="301.2" y="556.5" fill="#666" text-anchor="middle" font-size="16.2">1980</text><text x="414.3" y="556.5" fill="#666" text-anchor="middle" font-size="16.2">1990</text><text x="527.3" y="556.5" fill="#666" text-anchor="middle" font-size="16.2">2000</text><text x="640.4" y="556.5" fill="#666" text-anchor="middle" font-size="16.2">2010</text><text x="719.5" y="556.5" fill="#666" text-anchor="middle" font-size="16.2">2017</text></g><g class="VerticalAxis"><text x="70.08" y="535.3" fill="#666" dominant-baseline="middle" text-anchor="end" font-size="16.2">0</text><text x="70.08" y="474.4" fill="#666" dominant-baseline="middle" text-anchor="end" font-size="16.2">1 billion</text><text x="70.08" y="413.5" fill="#666" dominant-baseline="middle" text-anchor="end" font-size="16.2">2 billion</text><text x="70.08" y="352.6" fill="#666" dominant-baseline="middle" text-anchor="end" font-size="16.2">3 billion</text><text x="70.08" y="291.6" fill="#666" dominant-baseline="middle" text-anchor="end" font-size="16.2">4 billion</text><text x="70.08" y="230.7" fill="#666" dominant-baseline="middle" text-anchor="end" font-size="16.2">5 billion</text><text x="70.08" y="169.8" fill="#666" dominant-baseline="middle" text-anchor="end" font-size="16.2">6 billion</text><text x="70.08" y="108.9" fill="#666" dominant-baseline="middle" text-anchor="end" font-size="16.2">7 billion</text></g><g class="AxisGridLines"><line x1="75.08" y1="535.3" x2="719.54" y2="535.3" stroke="#ccc"></line><line x1="75.08" y1="474.4" x2="719.54" y2="474.4" stroke="#ddd" stroke-dasharray="3,2"></line><line x1="75.08" y1="413.5" x2="719.54" y2="413.5" stroke="#ddd" stroke-dasharray="3,2"></line><line x1="75.08" y1="352.6" x2="719.54" y2="352.6" stroke="#ddd" stroke-dasharray="3,2"></line><line x1="75.08" y1="291.6" x2="719.54" y2="291.6" stroke="#ddd" stroke-dasharray="3,2"></line><line x1="75.08" y1="230.7" x2="719.54" y2="230.7" stroke="#ddd" stroke-dasharray="3,2"></line><line x1="75.08" y1="169.8" x2="719.54" y2="169.8" stroke="#ddd" stroke-dasharray="3,2"></line><line x1="75.08" y1="108.9" x2="719.54" y2="108.9" stroke="#ddd" stroke-dasharray="3,2"></line></g></g><g clip-path="url(#boundsClip-663)"><g class="HeightedLegend clickable"><g class="legendMark"><rect x="719.54" y="107.85" width="110.19500000000001" height="13.5" fill="#fff" opacity="0"></rect><text font-size="13.50" x="724.5" y="118.6" fill="#ca2628"><tspan x="724.54" y="118.64999999999999">High income</tspan></text></g><g class="legendMark"><rect x="719.54" y="217.04999999999998" width="115.46000000000001" height="28.1" fill="#fff" opacity="0"></rect><text font-size="13.50" x="724.5" y="227.8" fill="#3360a9"><tspan x="724.54" y="227.85">Upper middle</tspan><tspan x="724.54" y="242.7">income</tspan></text></g><g class="legendMark"><rect x="719.54" y="386.05" width="115.46000000000001" height="28.1" fill="#fff" opacity="0"></rect><text font-size="13.50" x="724.5" y="396.9" fill="#818282"><tspan x="724.54" y="396.85">Lower middle</tspan><tspan x="724.54" y="411.70000000000005">income</tspan></text></g><g class="legendMark"><rect x="719.54" y="506.25" width="107.22500000000001" height="13.5" fill="#fff" opacity="0"></rect><text font-size="13.50" x="724.5" y="517.0" fill="#ed6c2d"><tspan x="724.54" y="517.05">Low income</tspan></text></g></g><g class="Areas"><rect x="75.08" y="76.6" width="644.4599999999999" height="458.69999999999993" opacity="0" fill="rgba(255,255,255,0)"></rect><path stroke-linecap="round" d="M75.1 525.2L86.4 524.9L97.7 524.7L109 524.5L120.3 524.2L131.6 523.9L142.9 523.7L154.2 523.4L165.5 523.1L176.8 522.7L188.1 522.4L199.4 522.1L210.8 521.8L222.1 521.4L233.4 521.1L244.7 520.7L256 520.3L267.3 519.9L278.6 519.5L289.9 519.1L301.2 518.7L312.5 518.3L323.8 517.9L335.1 517.5L346.4 517L357.7 516.5L369 516L380.4 515.5L391.7 515L403 514.4L414.3 513.8L425.6 513.2L436.9 512.6L448.2 511.9L459.5 511.2L470.8 510.5L482.1 509.8L493.4 509.1L504.7 508.4L516 507.7L527.3 506.9L538.6 506.2L549.9 505.3L561.3 504.5L572.6 503.6L583.9 502.8L595.2 501.9L606.5 500.9L617.8 500L629.1 499L640.4 498L651.7 497L663 496L674.3 495L685.6 494L696.9 492.9L708.2 491.8L719.5 490.7L719.54 535.3L75.08 535.3" fill="#ed6c2d" fill-opacity="0.7" class="Low-income_0-area"></path><path stroke-linecap="round" d="M75.1 468.2L86.4 466.7L97.7 465.1L109 463.5L120.3 461.8L131.6 460.1L142.9 458.3L154.2 456.5L165.5 454.6L176.8 452.7L188.1 450.7L199.4 448.7L210.8 446.6L222.1 444.5L233.4 442.3L244.7 440.1L256 437.8L267.3 435.4L278.6 433L289.9 430.5L301.2 428L312.5 425.4L323.8 422.7L335.1 419.9L346.4 417.1L357.7 414.2L369 411.3L380.4 408.4L391.7 405.4L403 402.4L414.3 399.2L425.6 396.1L436.9 393L448.2 389.9L459.5 386.8L470.8 383.7L482.1 380.6L493.4 377.5L504.7 374.3L516 371.2L527.3 368L538.6 364.8L549.9 361.6L561.3 358.3L572.6 355L583.9 351.7L595.2 348.4L606.5 345L617.8 341.6L629.1 338.2L640.4 334.7L651.7 331.2L663 327.6L674.3 324.1L685.6 320.5L696.9 316.9L708.2 313.3L719.5 309.6L719.5 490.7L708.2 491.8L696.9 492.9L685.6 494L674.3 495L663 496L651.7 497L640.4 498L629.1 499L617.8 500L606.5 500.9L595.2 501.9L583.9 502.8L572.6 503.6L561.3 504.5L549.9 505.3L538.6 506.2L527.3 506.9L516 507.7L504.7 508.4L493.4 509.1L482.1 509.8L470.8 510.5L459.5 511.2L448.2 511.9L436.9 512.6L425.6 513.2L414.3 513.8L403 514.4L391.7 515L380.4 515.5L369 516L357.7 516.5L346.4 517L335.1 517.5L323.8 517.9L312.5 518.3L301.2 518.7L289.9 519.1L278.6 519.5L267.3 519.9L256 520.3L244.7 520.7L233.4 521.1L222.1 521.4L210.8 521.8L199.4 522.1L188.1 522.4L176.8 522.7L165.5 523.1L154.2 523.4L142.9 523.7L131.6 523.9L120.3 524.2L109 524.5L97.7 524.7L86.4 524.9L75.1 525.2" fill="#818282" fill-opacity="0.7" class="Lower-middle-income_0-area"></path><path stroke-linecap="round" d="M75.1 398.1L86.4 396.3L97.7 393.7L109 390.4L120.3 387L131.6 383.5L142.9 379.8L154.2 376.1L165.5 372.3L176.8 368.3L188.1 364.2L199.4 360L210.8 355.9L222.1 351.8L233.4 347.7L244.7 343.7L256 339.7L267.3 335.8L278.6 331.8L289.9 327.7L301.2 323.5L312.5 319.2L323.8 314.7L335.1 310.2L346.4 305.6L357.7 301L369 296.2L380.4 291.3L391.7 286.3L403 281.4L414.3 276.4L425.6 271.6L436.9 266.8L448.2 262.2L459.5 257.6L470.8 253L482.1 248.4L493.4 243.8L504.7 239.2L516 234.8L527.3 230.3L538.6 225.9L549.9 221.6L561.3 217.2L572.6 212.8L583.9 208.4L595.2 204L606.5 199.6L617.8 195.1L629.1 190.6L640.4 186L651.7 181.4L663 176.7L674.3 171.9L685.6 167.1L696.9 162.3L708.2 157.5L719.5 152.7L719.5 309.6L708.2 313.3L696.9 316.9L685.6 320.5L674.3 324.1L663 327.6L651.7 331.2L640.4 334.7L629.1 338.2L617.8 341.6L606.5 345L595.2 348.4L583.9 351.7L572.6 355L561.3 358.3L549.9 361.6L538.6 364.8L527.3 368L516 371.2L504.7 374.3L493.4 377.5L482.1 380.6L470.8 383.7L459.5 386.8L448.2 389.9L436.9 393L425.6 396.1L414.3 399.2L403 402.4L391.7 405.4L380.4 408.4L369 411.3L357.7 414.2L346.4 417.1L335.1 419.9L323.8 422.7L312.5 425.4L301.2 428L289.9 430.5L278.6 433L267.3 435.4L256 437.8L244.7 440.1L233.4 442.3L222.1 444.5L210.8 446.6L199.4 448.7L188.1 450.7L176.8 452.7L165.5 454.6L154.2 456.5L142.9 458.3L131.6 460.1L120.3 461.8L109 463.5L97.7 465.1L86.4 466.7L75.1 468.2" fill="#3360a9" fill-opacity="0.7" class="Upper-middle-income_0-area"></path><path stroke-linecap="round" d="M75.1 350.6L86.4 348.1L97.7 344.9L109 340.9L120.3 336.9L131.6 332.8L142.9 328.5L154.2 324.3L165.5 319.9L176.8 315.4L188.1 310.8L199.4 306.1L210.8 301.4L222.1 296.7L233.4 292.1L244.7 287.5L256 283.1L267.3 278.7L278.6 274.2L289.9 269.5L301.2 264.9L312.5 260.1L323.8 255.1L335.1 250.1L346.4 245.2L357.7 240.1L369 234.9L380.4 229.5L391.7 224.1L403 218.7L414.3 213.2L425.6 207.9L436.9 202.7L448.2 197.5L459.5 192.4L470.8 187.3L482.1 182.2L493.4 177.2L504.7 172.2L516 167.3L527.3 162.4L538.6 157.6L549.9 152.7L561.3 147.9L572.6 143L583.9 138.1L595.2 133.2L606.5 128.2L617.8 123.1L629.1 118.1L640.4 113L651.7 108L663 102.8L674.3 97.6L685.6 92.4L696.9 87.1L708.2 81.9L719.5 76.6L719.5 152.7L708.2 157.5L696.9 162.3L685.6 167.1L674.3 171.9L663 176.7L651.7 181.4L640.4 186L629.1 190.6L617.8 195.1L606.5 199.6L595.2 204L583.9 208.4L572.6 212.8L561.3 217.2L549.9 221.6L538.6 225.9L527.3 230.3L516 234.8L504.7 239.2L493.4 243.8L482.1 248.4L470.8 253L459.5 257.6L448.2 262.2L436.9 266.8L425.6 271.6L414.3 276.4L403 281.4L391.7 286.3L380.4 291.3L369 296.2L357.7 301L346.4 305.6L335.1 310.2L323.8 314.7L312.5 319.2L301.2 323.5L289.9 327.7L278.6 331.8L267.3 335.8L256 339.7L244.7 343.7L233.4 347.7L222.1 351.8L210.8 355.9L199.4 360L188.1 364.2L176.8 368.3L165.5 372.3L154.2 376.1L142.9 379.8L131.6 383.5L120.3 387L109 390.4L97.7 393.7L86.4 396.3L75.1 398.1" fill="#ca2628" fill-opacity="0.7" class="High-income_0-area"></path><path stroke-linecap="round" d="M75.1 525.2L86.4 524.9L97.7 524.7L109 524.5L120.3 524.2L131.6 523.9L142.9 523.7L154.2 523.4L165.5 523.1L176.8 522.7L188.1 522.4L199.4 522.1L210.8 521.8L222.1 521.4L233.4 521.1L244.7 520.7L256 520.3L267.3 519.9L278.6 519.5L289.9 519.1L301.2 518.7L312.5 518.3L323.8 517.9L335.1 517.5L346.4 517L357.7 516.5L369 516L380.4 515.5L391.7 515L403 514.4L414.3 513.8L425.6 513.2L436.9 512.6L448.2 511.9L459.5 511.2L470.8 510.5L482.1 509.8L493.4 509.1L504.7 508.4L516 507.7L527.3 506.9L538.6 506.2L549.9 505.3L561.3 504.5L572.6 503.6L583.9 502.8L595.2 501.9L606.5 500.9L617.8 500L629.1 499L640.4 498L651.7 497L663 496L674.3 495L685.6 494L696.9 492.9L708.2 491.8L719.5 490.7" stroke="rgb(198, 90, 38)" stroke-opacity="0.7" stroke-width="0.5" fill="none" class="Low-income_0-border"></path><path stroke-linecap="round" d="M75.1 468.2L86.4 466.7L97.7 465.1L109 463.5L120.3 461.8L131.6 460.1L142.9 458.3L154.2 456.5L165.5 454.6L176.8 452.7L188.1 450.7L199.4 448.7L210.8 446.6L222.1 444.5L233.4 442.3L244.7 440.1L256 437.8L267.3 435.4L278.6 433L289.9 430.5L301.2 428L312.5 425.4L323.8 422.7L335.1 419.9L346.4 417.1L357.7 414.2L369 411.3L380.4 408.4L391.7 405.4L403 402.4L414.3 399.2L425.6 396.1L436.9 393L448.2 389.9L459.5 386.8L470.8 383.7L482.1 380.6L493.4 377.5L504.7 374.3L516 371.2L527.3 368L538.6 364.8L549.9 361.6L561.3 358.3L572.6 355L583.9 351.7L595.2 348.4L606.5 345L617.8 341.6L629.1 338.2L640.4 334.7L651.7 331.2L663 327.6L674.3 324.1L685.6 320.5L696.9 316.9L708.2 313.3L719.5 309.6" stroke="rgb(108, 109, 109)" stroke-opacity="0.7" stroke-width="0.5" fill="none" class="Lower-middle-income_0-border"></path><path stroke-linecap="round" d="M75.1 398.1L86.4 396.3L97.7 393.7L109 390.4L120.3 387L131.6 383.5L142.9 379.8L154.2 376.1L165.5 372.3L176.8 368.3L188.1 364.2L199.4 360L210.8 355.9L222.1 351.8L233.4 347.7L244.7 343.7L256 339.7L267.3 335.8L278.6 331.8L289.9 327.7L301.2 323.5L312.5 319.2L323.8 314.7L335.1 310.2L346.4 305.6L357.7 301L369 296.2L380.4 291.3L391.7 286.3L403 281.4L414.3 276.4L425.6 271.6L436.9 266.8L448.2 262.2L459.5 257.6L470.8 253L482.1 248.4L493.4 243.8L504.7 239.2L516 234.8L527.3 230.3L538.6 225.9L549.9 221.6L561.3 217.2L572.6 212.8L583.9 208.4L595.2 204L606.5 199.6L617.8 195.1L629.1 190.6L640.4 186L651.7 181.4L663 176.7L674.3 171.9L685.6 167.1L696.9 162.3L708.2 157.5L719.5 152.7" stroke="rgb(43, 80, 141)" stroke-opacity="0.7" stroke-width="0.5" fill="none" class="Upper-middle-income_0-border"></path><path stroke-linecap="round" d="M75.1 350.6L86.4 348.1L97.7 344.9L109 340.9L120.3 336.9L131.6 332.8L142.9 328.5L154.2 324.3L165.5 319.9L176.8 315.4L188.1 310.8L199.4 306.1L210.8 301.4L222.1 296.7L233.4 292.1L244.7 287.5L256 283.1L267.3 278.7L278.6 274.2L289.9 269.5L301.2 264.9L312.5 260.1L323.8 255.1L335.1 250.1L346.4 245.2L357.7 240.1L369 234.9L380.4 229.5L391.7 224.1L403 218.7L414.3 213.2L425.6 207.9L436.9 202.7L448.2 197.5L459.5 192.4L470.8 187.3L482.1 182.2L493.4 177.2L504.7 172.2L516 167.3L527.3 162.4L538.6 157.6L549.9 152.7L561.3 147.9L572.6 143L583.9 138.1L595.2 133.2L606.5 128.2L617.8 123.1L629.1 118.1L640.4 113L651.7 108L663 102.8L674.3 97.6L685.6 92.4L696.9 87.1L708.2 81.9L719.5 76.6" stroke="rgb(169, 32, 33)" stroke-opacity="0.7" stroke-width="0.5" fill="none" class="High-income_0-border"></path></g></g></g><g style="fill: #777;" class="SourcesFooter"><g style="fill: #777;" class="clickable"><text font-size="12.60" x="15.0" y="581.6"><tspan x="15" y="581.58">Source: World Bank</tspan></text></g><text font-size="12.60" x="775.4" y="581.6"><tspan x="775.402" y="581.58"><a style="fill: #777;" class="cclogo" href="http://creativecommons.org/licenses/by-sa/4.0/deed.en_US" target="_blank">CC BY-SA</a></tspan></text></g></g></svg>