<svg xmlns="http://www.w3.org/2000/svg" version="1.1" style="font-family: 'Helvetica Neue', Helvetica, Arial, sans-serif; font-size: 18px; background-color: white; text-rendering: optimizeLegibility; -webkit-font-smoothing: antialiased;" width="850" height="600"><g class="ChartTab"><g class="HeaderView"><g opacity="0.8" transform="translate(778, 15) scale(0.27)"><a xmlns:xlink="http://www.w3.org/1999/xlink" xlink:href="https://ourworldindata.org" target="_blank"><g><rect x="0" y="0" fill="#1B2543" width="211.2" height="130.1"/><rect x="0" y="112.2" fill="#E63912" width="211.2" height="17.9"/><g><rect x="1.2" y="12.3" fill="none" width="210.2" height="99.2"/><path fill="#FFFFFF" d="M37.8,32.2c0,12.7-7.7,19.4-17.1,19.4c-9.7,0-16.6-7.5-16.6-18.7c0-11.7,7.3-19.3,17.1-19.3 C31.3,13.7,37.8,21.3,37.8,32.2z M9.2,32.8c0,7.9,4.3,14.9,11.8,14.9c7.5,0,11.8-6.9,11.8-15.3c0-7.3-3.8-14.9-11.8-14.9 C13.1,17.5,9.2,24.8,9.2,32.8z"/><path fill="#FFFFFF" d="M62.7,43.8c0,2.7,0.1,5.1,0.2,7.2h-4.3l-0.3-4.3h-0.1c-1.3,2.1-4,4.9-8.8,4.9c-4.2,0-9.1-2.3-9.1-11.6 V24.6h4.8v14.6c0,5,1.5,8.4,5.9,8.4c3.2,0,5.5-2.2,6.3-4.4c0.3-0.7,0.4-1.6,0.4-2.5V24.6h4.8V43.8z"/><path fill="#FFFFFF" d="M67.3,32.8c0-3.1-0.1-5.8-0.2-8.2h4.2l0.2,5.2h0.2c1.2-3.5,4.1-5.8,7.3-5.8c0.5,0,0.9,0.1,1.4,0.2v4.5 c-0.5-0.1-1-0.2-1.6-0.2c-3.4,0-5.8,2.6-6.5,6.2c-0.1,0.7-0.2,1.4-0.2,2.2V51h-4.8V32.8z"/><path fill="#FFFFFF" d="M95.4,51l-9.4-36.8h5l4.4,18.6c1.1,4.6,2.1,9.2,2.7,12.7h0.1c0.6-3.7,1.8-8,3-12.8l4.9-18.5h5l4.5,18.7 c1,4.4,2,8.7,2.6,12.6h0.1c0.8-4,1.8-8.1,3-12.7l4.9-18.5h4.9L120.6,51h-5L111,31.9c-1.1-4.7-1.9-8.3-2.4-12h-0.1 c-0.7,3.7-1.5,7.3-2.8,12L100.4,51H95.4z"/><path fill="#FFFFFF" d="M154.9,37.6c0,9.8-6.8,14-13.2,14c-7.2,0-12.7-5.2-12.7-13.6c0-8.8,5.8-14,13.1-14 C149.8,24,154.9,29.5,154.9,37.6z M133.9,37.9c0,5.8,3.3,10.1,8,10.1c4.6,0,8-4.3,8-10.3c0-4.5-2.2-10.1-7.9-10.1 C136.3,27.6,133.9,32.8,133.9,37.9z"/><path fill="#FFFFFF" d="M158.2,32.8c0-3.1-0.1-5.8-0.2-8.2h4.2l0.2,5.2h0.2c1.2-3.5,4.1-5.8,7.3-5.8c0.5,0,0.9,0.1,1.4,0.2v4.5 c-0.5-0.1-1-0.2-1.6-0.2c-3.4,0-5.8,2.6-6.5,6.2c-0.1,0.7-0.2,1.4-0.2,2.2V51h-4.8V32.8z"/><path fill="#FFFFFF" d="M173.5,12.3h4.8V51h-4.8V12.3z"/><path fill="#FFFFFF" d="M206.5,12.3v31.9c0,2.3,0.1,5,0.2,6.8h-4.3l-0.2-4.6H202c-1.5,2.9-4.7,5.2-9,5.2 c-6.4,0-11.3-5.4-11.3-13.4c-0.1-8.8,5.4-14.2,11.9-14.2c4,0,6.8,1.9,8,4h0.1V12.3H206.5z M201.7,35.4c0-0.6-0.1-1.4-0.2-2 c-0.7-3.1-3.3-5.6-6.9-5.6c-5,0-7.9,4.4-7.9,10.2c0,5.3,2.6,9.8,7.8,9.8c3.2,0,6.2-2.1,7.1-5.7c0.2-0.7,0.2-1.3,0.2-2.1V35.4z"/><path fill="#FFFFFF" d="M42.8,64c0.1,1.6-1.1,2.9-3.1,2.9c-1.7,0-2.9-1.3-2.9-2.9c0-1.7,1.3-3,3-3C41.7,61,42.8,62.3,42.8,64z M37.4,97.8V71.4h4.8v26.4H37.4z"/><path fill="#FFFFFF" d="M47.5,78.6c0-2.7-0.1-5-0.2-7.1h4.3l0.3,4.4h0.1c1.3-2.5,4.4-5,8.8-5c3.7,0,9.4,2.2,9.4,11.2v15.8h-4.8 V82.6c0-4.3-1.6-7.8-6.1-7.8c-3.2,0-5.6,2.2-6.5,4.9c-0.2,0.6-0.3,1.4-0.3,2.2v15.9h-4.8V78.6z"/><path fill="#FFFFFF" d="M84,61.6c2.9-0.4,6.3-0.8,10.1-0.8c6.8,0,11.7,1.6,14.9,4.6c3.3,3,5.2,7.3,5.2,13.2c0,6-1.9,10.9-5.3,14.3 c-3.4,3.4-9.1,5.3-16.3,5.3c-3.4,0-6.2-0.2-8.6-0.4V61.6z M88.8,94.1c1.2,0.2,3,0.3,4.8,0.3c10.2,0,15.7-5.7,15.7-15.6 c0.1-8.7-4.9-14.2-14.9-14.2c-2.5,0-4.3,0.2-5.6,0.5V94.1z"/><path fill="#FFFFFF" d="M132.1,97.8l-0.4-3.3h-0.2c-1.5,2.1-4.3,3.9-8.1,3.9c-5.4,0-8.1-3.8-8.1-7.6c0-6.4,5.7-9.9,15.9-9.8v-0.5 c0-2.2-0.6-6.1-6-6.1c-2.5,0-5,0.8-6.9,2l-1.1-3.2c2.2-1.4,5.4-2.3,8.7-2.3c8.1,0,10.1,5.5,10.1,10.8v9.9c0,2.3,0.1,4.5,0.4,6.3 H132.1z M131.4,84.4c-5.3-0.1-11.2,0.8-11.2,5.9c0,3.1,2.1,4.6,4.5,4.6c3.4,0,5.6-2.2,6.4-4.4c0.2-0.5,0.3-1,0.3-1.5V84.4z"/><path fill="#FFFFFF" d="M146.6,63.9v7.6h6.9v3.7h-6.9v14.2c0,3.3,0.9,5.1,3.6,5.1c1.3,0,2.2-0.2,2.8-0.3l0.2,3.6 c-0.9,0.4-2.4,0.7-4.3,0.7c-2.2,0-4-0.7-5.2-2c-1.4-1.4-1.9-3.8-1.9-6.9V75.1h-4.1v-3.7h4.1v-6.3L146.6,63.9z"/><path fill="#FFFFFF" d="M171.4,97.8l-0.4-3.3h-0.2c-1.5,2.1-4.3,3.9-8.1,3.9c-5.4,0-8.1-3.8-8.1-7.6c0-6.4,5.7-9.9,15.9-9.8v-0.5 c0-2.2-0.6-6.1-6-6.1c-2.5,0-5,0.8-6.9,2l-1.1-3.2c2.2-1.4,5.4-2.3,8.7-2.3c8.1,0,10.1,5.5,10.1,10.8v9.9c0,2.3,0.1,4.5,0.4,6.3 H171.4z M170.7,84.4c-5.3-0.1-11.2,0.8-11.2,5.9c0,3.1,2.1,4.6,4.5,4.6c3.4,0,5.6-2.2,6.4-4.4c0.2-0.5,0.3-1,0.3-1.5V84.4z"/></g></g></a></g><a href="https://ourworldindata.org/grapher/ratio-of-female-to-male-labor-force-participation-rates-slopes" target="_blank"><text font-size="25.20" x="15.0" y="35.2" fill="#555"><tspan x="15" y="35.160000000000004">Ratio of female to male labor force participation rates</tspan></text></a><text font-size="14.40" x="15.0" y="53.7" fill="#666"><tspan x="15" y="53.72">Shown is the female-to-male ratio of labor force participation rates, calculated by dividing the labor force participation</tspan><tspan x="15" y="69.56">rate among women, by the corresponding rate for men. The labor force participation rate is defined as the proportion</tspan><tspan x="15" y="85.4">of the population ages 15+ that is economically active.</tspan></text></g><g><g class="LabelledSlopes"><rect x="15" y="107.60000000000001" width="700" height="463.9" fill="rgba(0,0,0,0)" opacity="0"></rect><g class="gridlines"><line x1="244.017" y1="521.5" x2="485.983" y2="521.5" stroke="#eee" stroke-dasharray="3,2"></line><line x1="244.017" y1="438.72" x2="485.983" y2="438.72" stroke="#eee" stroke-dasharray="3,2"></line><line x1="244.017" y1="355.94" x2="485.983" y2="355.94" stroke="#eee" stroke-dasharray="3,2"></line><line x1="244.017" y1="273.16" x2="485.983" y2="273.16" stroke="#eee" stroke-dasharray="3,2"></line><line x1="244.017" y1="190.38" x2="485.983" y2="190.38" stroke="#eee" stroke-dasharray="3,2"></line><line x1="244.017" y1="107.60000000000002" x2="485.983" y2="107.60000000000002" stroke="#eee" stroke-dasharray="3,2"></line></g><g font-size="0.8em" class="axis"><text x="15" y="521.5" fill="#666" dominant-baseline="middle" text-anchor="start">0%</text><text x="15" y="438.72" fill="#666" dominant-baseline="middle" text-anchor="start">20%</text><text x="15" y="355.94" fill="#666" dominant-baseline="middle" text-anchor="start">40%</text><text x="15" y="273.16" fill="#666" dominant-baseline="middle" text-anchor="start">60%</text><text x="15" y="190.38" fill="#666" dominant-baseline="middle" text-anchor="start">80%</text><text x="15" y="107.60000000000002" fill="#666" dominant-baseline="middle" text-anchor="start">100%</text></g><g font-size="0.8em" class="axis"><text x="715" y="521.5" fill="#666" dominant-baseline="middle" text-anchor="end">0%</text><text x="715" y="438.72" fill="#666" dominant-baseline="middle" text-anchor="end">20%</text><text x="715" y="355.94" fill="#666" dominant-baseline="middle" text-anchor="end">40%</text><text x="715" y="273.16" fill="#666" dominant-baseline="middle" text-anchor="end">60%</text><text x="715" y="190.38" fill="#666" dominant-baseline="middle" text-anchor="end">80%</text><text x="715" y="107.60000000000002" fill="#666" dominant-baseline="middle" text-anchor="end">100%</text></g><line x1="244.017" y1="521.5" x2="244.017" y2="107.60000000000001" stroke="#333"></line><line x1="485.983" y1="521.5" x2="485.983" y2="107.60000000000001" stroke="#333"></line><text x="244.017" y="545.9" text-anchor="middle" fill="#666" font-size="18">1960</text><text x="485.983" y="545.9" text-anchor="middle" fill="#666" font-size="18">2015</text><g class="slopes"><g class="slope"><circle cx="244.017" cy="381.10748136164256" r="2" fill="#4d824b" opacity="0.5"></circle><line x1="244.017" y1="381.10748136164256" x2="485.983" y2="125.40425075011416" stroke="#4d824b" stroke-width="1.0002708888989218" opacity="0.5"></line><circle cx="485.983" cy="125.40425075011416" r="2" fill="#4d824b" opacity="0.5"></circle></g><g class="slope"><circle cx="244.017" cy="363.06429463297957" r="2" fill="#ffd336" opacity="0.5"></circle><line x1="244.017" y1="363.06429463297957" x2="485.983" y2="201.74943522049773" stroke="#ffd336" stroke-width="1.0006445555794279" opacity="0.5"></line><circle cx="485.983" cy="201.74943522049773" r="2" fill="#ffd336" opacity="0.5"></circle></g><g class="slope"><circle cx="244.017" cy="364.42282246415925" r="2" fill="#4d824b" opacity="0.5"></circle><line x1="244.017" y1="364.42282246415925" x2="485.983" y2="133.74949767971833" stroke="#4d824b" stroke-width="1.001064777817214" opacity="0.5"></line><circle cx="485.983" cy="133.74949767971833" r="2" fill="#4d824b" opacity="0.5"></circle></g><g class="slope"><circle cx="244.017" cy="261.3658590667905" r="2" fill="#5675c1" opacity="0.5"></circle><line x1="244.017" y1="261.3658590667905" x2="485.983" y2="151.81669832547522" stroke="#5675c1" stroke-width="1.0013912222737489" opacity="0.5"></line><circle cx="485.983" cy="151.81669832547522" r="2" fill="#5675c1" opacity="0.5"></circle></g><g class="slope"><circle cx="244.017" cy="400.0884516936242" r="2" fill="#d14e5b" opacity="0.5"></circle><line x1="244.017" y1="400.0884516936242" x2="485.983" y2="167.41965587854105" stroke="#d14e5b" stroke-width="1.0019233334045679" opacity="0.5"></line><circle cx="485.983" cy="167.41965587854105" r="2" fill="#d14e5b" opacity="0.5"></circle></g><g class="slope"><circle cx="244.017" cy="434.92875669261747" r="2" fill="#4d824b" opacity="0.5"></circle><line x1="244.017" y1="434.92875669261747" x2="485.983" y2="253.28448943192257" stroke="#4d824b" stroke-width="1.0028361112161523" opacity="0.5"></line><circle cx="485.983" cy="253.28448943192257" r="2" fill="#4d824b" opacity="0.5"></circle></g><g class="slope"><circle cx="244.017" cy="287.90474623652335" r="2" fill="#4d824b" opacity="0.5"></circle><line x1="244.017" y1="287.90474623652335" x2="485.983" y2="170.4097124866077" stroke="#4d824b" stroke-width="1.0032675556765762" opacity="0.5"></line><circle cx="485.983" cy="170.4097124866077" r="2" fill="#4d824b" opacity="0.5"></circle></g><g class="slope"><circle cx="244.017" cy="374.6074869260924" r="2" fill="#4d824b" opacity="0.5"></circle><line x1="244.017" y1="374.6074869260924" x2="485.983" y2="232.8469894283313" stroke="#4d824b" stroke-width="1.006666555802465" opacity="0.5"></line><circle cx="485.983" cy="232.8469894283313" r="2" fill="#4d824b" opacity="0.5"></circle></g><g class="slope"><circle cx="244.017" cy="365.5826943678918" r="2" fill="#ffd336" opacity="0.5"></circle><line x1="244.017" y1="365.5826943678918" x2="485.983" y2="139.33167039792687" stroke="#ffd336" stroke-width="1.0068252224750083" opacity="0.5"></line><circle cx="485.983" cy="139.33167039792687" r="2" fill="#ffd336" opacity="0.5"></circle></g><g class="slope"><circle cx="244.017" cy="404.0303341556613" r="2" fill="#4d824b" opacity="0.5"></circle><line x1="244.017" y1="404.0303341556613" x2="485.983" y2="254.7195243227779" stroke="#4d824b" stroke-width="1.0087601114355598" opacity="0.5"></line><circle cx="485.983" cy="254.7195243227779" r="2" fill="#4d824b" opacity="0.5"></circle></g><g class="slope"><circle cx="244.017" cy="272.34362920360616" r="2" fill="#4d824b" opacity="0.5"></circle><line x1="244.017" y1="272.34362920360616" x2="485.983" y2="149.46589075986066" stroke="#4d824b" stroke-width="1.009080889225218" opacity="0.5"></line><circle cx="485.983" cy="149.46589075986066" r="2" fill="#4d824b" opacity="0.5"></circle></g><g class="slope"><circle cx="244.017" cy="471.54342212506" r="2" fill="#4d824b" opacity="0.5"></circle><line x1="244.017" y1="471.54342212506" x2="485.983" y2="265.067551960228" stroke="#4d824b" stroke-width="1.0098887781440289" opacity="0.5"></line><circle cx="485.983" cy="265.067551960228" r="2" fill="#4d824b" opacity="0.5"></circle></g><g class="slope"><circle cx="244.017" cy="376.0467688134799" r="2" fill="#ffd336" opacity="0.5"></circle><line x1="244.017" y1="376.0467688134799" x2="485.983" y2="176.18895219389236" stroke="#ffd336" stroke-width="1.0141143338560865" opacity="0.5"></line><circle cx="485.983" cy="176.18895219389236" r="2" fill="#ffd336" opacity="0.5"></circle></g><g class="slope"><circle cx="244.017" cy="395.4454814860252" r="2" fill="#4d824b" opacity="0.5"></circle><line x1="244.017" y1="395.4454814860252" x2="485.983" y2="252.7265183381959" stroke="#4d824b" stroke-width="1.017222111748967" opacity="0.5"></line><circle cx="485.983" cy="252.7265183381959" r="2" fill="#4d824b" opacity="0.5"></circle></g><g class="slope"><circle cx="244.017" cy="334.66600888344" r="2" fill="#ffd336" opacity="0.5"></circle><line x1="244.017" y1="334.66600888344" x2="485.983" y2="166.82750252380305" stroke="#ffd336" stroke-width="1.0204878896476997" opacity="0.5"></line><circle cx="485.983" cy="166.82750252380305" r="2" fill="#ffd336" opacity="0.5"></circle></g><g class="slope"><circle cx="244.017" cy="238.00151771329172" r="2" fill="#ffd336" opacity="0.5"></circle><line x1="244.017" y1="238.00151771329172" x2="485.983" y2="217.38523363774993" stroke="#ffd336" stroke-width="1.033333223456786" opacity="0.5"></line><circle cx="485.983" cy="217.38523363774993" r="2" fill="#ffd336" opacity="0.5"></circle></g><g class="slope"><circle cx="244.017" cy="283.05547241069024" r="2" fill="#ffd336" opacity="0.5"></circle><line x1="244.017" y1="283.05547241069024" x2="485.983" y2="153.03574066142886" stroke="#ffd336" stroke-width="1.04444433497942" opacity="0.5"></line><circle cx="485.983" cy="153.03574066142886" r="2" fill="#ffd336" opacity="0.5"></circle></g><g class="slope"><text font-size="11.70" x="192.1" y="297.5" text-anchor="end" fill="#333"><tspan x="192.12" y="297.45418735648514">Jamaica</tspan></text><text x="236.017" y="297.45418735648514" text-anchor="end" font-size="11.700000000000001" fill="#333">54.98%</text><circle cx="244.017" cy="293.94418735648514" r="2" fill="#4d824b" opacity="0.5"></circle><line x1="244.017" y1="293.94418735648514" x2="485.983" y2="190.13115277651548" stroke="#4d824b" stroke-width="1.0445554460946462" opacity="0.5"></line><circle cx="485.983" cy="190.13115277651548" r="2" fill="#4d824b" opacity="0.5"></circle></g><g class="slope"><circle cx="244.017" cy="402.14045937268816" r="2" fill="#ffd336" opacity="0.5"></circle><line x1="244.017" y1="402.14045937268816" x2="485.983" y2="140.4501819407863" stroke="#ffd336" stroke-width="1.0555554465020536" opacity="0.5"></line><circle cx="485.983" cy="140.4501819407863" r="2" fill="#ffd336" opacity="0.5"></circle><text x="493.983" y="143.9601819407863" dominant-baseline="middle" font-size="11.700000000000001" fill="#333">92.06%</text><text font-size="11.70" x="537.9" y="144.0" fill="#333"><tspan x="537.88" y="143.9601819407863">Norway</tspan></text></g><g class="slope"><circle cx="244.017" cy="344.53043617852603" r="2" fill="#ffd336" opacity="0.5"></circle><line x1="244.017" y1="344.53043617852603" x2="485.983" y2="163.00531208144116" stroke="#ffd336" stroke-width="1.0777776695473211" opacity="0.5"></line><circle cx="485.983" cy="163.00531208144116" r="2" fill="#ffd336" opacity="0.5"></circle></g><g class="slope"><circle cx="244.017" cy="410.88669279182204" r="2" fill="#69c487" opacity="0.5"></circle><line x1="244.017" y1="410.88669279182204" x2="485.983" y2="242.15213237329976" stroke="#69c487" stroke-width="1.0857162253968973" opacity="0.5"></line><circle cx="485.983" cy="242.15213237329976" r="2" fill="#69c487" opacity="0.5"></circle></g><g class="slope"><circle cx="244.017" cy="395.61930112974477" r="2" fill="#5675c1" opacity="0.5"></circle><line x1="244.017" y1="395.61930112974477" x2="485.983" y2="203.70423313973112" stroke="#5675c1" stroke-width="1.1111110041152223" opacity="0.5"></line><circle cx="485.983" cy="203.70423313973112" r="2" fill="#5675c1" opacity="0.5"></circle></g><g class="slope"><text font-size="11.70" x="192.1" y="337.7" text-anchor="end" fill="#333"><tspan x="192.12" y="337.68671375611837">United States</tspan></text><text x="236.017" y="337.68671375611837" text-anchor="end" font-size="11.700000000000001" fill="#333">45.26%</text><circle cx="244.017" cy="334.1767137561184" r="2" fill="#4d824b" opacity="0.5"></circle><line x1="244.017" y1="334.1767137561184" x2="485.983" y2="181.7691100969799" stroke="#4d824b" stroke-width="1.1111110041152223" opacity="0.5"></line><circle cx="485.983" cy="181.7691100969799" r="2" fill="#4d824b" opacity="0.5"></circle></g><g class="slope"><circle cx="244.017" cy="354.05152107275785" r="2" fill="#ffd336" opacity="0.5"></circle><line x1="244.017" y1="354.05152107275785" x2="485.983" y2="174.18481388323278" stroke="#ffd336" stroke-width="1.13333322716049" opacity="0.5"></line><circle cx="485.983" cy="174.18481388323278" r="2" fill="#ffd336" opacity="0.5"></circle></g><g class="slope"><circle cx="244.017" cy="435.41663403683543" r="2" fill="#69c487" opacity="0.5"></circle><line x1="244.017" y1="435.41663403683543" x2="485.983" y2="227.32165042457183" stroke="#69c487" stroke-width="1.1388887829218068" opacity="0.5"></line><circle cx="485.983" cy="227.32165042457183" r="2" fill="#69c487" opacity="0.5"></circle></g><g class="slope"><text font-size="11.70" x="192.1" y="320.8" text-anchor="end" fill="#333"><tspan x="192.12" y="320.7723987524215">Hungary</tspan></text><text x="236.017" y="320.7723987524215" text-anchor="end" font-size="11.700000000000001" fill="#333">49.34%</text><circle cx="244.017" cy="317.2623987524215" r="2" fill="#ffd336" opacity="0.5"></circle><line x1="244.017" y1="317.2623987524215" x2="485.983" y2="210.9587557421262" stroke="#ffd336" stroke-width="1.1666665617283911" opacity="0.5"></line><circle cx="485.983" cy="210.9587557421262" r="2" fill="#ffd336" opacity="0.5"></circle><text x="493.983" y="214.46875574212618" dominant-baseline="middle" font-size="11.700000000000001" fill="#333">75.03%</text><text font-size="11.70" x="537.9" y="214.5" fill="#333"><tspan x="537.88" y="214.46875574212618">Hungary</tspan></text></g><g class="slope"><text font-size="11.70" x="192.1" y="483.4" text-anchor="end" fill="#333"><tspan x="192.12" y="483.3879792725481">Morocco</tspan></text><text x="236.017" y="483.3879792725481" text-anchor="end" font-size="11.700000000000001" fill="#333">10.06%</text><circle cx="244.017" cy="479.8779792725481" r="2" fill="#5675c1" opacity="0.5"></circle><line x1="244.017" y1="479.8779792725481" x2="485.983" y2="378.41611657326183" stroke="#5675c1" stroke-width="1.1944443405349756" opacity="0.5"></line><circle cx="485.983" cy="378.41611657326183" r="2" fill="#5675c1" opacity="0.5"></circle></g><g class="slope"><text font-size="11.70" x="192.1" y="388.3" text-anchor="end" fill="#333"><tspan x="192.12" y="388.3491806747194">Philippines</tspan></text><text x="236.017" y="388.3491806747194" text-anchor="end" font-size="11.700000000000001" fill="#333">33.02%</text><circle cx="244.017" cy="384.8391806747194" r="2" fill="#d14e5b" opacity="0.5"></circle><line x1="244.017" y1="384.8391806747194" x2="485.983" y2="253.49023124141974" stroke="#d14e5b" stroke-width="1.2104875633513912" opacity="0.5"></line><circle cx="485.983" cy="253.49023124141974" r="2" fill="#d14e5b" opacity="0.5"></circle><text x="493.983" y="257.0002312414198" dominant-baseline="middle" font-size="11.700000000000001" fill="#333">64.75%</text><text font-size="11.70" x="537.9" y="257.0" fill="#333"><tspan x="537.88" y="257.0002312414198">Philippines</tspan></text></g><g class="slope"><text font-size="11.70" x="198.7" y="411.6" text-anchor="end" fill="#333"><tspan x="198.672" y="411.6086116252718">Netherlands</tspan></text><text x="236.017" y="411.6086116252718" text-anchor="end" font-size="11.700000000000001" fill="#333">27.4%</text><circle cx="244.017" cy="408.0986116252718" r="2" fill="#ffd336" opacity="0.5"></circle><line x1="244.017" y1="408.0986116252718" x2="485.983" y2="174.46389979804837" stroke="#ffd336" stroke-width="1.2111110078189262" opacity="0.5"></line><circle cx="485.983" cy="174.46389979804837" r="2" fill="#ffd336" opacity="0.5"></circle></g><g class="slope"><circle cx="244.017" cy="444.2975109185118" r="2" fill="#ffd336" opacity="0.5"></circle><line x1="244.017" y1="444.2975109185118" x2="485.983" y2="174.5045303078805" stroke="#ffd336" stroke-width="1.2222221193415599" opacity="0.5"></line><circle cx="485.983" cy="174.5045303078805" r="2" fill="#ffd336" opacity="0.5"></circle></g><g class="slope"><circle cx="244.017" cy="257.92304972258034" r="2" fill="#5675c1" opacity="0.5"></circle><line x1="244.017" y1="257.92304972258034" x2="485.983" y2="155.32020890663682" stroke="#5675c1" stroke-width="1.2240036749630991" opacity="0.5"></line><circle cx="485.983" cy="155.32020890663682" r="2" fill="#5675c1" opacity="0.5"></circle><text x="493.983" y="158.8302089066368" dominant-baseline="middle" font-size="11.700000000000001" fill="#333">88.47%</text><text font-size="11.70" x="537.9" y="158.8" fill="#333"><tspan x="537.88" y="158.8302089066368">Ghana</tspan></text></g><g class="slope"><text font-size="11.70" x="198.7" y="500.7" text-anchor="end" fill="#333"><tspan x="198.67200000000003" y="500.7422481996625">Egypt</tspan></text><text x="236.017" y="500.7422481996625" text-anchor="end" font-size="11.700000000000001" fill="#333">5.86%</text><circle cx="244.017" cy="497.23224819966254" r="2" fill="#5675c1" opacity="0.5"></circle><line x1="244.017" y1="497.23224819966254" x2="485.983" y2="388.4554106385019" stroke="#5675c1" stroke-width="1.499999907407404" opacity="0.5"></line><circle cx="485.983" cy="388.4554106385019" r="2" fill="#5675c1" opacity="0.5"></circle><text x="493.983" y="391.9654106385019" dominant-baseline="middle" font-size="11.700000000000001" fill="#333">32.14%</text><text font-size="11.70" x="537.9" y="392.0" fill="#333"><tspan x="537.88" y="391.9654106385019">Egypt</tspan></text></g><g class="slope"><circle cx="244.017" cy="433.25668183714623" r="2" fill="#4d824b" opacity="0.5"></circle><line x1="244.017" y1="433.25668183714623" x2="485.983" y2="291.40426046163725" stroke="#4d824b" stroke-width="1.499999907407404" opacity="0.5"></line><circle cx="485.983" cy="291.40426046163725" r="2" fill="#4d824b" opacity="0.5"></circle><text x="493.983" y="294.91426046163724" dominant-baseline="middle" font-size="11.700000000000001" fill="#333">55.59%</text><text font-size="11.70" x="537.9" y="294.9" fill="#333"><tspan x="537.88" y="294.91426046163724">Mexico</tspan></text></g><g class="slope"><text font-size="11.70" x="192.1" y="148.7" text-anchor="end" fill="#333"><tspan x="192.12" y="148.73726952118267">Thailand</tspan></text><text x="236.017" y="148.73726952118267" text-anchor="end" font-size="11.700000000000001" fill="#333">90.91%</text><circle cx="244.017" cy="145.22726952118268" r="2" fill="#d14e5b" opacity="0.5"></circle><line x1="244.017" y1="145.22726952118268" x2="485.983" y2="196.9965836720021" stroke="#d14e5b" stroke-width="1.5183332414197497" opacity="0.5"></line><circle cx="485.983" cy="196.9965836720021" r="2" fill="#d14e5b" opacity="0.5"></circle><text x="493.983" y="200.50658367200208" dominant-baseline="middle" font-size="11.700000000000001" fill="#333">78.4%</text><text font-size="11.70" x="531.3" y="200.5" fill="#333"><tspan x="531.328" y="200.50658367200208">Thailand</tspan></text></g><g class="slope"><circle cx="244.017" cy="240.00763933411645" r="2" fill="#ffd336" opacity="0.5"></circle><line x1="244.017" y1="240.00763933411645" x2="485.983" y2="211.09519464228657" stroke="#ffd336" stroke-width="1.6666665802469103" opacity="0.5"></line><circle cx="485.983" cy="211.09519464228657" r="2" fill="#ffd336" opacity="0.5"></circle></g><g class="slope"><text font-size="11.70" x="198.7" y="236.1" text-anchor="end" fill="#333"><tspan x="198.672" y="236.127572596218">Turkey</tspan></text><text x="236.017" y="236.127572596218" text-anchor="end" font-size="11.700000000000001" fill="#333">69.8%</text><circle cx="244.017" cy="232.617572596218" r="2" fill="#d14e5b" opacity="0.5"></circle><line x1="244.017" y1="232.617572596218" x2="485.983" y2="339.8668867086607" stroke="#d14e5b" stroke-width="1.9333332567901205" opacity="0.5"></line><circle cx="485.983" cy="339.8668867086607" r="2" fill="#d14e5b" opacity="0.5"></circle><text x="493.983" y="343.37688670866066" dominant-baseline="middle" font-size="11.700000000000001" fill="#333">43.88%</text><text font-size="11.70" x="537.9" y="343.4" fill="#333"><tspan x="537.88" y="343.37688670866066">Turkey</tspan></text></g><g class="slope"><text font-size="11.70" x="198.7" y="442.6" text-anchor="end" fill="#333"><tspan x="198.67200000000003" y="442.6298156086806">Spain</tspan></text><text x="236.017" y="442.6298156086806" text-anchor="end" font-size="11.700000000000001" fill="#333">19.9%</text><circle cx="244.017" cy="439.1198156086806" r="2" fill="#ffd336" opacity="0.5"></circle><line x1="244.017" y1="439.1198156086806" x2="485.983" y2="182.34751163480706" stroke="#ffd336" stroke-width="1.9744443694238656" opacity="0.5"></line><circle cx="485.983" cy="182.34751163480706" r="2" fill="#ffd336" opacity="0.5"></circle><text x="493.983" y="185.85751163480705" dominant-baseline="middle" font-size="11.700000000000001" fill="#333">81.94%</text><text font-size="11.70" x="537.9" y="185.9" fill="#333"><tspan x="537.88" y="185.85751163480705">Spain</tspan></text></g><g class="slope"><text font-size="11.70" x="198.7" y="366.9" text-anchor="end" fill="#333"><tspan x="198.67200000000003" y="366.9023435410375">South Korea</tspan></text><text x="236.017" y="366.9023435410375" text-anchor="end" font-size="11.700000000000001" fill="#333">38.2%</text><circle cx="244.017" cy="363.3923435410375" r="2" fill="#d14e5b" opacity="0.5"></circle><line x1="244.017" y1="363.3923435410375" x2="485.983" y2="230.98484014041435" stroke="#d14e5b" stroke-width="2.043888816440327" opacity="0.5"></line><circle cx="485.983" cy="230.98484014041435" r="2" fill="#d14e5b" opacity="0.5"></circle></g><g class="slope"><text font-size="11.70" x="192.1" y="259.0" text-anchor="end" fill="#333"><tspan x="192.12" y="259.0011652334262">Japan</tspan></text><text x="236.017" y="259.0011652334262" text-anchor="end" font-size="11.700000000000001" fill="#333">64.27%</text><circle cx="244.017" cy="255.49116523342616" r="2" fill="#d14e5b" opacity="0.5"></circle><line x1="244.017" y1="255.49116523342616" x2="485.983" y2="229.4738481188387" stroke="#d14e5b" stroke-width="4" opacity="0.5"></line><circle cx="485.983" cy="229.4738481188387" r="2" fill="#d14e5b" opacity="0.5"></circle><text x="493.983" y="232.9838481188387" dominant-baseline="middle" font-size="11.700000000000001" fill="#333">70.55%</text><text font-size="11.70" x="537.9" y="233.0" fill="#333"><tspan x="537.88" y="232.9838481188387">Japan</tspan></text></g></g></g><g style="cursor: pointer;" class="ScatterColorLegend clickable"><g class="legendMark"><rect x="735" y="105.10000000000001" width="43.256" height="17.6" fill="#fff" opacity="0"></rect>,<rect x="735" y="110.60000000000001" width="6" height="6" fill="#5675c1"></rect>,<text font-size="12.60" x="746.0" y="117.7"><tspan x="746" y="117.68">Africa</tspan></text></g><g class="legendMark"><rect x="735" y="122.70000000000002" width="35.57" height="17.6" fill="#fff" opacity="0"></rect>,<rect x="735" y="128.20000000000002" width="6" height="6" fill="#d14e5b"></rect>,<text font-size="12.60" x="746.0" y="135.3"><tspan x="746" y="135.28">Asia</tspan></text></g><g class="legendMark"><rect x="735" y="140.3" width="51.824" height="17.6" fill="#fff" opacity="0"></rect>,<rect x="735" y="145.8" width="6" height="6" fill="#ffd336"></rect>,<text font-size="12.60" x="746.0" y="152.9"><tspan x="746" y="152.88">Europe</tspan></text></g><g class="legendMark"><rect x="735" y="157.9" width="91.64" height="17.6" fill="#fff" opacity="0"></rect>,<rect x="735" y="163.4" width="6" height="6" fill="#4d824b"></rect>,<text font-size="12.60" x="746.0" y="170.5"><tspan x="746" y="170.48">North America</tspan></text></g><g class="legendMark"><rect x="735" y="175.5" width="93.908" height="17.6" fill="#fff" opacity="0"></rect>,<rect x="735" y="181" width="6" height="6" fill="#69c487"></rect>,<text font-size="12.60" x="746.0" y="188.1"><tspan x="746" y="188.07999999999998">South America</tspan></text></g></g></g><g style="fill: #777;" class="SourcesFooter"><g style="fill: #777;" class="clickable"><text font-size="12.60" x="15.0" y="581.6"><tspan x="15" y="581.58">Source: World Bank</tspan></text></g><text font-size="12.60" x="775.4" y="581.6"><tspan x="775.402" y="581.58"><a style="fill: #777;" class="cclogo" href="http://creativecommons.org/licenses/by-sa/4.0/deed.en_US" target="_blank">CC BY-SA</a></tspan></text></g></g></svg>