<svg xmlns="http://www.w3.org/2000/svg" version="1.1" style="font-family: 'Helvetica Neue', Helvetica, Arial, sans-serif; font-size: 18px; background-color: white; text-rendering: optimizeLegibility; -webkit-font-smoothing: antialiased;" width="850" height="600"><g class="ChartTab"><g class="HeaderView"><g opacity="0.8" transform="translate(778, 15) scale(0.27)"><a xmlns:xlink="http://www.w3.org/1999/xlink" xlink:href="https://ourworldindata.org" target="_blank"><g><rect x="0" y="0" fill="#1B2543" width="211.2" height="130.1"/><rect x="0" y="112.2" fill="#E63912" width="211.2" height="17.9"/><g><rect x="1.2" y="12.3" fill="none" width="210.2" height="99.2"/><path fill="#FFFFFF" d="M37.8,32.2c0,12.7-7.7,19.4-17.1,19.4c-9.7,0-16.6-7.5-16.6-18.7c0-11.7,7.3-19.3,17.1-19.3 C31.3,13.7,37.8,21.3,37.8,32.2z M9.2,32.8c0,7.9,4.3,14.9,11.8,14.9c7.5,0,11.8-6.9,11.8-15.3c0-7.3-3.8-14.9-11.8-14.9 C13.1,17.5,9.2,24.8,9.2,32.8z"/><path fill="#FFFFFF" d="M62.7,43.8c0,2.7,0.1,5.1,0.2,7.2h-4.3l-0.3-4.3h-0.1c-1.3,2.1-4,4.9-8.8,4.9c-4.2,0-9.1-2.3-9.1-11.6 V24.6h4.8v14.6c0,5,1.5,8.4,5.9,8.4c3.2,0,5.5-2.2,6.3-4.4c0.3-0.7,0.4-1.6,0.4-2.5V24.6h4.8V43.8z"/><path fill="#FFFFFF" d="M67.3,32.8c0-3.1-0.1-5.8-0.2-8.2h4.2l0.2,5.2h0.2c1.2-3.5,4.1-5.8,7.3-5.8c0.5,0,0.9,0.1,1.4,0.2v4.5 c-0.5-0.1-1-0.2-1.6-0.2c-3.4,0-5.8,2.6-6.5,6.2c-0.1,0.7-0.2,1.4-0.2,2.2V51h-4.8V32.8z"/><path fill="#FFFFFF" d="M95.4,51l-9.4-36.8h5l4.4,18.6c1.1,4.6,2.1,9.2,2.7,12.7h0.1c0.6-3.7,1.8-8,3-12.8l4.9-18.5h5l4.5,18.7 c1,4.4,2,8.7,2.6,12.6h0.1c0.8-4,1.8-8.1,3-12.7l4.9-18.5h4.9L120.6,51h-5L111,31.9c-1.1-4.7-1.9-8.3-2.4-12h-0.1 c-0.7,3.7-1.5,7.3-2.8,12L100.4,51H95.4z"/><path fill="#FFFFFF" d="M154.9,37.6c0,9.8-6.8,14-13.2,14c-7.2,0-12.7-5.2-12.7-13.6c0-8.8,5.8-14,13.1-14 C149.8,24,154.9,29.5,154.9,37.6z M133.9,37.9c0,5.8,3.3,10.1,8,10.1c4.6,0,8-4.3,8-10.3c0-4.5-2.2-10.1-7.9-10.1 C136.3,27.6,133.9,32.8,133.9,37.9z"/><path fill="#FFFFFF" d="M158.2,32.8c0-3.1-0.1-5.8-0.2-8.2h4.2l0.2,5.2h0.2c1.2-3.5,4.1-5.8,7.3-5.8c0.5,0,0.9,0.1,1.4,0.2v4.5 c-0.5-0.1-1-0.2-1.6-0.2c-3.4,0-5.8,2.6-6.5,6.2c-0.1,0.7-0.2,1.4-0.2,2.2V51h-4.8V32.8z"/><path fill="#FFFFFF" d="M173.5,12.3h4.8V51h-4.8V12.3z"/><path fill="#FFFFFF" d="M206.5,12.3v31.9c0,2.3,0.1,5,0.2,6.8h-4.3l-0.2-4.6H202c-1.5,2.9-4.7,5.2-9,5.2 c-6.4,0-11.3-5.4-11.3-13.4c-0.1-8.8,5.4-14.2,11.9-14.2c4,0,6.8,1.9,8,4h0.1V12.3H206.5z M201.7,35.4c0-0.6-0.1-1.4-0.2-2 c-0.7-3.1-3.3-5.6-6.9-5.6c-5,0-7.9,4.4-7.9,10.2c0,5.3,2.6,9.8,7.8,9.8c3.2,0,6.2-2.1,7.1-5.7c0.2-0.7,0.2-1.3,0.2-2.1V35.4z"/><path fill="#FFFFFF" d="M42.8,64c0.1,1.6-1.1,2.9-3.1,2.9c-1.7,0-2.9-1.3-2.9-2.9c0-1.7,1.3-3,3-3C41.7,61,42.8,62.3,42.8,64z M37.4,97.8V71.4h4.8v26.4H37.4z"/><path fill="#FFFFFF" d="M47.5,78.6c0-2.7-0.1-5-0.2-7.1h4.3l0.3,4.4h0.1c1.3-2.5,4.4-5,8.8-5c3.7,0,9.4,2.2,9.4,11.2v15.8h-4.8 V82.6c0-4.3-1.6-7.8-6.1-7.8c-3.2,0-5.6,2.2-6.5,4.9c-0.2,0.6-0.3,1.4-0.3,2.2v15.9h-4.8V78.6z"/><path fill="#FFFFFF" d="M84,61.6c2.9-0.4,6.3-0.8,10.1-0.8c6.8,0,11.7,1.6,14.9,4.6c3.3,3,5.2,7.3,5.2,13.2c0,6-1.9,10.9-5.3,14.3 c-3.4,3.4-9.1,5.3-16.3,5.3c-3.4,0-6.2-0.2-8.6-0.4V61.6z M88.8,94.1c1.2,0.2,3,0.3,4.8,0.3c10.2,0,15.7-5.7,15.7-15.6 c0.1-8.7-4.9-14.2-14.9-14.2c-2.5,0-4.3,0.2-5.6,0.5V94.1z"/><path fill="#FFFFFF" d="M132.1,97.8l-0.4-3.3h-0.2c-1.5,2.1-4.3,3.9-8.1,3.9c-5.4,0-8.1-3.8-8.1-7.6c0-6.4,5.7-9.9,15.9-9.8v-0.5 c0-2.2-0.6-6.1-6-6.1c-2.5,0-5,0.8-6.9,2l-1.1-3.2c2.2-1.4,5.4-2.3,8.7-2.3c8.1,0,10.1,5.5,10.1,10.8v9.9c0,2.3,0.1,4.5,0.4,6.3 H132.1z M131.4,84.4c-5.3-0.1-11.2,0.8-11.2,5.9c0,3.1,2.1,4.6,4.5,4.6c3.4,0,5.6-2.2,6.4-4.4c0.2-0.5,0.3-1,0.3-1.5V84.4z"/><path fill="#FFFFFF" d="M146.6,63.9v7.6h6.9v3.7h-6.9v14.2c0,3.3,0.9,5.1,3.6,5.1c1.3,0,2.2-0.2,2.8-0.3l0.2,3.6 c-0.9,0.4-2.4,0.7-4.3,0.7c-2.2,0-4-0.7-5.2-2c-1.4-1.4-1.9-3.8-1.9-6.9V75.1h-4.1v-3.7h4.1v-6.3L146.6,63.9z"/><path fill="#FFFFFF" d="M171.4,97.8l-0.4-3.3h-0.2c-1.5,2.1-4.3,3.9-8.1,3.9c-5.4,0-8.1-3.8-8.1-7.6c0-6.4,5.7-9.9,15.9-9.8v-0.5 c0-2.2-0.6-6.1-6-6.1c-2.5,0-5,0.8-6.9,2l-1.1-3.2c2.2-1.4,5.4-2.3,8.7-2.3c8.1,0,10.1,5.5,10.1,10.8v9.9c0,2.3,0.1,4.5,0.4,6.3 H171.4z M170.7,84.4c-5.3-0.1-11.2,0.8-11.2,5.9c0,3.1,2.1,4.6,4.5,4.6c3.4,0,5.6-2.2,6.4-4.4c0.2-0.5,0.3-1,0.3-1.5V84.4z"/></g></g></a></g><a href="https://ourworldindata.org/grapher/real-gdp-per-capita-PWT" target="_blank"><text font-size="25.20" x="15.0" y="35.2" fill="#555"><tspan x="15" y="35.160000000000004">GDP per capita</tspan></text></a><text font-size="14.40" x="15.0" y="53.7" fill="#666"><tspan x="15" y="53.72">Adjusted for price changes over time (inflation) and for price differences between countries (purchasing power) to</tspan><tspan x="15" y="69.56">allow comparisons.</tspan></text></g><g class="LineChart"><defs><clipPath id="boundsClip-1747"><rect x="68.968" y="0" width="830" height="928.8"></rect></clipPath></defs><g class="AxisBoxView"><g class="HorizontalAxis"><text x="79" y="556.5" fill="#666" text-anchor="middle" font-size="16.2">1950</text><text x="177.7" y="556.5" fill="#666" text-anchor="middle" font-size="16.2">1960</text><text x="276.5" y="556.5" fill="#666" text-anchor="middle" font-size="16.2">1970</text><text x="375.3" y="556.5" fill="#666" text-anchor="middle" font-size="16.2">1980</text><text x="474.1" y="556.5" fill="#666" text-anchor="middle" font-size="16.2">1990</text><text x="572.9" y="556.5" fill="#666" text-anchor="middle" font-size="16.2">2000</text><text x="711.2" y="556.5" fill="#666" text-anchor="middle" font-size="16.2">2014</text></g><g class="VerticalAxis"><text x="73.97" y="535.3" fill="#666" dominant-baseline="middle" text-anchor="end" font-size="16.2">$0</text><text x="73.97" y="472.8" fill="#666" dominant-baseline="middle" text-anchor="end" font-size="16.2">$2,000</text><text x="73.97" y="410.3" fill="#666" dominant-baseline="middle" text-anchor="end" font-size="16.2">$4,000</text><text x="73.97" y="347.8" fill="#666" dominant-baseline="middle" text-anchor="end" font-size="16.2">$6,000</text><text x="73.97" y="285.4" fill="#666" dominant-baseline="middle" text-anchor="end" font-size="16.2">$8,000</text><text x="73.97" y="222.9" fill="#666" dominant-baseline="middle" text-anchor="end" font-size="16.2">$10,000</text><text x="73.97" y="160.4" fill="#666" dominant-baseline="middle" text-anchor="end" font-size="16.2">$12,000</text><text x="73.97" y="97.9" fill="#666" dominant-baseline="middle" text-anchor="end" font-size="16.2">$14,000</text></g><g class="AxisGridLines"><line x1="78.97" y1="535.3" x2="711.17" y2="535.3" stroke="#ccc"></line><line x1="78.97" y1="472.8" x2="711.17" y2="472.8" stroke="#ddd" stroke-dasharray="3,2"></line><line x1="78.97" y1="410.3" x2="711.17" y2="410.3" stroke="#ddd" stroke-dasharray="3,2"></line><line x1="78.97" y1="347.8" x2="711.17" y2="347.8" stroke="#ddd" stroke-dasharray="3,2"></line><line x1="78.97" y1="285.4" x2="711.17" y2="285.4" stroke="#ddd" stroke-dasharray="3,2"></line><line x1="78.97" y1="222.9" x2="711.17" y2="222.9" stroke="#ddd" stroke-dasharray="3,2"></line><line x1="78.97" y1="160.4" x2="711.17" y2="160.4" stroke="#ddd" stroke-dasharray="3,2"></line><line x1="78.97" y1="97.9" x2="711.17" y2="97.9" stroke="#ddd" stroke-dasharray="3,2"></line></g></g><g clip-path="url(#boundsClip-1747)"><g class="HeightedLegend clickable"><g class="legendMark"><rect x="711.17" y="85.35" width="101.15" height="13.5" fill="#fff" opacity="0"></rect><text font-size="13.50" x="716.2" y="96.1" fill="#34983f"><tspan x="716.17" y="96.14999999999999">Costa Rica</tspan></text></g><g class="legendMark"><rect x="711.17" y="340.65" width="74.825" height="13.5" fill="#fff" opacity="0"></rect><text font-size="13.50" x="716.2" y="351.4" fill="#ca2628"><tspan x="716.17" y="351.45">Bolivia</tspan></text></g><g class="legendMark"><rect x="711.17" y="489.45" width="123.83000000000001" height="13.5" fill="#fff" opacity="0"></rect><text font-size="13.50" x="716.2" y="500.3" fill="#3360a9"><tspan x="716.17" y="500.25">Guinea-Bissau</tspan></text></g></g><g class="Lines"><rect x="79" y="92" width="632" height="443" fill="rgba(255,255,255,0)" opacity="0"></rect><g class="key-Costa-Rica_0"><path stroke="#34983f" stroke-linecap="round" d="M79 435L89 432L99 419L109 399L119 396L128 392L138 401L148 396L158 387L168 393L178 389L188 396L198 392L207 388L217 384L227 378L237 372L247 370L257 366L267 361L277 351L286 350L296 341L306 333L316 342L326 335L336 317L346 291L356 289L365 289L375 294L385 316L395 329L405 331L415 320L425 318L435 301L445 310L454 309L464 304L474 307L484 306L494 290L504 276L514 266L524 260L533 267L543 254L553 235L563 216L573 228L583 234L593 232L603 222L612 216L622 210L632 193L642 174L652 170L662 158L672 141L682 131L691 116L701 105L711 92" fill="none" stroke-width="1.5"></path><g fill="#34983f"><circle cx="79" cy="435" r="2"></circle><circle cx="89" cy="432" r="2"></circle><circle cx="99" cy="419" r="2"></circle><circle cx="109" cy="399" r="2"></circle><circle cx="119" cy="396" r="2"></circle><circle cx="128" cy="392" r="2"></circle><circle cx="138" cy="401" r="2"></circle><circle cx="148" cy="396" r="2"></circle><circle cx="158" cy="387" r="2"></circle><circle cx="168" cy="393" r="2"></circle><circle cx="178" cy="389" r="2"></circle><circle cx="188" cy="396" r="2"></circle><circle cx="198" cy="392" r="2"></circle><circle cx="207" cy="388" r="2"></circle><circle cx="217" cy="384" r="2"></circle><circle cx="227" cy="378" r="2"></circle><circle cx="237" cy="372" r="2"></circle><circle cx="247" cy="370" r="2"></circle><circle cx="257" cy="366" r="2"></circle><circle cx="267" cy="361" r="2"></circle><circle cx="277" cy="351" r="2"></circle><circle cx="286" cy="350" r="2"></circle><circle cx="296" cy="341" r="2"></circle><circle cx="306" cy="333" r="2"></circle><circle cx="316" cy="342" r="2"></circle><circle cx="326" cy="335" r="2"></circle><circle cx="336" cy="317" r="2"></circle><circle cx="346" cy="291" r="2"></circle><circle cx="356" cy="289" r="2"></circle><circle cx="365" cy="289" r="2"></circle><circle cx="375" cy="294" r="2"></circle><circle cx="385" cy="316" r="2"></circle><circle cx="395" cy="329" r="2"></circle><circle cx="405" cy="331" r="2"></circle><circle cx="415" cy="320" r="2"></circle><circle cx="425" cy="318" r="2"></circle><circle cx="435" cy="301" r="2"></circle><circle cx="445" cy="310" r="2"></circle><circle cx="454" cy="309" r="2"></circle><circle cx="464" cy="304" r="2"></circle><circle cx="474" cy="307" r="2"></circle><circle cx="484" cy="306" r="2"></circle><circle cx="494" cy="290" r="2"></circle><circle cx="504" cy="276" r="2"></circle><circle cx="514" cy="266" r="2"></circle><circle cx="524" cy="260" r="2"></circle><circle cx="533" cy="267" r="2"></circle><circle cx="543" cy="254" r="2"></circle><circle cx="553" cy="235" r="2"></circle><circle cx="563" cy="216" r="2"></circle><circle cx="573" cy="228" r="2"></circle><circle cx="583" cy="234" r="2"></circle><circle cx="593" cy="232" r="2"></circle><circle cx="603" cy="222" r="2"></circle><circle cx="612" cy="216" r="2"></circle><circle cx="622" cy="210" r="2"></circle><circle cx="632" cy="193" r="2"></circle><circle cx="642" cy="174" r="2"></circle><circle cx="652" cy="170" r="2"></circle><circle cx="662" cy="158" r="2"></circle><circle cx="672" cy="141" r="2"></circle><circle cx="682" cy="131" r="2"></circle><circle cx="691" cy="116" r="2"></circle><circle cx="701" cy="105" r="2"></circle><circle cx="711" cy="92" r="2"></circle></g></g><g class="key-Bolivia_0"><path stroke="#ca2628" stroke-linecap="round" d="M79 483L89 478L99 479L109 488L119 488L128 484L138 489L148 491L158 492L168 492L178 491L188 489L198 489L207 487L217 484L227 480L237 478L247 477L257 484L267 483L277 482L286 480L296 480L306 478L316 470L326 473L336 471L346 469L356 472L365 470L375 469L385 468L395 468L405 470L415 467L425 465L435 468L445 467L454 473L464 470L474 466L484 464L494 463L504 459L514 453L524 446L533 439L543 439L553 439L563 439L573 438L583 437L593 435L603 430L612 422L622 418L632 407L642 402L652 391L662 391L672 376L682 361L691 352L701 346L711 347" fill="none" stroke-width="1.5"></path><g fill="#ca2628"><circle cx="79" cy="483" r="2"></circle><circle cx="89" cy="478" r="2"></circle><circle cx="99" cy="479" r="2"></circle><circle cx="109" cy="488" r="2"></circle><circle cx="119" cy="488" r="2"></circle><circle cx="128" cy="484" r="2"></circle><circle cx="138" cy="489" r="2"></circle><circle cx="148" cy="491" r="2"></circle><circle cx="158" cy="492" r="2"></circle><circle cx="168" cy="492" r="2"></circle><circle cx="178" cy="491" r="2"></circle><circle cx="188" cy="489" r="2"></circle><circle cx="198" cy="489" r="2"></circle><circle cx="207" cy="487" r="2"></circle><circle cx="217" cy="484" r="2"></circle><circle cx="227" cy="480" r="2"></circle><circle cx="237" cy="478" r="2"></circle><circle cx="247" cy="477" r="2"></circle><circle cx="257" cy="484" r="2"></circle><circle cx="267" cy="483" r="2"></circle><circle cx="277" cy="482" r="2"></circle><circle cx="286" cy="480" r="2"></circle><circle cx="296" cy="480" r="2"></circle><circle cx="306" cy="478" r="2"></circle><circle cx="316" cy="470" r="2"></circle><circle cx="326" cy="473" r="2"></circle><circle cx="336" cy="471" r="2"></circle><circle cx="346" cy="469" r="2"></circle><circle cx="356" cy="472" r="2"></circle><circle cx="365" cy="470" r="2"></circle><circle cx="375" cy="469" r="2"></circle><circle cx="385" cy="468" r="2"></circle><circle cx="395" cy="468" r="2"></circle><circle cx="405" cy="470" r="2"></circle><circle cx="415" cy="467" r="2"></circle><circle cx="425" cy="465" r="2"></circle><circle cx="435" cy="468" r="2"></circle><circle cx="445" cy="467" r="2"></circle><circle cx="454" cy="473" r="2"></circle><circle cx="464" cy="470" r="2"></circle><circle cx="474" cy="466" r="2"></circle><circle cx="484" cy="464" r="2"></circle><circle cx="494" cy="463" r="2"></circle><circle cx="504" cy="459" r="2"></circle><circle cx="514" cy="453" r="2"></circle><circle cx="524" cy="446" r="2"></circle><circle cx="533" cy="439" r="2"></circle><circle cx="543" cy="439" r="2"></circle><circle cx="553" cy="439" r="2"></circle><circle cx="563" cy="439" r="2"></circle><circle cx="573" cy="438" r="2"></circle><circle cx="583" cy="437" r="2"></circle><circle cx="593" cy="435" r="2"></circle><circle cx="603" cy="430" r="2"></circle><circle cx="612" cy="422" r="2"></circle><circle cx="622" cy="418" r="2"></circle><circle cx="632" cy="407" r="2"></circle><circle cx="642" cy="402" r="2"></circle><circle cx="652" cy="391" r="2"></circle><circle cx="662" cy="391" r="2"></circle><circle cx="672" cy="376" r="2"></circle><circle cx="682" cy="361" r="2"></circle><circle cx="691" cy="352" r="2"></circle><circle cx="701" cy="346" r="2"></circle><circle cx="711" cy="347" r="2"></circle></g></g><g class="key-Guinea__002dBissau_0"><path stroke="#3360a9" stroke-linecap="round" d="M178 507L188 507L198 507L207 504L217 502L227 501L237 504L247 500L257 499L267 495L277 491L286 494L296 492L306 492L316 491L326 488L336 485L346 493L356 487L365 487L375 491L385 495L395 495L405 497L415 497L425 502L435 496L445 495L454 494L464 494L474 493L484 492L494 498L504 495L514 491L524 491L533 491L543 486L553 494L563 487L573 490L583 490L593 492L603 493L612 493L622 494L632 496L642 495L652 496L662 497L672 496L682 491L691 496L701 497L711 496" fill="none" stroke-width="1.5"></path><g fill="#3360a9"><circle cx="178" cy="507" r="2"></circle><circle cx="188" cy="507" r="2"></circle><circle cx="198" cy="507" r="2"></circle><circle cx="207" cy="504" r="2"></circle><circle cx="217" cy="502" r="2"></circle><circle cx="227" cy="501" r="2"></circle><circle cx="237" cy="504" r="2"></circle><circle cx="247" cy="500" r="2"></circle><circle cx="257" cy="499" r="2"></circle><circle cx="267" cy="495" r="2"></circle><circle cx="277" cy="491" r="2"></circle><circle cx="286" cy="494" r="2"></circle><circle cx="296" cy="492" r="2"></circle><circle cx="306" cy="492" r="2"></circle><circle cx="316" cy="491" r="2"></circle><circle cx="326" cy="488" r="2"></circle><circle cx="336" cy="485" r="2"></circle><circle cx="346" cy="493" r="2"></circle><circle cx="356" cy="487" r="2"></circle><circle cx="365" cy="487" r="2"></circle><circle cx="375" cy="491" r="2"></circle><circle cx="385" cy="495" r="2"></circle><circle cx="395" cy="495" r="2"></circle><circle cx="405" cy="497" r="2"></circle><circle cx="415" cy="497" r="2"></circle><circle cx="425" cy="502" r="2"></circle><circle cx="435" cy="496" r="2"></circle><circle cx="445" cy="495" r="2"></circle><circle cx="454" cy="494" r="2"></circle><circle cx="464" cy="494" r="2"></circle><circle cx="474" cy="493" r="2"></circle><circle cx="484" cy="492" r="2"></circle><circle cx="494" cy="498" r="2"></circle><circle cx="504" cy="495" r="2"></circle><circle cx="514" cy="491" r="2"></circle><circle cx="524" cy="491" r="2"></circle><circle cx="533" cy="491" r="2"></circle><circle cx="543" cy="486" r="2"></circle><circle cx="553" cy="494" r="2"></circle><circle cx="563" cy="487" r="2"></circle><circle cx="573" cy="490" r="2"></circle><circle cx="583" cy="490" r="2"></circle><circle cx="593" cy="492" r="2"></circle><circle cx="603" cy="493" r="2"></circle><circle cx="612" cy="493" r="2"></circle><circle cx="622" cy="494" r="2"></circle><circle cx="632" cy="496" r="2"></circle><circle cx="642" cy="495" r="2"></circle><circle cx="652" cy="496" r="2"></circle><circle cx="662" cy="497" r="2"></circle><circle cx="672" cy="496" r="2"></circle><circle cx="682" cy="491" r="2"></circle><circle cx="691" cy="496" r="2"></circle><circle cx="701" cy="497" r="2"></circle><circle cx="711" cy="496" r="2"></circle></g></g></g></g></g><g style="fill: #777;" class="SourcesFooter"><g style="fill: #777;" class="clickable"><text font-size="12.60" x="15.0" y="581.6"><tspan x="15" y="581.58">Source: Penn World Tables</tspan></text></g><text font-size="12.60" x="549.4" y="581.6"><tspan x="549.358" y="581.58"><a target='_blank' style='fill: #777;' href='https://ourworldindata.org/economic-growth'>OurWorldInData.org/economic-growth</a> • <a style="fill: #777;" class="cclogo" href="http://creativecommons.org/licenses/by-sa/4.0/deed.en_US" target="_blank">CC BY-SA</a></tspan></text></g></g></svg>