<svg xmlns="http://www.w3.org/2000/svg" version="1.1" style="font-family: 'Helvetica Neue', Helvetica, Arial, sans-serif; font-size: 18px; background-color: white; text-rendering: optimizeLegibility; -webkit-font-smoothing: antialiased;" width="850" height="600"><g class="ChartTab"><g class="HeaderView"><g opacity="0.8" transform="translate(778, 15) scale(0.27)"><a xmlns:xlink="http://www.w3.org/1999/xlink" xlink:href="https://ourworldindata.org" target="_blank"><g><rect x="0" y="0" fill="#1B2543" width="211.2" height="130.1"/><rect x="0" y="112.2" fill="#E63912" width="211.2" height="17.9"/><g><rect x="1.2" y="12.3" fill="none" width="210.2" height="99.2"/><path fill="#FFFFFF" d="M37.8,32.2c0,12.7-7.7,19.4-17.1,19.4c-9.7,0-16.6-7.5-16.6-18.7c0-11.7,7.3-19.3,17.1-19.3 C31.3,13.7,37.8,21.3,37.8,32.2z M9.2,32.8c0,7.9,4.3,14.9,11.8,14.9c7.5,0,11.8-6.9,11.8-15.3c0-7.3-3.8-14.9-11.8-14.9 C13.1,17.5,9.2,24.8,9.2,32.8z"/><path fill="#FFFFFF" d="M62.7,43.8c0,2.7,0.1,5.1,0.2,7.2h-4.3l-0.3-4.3h-0.1c-1.3,2.1-4,4.9-8.8,4.9c-4.2,0-9.1-2.3-9.1-11.6 V24.6h4.8v14.6c0,5,1.5,8.4,5.9,8.4c3.2,0,5.5-2.2,6.3-4.4c0.3-0.7,0.4-1.6,0.4-2.5V24.6h4.8V43.8z"/><path fill="#FFFFFF" d="M67.3,32.8c0-3.1-0.1-5.8-0.2-8.2h4.2l0.2,5.2h0.2c1.2-3.5,4.1-5.8,7.3-5.8c0.5,0,0.9,0.1,1.4,0.2v4.5 c-0.5-0.1-1-0.2-1.6-0.2c-3.4,0-5.8,2.6-6.5,6.2c-0.1,0.7-0.2,1.4-0.2,2.2V51h-4.8V32.8z"/><path fill="#FFFFFF" d="M95.4,51l-9.4-36.8h5l4.4,18.6c1.1,4.6,2.1,9.2,2.7,12.7h0.1c0.6-3.7,1.8-8,3-12.8l4.9-18.5h5l4.5,18.7 c1,4.4,2,8.7,2.6,12.6h0.1c0.8-4,1.8-8.1,3-12.7l4.9-18.5h4.9L120.6,51h-5L111,31.9c-1.1-4.7-1.9-8.3-2.4-12h-0.1 c-0.7,3.7-1.5,7.3-2.8,12L100.4,51H95.4z"/><path fill="#FFFFFF" d="M154.9,37.6c0,9.8-6.8,14-13.2,14c-7.2,0-12.7-5.2-12.7-13.6c0-8.8,5.8-14,13.1-14 C149.8,24,154.9,29.5,154.9,37.6z M133.9,37.9c0,5.8,3.3,10.1,8,10.1c4.6,0,8-4.3,8-10.3c0-4.5-2.2-10.1-7.9-10.1 C136.3,27.6,133.9,32.8,133.9,37.9z"/><path fill="#FFFFFF" d="M158.2,32.8c0-3.1-0.1-5.8-0.2-8.2h4.2l0.2,5.2h0.2c1.2-3.5,4.1-5.8,7.3-5.8c0.5,0,0.9,0.1,1.4,0.2v4.5 c-0.5-0.1-1-0.2-1.6-0.2c-3.4,0-5.8,2.6-6.5,6.2c-0.1,0.7-0.2,1.4-0.2,2.2V51h-4.8V32.8z"/><path fill="#FFFFFF" d="M173.5,12.3h4.8V51h-4.8V12.3z"/><path fill="#FFFFFF" d="M206.5,12.3v31.9c0,2.3,0.1,5,0.2,6.8h-4.3l-0.2-4.6H202c-1.5,2.9-4.7,5.2-9,5.2 c-6.4,0-11.3-5.4-11.3-13.4c-0.1-8.8,5.4-14.2,11.9-14.2c4,0,6.8,1.9,8,4h0.1V12.3H206.5z M201.7,35.4c0-0.6-0.1-1.4-0.2-2 c-0.7-3.1-3.3-5.6-6.9-5.6c-5,0-7.9,4.4-7.9,10.2c0,5.3,2.6,9.8,7.8,9.8c3.2,0,6.2-2.1,7.1-5.7c0.2-0.7,0.2-1.3,0.2-2.1V35.4z"/><path fill="#FFFFFF" d="M42.8,64c0.1,1.6-1.1,2.9-3.1,2.9c-1.7,0-2.9-1.3-2.9-2.9c0-1.7,1.3-3,3-3C41.7,61,42.8,62.3,42.8,64z M37.4,97.8V71.4h4.8v26.4H37.4z"/><path fill="#FFFFFF" d="M47.5,78.6c0-2.7-0.1-5-0.2-7.1h4.3l0.3,4.4h0.1c1.3-2.5,4.4-5,8.8-5c3.7,0,9.4,2.2,9.4,11.2v15.8h-4.8 V82.6c0-4.3-1.6-7.8-6.1-7.8c-3.2,0-5.6,2.2-6.5,4.9c-0.2,0.6-0.3,1.4-0.3,2.2v15.9h-4.8V78.6z"/><path fill="#FFFFFF" d="M84,61.6c2.9-0.4,6.3-0.8,10.1-0.8c6.8,0,11.7,1.6,14.9,4.6c3.3,3,5.2,7.3,5.2,13.2c0,6-1.9,10.9-5.3,14.3 c-3.4,3.4-9.1,5.3-16.3,5.3c-3.4,0-6.2-0.2-8.6-0.4V61.6z M88.8,94.1c1.2,0.2,3,0.3,4.8,0.3c10.2,0,15.7-5.7,15.7-15.6 c0.1-8.7-4.9-14.2-14.9-14.2c-2.5,0-4.3,0.2-5.6,0.5V94.1z"/><path fill="#FFFFFF" d="M132.1,97.8l-0.4-3.3h-0.2c-1.5,2.1-4.3,3.9-8.1,3.9c-5.4,0-8.1-3.8-8.1-7.6c0-6.4,5.7-9.9,15.9-9.8v-0.5 c0-2.2-0.6-6.1-6-6.1c-2.5,0-5,0.8-6.9,2l-1.1-3.2c2.2-1.4,5.4-2.3,8.7-2.3c8.1,0,10.1,5.5,10.1,10.8v9.9c0,2.3,0.1,4.5,0.4,6.3 H132.1z M131.4,84.4c-5.3-0.1-11.2,0.8-11.2,5.9c0,3.1,2.1,4.6,4.5,4.6c3.4,0,5.6-2.2,6.4-4.4c0.2-0.5,0.3-1,0.3-1.5V84.4z"/><path fill="#FFFFFF" d="M146.6,63.9v7.6h6.9v3.7h-6.9v14.2c0,3.3,0.9,5.1,3.6,5.1c1.3,0,2.2-0.2,2.8-0.3l0.2,3.6 c-0.9,0.4-2.4,0.7-4.3,0.7c-2.2,0-4-0.7-5.2-2c-1.4-1.4-1.9-3.8-1.9-6.9V75.1h-4.1v-3.7h4.1v-6.3L146.6,63.9z"/><path fill="#FFFFFF" d="M171.4,97.8l-0.4-3.3h-0.2c-1.5,2.1-4.3,3.9-8.1,3.9c-5.4,0-8.1-3.8-8.1-7.6c0-6.4,5.7-9.9,15.9-9.8v-0.5 c0-2.2-0.6-6.1-6-6.1c-2.5,0-5,0.8-6.9,2l-1.1-3.2c2.2-1.4,5.4-2.3,8.7-2.3c8.1,0,10.1,5.5,10.1,10.8v9.9c0,2.3,0.1,4.5,0.4,6.3 H171.4z M170.7,84.4c-5.3-0.1-11.2,0.8-11.2,5.9c0,3.1,2.1,4.6,4.5,4.6c3.4,0,5.6-2.2,6.4-4.4c0.2-0.5,0.3-1,0.3-1.5V84.4z"/></g></g></a></g><a href="https://ourworldindata.org/grapher/real-gdp-per-capita-in-2011us-multiple-benchmarks-maddison-project-database-2018" target="_blank"><text font-size="25.20" x="15.0" y="35.2" fill="#555"><tspan x="15" y="35.160000000000004">Real GDP per capita in the UK versus the US</tspan></text></a><text font-size="14.40" x="15.0" y="53.7" fill="#666"><tspan x="15" y="53.72">UK, US real GDP per capita comparison using the multiple benchmarks time series for cross-country income</tspan><tspan x="15" y="69.56">comparisons.</tspan></text></g><g class="LineChart"><defs><clipPath id="boundsClip-1755"><rect x="68.968" y="0" width="830" height="928.8"></rect></clipPath></defs><g class="AxisBoxView"><g class="HorizontalAxis"><text x="79" y="556.5" fill="#666" text-anchor="middle" font-size="16.2">1800</text><text x="223.6" y="556.5" fill="#666" text-anchor="middle" font-size="16.2">1850</text><text x="368.2" y="556.5" fill="#666" text-anchor="middle" font-size="16.2">1900</text><text x="512.7" y="556.5" fill="#666" text-anchor="middle" font-size="16.2">1950</text><text x="657.3" y="556.5" fill="#666" text-anchor="middle" font-size="16.2">2000</text><text x="703.6" y="556.5" fill="#666" text-anchor="middle" font-size="16.2">2016</text></g><g class="VerticalAxis"><text x="73.97" y="535.3" fill="#666" dominant-baseline="middle" text-anchor="end" font-size="16.2">$0</text><text x="73.97" y="451.7" fill="#666" dominant-baseline="middle" text-anchor="end" font-size="16.2">$10,000</text><text x="73.97" y="368.1" fill="#666" dominant-baseline="middle" text-anchor="end" font-size="16.2">$20,000</text><text x="73.97" y="284.5" fill="#666" dominant-baseline="middle" text-anchor="end" font-size="16.2">$30,000</text><text x="73.97" y="200.9" fill="#666" dominant-baseline="middle" text-anchor="end" font-size="16.2">$40,000</text><text x="73.97" y="117.3" fill="#666" dominant-baseline="middle" text-anchor="end" font-size="16.2">$50,000</text></g><g class="AxisGridLines"><line x1="78.97" y1="535.3" x2="703.61" y2="535.3" stroke="#ccc"></line><line x1="78.97" y1="451.7" x2="703.61" y2="451.7" stroke="#ddd" stroke-dasharray="3,2"></line><line x1="78.97" y1="368.1" x2="703.61" y2="368.1" stroke="#ddd" stroke-dasharray="3,2"></line><line x1="78.97" y1="284.5" x2="703.61" y2="284.5" stroke="#ddd" stroke-dasharray="3,2"></line><line x1="78.97" y1="200.9" x2="703.61" y2="200.9" stroke="#ddd" stroke-dasharray="3,2"></line><line x1="78.97" y1="117.3" x2="703.61" y2="117.3" stroke="#ddd" stroke-dasharray="3,2"></line></g></g><g clip-path="url(#boundsClip-1755)"><g class="HeightedLegend clickable"><g class="legendMark"><rect x="703.61" y="85.35" width="116.405" height="13.5" fill="#fff" opacity="0"></rect><text font-size="13.50" x="708.6" y="96.1" fill="#ca2628"><tspan x="708.61" y="96.14999999999999">United States</tspan></text></g><g class="legendMark"><rect x="703.61" y="201.15" width="131.39" height="13.5" fill="#fff" opacity="0"></rect><text font-size="13.50" x="708.6" y="212.0" fill="#3360a9"><tspan x="708.61" y="211.95000000000002">United Kingdom</tspan></text></g></g><g class="Lines"><rect x="79" y="92" width="625" height="443" fill="rgba(255,255,255,0)" opacity="0"></rect><g class="key-United-Kingdom_0"><path stroke="#3360a9" stroke-linecap="round" d="M79 517L82 517L85 517L88 517L91 518L93 517L96 517L99 516L102 517L105 517L108 516L111 517L114 518L117 517L120 518L122 516L125 517L128 517L131 518L134 518L137 517L140 517L143 517L146 517L148 516L151 516L154 517L157 516L160 516L163 516L166 516L169 516L172 515L174 516L177 515L180 514L183 514L186 514L189 513L192 514L195 513L198 514L200 514L203 514L206 512L209 511L212 511L215 512L218 511L221 511L224 511L227 511L229 510L232 509L235 508L238 509L241 508L244 508L247 508L250 508L253 507L255 508L258 509L261 507L264 506L267 506L270 505L273 505L276 504L279 504L281 503L284 503L287 504L290 503L293 503L296 502L299 502L302 502L305 502L307 502L310 501L313 500L316 499L319 499L322 499L325 500L328 499L331 498L334 497L336 495L339 495L342 495L345 496L348 496L351 494L354 493L357 492L360 491L362 489L365 488L368 488L371 489L374 488L377 489L380 489L383 488L386 486L388 486L391 488L394 487L397 486L400 485L403 484L406 482L409 482L412 479L414 478L417 478L420 478L423 484L426 488L429 489L432 485L435 483L438 481L441 479L443 481L446 476L449 476L452 474L455 474L458 478L461 478L464 476L467 472L469 470L472 467L475 465L478 465L481 465L484 458L487 451L490 449L493 448L495 451L498 455L501 459L504 460L507 459L510 456L513 456L516 455L519 456L521 452L524 448L527 445L530 444L533 442L536 442L539 439L542 435L545 432L547 431L550 428L553 422L556 420L559 417L562 415L565 413L568 408L571 404L574 404L576 401L579 392L582 395L585 395L588 390L591 384L594 375L597 367L600 363L602 368L605 369L608 367L611 366L614 362L617 357L620 349L623 342L626 338L628 335L631 337L634 336L637 331L640 323L643 314L646 303L649 286L652 276L654 266L657 248L660 241L663 240L666 240L669 232L672 220L675 216L678 217L681 221L683 237L686 242L689 243L692 236L695 220L698 216L701 211L704 208" fill="none" stroke-width="1.5"></path><g fill="#3360a9"><circle cx="79" cy="517" r="2"></circle><circle cx="82" cy="517" r="2"></circle><circle cx="85" cy="517" r="2"></circle><circle cx="88" cy="517" r="2"></circle><circle cx="91" cy="518" r="2"></circle><circle cx="93" cy="517" r="2"></circle><circle cx="96" cy="517" r="2"></circle><circle cx="99" cy="516" r="2"></circle><circle cx="102" cy="517" r="2"></circle><circle cx="105" cy="517" r="2"></circle><circle cx="108" cy="516" r="2"></circle><circle cx="111" cy="517" r="2"></circle><circle cx="114" cy="518" r="2"></circle><circle cx="117" cy="517" r="2"></circle><circle cx="120" cy="518" r="2"></circle><circle cx="122" cy="516" r="2"></circle><circle cx="125" cy="517" r="2"></circle><circle cx="128" cy="517" r="2"></circle><circle cx="131" cy="518" r="2"></circle><circle cx="134" cy="518" r="2"></circle><circle cx="137" cy="517" r="2"></circle><circle cx="140" cy="517" r="2"></circle><circle cx="143" cy="517" r="2"></circle><circle cx="146" cy="517" r="2"></circle><circle cx="148" cy="516" r="2"></circle><circle cx="151" cy="516" r="2"></circle><circle cx="154" cy="517" r="2"></circle><circle cx="157" cy="516" r="2"></circle><circle cx="160" cy="516" r="2"></circle><circle cx="163" cy="516" r="2"></circle><circle cx="166" cy="516" r="2"></circle><circle cx="169" cy="516" r="2"></circle><circle cx="172" cy="515" r="2"></circle><circle cx="174" cy="516" r="2"></circle><circle cx="177" cy="515" r="2"></circle><circle cx="180" cy="514" r="2"></circle><circle cx="183" cy="514" r="2"></circle><circle cx="186" cy="514" r="2"></circle><circle cx="189" cy="513" r="2"></circle><circle cx="192" cy="514" r="2"></circle><circle cx="195" cy="513" r="2"></circle><circle cx="198" cy="514" r="2"></circle><circle cx="200" cy="514" r="2"></circle><circle cx="203" cy="514" r="2"></circle><circle cx="206" cy="512" r="2"></circle><circle cx="209" cy="511" r="2"></circle><circle cx="212" cy="511" r="2"></circle><circle cx="215" cy="512" r="2"></circle><circle cx="218" cy="511" r="2"></circle><circle cx="221" cy="511" r="2"></circle><circle cx="224" cy="511" r="2"></circle><circle cx="227" cy="511" r="2"></circle><circle cx="229" cy="510" r="2"></circle><circle cx="232" cy="509" r="2"></circle><circle cx="235" cy="508" r="2"></circle><circle cx="238" cy="509" r="2"></circle><circle cx="241" cy="508" r="2"></circle><circle cx="244" cy="508" r="2"></circle><circle cx="247" cy="508" r="2"></circle><circle cx="250" cy="508" r="2"></circle><circle cx="253" cy="507" r="2"></circle><circle cx="255" cy="508" r="2"></circle><circle cx="258" cy="509" r="2"></circle><circle cx="261" cy="507" r="2"></circle><circle cx="264" cy="506" r="2"></circle><circle cx="267" cy="506" r="2"></circle><circle cx="270" cy="505" r="2"></circle><circle cx="273" cy="505" r="2"></circle><circle cx="276" cy="504" r="2"></circle><circle cx="279" cy="504" r="2"></circle><circle cx="281" cy="503" r="2"></circle><circle cx="284" cy="503" r="2"></circle><circle cx="287" cy="504" r="2"></circle><circle cx="290" cy="503" r="2"></circle><circle cx="293" cy="503" r="2"></circle><circle cx="296" cy="502" r="2"></circle><circle cx="299" cy="502" r="2"></circle><circle cx="302" cy="502" r="2"></circle><circle cx="305" cy="502" r="2"></circle><circle cx="307" cy="502" r="2"></circle><circle cx="310" cy="501" r="2"></circle><circle cx="313" cy="500" r="2"></circle><circle cx="316" cy="499" r="2"></circle><circle cx="319" cy="499" r="2"></circle><circle cx="322" cy="499" r="2"></circle><circle cx="325" cy="500" r="2"></circle><circle cx="328" cy="499" r="2"></circle><circle cx="331" cy="498" r="2"></circle><circle cx="334" cy="497" r="2"></circle><circle cx="336" cy="495" r="2"></circle><circle cx="339" cy="495" r="2"></circle><circle cx="342" cy="495" r="2"></circle><circle cx="345" cy="496" r="2"></circle><circle cx="348" cy="496" r="2"></circle><circle cx="351" cy="494" r="2"></circle><circle cx="354" cy="493" r="2"></circle><circle cx="357" cy="492" r="2"></circle><circle cx="360" cy="491" r="2"></circle><circle cx="362" cy="489" r="2"></circle><circle cx="365" cy="488" r="2"></circle><circle cx="368" cy="488" r="2"></circle><circle cx="371" cy="489" r="2"></circle><circle cx="374" cy="488" r="2"></circle><circle cx="377" cy="489" r="2"></circle><circle cx="380" cy="489" r="2"></circle><circle cx="383" cy="488" r="2"></circle><circle cx="386" cy="486" r="2"></circle><circle cx="388" cy="486" r="2"></circle><circle cx="391" cy="488" r="2"></circle><circle cx="394" cy="487" r="2"></circle><circle cx="397" cy="486" r="2"></circle><circle cx="400" cy="485" r="2"></circle><circle cx="403" cy="484" r="2"></circle><circle cx="406" cy="482" r="2"></circle><circle cx="409" cy="482" r="2"></circle><circle cx="412" cy="479" r="2"></circle><circle cx="414" cy="478" r="2"></circle><circle cx="417" cy="478" r="2"></circle><circle cx="420" cy="478" r="2"></circle><circle cx="423" cy="484" r="2"></circle><circle cx="426" cy="488" r="2"></circle><circle cx="429" cy="489" r="2"></circle><circle cx="432" cy="485" r="2"></circle><circle cx="435" cy="483" r="2"></circle><circle cx="438" cy="481" r="2"></circle><circle cx="441" cy="479" r="2"></circle><circle cx="443" cy="481" r="2"></circle><circle cx="446" cy="476" r="2"></circle><circle cx="449" cy="476" r="2"></circle><circle cx="452" cy="474" r="2"></circle><circle cx="455" cy="474" r="2"></circle><circle cx="458" cy="478" r="2"></circle><circle cx="461" cy="478" r="2"></circle><circle cx="464" cy="476" r="2"></circle><circle cx="467" cy="472" r="2"></circle><circle cx="469" cy="470" r="2"></circle><circle cx="472" cy="467" r="2"></circle><circle cx="475" cy="465" r="2"></circle><circle cx="478" cy="465" r="2"></circle><circle cx="481" cy="465" r="2"></circle><circle cx="484" cy="458" r="2"></circle><circle cx="487" cy="451" r="2"></circle><circle cx="490" cy="449" r="2"></circle><circle cx="493" cy="448" r="2"></circle><circle cx="495" cy="451" r="2"></circle><circle cx="498" cy="455" r="2"></circle><circle cx="501" cy="459" r="2"></circle><circle cx="504" cy="460" r="2"></circle><circle cx="507" cy="459" r="2"></circle><circle cx="510" cy="456" r="2"></circle><circle cx="513" cy="456" r="2"></circle><circle cx="516" cy="455" r="2"></circle><circle cx="519" cy="456" r="2"></circle><circle cx="521" cy="452" r="2"></circle><circle cx="524" cy="448" r="2"></circle><circle cx="527" cy="445" r="2"></circle><circle cx="530" cy="444" r="2"></circle><circle cx="533" cy="442" r="2"></circle><circle cx="536" cy="442" r="2"></circle><circle cx="539" cy="439" r="2"></circle><circle cx="542" cy="435" r="2"></circle><circle cx="545" cy="432" r="2"></circle><circle cx="547" cy="431" r="2"></circle><circle cx="550" cy="428" r="2"></circle><circle cx="553" cy="422" r="2"></circle><circle cx="556" cy="420" r="2"></circle><circle cx="559" cy="417" r="2"></circle><circle cx="562" cy="415" r="2"></circle><circle cx="565" cy="413" r="2"></circle><circle cx="568" cy="408" r="2"></circle><circle cx="571" cy="404" r="2"></circle><circle cx="574" cy="404" r="2"></circle><circle cx="576" cy="401" r="2"></circle><circle cx="579" cy="392" r="2"></circle><circle cx="582" cy="395" r="2"></circle><circle cx="585" cy="395" r="2"></circle><circle cx="588" cy="390" r="2"></circle><circle cx="591" cy="384" r="2"></circle><circle cx="594" cy="375" r="2"></circle><circle cx="597" cy="367" r="2"></circle><circle cx="600" cy="363" r="2"></circle><circle cx="602" cy="368" r="2"></circle><circle cx="605" cy="369" r="2"></circle><circle cx="608" cy="367" r="2"></circle><circle cx="611" cy="366" r="2"></circle><circle cx="614" cy="362" r="2"></circle><circle cx="617" cy="357" r="2"></circle><circle cx="620" cy="349" r="2"></circle><circle cx="623" cy="342" r="2"></circle><circle cx="626" cy="338" r="2"></circle><circle cx="628" cy="335" r="2"></circle><circle cx="631" cy="337" r="2"></circle><circle cx="634" cy="336" r="2"></circle><circle cx="637" cy="331" r="2"></circle><circle cx="640" cy="323" r="2"></circle><circle cx="643" cy="314" r="2"></circle><circle cx="646" cy="303" r="2"></circle><circle cx="649" cy="286" r="2"></circle><circle cx="652" cy="276" r="2"></circle><circle cx="654" cy="266" r="2"></circle><circle cx="657" cy="248" r="2"></circle><circle cx="660" cy="241" r="2"></circle><circle cx="663" cy="240" r="2"></circle><circle cx="666" cy="240" r="2"></circle><circle cx="669" cy="232" r="2"></circle><circle cx="672" cy="220" r="2"></circle><circle cx="675" cy="216" r="2"></circle><circle cx="678" cy="217" r="2"></circle><circle cx="681" cy="221" r="2"></circle><circle cx="683" cy="237" r="2"></circle><circle cx="686" cy="242" r="2"></circle><circle cx="689" cy="243" r="2"></circle><circle cx="692" cy="236" r="2"></circle><circle cx="695" cy="220" r="2"></circle><circle cx="698" cy="216" r="2"></circle><circle cx="701" cy="211" r="2"></circle><circle cx="704" cy="208" r="2"></circle></g></g><g class="key-United-States_0"><path stroke="#ca2628" stroke-linecap="round" d="M79 519L82 518L85 518L88 519L91 519L93 518L96 518L99 518L102 519L105 518L108 518L111 517L114 518L117 517L120 517L122 517L125 518L128 518L131 518L134 518L137 518L140 518L143 517L146 517L148 517L151 517L154 516L157 516L160 516L163 517L166 516L169 514L172 514L174 513L177 514L180 513L183 513L186 513L189 514L192 513L195 514L198 514L200 514L203 514L206 513L209 513L212 512L215 512L218 511L221 512L224 512L227 511L229 510L232 508L235 508L238 508L241 508L244 508L247 508L250 507L253 507L255 507L258 506L261 505L264 504L267 505L270 505L273 504L276 504L279 503L281 504L284 503L287 503L290 502L293 503L296 502L299 503L302 502L305 502L307 498L310 495L313 494L316 493L319 493L322 493L325 494L328 493L331 492L334 493L336 492L339 492L342 491L345 488L348 491L351 493L354 489L357 491L360 487L362 487L365 484L368 483L371 478L374 479L377 477L380 479L383 476L386 470L388 471L391 477L394 471L397 472L400 471L403 469L406 468L409 474L412 473L414 466L417 468L420 463L423 463L426 464L429 467L432 465L435 457L438 456L441 455L443 451L446 451L449 451L452 447L455 456L458 461L461 472L464 475L467 470L469 461L472 454L475 448L478 453L481 448L484 441L487 428L490 417L493 407L495 398L498 402L501 414L504 418L507 414L510 417L513 408L516 401L519 398L521 394L524 397L527 390L530 390L533 390L536 394L539 386L542 384L545 383L547 377L550 372L553 365L556 357L559 347L562 344L565 337L568 333L571 335L574 331L576 323L579 313L582 316L585 318L588 309L591 301L594 291L597 285L600 288L602 284L605 291L608 283L611 267L614 259L617 252L620 245L623 236L626 228L628 226L631 231L634 224L637 220L640 211L643 206L646 197L649 187L652 175L654 163L657 152L660 152L663 149L666 141L669 130L672 120L675 113L678 110L681 115L683 130L686 123L689 120L692 114L695 110L698 103L701 96L704 92" fill="none" stroke-width="1.5"></path><g fill="#ca2628"><circle cx="79" cy="519" r="2"></circle><circle cx="82" cy="518" r="2"></circle><circle cx="85" cy="518" r="2"></circle><circle cx="88" cy="519" r="2"></circle><circle cx="91" cy="519" r="2"></circle><circle cx="93" cy="518" r="2"></circle><circle cx="96" cy="518" r="2"></circle><circle cx="99" cy="518" r="2"></circle><circle cx="102" cy="519" r="2"></circle><circle cx="105" cy="518" r="2"></circle><circle cx="108" cy="518" r="2"></circle><circle cx="111" cy="517" r="2"></circle><circle cx="114" cy="518" r="2"></circle><circle cx="117" cy="517" r="2"></circle><circle cx="120" cy="517" r="2"></circle><circle cx="122" cy="517" r="2"></circle><circle cx="125" cy="518" r="2"></circle><circle cx="128" cy="518" r="2"></circle><circle cx="131" cy="518" r="2"></circle><circle cx="134" cy="518" r="2"></circle><circle cx="137" cy="518" r="2"></circle><circle cx="140" cy="518" r="2"></circle><circle cx="143" cy="517" r="2"></circle><circle cx="146" cy="517" r="2"></circle><circle cx="148" cy="517" r="2"></circle><circle cx="151" cy="517" r="2"></circle><circle cx="154" cy="516" r="2"></circle><circle cx="157" cy="516" r="2"></circle><circle cx="160" cy="516" r="2"></circle><circle cx="163" cy="517" r="2"></circle><circle cx="166" cy="516" r="2"></circle><circle cx="169" cy="514" r="2"></circle><circle cx="172" cy="514" r="2"></circle><circle cx="174" cy="513" r="2"></circle><circle cx="177" cy="514" r="2"></circle><circle cx="180" cy="513" r="2"></circle><circle cx="183" cy="513" r="2"></circle><circle cx="186" cy="513" r="2"></circle><circle cx="189" cy="514" r="2"></circle><circle cx="192" cy="513" r="2"></circle><circle cx="195" cy="514" r="2"></circle><circle cx="198" cy="514" r="2"></circle><circle cx="200" cy="514" r="2"></circle><circle cx="203" cy="514" r="2"></circle><circle cx="206" cy="513" r="2"></circle><circle cx="209" cy="513" r="2"></circle><circle cx="212" cy="512" r="2"></circle><circle cx="215" cy="512" r="2"></circle><circle cx="218" cy="511" r="2"></circle><circle cx="221" cy="512" r="2"></circle><circle cx="224" cy="512" r="2"></circle><circle cx="227" cy="511" r="2"></circle><circle cx="229" cy="510" r="2"></circle><circle cx="232" cy="508" r="2"></circle><circle cx="235" cy="508" r="2"></circle><circle cx="238" cy="508" r="2"></circle><circle cx="241" cy="508" r="2"></circle><circle cx="244" cy="508" r="2"></circle><circle cx="247" cy="508" r="2"></circle><circle cx="250" cy="507" r="2"></circle><circle cx="253" cy="507" r="2"></circle><circle cx="255" cy="507" r="2"></circle><circle cx="258" cy="506" r="2"></circle><circle cx="261" cy="505" r="2"></circle><circle cx="264" cy="504" r="2"></circle><circle cx="267" cy="505" r="2"></circle><circle cx="270" cy="505" r="2"></circle><circle cx="273" cy="504" r="2"></circle><circle cx="276" cy="504" r="2"></circle><circle cx="279" cy="503" r="2"></circle><circle cx="281" cy="504" r="2"></circle><circle cx="284" cy="503" r="2"></circle><circle cx="287" cy="503" r="2"></circle><circle cx="290" cy="502" r="2"></circle><circle cx="293" cy="503" r="2"></circle><circle cx="296" cy="502" r="2"></circle><circle cx="299" cy="503" r="2"></circle><circle cx="302" cy="502" r="2"></circle><circle cx="305" cy="502" r="2"></circle><circle cx="307" cy="498" r="2"></circle><circle cx="310" cy="495" r="2"></circle><circle cx="313" cy="494" r="2"></circle><circle cx="316" cy="493" r="2"></circle><circle cx="319" cy="493" r="2"></circle><circle cx="322" cy="493" r="2"></circle><circle cx="325" cy="494" r="2"></circle><circle cx="328" cy="493" r="2"></circle><circle cx="331" cy="492" r="2"></circle><circle cx="334" cy="493" r="2"></circle><circle cx="336" cy="492" r="2"></circle><circle cx="339" cy="492" r="2"></circle><circle cx="342" cy="491" r="2"></circle><circle cx="345" cy="488" r="2"></circle><circle cx="348" cy="491" r="2"></circle><circle cx="351" cy="493" r="2"></circle><circle cx="354" cy="489" r="2"></circle><circle cx="357" cy="491" r="2"></circle><circle cx="360" cy="487" r="2"></circle><circle cx="362" cy="487" r="2"></circle><circle cx="365" cy="484" r="2"></circle><circle cx="368" cy="483" r="2"></circle><circle cx="371" cy="478" r="2"></circle><circle cx="374" cy="479" r="2"></circle><circle cx="377" cy="477" r="2"></circle><circle cx="380" cy="479" r="2"></circle><circle cx="383" cy="476" r="2"></circle><circle cx="386" cy="470" r="2"></circle><circle cx="388" cy="471" r="2"></circle><circle cx="391" cy="477" r="2"></circle><circle cx="394" cy="471" r="2"></circle><circle cx="397" cy="472" r="2"></circle><circle cx="400" cy="471" r="2"></circle><circle cx="403" cy="469" r="2"></circle><circle cx="406" cy="468" r="2"></circle><circle cx="409" cy="474" r="2"></circle><circle cx="412" cy="473" r="2"></circle><circle cx="414" cy="466" r="2"></circle><circle cx="417" cy="468" r="2"></circle><circle cx="420" cy="463" r="2"></circle><circle cx="423" cy="463" r="2"></circle><circle cx="426" cy="464" r="2"></circle><circle cx="429" cy="467" r="2"></circle><circle cx="432" cy="465" r="2"></circle><circle cx="435" cy="457" r="2"></circle><circle cx="438" cy="456" r="2"></circle><circle cx="441" cy="455" r="2"></circle><circle cx="443" cy="451" r="2"></circle><circle cx="446" cy="451" r="2"></circle><circle cx="449" cy="451" r="2"></circle><circle cx="452" cy="447" r="2"></circle><circle cx="455" cy="456" r="2"></circle><circle cx="458" cy="461" r="2"></circle><circle cx="461" cy="472" r="2"></circle><circle cx="464" cy="475" r="2"></circle><circle cx="467" cy="470" r="2"></circle><circle cx="469" cy="461" r="2"></circle><circle cx="472" cy="454" r="2"></circle><circle cx="475" cy="448" r="2"></circle><circle cx="478" cy="453" r="2"></circle><circle cx="481" cy="448" r="2"></circle><circle cx="484" cy="441" r="2"></circle><circle cx="487" cy="428" r="2"></circle><circle cx="490" cy="417" r="2"></circle><circle cx="493" cy="407" r="2"></circle><circle cx="495" cy="398" r="2"></circle><circle cx="498" cy="402" r="2"></circle><circle cx="501" cy="414" r="2"></circle><circle cx="504" cy="418" r="2"></circle><circle cx="507" cy="414" r="2"></circle><circle cx="510" cy="417" r="2"></circle><circle cx="513" cy="408" r="2"></circle><circle cx="516" cy="401" r="2"></circle><circle cx="519" cy="398" r="2"></circle><circle cx="521" cy="394" r="2"></circle><circle cx="524" cy="397" r="2"></circle><circle cx="527" cy="390" r="2"></circle><circle cx="530" cy="390" r="2"></circle><circle cx="533" cy="390" r="2"></circle><circle cx="536" cy="394" r="2"></circle><circle cx="539" cy="386" r="2"></circle><circle cx="542" cy="384" r="2"></circle><circle cx="545" cy="383" r="2"></circle><circle cx="547" cy="377" r="2"></circle><circle cx="550" cy="372" r="2"></circle><circle cx="553" cy="365" r="2"></circle><circle cx="556" cy="357" r="2"></circle><circle cx="559" cy="347" r="2"></circle><circle cx="562" cy="344" r="2"></circle><circle cx="565" cy="337" r="2"></circle><circle cx="568" cy="333" r="2"></circle><circle cx="571" cy="335" r="2"></circle><circle cx="574" cy="331" r="2"></circle><circle cx="576" cy="323" r="2"></circle><circle cx="579" cy="313" r="2"></circle><circle cx="582" cy="316" r="2"></circle><circle cx="585" cy="318" r="2"></circle><circle cx="588" cy="309" r="2"></circle><circle cx="591" cy="301" r="2"></circle><circle cx="594" cy="291" r="2"></circle><circle cx="597" cy="285" r="2"></circle><circle cx="600" cy="288" r="2"></circle><circle cx="602" cy="284" r="2"></circle><circle cx="605" cy="291" r="2"></circle><circle cx="608" cy="283" r="2"></circle><circle cx="611" cy="267" r="2"></circle><circle cx="614" cy="259" r="2"></circle><circle cx="617" cy="252" r="2"></circle><circle cx="620" cy="245" r="2"></circle><circle cx="623" cy="236" r="2"></circle><circle cx="626" cy="228" r="2"></circle><circle cx="628" cy="226" r="2"></circle><circle cx="631" cy="231" r="2"></circle><circle cx="634" cy="224" r="2"></circle><circle cx="637" cy="220" r="2"></circle><circle cx="640" cy="211" r="2"></circle><circle cx="643" cy="206" r="2"></circle><circle cx="646" cy="197" r="2"></circle><circle cx="649" cy="187" r="2"></circle><circle cx="652" cy="175" r="2"></circle><circle cx="654" cy="163" r="2"></circle><circle cx="657" cy="152" r="2"></circle><circle cx="660" cy="152" r="2"></circle><circle cx="663" cy="149" r="2"></circle><circle cx="666" cy="141" r="2"></circle><circle cx="669" cy="130" r="2"></circle><circle cx="672" cy="120" r="2"></circle><circle cx="675" cy="113" r="2"></circle><circle cx="678" cy="110" r="2"></circle><circle cx="681" cy="115" r="2"></circle><circle cx="683" cy="130" r="2"></circle><circle cx="686" cy="123" r="2"></circle><circle cx="689" cy="120" r="2"></circle><circle cx="692" cy="114" r="2"></circle><circle cx="695" cy="110" r="2"></circle><circle cx="698" cy="103" r="2"></circle><circle cx="701" cy="96" r="2"></circle><circle cx="704" cy="92" r="2"></circle></g></g></g></g></g><g style="fill: #777;" class="SourcesFooter"><g style="fill: #777;" class="clickable"><text font-size="12.60" x="15.0" y="581.6"><tspan x="15" y="581.58">Source: Maddison Project Database (2018)</tspan></text></g><text font-size="12.60" x="775.4" y="581.6"><tspan x="775.402" y="581.58"><a style="fill: #777;" class="cclogo" href="http://creativecommons.org/licenses/by-sa/4.0/deed.en_US" target="_blank">CC BY-SA</a></tspan></text></g></g></svg>