<svg xmlns="http://www.w3.org/2000/svg" version="1.1" style="font-family: 'Helvetica Neue', Helvetica, Arial, sans-serif; font-size: 18px; background-color: white; text-rendering: optimizeLegibility; -webkit-font-smoothing: antialiased;" width="850" height="600"><g class="ChartTab"><g class="HeaderView"><g opacity="0.8" transform="translate(778, 15) scale(0.27)"><a xmlns:xlink="http://www.w3.org/1999/xlink" xlink:href="https://ourworldindata.org" target="_blank"><g><rect x="0" y="0" fill="#1B2543" width="211.2" height="130.1"/><rect x="0" y="112.2" fill="#E63912" width="211.2" height="17.9"/><g><rect x="1.2" y="12.3" fill="none" width="210.2" height="99.2"/><path fill="#FFFFFF" d="M37.8,32.2c0,12.7-7.7,19.4-17.1,19.4c-9.7,0-16.6-7.5-16.6-18.7c0-11.7,7.3-19.3,17.1-19.3 C31.3,13.7,37.8,21.3,37.8,32.2z M9.2,32.8c0,7.9,4.3,14.9,11.8,14.9c7.5,0,11.8-6.9,11.8-15.3c0-7.3-3.8-14.9-11.8-14.9 C13.1,17.5,9.2,24.8,9.2,32.8z"/><path fill="#FFFFFF" d="M62.7,43.8c0,2.7,0.1,5.1,0.2,7.2h-4.3l-0.3-4.3h-0.1c-1.3,2.1-4,4.9-8.8,4.9c-4.2,0-9.1-2.3-9.1-11.6 V24.6h4.8v14.6c0,5,1.5,8.4,5.9,8.4c3.2,0,5.5-2.2,6.3-4.4c0.3-0.7,0.4-1.6,0.4-2.5V24.6h4.8V43.8z"/><path fill="#FFFFFF" d="M67.3,32.8c0-3.1-0.1-5.8-0.2-8.2h4.2l0.2,5.2h0.2c1.2-3.5,4.1-5.8,7.3-5.8c0.5,0,0.9,0.1,1.4,0.2v4.5 c-0.5-0.1-1-0.2-1.6-0.2c-3.4,0-5.8,2.6-6.5,6.2c-0.1,0.7-0.2,1.4-0.2,2.2V51h-4.8V32.8z"/><path fill="#FFFFFF" d="M95.4,51l-9.4-36.8h5l4.4,18.6c1.1,4.6,2.1,9.2,2.7,12.7h0.1c0.6-3.7,1.8-8,3-12.8l4.9-18.5h5l4.5,18.7 c1,4.4,2,8.7,2.6,12.6h0.1c0.8-4,1.8-8.1,3-12.7l4.9-18.5h4.9L120.6,51h-5L111,31.9c-1.1-4.7-1.9-8.3-2.4-12h-0.1 c-0.7,3.7-1.5,7.3-2.8,12L100.4,51H95.4z"/><path fill="#FFFFFF" d="M154.9,37.6c0,9.8-6.8,14-13.2,14c-7.2,0-12.7-5.2-12.7-13.6c0-8.8,5.8-14,13.1-14 C149.8,24,154.9,29.5,154.9,37.6z M133.9,37.9c0,5.8,3.3,10.1,8,10.1c4.6,0,8-4.3,8-10.3c0-4.5-2.2-10.1-7.9-10.1 C136.3,27.6,133.9,32.8,133.9,37.9z"/><path fill="#FFFFFF" d="M158.2,32.8c0-3.1-0.1-5.8-0.2-8.2h4.2l0.2,5.2h0.2c1.2-3.5,4.1-5.8,7.3-5.8c0.5,0,0.9,0.1,1.4,0.2v4.5 c-0.5-0.1-1-0.2-1.6-0.2c-3.4,0-5.8,2.6-6.5,6.2c-0.1,0.7-0.2,1.4-0.2,2.2V51h-4.8V32.8z"/><path fill="#FFFFFF" d="M173.5,12.3h4.8V51h-4.8V12.3z"/><path fill="#FFFFFF" d="M206.5,12.3v31.9c0,2.3,0.1,5,0.2,6.8h-4.3l-0.2-4.6H202c-1.5,2.9-4.7,5.2-9,5.2 c-6.4,0-11.3-5.4-11.3-13.4c-0.1-8.8,5.4-14.2,11.9-14.2c4,0,6.8,1.9,8,4h0.1V12.3H206.5z M201.7,35.4c0-0.6-0.1-1.4-0.2-2 c-0.7-3.1-3.3-5.6-6.9-5.6c-5,0-7.9,4.4-7.9,10.2c0,5.3,2.6,9.8,7.8,9.8c3.2,0,6.2-2.1,7.1-5.7c0.2-0.7,0.2-1.3,0.2-2.1V35.4z"/><path fill="#FFFFFF" d="M42.8,64c0.1,1.6-1.1,2.9-3.1,2.9c-1.7,0-2.9-1.3-2.9-2.9c0-1.7,1.3-3,3-3C41.7,61,42.8,62.3,42.8,64z M37.4,97.8V71.4h4.8v26.4H37.4z"/><path fill="#FFFFFF" d="M47.5,78.6c0-2.7-0.1-5-0.2-7.1h4.3l0.3,4.4h0.1c1.3-2.5,4.4-5,8.8-5c3.7,0,9.4,2.2,9.4,11.2v15.8h-4.8 V82.6c0-4.3-1.6-7.8-6.1-7.8c-3.2,0-5.6,2.2-6.5,4.9c-0.2,0.6-0.3,1.4-0.3,2.2v15.9h-4.8V78.6z"/><path fill="#FFFFFF" d="M84,61.6c2.9-0.4,6.3-0.8,10.1-0.8c6.8,0,11.7,1.6,14.9,4.6c3.3,3,5.2,7.3,5.2,13.2c0,6-1.9,10.9-5.3,14.3 c-3.4,3.4-9.1,5.3-16.3,5.3c-3.4,0-6.2-0.2-8.6-0.4V61.6z M88.8,94.1c1.2,0.2,3,0.3,4.8,0.3c10.2,0,15.7-5.7,15.7-15.6 c0.1-8.7-4.9-14.2-14.9-14.2c-2.5,0-4.3,0.2-5.6,0.5V94.1z"/><path fill="#FFFFFF" d="M132.1,97.8l-0.4-3.3h-0.2c-1.5,2.1-4.3,3.9-8.1,3.9c-5.4,0-8.1-3.8-8.1-7.6c0-6.4,5.7-9.9,15.9-9.8v-0.5 c0-2.2-0.6-6.1-6-6.1c-2.5,0-5,0.8-6.9,2l-1.1-3.2c2.2-1.4,5.4-2.3,8.7-2.3c8.1,0,10.1,5.5,10.1,10.8v9.9c0,2.3,0.1,4.5,0.4,6.3 H132.1z M131.4,84.4c-5.3-0.1-11.2,0.8-11.2,5.9c0,3.1,2.1,4.6,4.5,4.6c3.4,0,5.6-2.2,6.4-4.4c0.2-0.5,0.3-1,0.3-1.5V84.4z"/><path fill="#FFFFFF" d="M146.6,63.9v7.6h6.9v3.7h-6.9v14.2c0,3.3,0.9,5.1,3.6,5.1c1.3,0,2.2-0.2,2.8-0.3l0.2,3.6 c-0.9,0.4-2.4,0.7-4.3,0.7c-2.2,0-4-0.7-5.2-2c-1.4-1.4-1.9-3.8-1.9-6.9V75.1h-4.1v-3.7h4.1v-6.3L146.6,63.9z"/><path fill="#FFFFFF" d="M171.4,97.8l-0.4-3.3h-0.2c-1.5,2.1-4.3,3.9-8.1,3.9c-5.4,0-8.1-3.8-8.1-7.6c0-6.4,5.7-9.9,15.9-9.8v-0.5 c0-2.2-0.6-6.1-6-6.1c-2.5,0-5,0.8-6.9,2l-1.1-3.2c2.2-1.4,5.4-2.3,8.7-2.3c8.1,0,10.1,5.5,10.1,10.8v9.9c0,2.3,0.1,4.5,0.4,6.3 H171.4z M170.7,84.4c-5.3-0.1-11.2,0.8-11.2,5.9c0,3.1,2.1,4.6,4.5,4.6c3.4,0,5.6-2.2,6.4-4.4c0.2-0.5,0.3-1,0.3-1.5V84.4z"/></g></g></a></g><a href="https://ourworldindata.org/grapher/share-of-service-in-total-exports" target="_blank"><text font-size="25.20" x="15.0" y="35.2" fill="#555"><tspan x="15" y="35.160000000000004">Share of service in total exports, World</tspan></text></a><text font-size="14.40" x="15.0" y="53.7" fill="#666"><tspan x="15" y="53.72">Services refer to economic output of intangible commodities that may be produced, transferred, and consumed at the</tspan><tspan x="15" y="69.56">same time. The share of services in total exports comes from comparing trade in goods and services at current US</tspan><tspan x="15" y="85.4">dollars.</tspan></text></g><g class="StackedArea"><defs><clipPath id="boundsClip-927"><rect x="61.634" y="0" width="820" height="897.8"></rect></clipPath></defs><g class="AxisBoxView"><g class="HorizontalAxis"><text x="61.6" y="556.5" fill="#666" text-anchor="middle" font-size="16.2">1979</text><text x="170" y="556.5" fill="#666" text-anchor="middle" font-size="16.2">1985</text><text x="260.4" y="556.5" fill="#666" text-anchor="middle" font-size="16.2">1990</text><text x="350.7" y="556.5" fill="#666" text-anchor="middle" font-size="16.2">1995</text><text x="441" y="556.5" fill="#666" text-anchor="middle" font-size="16.2">2000</text><text x="531.4" y="556.5" fill="#666" text-anchor="middle" font-size="16.2">2005</text><text x="621.7" y="556.5" fill="#666" text-anchor="middle" font-size="16.2">2010</text><text x="748.2" y="556.5" fill="#666" text-anchor="middle" font-size="16.2">2017</text></g><g class="VerticalAxis"><text x="56.63" y="535.3" fill="#666" dominant-baseline="middle" text-anchor="end" font-size="16.2">0%</text><text x="56.63" y="449.8" fill="#666" dominant-baseline="middle" text-anchor="end" font-size="16.2">20%</text><text x="56.63" y="364.2" fill="#666" dominant-baseline="middle" text-anchor="end" font-size="16.2">40%</text><text x="56.63" y="278.7" fill="#666" dominant-baseline="middle" text-anchor="end" font-size="16.2">60%</text><text x="56.63" y="193.1" fill="#666" dominant-baseline="middle" text-anchor="end" font-size="16.2">80%</text><text x="56.63" y="107.6" fill="#666" dominant-baseline="middle" text-anchor="end" font-size="16.2">100%</text></g><g class="AxisGridLines"><line x1="61.63" y1="535.3" x2="748.16" y2="535.3" stroke="#ccc"></line><line x1="61.63" y1="449.8" x2="748.16" y2="449.8" stroke="#ddd" stroke-dasharray="3,2"></line><line x1="61.63" y1="364.2" x2="748.16" y2="364.2" stroke="#ddd" stroke-dasharray="3,2"></line><line x1="61.63" y1="278.7" x2="748.16" y2="278.7" stroke="#ddd" stroke-dasharray="3,2"></line><line x1="61.63" y1="193.1" x2="748.16" y2="193.1" stroke="#ddd" stroke-dasharray="3,2"></line><line x1="61.63" y1="107.6" x2="748.16" y2="107.6" stroke="#ddd" stroke-dasharray="3,2"></line></g></g><g clip-path="url(#boundsClip-927)"><g class="HeightedLegend clickable"><g class="legendMark"><rect x="748.16" y="264.45" width="74.96000000000001" height="13.5" fill="#fff" opacity="0"></rect><text font-size="13.50" x="753.2" y="275.3" fill="#c8c8c8"><tspan x="753.16" y="275.25">Goods</tspan></text></g><g class="legendMark"><rect x="748.16" y="478.35" width="86.84" height="13.5" fill="#fff" opacity="0"></rect><text font-size="13.50" x="753.2" y="489.2" fill="#b077b1"><tspan x="753.16" y="489.15000000000003">Services</tspan></text></g></g><g class="Areas"><rect x="61.634" y="107.60000000000001" width="686.526" height="427.69999999999993" opacity="0" fill="rgba(255,255,255,0)"></rect><path stroke-linecap="round" d="M61.6 461.7L79.7 462.7L97.8 460.4L115.8 455.4L133.9 454.6L152 456.4L170 453.8L188.1 448L206.2 448.9L224.2 451.3L242.3 451.2L260.4 448L278.4 445.9L296.5 442.4L314.6 440.8L332.6 444L350.7 448.1L368.8 447.3L386.8 443.6L404.9 441.1L423 440.5L441 444.4L459.1 441.2L477.2 438.9L495.2 444.4L513.3 444.5L531.4 446.6L549.4 448.4L567.5 446.3L585.6 448L603.6 437.8L621.7 446.7L639.8 450.3L657.8 449.3L675.9 446.5L694 442.4L712 436L730.1 432.8L748.2 434.8L748.16 535.3L61.634 535.3" fill="#b077b1" fill-opacity="0.7" class="World_1-area"></path><path stroke-linecap="round" d="M61.6 107.6L79.7 107.6L97.8 107.6L115.8 107.6L133.9 107.6L152 107.6L170 107.6L188.1 107.6L206.2 107.6L224.2 107.6L242.3 107.6L260.4 107.6L278.4 107.6L296.5 107.6L314.6 107.6L332.6 107.6L350.7 107.6L368.8 107.6L386.8 107.6L404.9 107.6L423 107.6L441 107.6L459.1 107.6L477.2 107.6L495.2 107.6L513.3 107.6L531.4 107.6L549.4 107.6L567.5 107.6L585.6 107.6L603.6 107.6L621.7 107.6L639.8 107.6L657.8 107.6L675.9 107.6L694 107.6L712 107.6L730.1 107.6L748.2 107.6L748.2 434.8L730.1 432.8L712 436L694 442.4L675.9 446.5L657.8 449.3L639.8 450.3L621.7 446.7L603.6 437.8L585.6 448L567.5 446.3L549.4 448.4L531.4 446.6L513.3 444.5L495.2 444.4L477.2 438.9L459.1 441.2L441 444.4L423 440.5L404.9 441.1L386.8 443.6L368.8 447.3L350.7 448.1L332.6 444L314.6 440.8L296.5 442.4L278.4 445.9L260.4 448L242.3 451.2L224.2 451.3L206.2 448.9L188.1 448L170 453.8L152 456.4L133.9 454.6L115.8 455.4L97.8 460.4L79.7 462.7L61.6 461.7" fill="#c8c8c8" fill-opacity="0.7" class="World_0-area"></path><path stroke-linecap="round" d="M61.6 461.7L79.7 462.7L97.8 460.4L115.8 455.4L133.9 454.6L152 456.4L170 453.8L188.1 448L206.2 448.9L224.2 451.3L242.3 451.2L260.4 448L278.4 445.9L296.5 442.4L314.6 440.8L332.6 444L350.7 448.1L368.8 447.3L386.8 443.6L404.9 441.1L423 440.5L441 444.4L459.1 441.2L477.2 438.9L495.2 444.4L513.3 444.5L531.4 446.6L549.4 448.4L567.5 446.3L585.6 448L603.6 437.8L621.7 446.7L639.8 450.3L657.8 449.3L675.9 446.5L694 442.4L712 436L730.1 432.8L748.2 434.8" stroke="rgb(147, 100, 148)" stroke-opacity="0.7" stroke-width="0.5" fill="none" class="World_1-border"></path><path stroke-linecap="round" d="M61.6 107.6L79.7 107.6L97.8 107.6L115.8 107.6L133.9 107.6L152 107.6L170 107.6L188.1 107.6L206.2 107.6L224.2 107.6L242.3 107.6L260.4 107.6L278.4 107.6L296.5 107.6L314.6 107.6L332.6 107.6L350.7 107.6L368.8 107.6L386.8 107.6L404.9 107.6L423 107.6L441 107.6L459.1 107.6L477.2 107.6L495.2 107.6L513.3 107.6L531.4 107.6L549.4 107.6L567.5 107.6L585.6 107.6L603.6 107.6L621.7 107.6L639.8 107.6L657.8 107.6L675.9 107.6L694 107.6L712 107.6L730.1 107.6L748.2 107.6" stroke="rgb(167, 167, 167)" stroke-opacity="0.7" stroke-width="0.5" fill="none" class="World_0-border"></path></g></g></g><g style="fill: #777;" class="SourcesFooter"><g style="fill: #777;" class="clickable"><text font-size="12.60" x="15.0" y="581.6"><tspan x="15" y="581.58">Source: World Bank</tspan></text></g><text font-size="12.60" x="775.4" y="581.6"><tspan x="775.402" y="581.58"><a style="fill: #777;" class="cclogo" href="http://creativecommons.org/licenses/by-sa/4.0/deed.en_US" target="_blank">CC BY-SA</a></tspan></text></g></g></svg>