<svg xmlns="http://www.w3.org/2000/svg" version="1.1" style="font-family: 'Helvetica Neue', Helvetica, Arial, sans-serif; font-size: 18px; background-color: white; text-rendering: optimizeLegibility; -webkit-font-smoothing: antialiased;" width="850" height="600"><g class="ChartTab"><g class="HeaderView"><g opacity="0.8" transform="translate(778, 15) scale(0.27)"><a xmlns:xlink="http://www.w3.org/1999/xlink" xlink:href="https://ourworldindata.org" target="_blank"><g><rect x="0" y="0" fill="#1B2543" width="211.2" height="130.1"/><rect x="0" y="112.2" fill="#E63912" width="211.2" height="17.9"/><g><rect x="1.2" y="12.3" fill="none" width="210.2" height="99.2"/><path fill="#FFFFFF" d="M37.8,32.2c0,12.7-7.7,19.4-17.1,19.4c-9.7,0-16.6-7.5-16.6-18.7c0-11.7,7.3-19.3,17.1-19.3 C31.3,13.7,37.8,21.3,37.8,32.2z M9.2,32.8c0,7.9,4.3,14.9,11.8,14.9c7.5,0,11.8-6.9,11.8-15.3c0-7.3-3.8-14.9-11.8-14.9 C13.1,17.5,9.2,24.8,9.2,32.8z"/><path fill="#FFFFFF" d="M62.7,43.8c0,2.7,0.1,5.1,0.2,7.2h-4.3l-0.3-4.3h-0.1c-1.3,2.1-4,4.9-8.8,4.9c-4.2,0-9.1-2.3-9.1-11.6 V24.6h4.8v14.6c0,5,1.5,8.4,5.9,8.4c3.2,0,5.5-2.2,6.3-4.4c0.3-0.7,0.4-1.6,0.4-2.5V24.6h4.8V43.8z"/><path fill="#FFFFFF" d="M67.3,32.8c0-3.1-0.1-5.8-0.2-8.2h4.2l0.2,5.2h0.2c1.2-3.5,4.1-5.8,7.3-5.8c0.5,0,0.9,0.1,1.4,0.2v4.5 c-0.5-0.1-1-0.2-1.6-0.2c-3.4,0-5.8,2.6-6.5,6.2c-0.1,0.7-0.2,1.4-0.2,2.2V51h-4.8V32.8z"/><path fill="#FFFFFF" d="M95.4,51l-9.4-36.8h5l4.4,18.6c1.1,4.6,2.1,9.2,2.7,12.7h0.1c0.6-3.7,1.8-8,3-12.8l4.9-18.5h5l4.5,18.7 c1,4.4,2,8.7,2.6,12.6h0.1c0.8-4,1.8-8.1,3-12.7l4.9-18.5h4.9L120.6,51h-5L111,31.9c-1.1-4.7-1.9-8.3-2.4-12h-0.1 c-0.7,3.7-1.5,7.3-2.8,12L100.4,51H95.4z"/><path fill="#FFFFFF" d="M154.9,37.6c0,9.8-6.8,14-13.2,14c-7.2,0-12.7-5.2-12.7-13.6c0-8.8,5.8-14,13.1-14 C149.8,24,154.9,29.5,154.9,37.6z M133.9,37.9c0,5.8,3.3,10.1,8,10.1c4.6,0,8-4.3,8-10.3c0-4.5-2.2-10.1-7.9-10.1 C136.3,27.6,133.9,32.8,133.9,37.9z"/><path fill="#FFFFFF" d="M158.2,32.8c0-3.1-0.1-5.8-0.2-8.2h4.2l0.2,5.2h0.2c1.2-3.5,4.1-5.8,7.3-5.8c0.5,0,0.9,0.1,1.4,0.2v4.5 c-0.5-0.1-1-0.2-1.6-0.2c-3.4,0-5.8,2.6-6.5,6.2c-0.1,0.7-0.2,1.4-0.2,2.2V51h-4.8V32.8z"/><path fill="#FFFFFF" d="M173.5,12.3h4.8V51h-4.8V12.3z"/><path fill="#FFFFFF" d="M206.5,12.3v31.9c0,2.3,0.1,5,0.2,6.8h-4.3l-0.2-4.6H202c-1.5,2.9-4.7,5.2-9,5.2 c-6.4,0-11.3-5.4-11.3-13.4c-0.1-8.8,5.4-14.2,11.9-14.2c4,0,6.8,1.9,8,4h0.1V12.3H206.5z M201.7,35.4c0-0.6-0.1-1.4-0.2-2 c-0.7-3.1-3.3-5.6-6.9-5.6c-5,0-7.9,4.4-7.9,10.2c0,5.3,2.6,9.8,7.8,9.8c3.2,0,6.2-2.1,7.1-5.7c0.2-0.7,0.2-1.3,0.2-2.1V35.4z"/><path fill="#FFFFFF" d="M42.8,64c0.1,1.6-1.1,2.9-3.1,2.9c-1.7,0-2.9-1.3-2.9-2.9c0-1.7,1.3-3,3-3C41.7,61,42.8,62.3,42.8,64z M37.4,97.8V71.4h4.8v26.4H37.4z"/><path fill="#FFFFFF" d="M47.5,78.6c0-2.7-0.1-5-0.2-7.1h4.3l0.3,4.4h0.1c1.3-2.5,4.4-5,8.8-5c3.7,0,9.4,2.2,9.4,11.2v15.8h-4.8 V82.6c0-4.3-1.6-7.8-6.1-7.8c-3.2,0-5.6,2.2-6.5,4.9c-0.2,0.6-0.3,1.4-0.3,2.2v15.9h-4.8V78.6z"/><path fill="#FFFFFF" d="M84,61.6c2.9-0.4,6.3-0.8,10.1-0.8c6.8,0,11.7,1.6,14.9,4.6c3.3,3,5.2,7.3,5.2,13.2c0,6-1.9,10.9-5.3,14.3 c-3.4,3.4-9.1,5.3-16.3,5.3c-3.4,0-6.2-0.2-8.6-0.4V61.6z M88.8,94.1c1.2,0.2,3,0.3,4.8,0.3c10.2,0,15.7-5.7,15.7-15.6 c0.1-8.7-4.9-14.2-14.9-14.2c-2.5,0-4.3,0.2-5.6,0.5V94.1z"/><path fill="#FFFFFF" d="M132.1,97.8l-0.4-3.3h-0.2c-1.5,2.1-4.3,3.9-8.1,3.9c-5.4,0-8.1-3.8-8.1-7.6c0-6.4,5.7-9.9,15.9-9.8v-0.5 c0-2.2-0.6-6.1-6-6.1c-2.5,0-5,0.8-6.9,2l-1.1-3.2c2.2-1.4,5.4-2.3,8.7-2.3c8.1,0,10.1,5.5,10.1,10.8v9.9c0,2.3,0.1,4.5,0.4,6.3 H132.1z M131.4,84.4c-5.3-0.1-11.2,0.8-11.2,5.9c0,3.1,2.1,4.6,4.5,4.6c3.4,0,5.6-2.2,6.4-4.4c0.2-0.5,0.3-1,0.3-1.5V84.4z"/><path fill="#FFFFFF" d="M146.6,63.9v7.6h6.9v3.7h-6.9v14.2c0,3.3,0.9,5.1,3.6,5.1c1.3,0,2.2-0.2,2.8-0.3l0.2,3.6 c-0.9,0.4-2.4,0.7-4.3,0.7c-2.2,0-4-0.7-5.2-2c-1.4-1.4-1.9-3.8-1.9-6.9V75.1h-4.1v-3.7h4.1v-6.3L146.6,63.9z"/><path fill="#FFFFFF" d="M171.4,97.8l-0.4-3.3h-0.2c-1.5,2.1-4.3,3.9-8.1,3.9c-5.4,0-8.1-3.8-8.1-7.6c0-6.4,5.7-9.9,15.9-9.8v-0.5 c0-2.2-0.6-6.1-6-6.1c-2.5,0-5,0.8-6.9,2l-1.1-3.2c2.2-1.4,5.4-2.3,8.7-2.3c8.1,0,10.1,5.5,10.1,10.8v9.9c0,2.3,0.1,4.5,0.4,6.3 H171.4z M170.7,84.4c-5.3-0.1-11.2,0.8-11.2,5.9c0,3.1,2.1,4.6,4.5,4.6c3.4,0,5.6-2.2,6.4-4.4c0.2-0.5,0.3-1,0.3-1.5V84.4z"/></g></g></a></g><a href="https://ourworldindata.org/grapher/Share-primary-school-age-out-of-school" target="_blank"><text font-size="25.20" x="15.0" y="35.2" fill="#555"><tspan x="15" y="35.160000000000004">Share of primary-school-age children who are out of school</tspan></text></a><text font-size="14.40" x="15.0" y="53.7" fill="#666"><tspan x="15" y="53.72">Children out of school are the percentage of primary-school-age children who are not enrolled in primary or</tspan><tspan x="15" y="69.56">secondary school.</tspan></text></g><g class="LineChart"><defs><clipPath id="boundsClip-7"><rect x="42.562" y="0" width="830" height="928.8"></rect></clipPath></defs><g class="AxisBoxView"><g class="HorizontalAxis"><text x="52.6" y="556.5" fill="#666" text-anchor="middle" font-size="16.2">1970</text><text x="179.9" y="556.5" fill="#666" text-anchor="middle" font-size="16.2">1980</text><text x="307.2" y="556.5" fill="#666" text-anchor="middle" font-size="16.2">1990</text><text x="434.5" y="556.5" fill="#666" text-anchor="middle" font-size="16.2">2000</text><text x="561.8" y="556.5" fill="#666" text-anchor="middle" font-size="16.2">2010</text><text x="638.1" y="556.5" fill="#666" text-anchor="middle" font-size="16.2">2016</text></g><g class="VerticalAxis"><text x="47.56" y="535.3" fill="#666" dominant-baseline="middle" text-anchor="end" font-size="16.2">0%</text><text x="47.56" y="456.2" fill="#666" dominant-baseline="middle" text-anchor="end" font-size="16.2">10%</text><text x="47.56" y="377" fill="#666" dominant-baseline="middle" text-anchor="end" font-size="16.2">20%</text><text x="47.56" y="297.9" fill="#666" dominant-baseline="middle" text-anchor="end" font-size="16.2">30%</text><text x="47.56" y="218.8" fill="#666" dominant-baseline="middle" text-anchor="end" font-size="16.2">40%</text><text x="47.56" y="139.6" fill="#666" dominant-baseline="middle" text-anchor="end" font-size="16.2">50%</text></g><g class="AxisGridLines"><line x1="52.56" y1="535.3" x2="638.13" y2="535.3" stroke="#ccc"></line><line x1="52.56" y1="456.2" x2="638.13" y2="456.2" stroke="#ddd" stroke-dasharray="3,2"></line><line x1="52.56" y1="377" x2="638.13" y2="377" stroke="#ddd" stroke-dasharray="3,2"></line><line x1="52.56" y1="297.9" x2="638.13" y2="297.9" stroke="#ddd" stroke-dasharray="3,2"></line><line x1="52.56" y1="218.8" x2="638.13" y2="218.8" stroke="#ddd" stroke-dasharray="3,2"></line><line x1="52.56" y1="139.6" x2="638.13" y2="139.6" stroke="#ddd" stroke-dasharray="3,2"></line></g></g><g clip-path="url(#boundsClip-7)"><g class="HeightedLegend clickable"><g class="legendMark"><g class="indicator"><line x1="643.135" y1="513.7" x2="665.635" y2="513.7" stroke="#666" stroke-width="0.5"></line><line x1="665.635" y1="513.7" x2="665.635" y2="513.7" stroke="#666" stroke-width="0.5"></line><line x1="665.635" y1="513.7" x2="668.135" y2="513.7" stroke="#666" stroke-width="0.5"></line></g><rect x="638.135" y="506.95000000000005" width="169.055" height="13.5" fill="#fff" opacity="0"></rect><text font-size="13.50" x="673.1" y="517.8" fill="#3360a9"><tspan x="673.135" y="517.75">Europe &amp; Central Asia</tspan></text></g><g class="legendMark"><g class="indicator"><line x1="643.135" y1="501.7" x2="662.3016666666666" y2="501.7" stroke="#666" stroke-width="0.5"></line><line x1="662.3016666666666" y1="501.7" x2="662.3016666666666" y2="498.20000000000005" stroke="#666" stroke-width="0.5"></line><line x1="662.3016666666666" y1="498.20000000000005" x2="668.135" y2="498.20000000000005" stroke="#666" stroke-width="0.5"></line></g><rect x="638.135" y="491.45000000000005" width="148.67000000000002" height="13.5" fill="#fff" opacity="0"></rect><text font-size="13.50" x="673.1" y="502.3" fill="#ca2628"><tspan x="673.135" y="502.25000000000006">East Asia &amp; Pacific</tspan></text></g><g class="legendMark"><g class="indicator"><line x1="643.135" y1="495.7" x2="658.9683333333334" y2="495.7" stroke="#666" stroke-width="0.5"></line><line x1="658.9683333333334" y1="495.7" x2="658.9683333333334" y2="482.70000000000005" stroke="#666" stroke-width="0.5"></line><line x1="658.9683333333334" y1="482.70000000000005" x2="668.135" y2="482.70000000000005" stroke="#666" stroke-width="0.5"></line></g><rect x="638.135" y="475.95000000000005" width="196.865" height="13.5" fill="#fff" opacity="0"></rect><text font-size="13.50" x="673.1" y="486.8" fill="#34983f"><tspan x="673.135" y="486.75000000000006">Latin America &amp; Caribbean</tspan></text></g><g class="legendMark"><g class="indicator"><line x1="643.135" y1="489.3" x2="655.635" y2="489.3" stroke="#666" stroke-width="0.5"></line><line x1="655.635" y1="489.3" x2="655.635" y2="467.20000000000005" stroke="#666" stroke-width="0.5"></line><line x1="655.635" y1="467.20000000000005" x2="668.135" y2="467.20000000000005" stroke="#666" stroke-width="0.5"></line></g><rect x="638.135" y="460.45000000000005" width="100.61" height="13.5" fill="#fff" opacity="0"></rect><text font-size="13.50" x="673.1" y="471.3" fill="#f6a324"><tspan x="673.135" y="471.25000000000006">South Asia</tspan></text></g><g class="legendMark"><g class="indicator"><line x1="643.135" y1="489.1" x2="652.3016666666666" y2="489.1" stroke="#666" stroke-width="0.5"></line><line x1="652.3016666666666" y1="489.1" x2="652.3016666666666" y2="451.70000000000005" stroke="#666" stroke-width="0.5"></line><line x1="652.3016666666666" y1="451.70000000000005" x2="668.135" y2="451.70000000000005" stroke="#666" stroke-width="0.5"></line></g><rect x="638.135" y="444.95000000000005" width="121.4" height="13.5" fill="#fff" opacity="0"></rect><text font-size="13.50" x="673.1" y="455.8" fill="#a652ba"><tspan x="673.135" y="455.75000000000006">North America</tspan></text></g><g class="legendMark"><g class="indicator"><line x1="643.135" y1="464.7" x2="648.9683333333334" y2="464.7" stroke="#666" stroke-width="0.5"></line><line x1="648.9683333333334" y1="464.7" x2="648.9683333333334" y2="436.20000000000005" stroke="#666" stroke-width="0.5"></line><line x1="648.9683333333334" y1="436.20000000000005" x2="668.135" y2="436.20000000000005" stroke="#666" stroke-width="0.5"></line></g><rect x="638.135" y="429.45000000000005" width="70.235" height="13.5" fill="#fff" opacity="0"></rect><text font-size="13.50" x="673.1" y="440.3" fill="#2a939b"><tspan x="673.135" y="440.25000000000006">World</tspan></text></g><g class="legendMark"><g class="indicator"><line x1="643.135" y1="365" x2="655.635" y2="365" stroke="#666" stroke-width="0.5"></line><line x1="655.635" y1="365" x2="655.635" y2="365" stroke="#666" stroke-width="0.5"></line><line x1="655.635" y1="365" x2="668.135" y2="365" stroke="#666" stroke-width="0.5"></line></g><rect x="638.135" y="358.25" width="153.26" height="13.5" fill="#fff" opacity="0"></rect><text font-size="13.50" x="673.1" y="369.1" fill="#e6332e"><tspan x="673.135" y="369.05">Sub-Saharan Africa</tspan></text></g></g><g class="Lines"><rect x="53" y="92" width="586" height="443" fill="rgba(255,255,255,0)" opacity="0"></rect><g class="key-World_0"><path stroke="#2a939b" stroke-linecap="round" d="M53 316L65 314L78 320L91 337L104 342L116 352L129 357L142 358L154 350L167 352L180 362L193 367L205 371L218 373L231 375L244 379L256 385L269 387L282 392L294 396L307 396L320 397L333 395L345 396L358 397L371 395L384 394L396 394L409 402L422 409L435 416L447 419L460 426L473 436L485 445L498 446L511 449L524 459L536 461L549 460L562 461L575 462L587 465L600 464L613 464L625 464L638 465" fill="none" stroke-width="1.5"></path><g fill="#2a939b"><circle cx="53" cy="316" r="2"></circle><circle cx="65" cy="314" r="2"></circle><circle cx="78" cy="320" r="2"></circle><circle cx="91" cy="337" r="2"></circle><circle cx="104" cy="342" r="2"></circle><circle cx="116" cy="352" r="2"></circle><circle cx="129" cy="357" r="2"></circle><circle cx="142" cy="358" r="2"></circle><circle cx="154" cy="350" r="2"></circle><circle cx="167" cy="352" r="2"></circle><circle cx="180" cy="362" r="2"></circle><circle cx="193" cy="367" r="2"></circle><circle cx="205" cy="371" r="2"></circle><circle cx="218" cy="373" r="2"></circle><circle cx="231" cy="375" r="2"></circle><circle cx="244" cy="379" r="2"></circle><circle cx="256" cy="385" r="2"></circle><circle cx="269" cy="387" r="2"></circle><circle cx="282" cy="392" r="2"></circle><circle cx="294" cy="396" r="2"></circle><circle cx="307" cy="396" r="2"></circle><circle cx="320" cy="397" r="2"></circle><circle cx="333" cy="395" r="2"></circle><circle cx="345" cy="396" r="2"></circle><circle cx="358" cy="397" r="2"></circle><circle cx="371" cy="395" r="2"></circle><circle cx="384" cy="394" r="2"></circle><circle cx="396" cy="394" r="2"></circle><circle cx="409" cy="402" r="2"></circle><circle cx="422" cy="409" r="2"></circle><circle cx="435" cy="416" r="2"></circle><circle cx="447" cy="419" r="2"></circle><circle cx="460" cy="426" r="2"></circle><circle cx="473" cy="436" r="2"></circle><circle cx="485" cy="445" r="2"></circle><circle cx="498" cy="446" r="2"></circle><circle cx="511" cy="449" r="2"></circle><circle cx="524" cy="459" r="2"></circle><circle cx="536" cy="461" r="2"></circle><circle cx="549" cy="460" r="2"></circle><circle cx="562" cy="461" r="2"></circle><circle cx="575" cy="462" r="2"></circle><circle cx="587" cy="465" r="2"></circle><circle cx="600" cy="464" r="2"></circle><circle cx="613" cy="464" r="2"></circle><circle cx="625" cy="464" r="2"></circle><circle cx="638" cy="465" r="2"></circle></g></g><g class="key-Sub__002dSaharan-Africa_0"><path stroke="#e6332e" stroke-linecap="round" d="M116 92L129 99L142 116L154 133L167 156L180 173L193 189L205 200L218 203L231 198L244 189L256 176L269 168L282 163L294 168L307 163L320 170L333 169L345 172L358 175L371 181L384 172L396 195L409 201L422 207L435 224L447 238L460 250L473 268L485 281L498 298L511 311L524 330L536 338L549 341L562 340L575 352L587 357L600 362L613 365L625 365L638 365" fill="none" stroke-width="1.5"></path><g fill="#e6332e"><circle cx="116" cy="92" r="2"></circle><circle cx="129" cy="99" r="2"></circle><circle cx="142" cy="116" r="2"></circle><circle cx="154" cy="133" r="2"></circle><circle cx="167" cy="156" r="2"></circle><circle cx="180" cy="173" r="2"></circle><circle cx="193" cy="189" r="2"></circle><circle cx="205" cy="200" r="2"></circle><circle cx="218" cy="203" r="2"></circle><circle cx="231" cy="198" r="2"></circle><circle cx="244" cy="189" r="2"></circle><circle cx="256" cy="176" r="2"></circle><circle cx="269" cy="168" r="2"></circle><circle cx="282" cy="163" r="2"></circle><circle cx="294" cy="168" r="2"></circle><circle cx="307" cy="163" r="2"></circle><circle cx="320" cy="170" r="2"></circle><circle cx="333" cy="169" r="2"></circle><circle cx="345" cy="172" r="2"></circle><circle cx="358" cy="175" r="2"></circle><circle cx="371" cy="181" r="2"></circle><circle cx="384" cy="172" r="2"></circle><circle cx="396" cy="195" r="2"></circle><circle cx="409" cy="201" r="2"></circle><circle cx="422" cy="207" r="2"></circle><circle cx="435" cy="224" r="2"></circle><circle cx="447" cy="238" r="2"></circle><circle cx="460" cy="250" r="2"></circle><circle cx="473" cy="268" r="2"></circle><circle cx="485" cy="281" r="2"></circle><circle cx="498" cy="298" r="2"></circle><circle cx="511" cy="311" r="2"></circle><circle cx="524" cy="330" r="2"></circle><circle cx="536" cy="338" r="2"></circle><circle cx="549" cy="341" r="2"></circle><circle cx="562" cy="340" r="2"></circle><circle cx="575" cy="352" r="2"></circle><circle cx="587" cy="357" r="2"></circle><circle cx="600" cy="362" r="2"></circle><circle cx="613" cy="365" r="2"></circle><circle cx="625" cy="365" r="2"></circle><circle cx="638" cy="365" r="2"></circle></g></g><g class="key-East-Asia-__0026-Pacific_0"><path stroke="#ca2628" stroke-linecap="round" d="M129 441L142 428L154 411L167 412L180 419L193 429L205 434L218 435L231 439L244 458L256 474L269 492L282 500L294 505L307 503L320 500L333 494L345 488L358 481L371 472L384 467L396 462L409 478L422 493L435 495L447 499L460 515L473 514L485 514L498 499L511 495L524 503L536 503L549 506L562 507L575 508L587 507L600 503L613 502L625 502L638 502" fill="none" stroke-width="1.5"></path><g fill="#ca2628"><circle cx="129" cy="441" r="2"></circle><circle cx="142" cy="428" r="2"></circle><circle cx="154" cy="411" r="2"></circle><circle cx="167" cy="412" r="2"></circle><circle cx="180" cy="419" r="2"></circle><circle cx="193" cy="429" r="2"></circle><circle cx="205" cy="434" r="2"></circle><circle cx="218" cy="435" r="2"></circle><circle cx="231" cy="439" r="2"></circle><circle cx="244" cy="458" r="2"></circle><circle cx="256" cy="474" r="2"></circle><circle cx="269" cy="492" r="2"></circle><circle cx="282" cy="500" r="2"></circle><circle cx="294" cy="505" r="2"></circle><circle cx="307" cy="503" r="2"></circle><circle cx="320" cy="500" r="2"></circle><circle cx="333" cy="494" r="2"></circle><circle cx="345" cy="488" r="2"></circle><circle cx="358" cy="481" r="2"></circle><circle cx="371" cy="472" r="2"></circle><circle cx="384" cy="467" r="2"></circle><circle cx="396" cy="462" r="2"></circle><circle cx="409" cy="478" r="2"></circle><circle cx="422" cy="493" r="2"></circle><circle cx="435" cy="495" r="2"></circle><circle cx="447" cy="499" r="2"></circle><circle cx="460" cy="515" r="2"></circle><circle cx="473" cy="514" r="2"></circle><circle cx="485" cy="514" r="2"></circle><circle cx="498" cy="499" r="2"></circle><circle cx="511" cy="495" r="2"></circle><circle cx="524" cy="503" r="2"></circle><circle cx="536" cy="503" r="2"></circle><circle cx="549" cy="506" r="2"></circle><circle cx="562" cy="507" r="2"></circle><circle cx="575" cy="508" r="2"></circle><circle cx="587" cy="507" r="2"></circle><circle cx="600" cy="503" r="2"></circle><circle cx="613" cy="502" r="2"></circle><circle cx="625" cy="502" r="2"></circle><circle cx="638" cy="502" r="2"></circle></g></g><g class="key-South-Asia_0"><path stroke="#f6a324" stroke-linecap="round" d="M53 199L65 197L78 212L91 239L104 237L116 247L129 250L142 262L154 243L167 244L180 253L193 261L205 262L218 274L231 283L244 283L256 296L269 287L282 305L294 322L307 324L320 326L333 331L345 343L358 353L371 355L384 357L396 358L409 352L422 358L435 372L447 373L460 380L473 414L485 434L498 449L511 460L524 475L536 474L549 469L562 475L575 472L587 481L600 483L613 485L625 487L638 489" fill="none" stroke-width="1.5"></path><g fill="#f6a324"><circle cx="53" cy="199" r="2"></circle><circle cx="65" cy="197" r="2"></circle><circle cx="78" cy="212" r="2"></circle><circle cx="91" cy="239" r="2"></circle><circle cx="104" cy="237" r="2"></circle><circle cx="116" cy="247" r="2"></circle><circle cx="129" cy="250" r="2"></circle><circle cx="142" cy="262" r="2"></circle><circle cx="154" cy="243" r="2"></circle><circle cx="167" cy="244" r="2"></circle><circle cx="180" cy="253" r="2"></circle><circle cx="193" cy="261" r="2"></circle><circle cx="205" cy="262" r="2"></circle><circle cx="218" cy="274" r="2"></circle><circle cx="231" cy="283" r="2"></circle><circle cx="244" cy="283" r="2"></circle><circle cx="256" cy="296" r="2"></circle><circle cx="269" cy="287" r="2"></circle><circle cx="282" cy="305" r="2"></circle><circle cx="294" cy="322" r="2"></circle><circle cx="307" cy="324" r="2"></circle><circle cx="320" cy="326" r="2"></circle><circle cx="333" cy="331" r="2"></circle><circle cx="345" cy="343" r="2"></circle><circle cx="358" cy="353" r="2"></circle><circle cx="371" cy="355" r="2"></circle><circle cx="384" cy="357" r="2"></circle><circle cx="396" cy="358" r="2"></circle><circle cx="409" cy="352" r="2"></circle><circle cx="422" cy="358" r="2"></circle><circle cx="435" cy="372" r="2"></circle><circle cx="447" cy="373" r="2"></circle><circle cx="460" cy="380" r="2"></circle><circle cx="473" cy="414" r="2"></circle><circle cx="485" cy="434" r="2"></circle><circle cx="498" cy="449" r="2"></circle><circle cx="511" cy="460" r="2"></circle><circle cx="524" cy="475" r="2"></circle><circle cx="536" cy="474" r="2"></circle><circle cx="549" cy="469" r="2"></circle><circle cx="562" cy="475" r="2"></circle><circle cx="575" cy="472" r="2"></circle><circle cx="587" cy="481" r="2"></circle><circle cx="600" cy="483" r="2"></circle><circle cx="613" cy="485" r="2"></circle><circle cx="625" cy="487" r="2"></circle><circle cx="638" cy="489" r="2"></circle></g></g><g class="key-North-America_0"><path stroke="#a652ba" stroke-linecap="round" d="M104 397L116 396L129 403L142 405L154 410L167 408L180 464L193 463L205 481L218 473L231 466L244 470L256 483L269 496L282 505L294 514L307 522L320 524L333 517L345 509L358 504L371 510L384 502L396 504L409 505L422 505L435 504L447 504L460 490L473 486L485 479L498 485L511 494L524 504L536 507L549 499L562 490L575 483L587 484L600 482L613 485L625 489L638 489" fill="none" stroke-width="1.5"></path><g fill="#a652ba"><circle cx="104" cy="397" r="2"></circle><circle cx="116" cy="396" r="2"></circle><circle cx="129" cy="403" r="2"></circle><circle cx="142" cy="405" r="2"></circle><circle cx="154" cy="410" r="2"></circle><circle cx="167" cy="408" r="2"></circle><circle cx="180" cy="464" r="2"></circle><circle cx="193" cy="463" r="2"></circle><circle cx="205" cy="481" r="2"></circle><circle cx="218" cy="473" r="2"></circle><circle cx="231" cy="466" r="2"></circle><circle cx="244" cy="470" r="2"></circle><circle cx="256" cy="483" r="2"></circle><circle cx="269" cy="496" r="2"></circle><circle cx="282" cy="505" r="2"></circle><circle cx="294" cy="514" r="2"></circle><circle cx="307" cy="522" r="2"></circle><circle cx="320" cy="524" r="2"></circle><circle cx="333" cy="517" r="2"></circle><circle cx="345" cy="509" r="2"></circle><circle cx="358" cy="504" r="2"></circle><circle cx="371" cy="510" r="2"></circle><circle cx="384" cy="502" r="2"></circle><circle cx="396" cy="504" r="2"></circle><circle cx="409" cy="505" r="2"></circle><circle cx="422" cy="505" r="2"></circle><circle cx="435" cy="504" r="2"></circle><circle cx="447" cy="504" r="2"></circle><circle cx="460" cy="490" r="2"></circle><circle cx="473" cy="486" r="2"></circle><circle cx="485" cy="479" r="2"></circle><circle cx="498" cy="485" r="2"></circle><circle cx="511" cy="494" r="2"></circle><circle cx="524" cy="504" r="2"></circle><circle cx="536" cy="507" r="2"></circle><circle cx="549" cy="499" r="2"></circle><circle cx="562" cy="490" r="2"></circle><circle cx="575" cy="483" r="2"></circle><circle cx="587" cy="484" r="2"></circle><circle cx="600" cy="482" r="2"></circle><circle cx="613" cy="485" r="2"></circle><circle cx="625" cy="489" r="2"></circle><circle cx="638" cy="489" r="2"></circle></g></g><g class="key-Latin-America-__0026-Caribbean_0"><path stroke="#34983f" stroke-linecap="round" d="M53 401L65 404L78 408L91 414L104 418L116 419L129 424L142 432L154 436L167 447L180 449L193 456L205 456L218 455L231 455L244 458L256 458L269 459L282 458L294 453L307 457L320 460L333 467L345 469L358 466L371 466L384 471L396 459L409 486L422 495L435 501L447 503L460 503L473 498L485 500L498 498L511 494L524 491L536 502L549 504L562 506L575 506L587 500L600 495L613 494L625 496L638 496" fill="none" stroke-width="1.5"></path><g fill="#34983f"><circle cx="53" cy="401" r="2"></circle><circle cx="65" cy="404" r="2"></circle><circle cx="78" cy="408" r="2"></circle><circle cx="91" cy="414" r="2"></circle><circle cx="104" cy="418" r="2"></circle><circle cx="116" cy="419" r="2"></circle><circle cx="129" cy="424" r="2"></circle><circle cx="142" cy="432" r="2"></circle><circle cx="154" cy="436" r="2"></circle><circle cx="167" cy="447" r="2"></circle><circle cx="180" cy="449" r="2"></circle><circle cx="193" cy="456" r="2"></circle><circle cx="205" cy="456" r="2"></circle><circle cx="218" cy="455" r="2"></circle><circle cx="231" cy="455" r="2"></circle><circle cx="244" cy="458" r="2"></circle><circle cx="256" cy="458" r="2"></circle><circle cx="269" cy="459" r="2"></circle><circle cx="282" cy="458" r="2"></circle><circle cx="294" cy="453" r="2"></circle><circle cx="307" cy="457" r="2"></circle><circle cx="320" cy="460" r="2"></circle><circle cx="333" cy="467" r="2"></circle><circle cx="345" cy="469" r="2"></circle><circle cx="358" cy="466" r="2"></circle><circle cx="371" cy="466" r="2"></circle><circle cx="384" cy="471" r="2"></circle><circle cx="396" cy="459" r="2"></circle><circle cx="409" cy="486" r="2"></circle><circle cx="422" cy="495" r="2"></circle><circle cx="435" cy="501" r="2"></circle><circle cx="447" cy="503" r="2"></circle><circle cx="460" cy="503" r="2"></circle><circle cx="473" cy="498" r="2"></circle><circle cx="485" cy="500" r="2"></circle><circle cx="498" cy="498" r="2"></circle><circle cx="511" cy="494" r="2"></circle><circle cx="524" cy="491" r="2"></circle><circle cx="536" cy="502" r="2"></circle><circle cx="549" cy="504" r="2"></circle><circle cx="562" cy="506" r="2"></circle><circle cx="575" cy="506" r="2"></circle><circle cx="587" cy="500" r="2"></circle><circle cx="600" cy="495" r="2"></circle><circle cx="613" cy="494" r="2"></circle><circle cx="625" cy="496" r="2"></circle><circle cx="638" cy="496" r="2"></circle></g></g><g class="key-Europe-__0026-Central-Asia_0"><path stroke="#3360a9" stroke-linecap="round" d="M78 484L91 482L104 482L116 483L129 485L142 485L154 486L167 488L180 487L193 483L205 483L218 481L231 486L244 486L256 491L269 493L282 497L294 496L307 496L320 499L333 497L345 496L358 494L371 492L384 490L396 482L409 498L422 505L435 503L447 505L460 508L473 513L485 512L498 508L511 506L524 507L536 509L549 507L562 510L575 510L587 511L600 513L613 512L625 513L638 514" fill="none" stroke-width="1.5"></path><g fill="#3360a9"><circle cx="78" cy="484" r="2"></circle><circle cx="91" cy="482" r="2"></circle><circle cx="104" cy="482" r="2"></circle><circle cx="116" cy="483" r="2"></circle><circle cx="129" cy="485" r="2"></circle><circle cx="142" cy="485" r="2"></circle><circle cx="154" cy="486" r="2"></circle><circle cx="167" cy="488" r="2"></circle><circle cx="180" cy="487" r="2"></circle><circle cx="193" cy="483" r="2"></circle><circle cx="205" cy="483" r="2"></circle><circle cx="218" cy="481" r="2"></circle><circle cx="231" cy="486" r="2"></circle><circle cx="244" cy="486" r="2"></circle><circle cx="256" cy="491" r="2"></circle><circle cx="269" cy="493" r="2"></circle><circle cx="282" cy="497" r="2"></circle><circle cx="294" cy="496" r="2"></circle><circle cx="307" cy="496" r="2"></circle><circle cx="320" cy="499" r="2"></circle><circle cx="333" cy="497" r="2"></circle><circle cx="345" cy="496" r="2"></circle><circle cx="358" cy="494" r="2"></circle><circle cx="371" cy="492" r="2"></circle><circle cx="384" cy="490" r="2"></circle><circle cx="396" cy="482" r="2"></circle><circle cx="409" cy="498" r="2"></circle><circle cx="422" cy="505" r="2"></circle><circle cx="435" cy="503" r="2"></circle><circle cx="447" cy="505" r="2"></circle><circle cx="460" cy="508" r="2"></circle><circle cx="473" cy="513" r="2"></circle><circle cx="485" cy="512" r="2"></circle><circle cx="498" cy="508" r="2"></circle><circle cx="511" cy="506" r="2"></circle><circle cx="524" cy="507" r="2"></circle><circle cx="536" cy="509" r="2"></circle><circle cx="549" cy="507" r="2"></circle><circle cx="562" cy="510" r="2"></circle><circle cx="575" cy="510" r="2"></circle><circle cx="587" cy="511" r="2"></circle><circle cx="600" cy="513" r="2"></circle><circle cx="613" cy="512" r="2"></circle><circle cx="625" cy="513" r="2"></circle><circle cx="638" cy="514" r="2"></circle></g></g></g></g></g><g style="fill: #777;" class="SourcesFooter"><g style="fill: #777;" class="clickable"><text font-size="12.60" x="15.0" y="581.6"><tspan x="15" y="581.58">Source: World Bank</tspan></text></g><text font-size="12.60" x="516.3" y="581.6"><tspan x="516.346" y="581.58"><a target='_blank' style='fill: #777;' href='https://ourworldindata.org/land-use-in-agriculture/'>OurWorldInData.org/land-use-in-agriculture/</a> • <a style="fill: #777;" class="cclogo" href="http://creativecommons.org/licenses/by-sa/4.0/deed.en_US" target="_blank">CC BY-SA</a></tspan></text></g></g></svg>