<svg xmlns="http://www.w3.org/2000/svg" version="1.1" style="font-family:Lato, &#x27;Helvetica Neue&#x27;, Helvetica, Arial, sans-serif;font-size:18px;background-color:white;text-rendering:optimizeLegibility;-webkit-font-smoothing:antialiased" width="850" height="600"><g class="HeaderView"><a href="https://mispytest.ourworldindata.org/grapher/the-role-of-agriculture-in-the-fluctuations-of-the-aggregate-economy-in-india19612014" target="_blank"><text font-size="21.60" x="15.0" y="32.3" fill="#555"><tspan x="15" y="32.279999999999994">The role of agriculture in the fluctuations of the aggregate economy in</tspan><tspan x="15" y="53.87999999999999">India(1961–2014)</tspan></text></a><text font-size="14.40" x="15.0" y="72.7" fill="#666"><tspan x="15" y="72.72">Unit 13 &#x27;Economic fluctuations and unemployment’ Section 13.5 &#x27;How households cope with fluctuations&#x27; in The CORE Team,</tspan><tspan x="15" y="88.56">The Economy. Available at: https://tinyco.re/1305099 [Figure 13.9b]</tspan></text></g><g class="LineChart"><defs><clipPath id="boundsClip-275"><rect x="47.908" y="0" width="830" height="894.8"></rect></clipPath></defs><g class="AxisBoxView"><g class="HorizontalAxis"><text x="57.9" y="556.5" fill="#666" text-anchor="middle" font-size="16.2">1961</text><text x="143.5" y="556.5" fill="#666" text-anchor="middle" font-size="16.2">1970</text><text x="238.7" y="556.5" fill="#666" text-anchor="middle" font-size="16.2">1980</text><text x="333.8" y="556.5" fill="#666" text-anchor="middle" font-size="16.2">1990</text><text x="429" y="556.5" fill="#666" text-anchor="middle" font-size="16.2">2000</text><text x="524.1" y="556.5" fill="#666" text-anchor="middle" font-size="16.2">2010</text><text x="590.8" y="556.5" fill="#666" text-anchor="middle" font-size="16.2">2017</text></g><g class="VerticalAxis"><text x="52.91" y="493.7" fill="#666" dominant-baseline="middle" text-anchor="end" font-size="16.2">-10%</text><text x="52.91" y="418.7" fill="#666" dominant-baseline="middle" text-anchor="end" font-size="16.2">-5%</text><text x="52.91" y="343.7" fill="#666" dominant-baseline="middle" text-anchor="end" font-size="16.2">0%</text><text x="52.91" y="268.7" fill="#666" dominant-baseline="middle" text-anchor="end" font-size="16.2">5%</text><text x="52.91" y="193.7" fill="#666" dominant-baseline="middle" text-anchor="end" font-size="16.2">10%</text><text x="52.91" y="118.7" fill="#666" dominant-baseline="middle" text-anchor="end" font-size="16.2">15%</text></g><g class="AxisGridLines"><line x1="57.91" y1="493.7" x2="590.75" y2="493.7" stroke="#ddd" stroke-dasharray="3,2"></line><line x1="57.91" y1="418.7" x2="590.75" y2="418.7" stroke="#ddd" stroke-dasharray="3,2"></line><line x1="57.91" y1="343.7" x2="590.75" y2="343.7" stroke="#ccc"></line><line x1="57.91" y1="268.7" x2="590.75" y2="268.7" stroke="#ddd" stroke-dasharray="3,2"></line><line x1="57.91" y1="193.7" x2="590.75" y2="193.7" stroke="#ddd" stroke-dasharray="3,2"></line><line x1="57.91" y1="118.7" x2="590.75" y2="118.7" stroke="#ddd" stroke-dasharray="3,2"></line></g></g><g clip-path="url(#boundsClip-275)"><g class="HeightedLegend"><g class="legendMark"><rect x="590.75" y="237.55" width="108.71000000000001" height="13.5" fill="#fff" opacity="0"></rect><text font-size="13.50" x="595.8" y="248.4" fill="#ca2628"><tspan x="595.75" y="248.35000000000002">GDP growth</tspan></text></g><g class="legendMark"><rect x="590.75" y="285.34999999999997" width="244.25" height="28.1" fill="#fff" opacity="0"></rect><text font-size="13.50" x="595.8" y="296.1" fill="#3360a9"><tspan x="595.75" y="296.15">Growth rate of agriculture, forestry,</tspan><tspan x="595.75" y="311">and fishing</tspan></text></g></g><g class="Lines"><rect x="58" y="109" width="533" height="426" fill="rgba(255,255,255,0)" opacity="0"></rect><g class="key-India_0"><path stroke="#3360a9" stroke-linecap="round" d="M58 342L67 374L77 309L87 205L96 509L106 365L115 121L125 346L134 247L144 237L153 372L163 419L172 236L182 367L191 150L201 430L210 193L220 309L229 535L239 150L248 275L258 348L267 192L277 320L286 339L296 350L305 368L315 109L324 326L334 284L343 373L353 244L362 294L372 273L381 354L391 195L400 382L410 249L420 304L429 344L439 254L448 443L458 208L467 341L477 267L486 281L496 257L505 342L515 332L524 215L534 268L543 321L553 260L562 347L572 335L581 249L591 299" fill="none" stroke-width="1.5"></path><g fill="#3360a9"><circle cx="58" cy="342" r="2"></circle><circle cx="67" cy="374" r="2"></circle><circle cx="77" cy="309" r="2"></circle><circle cx="87" cy="205" r="2"></circle><circle cx="96" cy="509" r="2"></circle><circle cx="106" cy="365" r="2"></circle><circle cx="115" cy="121" r="2"></circle><circle cx="125" cy="346" r="2"></circle><circle cx="134" cy="247" r="2"></circle><circle cx="144" cy="237" r="2"></circle><circle cx="153" cy="372" r="2"></circle><circle cx="163" cy="419" r="2"></circle><circle cx="172" cy="236" r="2"></circle><circle cx="182" cy="367" r="2"></circle><circle cx="191" cy="150" r="2"></circle><circle cx="201" cy="430" r="2"></circle><circle cx="210" cy="193" r="2"></circle><circle cx="220" cy="309" r="2"></circle><circle cx="229" cy="535" r="2"></circle><circle cx="239" cy="150" r="2"></circle><circle cx="248" cy="275" r="2"></circle><circle cx="258" cy="348" r="2"></circle><circle cx="267" cy="192" r="2"></circle><circle cx="277" cy="320" r="2"></circle><circle cx="286" cy="339" r="2"></circle><circle cx="296" cy="350" r="2"></circle><circle cx="305" cy="368" r="2"></circle><circle cx="315" cy="109" r="2"></circle><circle cx="324" cy="326" r="2"></circle><circle cx="334" cy="284" r="2"></circle><circle cx="343" cy="373" r="2"></circle><circle cx="353" cy="244" r="2"></circle><circle cx="362" cy="294" r="2"></circle><circle cx="372" cy="273" r="2"></circle><circle cx="381" cy="354" r="2"></circle><circle cx="391" cy="195" r="2"></circle><circle cx="400" cy="382" r="2"></circle><circle cx="410" cy="249" r="2"></circle><circle cx="420" cy="304" r="2"></circle><circle cx="429" cy="344" r="2"></circle><circle cx="439" cy="254" r="2"></circle><circle cx="448" cy="443" r="2"></circle><circle cx="458" cy="208" r="2"></circle><circle cx="467" cy="341" r="2"></circle><circle cx="477" cy="267" r="2"></circle><circle cx="486" cy="281" r="2"></circle><circle cx="496" cy="257" r="2"></circle><circle cx="505" cy="342" r="2"></circle><circle cx="515" cy="332" r="2"></circle><circle cx="524" cy="215" r="2"></circle><circle cx="534" cy="268" r="2"></circle><circle cx="543" cy="321" r="2"></circle><circle cx="553" cy="260" r="2"></circle><circle cx="562" cy="347" r="2"></circle><circle cx="572" cy="335" r="2"></circle><circle cx="581" cy="249" r="2"></circle><circle cx="591" cy="299" r="2"></circle></g></g><g class="key-India_1"><path stroke="#ca2628" stroke-linecap="round" d="M58 288L67 300L77 254L87 232L96 383L106 345L115 226L125 293L134 246L144 266L153 319L163 352L172 294L182 326L191 206L201 319L210 235L220 258L229 422L239 243L248 254L258 292L267 234L277 286L286 265L296 272L305 284L315 199L324 255L334 261L343 328L353 262L362 272L372 244L381 230L391 230L400 283L410 251L420 211L429 286L439 271L448 287L458 226L467 225L477 204L486 205L496 197L505 285L515 217L524 190L534 244L543 262L553 248L562 233L572 221L581 237L591 244" fill="none" stroke-width="1.5"></path><g fill="#ca2628"><circle cx="58" cy="288" r="2"></circle><circle cx="67" cy="300" r="2"></circle><circle cx="77" cy="254" r="2"></circle><circle cx="87" cy="232" r="2"></circle><circle cx="96" cy="383" r="2"></circle><circle cx="106" cy="345" r="2"></circle><circle cx="115" cy="226" r="2"></circle><circle cx="125" cy="293" r="2"></circle><circle cx="134" cy="246" r="2"></circle><circle cx="144" cy="266" r="2"></circle><circle cx="153" cy="319" r="2"></circle><circle cx="163" cy="352" r="2"></circle><circle cx="172" cy="294" r="2"></circle><circle cx="182" cy="326" r="2"></circle><circle cx="191" cy="206" r="2"></circle><circle cx="201" cy="319" r="2"></circle><circle cx="210" cy="235" r="2"></circle><circle cx="220" cy="258" r="2"></circle><circle cx="229" cy="422" r="2"></circle><circle cx="239" cy="243" r="2"></circle><circle cx="248" cy="254" r="2"></circle><circle cx="258" cy="292" r="2"></circle><circle cx="267" cy="234" r="2"></circle><circle cx="277" cy="286" r="2"></circle><circle cx="286" cy="265" r="2"></circle><circle cx="296" cy="272" r="2"></circle><circle cx="305" cy="284" r="2"></circle><circle cx="315" cy="199" r="2"></circle><circle cx="324" cy="255" r="2"></circle><circle cx="334" cy="261" r="2"></circle><circle cx="343" cy="328" r="2"></circle><circle cx="353" cy="262" r="2"></circle><circle cx="362" cy="272" r="2"></circle><circle cx="372" cy="244" r="2"></circle><circle cx="381" cy="230" r="2"></circle><circle cx="391" cy="230" r="2"></circle><circle cx="400" cy="283" r="2"></circle><circle cx="410" cy="251" r="2"></circle><circle cx="420" cy="211" r="2"></circle><circle cx="429" cy="286" r="2"></circle><circle cx="439" cy="271" r="2"></circle><circle cx="448" cy="287" r="2"></circle><circle cx="458" cy="226" r="2"></circle><circle cx="467" cy="225" r="2"></circle><circle cx="477" cy="204" r="2"></circle><circle cx="486" cy="205" r="2"></circle><circle cx="496" cy="197" r="2"></circle><circle cx="505" cy="285" r="2"></circle><circle cx="515" cy="217" r="2"></circle><circle cx="524" cy="190" r="2"></circle><circle cx="534" cy="244" r="2"></circle><circle cx="543" cy="262" r="2"></circle><circle cx="553" cy="248" r="2"></circle><circle cx="562" cy="233" r="2"></circle><circle cx="572" cy="221" r="2"></circle><circle cx="581" cy="237" r="2"></circle><circle cx="591" cy="244" r="2"></circle></g></g></g></g></g><g class="SourcesFooter" style="fill:#777"><g class="clickable" style="fill:#777"><text font-size="12.60" x="15.0" y="581.6"><tspan x="15" y="581.58">Source: The World Bank (2018)</tspan></text></g><text font-size="12.60" x="553.0" y="581.6"><tspan x="553.012" y="581.58"><a target='_blank' style='fill: #777;' href='https://tinyco.re/130509'>tinyco.re/130509</a> • <a href="https://ourworldindata.org" target="_blank">Powered by ourworldindata.org</a></tspan></text></g></svg>