<svg xmlns="http://www.w3.org/2000/svg" version="1.1" style="font-family:Lato, &#x27;Helvetica Neue&#x27;, Helvetica, Arial, sans-serif;font-size:18px;background-color:white;text-rendering:optimizeLegibility;-webkit-font-smoothing:antialiased" width="850" height="600"><g class="HeaderView"><a href="https://mispytest.ourworldindata.org/grapher/the-rise-and-fall-of-the-share-of-employment-in-industry" target="_blank"><text font-size="25.20" x="15.0" y="35.2" fill="#555"><tspan x="15" y="35.160000000000004">The rise and fall of the share of employment in industry (1870–2014)</tspan></text></a><text font-size="14.40" x="15.0" y="53.7" fill="#666"><tspan x="15" y="53.72">Unit 16 &#x27;Technological progress, employment, and living standards in the long run’ Section 16.11 &#x27;Slower productivity growth</tspan><tspan x="15" y="69.56">in services, and the changing nature of work&#x27; in The CORE Team, The Economy. Available at: https://tinyco.re/1611188</tspan><tspan x="15" y="85.4">[Figure 16.18]</tspan></text></g><g class="LineChart"><defs><clipPath id="boundsClip-271"><rect x="42.562" y="0" width="830" height="901.8"></rect></clipPath></defs><g class="AxisBoxView"><g class="HorizontalAxis"><text x="52.6" y="556.5" fill="#666" text-anchor="middle" font-size="16.2">1870</text><text x="98.8" y="556.5" fill="#666" text-anchor="middle" font-size="16.2">1880</text><text x="191.3" y="556.5" fill="#666" text-anchor="middle" font-size="16.2">1900</text><text x="283.8" y="556.5" fill="#666" text-anchor="middle" font-size="16.2">1920</text><text x="376.3" y="556.5" fill="#666" text-anchor="middle" font-size="16.2">1940</text><text x="468.8" y="556.5" fill="#666" text-anchor="middle" font-size="16.2">1960</text><text x="561.3" y="556.5" fill="#666" text-anchor="middle" font-size="16.2">1980</text><text x="653.8" y="556.5" fill="#666" text-anchor="middle" font-size="16.2">2000</text><text x="718.6" y="556.5" fill="#666" text-anchor="middle" font-size="16.2">2014</text></g><g class="VerticalAxis"><text x="47.56" y="535.3" fill="#666" dominant-baseline="middle" text-anchor="end" font-size="16.2">0%</text><text x="47.56" y="447.1" fill="#666" dominant-baseline="middle" text-anchor="end" font-size="16.2">10%</text><text x="47.56" y="358.8" fill="#666" dominant-baseline="middle" text-anchor="end" font-size="16.2">20%</text><text x="47.56" y="270.6" fill="#666" dominant-baseline="middle" text-anchor="end" font-size="16.2">30%</text><text x="47.56" y="182.4" fill="#666" dominant-baseline="middle" text-anchor="end" font-size="16.2">40%</text></g><g class="AxisGridLines"><line x1="52.56" y1="535.3" x2="718.60" y2="535.3" stroke="#ccc"></line><line x1="52.56" y1="447.1" x2="718.60" y2="447.1" stroke="#ddd" stroke-dasharray="3,2"></line><line x1="52.56" y1="358.8" x2="718.60" y2="358.8" stroke="#ddd" stroke-dasharray="3,2"></line><line x1="52.56" y1="270.6" x2="718.60" y2="270.6" stroke="#ddd" stroke-dasharray="3,2"></line><line x1="52.56" y1="182.4" x2="718.60" y2="182.4" stroke="#ddd" stroke-dasharray="3,2"></line></g></g><g clip-path="url(#boundsClip-271)"><g class="HeightedLegend clickable"><g class="legendMark"><g class="indicator"><line x1="723.595" y1="216.4" x2="736.095" y2="216.4" stroke="#666" stroke-width="0.5"></line><line x1="736.095" y1="216.4" x2="736.095" y2="216.4" stroke="#666" stroke-width="0.5"></line><line x1="736.095" y1="216.4" x2="748.595" y2="216.4" stroke="#666" stroke-width="0.5"></line></g><rect x="718.595" y="209.65" width="78.605" height="13.5" fill="#fff" opacity="0"></rect><text font-size="13.50" x="753.6" y="220.5" fill="#9ecc8a"><tspan x="753.595" y="220.45000000000002">Taiwan</tspan></text></g><g class="legendMark"><g class="indicator"><line x1="723.595" y1="271.5" x2="736.095" y2="271.5" stroke="#666" stroke-width="0.5"></line><line x1="736.095" y1="271.5" x2="736.095" y2="271.5" stroke="#666" stroke-width="0.5"></line><line x1="736.095" y1="271.5" x2="748.595" y2="271.5" stroke="#666" stroke-width="0.5"></line></g><rect x="718.595" y="264.75" width="70.37" height="13.5" fill="#fff" opacity="0"></rect><text font-size="13.50" x="753.6" y="275.6" fill="#e6332e"><tspan x="753.595" y="275.55">China</tspan></text></g><g class="legendMark"><g class="indicator"><line x1="723.595" y1="302.4" x2="736.095" y2="302.4" stroke="#666" stroke-width="0.5"></line><line x1="736.095" y1="302.4" x2="736.095" y2="302.4" stroke="#666" stroke-width="0.5"></line><line x1="736.095" y1="302.4" x2="748.595" y2="302.4" stroke="#666" stroke-width="0.5"></line></g><rect x="718.595" y="295.65" width="90.62" height="13.5" fill="#fff" opacity="0"></rect><text font-size="13.50" x="753.6" y="306.4" fill="#2a939b"><tspan x="753.595" y="306.45">Germany</tspan></text></g><g class="legendMark"><g class="indicator"><line x1="723.595" y1="318.2" x2="746.095" y2="318.2" stroke="#666" stroke-width="0.5"></line><line x1="746.095" y1="318.2" x2="746.095" y2="318.2" stroke="#666" stroke-width="0.5"></line><line x1="746.095" y1="318.2" x2="748.595" y2="318.2" stroke="#666" stroke-width="0.5"></line></g><rect x="718.595" y="311.45" width="71.99000000000001" height="13.5" fill="#fff" opacity="0"></rect><text font-size="13.50" x="753.6" y="322.3" fill="#a652ba"><tspan x="753.595" y="322.25">Japan</tspan></text></g><g class="legendMark"><g class="indicator"><line x1="723.595" y1="325.3" x2="736.095" y2="325.3" stroke="#666" stroke-width="0.5"></line><line x1="736.095" y1="325.3" x2="736.095" y2="333.7" stroke="#666" stroke-width="0.5"></line><line x1="736.095" y1="333.7" x2="748.595" y2="333.7" stroke="#666" stroke-width="0.5"></line></g><rect x="718.595" y="326.95" width="71.18" height="13.5" fill="#fff" opacity="0"></rect><text font-size="13.50" x="753.6" y="337.8" fill="#f6a324"><tspan x="753.595" y="337.75">Korea</tspan></text></g><g class="legendMark"><g class="indicator"><line x1="723.595" y1="363.2" x2="736.095" y2="363.2" stroke="#666" stroke-width="0.5"></line><line x1="736.095" y1="363.2" x2="736.095" y2="363.2" stroke="#666" stroke-width="0.5"></line><line x1="736.095" y1="363.2" x2="748.595" y2="363.2" stroke="#666" stroke-width="0.5"></line></g><rect x="718.595" y="356.45" width="77.12" height="13.5" fill="#fff" opacity="0"></rect><text font-size="13.50" x="753.6" y="367.3" fill="#34983f"><tspan x="753.595" y="367.25">France</tspan></text></g><g class="legendMark"><g class="indicator"><line x1="723.595" y1="380.9" x2="746.095" y2="380.9" stroke="#666" stroke-width="0.5"></line><line x1="746.095" y1="380.9" x2="746.095" y2="380.9" stroke="#666" stroke-width="0.5"></line><line x1="746.095" y1="380.9" x2="748.595" y2="380.9" stroke="#666" stroke-width="0.5"></line></g><rect x="718.595" y="374.15" width="53.765" height="13.5" fill="#fff" opacity="0"></rect><text font-size="13.50" x="753.6" y="384.9" fill="#3360a9"><tspan x="753.595" y="384.95">UK</tspan></text></g><g class="legendMark"><g class="indicator"><line x1="723.595" y1="380.9" x2="736.095" y2="380.9" stroke="#666" stroke-width="0.5"></line><line x1="736.095" y1="380.9" x2="736.095" y2="396.4" stroke="#666" stroke-width="0.5"></line><line x1="736.095" y1="396.4" x2="748.595" y2="396.4" stroke="#666" stroke-width="0.5"></line></g><rect x="718.595" y="389.65" width="116.405" height="13.5" fill="#fff" opacity="0"></rect><text font-size="13.50" x="753.6" y="400.4" fill="#ca2628"><tspan x="753.595" y="400.45">United States</tspan></text></g></g><g class="Lines"><rect x="53" y="106" width="666" height="430" fill="rgba(255,255,255,0)" opacity="0"></rect><g class="key-China_0"><path stroke="#e6332e" stroke-linecap="round" d="M561 375L566 374L571 373L575 370L580 360L585 352L589 342L594 339L598 338L603 344L608 347L612 347L617 344L622 338L626 335L631 332L635 328L640 326L645 328L649 332L654 337L659 339L663 347L668 345L672 337L677 325L682 313L686 299L691 295L696 290L700 282L705 275L709 268L714 270L719 272" fill="none" stroke-width="1.5"></path></g><g class="key-France_0"><path stroke="#34983f" stroke-linecap="round" d="M53 288L57 287L62 287L66 286L71 285L76 284L80 283L85 283L90 282L94 281L99 280L103 279L108 278L113 278L117 277L122 276L127 275L131 274L136 274L140 273L145 272L150 271L154 270L159 269L164 269L168 268L173 267L177 266L182 265L187 264L191 264L196 263L201 262L205 261L210 260L214 260L219 259L224 258L228 257L233 256L238 255L242 255L247 254L251 253L256 252L261 252L265 251L270 250L275 249L279 249L284 248L288 247L293 247L298 246L302 245L307 244L312 244L316 243L321 242L326 242L330 241L335 240L339 239L344 239L349 238L353 237L358 237L363 236L367 235L372 234L376 234L381 233L386 232L390 232L395 231L400 230L404 229L409 229L413 228L418 227L423 227L427 225L432 223L437 221L441 219L446 217L450 215L455 214L460 212L464 210L469 208L474 206L478 204L483 202L487 201L492 199L497 197L501 195L506 193L511 191L515 190L520 188L524 186L529 186L534 188L538 192L543 199L548 202L552 208L557 212L561 217L566 222L571 240L575 246L580 253L585 262L589 269L594 272L598 274L603 276L608 275L612 278L617 286L622 295L626 302L631 305L635 309L640 311L645 314L649 316L654 318L659 318L663 322L668 325L672 328L677 331L682 332L686 334L691 339L696 347L700 351L705 351L709 355L714 363" fill="none" stroke-width="1.5"></path></g><g class="key-Germany_0"><path stroke="#2a939b" stroke-linecap="round" d="M53 279L57 277L62 275L66 272L71 270L76 267L80 265L85 262L90 260L94 257L99 255L103 252L108 250L113 247L117 245L122 243L127 240L131 238L136 235L140 233L145 230L150 228L154 225L159 223L164 220L168 218L173 215L177 213L182 211L187 208L191 206L196 203L201 201L205 198L210 196L214 193L219 191L224 188L228 186L233 183L238 181L242 179L247 176L251 174L256 173L261 173L265 172L270 172L275 171L279 171L284 170L288 170L293 169L298 169L302 168L307 168L312 167L316 167L321 166L326 166L330 165L335 165L339 165L344 164L349 164L353 163L358 163L363 162L367 162L372 161L376 161L381 160L386 160L390 159L395 159L400 158L404 158L409 157L413 157L418 156L423 156L427 153L432 151L437 148L441 146L446 143L450 141L455 138L460 136L464 133L469 131L474 128L478 126L483 123L487 121L492 118L497 116L501 113L506 111L511 108L515 106L520 114L524 121L529 122L534 130L538 143L543 146L548 149L552 152L557 153L561 157L566 163L571 171L575 177L580 180L585 182L589 183L594 187L598 191L603 192L608 192L612 184L617 192L622 202L626 212L631 224L635 232L640 236L645 239L649 242L654 246L659 250L663 256L668 262L672 264L677 278L682 279L686 278L691 279L696 293L700 296L705 298L709 300L714 302" fill="none" stroke-width="1.5"></path></g><g class="key-Japan_0"><path stroke="#a652ba" stroke-linecap="round" d="M251 385L256 384L261 382L265 381L270 380L275 378L279 377L284 375L288 374L293 372L298 371L302 370L307 368L312 367L316 365L321 364L326 362L330 361L335 360L339 358L344 357L349 355L353 354L358 352L363 351L367 350L372 348L376 347L381 345L386 344L390 342L395 341L400 340L404 338L409 337L413 335L418 334L423 332L427 327L432 321L437 316L441 310L446 304L450 299L455 293L460 288L464 282L469 276L474 271L478 265L483 260L487 254L492 248L497 243L501 237L506 232L511 226L515 220L520 219L524 216L529 209L534 211L538 221L543 221L548 226L552 228L557 229L561 226L566 226L571 231L575 232L580 231L585 230L589 234L594 240L598 236L603 234L608 236L612 234L617 233L622 235L626 238L631 243L635 245L640 246L645 256L649 259L654 263L659 270L663 279L668 284L672 292L677 296L682 295L686 297L691 301L696 309L700 315L705 316L709 317L714 318" fill="none" stroke-width="1.5"></path></g><g class="key-Korea_0"><path stroke="#f6a324" stroke-linecap="round" d="M515 384L520 379L524 377L529 362L534 344L538 328L543 305L548 295L552 278L557 273L561 282L566 293L571 292L575 280L580 266L585 266L589 257L594 237L598 230L603 228L608 227L612 213L617 223L622 238L626 242L631 243L635 250L640 261L645 291L649 295L654 290L659 295L663 296L668 294L672 301L677 305L682 310L686 314L691 318L696 326L700 321L705 322L709 324L714 325" fill="none" stroke-width="1.5"></path></g><g class="key-Taiwan_0"><path stroke="#9ecc8a" stroke-linecap="round" d="M696 219L700 219L705 215L709 216L714 216L719 216" fill="none" stroke-width="1.5"></path></g><g class="key-UK_0"><path stroke="#3360a9" stroke-linecap="round" d="M53 165L57 164L62 164L66 164L71 163L76 163L80 162L85 162L90 161L94 161L99 161L103 160L108 160L113 159L117 159L122 159L127 158L131 158L136 157L140 157L145 157L150 156L154 156L159 155L164 155L168 155L173 154L177 154L182 153L187 153L191 152L196 152L201 152L205 151L210 151L214 150L219 150L224 150L228 149L233 149L238 148L242 148L247 148L251 147L256 147L261 147L265 146L270 146L275 146L279 146L284 145L288 145L293 145L298 145L302 144L307 144L312 144L316 144L321 144L326 143L330 143L335 143L339 143L344 142L349 142L353 142L358 142L363 141L367 141L372 141L376 141L381 140L386 140L390 140L395 140L400 139L404 139L409 139L413 139L418 139L423 138L427 140L432 141L437 142L441 144L446 145L450 146L455 148L460 149L464 150L469 152L474 153L478 154L483 156L487 157L492 158L497 160L501 161L506 162L511 164L515 165L520 167L524 173L529 175L534 178L538 192L543 200L548 201L552 204L557 207L561 217L566 234L571 244L575 254L580 242L585 246L589 251L594 260L598 259L603 261L608 264L612 262L617 283L622 287L626 302L631 304L635 303L640 321L645 323L649 330L654 335L659 339L663 344L668 351L672 355L677 357L682 358L686 357L691 363L696 375L700 377L705 379L709 380L714 381" fill="none" stroke-width="1.5"></path></g><g class="key-United-States_0"><path stroke="#ca2628" stroke-linecap="round" d="M53 324L57 322L62 321L66 320L71 319L76 317L80 316L85 315L90 314L94 313L99 311L103 310L108 309L113 308L117 306L122 305L127 304L131 303L136 301L140 300L145 299L150 298L154 297L159 295L164 294L168 293L173 292L177 290L182 289L187 288L191 287L196 285L201 284L205 283L210 282L214 280L219 279L224 278L228 277L233 276L238 274L242 273L247 272L251 271L256 270L261 269L265 268L270 267L275 266L279 265L284 264L288 263L293 262L298 261L302 260L307 259L312 258L316 257L321 256L326 255L330 254L335 253L339 253L344 252L349 251L353 250L358 249L363 248L367 247L372 246L376 245L381 244L386 243L390 242L395 241L400 240L404 239L409 238L413 237L418 236L423 235L427 236L432 236L437 237L441 237L446 237L450 238L455 238L460 239L464 239L469 239L474 240L478 240L483 241L487 241L492 241L497 242L501 242L506 243L511 243L515 243L520 256L524 258L529 253L534 258L538 275L543 274L548 273L552 271L557 269L561 277L566 280L571 295L575 309L580 305L585 308L589 310L594 315L598 317L603 317L608 322L612 329L617 334L622 339L626 339L631 338L635 339L640 338L645 339L649 344L654 341L659 347L663 356L668 359L672 359L677 361L682 360L686 361L691 367L696 380L700 384L705 383L709 383L714 381" fill="none" stroke-width="1.5"></path></g></g></g></g><g class="SourcesFooter" style="fill:#777"><g class="clickable" style="fill:#777"><text font-size="12.60" x="15.0" y="581.6"><tspan x="15" y="581.58">Source: BLS (2004); ILO (2015); The Conference Board (2013)</tspan></text></g><text font-size="12.60" x="660.0" y="581.6"><tspan x="659.986" y="581.58"><a href="https://ourworldindata.org" target="_blank">Powered by ourworldindata.org</a></tspan></text></g></svg>