<svg xmlns="http://www.w3.org/2000/svg" version="1.1" style="font-family:Lato, &#x27;Helvetica Neue&#x27;, Helvetica, Arial, sans-serif;font-size:18px;background-color:white;text-rendering:optimizeLegibility;-webkit-font-smoothing:antialiased" width="850" height="600"><g class="HeaderView"><a href="https://mispytest.ourworldindata.org/grapher/the-productivity-of-labour-in-producing-light-lumen-hours-per-hour-of-labour-1800-to-the-present" target="_blank"><text font-size="21.60" x="15.0" y="32.3" fill="#555"><tspan x="15" y="32.279999999999994">The productivity of labour in producing light: Lumen-hours per hour of labour</tspan><tspan x="15" y="53.87999999999999">(1800 to the present)</tspan></text></a><text font-size="14.40" x="15.0" y="72.7" fill="#666"><tspan x="15" y="72.72">Unit 1 &#x27;The capitalist revolution’ Section 1.4 &#x27;The permanent technological revolution&#x27; in The CORE Team, The Economy.</tspan><tspan x="15" y="88.56">Available at: https://tinyco.re/1926384 [Figure 1.3]</tspan></text></g><g class="LineChart"><defs><clipPath id="boundsClip-279"><rect x="69.45400000000001" y="0" width="830" height="867.4"></rect></clipPath></defs><g class="AxisBoxView"><g class="HorizontalAxis"><text x="79.5" y="542.8" fill="#666" text-anchor="middle" font-size="16.2">1800</text><text x="257.9" y="542.8" fill="#666" text-anchor="middle" font-size="16.2">1850</text><text x="436.4" y="542.8" fill="#666" text-anchor="middle" font-size="16.2">1900</text><text x="614.9" y="542.8" fill="#666" text-anchor="middle" font-size="16.2">1950</text><text x="764.8" y="542.8" fill="#666" text-anchor="middle" font-size="16.2">1992</text></g><g class="VerticalAxis"><text x="74.45" y="456.9" fill="#666" dominant-baseline="middle" text-anchor="end" font-size="16.2">1,000</text><text x="74.45" y="368.3" fill="#666" dominant-baseline="middle" text-anchor="end" font-size="16.2">10,000</text><text x="74.45" y="279.7" fill="#666" dominant-baseline="middle" text-anchor="end" font-size="16.2">100,000</text><text x="74.45" y="191" fill="#666" dominant-baseline="middle" text-anchor="end" font-size="16.2">1 million</text></g><g class="AxisGridLines"><line x1="79.45" y1="456.9" x2="764.76" y2="456.9" stroke="#ddd" stroke-dasharray="3,2"></line><line x1="79.45" y1="368.3" x2="764.76" y2="368.3" stroke="#ddd" stroke-dasharray="3,2"></line><line x1="79.45" y1="279.7" x2="764.76" y2="279.7" stroke="#ddd" stroke-dasharray="3,2"></line><line x1="79.45" y1="191" x2="764.76" y2="191" stroke="#ddd" stroke-dasharray="3,2"></line></g></g><g clip-path="url(#boundsClip-279)"><g class="HeightedLegend"><g class="legendMark"><rect x="764.765" y="102.35" width="70.235" height="13.5" fill="#fff" opacity="0"></rect><text font-size="13.50" x="769.8" y="113.1" fill="#3360a9"><tspan x="769.765" y="113.14999999999999">World</tspan></text></g></g><g class="Lines"><rect x="79" y="109" width="685" height="413" fill="rgba(255,255,255,0)" opacity="0"></rect><g class="key-World_0"><path stroke="#3360a9" stroke-linecap="round" d="M80 522L240 518L276 499L347 414L419 361L508 287L579 257L758 172L765 109" fill="none" stroke-width="1.5"></path><g fill="#3360a9"><circle cx="80" cy="522" r="2"></circle><circle cx="240" cy="518" r="2"></circle><circle cx="276" cy="499" r="2"></circle><circle cx="347" cy="414" r="2"></circle><circle cx="419" cy="361" r="2"></circle><circle cx="508" cy="287" r="2"></circle><circle cx="579" cy="257" r="2"></circle><circle cx="758" cy="172" r="2"></circle><circle cx="765" cy="109" r="2"></circle></g></g></g></g></g><g class="SourcesFooter" style="fill:#777"><g class="clickable" style="fill:#777"><text font-size="12.60" x="15.0" y="567.9"><tspan x="15" y="567.88">Source: Nordhaus (1998)</tspan></text></g><text font-size="12.60" x="15.0" y="582.5"><tspan x="15" y="582.48">Note: The chart uses ratio scale to graph the rapid growth in efficiency in lighting.</tspan></text><text font-size="12.60" x="546.0" y="567.9"><tspan x="545.956" y="567.88"><a target='_blank' style='fill: #777;' href='https://tinyco.re/1926384'>tinyco.re/1926384</a> • <a href="https://ourworldindata.org" target="_blank">Powered by ourworldindata.org</a></tspan></text></g></svg>