<svg xmlns="http://www.w3.org/2000/svg" version="1.1" style="font-family:Lato, &#x27;Helvetica Neue&#x27;, Helvetica, Arial, sans-serif;font-size:18px;background-color:white;text-rendering:optimizeLegibility;-webkit-font-smoothing:antialiased" width="850" height="600"><g class="HeaderView"><a href="https://mispytest.ourworldindata.org/grapher/the-growth-rate-of-productivity-over-the-long-run-14002004" target="_blank"><text font-size="25.20" x="15.0" y="35.2" fill="#555"><tspan x="15" y="35.160000000000004">The growth rate of productivity over the long run (1400–2004)</tspan></text></a><text font-size="14.40" x="15.0" y="53.7" fill="#666"><tspan x="15" y="53.72">Unit 21 &#x27;Capstone: Innovation, information, and the networked economy&#x27; Section 21.1 &#x27;The innovation process: Invention and</tspan><tspan x="15" y="69.56">diffusion&#x27; in The CORE Team, The Economy. Available at https://tinyco.re/2101033 [Figure 21.4]</tspan></text></g><g class="LineChart"><defs><clipPath id="boundsClip-243"><rect x="52.444" y="0" width="830" height="932.8"></rect></clipPath></defs><g class="AxisBoxView"><g class="HorizontalAxis"><text x="62.4" y="556.5" fill="#666" text-anchor="middle" font-size="16.2">1400</text><text x="184.6" y="556.5" fill="#666" text-anchor="middle" font-size="16.2">1500</text><text x="306.7" y="556.5" fill="#666" text-anchor="middle" font-size="16.2">1600</text><text x="428.8" y="556.5" fill="#666" text-anchor="middle" font-size="16.2">1700</text><text x="550.9" y="556.5" fill="#666" text-anchor="middle" font-size="16.2">1800</text><text x="673" y="556.5" fill="#666" text-anchor="middle" font-size="16.2">1900</text><text x="800" y="556.5" fill="#666" text-anchor="middle" font-size="16.2">2004</text></g><g class="VerticalAxis"><text x="57.44" y="535.3" fill="#666" dominant-baseline="middle" text-anchor="end" font-size="16.2">-0.5%</text><text x="57.44" y="466" fill="#666" dominant-baseline="middle" text-anchor="end" font-size="16.2">0%</text><text x="57.44" y="396.6" fill="#666" dominant-baseline="middle" text-anchor="end" font-size="16.2">0.5%</text><text x="57.44" y="327.3" fill="#666" dominant-baseline="middle" text-anchor="end" font-size="16.2">1%</text><text x="57.44" y="257.9" fill="#666" dominant-baseline="middle" text-anchor="end" font-size="16.2">1.5%</text><text x="57.44" y="188.6" fill="#666" dominant-baseline="middle" text-anchor="end" font-size="16.2">2%</text><text x="57.44" y="119.2" fill="#666" dominant-baseline="middle" text-anchor="end" font-size="16.2">2.5%</text></g><g class="AxisGridLines"><line x1="62.44" y1="535.3" x2="800.00" y2="535.3" stroke="#ddd" stroke-dasharray="3,2"></line><line x1="62.44" y1="466" x2="800.00" y2="466" stroke="#ccc"></line><line x1="62.44" y1="396.6" x2="800.00" y2="396.6" stroke="#ddd" stroke-dasharray="3,2"></line><line x1="62.44" y1="327.3" x2="800.00" y2="327.3" stroke="#ddd" stroke-dasharray="3,2"></line><line x1="62.44" y1="257.9" x2="800.00" y2="257.9" stroke="#ddd" stroke-dasharray="3,2"></line><line x1="62.44" y1="188.6" x2="800.00" y2="188.6" stroke="#ddd" stroke-dasharray="3,2"></line><line x1="62.44" y1="119.2" x2="800.00" y2="119.2" stroke="#ddd" stroke-dasharray="3,2"></line></g></g><g clip-path="url(#boundsClip-243)"><g class="HeightedLegend"><g class="legendMark"><rect x="800" y="196.05" width="35" height="-1.1" fill="#fff" opacity="0"></rect></g><g class="legendMark"><rect x="800" y="229.35000000000002" width="35" height="-1.1" fill="#fff" opacity="0"></rect></g></g><g class="Lines"><rect x="62" y="90" width="738" height="445" fill="rgba(255,255,255,0)" opacity="0"></rect><g class="key-United-States_1"><path stroke="#e6332e" stroke-linecap="round" d="M746 114L748 101L749 103L750 111L751 130L752 137L754 123L755 137L756 148L757 168L759 179L760 183L761 211L762 218L763 225L765 234L766 239L767 243L768 255L770 255L771 258L772 273L773 266L774 280L776 270L777 287L778 284L779 282L781 273L782 259L783 243L784 243L785 218L787 212L788 208L789 207L790 216L792 214L793 218L794 202L795 196L796 204L798 225L799 226L800 229" fill="none" stroke-width="1.5"></path></g><g class="key-United-Kingdom_0"><path stroke="#3360a9" stroke-linecap="round" d="M62 430L64 434L65 438L66 442L67 447L69 451L70 455L71 459L72 463L73 467L75 472L76 472L77 472L78 472L80 472L81 472L82 472L83 472L84 472L86 472L87 472L88 472L89 472L91 472L92 472L93 472L94 472L95 472L97 472L98 472L99 472L100 472L102 472L103 472L104 472L105 472L106 472L108 472L109 472L110 472L111 472L113 472L114 472L115 470L116 470L117 470L119 469L120 469L121 469L122 469L124 467L125 467L126 467L127 466L128 466L130 466L131 465L132 465L133 465L135 463L136 463L137 463L138 463L139 463L141 463L142 463L143 463L144 463L146 463L147 463L148 463L149 463L150 463L152 463L153 463L154 463L155 463L157 463L158 463L159 463L160 463L161 463L163 463L164 463L165 463L166 463L168 463L169 463L170 463L171 463L172 463L174 465L175 465L176 465L177 466L179 466L180 466L181 467L182 467L183 467L185 469L186 469L187 469L188 470L189 470L191 470L192 472L193 472L194 472L196 473L197 473L198 473L199 473L200 473L202 473L203 473L204 473L205 473L207 473L208 473L209 473L210 473L211 473L213 473L214 473L215 473L216 473L218 473L219 473L220 473L221 473L222 473L224 473L225 473L226 473L227 473L229 473L230 473L231 473L232 473L233 473L235 472L236 469L237 467L238 465L240 463L241 460L242 459L243 456L244 455L246 452L247 451L248 448L249 447L251 444L252 442L253 440L254 438L255 435L257 434L258 433L259 434L260 437L262 440L263 441L264 444L265 447L266 448L268 451L269 454L270 455L271 458L273 460L274 462L275 465L276 467L277 469L279 472L280 473L281 476L282 478L284 478L285 478L286 478L287 478L288 478L290 478L291 478L292 478L293 478L295 478L296 478L297 477L298 477L299 477L301 476L302 476L303 476L304 474L305 474L307 474L308 473L309 473L310 473L312 472L313 472L314 472L315 472L316 470L318 470L319 470L320 470L321 470L323 470L324 470L325 470L326 470L327 470L329 470L330 470L331 470L332 470L334 470L335 470L336 470L337 470L338 470L340 470L341 470L342 470L343 470L345 470L346 470L347 470L348 470L349 470L351 470L352 470L353 470L354 470L356 470L357 463L358 456L359 449L360 442L362 435L363 430L364 423L365 416L367 411L368 404L369 398L370 391L371 386L373 379L374 373L375 368L376 361L378 355L379 350L380 343L381 344L382 345L384 347L385 348L386 348L387 350L389 351L390 351L391 352L392 354L393 354L395 355L396 356L397 356L398 358L400 358L401 359L402 361L403 361L404 362L406 362L407 363L408 363L409 365L411 366L412 366L413 368L414 368L415 369L417 369L418 373L419 377L420 381L422 386L423 390L424 394L425 398L426 402L428 405L429 409L430 413L431 417L432 420L434 424L435 429L436 433L437 435L439 440L440 442L441 447L442 447L443 447L445 447L446 447L447 447L448 447L450 447L451 447L452 447L453 447L454 447L456 447L457 447L458 447L459 447L461 447L462 447L463 447L464 447L465 447L467 447L468 447L469 447L470 447L472 447L473 447L474 447L475 448L476 448L478 448L479 447L480 445L481 444L483 444L484 442L485 441L486 440L487 440L489 438L490 437L491 437L492 435L494 434L495 433L496 433L497 431L498 430L500 430L501 429L502 427L503 427L505 427L506 427L507 427L508 429L509 426L511 423L512 422L513 419L514 416L516 415L517 412L518 409L519 408L520 405L522 404L523 401L524 399L525 397L527 395L528 392L529 391L530 388L531 387L533 384L534 386L535 386L536 386L538 387L539 387L540 390L541 392L542 419L544 433L545 405L546 422L547 391L548 435L550 427L551 395L552 416L553 459L555 437L556 466L557 408L558 459L559 463L561 477L562 502L563 460L564 462L566 462L567 431L568 394L569 419L570 452L572 442L573 409L574 426L575 440L577 424L578 373L579 401L580 368L581 387L583 326L584 340L585 311L586 304L588 325L589 347L590 363L591 347L592 322L594 305L595 268L596 327L597 300L599 286L600 419L601 381L602 387L603 363L605 358L606 408L607 379L608 358L610 381L611 355L612 369L613 334L614 320L616 345L617 384L618 392L619 379L621 376L622 380L623 391L624 244L625 248L627 259L628 270L629 279L630 261L632 305L633 313L634 313L635 336L636 320L638 315L639 300L640 300L641 318L643 341L644 341L645 308L646 298L647 265L649 304L650 341L651 361L652 377L654 341L655 336L656 313L657 309L658 279L660 247L661 283L662 308L663 311L665 325L666 322L667 298L668 286L669 301L671 361L672 383L673 365L674 344L675 313L677 284L678 323L679 287L680 297L682 294L683 316L684 413L685 447L686 458L688 438L689 406L690 381L691 365L693 409L694 363L695 323L696 315L697 338L699 391L700 398L701 404L702 361L704 388L705 372L706 356L707 355L708 282L710 169L711 90L712 105L713 115L715 169L716 233L717 236L718 302L719 294L721 291L722 284L723 227L724 232L726 225L727 243L728 243L729 266L730 280L732 290L733 265L734 297L735 343L737 356L738 344L739 282L740 236L741 196L743 171L744 159L745 172L746 157L748 164L749 139L750 118L751 154L752 176L754 166L755 158L756 129L757 135L759 182L760 208L761 198L762 196L763 211L765 202L766 183L767 164L768 157L770 154L771 166L772 190L773 212L774 244L776 207L777 187L778 184L779 158L781 161L782 161L783 122L784 94L785 92L787 92L788 92L789 98L790 114L792 123L793 166L794 212L795 204L796 191L798 183L799 180L800 196" fill="none" stroke-width="1.5"></path></g></g></g></g><g class="SourcesFooter" style="fill:#777"><g class="clickable" style="fill:#777"><text font-size="12.60" x="15.0" y="581.6"><tspan x="15" y="581.58">Source: Bolr and Zanden(2013); Broadberry (2013); The Conference Board (2015)</tspan></text></g><text font-size="12.60" x="546.0" y="581.6"><tspan x="545.956" y="581.58"><a target='_blank' style='fill: #777;' href='https://tinyco.re/2101033'>tinyco.re/2101033</a> • <a href="https://ourworldindata.org" target="_blank">Powered by ourworldindata.org</a></tspan></text></g></svg>