<svg xmlns="http://www.w3.org/2000/svg" version="1.1" style="font-family:Lato, &#x27;Helvetica Neue&#x27;, Helvetica, Arial, sans-serif;font-size:18px;background-color:white;text-rendering:optimizeLegibility;-webkit-font-smoothing:antialiased" width="850" height="600"><g class="HeaderView"><a href="https://mispytest.ourworldindata.org/grapher/the-role-of-agriculture-in-the-fluctuations-of-the-aggregate-economy-in-britain" target="_blank"><text font-size="21.60" x="15.0" y="32.3" fill="#555"><tspan x="15" y="32.279999999999994">The role of agriculture in the fluctuations of the aggregate economy in Britain</tspan><tspan x="15" y="53.87999999999999">(1550–1700)</tspan></text></a><text font-size="14.40" x="15.0" y="72.7" fill="#666"><tspan x="15" y="72.72">Unit 13 &#x27;Economic fluctuations and unemployment’ Section 13.5 &#x27;How households cope with fluctuations&#x27; in The CORE Team,</tspan><tspan x="15" y="88.56">The Economy. Available at: https://tinyco.re/1305099 [Figure 13.9a]</tspan></text></g><g class="LineChart"><defs><clipPath id="boundsClip-269"><rect x="47.908" y="0" width="830" height="894.8"></rect></clipPath></defs><g class="AxisBoxView"><g class="HorizontalAxis"><text x="57.9" y="556.5" fill="#666" text-anchor="middle" font-size="16.2">1550</text><text x="175.8" y="556.5" fill="#666" text-anchor="middle" font-size="16.2">1580</text><text x="254.3" y="556.5" fill="#666" text-anchor="middle" font-size="16.2">1600</text><text x="332.9" y="556.5" fill="#666" text-anchor="middle" font-size="16.2">1620</text><text x="411.5" y="556.5" fill="#666" text-anchor="middle" font-size="16.2">1640</text><text x="490" y="556.5" fill="#666" text-anchor="middle" font-size="16.2">1660</text><text x="568.6" y="556.5" fill="#666" text-anchor="middle" font-size="16.2">1680</text><text x="647.2" y="556.5" fill="#666" text-anchor="middle" font-size="16.2">1700</text></g><g class="VerticalAxis"><text x="52.91" y="516.6" fill="#666" dominant-baseline="middle" text-anchor="end" font-size="16.2">-40%</text><text x="52.91" y="431" fill="#666" dominant-baseline="middle" text-anchor="end" font-size="16.2">-20%</text><text x="52.91" y="345.3" fill="#666" dominant-baseline="middle" text-anchor="end" font-size="16.2">0%</text><text x="52.91" y="259.7" fill="#666" dominant-baseline="middle" text-anchor="end" font-size="16.2">20%</text><text x="52.91" y="174.1" fill="#666" dominant-baseline="middle" text-anchor="end" font-size="16.2">40%</text></g><g class="AxisGridLines"><line x1="57.91" y1="516.6" x2="647.18" y2="516.6" stroke="#ddd" stroke-dasharray="3,2"></line><line x1="57.91" y1="431" x2="647.18" y2="431" stroke="#ddd" stroke-dasharray="3,2"></line><line x1="57.91" y1="345.3" x2="647.18" y2="345.3" stroke="#ccc"></line><line x1="57.91" y1="259.7" x2="647.18" y2="259.7" stroke="#ddd" stroke-dasharray="3,2"></line><line x1="57.91" y1="174.1" x2="647.18" y2="174.1" stroke="#ddd" stroke-dasharray="3,2"></line></g></g><g clip-path="url(#boundsClip-269)"><g class="HeightedLegend"><g class="legendMark"><g class="indicator"><line x1="652.18" y1="284.1" x2="664.68" y2="284.1" stroke="#666" stroke-width="0.5"></line><line x1="664.68" y1="284.1" x2="664.68" y2="284.1" stroke="#666" stroke-width="0.5"></line><line x1="664.68" y1="284.1" x2="677.18" y2="284.1" stroke="#666" stroke-width="0.5"></line></g><rect x="647.18" y="277.35" width="187.82000000000002" height="13.5" fill="#fff" opacity="0"></rect><text font-size="13.50" x="682.2" y="288.2" fill="#f6a324"><tspan x="682.18" y="288.15000000000003">Growth rate of agriculture</tspan></text></g><g class="legendMark"><g class="indicator"><line x1="652.18" y1="318.5" x2="671.3466666666666" y2="318.5" stroke="#666" stroke-width="0.5"></line><line x1="671.3466666666666" y1="318.5" x2="671.3466666666666" y2="318.5" stroke="#666" stroke-width="0.5"></line><line x1="671.3466666666666" y1="318.5" x2="677.18" y2="318.5" stroke="#666" stroke-width="0.5"></line></g><rect x="647.18" y="311.75" width="143.27" height="13.5" fill="#fff" opacity="0"></rect><text font-size="13.50" x="682.2" y="322.6" fill="#34983f"><tspan x="682.18" y="322.55">Real GDP Growth</tspan></text></g><g class="legendMark"><g class="indicator"><line x1="652.18" y1="324.7" x2="664.68" y2="324.7" stroke="#666" stroke-width="0.5"></line><line x1="664.68" y1="324.7" x2="664.68" y2="334" stroke="#666" stroke-width="0.5"></line><line x1="664.68" y1="334" x2="677.18" y2="334" stroke="#666" stroke-width="0.5"></line></g><rect x="647.18" y="327.25" width="172.835" height="13.5" fill="#fff" opacity="0"></rect><text font-size="13.50" x="682.2" y="338.1" fill="#ca2628"><tspan x="682.18" y="338.05">Growth rate of Industry</tspan></text></g><g class="legendMark"><g class="indicator"><line x1="652.18" y1="336.6" x2="658.0133333333333" y2="336.6" stroke="#666" stroke-width="0.5"></line><line x1="658.0133333333333" y1="336.6" x2="658.0133333333333" y2="349.5" stroke="#666" stroke-width="0.5"></line><line x1="658.0133333333333" y1="349.5" x2="677.18" y2="349.5" stroke="#666" stroke-width="0.5"></line></g><rect x="647.18" y="342.75" width="176.48000000000002" height="13.5" fill="#fff" opacity="0"></rect><text font-size="13.50" x="682.2" y="353.6" fill="#3360a9"><tspan x="682.18" y="353.55">Growth rate of Services</tspan></text></g></g><g class="Lines"><rect x="58" y="109" width="589" height="426" fill="rgba(255,255,255,0)" opacity="0"></rect><g class="key-United-Kingdom_0"><path stroke="#ca2628" stroke-linecap="round" d="M58 335L62 362L66 339L70 325L74 357L78 358L82 402L85 338L89 298L93 342L97 284L101 355L105 344L109 339L113 356L117 343L121 308L125 351L129 364L133 313L137 346L140 355L144 329L148 314L152 347L156 331L160 337L164 353L168 339L172 365L176 347L180 379L184 398L188 346L192 350L195 353L199 287L203 367L207 309L211 364L215 329L219 280L223 334L227 347L231 373L235 357L239 351L243 351L247 301L250 316L254 339L258 327L262 334L266 335L270 328L274 360L278 313L282 395L286 344L290 340L294 345L298 353L302 400L305 315L309 343L313 323L317 347L321 332L325 345L329 383L333 316L337 304L341 371L345 319L349 346L353 339L357 360L360 363L364 314L368 395L372 345L376 340L380 322L384 348L388 372L392 334L396 364L400 342L404 281L408 369L412 351L415 351L419 321L423 336L427 369L431 371L435 342L439 327L443 341L447 329L451 341L455 335L459 299L463 314L467 336L470 329L474 379L478 360L482 329L486 439L490 311L494 307L498 348L502 214L506 374L510 350L514 306L518 320L522 370L525 355L529 345L533 372L537 339L541 331L545 364L549 324L553 296L557 348L561 348L565 373L569 313L573 365L577 323L580 325L584 420L588 309L592 361L596 337L600 274L604 348L608 323L612 351L616 316L620 385L624 310L628 341L632 363L635 353L639 325L643 346L647 325" fill="none" stroke-width="1.5"></path></g><g class="key-United-Kingdom_1"><path stroke="#3360a9" stroke-linecap="round" d="M58 341L62 346L66 354L70 348L74 347L78 348L82 350L85 352L89 349L93 346L97 344L101 344L105 342L109 339L113 339L117 335L121 335L125 342L129 340L133 346L137 361L140 351L144 340L148 336L152 343L156 336L160 341L164 343L168 338L172 343L176 342L180 344L184 343L188 338L192 342L195 346L199 339L203 342L207 341L211 343L215 336L219 341L223 339L227 343L231 346L235 339L239 343L243 347L247 341L250 336L254 342L258 340L262 336L266 341L270 339L274 344L278 338L282 346L286 343L290 336L294 342L298 346L302 348L305 341L309 344L313 342L317 351L321 339L325 341L329 348L333 335L337 340L341 345L345 340L349 340L353 342L357 351L360 340L364 321L368 354L372 347L376 347L380 329L384 343L388 336L392 337L396 350L400 339L404 343L408 344L412 343L415 355L419 333L423 334L427 348L431 348L435 343L439 337L443 343L447 332L451 337L455 332L459 327L463 333L467 355L470 335L474 351L478 350L482 351L486 363L490 345L494 342L498 351L502 333L506 348L510 340L514 330L518 350L522 346L525 340L529 346L533 347L537 340L541 336L545 343L549 340L553 334L557 348L561 339L565 348L569 336L573 354L577 348L580 340L584 365L588 335L592 347L596 338L600 336L604 337L608 334L612 335L616 326L620 351L624 322L628 340L632 340L635 342L639 335L643 341L647 337" fill="none" stroke-width="1.5"></path></g><g class="key-United-Kingdom_2"><path stroke="#f6a324" stroke-linecap="round" d="M58 361L62 347L66 387L70 171L74 414L78 337L82 473L85 241L89 109L93 416L97 388L101 316L105 346L109 261L113 370L117 342L121 260L125 391L129 327L133 366L137 409L140 331L144 386L148 224L152 448L156 234L160 317L164 475L168 186L172 340L176 389L180 347L184 402L188 207L192 367L195 447L199 413L203 190L207 255L211 442L215 293L219 389L223 271L227 286L231 496L235 323L239 392L243 394L247 160L250 214L254 394L258 365L262 303L266 293L270 297L274 428L278 321L282 386L286 397L290 168L294 288L298 411L302 344L305 399L309 384L313 270L317 394L321 250L325 347L329 393L333 200L337 368L341 442L345 374L349 201L353 344L357 380L360 325L364 239L368 535L372 360L376 328L380 217L384 403L388 299L392 319L396 379L400 366L404 298L408 305L412 316L415 456L419 257L423 286L427 324L431 449L435 343L439 355L443 338L447 388L451 408L455 292L459 218L463 244L467 371L470 302L474 396L478 396L482 393L486 438L490 253L494 354L498 311L502 280L506 379L510 302L514 238L518 362L522 438L525 303L529 384L533 362L537 374L541 337L545 389L549 342L553 145L557 433L561 289L565 402L569 226L573 447L577 312L580 265L584 453L588 259L592 421L596 213L600 345L604 381L608 290L612 323L616 291L620 484L624 127L628 409L632 388L635 349L639 341L643 405L647 284" fill="none" stroke-width="1.5"></path></g><g class="key-United-Kingdom_3"><path stroke="#34983f" stroke-linecap="round" d="M58 346L62 352L66 363L70 271L74 382L78 347L82 421L85 305L89 230L93 381L97 346L101 336L105 345L109 304L113 360L117 341L121 291L125 369L129 342L133 346L137 378L140 344L144 357L148 281L152 393L156 294L160 329L164 407L168 281L172 349L176 365L180 358L184 387L188 285L192 357L195 396L199 353L203 297L207 293L211 396L215 315L219 342L223 311L227 320L231 423L235 340L239 364L243 365L247 267L250 281L254 364L258 345L262 322L266 319L270 317L274 388L278 322L282 381L286 365L290 276L294 319L298 379L302 363L305 360L309 361L313 307L317 368L321 301L325 345L329 379L333 272L337 343L341 398L345 346L349 290L353 342L357 367L360 342L364 283L368 454L372 351L376 338L380 286L384 369L388 335L392 329L396 367L400 351L404 305L408 338L412 334L415 398L419 301L423 315L427 345L431 401L435 343L439 341L443 340L447 352L451 363L455 322L459 284L463 296L467 355L470 321L474 378L478 370L482 358L486 415L490 306L494 334L498 337L502 273L506 368L510 332L514 290L518 343L522 388L525 335L529 358L533 362L537 350L541 334L545 365L549 334L553 268L557 376L561 328L565 375L569 294L573 389L577 327L580 312L584 415L588 303L592 376L596 303L600 316L604 356L608 316L612 338L616 310L620 409L624 265L628 364L632 364L635 348L639 333L643 361L647 319" fill="none" stroke-width="1.5"></path></g></g></g></g><g class="SourcesFooter" style="fill:#777"><g class="clickable" style="fill:#777"><text font-size="12.60" x="15.0" y="581.6"><tspan x="15" y="581.58">Source: Broadberry, Campbell and Klein (2015)</tspan></text></g><text font-size="12.60" x="660.0" y="581.6"><tspan x="659.986" y="581.58"><a href="https://ourworldindata.org" target="_blank">Powered by ourworldindata.org</a></tspan></text></g></svg>