<svg xmlns="http://www.w3.org/2000/svg" version="1.1" style="font-family:Lato, &#x27;Helvetica Neue&#x27;, Helvetica, Arial, sans-serif;font-size:18px;background-color:white;text-rendering:optimizeLegibility;-webkit-font-smoothing:antialiased" width="850" height="600"><g class="HeaderView"><a href="https://mispytest.ourworldindata.org/grapher/the-rise-and-fall-of-the-share-of-employment-in-industry-18702018" target="_blank"><text font-size="25.20" x="15.0" y="35.2" fill="#555"><tspan x="15" y="35.160000000000004">The rise and fall of the share of employment in industry (1870–2018)</tspan></text></a><text font-size="14.40" x="15.0" y="53.7" fill="#666"><tspan x="15" y="53.72">Unit 16 &#x27;Technological progress, employment, and living standards in the long run’ Section 16.11 &#x27;Slower productivity growth</tspan><tspan x="15" y="69.56">in services, and the changing nature of work&#x27; in The CORE Team, The Economy. Available at: https://tinyco.re/1611188</tspan><tspan x="15" y="85.4">[Figure 16.18]</tspan></text></g><g class="LineChart"><defs><clipPath id="boundsClip-281"><rect x="42.562" y="0" width="830" height="901.8"></rect></clipPath></defs><g class="AxisBoxView"><g class="HorizontalAxis"><text x="52.6" y="556.5" fill="#666" text-anchor="middle" font-size="16.2">1870</text><text x="96.6" y="556.5" fill="#666" text-anchor="middle" font-size="16.2">1880</text><text x="184.5" y="556.5" fill="#666" text-anchor="middle" font-size="16.2">1900</text><text x="272.5" y="556.5" fill="#666" text-anchor="middle" font-size="16.2">1920</text><text x="360.5" y="556.5" fill="#666" text-anchor="middle" font-size="16.2">1940</text><text x="448.5" y="556.5" fill="#666" text-anchor="middle" font-size="16.2">1960</text><text x="536.4" y="556.5" fill="#666" text-anchor="middle" font-size="16.2">1980</text><text x="624.4" y="556.5" fill="#666" text-anchor="middle" font-size="16.2">2000</text><text x="703.6" y="556.5" fill="#666" text-anchor="middle" font-size="16.2">2018</text></g><g class="VerticalAxis"><text x="47.56" y="535.3" fill="#666" dominant-baseline="middle" text-anchor="end" font-size="16.2">0%</text><text x="47.56" y="449.4" fill="#666" dominant-baseline="middle" text-anchor="end" font-size="16.2">10%</text><text x="47.56" y="363.4" fill="#666" dominant-baseline="middle" text-anchor="end" font-size="16.2">20%</text><text x="47.56" y="277.5" fill="#666" dominant-baseline="middle" text-anchor="end" font-size="16.2">30%</text><text x="47.56" y="191.5" fill="#666" dominant-baseline="middle" text-anchor="end" font-size="16.2">40%</text><text x="47.56" y="105.6" fill="#666" dominant-baseline="middle" text-anchor="end" font-size="16.2">50%</text></g><g class="AxisGridLines"><line x1="52.56" y1="535.3" x2="703.61" y2="535.3" stroke="#ccc"></line><line x1="52.56" y1="449.4" x2="703.61" y2="449.4" stroke="#ddd" stroke-dasharray="3,2"></line><line x1="52.56" y1="363.4" x2="703.61" y2="363.4" stroke="#ddd" stroke-dasharray="3,2"></line><line x1="52.56" y1="277.5" x2="703.61" y2="277.5" stroke="#ddd" stroke-dasharray="3,2"></line><line x1="52.56" y1="191.5" x2="703.61" y2="191.5" stroke="#ddd" stroke-dasharray="3,2"></line><line x1="52.56" y1="105.6" x2="703.61" y2="105.6" stroke="#ddd" stroke-dasharray="3,2"></line></g></g><g clip-path="url(#boundsClip-281)"><g class="HeightedLegend clickable"><g class="legendMark"><g class="indicator"><line x1="708.61" y1="224.7" x2="721.11" y2="224.7" stroke="#666" stroke-width="0.5"></line><line x1="721.11" y1="224.7" x2="721.11" y2="224.7" stroke="#666" stroke-width="0.5"></line><line x1="721.11" y1="224.7" x2="733.61" y2="224.7" stroke="#666" stroke-width="0.5"></line></g><rect x="703.61" y="217.95" width="78.605" height="13.5" fill="#fff" opacity="0"></rect><text font-size="13.50" x="738.6" y="228.8" fill="#7ec7ce"><tspan x="738.61" y="228.75">Taiwan</tspan></text></g><g class="legendMark"><g class="indicator"><line x1="708.61" y1="303.1" x2="731.11" y2="303.1" stroke="#666" stroke-width="0.5"></line><line x1="731.11" y1="303.1" x2="731.11" y2="303.1" stroke="#666" stroke-width="0.5"></line><line x1="731.11" y1="303.1" x2="733.61" y2="303.1" stroke="#666" stroke-width="0.5"></line></g><rect x="703.61" y="296.35" width="90.62" height="13.5" fill="#fff" opacity="0"></rect><text font-size="13.50" x="738.6" y="307.2" fill="#f6a324"><tspan x="738.61" y="307.15000000000003">Germany</tspan></text></g><g class="legendMark"><g class="indicator"><line x1="708.61" y1="309.2" x2="726.11" y2="309.2" stroke="#666" stroke-width="0.5"></line><line x1="726.11" y1="309.2" x2="726.11" y2="318.6" stroke="#666" stroke-width="0.5"></line><line x1="726.11" y1="318.6" x2="733.61" y2="318.6" stroke="#666" stroke-width="0.5"></line></g><rect x="703.61" y="311.85" width="70.37" height="13.5" fill="#fff" opacity="0"></rect><text font-size="13.50" x="738.6" y="322.7" fill="#a652ba"><tspan x="738.61" y="322.65000000000003">China</tspan></text></g><g class="legendMark"><g class="indicator"><line x1="708.61" y1="318" x2="721.11" y2="318" stroke="#666" stroke-width="0.5"></line><line x1="721.11" y1="318" x2="721.11" y2="334.1" stroke="#666" stroke-width="0.5"></line><line x1="721.11" y1="334.1" x2="733.61" y2="334.1" stroke="#666" stroke-width="0.5"></line></g><rect x="703.61" y="327.35" width="71.99000000000001" height="13.5" fill="#fff" opacity="0"></rect><text font-size="13.50" x="738.6" y="338.2" fill="#34983f"><tspan x="738.61" y="338.15000000000003">Japan</tspan></text></g><g class="legendMark"><g class="indicator"><line x1="708.61" y1="324.1" x2="716.11" y2="324.1" stroke="#666" stroke-width="0.5"></line><line x1="716.11" y1="324.1" x2="716.11" y2="349.6" stroke="#666" stroke-width="0.5"></line><line x1="716.11" y1="349.6" x2="733.61" y2="349.6" stroke="#666" stroke-width="0.5"></line></g><rect x="703.61" y="342.85" width="71.18" height="13.5" fill="#fff" opacity="0"></rect><text font-size="13.50" x="738.6" y="353.7" fill="#000"><tspan x="738.61" y="353.65000000000003">Korea</tspan></text></g><g class="legendMark"><g class="indicator"><line x1="708.61" y1="373.6" x2="731.11" y2="373.6" stroke="#666" stroke-width="0.5"></line><line x1="731.11" y1="373.6" x2="731.11" y2="373.6" stroke="#666" stroke-width="0.5"></line><line x1="731.11" y1="373.6" x2="733.61" y2="373.6" stroke="#666" stroke-width="0.5"></line></g><rect x="703.61" y="366.85" width="116.405" height="13.5" fill="#fff" opacity="0"></rect><text font-size="13.50" x="738.6" y="377.7" fill="#e6332e"><tspan x="738.61" y="377.65000000000003">United States</tspan></text></g><g class="legendMark"><g class="indicator"><line x1="708.61" y1="378.6" x2="721.11" y2="378.6" stroke="#666" stroke-width="0.5"></line><line x1="721.11" y1="378.6" x2="721.11" y2="389.1" stroke="#666" stroke-width="0.5"></line><line x1="721.11" y1="389.1" x2="733.61" y2="389.1" stroke="#666" stroke-width="0.5"></line></g><rect x="703.61" y="382.35" width="131.39" height="13.5" fill="#fff" opacity="0"></rect><text font-size="13.50" x="738.6" y="393.2" fill="#3360a9"><tspan x="738.61" y="393.15000000000003">United Kingdom</tspan></text></g></g><g class="Lines"><rect x="53" y="106" width="651" height="430" fill="rgba(255,255,255,0)" opacity="0"></rect><g class="key-China_0"><path stroke="#a652ba" stroke-linecap="round" d="M585 300L589 296L594 284L598 287L602 286L607 285L611 288L616 295L620 296L624 294L629 294L633 294L638 283L642 283L646 281L651 278L655 278L660 277L664 277L668 276L673 278L677 282L682 288L686 294L690 302L695 305L699 307L704 309" fill="none" stroke-width="1.5"></path></g><g class="key-Germany_0"><path stroke="#f6a324" stroke-linecap="round" d="M53 286L57 284L61 281L66 279L70 276L75 274L79 272L83 269L88 267L92 265L97 262L101 260L105 257L110 255L114 253L119 250L123 248L127 245L132 243L136 241L141 238L145 236L149 233L154 231L158 229L163 226L167 224L171 221L176 219L180 217L185 214L189 212L193 209L198 207L202 205L207 202L211 200L215 197L220 195L224 193L229 190L233 188L237 185L242 183L246 183L251 182L255 182L259 181L264 181L268 180L273 180L277 179L281 179L286 178L290 178L295 177L299 177L303 176L308 176L312 176L317 175L321 175L325 174L330 174L334 173L339 173L343 172L347 172L352 171L356 171L361 170L365 170L369 170L374 169L378 169L383 168L387 168L391 167L396 167L400 166L405 166L409 163L413 161L418 158L422 156L427 154L431 151L435 149L440 146L444 144L449 141L453 139L457 136L462 134L466 132L471 129L475 127L479 124L484 122L488 119L493 117L497 125L501 131L506 133L510 141L515 153L519 156L523 159L528 162L532 163L536 167L541 173L545 180L550 186L554 189L558 191L563 192L567 196L572 200L576 201L580 201L585 184L589 200L594 210L598 218L602 226L607 232L611 237L616 240L620 245L624 247L629 254L633 257L638 266L642 267L646 279L651 281L655 278L660 283L664 288L668 292L673 293L677 293L682 297L686 294L690 297L695 300L699 301L704 303" fill="none" stroke-width="1.5"></path></g><g class="key-Japan_0"><path stroke="#34983f" stroke-linecap="round" d="M242 389L246 388L251 387L255 385L259 384L264 382L268 381L273 379L277 378L281 377L286 375L290 374L295 372L299 371L303 370L308 368L312 367L317 366L321 364L325 363L330 361L334 360L339 359L343 357L347 356L352 354L356 353L361 352L365 350L369 349L374 347L378 346L383 345L387 343L391 342L396 340L400 339L405 338L409 332L413 327L418 321L422 316L427 310L431 305L435 300L440 294L444 289L449 283L453 278L457 272L462 267L466 261L471 256L475 250L479 245L484 239L488 234L493 229L497 227L501 224L506 217L510 219L515 229L519 229L523 234L528 236L532 237L536 234L541 234L545 239L550 240L554 239L558 238L563 241L567 247L572 244L576 242L580 244L585 238L589 237L594 240L598 242L602 246L607 248L611 249L616 258L620 262L624 265L629 272L633 278L638 281L642 289L646 296L651 295L655 293L660 301L664 310L668 315L673 316L677 310L682 310L686 319L690 313L695 315L699 316L704 318" fill="none" stroke-width="1.5"></path></g><g class="key-Korea_0"><path stroke="#000" stroke-linecap="round" d="M493 388L497 383L501 382L506 367L510 349L515 333L519 311L523 302L528 284L532 280L536 289L541 299L545 298L550 287L554 273L558 273L563 264L567 245L572 238L576 236L580 235L585 226L589 228L594 243L598 246L602 248L607 255L611 265L616 295L620 299L624 293L629 299L633 301L638 298L642 299L646 305L651 309L655 313L660 316L664 325L668 321L673 322L677 325L682 326L686 324L690 320L695 321L699 322L704 324" fill="none" stroke-width="1.5"></path></g><g class="key-Taiwan_0"><path stroke="#7ec7ce" stroke-linecap="round" d="M664 228L668 227L673 223L677 224L682 225L686 225" fill="none" stroke-width="1.5"></path></g><g class="key-United-Kingdom_0"><path stroke="#3360a9" stroke-linecap="round" d="M53 174L57 174L61 174L66 173L70 173L75 172L79 172L83 172L88 171L92 171L97 170L101 170L105 170L110 169L114 169L119 168L123 168L127 168L132 167L136 167L141 166L145 166L149 166L154 165L158 165L163 164L167 164L171 164L176 163L180 163L185 162L189 162L193 162L198 161L202 161L207 160L211 160L215 160L220 159L224 159L229 158L233 158L237 158L242 157L246 157L251 157L255 157L259 156L264 156L268 156L273 156L277 155L281 155L286 155L290 155L295 154L299 154L303 154L308 154L312 154L317 153L321 153L325 153L330 153L334 152L339 152L343 152L347 152L352 151L356 151L361 151L365 151L369 151L374 150L378 150L383 150L387 150L391 149L396 149L400 149L405 149L409 150L413 151L418 153L422 154L427 155L431 156L435 158L440 159L444 160L449 162L453 163L457 164L462 166L466 167L471 168L475 170L479 171L484 172L488 174L493 175L497 176L501 182L506 185L510 187L515 201L519 209L523 210L528 212L532 216L536 225L541 241L545 252L550 261L554 250L558 253L563 259L567 267L572 266L576 268L580 272L585 266L589 278L594 283L598 297L602 300L607 300L611 305L616 306L620 314L624 319L629 324L633 330L638 335L642 344L646 344L651 346L655 345L660 346L664 367L668 370L673 371L677 371L682 373L686 372L690 375L695 377L699 378L704 379" fill="none" stroke-width="1.5"></path></g><g class="key-United-States_0"><path stroke="#e6332e" stroke-linecap="round" d="M53 329L57 328L61 327L66 325L70 324L75 323L79 322L83 321L88 319L92 318L97 317L101 316L105 315L110 314L114 312L119 311L123 310L127 309L132 308L136 306L141 305L145 304L149 303L154 302L158 300L163 299L167 298L171 297L176 295L180 294L185 293L189 292L193 291L198 290L202 288L207 287L211 286L215 285L220 284L224 282L229 281L233 280L237 279L242 278L246 277L251 276L255 275L259 274L264 273L268 272L273 271L277 270L281 269L286 268L290 267L295 266L299 265L303 265L308 264L312 263L317 262L321 261L325 260L330 259L334 258L339 257L343 256L347 255L352 254L356 253L361 252L365 251L369 251L374 250L378 249L383 248L387 247L391 246L396 245L400 244L405 243L409 243L413 244L418 244L422 245L427 245L431 245L435 246L440 246L444 247L449 247L453 247L457 248L462 248L466 249L471 249L475 249L479 250L484 250L488 250L493 251L497 263L501 265L506 260L510 265L515 282L519 281L523 280L528 278L532 276L536 284L541 287L545 302L550 314L554 311L558 314L563 316L567 320L572 322L576 323L580 327L585 323L589 328L594 332L598 333L602 332L607 333L611 333L616 334L620 338L624 335L629 341L633 349L638 352L642 353L646 354L651 354L655 355L660 361L664 373L668 377L673 376L677 376L682 374L686 372L690 373L695 374L699 373L704 374" fill="none" stroke-width="1.5"></path></g></g></g></g><g class="SourcesFooter" style="fill:#777"><g class="clickable" style="fill:#777"><text font-size="12.60" x="15.0" y="581.6"><tspan x="15" y="581.58">Source: BLS (2004); ILO (2018)</tspan></text></g><text font-size="12.60" x="546.0" y="581.6"><tspan x="545.956" y="581.58"><a target='_blank' style='fill: #777;' href='https://tinyco.re/1611188'>tinyco.re/1611188</a> • <a href="https://ourworldindata.org" target="_blank">Powered by ourworldindata.org</a></tspan></text></g></svg>