<svg xmlns="http://www.w3.org/2000/svg" version="1.1" style="font-family: 'Helvetica Neue', Helvetica, Arial, sans-serif; font-size: 18px; background-color: white; text-rendering: optimizeLegibility; -webkit-font-smoothing: antialiased;" width="850" height="600"><g class="ChartTab"><g class="HeaderView"><g opacity="0.8" transform="translate(778, 15) scale(0.27)"><a xmlns:xlink="http://www.w3.org/1999/xlink" xlink:href="https://ourworldindata.org" target="_blank"><g><rect x="0" y="0" fill="#1B2543" width="211.2" height="130.1"/><rect x="0" y="112.2" fill="#E63912" width="211.2" height="17.9"/><g><rect x="1.2" y="12.3" fill="none" width="210.2" height="99.2"/><path fill="#FFFFFF" d="M37.8,32.2c0,12.7-7.7,19.4-17.1,19.4c-9.7,0-16.6-7.5-16.6-18.7c0-11.7,7.3-19.3,17.1-19.3 C31.3,13.7,37.8,21.3,37.8,32.2z M9.2,32.8c0,7.9,4.3,14.9,11.8,14.9c7.5,0,11.8-6.9,11.8-15.3c0-7.3-3.8-14.9-11.8-14.9 C13.1,17.5,9.2,24.8,9.2,32.8z"/><path fill="#FFFFFF" d="M62.7,43.8c0,2.7,0.1,5.1,0.2,7.2h-4.3l-0.3-4.3h-0.1c-1.3,2.1-4,4.9-8.8,4.9c-4.2,0-9.1-2.3-9.1-11.6 V24.6h4.8v14.6c0,5,1.5,8.4,5.9,8.4c3.2,0,5.5-2.2,6.3-4.4c0.3-0.7,0.4-1.6,0.4-2.5V24.6h4.8V43.8z"/><path fill="#FFFFFF" d="M67.3,32.8c0-3.1-0.1-5.8-0.2-8.2h4.2l0.2,5.2h0.2c1.2-3.5,4.1-5.8,7.3-5.8c0.5,0,0.9,0.1,1.4,0.2v4.5 c-0.5-0.1-1-0.2-1.6-0.2c-3.4,0-5.8,2.6-6.5,6.2c-0.1,0.7-0.2,1.4-0.2,2.2V51h-4.8V32.8z"/><path fill="#FFFFFF" d="M95.4,51l-9.4-36.8h5l4.4,18.6c1.1,4.6,2.1,9.2,2.7,12.7h0.1c0.6-3.7,1.8-8,3-12.8l4.9-18.5h5l4.5,18.7 c1,4.4,2,8.7,2.6,12.6h0.1c0.8-4,1.8-8.1,3-12.7l4.9-18.5h4.9L120.6,51h-5L111,31.9c-1.1-4.7-1.9-8.3-2.4-12h-0.1 c-0.7,3.7-1.5,7.3-2.8,12L100.4,51H95.4z"/><path fill="#FFFFFF" d="M154.9,37.6c0,9.8-6.8,14-13.2,14c-7.2,0-12.7-5.2-12.7-13.6c0-8.8,5.8-14,13.1-14 C149.8,24,154.9,29.5,154.9,37.6z M133.9,37.9c0,5.8,3.3,10.1,8,10.1c4.6,0,8-4.3,8-10.3c0-4.5-2.2-10.1-7.9-10.1 C136.3,27.6,133.9,32.8,133.9,37.9z"/><path fill="#FFFFFF" d="M158.2,32.8c0-3.1-0.1-5.8-0.2-8.2h4.2l0.2,5.2h0.2c1.2-3.5,4.1-5.8,7.3-5.8c0.5,0,0.9,0.1,1.4,0.2v4.5 c-0.5-0.1-1-0.2-1.6-0.2c-3.4,0-5.8,2.6-6.5,6.2c-0.1,0.7-0.2,1.4-0.2,2.2V51h-4.8V32.8z"/><path fill="#FFFFFF" d="M173.5,12.3h4.8V51h-4.8V12.3z"/><path fill="#FFFFFF" d="M206.5,12.3v31.9c0,2.3,0.1,5,0.2,6.8h-4.3l-0.2-4.6H202c-1.5,2.9-4.7,5.2-9,5.2 c-6.4,0-11.3-5.4-11.3-13.4c-0.1-8.8,5.4-14.2,11.9-14.2c4,0,6.8,1.9,8,4h0.1V12.3H206.5z M201.7,35.4c0-0.6-0.1-1.4-0.2-2 c-0.7-3.1-3.3-5.6-6.9-5.6c-5,0-7.9,4.4-7.9,10.2c0,5.3,2.6,9.8,7.8,9.8c3.2,0,6.2-2.1,7.1-5.7c0.2-0.7,0.2-1.3,0.2-2.1V35.4z"/><path fill="#FFFFFF" d="M42.8,64c0.1,1.6-1.1,2.9-3.1,2.9c-1.7,0-2.9-1.3-2.9-2.9c0-1.7,1.3-3,3-3C41.7,61,42.8,62.3,42.8,64z M37.4,97.8V71.4h4.8v26.4H37.4z"/><path fill="#FFFFFF" d="M47.5,78.6c0-2.7-0.1-5-0.2-7.1h4.3l0.3,4.4h0.1c1.3-2.5,4.4-5,8.8-5c3.7,0,9.4,2.2,9.4,11.2v15.8h-4.8 V82.6c0-4.3-1.6-7.8-6.1-7.8c-3.2,0-5.6,2.2-6.5,4.9c-0.2,0.6-0.3,1.4-0.3,2.2v15.9h-4.8V78.6z"/><path fill="#FFFFFF" d="M84,61.6c2.9-0.4,6.3-0.8,10.1-0.8c6.8,0,11.7,1.6,14.9,4.6c3.3,3,5.2,7.3,5.2,13.2c0,6-1.9,10.9-5.3,14.3 c-3.4,3.4-9.1,5.3-16.3,5.3c-3.4,0-6.2-0.2-8.6-0.4V61.6z M88.8,94.1c1.2,0.2,3,0.3,4.8,0.3c10.2,0,15.7-5.7,15.7-15.6 c0.1-8.7-4.9-14.2-14.9-14.2c-2.5,0-4.3,0.2-5.6,0.5V94.1z"/><path fill="#FFFFFF" d="M132.1,97.8l-0.4-3.3h-0.2c-1.5,2.1-4.3,3.9-8.1,3.9c-5.4,0-8.1-3.8-8.1-7.6c0-6.4,5.7-9.9,15.9-9.8v-0.5 c0-2.2-0.6-6.1-6-6.1c-2.5,0-5,0.8-6.9,2l-1.1-3.2c2.2-1.4,5.4-2.3,8.7-2.3c8.1,0,10.1,5.5,10.1,10.8v9.9c0,2.3,0.1,4.5,0.4,6.3 H132.1z M131.4,84.4c-5.3-0.1-11.2,0.8-11.2,5.9c0,3.1,2.1,4.6,4.5,4.6c3.4,0,5.6-2.2,6.4-4.4c0.2-0.5,0.3-1,0.3-1.5V84.4z"/><path fill="#FFFFFF" d="M146.6,63.9v7.6h6.9v3.7h-6.9v14.2c0,3.3,0.9,5.1,3.6,5.1c1.3,0,2.2-0.2,2.8-0.3l0.2,3.6 c-0.9,0.4-2.4,0.7-4.3,0.7c-2.2,0-4-0.7-5.2-2c-1.4-1.4-1.9-3.8-1.9-6.9V75.1h-4.1v-3.7h4.1v-6.3L146.6,63.9z"/><path fill="#FFFFFF" d="M171.4,97.8l-0.4-3.3h-0.2c-1.5,2.1-4.3,3.9-8.1,3.9c-5.4,0-8.1-3.8-8.1-7.6c0-6.4,5.7-9.9,15.9-9.8v-0.5 c0-2.2-0.6-6.1-6-6.1c-2.5,0-5,0.8-6.9,2l-1.1-3.2c2.2-1.4,5.4-2.3,8.7-2.3c8.1,0,10.1,5.5,10.1,10.8v9.9c0,2.3,0.1,4.5,0.4,6.3 H171.4z M170.7,84.4c-5.3-0.1-11.2,0.8-11.2,5.9c0,3.1,2.1,4.6,4.5,4.6c3.4,0,5.6-2.2,6.4-4.4c0.2-0.5,0.3-1,0.3-1.5V84.4z"/></g></g></a></g><a href="https://ourworldindata.org/grapher/total-population-by-broad-age-group-1950-2100" target="_blank"><text font-size="25.20" x="15.0" y="35.2" fill="#555"><tspan x="15" y="35.160000000000004">Total population by broad age group, 1950-2100</tspan></text></a></g><g class="StackedArea"><defs><clipPath id="boundsClip-387"><rect x="93.062" y="0" width="820" height="973"></rect></clipPath></defs><g class="AxisBoxView"><g class="HorizontalAxis"><text x="93.1" y="556.5" fill="#666" text-anchor="middle" font-size="16.2">1950</text><text x="216.7" y="556.5" fill="#666" text-anchor="middle" font-size="16.2">1980</text><text x="299.1" y="556.5" fill="#666" text-anchor="middle" font-size="16.2">2000</text><text x="381.5" y="556.5" fill="#666" text-anchor="middle" font-size="16.2">2020</text><text x="463.9" y="556.5" fill="#666" text-anchor="middle" font-size="16.2">2040</text><text x="546.3" y="556.5" fill="#666" text-anchor="middle" font-size="16.2">2060</text><text x="628.8" y="556.5" fill="#666" text-anchor="middle" font-size="16.2">2080</text><text x="711.2" y="556.5" fill="#666" text-anchor="middle" font-size="16.2">2100</text></g><g class="VerticalAxis"><text x="88.06" y="535.3" fill="#666" dominant-baseline="middle" text-anchor="end" font-size="16.2">0</text><text x="88.06" y="468.3" fill="#666" dominant-baseline="middle" text-anchor="end" font-size="16.2">200,000</text><text x="88.06" y="401.3" fill="#666" dominant-baseline="middle" text-anchor="end" font-size="16.2">400,000</text><text x="88.06" y="334.3" fill="#666" dominant-baseline="middle" text-anchor="end" font-size="16.2">600,000</text><text x="88.06" y="267.3" fill="#666" dominant-baseline="middle" text-anchor="end" font-size="16.2">800,000</text><text x="88.06" y="200.3" fill="#666" dominant-baseline="middle" text-anchor="end" font-size="16.2">1 million</text><text x="88.06" y="133.3" fill="#666" dominant-baseline="middle" text-anchor="end" font-size="16.2">1.2 million</text></g><g class="AxisGridLines"><line x1="93.06" y1="535.3" x2="711.17" y2="535.3" stroke="#ccc"></line><line x1="93.06" y1="468.3" x2="711.17" y2="468.3" stroke="#ddd" stroke-dasharray="3,2"></line><line x1="93.06" y1="401.3" x2="711.17" y2="401.3" stroke="#ddd" stroke-dasharray="3,2"></line><line x1="93.06" y1="334.3" x2="711.17" y2="334.3" stroke="#ddd" stroke-dasharray="3,2"></line><line x1="93.06" y1="267.3" x2="711.17" y2="267.3" stroke="#ddd" stroke-dasharray="3,2"></line><line x1="93.06" y1="200.3" x2="711.17" y2="200.3" stroke="#ddd" stroke-dasharray="3,2"></line><line x1="93.06" y1="133.3" x2="711.17" y2="133.3" stroke="#ddd" stroke-dasharray="3,2"></line></g></g><g clip-path="url(#boundsClip-387)"><g class="HeightedLegend clickable"><g class="legendMark"><rect x="711.17" y="305.75" width="123.83000000000001" height="13.5" fill="#fff" opacity="0"></rect><text font-size="13.50" x="716.2" y="316.6" fill="#3360a9"><tspan x="716.17" y="316.55">World - 5 to 14</tspan></text></g></g><g class="Areas"><rect x="93.062" y="70" width="618.108" height="465.29999999999995" opacity="0" fill="rgba(255,255,255,0)"></rect><path stroke-linecap="round" d="M93.1 357.8L97.2 355.9L101.3 353.6L105.4 350.5L109.5 346.4L113.7 341.6L117.8 335.7L121.9 328.4L126 320.2L130.1 311.9L134.3 304.3L138.4 296.3L142.5 289.3L146.6 283.4L150.8 278.2L154.9 273.4L159 268.5L163.1 263.3L167.2 257.8L171.4 252.1L175.5 246.5L179.6 240.4L183.7 233.8L187.8 227.1L192 220.6L196.1 214.9L200.2 209L204.3 203.7L208.4 199L212.6 195L216.7 191.9L220.8 188.7L224.9 186.4L229 184.8L233.2 183.6L237.3 182.4L241.4 180.5L245.5 177.9L249.6 174.5L253.8 170.4L257.9 165.8L262 160.2L266.1 153.5L270.3 146.1L274.4 138.8L278.5 132.6L282.6 126.7L286.7 122.4L290.9 119.9L295 119L299.1 119.5L303.2 120.4L307.3 122.4L311.5 125.1L315.6 127.8L319.7 130.3L323.8 132.3L327.9 133.2L332.1 133.3L336.2 132.6L340.3 131.6L344.4 129.9L348.5 127.6L352.7 124.7L356.8 121.5L360.9 118.3L365 114.6L369.2 110.9L373.3 107.1L377.4 103.5L381.5 100.2L385.6 96.8L389.8 94L393.9 91.6L398 89.8L402.1 88.5L406.2 87.4L410.4 86.7L414.5 86.5L418.6 86.7L422.7 87.2L426.8 87.4L431 87.7L435.1 88L439.2 88.3L443.3 88.7L447.4 88.5L451.6 88.2L455.7 87.7L459.8 87.1L463.9 86.6L468 85.5L472.2 84.4L476.3 83.2L480.4 82L484.5 81L488.7 79.5L492.8 78.2L496.9 76.9L501 75.8L505.1 74.8L509.3 73.6L513.4 72.6L517.5 71.9L521.6 71.3L525.7 71L529.9 70.4L534 70.1L538.1 70L542.2 70.1L546.3 70.4L550.5 70.5L554.6 70.7L558.7 71.1L562.8 71.6L566.9 72.2L571.1 72.5L575.2 72.8L579.3 73.2L583.4 73.6L587.5 74.1L591.7 74.2L595.8 74.2L599.9 74.3L604 74.5L608.2 74.8L612.3 74.6L616.4 74.6L620.5 74.6L624.6 74.8L628.8 75.1L632.9 75L637 75.1L641.1 75.4L645.2 75.9L649.4 76.4L653.5 76.7L657.6 77.2L661.7 77.9L665.8 78.7L670 79.7L674.1 80.3L678.2 81.1L682.3 82.1L686.4 83.1L690.6 84.4L694.7 85.2L698.8 86.1L702.9 87.2L707 88.4L711.2 89.6L711.17 535.3L93.062 535.3" fill="#3360a9" fill-opacity="0.7" class="World_1-area"></path><path stroke-linecap="round" d="M93.1 357.8L97.2 355.9L101.3 353.6L105.4 350.5L109.5 346.4L113.7 341.6L117.8 335.7L121.9 328.4L126 320.2L130.1 311.9L134.3 304.3L138.4 296.3L142.5 289.3L146.6 283.4L150.8 278.2L154.9 273.4L159 268.5L163.1 263.3L167.2 257.8L171.4 252.1L175.5 246.5L179.6 240.4L183.7 233.8L187.8 227.1L192 220.6L196.1 214.9L200.2 209L204.3 203.7L208.4 199L212.6 195L216.7 191.9L220.8 188.7L224.9 186.4L229 184.8L233.2 183.6L237.3 182.4L241.4 180.5L245.5 177.9L249.6 174.5L253.8 170.4L257.9 165.8L262 160.2L266.1 153.5L270.3 146.1L274.4 138.8L278.5 132.6L282.6 126.7L286.7 122.4L290.9 119.9L295 119L299.1 119.5L303.2 120.4L307.3 122.4L311.5 125.1L315.6 127.8L319.7 130.3L323.8 132.3L327.9 133.2L332.1 133.3L336.2 132.6L340.3 131.6L344.4 129.9L348.5 127.6L352.7 124.7L356.8 121.5L360.9 118.3L365 114.6L369.2 110.9L373.3 107.1L377.4 103.5L381.5 100.2L385.6 96.8L389.8 94L393.9 91.6L398 89.8L402.1 88.5L406.2 87.4L410.4 86.7L414.5 86.5L418.6 86.7L422.7 87.2L426.8 87.4L431 87.7L435.1 88L439.2 88.3L443.3 88.7L447.4 88.5L451.6 88.2L455.7 87.7L459.8 87.1L463.9 86.6L468 85.5L472.2 84.4L476.3 83.2L480.4 82L484.5 81L488.7 79.5L492.8 78.2L496.9 76.9L501 75.8L505.1 74.8L509.3 73.6L513.4 72.6L517.5 71.9L521.6 71.3L525.7 71L529.9 70.4L534 70.1L538.1 70L542.2 70.1L546.3 70.4L550.5 70.5L554.6 70.7L558.7 71.1L562.8 71.6L566.9 72.2L571.1 72.5L575.2 72.8L579.3 73.2L583.4 73.6L587.5 74.1L591.7 74.2L595.8 74.2L599.9 74.3L604 74.5L608.2 74.8L612.3 74.6L616.4 74.6L620.5 74.6L624.6 74.8L628.8 75.1L632.9 75L637 75.1L641.1 75.4L645.2 75.9L649.4 76.4L653.5 76.7L657.6 77.2L661.7 77.9L665.8 78.7L670 79.7L674.1 80.3L678.2 81.1L682.3 82.1L686.4 83.1L690.6 84.4L694.7 85.2L698.8 86.1L702.9 87.2L707 88.4L711.2 89.6" stroke="rgb(43, 80, 141)" stroke-opacity="0.7" stroke-width="0.5" fill="none" class="World_1-border"></path></g></g></g><g style="fill: #777;" class="SourcesFooter"><g style="fill: #777;" class="clickable"><text font-size="12.60" x="15.0" y="581.6"><tspan x="15" y="581.58">Source: UN Population Division (2015)</tspan></text></g><text font-size="12.60" x="775.4" y="581.6"><tspan x="775.402" y="581.58"><a style="fill: #777;" class="cclogo" href="http://creativecommons.org/licenses/by-sa/4.0/deed.en_US" target="_blank">CC BY-SA</a></tspan></text></g></g></svg>