<svg xmlns="http://www.w3.org/2000/svg" version="1.1" style="font-family: 'Helvetica Neue', Helvetica, Arial, sans-serif; font-size: 18px; background-color: white; text-rendering: optimizeLegibility; -webkit-font-smoothing: antialiased;" width="850" height="600"><g class="ChartTab"><g class="HeaderView"><g opacity="0.8" transform="translate(778, 15) scale(0.27)"><a xmlns:xlink="http://www.w3.org/1999/xlink" xlink:href="https://ourworldindata.org" target="_blank"><g><rect x="0" y="0" fill="#1B2543" width="211.2" height="130.1"/><rect x="0" y="112.2" fill="#E63912" width="211.2" height="17.9"/><g><rect x="1.2" y="12.3" fill="none" width="210.2" height="99.2"/><path fill="#FFFFFF" d="M37.8,32.2c0,12.7-7.7,19.4-17.1,19.4c-9.7,0-16.6-7.5-16.6-18.7c0-11.7,7.3-19.3,17.1-19.3 C31.3,13.7,37.8,21.3,37.8,32.2z M9.2,32.8c0,7.9,4.3,14.9,11.8,14.9c7.5,0,11.8-6.9,11.8-15.3c0-7.3-3.8-14.9-11.8-14.9 C13.1,17.5,9.2,24.8,9.2,32.8z"/><path fill="#FFFFFF" d="M62.7,43.8c0,2.7,0.1,5.1,0.2,7.2h-4.3l-0.3-4.3h-0.1c-1.3,2.1-4,4.9-8.8,4.9c-4.2,0-9.1-2.3-9.1-11.6 V24.6h4.8v14.6c0,5,1.5,8.4,5.9,8.4c3.2,0,5.5-2.2,6.3-4.4c0.3-0.7,0.4-1.6,0.4-2.5V24.6h4.8V43.8z"/><path fill="#FFFFFF" d="M67.3,32.8c0-3.1-0.1-5.8-0.2-8.2h4.2l0.2,5.2h0.2c1.2-3.5,4.1-5.8,7.3-5.8c0.5,0,0.9,0.1,1.4,0.2v4.5 c-0.5-0.1-1-0.2-1.6-0.2c-3.4,0-5.8,2.6-6.5,6.2c-0.1,0.7-0.2,1.4-0.2,2.2V51h-4.8V32.8z"/><path fill="#FFFFFF" d="M95.4,51l-9.4-36.8h5l4.4,18.6c1.1,4.6,2.1,9.2,2.7,12.7h0.1c0.6-3.7,1.8-8,3-12.8l4.9-18.5h5l4.5,18.7 c1,4.4,2,8.7,2.6,12.6h0.1c0.8-4,1.8-8.1,3-12.7l4.9-18.5h4.9L120.6,51h-5L111,31.9c-1.1-4.7-1.9-8.3-2.4-12h-0.1 c-0.7,3.7-1.5,7.3-2.8,12L100.4,51H95.4z"/><path fill="#FFFFFF" d="M154.9,37.6c0,9.8-6.8,14-13.2,14c-7.2,0-12.7-5.2-12.7-13.6c0-8.8,5.8-14,13.1-14 C149.8,24,154.9,29.5,154.9,37.6z M133.9,37.9c0,5.8,3.3,10.1,8,10.1c4.6,0,8-4.3,8-10.3c0-4.5-2.2-10.1-7.9-10.1 C136.3,27.6,133.9,32.8,133.9,37.9z"/><path fill="#FFFFFF" d="M158.2,32.8c0-3.1-0.1-5.8-0.2-8.2h4.2l0.2,5.2h0.2c1.2-3.5,4.1-5.8,7.3-5.8c0.5,0,0.9,0.1,1.4,0.2v4.5 c-0.5-0.1-1-0.2-1.6-0.2c-3.4,0-5.8,2.6-6.5,6.2c-0.1,0.7-0.2,1.4-0.2,2.2V51h-4.8V32.8z"/><path fill="#FFFFFF" d="M173.5,12.3h4.8V51h-4.8V12.3z"/><path fill="#FFFFFF" d="M206.5,12.3v31.9c0,2.3,0.1,5,0.2,6.8h-4.3l-0.2-4.6H202c-1.5,2.9-4.7,5.2-9,5.2 c-6.4,0-11.3-5.4-11.3-13.4c-0.1-8.8,5.4-14.2,11.9-14.2c4,0,6.8,1.9,8,4h0.1V12.3H206.5z M201.7,35.4c0-0.6-0.1-1.4-0.2-2 c-0.7-3.1-3.3-5.6-6.9-5.6c-5,0-7.9,4.4-7.9,10.2c0,5.3,2.6,9.8,7.8,9.8c3.2,0,6.2-2.1,7.1-5.7c0.2-0.7,0.2-1.3,0.2-2.1V35.4z"/><path fill="#FFFFFF" d="M42.8,64c0.1,1.6-1.1,2.9-3.1,2.9c-1.7,0-2.9-1.3-2.9-2.9c0-1.7,1.3-3,3-3C41.7,61,42.8,62.3,42.8,64z M37.4,97.8V71.4h4.8v26.4H37.4z"/><path fill="#FFFFFF" d="M47.5,78.6c0-2.7-0.1-5-0.2-7.1h4.3l0.3,4.4h0.1c1.3-2.5,4.4-5,8.8-5c3.7,0,9.4,2.2,9.4,11.2v15.8h-4.8 V82.6c0-4.3-1.6-7.8-6.1-7.8c-3.2,0-5.6,2.2-6.5,4.9c-0.2,0.6-0.3,1.4-0.3,2.2v15.9h-4.8V78.6z"/><path fill="#FFFFFF" d="M84,61.6c2.9-0.4,6.3-0.8,10.1-0.8c6.8,0,11.7,1.6,14.9,4.6c3.3,3,5.2,7.3,5.2,13.2c0,6-1.9,10.9-5.3,14.3 c-3.4,3.4-9.1,5.3-16.3,5.3c-3.4,0-6.2-0.2-8.6-0.4V61.6z M88.8,94.1c1.2,0.2,3,0.3,4.8,0.3c10.2,0,15.7-5.7,15.7-15.6 c0.1-8.7-4.9-14.2-14.9-14.2c-2.5,0-4.3,0.2-5.6,0.5V94.1z"/><path fill="#FFFFFF" d="M132.1,97.8l-0.4-3.3h-0.2c-1.5,2.1-4.3,3.9-8.1,3.9c-5.4,0-8.1-3.8-8.1-7.6c0-6.4,5.7-9.9,15.9-9.8v-0.5 c0-2.2-0.6-6.1-6-6.1c-2.5,0-5,0.8-6.9,2l-1.1-3.2c2.2-1.4,5.4-2.3,8.7-2.3c8.1,0,10.1,5.5,10.1,10.8v9.9c0,2.3,0.1,4.5,0.4,6.3 H132.1z M131.4,84.4c-5.3-0.1-11.2,0.8-11.2,5.9c0,3.1,2.1,4.6,4.5,4.6c3.4,0,5.6-2.2,6.4-4.4c0.2-0.5,0.3-1,0.3-1.5V84.4z"/><path fill="#FFFFFF" d="M146.6,63.9v7.6h6.9v3.7h-6.9v14.2c0,3.3,0.9,5.1,3.6,5.1c1.3,0,2.2-0.2,2.8-0.3l0.2,3.6 c-0.9,0.4-2.4,0.7-4.3,0.7c-2.2,0-4-0.7-5.2-2c-1.4-1.4-1.9-3.8-1.9-6.9V75.1h-4.1v-3.7h4.1v-6.3L146.6,63.9z"/><path fill="#FFFFFF" d="M171.4,97.8l-0.4-3.3h-0.2c-1.5,2.1-4.3,3.9-8.1,3.9c-5.4,0-8.1-3.8-8.1-7.6c0-6.4,5.7-9.9,15.9-9.8v-0.5 c0-2.2-0.6-6.1-6-6.1c-2.5,0-5,0.8-6.9,2l-1.1-3.2c2.2-1.4,5.4-2.3,8.7-2.3c8.1,0,10.1,5.5,10.1,10.8v9.9c0,2.3,0.1,4.5,0.4,6.3 H171.4z M170.7,84.4c-5.3-0.1-11.2,0.8-11.2,5.9c0,3.1,2.1,4.6,4.5,4.6c3.4,0,5.6-2.2,6.4-4.4c0.2-0.5,0.3-1,0.3-1.5V84.4z"/></g></g></a></g><a href="https://ourworldindata.org/grapher/total-government-expenditure-on-education-gdpslope" target="_blank"><text font-size="25.20" x="15.0" y="35.2" fill="#555"><tspan x="15" y="35.160000000000004">Total government expenditure on education (% GDP)</tspan></text></a><text font-size="14.40" x="15.0" y="53.7" fill="#666"><tspan x="15" y="53.72">General government expenditure on education, expressed as a percentage of GDP. It includes expenditure funded by</tspan><tspan x="15" y="69.56">transfers from international sources to government. General government usually refers to local, regional and central</tspan><tspan x="15" y="85.4">governments.</tspan></text></g><g><g class="LabelledSlopes"><rect x="15" y="107.60000000000001" width="700" height="463.9" fill="rgba(0,0,0,0)" opacity="0"></rect><g class="gridlines"><line x1="219.545" y1="521.5" x2="510.45500000000004" y2="521.5" stroke="#eee" stroke-dasharray="3,2"></line><line x1="219.545" y1="424.78931165719763" x2="510.45500000000004" y2="424.78931165719763" stroke="#eee" stroke-dasharray="3,2"></line><line x1="219.545" y1="328.07862331439526" x2="510.45500000000004" y2="328.07862331439526" stroke="#eee" stroke-dasharray="3,2"></line><line x1="219.545" y1="231.3679349715929" x2="510.45500000000004" y2="231.3679349715929" stroke="#eee" stroke-dasharray="3,2"></line><line x1="219.545" y1="134.65724662879057" x2="510.45500000000004" y2="134.65724662879057" stroke="#eee" stroke-dasharray="3,2"></line></g><g font-size="0.8em" class="axis"><text x="15" y="521.5" fill="#666" dominant-baseline="middle" text-anchor="start">0%</text><text x="15" y="424.78931165719763" fill="#666" dominant-baseline="middle" text-anchor="start">2%</text><text x="15" y="328.07862331439526" fill="#666" dominant-baseline="middle" text-anchor="start">4%</text><text x="15" y="231.3679349715929" fill="#666" dominant-baseline="middle" text-anchor="start">6%</text><text x="15" y="134.65724662879057" fill="#666" dominant-baseline="middle" text-anchor="start">8%</text></g><g font-size="0.8em" class="axis"><text x="715" y="521.5" fill="#666" dominant-baseline="middle" text-anchor="end">0%</text><text x="715" y="424.78931165719763" fill="#666" dominant-baseline="middle" text-anchor="end">2%</text><text x="715" y="328.07862331439526" fill="#666" dominant-baseline="middle" text-anchor="end">4%</text><text x="715" y="231.3679349715929" fill="#666" dominant-baseline="middle" text-anchor="end">6%</text><text x="715" y="134.65724662879057" fill="#666" dominant-baseline="middle" text-anchor="end">8%</text></g><line x1="219.545" y1="521.5" x2="219.545" y2="107.60000000000001" stroke="#333"></line><line x1="510.45500000000004" y1="521.5" x2="510.45500000000004" y2="107.60000000000001" stroke="#333"></line><text x="219.545" y="545.9" text-anchor="middle" fill="#666" font-size="18">1995</text><text x="510.45500000000004" y="545.9" text-anchor="middle" fill="#666" font-size="18">2010</text><g class="slopes"><g class="slope"><circle cx="219.545" cy="294.15758290578196" r="2" fill="#ff7f0e" opacity="0.5"></circle><line x1="219.545" y1="294.15758290578196" x2="510.45500000000004" y2="253.5436979483447" stroke="#ff7f0e" stroke-width="1" opacity="0.5"></line><circle cx="510.45500000000004" cy="253.5436979483447" r="2" fill="#ff7f0e" opacity="0.5"></circle></g><g class="slope"><circle cx="219.545" cy="215.6790427804455" r="2" fill="#ff7f0e" opacity="0.5"></circle><line x1="219.545" y1="215.6790427804455" x2="510.45500000000004" y2="260.62437174796406" stroke="#ff7f0e" stroke-width="1" opacity="0.5"></line><circle cx="510.45500000000004" cy="260.62437174796406" r="2" fill="#ff7f0e" opacity="0.5"></circle></g><g class="slope"><circle cx="219.545" cy="344.9865548407138" r="2" fill="#ff7f0e" opacity="0.5"></circle><line x1="219.545" y1="344.9865548407138" x2="510.45500000000004" y2="213.4469494021343" stroke="#ff7f0e" stroke-width="1" opacity="0.5"></line><circle cx="510.45500000000004" cy="213.4469494021343" r="2" fill="#ff7f0e" opacity="0.5"></circle></g><g class="slope"><circle cx="219.545" cy="340.5480139273848" r="2" fill="#ff7f0e" opacity="0.5"></circle><line x1="219.545" y1="340.5480139273848" x2="510.45500000000004" y2="278.1115972778296" stroke="#ff7f0e" stroke-width="1" opacity="0.5"></line><circle cx="510.45500000000004" cy="278.1115972778296" r="2" fill="#ff7f0e" opacity="0.5"></circle></g><g class="slope"><circle cx="219.545" cy="291.0906421027662" r="2" fill="#ff7f0e" opacity="0.5"></circle><line x1="219.545" y1="291.0906421027662" x2="510.45500000000004" y2="261.03829070133156" stroke="#ff7f0e" stroke-width="1" opacity="0.5"></line><circle cx="510.45500000000004" cy="261.03829070133156" r="2" fill="#ff7f0e" opacity="0.5"></circle></g><g class="slope"><circle cx="219.545" cy="289.2932771842936" r="2" fill="#ff7f0e" opacity="0.5"></circle><line x1="219.545" y1="289.2932771842936" x2="510.45500000000004" y2="259.41354669166265" stroke="#ff7f0e" stroke-width="1" opacity="0.5"></line><circle cx="510.45500000000004" cy="259.41354669166265" r="2" fill="#ff7f0e" opacity="0.5"></circle></g><g class="slope"><circle cx="219.545" cy="287.27977009002103" r="2" fill="#ff7f0e" opacity="0.5"></circle><line x1="219.545" y1="287.27977009002103" x2="510.45500000000004" y2="260.2413845983981" stroke="#ff7f0e" stroke-width="1" opacity="0.5"></line><circle cx="510.45500000000004" cy="260.2413845983981" r="2" fill="#ff7f0e" opacity="0.5"></circle></g><g class="slope"><circle cx="219.545" cy="371.9069429369187" r="2" fill="#ff7f0e" opacity="0.5"></circle><line x1="219.545" y1="371.9069429369187" x2="510.45500000000004" y2="348.6410096905534" stroke="#ff7f0e" stroke-width="1" opacity="0.5"></line><circle cx="510.45500000000004" cy="348.6410096905534" r="2" fill="#ff7f0e" opacity="0.5"></circle></g><g class="slope"><circle cx="219.545" cy="291.0906421027662" r="2" fill="#ff7f0e" opacity="0.5"></circle><line x1="219.545" y1="291.0906421027662" x2="510.45500000000004" y2="260.2413845983981" stroke="#ff7f0e" stroke-width="1" opacity="0.5"></line><circle cx="510.45500000000004" cy="260.2413845983981" r="2" fill="#ff7f0e" opacity="0.5"></circle></g><g class="slope"><circle cx="219.545" cy="312.8239523153387" r="2" fill="#ff7f0e" opacity="0.5"></circle><line x1="219.545" y1="312.8239523153387" x2="510.45500000000004" y2="322.4752054267811" stroke="#ff7f0e" stroke-width="1" opacity="0.5"></line><circle cx="510.45500000000004" cy="322.4752054267811" r="2" fill="#ff7f0e" opacity="0.5"></circle></g><g class="slope"><circle cx="219.545" cy="349.42509575404324" r="2" fill="#ff7f0e" opacity="0.5"></circle><line x1="219.545" y1="349.42509575404324" x2="510.45500000000004" y2="288.1293743946611" stroke="#ff7f0e" stroke-width="1" opacity="0.5"></line><circle cx="510.45500000000004" cy="288.1293743946611" r="2" fill="#ff7f0e" opacity="0.5"></circle></g><g class="slope"><circle cx="219.545" cy="349.42509575404324" r="2" fill="#ff7f0e" opacity="0.5"></circle><line x1="219.545" y1="349.42509575404324" x2="510.45500000000004" y2="295.8355208560927" stroke="#ff7f0e" stroke-width="1" opacity="0.5"></line><circle cx="510.45500000000004" cy="295.8355208560927" r="2" fill="#ff7f0e" opacity="0.5"></circle></g><g class="slope"><circle cx="219.545" cy="296.39257001601817" r="2" fill="#ff7f0e" opacity="0.5"></circle><line x1="219.545" y1="296.39257001601817" x2="510.45500000000004" y2="290.89578211474816" stroke="#ff7f0e" stroke-width="1" opacity="0.5"></line><circle cx="510.45500000000004" cy="290.89578211474816" r="2" fill="#ff7f0e" opacity="0.5"></circle></g><g class="slope"><circle cx="219.545" cy="403.4118987671385" r="2" fill="#ff7f0e" opacity="0.5"></circle><line x1="219.545" y1="403.4118987671385" x2="510.45500000000004" y2="351.84817543939" stroke="#ff7f0e" stroke-width="1" opacity="0.5"></line><circle cx="510.45500000000004" cy="351.84817543939" r="2" fill="#ff7f0e" opacity="0.5"></circle></g><g class="slope"><circle cx="219.545" cy="403.4118987671385" r="2" fill="#ff7f0e" opacity="0.5"></circle><line x1="219.545" y1="403.4118987671385" x2="510.45500000000004" y2="351.84817543939" stroke="#ff7f0e" stroke-width="1" opacity="0.5"></line><circle cx="510.45500000000004" cy="351.84817543939" r="2" fill="#ff7f0e" opacity="0.5"></circle></g><g class="slope"><circle cx="219.545" cy="297.8340404941808" r="2" fill="#ff7f0e" opacity="0.5"></circle><line x1="219.545" y1="297.8340404941808" x2="510.45500000000004" y2="267.1733828326709" stroke="#ff7f0e" stroke-width="1" opacity="0.5"></line><circle cx="510.45500000000004" cy="267.1733828326709" r="2" fill="#ff7f0e" opacity="0.5"></circle></g><g class="slope"><circle cx="219.545" cy="352.1218694469366" r="2" fill="#ff7f0e" opacity="0.5"></circle><line x1="219.545" y1="352.1218694469366" x2="510.45500000000004" y2="318.0627830380563" stroke="#ff7f0e" stroke-width="1" opacity="0.5"></line><circle cx="510.45500000000004" cy="318.0627830380563" r="2" fill="#ff7f0e" opacity="0.5"></circle></g><g class="slope"><circle cx="219.545" cy="339.4561546867478" r="2" fill="#ff7f0e" opacity="0.5"></circle><line x1="219.545" y1="339.4561546867478" x2="510.45500000000004" y2="284.73748248394895" stroke="#ff7f0e" stroke-width="1" opacity="0.5"></line><circle cx="510.45500000000004" cy="284.73748248394895" r="2" fill="#ff7f0e" opacity="0.5"></circle></g><g class="slope"><circle cx="219.545" cy="348.44831711927526" r="2" fill="#ff7f0e" opacity="0.5"></circle><line x1="219.545" y1="348.44831711927526" x2="510.45500000000004" y2="288.1293743946611" stroke="#ff7f0e" stroke-width="1" opacity="0.5"></line><circle cx="510.45500000000004" cy="288.1293743946611" r="2" fill="#ff7f0e" opacity="0.5"></circle></g><g class="slope"><circle cx="219.545" cy="358.31812192831933" r="2" fill="#ffd336" opacity="0.5"></circle><line x1="219.545" y1="358.31812192831933" x2="510.45500000000004" y2="409.80883040462345" stroke="#ffd336" stroke-width="1.0006101111337078" opacity="0.5"></line><circle cx="510.45500000000004" cy="409.80883040462345" r="2" fill="#ffd336" opacity="0.5"></circle></g><g class="slope"><circle cx="219.545" cy="470.0223536682013" r="2" fill="#ffd336" opacity="0.5"></circle><line x1="219.545" y1="470.0223536682013" x2="510.45500000000004" y2="457.6603078279271" stroke="#ffd336" stroke-width="1.0008653333653827" opacity="0.5"></line><circle cx="510.45500000000004" cy="457.6603078279271" r="2" fill="#ffd336" opacity="0.5"></circle><text x="518.455" y="461.1703078279271" dominant-baseline="middle" font-size="11.700000000000001" fill="#333">1.32%</text><text font-size="11.70" x="555.8" y="461.2" fill="#333"><tspan x="555.8000000000001" y="461.1703078279271">Monaco</tspan></text></g><g class="slope"><circle cx="219.545" cy="358.4612521348777" r="2" fill="#4d824b" opacity="0.5"></circle><line x1="219.545" y1="358.4612521348777" x2="510.45500000000004" y2="200.6888888542262" stroke="#4d824b" stroke-width="1.0021110000781852" opacity="0.5"></line><circle cx="510.45500000000004" cy="200.6888888542262" r="2" fill="#4d824b" opacity="0.5"></circle></g><g class="slope"><circle cx="219.545" cy="292.20331084987424" r="2" fill="#ffd336" opacity="0.5"></circle><line x1="219.545" y1="292.20331084987424" x2="510.45500000000004" y2="173.1350501579941" stroke="#ffd336" stroke-width="1.0068252224750083" opacity="0.5"></line><circle cx="510.45500000000004" cy="173.1350501579941" r="2" fill="#ffd336" opacity="0.5"></circle><text x="518.455" y="176.6450501579941" dominant-baseline="middle" font-size="11.700000000000001" fill="#333">7.2%</text><text font-size="11.70" x="549.2" y="176.6" fill="#333"><tspan x="549.248" y="176.6450501579941">Iceland</tspan></text></g><g class="slope"><circle cx="219.545" cy="248.14046636010085" r="2" fill="#5675c1" opacity="0.5"></circle><line x1="219.545" y1="248.14046636010085" x2="510.45500000000004" y2="225.64411016675842" stroke="#5675c1" stroke-width="1.00955544479835" opacity="0.5"></line><circle cx="510.45500000000004" cy="225.64411016675842" r="2" fill="#5675c1" opacity="0.5"></circle></g><g class="slope"><circle cx="219.545" cy="243.83733711339488" r="2" fill="#a652ba" opacity="0.5"></circle><line x1="219.545" y1="243.83733711339488" x2="510.45500000000004" y2="182.8926680930942" stroke="#a652ba" stroke-width="1.0111110004115185" opacity="0.5"></line><circle cx="510.45500000000004" cy="182.8926680930942" r="2" fill="#a652ba" opacity="0.5"></circle></g><g class="slope"><circle cx="219.545" cy="398.0217264411963" r="2" fill="#5675c1" opacity="0.5"></circle><line x1="219.545" y1="398.0217264411963" x2="510.45500000000004" y2="320.52987972933397" stroke="#5675c1" stroke-width="1.0114747782027695" opacity="0.5"></line><circle cx="510.45500000000004" cy="320.52987972933397" r="2" fill="#5675c1" opacity="0.5"></circle></g><g class="slope"><circle cx="219.545" cy="346.96912436677906" r="2" fill="#69c487" opacity="0.5"></circle><line x1="219.545" y1="346.96912436677906" x2="510.45500000000004" y2="345.5566603807389" stroke="#69c487" stroke-width="1.0184481117943744" opacity="0.5"></line><circle cx="510.45500000000004" cy="345.5566603807389" r="2" fill="#69c487" opacity="0.5"></circle></g><g class="slope"><circle cx="219.545" cy="338.6336315625516" r="2" fill="#ffd336" opacity="0.5"></circle><line x1="219.545" y1="338.6336315625516" x2="510.45500000000004" y2="203.30975684595347" stroke="#ffd336" stroke-width="1.0204878896476997" opacity="0.5"></line><circle cx="510.45500000000004" cy="203.30975684595347" r="2" fill="#ffd336" opacity="0.5"></circle></g><g class="slope"><circle cx="219.545" cy="215.6790427804455" r="2" fill="#4d824b" opacity="0.5"></circle><line x1="219.545" y1="215.6790427804455" x2="510.45500000000004" y2="261.8351968042656" stroke="#4d824b" stroke-width="1.0222221119341524" opacity="0.5"></line><circle cx="510.45500000000004" cy="261.8351968042656" r="2" fill="#4d824b" opacity="0.5"></circle></g><g class="slope"><circle cx="219.545" cy="311.51354137710007" r="2" fill="#d14e5b" opacity="0.5"></circle><line x1="219.545" y1="311.51354137710007" x2="510.45500000000004" y2="281.3455905732363" stroke="#d14e5b" stroke-width="1.0318887789588436" opacity="0.5"></line><circle cx="510.45500000000004" cy="281.3455905732363" r="2" fill="#d14e5b" opacity="0.5"></circle></g><g class="slope"><circle cx="219.545" cy="284.05882741030734" r="2" fill="#5675c1" opacity="0.5"></circle><line x1="219.545" y1="284.05882741030734" x2="510.45500000000004" y2="220.6915629147827" stroke="#5675c1" stroke-width="1.034940445738535" opacity="0.5"></line><circle cx="510.45500000000004" cy="220.6915629147827" r="2" fill="#5675c1" opacity="0.5"></circle></g><g class="slope"><circle cx="219.545" cy="413.9272450182663" r="2" fill="#d14e5b" opacity="0.5"></circle><line x1="219.545" y1="413.9272450182663" x2="510.45500000000004" y2="443.43851466501707" stroke="#d14e5b" stroke-width="1.0368887791440289" opacity="0.5"></line><circle cx="510.45500000000004" cy="443.43851466501707" r="2" fill="#d14e5b" opacity="0.5"></circle></g><g class="slope"><circle cx="219.545" cy="227.83557600999848" r="2" fill="#ffd336" opacity="0.5"></circle><line x1="219.545" y1="227.83557600999848" x2="510.45500000000004" y2="254.24001516265844" stroke="#ffd336" stroke-width="1.0371261124861524" opacity="0.5"></line><circle cx="510.45500000000004" cy="254.24001516265844" r="2" fill="#ffd336" opacity="0.5"></circle></g><g class="slope"><text font-size="11.70" x="174.2" y="195.7" text-anchor="end" fill="#333"><tspan x="174.2" y="195.7381470315495">Finland</tspan></text><text x="211.545" y="195.7381470315495" text-anchor="end" font-size="11.700000000000001" fill="#333">6.81%</text><circle cx="219.545" cy="192.2281470315495" r="2" fill="#ffd336" opacity="0.5"></circle><line x1="219.545" y1="192.2281470315495" x2="510.45500000000004" y2="205.22171816017226" stroke="#ffd336" stroke-width="1.04444433497942" opacity="0.5"></line><circle cx="510.45500000000004" cy="205.22171816017226" r="2" fill="#ffd336" opacity="0.5"></circle></g><g class="slope"><text font-size="11.70" x="174.2" y="344.1" text-anchor="end" fill="#333"><tspan x="174.2" y="344.05801392738476">Jamaica</tspan></text><text x="211.545" y="344.05801392738476" text-anchor="end" font-size="11.700000000000001" fill="#333">3.74%</text><circle cx="219.545" cy="340.5480139273848" r="2" fill="#4d824b" opacity="0.5"></circle><line x1="219.545" y1="340.5480139273848" x2="510.45500000000004" y2="213.4469494021343" stroke="#4d824b" stroke-width="1.0445554460946462" opacity="0.5"></line><circle cx="510.45500000000004" cy="213.4469494021343" r="2" fill="#4d824b" opacity="0.5"></circle><text x="518.455" y="216.95694940213428" dominant-baseline="middle" font-size="11.700000000000001" fill="#333">6.37%</text><text font-size="11.70" x="555.8" y="217.0" fill="#333"><tspan x="555.8000000000001" y="216.95694940213428">Jamaica</tspan></text></g><g class="slope"><text font-size="11.70" x="174.2" y="277.1" text-anchor="end" fill="#333"><tspan x="174.2" y="277.0679699942254">Australia</tspan></text><text x="211.545" y="277.0679699942254" text-anchor="end" font-size="11.700000000000001" fill="#333">5.13%</text><circle cx="219.545" cy="273.5579699942254" r="2" fill="#a652ba" opacity="0.5"></circle><line x1="219.545" y1="273.5579699942254" x2="510.45500000000004" y2="252.3589971810536" stroke="#a652ba" stroke-width="1.0499998907407366" opacity="0.5"></line><circle cx="510.45500000000004" cy="252.3589971810536" r="2" fill="#a652ba" opacity="0.5"></circle></g><g class="slope"><text font-size="11.70" x="180.8" y="447.4" text-anchor="end" fill="#333"><tspan x="180.75199999999998" y="447.4093443562411">Guatemala</tspan></text><text x="211.545" y="447.4093443562411" text-anchor="end" font-size="11.700000000000001" fill="#333">1.6%</text><circle cx="219.545" cy="443.8993443562411" r="2" fill="#4d824b" opacity="0.5"></circle><line x1="219.545" y1="443.8993443562411" x2="510.45500000000004" y2="385.9570663180524" stroke="#4d824b" stroke-width="1.0509960018887408" opacity="0.5"></line><circle cx="510.45500000000004" cy="385.9570663180524" r="2" fill="#4d824b" opacity="0.5"></circle></g><g class="slope"><circle cx="219.545" cy="421.59882809997475" r="2" fill="#d14e5b" opacity="0.5"></circle><line x1="219.545" y1="421.59882809997475" x2="510.45500000000004" y2="327.7522195763305" stroke="#d14e5b" stroke-width="1.0518475574758355" opacity="0.5"></line><circle cx="510.45500000000004" cy="327.7522195763305" r="2" fill="#d14e5b" opacity="0.5"></circle></g><g class="slope"><circle cx="219.545" cy="283.4060199341773" r="2" fill="#ffd336" opacity="0.5"></circle><line x1="219.545" y1="283.4060199341773" x2="510.45500000000004" y2="252.5229138364582" stroke="#ffd336" stroke-width="1.0521847797105475" opacity="0.5"></line><circle cx="510.45500000000004" cy="252.5229138364582" r="2" fill="#ffd336" opacity="0.5"></circle></g><g class="slope"><text font-size="11.70" x="190.6" y="428.4" text-anchor="end" fill="#333"><tspan x="190.57999999999998" y="428.4134296072273">Ecuador</tspan></text><text x="211.545" y="428.4134296072273" text-anchor="end" font-size="11.700000000000001" fill="#333">2%</text><circle cx="219.545" cy="424.9034296072273" r="2" fill="#69c487" opacity="0.5"></circle><line x1="219.545" y1="424.9034296072273" x2="510.45500000000004" y2="303.54166731752434" stroke="#69c487" stroke-width="1.0555554465020536" opacity="0.5"></line><circle cx="510.45500000000004" cy="303.54166731752434" r="2" fill="#69c487" opacity="0.5"></circle><text x="518.455" y="307.05166731752433" dominant-baseline="middle" font-size="11.700000000000001" fill="#333">4.51%</text><text font-size="11.70" x="555.8" y="307.1" fill="#333"><tspan x="555.8000000000001" y="307.05166731752433">Ecuador</tspan></text></g><g class="slope"><circle cx="219.545" cy="149.36743487349088" r="2" fill="#ffd336" opacity="0.5"></circle><line x1="219.545" y1="149.36743487349088" x2="510.45500000000004" y2="195.5627407443888" stroke="#ffd336" stroke-width="1.0555554465020536" opacity="0.5"></line><circle cx="510.45500000000004" cy="195.5627407443888" r="2" fill="#ffd336" opacity="0.5"></circle></g><g class="slope"><circle cx="219.545" cy="223.80371972022482" r="2" fill="#d14e5b" opacity="0.5"></circle><line x1="219.545" y1="223.80371972022482" x2="510.45500000000004" y2="240.1284720332012" stroke="#d14e5b" stroke-width="1.0589268910713663" opacity="0.5"></line><circle cx="510.45500000000004" cy="240.1284720332012" r="2" fill="#d14e5b" opacity="0.5"></circle></g><g class="slope"><text font-size="11.70" x="174.2" y="163.7" text-anchor="end" fill="#333"><tspan x="174.2" y="163.74576165758202">Denmark</tspan></text><text x="211.545" y="163.74576165758202" text-anchor="end" font-size="11.700000000000001" fill="#333">7.47%</text><circle cx="219.545" cy="160.23576165758203" r="2" fill="#ffd336" opacity="0.5"></circle><line x1="219.545" y1="160.23576165758203" x2="510.45500000000004" y2="107.60000000000002" stroke="#ffd336" stroke-width="1.0777776695473211" opacity="0.5"></line><circle cx="510.45500000000004" cy="107.60000000000002" r="2" fill="#ffd336" opacity="0.5"></circle><text x="518.455" y="111.11000000000003" dominant-baseline="middle" font-size="11.700000000000001" fill="#333">8.56%</text><text font-size="11.70" x="555.8" y="111.1" fill="#333"><tspan x="555.8000000000001" y="111.11000000000003">Denmark</tspan></text></g><g class="slope"><circle cx="219.545" cy="327.6506737962768" r="2" fill="#5675c1" opacity="0.5"></circle><line x1="219.545" y1="327.6506737962768" x2="510.45500000000004" y2="350.3317561514948" stroke="#5675c1" stroke-width="1.0818887808106956" opacity="0.5"></line><circle cx="510.45500000000004" cy="350.3317561514948" r="2" fill="#5675c1" opacity="0.5"></circle></g><g class="slope"><text font-size="11.70" x="174.2" y="401.0" text-anchor="end" fill="#333"><tspan x="174.2" y="400.9930542083147">Chile</tspan></text><text x="211.545" y="400.9930542083147" text-anchor="end" font-size="11.700000000000001" fill="#333">2.56%</text><circle cx="219.545" cy="397.4830542083147" r="2" fill="#69c487" opacity="0.5"></circle><line x1="219.545" y1="397.4830542083147" x2="510.45500000000004" y2="320.24071405548057" stroke="#69c487" stroke-width="1.0857162253968973" opacity="0.5"></line><circle cx="510.45500000000004" cy="320.24071405548057" r="2" fill="#69c487" opacity="0.5"></circle><text x="518.455" y="323.75071405548056" dominant-baseline="middle" font-size="11.700000000000001" fill="#333">4.16%</text><text font-size="11.70" x="555.8" y="323.8" fill="#333"><tspan x="555.8000000000001" y="323.75071405548056">Chile</tspan></text></g><g class="slope"><circle cx="219.545" cy="291.0906421027662" r="2" fill="#ffd336" opacity="0.5"></circle><line x1="219.545" y1="291.0906421027662" x2="510.45500000000004" y2="265.26358893519244" stroke="#ffd336" stroke-width="1.0865171143154486" opacity="0.5"></line><circle cx="510.45500000000004" cy="265.26358893519244" r="2" fill="#ffd336" opacity="0.5"></circle><text x="518.455" y="268.77358893519244" dominant-baseline="middle" font-size="11.700000000000001" fill="#333">5.3%</text><text font-size="11.70" x="549.2" y="268.8" fill="#333"><tspan x="549.248" y="268.77358893519244">Lithuania</tspan></text></g><g class="slope"><circle cx="219.545" cy="210.5867432639592" r="2" fill="#5675c1" opacity="0.5"></circle><line x1="219.545" y1="210.5867432639592" x2="510.45500000000004" y2="219.0465166663904" stroke="#5675c1" stroke-width="1.0888887810699548" opacity="0.5"></line><circle cx="510.45500000000004" cy="219.0465166663904" r="2" fill="#5675c1" opacity="0.5"></circle></g><g class="slope"><circle cx="219.545" cy="360.120328948021" r="2" fill="#d14e5b" opacity="0.5"></circle><line x1="219.545" y1="360.120328948021" x2="510.45500000000004" y2="387.04215814578174" stroke="#d14e5b" stroke-width="1.0977732258434527" opacity="0.5"></line><circle cx="510.45500000000004" cy="387.04215814578174" r="2" fill="#d14e5b" opacity="0.5"></circle></g><g class="slope"><circle cx="219.545" cy="278.9926291252065" r="2" fill="#5675c1" opacity="0.5"></circle><line x1="219.545" y1="278.9926291252065" x2="510.45500000000004" y2="193.02843107653126" stroke="#5675c1" stroke-width="1.0998995592555392" opacity="0.5"></line><circle cx="510.45500000000004" cy="193.02843107653126" r="2" fill="#5675c1" opacity="0.5"></circle></g><g class="slope"><circle cx="219.545" cy="282.5917168532576" r="2" fill="#4d824b" opacity="0.5"></circle><line x1="219.545" y1="282.5917168532576" x2="510.45500000000004" y2="259.41354669166265" stroke="#4d824b" stroke-width="1.1111110041152223" opacity="0.5"></line><circle cx="510.45500000000004" cy="259.41354669166265" r="2" fill="#4d824b" opacity="0.5"></circle></g><g class="slope"><circle cx="219.545" cy="313.5019156602332" r="2" fill="#5675c1" opacity="0.5"></circle><line x1="219.545" y1="313.5019156602332" x2="510.45500000000004" y2="301.31586867081" stroke="#5675c1" stroke-width="1.12094767114621" opacity="0.5"></line><circle cx="510.45500000000004" cy="301.31586867081" r="2" fill="#5675c1" opacity="0.5"></circle></g><g class="slope"><circle cx="219.545" cy="250.31500790666536" r="2" fill="#69c487" opacity="0.5"></circle><line x1="219.545" y1="250.31500790666536" x2="510.45500000000004" y2="153.9940625975246" stroke="#69c487" stroke-width="1.122222115637856" opacity="0.5"></line><circle cx="510.45500000000004" cy="153.9940625975246" r="2" fill="#69c487" opacity="0.5"></circle><text x="518.455" y="157.50406259752458" dominant-baseline="middle" font-size="11.700000000000001" fill="#333">7.6%</text><text font-size="11.70" x="549.2" y="157.5" fill="#333"><tspan x="549.248" y="157.50406259752458">Bolivia</tspan></text></g><g class="slope"><circle cx="219.545" cy="276.8495151213788" r="2" fill="#ffd336" opacity="0.5"></circle><line x1="219.545" y1="276.8495151213788" x2="510.45500000000004" y2="283.2991478427723" stroke="#ffd336" stroke-width="1.13333322716049" opacity="0.5"></line><circle cx="510.45500000000004" cy="283.2991478427723" r="2" fill="#ffd336" opacity="0.5"></circle></g><g class="slope"><circle cx="219.545" cy="378.4842284341571" r="2" fill="#d14e5b" opacity="0.5"></circle><line x1="219.545" y1="378.4842284341571" x2="510.45500000000004" y2="438.4380882549393" stroke="#d14e5b" stroke-width="1.1347776716584324" opacity="0.5"></line><circle cx="510.45500000000004" cy="438.4380882549393" r="2" fill="#d14e5b" opacity="0.5"></circle><text x="518.455" y="441.9480882549393" dominant-baseline="middle" font-size="11.700000000000001" fill="#333">1.72%</text><text font-size="11.70" x="555.8" y="441.9" fill="#333"><tspan x="555.8000000000001" y="441.9480882549393">Sri Lanka</tspan></text></g><g class="slope"><circle cx="219.545" cy="383.58330689236357" r="2" fill="#5675c1" opacity="0.5"></circle><line x1="219.545" y1="383.58330689236357" x2="510.45500000000004" y2="340.97063713415184" stroke="#5675c1" stroke-width="1.1383177829006585" opacity="0.5"></line><circle cx="510.45500000000004" cy="340.97063713415184" r="2" fill="#5675c1" opacity="0.5"></circle></g><g class="slope"><circle cx="219.545" cy="354.81864313983044" r="2" fill="#ffd336" opacity="0.5"></circle><line x1="219.545" y1="354.81864313983044" x2="510.45500000000004" y2="334.68105891599185" stroke="#ffd336" stroke-width="1.1388887829218068" opacity="0.5"></line><circle cx="510.45500000000004" cy="334.68105891599185" r="2" fill="#ffd336" opacity="0.5"></circle></g><g class="slope"><circle cx="219.545" cy="305.1983346088658" r="2" fill="#69c487" opacity="0.5"></circle><line x1="219.545" y1="305.1983346088658" x2="510.45500000000004" y2="248.35033686192838" stroke="#69c487" stroke-width="1.1388887829218068" opacity="0.5"></line><circle cx="510.45500000000004" cy="248.35033686192838" r="2" fill="#69c487" opacity="0.5"></circle></g><g class="slope"><circle cx="219.545" cy="286.2125709792133" r="2" fill="#ffd336" opacity="0.5"></circle><line x1="219.545" y1="286.2125709792133" x2="510.45500000000004" y2="229.2688379736967" stroke="#ffd336" stroke-width="1.1521891167477452" opacity="0.5"></line><circle cx="510.45500000000004" cy="229.2688379736967" r="2" fill="#ffd336" opacity="0.5"></circle><text x="518.455" y="232.77883797369668" dominant-baseline="middle" font-size="11.700000000000001" fill="#333">6.04%</text><text font-size="11.70" x="555.8" y="232.8" fill="#333"><tspan x="555.8000000000001" y="232.77883797369668">Ireland</tspan></text></g><g class="slope"><text font-size="11.70" x="174.2" y="224.1" text-anchor="end" fill="#333"><tspan x="174.2" y="224.0511810851939">Sweden</tspan></text><text x="211.545" y="224.0511810851939" text-anchor="end" font-size="11.700000000000001" fill="#333">6.22%</text><circle cx="219.545" cy="220.5411810851939" r="2" fill="#ffd336" opacity="0.5"></circle><line x1="219.545" y1="220.5411810851939" x2="510.45500000000004" y2="201.2913845928274" stroke="#ffd336" stroke-width="1.1525954500961277" opacity="0.5"></line><circle cx="510.45500000000004" cy="201.2913845928274" r="2" fill="#ffd336" opacity="0.5"></circle><text x="518.455" y="204.8013845928274" dominant-baseline="middle" font-size="11.700000000000001" fill="#333">6.62%</text><text font-size="11.70" x="555.8" y="204.8" fill="#333"><tspan x="555.8000000000001" y="204.8013845928274">Sweden</tspan></text></g><g class="slope"><circle cx="219.545" cy="287.0636279142217" r="2" fill="#ffd336" opacity="0.5"></circle><line x1="219.545" y1="287.0636279142217" x2="510.45500000000004" y2="290.89578211474816" stroke="#ffd336" stroke-width="1.1666665617283911" opacity="0.5"></line><circle cx="510.45500000000004" cy="290.89578211474816" r="2" fill="#ffd336" opacity="0.5"></circle></g><g class="slope"><circle cx="219.545" cy="297.2245237087981" r="2" fill="#ffd336" opacity="0.5"></circle><line x1="219.545" y1="297.2245237087981" x2="510.45500000000004" y2="252.84738073403145" stroke="#ffd336" stroke-width="1.2111110078189262" opacity="0.5"></line><circle cx="510.45500000000004" cy="252.84738073403145" r="2" fill="#ffd336" opacity="0.5"></circle></g><g class="slope"><circle cx="219.545" cy="298.4435572795635" r="2" fill="#ffd336" opacity="0.5"></circle><line x1="219.545" y1="298.4435572795635" x2="510.45500000000004" y2="260.2413845983981" stroke="#ffd336" stroke-width="1.2222221193415599" opacity="0.5"></line><circle cx="510.45500000000004" cy="260.2413845983981" r="2" fill="#ffd336" opacity="0.5"></circle></g><g class="slope"><circle cx="219.545" cy="377.7516531046905" r="2" fill="#ffd336" opacity="0.5"></circle><line x1="219.545" y1="377.7516531046905" x2="510.45500000000004" y2="211.63943912870627" stroke="#ffd336" stroke-width="1.2222221193415599" opacity="0.5"></line><circle cx="510.45500000000004" cy="211.63943912870627" r="2" fill="#ffd336" opacity="0.5"></circle></g><g class="slope"><circle cx="219.545" cy="312.8239523153387" r="2" fill="#ffd336" opacity="0.5"></circle><line x1="219.545" y1="312.8239523153387" x2="510.45500000000004" y2="322.4752054267811" stroke="#ffd336" stroke-width="1.2378500088092597" opacity="0.5"></line><circle cx="510.45500000000004" cy="322.4752054267811" r="2" fill="#ffd336" opacity="0.5"></circle></g><g class="slope"><text font-size="11.70" x="174.2" y="262.5" text-anchor="end" fill="#333"><tspan x="174.2" y="262.5202688321858">Austria</tspan></text><text x="211.545" y="262.5202688321858" text-anchor="end" font-size="11.700000000000001" fill="#333">5.43%</text><circle cx="219.545" cy="259.0102688321858" r="2" fill="#ffd336" opacity="0.5"></circle><line x1="219.545" y1="259.0102688321858" x2="510.45500000000004" y2="245.85132841779017" stroke="#ffd336" stroke-width="1.2777776769547287" opacity="0.5"></line><circle cx="510.45500000000004" cy="245.85132841779017" r="2" fill="#ffd336" opacity="0.5"></circle></g><g class="slope"><circle cx="219.545" cy="334.48909265989835" r="2" fill="#4d824b" opacity="0.5"></circle><line x1="219.545" y1="334.48909265989835" x2="510.45500000000004" y2="270.4405099350565" stroke="#4d824b" stroke-width="1.499999907407404" opacity="0.5"></line><circle cx="510.45500000000004" cy="270.4405099350565" r="2" fill="#4d824b" opacity="0.5"></circle></g><g class="slope"><text font-size="11.70" x="174.2" y="372.9" text-anchor="end" fill="#333"><tspan x="174.2" y="372.93341192349396">Thailand</tspan></text><text x="211.545" y="372.93341192349396" text-anchor="end" font-size="11.700000000000001" fill="#333">3.14%</text><circle cx="219.545" cy="369.423411923494" r="2" fill="#d14e5b" opacity="0.5"></circle><line x1="219.545" y1="369.423411923494" x2="510.45500000000004" y2="351.84817543939" stroke="#d14e5b" stroke-width="1.5183332414197497" opacity="0.5"></line><circle cx="510.45500000000004" cy="351.84817543939" r="2" fill="#d14e5b" opacity="0.5"></circle></g><g class="slope"><text font-size="11.70" x="174.2" y="327.6" text-anchor="end" fill="#333"><tspan x="174.2" y="327.63267272578815">Iran</tspan></text><text x="211.545" y="327.63267272578815" text-anchor="end" font-size="11.700000000000001" fill="#333">4.08%</text><circle cx="219.545" cy="324.12267272578816" r="2" fill="#d14e5b" opacity="0.5"></circle><line x1="219.545" y1="324.12267272578816" x2="510.45500000000004" y2="342.1413188655049" stroke="#d14e5b" stroke-width="1.5555554650205727" opacity="0.5"></line><circle cx="510.45500000000004" cy="342.1413188655049" r="2" fill="#d14e5b" opacity="0.5"></circle></g><g class="slope"><circle cx="219.545" cy="301.6944979292707" r="2" fill="#ffd336" opacity="0.5"></circle><line x1="219.545" y1="301.6944979292707" x2="510.45500000000004" y2="324.96164746534953" stroke="#ffd336" stroke-width="1.612927578256577" opacity="0.5"></line><circle cx="510.45500000000004" cy="324.96164746534953" r="2" fill="#ffd336" opacity="0.5"></circle></g><g class="slope"><circle cx="219.545" cy="311.879581172366" r="2" fill="#ffd336" opacity="0.5"></circle><line x1="219.545" y1="311.879581172366" x2="510.45500000000004" y2="276.41432550904244" stroke="#ffd336" stroke-width="1.6666665802469103" opacity="0.5"></line><circle cx="510.45500000000004" cy="276.41432550904244" r="2" fill="#ffd336" opacity="0.5"></circle></g><g class="slope"><text font-size="11.70" x="174.2" y="291.0" text-anchor="end" fill="#333"><tspan x="174.2" y="291.00591226582094">United Kingdom</tspan></text><text x="211.545" y="291.00591226582094" text-anchor="end" font-size="11.700000000000001" fill="#333">4.84%</text><circle cx="219.545" cy="287.49591226582095" r="2" fill="#ffd336" opacity="0.5"></circle><line x1="219.545" y1="287.49591226582095" x2="510.45500000000004" y2="242.467414445293" stroke="#ffd336" stroke-width="1.800067362965458" opacity="0.5"></line><circle cx="510.45500000000004" cy="242.467414445293" r="2" fill="#ffd336" opacity="0.5"></circle></g><g class="slope"><circle cx="219.545" cy="306.4778022144905" r="2" fill="#ffd336" opacity="0.5"></circle><line x1="219.545" y1="306.4778022144905" x2="510.45500000000004" y2="288.4697971686644" stroke="#ffd336" stroke-width="1.9744443694238656" opacity="0.5"></line><circle cx="510.45500000000004" cy="288.4697971686644" r="2" fill="#ffd336" opacity="0.5"></circle></g><g class="slope"><text font-size="11.70" x="174.2" y="388.8" text-anchor="end" fill="#333"><tspan x="174.2" y="388.8031450667214">Pakistan</tspan></text><text x="211.545" y="388.8031450667214" text-anchor="end" font-size="11.700000000000001" fill="#333">2.82%</text><circle cx="219.545" cy="385.2931450667214" r="2" fill="#d14e5b" opacity="0.5"></circle><line x1="219.545" y1="385.2931450667214" x2="510.45500000000004" y2="410.917613941936" stroke="#d14e5b" stroke-width="2.197456044350224" opacity="0.5"></line><circle cx="510.45500000000004" cy="410.917613941936" r="2" fill="#d14e5b" opacity="0.5"></circle><text x="518.455" y="414.427613941936" dominant-baseline="middle" font-size="11.700000000000001" fill="#333">2.29%</text><text font-size="11.70" x="555.8" y="414.4" fill="#333"><tspan x="555.8000000000001" y="414.427613941936">Pakistan</tspan></text></g><g class="slope"><text font-size="11.70" x="174.2" y="479.4" text-anchor="end" fill="#333"><tspan x="174.2" y="479.39688762897987">Indonesia</tspan></text><text x="211.545" y="479.39688762897987" text-anchor="end" font-size="11.700000000000001" fill="#333">0.94%</text><circle cx="219.545" cy="475.8868876289799" r="2" fill="#d14e5b" opacity="0.5"></circle><line x1="219.545" y1="475.8868876289799" x2="510.45500000000004" y2="385.5112356118249" stroke="#d14e5b" stroke-width="2.3781088288188457" opacity="0.5"></line><circle cx="510.45500000000004" cy="385.5112356118249" r="2" fill="#d14e5b" opacity="0.5"></circle><text x="518.455" y="389.02123561182486" dominant-baseline="middle" font-size="11.700000000000001" fill="#333">2.81%</text><text font-size="11.70" x="555.8" y="389.0" fill="#333"><tspan x="555.8000000000001" y="389.02123561182486">Indonesia</tspan></text></g><g class="slope"><circle cx="219.545" cy="311.9791901119278" r="2" fill="#ffd336" opacity="0.5"></circle><line x1="219.545" y1="311.9791901119278" x2="510.45500000000004" y2="311.03869264993807" stroke="#ffd336" stroke-width="2.4777777213991747" opacity="0.5"></line><circle cx="510.45500000000004" cy="311.03869264993807" r="2" fill="#ffd336" opacity="0.5"></circle></g><g class="slope"><text font-size="11.70" x="174.2" y="311.2" text-anchor="end" fill="#333"><tspan x="174.2" y="311.2411685887297">Germany</tspan></text><text x="211.545" y="311.2411685887297" text-anchor="end" font-size="11.700000000000001" fill="#333">4.42%</text><circle cx="219.545" cy="307.7311685887297" r="2" fill="#ffd336" opacity="0.5"></circle><line x1="219.545" y1="307.7311685887297" x2="510.45500000000004" y2="283.8973087478927" stroke="#ffd336" stroke-width="2.6666666172839486" opacity="0.5"></line><circle cx="510.45500000000004" cy="283.8973087478927" r="2" fill="#ffd336" opacity="0.5"></circle><text x="518.455" y="287.40730874789267" dominant-baseline="middle" font-size="11.700000000000001" fill="#333">4.91%</text><text font-size="11.70" x="555.8" y="287.4" fill="#333"><tspan x="555.8000000000001" y="287.40730874789267">Germany</tspan></text></g><g class="slope"><text font-size="11.70" x="174.2" y="246.5" text-anchor="end" fill="#333"><tspan x="174.2" y="246.52770772112376">France</tspan></text><text x="211.545" y="246.52770772112376" text-anchor="end" font-size="11.700000000000001" fill="#333">5.76%</text><circle cx="219.545" cy="243.01770772112377" r="2" fill="#ffd336" opacity="0.5"></circle><line x1="219.545" y1="243.01770772112377" x2="510.45500000000004" y2="246.67626106378867" stroke="#ffd336" stroke-width="3.3856666439135794" opacity="0.5"></line><circle cx="510.45500000000004" cy="246.67626106378867" r="2" fill="#ffd336" opacity="0.5"></circle><text x="518.455" y="250.18626106378866" dominant-baseline="middle" font-size="11.700000000000001" fill="#333">5.68%</text><text font-size="11.70" x="555.8" y="250.2" fill="#333"><tspan x="555.8000000000001" y="250.18626106378866">France</tspan></text></g><g class="slope"><text font-size="11.70" x="174.2" y="357.4" text-anchor="end" fill="#333"><tspan x="174.2" y="357.4234353727476">Japan</tspan></text><text x="211.545" y="357.4234353727476" text-anchor="end" font-size="11.700000000000001" fill="#333">3.47%</text><circle cx="219.545" cy="353.9134353727476" r="2" fill="#d14e5b" opacity="0.5"></circle><line x1="219.545" y1="353.9134353727476" x2="510.45500000000004" y2="345.51072959194084" stroke="#d14e5b" stroke-width="4" opacity="0.5"></line><circle cx="510.45500000000004" cy="345.51072959194084" r="2" fill="#d14e5b" opacity="0.5"></circle><text x="518.455" y="349.02072959194084" dominant-baseline="middle" font-size="11.700000000000001" fill="#333">3.64%</text><text font-size="11.70" x="555.8" y="349.0" fill="#333"><tspan x="555.8000000000001" y="349.02072959194084">Japan</tspan></text></g></g></g><g style="cursor: pointer;" class="ScatterColorLegend clickable"><g class="legendMark"><rect x="735" y="105.10000000000001" width="43.256" height="17.6" fill="#fff" opacity="0"></rect>,<rect x="735" y="110.60000000000001" width="6" height="6" fill="#5675c1"></rect>,<text font-size="12.60" x="746.0" y="117.7"><tspan x="746" y="117.68">Africa</tspan></text></g><g class="legendMark"><rect x="735" y="122.70000000000002" width="35.57" height="17.6" fill="#fff" opacity="0"></rect>,<rect x="735" y="128.20000000000002" width="6" height="6" fill="#d14e5b"></rect>,<text font-size="12.60" x="746.0" y="135.3"><tspan x="746" y="135.28">Asia</tspan></text></g><g class="legendMark"><rect x="735" y="140.3" width="51.824" height="17.6" fill="#fff" opacity="0"></rect>,<rect x="735" y="145.8" width="6" height="6" fill="#ffd336"></rect>,<text font-size="12.60" x="746.0" y="152.9"><tspan x="746" y="152.88">Europe</tspan></text></g><g class="legendMark"><rect x="735" y="157.9" width="91.64" height="17.6" fill="#fff" opacity="0"></rect>,<rect x="735" y="163.4" width="6" height="6" fill="#4d824b"></rect>,<text font-size="12.60" x="746.0" y="170.5"><tspan x="746" y="170.48">North America</tspan></text></g><g class="legendMark"><rect x="735" y="175.5" width="58.124" height="17.6" fill="#fff" opacity="0"></rect>,<rect x="735" y="181" width="6" height="6" fill="#a652ba"></rect>,<text font-size="12.60" x="746.0" y="188.1"><tspan x="746" y="188.07999999999998">Oceania</tspan></text></g><g class="legendMark"><rect x="735" y="193.10000000000002" width="93.908" height="17.6" fill="#fff" opacity="0"></rect>,<rect x="735" y="198.60000000000002" width="6" height="6" fill="#69c487"></rect>,<text font-size="12.60" x="746.0" y="205.7"><tspan x="746" y="205.68">South America</tspan></text></g></g></g><g style="fill: #777;" class="SourcesFooter"><g style="fill: #777;" class="clickable"><text font-size="12.60" x="15.0" y="581.6"><tspan x="15" y="581.58">Source: World Bank</tspan></text></g><text font-size="12.60" x="775.4" y="581.6"><tspan x="775.402" y="581.58"><a style="fill: #777;" class="cclogo" href="http://creativecommons.org/licenses/by-sa/4.0/deed.en_US" target="_blank">CC BY-SA</a></tspan></text></g></g></svg>