<svg xmlns="http://www.w3.org/2000/svg" version="1.1" style="font-family: 'Helvetica Neue', Helvetica, Arial, sans-serif; font-size: 18px; background-color: white; text-rendering: optimizeLegibility; -webkit-font-smoothing: antialiased;" width="850" height="600"><g class="ChartTab"><g class="HeaderView"><g opacity="0.8" transform="translate(778, 15) scale(0.27)"><a xmlns:xlink="http://www.w3.org/1999/xlink" xlink:href="https://ourworldindata.org" target="_blank"><g><rect x="0" y="0" fill="#1B2543" width="211.2" height="130.1"/><rect x="0" y="112.2" fill="#E63912" width="211.2" height="17.9"/><g><rect x="1.2" y="12.3" fill="none" width="210.2" height="99.2"/><path fill="#FFFFFF" d="M37.8,32.2c0,12.7-7.7,19.4-17.1,19.4c-9.7,0-16.6-7.5-16.6-18.7c0-11.7,7.3-19.3,17.1-19.3 C31.3,13.7,37.8,21.3,37.8,32.2z M9.2,32.8c0,7.9,4.3,14.9,11.8,14.9c7.5,0,11.8-6.9,11.8-15.3c0-7.3-3.8-14.9-11.8-14.9 C13.1,17.5,9.2,24.8,9.2,32.8z"/><path fill="#FFFFFF" d="M62.7,43.8c0,2.7,0.1,5.1,0.2,7.2h-4.3l-0.3-4.3h-0.1c-1.3,2.1-4,4.9-8.8,4.9c-4.2,0-9.1-2.3-9.1-11.6 V24.6h4.8v14.6c0,5,1.5,8.4,5.9,8.4c3.2,0,5.5-2.2,6.3-4.4c0.3-0.7,0.4-1.6,0.4-2.5V24.6h4.8V43.8z"/><path fill="#FFFFFF" d="M67.3,32.8c0-3.1-0.1-5.8-0.2-8.2h4.2l0.2,5.2h0.2c1.2-3.5,4.1-5.8,7.3-5.8c0.5,0,0.9,0.1,1.4,0.2v4.5 c-0.5-0.1-1-0.2-1.6-0.2c-3.4,0-5.8,2.6-6.5,6.2c-0.1,0.7-0.2,1.4-0.2,2.2V51h-4.8V32.8z"/><path fill="#FFFFFF" d="M95.4,51l-9.4-36.8h5l4.4,18.6c1.1,4.6,2.1,9.2,2.7,12.7h0.1c0.6-3.7,1.8-8,3-12.8l4.9-18.5h5l4.5,18.7 c1,4.4,2,8.7,2.6,12.6h0.1c0.8-4,1.8-8.1,3-12.7l4.9-18.5h4.9L120.6,51h-5L111,31.9c-1.1-4.7-1.9-8.3-2.4-12h-0.1 c-0.7,3.7-1.5,7.3-2.8,12L100.4,51H95.4z"/><path fill="#FFFFFF" d="M154.9,37.6c0,9.8-6.8,14-13.2,14c-7.2,0-12.7-5.2-12.7-13.6c0-8.8,5.8-14,13.1-14 C149.8,24,154.9,29.5,154.9,37.6z M133.9,37.9c0,5.8,3.3,10.1,8,10.1c4.6,0,8-4.3,8-10.3c0-4.5-2.2-10.1-7.9-10.1 C136.3,27.6,133.9,32.8,133.9,37.9z"/><path fill="#FFFFFF" d="M158.2,32.8c0-3.1-0.1-5.8-0.2-8.2h4.2l0.2,5.2h0.2c1.2-3.5,4.1-5.8,7.3-5.8c0.5,0,0.9,0.1,1.4,0.2v4.5 c-0.5-0.1-1-0.2-1.6-0.2c-3.4,0-5.8,2.6-6.5,6.2c-0.1,0.7-0.2,1.4-0.2,2.2V51h-4.8V32.8z"/><path fill="#FFFFFF" d="M173.5,12.3h4.8V51h-4.8V12.3z"/><path fill="#FFFFFF" d="M206.5,12.3v31.9c0,2.3,0.1,5,0.2,6.8h-4.3l-0.2-4.6H202c-1.5,2.9-4.7,5.2-9,5.2 c-6.4,0-11.3-5.4-11.3-13.4c-0.1-8.8,5.4-14.2,11.9-14.2c4,0,6.8,1.9,8,4h0.1V12.3H206.5z M201.7,35.4c0-0.6-0.1-1.4-0.2-2 c-0.7-3.1-3.3-5.6-6.9-5.6c-5,0-7.9,4.4-7.9,10.2c0,5.3,2.6,9.8,7.8,9.8c3.2,0,6.2-2.1,7.1-5.7c0.2-0.7,0.2-1.3,0.2-2.1V35.4z"/><path fill="#FFFFFF" d="M42.8,64c0.1,1.6-1.1,2.9-3.1,2.9c-1.7,0-2.9-1.3-2.9-2.9c0-1.7,1.3-3,3-3C41.7,61,42.8,62.3,42.8,64z M37.4,97.8V71.4h4.8v26.4H37.4z"/><path fill="#FFFFFF" d="M47.5,78.6c0-2.7-0.1-5-0.2-7.1h4.3l0.3,4.4h0.1c1.3-2.5,4.4-5,8.8-5c3.7,0,9.4,2.2,9.4,11.2v15.8h-4.8 V82.6c0-4.3-1.6-7.8-6.1-7.8c-3.2,0-5.6,2.2-6.5,4.9c-0.2,0.6-0.3,1.4-0.3,2.2v15.9h-4.8V78.6z"/><path fill="#FFFFFF" d="M84,61.6c2.9-0.4,6.3-0.8,10.1-0.8c6.8,0,11.7,1.6,14.9,4.6c3.3,3,5.2,7.3,5.2,13.2c0,6-1.9,10.9-5.3,14.3 c-3.4,3.4-9.1,5.3-16.3,5.3c-3.4,0-6.2-0.2-8.6-0.4V61.6z M88.8,94.1c1.2,0.2,3,0.3,4.8,0.3c10.2,0,15.7-5.7,15.7-15.6 c0.1-8.7-4.9-14.2-14.9-14.2c-2.5,0-4.3,0.2-5.6,0.5V94.1z"/><path fill="#FFFFFF" d="M132.1,97.8l-0.4-3.3h-0.2c-1.5,2.1-4.3,3.9-8.1,3.9c-5.4,0-8.1-3.8-8.1-7.6c0-6.4,5.7-9.9,15.9-9.8v-0.5 c0-2.2-0.6-6.1-6-6.1c-2.5,0-5,0.8-6.9,2l-1.1-3.2c2.2-1.4,5.4-2.3,8.7-2.3c8.1,0,10.1,5.5,10.1,10.8v9.9c0,2.3,0.1,4.5,0.4,6.3 H132.1z M131.4,84.4c-5.3-0.1-11.2,0.8-11.2,5.9c0,3.1,2.1,4.6,4.5,4.6c3.4,0,5.6-2.2,6.4-4.4c0.2-0.5,0.3-1,0.3-1.5V84.4z"/><path fill="#FFFFFF" d="M146.6,63.9v7.6h6.9v3.7h-6.9v14.2c0,3.3,0.9,5.1,3.6,5.1c1.3,0,2.2-0.2,2.8-0.3l0.2,3.6 c-0.9,0.4-2.4,0.7-4.3,0.7c-2.2,0-4-0.7-5.2-2c-1.4-1.4-1.9-3.8-1.9-6.9V75.1h-4.1v-3.7h4.1v-6.3L146.6,63.9z"/><path fill="#FFFFFF" d="M171.4,97.8l-0.4-3.3h-0.2c-1.5,2.1-4.3,3.9-8.1,3.9c-5.4,0-8.1-3.8-8.1-7.6c0-6.4,5.7-9.9,15.9-9.8v-0.5 c0-2.2-0.6-6.1-6-6.1c-2.5,0-5,0.8-6.9,2l-1.1-3.2c2.2-1.4,5.4-2.3,8.7-2.3c8.1,0,10.1,5.5,10.1,10.8v9.9c0,2.3,0.1,4.5,0.4,6.3 H171.4z M170.7,84.4c-5.3-0.1-11.2,0.8-11.2,5.9c0,3.1,2.1,4.6,4.5,4.6c3.4,0,5.6-2.2,6.4-4.4c0.2-0.5,0.3-1,0.3-1.5V84.4z"/></g></g></a></g><a href="https://ourworldindata.org/grapher/total-healthcare-expenditure-as-share-of-national-gdp-by-country" target="_blank"><text font-size="24.30" x="15.0" y="34.4" fill="#555"><tspan x="15" y="34.44">Total Healthcare Expenditure as Share of National GDP by Country</tspan></text></a><text font-size="14.40" x="15.0" y="52.8" fill="#666"><tspan x="15" y="52.81999999999999">Total Healthcare expenditure by country (% of corresponding national GDP) </tspan></text></g><g class="LineChart"><defs><clipPath id="boundsClip-993"><rect x="42.562" y="0" width="830" height="961.5999999999999"></rect></clipPath></defs><g class="AxisBoxView"><g class="HorizontalAxis"><text x="52.6" y="556.5" fill="#666" text-anchor="middle" font-size="16.2">1995</text><text x="234.6" y="556.5" fill="#666" text-anchor="middle" font-size="16.2">2000</text><text x="416.7" y="556.5" fill="#666" text-anchor="middle" font-size="16.2">2005</text><text x="598.7" y="556.5" fill="#666" text-anchor="middle" font-size="16.2">2010</text><text x="744.4" y="556.5" fill="#666" text-anchor="middle" font-size="16.2">2014</text></g><g class="VerticalAxis"><text x="47.56" y="535.3" fill="#666" dominant-baseline="middle" text-anchor="end" font-size="16.2">0%</text><text x="47.56" y="454.7" fill="#666" dominant-baseline="middle" text-anchor="end" font-size="16.2">2%</text><text x="47.56" y="374.1" fill="#666" dominant-baseline="middle" text-anchor="end" font-size="16.2">4%</text><text x="47.56" y="293.5" fill="#666" dominant-baseline="middle" text-anchor="end" font-size="16.2">6%</text><text x="47.56" y="212.9" fill="#666" dominant-baseline="middle" text-anchor="end" font-size="16.2">8%</text><text x="47.56" y="132.3" fill="#666" dominant-baseline="middle" text-anchor="end" font-size="16.2">10%</text></g><g class="AxisGridLines"><line x1="52.56" y1="535.3" x2="744.38" y2="535.3" stroke="#ccc"></line><line x1="52.56" y1="454.7" x2="744.38" y2="454.7" stroke="#ddd" stroke-dasharray="3,2"></line><line x1="52.56" y1="374.1" x2="744.38" y2="374.1" stroke="#ddd" stroke-dasharray="3,2"></line><line x1="52.56" y1="293.5" x2="744.38" y2="293.5" stroke="#ddd" stroke-dasharray="3,2"></line><line x1="52.56" y1="212.9" x2="744.38" y2="212.9" stroke="#ddd" stroke-dasharray="3,2"></line><line x1="52.56" y1="132.3" x2="744.38" y2="132.3" stroke="#ddd" stroke-dasharray="3,2"></line></g></g><g clip-path="url(#boundsClip-993)"><g class="HeightedLegend clickable"><g class="legendMark"><rect x="744.38" y="73.25" width="90.62" height="13.5" fill="#fff" opacity="0"></rect><text font-size="13.50" x="749.4" y="84.0" fill="#a652ba"><tspan x="749.38" y="84.05">Germany</tspan></text></g><g class="legendMark"><rect x="744.38" y="214.75" width="65.78" height="13.5" fill="#fff" opacity="0"></rect><text font-size="13.50" x="749.4" y="225.6" fill="#f6a324"><tspan x="749.38" y="225.55">Chile</tspan></text></g><g class="legendMark"><rect x="744.38" y="304.95" width="70.37" height="13.5" fill="#fff" opacity="0"></rect><text font-size="13.50" x="749.4" y="315.8" fill="#34983f"><tspan x="749.38" y="315.75">China</tspan></text></g><g class="legendMark"><rect x="744.38" y="339.75" width="64.43" height="13.5" fill="#fff" opacity="0"></rect><text font-size="13.50" x="749.4" y="350.6" fill="#ca2628"><tspan x="749.38" y="350.55">India</tspan></text></g><g class="legendMark"><rect x="744.38" y="385.15" width="75.77000000000001" height="13.5" fill="#fff" opacity="0"></rect><text font-size="13.50" x="749.4" y="395.9" fill="#3360a9"><tspan x="749.38" y="395.95">Ghana</tspan></text></g></g><g class="Lines"><rect x="53" y="76" width="692" height="460" fill="rgba(255,255,255,0)" opacity="0"></rect><g class="key-Chile_0"><path stroke="#f6a324" stroke-linecap="round" d="M53 328L89 307L125 303L162 284L198 278L235 278L271 273L307 274L344 240L380 256L417 266L453 286L490 280L526 259L562 237L599 254L635 253L672 244L708 232L744 222" fill="none" stroke-width="1.5"></path><g fill="#f6a324"><circle cx="53" cy="328" r="2"></circle><circle cx="89" cy="307" r="2"></circle><circle cx="125" cy="303" r="2"></circle><circle cx="162" cy="284" r="2"></circle><circle cx="198" cy="278" r="2"></circle><circle cx="235" cy="278" r="2"></circle><circle cx="271" cy="273" r="2"></circle><circle cx="307" cy="274" r="2"></circle><circle cx="344" cy="240" r="2"></circle><circle cx="380" cy="256" r="2"></circle><circle cx="417" cy="266" r="2"></circle><circle cx="453" cy="286" r="2"></circle><circle cx="490" cy="280" r="2"></circle><circle cx="526" cy="259" r="2"></circle><circle cx="562" cy="237" r="2"></circle><circle cx="599" cy="254" r="2"></circle><circle cx="635" cy="253" r="2"></circle><circle cx="672" cy="244" r="2"></circle><circle cx="708" cy="232" r="2"></circle><circle cx="744" cy="222" r="2"></circle></g></g><g class="key-China_0"><path stroke="#34983f" stroke-linecap="round" d="M53 393L89 383L125 373L162 361L198 354L235 350L271 352L307 342L344 341L380 345L417 348L453 353L490 361L526 350L562 331L599 338L635 333L672 323L708 318L744 312" fill="none" stroke-width="1.5"></path><g fill="#34983f"><circle cx="53" cy="393" r="2"></circle><circle cx="89" cy="383" r="2"></circle><circle cx="125" cy="373" r="2"></circle><circle cx="162" cy="361" r="2"></circle><circle cx="198" cy="354" r="2"></circle><circle cx="235" cy="350" r="2"></circle><circle cx="271" cy="352" r="2"></circle><circle cx="307" cy="342" r="2"></circle><circle cx="344" cy="341" r="2"></circle><circle cx="380" cy="345" r="2"></circle><circle cx="417" cy="348" r="2"></circle><circle cx="453" cy="353" r="2"></circle><circle cx="490" cy="361" r="2"></circle><circle cx="526" cy="350" r="2"></circle><circle cx="562" cy="331" r="2"></circle><circle cx="599" cy="338" r="2"></circle><circle cx="635" cy="333" r="2"></circle><circle cx="672" cy="323" r="2"></circle><circle cx="708" cy="318" r="2"></circle><circle cx="744" cy="312" r="2"></circle></g></g><g class="key-Ghana_0"><path stroke="#3360a9" stroke-linecap="round" d="M53 411L89 396L125 415L162 405L198 411L235 415L271 392L307 411L344 409L380 376L417 354L453 348L490 322L526 340L562 327L599 320L635 342L672 342L708 349L744 392" fill="none" stroke-width="1.5"></path><g fill="#3360a9"><circle cx="53" cy="411" r="2"></circle><circle cx="89" cy="396" r="2"></circle><circle cx="125" cy="415" r="2"></circle><circle cx="162" cy="405" r="2"></circle><circle cx="198" cy="411" r="2"></circle><circle cx="235" cy="415" r="2"></circle><circle cx="271" cy="392" r="2"></circle><circle cx="307" cy="411" r="2"></circle><circle cx="344" cy="409" r="2"></circle><circle cx="380" cy="376" r="2"></circle><circle cx="417" cy="354" r="2"></circle><circle cx="453" cy="348" r="2"></circle><circle cx="490" cy="322" r="2"></circle><circle cx="526" cy="340" r="2"></circle><circle cx="562" cy="327" r="2"></circle><circle cx="599" cy="320" r="2"></circle><circle cx="635" cy="342" r="2"></circle><circle cx="672" cy="342" r="2"></circle><circle cx="708" cy="349" r="2"></circle><circle cx="744" cy="392" r="2"></circle></g></g><g class="key-India_0"><path stroke="#ca2628" stroke-linecap="round" d="M53 373L89 378L125 364L162 362L198 373L235 364L271 354L307 358L344 362L380 365L417 363L453 364L490 365L526 360L562 359L599 363L635 361L672 358L708 353L744 347" fill="none" stroke-width="1.5"></path><g fill="#ca2628"><circle cx="53" cy="373" r="2"></circle><circle cx="89" cy="378" r="2"></circle><circle cx="125" cy="364" r="2"></circle><circle cx="162" cy="362" r="2"></circle><circle cx="198" cy="373" r="2"></circle><circle cx="235" cy="364" r="2"></circle><circle cx="271" cy="354" r="2"></circle><circle cx="307" cy="358" r="2"></circle><circle cx="344" cy="362" r="2"></circle><circle cx="380" cy="365" r="2"></circle><circle cx="417" cy="363" r="2"></circle><circle cx="453" cy="364" r="2"></circle><circle cx="490" cy="365" r="2"></circle><circle cx="526" cy="360" r="2"></circle><circle cx="562" cy="359" r="2"></circle><circle cx="599" cy="363" r="2"></circle><circle cx="635" cy="361" r="2"></circle><circle cx="672" cy="358" r="2"></circle><circle cx="708" cy="353" r="2"></circle><circle cx="744" cy="347" r="2"></circle></g></g><g class="key-Germany_0"><path stroke="#a652ba" stroke-linecap="round" d="M53 155L89 136L125 131L162 130L198 130L235 128L271 126L307 116L344 107L380 117L417 111L453 119L490 125L526 116L562 76L599 82L635 95L672 92L708 85L744 80" fill="none" stroke-width="1.5"></path><g fill="#a652ba"><circle cx="53" cy="155" r="2"></circle><circle cx="89" cy="136" r="2"></circle><circle cx="125" cy="131" r="2"></circle><circle cx="162" cy="130" r="2"></circle><circle cx="198" cy="130" r="2"></circle><circle cx="235" cy="128" r="2"></circle><circle cx="271" cy="126" r="2"></circle><circle cx="307" cy="116" r="2"></circle><circle cx="344" cy="107" r="2"></circle><circle cx="380" cy="117" r="2"></circle><circle cx="417" cy="111" r="2"></circle><circle cx="453" cy="119" r="2"></circle><circle cx="490" cy="125" r="2"></circle><circle cx="526" cy="116" r="2"></circle><circle cx="562" cy="76" r="2"></circle><circle cx="599" cy="82" r="2"></circle><circle cx="635" cy="95" r="2"></circle><circle cx="672" cy="92" r="2"></circle><circle cx="708" cy="85" r="2"></circle><circle cx="744" cy="80" r="2"></circle></g></g></g></g></g><g style="fill: #777;" class="SourcesFooter"><g style="fill: #777;" class="clickable"><text font-size="12.60" x="15.0" y="581.6"><tspan x="15" y="581.58">Source: World Bank – WDI</tspan></text></g><text font-size="12.60" x="528.1" y="581.6"><tspan x="528.0640000000001" y="581.58"><a target='_blank' style='fill: #777;' href='https://ourworldindata.org/financing-healthcare/'>OurWorldInData.org/financing-healthcare/</a> • <a style="fill: #777;" class="cclogo" href="http://creativecommons.org/licenses/by-sa/4.0/deed.en_US" target="_blank">CC BY-SA</a></tspan></text></g></g></svg>