<svg xmlns="http://www.w3.org/2000/svg" version="1.1" style="font-family: 'Helvetica Neue', Helvetica, Arial, sans-serif; font-size: 18px; background-color: white; text-rendering: optimizeLegibility; -webkit-font-smoothing: antialiased;" width="850" height="600"><g class="ChartTab"><g class="HeaderView"><g opacity="0.8" transform="translate(778, 15) scale(0.27)"><a xmlns:xlink="http://www.w3.org/1999/xlink" xlink:href="https://ourworldindata.org" target="_blank"><g><rect x="0" y="0" fill="#1B2543" width="211.2" height="130.1"/><rect x="0" y="112.2" fill="#E63912" width="211.2" height="17.9"/><g><rect x="1.2" y="12.3" fill="none" width="210.2" height="99.2"/><path fill="#FFFFFF" d="M37.8,32.2c0,12.7-7.7,19.4-17.1,19.4c-9.7,0-16.6-7.5-16.6-18.7c0-11.7,7.3-19.3,17.1-19.3 C31.3,13.7,37.8,21.3,37.8,32.2z M9.2,32.8c0,7.9,4.3,14.9,11.8,14.9c7.5,0,11.8-6.9,11.8-15.3c0-7.3-3.8-14.9-11.8-14.9 C13.1,17.5,9.2,24.8,9.2,32.8z"/><path fill="#FFFFFF" d="M62.7,43.8c0,2.7,0.1,5.1,0.2,7.2h-4.3l-0.3-4.3h-0.1c-1.3,2.1-4,4.9-8.8,4.9c-4.2,0-9.1-2.3-9.1-11.6 V24.6h4.8v14.6c0,5,1.5,8.4,5.9,8.4c3.2,0,5.5-2.2,6.3-4.4c0.3-0.7,0.4-1.6,0.4-2.5V24.6h4.8V43.8z"/><path fill="#FFFFFF" d="M67.3,32.8c0-3.1-0.1-5.8-0.2-8.2h4.2l0.2,5.2h0.2c1.2-3.5,4.1-5.8,7.3-5.8c0.5,0,0.9,0.1,1.4,0.2v4.5 c-0.5-0.1-1-0.2-1.6-0.2c-3.4,0-5.8,2.6-6.5,6.2c-0.1,0.7-0.2,1.4-0.2,2.2V51h-4.8V32.8z"/><path fill="#FFFFFF" d="M95.4,51l-9.4-36.8h5l4.4,18.6c1.1,4.6,2.1,9.2,2.7,12.7h0.1c0.6-3.7,1.8-8,3-12.8l4.9-18.5h5l4.5,18.7 c1,4.4,2,8.7,2.6,12.6h0.1c0.8-4,1.8-8.1,3-12.7l4.9-18.5h4.9L120.6,51h-5L111,31.9c-1.1-4.7-1.9-8.3-2.4-12h-0.1 c-0.7,3.7-1.5,7.3-2.8,12L100.4,51H95.4z"/><path fill="#FFFFFF" d="M154.9,37.6c0,9.8-6.8,14-13.2,14c-7.2,0-12.7-5.2-12.7-13.6c0-8.8,5.8-14,13.1-14 C149.8,24,154.9,29.5,154.9,37.6z M133.9,37.9c0,5.8,3.3,10.1,8,10.1c4.6,0,8-4.3,8-10.3c0-4.5-2.2-10.1-7.9-10.1 C136.3,27.6,133.9,32.8,133.9,37.9z"/><path fill="#FFFFFF" d="M158.2,32.8c0-3.1-0.1-5.8-0.2-8.2h4.2l0.2,5.2h0.2c1.2-3.5,4.1-5.8,7.3-5.8c0.5,0,0.9,0.1,1.4,0.2v4.5 c-0.5-0.1-1-0.2-1.6-0.2c-3.4,0-5.8,2.6-6.5,6.2c-0.1,0.7-0.2,1.4-0.2,2.2V51h-4.8V32.8z"/><path fill="#FFFFFF" d="M173.5,12.3h4.8V51h-4.8V12.3z"/><path fill="#FFFFFF" d="M206.5,12.3v31.9c0,2.3,0.1,5,0.2,6.8h-4.3l-0.2-4.6H202c-1.5,2.9-4.7,5.2-9,5.2 c-6.4,0-11.3-5.4-11.3-13.4c-0.1-8.8,5.4-14.2,11.9-14.2c4,0,6.8,1.9,8,4h0.1V12.3H206.5z M201.7,35.4c0-0.6-0.1-1.4-0.2-2 c-0.7-3.1-3.3-5.6-6.9-5.6c-5,0-7.9,4.4-7.9,10.2c0,5.3,2.6,9.8,7.8,9.8c3.2,0,6.2-2.1,7.1-5.7c0.2-0.7,0.2-1.3,0.2-2.1V35.4z"/><path fill="#FFFFFF" d="M42.8,64c0.1,1.6-1.1,2.9-3.1,2.9c-1.7,0-2.9-1.3-2.9-2.9c0-1.7,1.3-3,3-3C41.7,61,42.8,62.3,42.8,64z M37.4,97.8V71.4h4.8v26.4H37.4z"/><path fill="#FFFFFF" d="M47.5,78.6c0-2.7-0.1-5-0.2-7.1h4.3l0.3,4.4h0.1c1.3-2.5,4.4-5,8.8-5c3.7,0,9.4,2.2,9.4,11.2v15.8h-4.8 V82.6c0-4.3-1.6-7.8-6.1-7.8c-3.2,0-5.6,2.2-6.5,4.9c-0.2,0.6-0.3,1.4-0.3,2.2v15.9h-4.8V78.6z"/><path fill="#FFFFFF" d="M84,61.6c2.9-0.4,6.3-0.8,10.1-0.8c6.8,0,11.7,1.6,14.9,4.6c3.3,3,5.2,7.3,5.2,13.2c0,6-1.9,10.9-5.3,14.3 c-3.4,3.4-9.1,5.3-16.3,5.3c-3.4,0-6.2-0.2-8.6-0.4V61.6z M88.8,94.1c1.2,0.2,3,0.3,4.8,0.3c10.2,0,15.7-5.7,15.7-15.6 c0.1-8.7-4.9-14.2-14.9-14.2c-2.5,0-4.3,0.2-5.6,0.5V94.1z"/><path fill="#FFFFFF" d="M132.1,97.8l-0.4-3.3h-0.2c-1.5,2.1-4.3,3.9-8.1,3.9c-5.4,0-8.1-3.8-8.1-7.6c0-6.4,5.7-9.9,15.9-9.8v-0.5 c0-2.2-0.6-6.1-6-6.1c-2.5,0-5,0.8-6.9,2l-1.1-3.2c2.2-1.4,5.4-2.3,8.7-2.3c8.1,0,10.1,5.5,10.1,10.8v9.9c0,2.3,0.1,4.5,0.4,6.3 H132.1z M131.4,84.4c-5.3-0.1-11.2,0.8-11.2,5.9c0,3.1,2.1,4.6,4.5,4.6c3.4,0,5.6-2.2,6.4-4.4c0.2-0.5,0.3-1,0.3-1.5V84.4z"/><path fill="#FFFFFF" d="M146.6,63.9v7.6h6.9v3.7h-6.9v14.2c0,3.3,0.9,5.1,3.6,5.1c1.3,0,2.2-0.2,2.8-0.3l0.2,3.6 c-0.9,0.4-2.4,0.7-4.3,0.7c-2.2,0-4-0.7-5.2-2c-1.4-1.4-1.9-3.8-1.9-6.9V75.1h-4.1v-3.7h4.1v-6.3L146.6,63.9z"/><path fill="#FFFFFF" d="M171.4,97.8l-0.4-3.3h-0.2c-1.5,2.1-4.3,3.9-8.1,3.9c-5.4,0-8.1-3.8-8.1-7.6c0-6.4,5.7-9.9,15.9-9.8v-0.5 c0-2.2-0.6-6.1-6-6.1c-2.5,0-5,0.8-6.9,2l-1.1-3.2c2.2-1.4,5.4-2.3,8.7-2.3c8.1,0,10.1,5.5,10.1,10.8v9.9c0,2.3,0.1,4.5,0.4,6.3 H171.4z M170.7,84.4c-5.3-0.1-11.2,0.8-11.2,5.9c0,3.1,2.1,4.6,4.5,4.6c3.4,0,5.6-2.2,6.4-4.4c0.2-0.5,0.3-1,0.3-1.5V84.4z"/></g></g></a></g><a href="https://ourworldindata.org/grapher/tractors-per-100-square-kilometres-of-arable-land" target="_blank"><text font-size="25.20" x="15.0" y="35.2" fill="#555"><tspan x="15" y="35.160000000000004">Tractors per 100 square kilometres of arable land</tspan></text></a><text font-size="14.40" x="15.0" y="53.7" fill="#666"><tspan x="15" y="53.72">Tractors used in agriculture per 100 square kilometres of arable land.</tspan></text></g><g class="LineChart"><defs><clipPath id="boundsClip-1009"><rect x="37.216" y="0" width="830" height="959.8"></rect></clipPath></defs><g class="AxisBoxView"><g class="HorizontalAxis"><text x="47.2" y="556.5" fill="#666" text-anchor="middle" font-size="16.2">1961</text><text x="200.8" y="556.5" fill="#666" text-anchor="middle" font-size="16.2">1970</text><text x="371.4" y="556.5" fill="#666" text-anchor="middle" font-size="16.2">1980</text><text x="542" y="556.5" fill="#666" text-anchor="middle" font-size="16.2">1990</text><text x="712.6" y="556.5" fill="#666" text-anchor="middle" font-size="16.2">2000</text><text x="815" y="556.5" fill="#666" text-anchor="middle" font-size="16.2">2006</text></g><g class="VerticalAxis"><text x="42.22" y="535.3" fill="#666" dominant-baseline="middle" text-anchor="end" font-size="16.2">0</text><text x="42.22" y="478.9" fill="#666" dominant-baseline="middle" text-anchor="end" font-size="16.2">100</text><text x="42.22" y="422.5" fill="#666" dominant-baseline="middle" text-anchor="end" font-size="16.2">200</text><text x="42.22" y="366.1" fill="#666" dominant-baseline="middle" text-anchor="end" font-size="16.2">300</text><text x="42.22" y="309.7" fill="#666" dominant-baseline="middle" text-anchor="end" font-size="16.2">400</text><text x="42.22" y="253.4" fill="#666" dominant-baseline="middle" text-anchor="end" font-size="16.2">500</text><text x="42.22" y="197" fill="#666" dominant-baseline="middle" text-anchor="end" font-size="16.2">600</text><text x="42.22" y="140.6" fill="#666" dominant-baseline="middle" text-anchor="end" font-size="16.2">700</text><text x="42.22" y="84.2" fill="#666" dominant-baseline="middle" text-anchor="end" font-size="16.2">800</text></g><g class="AxisGridLines"><line x1="47.22" y1="535.3" x2="815.00" y2="535.3" stroke="#ccc"></line><line x1="47.22" y1="478.9" x2="815.00" y2="478.9" stroke="#ddd" stroke-dasharray="3,2"></line><line x1="47.22" y1="422.5" x2="815.00" y2="422.5" stroke="#ddd" stroke-dasharray="3,2"></line><line x1="47.22" y1="366.1" x2="815.00" y2="366.1" stroke="#ddd" stroke-dasharray="3,2"></line><line x1="47.22" y1="309.7" x2="815.00" y2="309.7" stroke="#ddd" stroke-dasharray="3,2"></line><line x1="47.22" y1="253.4" x2="815.00" y2="253.4" stroke="#ddd" stroke-dasharray="3,2"></line><line x1="47.22" y1="197" x2="815.00" y2="197" stroke="#ddd" stroke-dasharray="3,2"></line><line x1="47.22" y1="140.6" x2="815.00" y2="140.6" stroke="#ddd" stroke-dasharray="3,2"></line><line x1="47.22" y1="84.2" x2="815.00" y2="84.2" stroke="#ddd" stroke-dasharray="3,2"></line></g></g><g clip-path="url(#boundsClip-1009)"><g class="Lines"><rect x="47" y="77" width="768" height="459" fill="rgba(255,255,255,0)" opacity="0"></rect><g class="key-World_0"><path stroke="#2a939b" stroke-linecap="round" d="M47 481L64 479L81 477L98 475L116 474L133 468L150 466L167 465L184 464L201 463L218 461L235 459L252 457L269 454L286 450L303 447L320 444L337 441L354 439L371 435L389 433L406 432L423 430L440 429L457 427L474 426L491 424L576 431L593 431L610 430L627 430L644 429L661 428" fill="none" stroke-width="1.5"></path><g fill="#2a939b"><circle cx="47" cy="481" r="2"></circle><circle cx="64" cy="479" r="2"></circle><circle cx="81" cy="477" r="2"></circle><circle cx="98" cy="475" r="2"></circle><circle cx="116" cy="474" r="2"></circle><circle cx="133" cy="468" r="2"></circle><circle cx="150" cy="466" r="2"></circle><circle cx="167" cy="465" r="2"></circle><circle cx="184" cy="464" r="2"></circle><circle cx="201" cy="463" r="2"></circle><circle cx="218" cy="461" r="2"></circle><circle cx="235" cy="459" r="2"></circle><circle cx="252" cy="457" r="2"></circle><circle cx="269" cy="454" r="2"></circle><circle cx="286" cy="450" r="2"></circle><circle cx="303" cy="447" r="2"></circle><circle cx="320" cy="444" r="2"></circle><circle cx="337" cy="441" r="2"></circle><circle cx="354" cy="439" r="2"></circle><circle cx="371" cy="435" r="2"></circle><circle cx="389" cy="433" r="2"></circle><circle cx="406" cy="432" r="2"></circle><circle cx="423" cy="430" r="2"></circle><circle cx="440" cy="429" r="2"></circle><circle cx="457" cy="427" r="2"></circle><circle cx="474" cy="426" r="2"></circle><circle cx="491" cy="424" r="2"></circle><circle cx="576" cy="431" r="2"></circle><circle cx="593" cy="431" r="2"></circle><circle cx="610" cy="430" r="2"></circle><circle cx="627" cy="430" r="2"></circle><circle cx="644" cy="429" r="2"></circle><circle cx="661" cy="428" r="2"></circle></g></g><g class="key-East-Asia-__0026-Pacific_0"><path stroke="#f6a324" stroke-linecap="round" d="M47 523L64 522L81 522L98 521L116 520L133 518L150 516L167 513L184 510L201 511L218 510L235 508L252 506L269 499L286 493L303 488L320 481L337 473L354 469L371 454L389 454L406 451L423 451L440 451" fill="none" stroke-width="1.5"></path><g fill="#f6a324"><circle cx="47" cy="523" r="2"></circle><circle cx="64" cy="522" r="2"></circle><circle cx="81" cy="522" r="2"></circle><circle cx="98" cy="521" r="2"></circle><circle cx="116" cy="520" r="2"></circle><circle cx="133" cy="518" r="2"></circle><circle cx="150" cy="516" r="2"></circle><circle cx="167" cy="513" r="2"></circle><circle cx="184" cy="510" r="2"></circle><circle cx="201" cy="511" r="2"></circle><circle cx="218" cy="510" r="2"></circle><circle cx="235" cy="508" r="2"></circle><circle cx="252" cy="506" r="2"></circle><circle cx="269" cy="499" r="2"></circle><circle cx="286" cy="493" r="2"></circle><circle cx="303" cy="488" r="2"></circle><circle cx="320" cy="481" r="2"></circle><circle cx="337" cy="473" r="2"></circle><circle cx="354" cy="469" r="2"></circle><circle cx="371" cy="454" r="2"></circle><circle cx="389" cy="454" r="2"></circle><circle cx="406" cy="451" r="2"></circle><circle cx="423" cy="451" r="2"></circle><circle cx="440" cy="451" r="2"></circle></g></g><g class="key-Latin-America-__0026-Caribbean_0"><path stroke="#34983f" stroke-linecap="round" d="M47 511L64 509L81 508L98 507L116 505L133 505L150 504L167 504L184 503L201 502L218 501L235 500L252 499L269 499L286 494L303 494L320 492L337 490L354 486L371 484L389 479L406 479L423 478L440 477L457 475L474 472L491 470L508 467L525 466L542 466L559 465L576 465L593 465L610 465L627 468" fill="none" stroke-width="1.5"></path><g fill="#34983f"><circle cx="47" cy="511" r="2"></circle><circle cx="64" cy="509" r="2"></circle><circle cx="81" cy="508" r="2"></circle><circle cx="98" cy="507" r="2"></circle><circle cx="116" cy="505" r="2"></circle><circle cx="133" cy="505" r="2"></circle><circle cx="150" cy="504" r="2"></circle><circle cx="167" cy="504" r="2"></circle><circle cx="184" cy="503" r="2"></circle><circle cx="201" cy="502" r="2"></circle><circle cx="218" cy="501" r="2"></circle><circle cx="235" cy="500" r="2"></circle><circle cx="252" cy="499" r="2"></circle><circle cx="269" cy="499" r="2"></circle><circle cx="286" cy="494" r="2"></circle><circle cx="303" cy="494" r="2"></circle><circle cx="320" cy="492" r="2"></circle><circle cx="337" cy="490" r="2"></circle><circle cx="354" cy="486" r="2"></circle><circle cx="371" cy="484" r="2"></circle><circle cx="389" cy="479" r="2"></circle><circle cx="406" cy="479" r="2"></circle><circle cx="423" cy="478" r="2"></circle><circle cx="440" cy="477" r="2"></circle><circle cx="457" cy="475" r="2"></circle><circle cx="474" cy="472" r="2"></circle><circle cx="491" cy="470" r="2"></circle><circle cx="508" cy="467" r="2"></circle><circle cx="525" cy="466" r="2"></circle><circle cx="542" cy="466" r="2"></circle><circle cx="559" cy="465" r="2"></circle><circle cx="576" cy="465" r="2"></circle><circle cx="593" cy="465" r="2"></circle><circle cx="610" cy="465" r="2"></circle><circle cx="627" cy="468" r="2"></circle></g></g><g class="key-European-Union_0"><path stroke="#9ecc8a" stroke-linecap="round" d="M47 378L64 365L81 351L98 336L116 323L133 310L150 299L167 287L184 274L201 264L218 247L235 237L252 226L269 217L286 206L303 197L320 187L337 179L354 167L371 154L389 146L406 138L423 129L440 125L457 115L474 109L491 104L508 96L525 89L542 88L559 86L576 110L593 121L610 111L627 105L644 107L661 108L679 106L696 105L713 100L730 89L747 77L764 142L781 142L798 136" fill="none" stroke-width="1.5"></path><g fill="#9ecc8a"><circle cx="47" cy="378" r="2"></circle><circle cx="64" cy="365" r="2"></circle><circle cx="81" cy="351" r="2"></circle><circle cx="98" cy="336" r="2"></circle><circle cx="116" cy="323" r="2"></circle><circle cx="133" cy="310" r="2"></circle><circle cx="150" cy="299" r="2"></circle><circle cx="167" cy="287" r="2"></circle><circle cx="184" cy="274" r="2"></circle><circle cx="201" cy="264" r="2"></circle><circle cx="218" cy="247" r="2"></circle><circle cx="235" cy="237" r="2"></circle><circle cx="252" cy="226" r="2"></circle><circle cx="269" cy="217" r="2"></circle><circle cx="286" cy="206" r="2"></circle><circle cx="303" cy="197" r="2"></circle><circle cx="320" cy="187" r="2"></circle><circle cx="337" cy="179" r="2"></circle><circle cx="354" cy="167" r="2"></circle><circle cx="371" cy="154" r="2"></circle><circle cx="389" cy="146" r="2"></circle><circle cx="406" cy="138" r="2"></circle><circle cx="423" cy="129" r="2"></circle><circle cx="440" cy="125" r="2"></circle><circle cx="457" cy="115" r="2"></circle><circle cx="474" cy="109" r="2"></circle><circle cx="491" cy="104" r="2"></circle><circle cx="508" cy="96" r="2"></circle><circle cx="525" cy="89" r="2"></circle><circle cx="542" cy="88" r="2"></circle><circle cx="559" cy="86" r="2"></circle><circle cx="576" cy="110" r="2"></circle><circle cx="593" cy="121" r="2"></circle><circle cx="610" cy="111" r="2"></circle><circle cx="627" cy="105" r="2"></circle><circle cx="644" cy="107" r="2"></circle><circle cx="661" cy="108" r="2"></circle><circle cx="679" cy="106" r="2"></circle><circle cx="696" cy="105" r="2"></circle><circle cx="713" cy="100" r="2"></circle><circle cx="730" cy="89" r="2"></circle><circle cx="747" cy="77" r="2"></circle><circle cx="764" cy="142" r="2"></circle><circle cx="781" cy="142" r="2"></circle><circle cx="798" cy="136" r="2"></circle></g></g><g class="key-South-Asia_0"><path stroke="#ca2628" stroke-linecap="round" d="M47 534L64 534L81 534L98 534L116 534L133 533L150 533L167 533L184 532L201 532L218 530L235 529L252 529L269 529L286 528L303 527L320 525L337 524L354 522L371 522L389 521L406 520L423 518L440 517L457 515L474 513L491 512L508 509L525 504L542 502L559 500L576 497L593 496L610 495L627 491L644 486L661 482L679 478L696 473L713 470" fill="none" stroke-width="1.5"></path><g fill="#ca2628"><circle cx="47" cy="534" r="2"></circle><circle cx="64" cy="534" r="2"></circle><circle cx="81" cy="534" r="2"></circle><circle cx="98" cy="534" r="2"></circle><circle cx="116" cy="534" r="2"></circle><circle cx="133" cy="533" r="2"></circle><circle cx="150" cy="533" r="2"></circle><circle cx="167" cy="533" r="2"></circle><circle cx="184" cy="532" r="2"></circle><circle cx="201" cy="532" r="2"></circle><circle cx="218" cy="530" r="2"></circle><circle cx="235" cy="529" r="2"></circle><circle cx="252" cy="529" r="2"></circle><circle cx="269" cy="529" r="2"></circle><circle cx="286" cy="528" r="2"></circle><circle cx="303" cy="527" r="2"></circle><circle cx="320" cy="525" r="2"></circle><circle cx="337" cy="524" r="2"></circle><circle cx="354" cy="522" r="2"></circle><circle cx="371" cy="522" r="2"></circle><circle cx="389" cy="521" r="2"></circle><circle cx="406" cy="520" r="2"></circle><circle cx="423" cy="518" r="2"></circle><circle cx="440" cy="517" r="2"></circle><circle cx="457" cy="515" r="2"></circle><circle cx="474" cy="513" r="2"></circle><circle cx="491" cy="512" r="2"></circle><circle cx="508" cy="509" r="2"></circle><circle cx="525" cy="504" r="2"></circle><circle cx="542" cy="502" r="2"></circle><circle cx="559" cy="500" r="2"></circle><circle cx="576" cy="497" r="2"></circle><circle cx="593" cy="496" r="2"></circle><circle cx="610" cy="495" r="2"></circle><circle cx="627" cy="491" r="2"></circle><circle cx="644" cy="486" r="2"></circle><circle cx="661" cy="482" r="2"></circle><circle cx="679" cy="478" r="2"></circle><circle cx="696" cy="473" r="2"></circle><circle cx="713" cy="470" r="2"></circle></g></g><g class="key-North-America_0"><path stroke="#e6332e" stroke-linecap="round" d="M47 402L64 399L81 400L98 398L116 397L133 379L150 378L167 384L184 392L201 392L218 393L235 393L252 393L269 394L286 394L303 395L320 396L337 399L354 401L371 405L389 406L406 406L423 406L440 405L457 405L474 403L491 400L508 406L525 407L542 409L559 411L576 412L593 411L610 410L627 410L644 408L661 407L679 405L696 403L713 402L730 401L747 398L764 398L781 396L798 396L815 394" fill="none" stroke-width="1.5"></path><g fill="#e6332e"><circle cx="47" cy="402" r="2"></circle><circle cx="64" cy="399" r="2"></circle><circle cx="81" cy="400" r="2"></circle><circle cx="98" cy="398" r="2"></circle><circle cx="116" cy="397" r="2"></circle><circle cx="133" cy="379" r="2"></circle><circle cx="150" cy="378" r="2"></circle><circle cx="167" cy="384" r="2"></circle><circle cx="184" cy="392" r="2"></circle><circle cx="201" cy="392" r="2"></circle><circle cx="218" cy="393" r="2"></circle><circle cx="235" cy="393" r="2"></circle><circle cx="252" cy="393" r="2"></circle><circle cx="269" cy="394" r="2"></circle><circle cx="286" cy="394" r="2"></circle><circle cx="303" cy="395" r="2"></circle><circle cx="320" cy="396" r="2"></circle><circle cx="337" cy="399" r="2"></circle><circle cx="354" cy="401" r="2"></circle><circle cx="371" cy="405" r="2"></circle><circle cx="389" cy="406" r="2"></circle><circle cx="406" cy="406" r="2"></circle><circle cx="423" cy="406" r="2"></circle><circle cx="440" cy="405" r="2"></circle><circle cx="457" cy="405" r="2"></circle><circle cx="474" cy="403" r="2"></circle><circle cx="491" cy="400" r="2"></circle><circle cx="508" cy="406" r="2"></circle><circle cx="525" cy="407" r="2"></circle><circle cx="542" cy="409" r="2"></circle><circle cx="559" cy="411" r="2"></circle><circle cx="576" cy="412" r="2"></circle><circle cx="593" cy="411" r="2"></circle><circle cx="610" cy="410" r="2"></circle><circle cx="627" cy="410" r="2"></circle><circle cx="644" cy="408" r="2"></circle><circle cx="661" cy="407" r="2"></circle><circle cx="679" cy="405" r="2"></circle><circle cx="696" cy="403" r="2"></circle><circle cx="713" cy="402" r="2"></circle><circle cx="730" cy="401" r="2"></circle><circle cx="747" cy="398" r="2"></circle><circle cx="764" cy="398" r="2"></circle><circle cx="781" cy="396" r="2"></circle><circle cx="798" cy="396" r="2"></circle><circle cx="815" cy="394" r="2"></circle></g></g><g class="key-Middle-East-__0026-North-Africa_0"><path stroke="#a652ba" stroke-linecap="round" d="M47 525L64 525L81 524L98 523L116 523L133 522L150 520L167 519L184 518L201 517L218 517L235 516L252 514L269 512L286 510L303 509L320 507L337 504L354 501L371 498L389 495L406 493L423 490L440 487L457 482L474 478L491 476L508 474L525 474L542 471L559 471L576 471L593 470L610 469L627 465L644 465L661 457L679 463L696 457L713 443" fill="none" stroke-width="1.5"></path><g fill="#a652ba"><circle cx="47" cy="525" r="2"></circle><circle cx="64" cy="525" r="2"></circle><circle cx="81" cy="524" r="2"></circle><circle cx="98" cy="523" r="2"></circle><circle cx="116" cy="523" r="2"></circle><circle cx="133" cy="522" r="2"></circle><circle cx="150" cy="520" r="2"></circle><circle cx="167" cy="519" r="2"></circle><circle cx="184" cy="518" r="2"></circle><circle cx="201" cy="517" r="2"></circle><circle cx="218" cy="517" r="2"></circle><circle cx="235" cy="516" r="2"></circle><circle cx="252" cy="514" r="2"></circle><circle cx="269" cy="512" r="2"></circle><circle cx="286" cy="510" r="2"></circle><circle cx="303" cy="509" r="2"></circle><circle cx="320" cy="507" r="2"></circle><circle cx="337" cy="504" r="2"></circle><circle cx="354" cy="501" r="2"></circle><circle cx="371" cy="498" r="2"></circle><circle cx="389" cy="495" r="2"></circle><circle cx="406" cy="493" r="2"></circle><circle cx="423" cy="490" r="2"></circle><circle cx="440" cy="487" r="2"></circle><circle cx="457" cy="482" r="2"></circle><circle cx="474" cy="478" r="2"></circle><circle cx="491" cy="476" r="2"></circle><circle cx="508" cy="474" r="2"></circle><circle cx="525" cy="474" r="2"></circle><circle cx="542" cy="471" r="2"></circle><circle cx="559" cy="471" r="2"></circle><circle cx="576" cy="471" r="2"></circle><circle cx="593" cy="470" r="2"></circle><circle cx="610" cy="469" r="2"></circle><circle cx="627" cy="465" r="2"></circle><circle cx="644" cy="465" r="2"></circle><circle cx="661" cy="457" r="2"></circle><circle cx="679" cy="463" r="2"></circle><circle cx="696" cy="457" r="2"></circle><circle cx="713" cy="443" r="2"></circle></g></g><g class="key-Sub__002dSaharan-Africa_0"><path stroke="#3360a9" stroke-linecap="round" d="M47 527L64 527L81 527L98 527L116 527L133 526L150 526L167 526L184 526L201 525L218 525L235 524L252 524L269 523L286 523L303 523L320 522L337 521L354 521L371 522L389 521L406 521L423 521" fill="none" stroke-width="1.5"></path><g fill="#3360a9"><circle cx="47" cy="527" r="2"></circle><circle cx="64" cy="527" r="2"></circle><circle cx="81" cy="527" r="2"></circle><circle cx="98" cy="527" r="2"></circle><circle cx="116" cy="527" r="2"></circle><circle cx="133" cy="526" r="2"></circle><circle cx="150" cy="526" r="2"></circle><circle cx="167" cy="526" r="2"></circle><circle cx="184" cy="526" r="2"></circle><circle cx="201" cy="525" r="2"></circle><circle cx="218" cy="525" r="2"></circle><circle cx="235" cy="524" r="2"></circle><circle cx="252" cy="524" r="2"></circle><circle cx="269" cy="523" r="2"></circle><circle cx="286" cy="523" r="2"></circle><circle cx="303" cy="523" r="2"></circle><circle cx="320" cy="522" r="2"></circle><circle cx="337" cy="521" r="2"></circle><circle cx="354" cy="521" r="2"></circle><circle cx="371" cy="522" r="2"></circle><circle cx="389" cy="521" r="2"></circle><circle cx="406" cy="521" r="2"></circle><circle cx="423" cy="521" r="2"></circle></g></g></g></g></g><g style="fill: #777;" class="SourcesFooter"><g style="fill: #777;" class="clickable"><text font-size="12.60" x="15.0" y="581.6"><tspan x="15" y="581.58">Source: World Bank</tspan></text></g><text font-size="12.60" x="775.4" y="581.6"><tspan x="775.402" y="581.58"><a style="fill: #777;" class="cclogo" href="http://creativecommons.org/licenses/by-sa/4.0/deed.en_US" target="_blank">CC BY-SA</a></tspan></text></g></g></svg>