<svg xmlns="http://www.w3.org/2000/svg" version="1.1" style="font-family: 'Helvetica Neue', Helvetica, Arial, sans-serif; font-size: 18px; background-color: white; text-rendering: optimizeLegibility; -webkit-font-smoothing: antialiased;" width="850" height="600"><g class="ChartTab"><g class="HeaderView"><g opacity="0.8" transform="translate(778, 15) scale(0.27)"><a xmlns:xlink="http://www.w3.org/1999/xlink" xlink:href="https://ourworldindata.org" target="_blank"><g><rect x="0" y="0" fill="#1B2543" width="211.2" height="130.1"/><rect x="0" y="112.2" fill="#E63912" width="211.2" height="17.9"/><g><rect x="1.2" y="12.3" fill="none" width="210.2" height="99.2"/><path fill="#FFFFFF" d="M37.8,32.2c0,12.7-7.7,19.4-17.1,19.4c-9.7,0-16.6-7.5-16.6-18.7c0-11.7,7.3-19.3,17.1-19.3 C31.3,13.7,37.8,21.3,37.8,32.2z M9.2,32.8c0,7.9,4.3,14.9,11.8,14.9c7.5,0,11.8-6.9,11.8-15.3c0-7.3-3.8-14.9-11.8-14.9 C13.1,17.5,9.2,24.8,9.2,32.8z"/><path fill="#FFFFFF" d="M62.7,43.8c0,2.7,0.1,5.1,0.2,7.2h-4.3l-0.3-4.3h-0.1c-1.3,2.1-4,4.9-8.8,4.9c-4.2,0-9.1-2.3-9.1-11.6 V24.6h4.8v14.6c0,5,1.5,8.4,5.9,8.4c3.2,0,5.5-2.2,6.3-4.4c0.3-0.7,0.4-1.6,0.4-2.5V24.6h4.8V43.8z"/><path fill="#FFFFFF" d="M67.3,32.8c0-3.1-0.1-5.8-0.2-8.2h4.2l0.2,5.2h0.2c1.2-3.5,4.1-5.8,7.3-5.8c0.5,0,0.9,0.1,1.4,0.2v4.5 c-0.5-0.1-1-0.2-1.6-0.2c-3.4,0-5.8,2.6-6.5,6.2c-0.1,0.7-0.2,1.4-0.2,2.2V51h-4.8V32.8z"/><path fill="#FFFFFF" d="M95.4,51l-9.4-36.8h5l4.4,18.6c1.1,4.6,2.1,9.2,2.7,12.7h0.1c0.6-3.7,1.8-8,3-12.8l4.9-18.5h5l4.5,18.7 c1,4.4,2,8.7,2.6,12.6h0.1c0.8-4,1.8-8.1,3-12.7l4.9-18.5h4.9L120.6,51h-5L111,31.9c-1.1-4.7-1.9-8.3-2.4-12h-0.1 c-0.7,3.7-1.5,7.3-2.8,12L100.4,51H95.4z"/><path fill="#FFFFFF" d="M154.9,37.6c0,9.8-6.8,14-13.2,14c-7.2,0-12.7-5.2-12.7-13.6c0-8.8,5.8-14,13.1-14 C149.8,24,154.9,29.5,154.9,37.6z M133.9,37.9c0,5.8,3.3,10.1,8,10.1c4.6,0,8-4.3,8-10.3c0-4.5-2.2-10.1-7.9-10.1 C136.3,27.6,133.9,32.8,133.9,37.9z"/><path fill="#FFFFFF" d="M158.2,32.8c0-3.1-0.1-5.8-0.2-8.2h4.2l0.2,5.2h0.2c1.2-3.5,4.1-5.8,7.3-5.8c0.5,0,0.9,0.1,1.4,0.2v4.5 c-0.5-0.1-1-0.2-1.6-0.2c-3.4,0-5.8,2.6-6.5,6.2c-0.1,0.7-0.2,1.4-0.2,2.2V51h-4.8V32.8z"/><path fill="#FFFFFF" d="M173.5,12.3h4.8V51h-4.8V12.3z"/><path fill="#FFFFFF" d="M206.5,12.3v31.9c0,2.3,0.1,5,0.2,6.8h-4.3l-0.2-4.6H202c-1.5,2.9-4.7,5.2-9,5.2 c-6.4,0-11.3-5.4-11.3-13.4c-0.1-8.8,5.4-14.2,11.9-14.2c4,0,6.8,1.9,8,4h0.1V12.3H206.5z M201.7,35.4c0-0.6-0.1-1.4-0.2-2 c-0.7-3.1-3.3-5.6-6.9-5.6c-5,0-7.9,4.4-7.9,10.2c0,5.3,2.6,9.8,7.8,9.8c3.2,0,6.2-2.1,7.1-5.7c0.2-0.7,0.2-1.3,0.2-2.1V35.4z"/><path fill="#FFFFFF" d="M42.8,64c0.1,1.6-1.1,2.9-3.1,2.9c-1.7,0-2.9-1.3-2.9-2.9c0-1.7,1.3-3,3-3C41.7,61,42.8,62.3,42.8,64z M37.4,97.8V71.4h4.8v26.4H37.4z"/><path fill="#FFFFFF" d="M47.5,78.6c0-2.7-0.1-5-0.2-7.1h4.3l0.3,4.4h0.1c1.3-2.5,4.4-5,8.8-5c3.7,0,9.4,2.2,9.4,11.2v15.8h-4.8 V82.6c0-4.3-1.6-7.8-6.1-7.8c-3.2,0-5.6,2.2-6.5,4.9c-0.2,0.6-0.3,1.4-0.3,2.2v15.9h-4.8V78.6z"/><path fill="#FFFFFF" d="M84,61.6c2.9-0.4,6.3-0.8,10.1-0.8c6.8,0,11.7,1.6,14.9,4.6c3.3,3,5.2,7.3,5.2,13.2c0,6-1.9,10.9-5.3,14.3 c-3.4,3.4-9.1,5.3-16.3,5.3c-3.4,0-6.2-0.2-8.6-0.4V61.6z M88.8,94.1c1.2,0.2,3,0.3,4.8,0.3c10.2,0,15.7-5.7,15.7-15.6 c0.1-8.7-4.9-14.2-14.9-14.2c-2.5,0-4.3,0.2-5.6,0.5V94.1z"/><path fill="#FFFFFF" d="M132.1,97.8l-0.4-3.3h-0.2c-1.5,2.1-4.3,3.9-8.1,3.9c-5.4,0-8.1-3.8-8.1-7.6c0-6.4,5.7-9.9,15.9-9.8v-0.5 c0-2.2-0.6-6.1-6-6.1c-2.5,0-5,0.8-6.9,2l-1.1-3.2c2.2-1.4,5.4-2.3,8.7-2.3c8.1,0,10.1,5.5,10.1,10.8v9.9c0,2.3,0.1,4.5,0.4,6.3 H132.1z M131.4,84.4c-5.3-0.1-11.2,0.8-11.2,5.9c0,3.1,2.1,4.6,4.5,4.6c3.4,0,5.6-2.2,6.4-4.4c0.2-0.5,0.3-1,0.3-1.5V84.4z"/><path fill="#FFFFFF" d="M146.6,63.9v7.6h6.9v3.7h-6.9v14.2c0,3.3,0.9,5.1,3.6,5.1c1.3,0,2.2-0.2,2.8-0.3l0.2,3.6 c-0.9,0.4-2.4,0.7-4.3,0.7c-2.2,0-4-0.7-5.2-2c-1.4-1.4-1.9-3.8-1.9-6.9V75.1h-4.1v-3.7h4.1v-6.3L146.6,63.9z"/><path fill="#FFFFFF" d="M171.4,97.8l-0.4-3.3h-0.2c-1.5,2.1-4.3,3.9-8.1,3.9c-5.4,0-8.1-3.8-8.1-7.6c0-6.4,5.7-9.9,15.9-9.8v-0.5 c0-2.2-0.6-6.1-6-6.1c-2.5,0-5,0.8-6.9,2l-1.1-3.2c2.2-1.4,5.4-2.3,8.7-2.3c8.1,0,10.1,5.5,10.1,10.8v9.9c0,2.3,0.1,4.5,0.4,6.3 H171.4z M170.7,84.4c-5.3-0.1-11.2,0.8-11.2,5.9c0,3.1,2.1,4.6,4.5,4.6c3.4,0,5.6-2.2,6.4-4.4c0.2-0.5,0.3-1,0.3-1.5V84.4z"/></g></g></a></g><a href="https://ourworldindata.org/grapher/tuberculosis-incidence-per-100000-people" target="_blank"><text font-size="25.20" x="15.0" y="35.2" fill="#555"><tspan x="15" y="35.160000000000004">Tuberculosis incidence per 100,000 people</tspan></text></a><text font-size="14.40" x="15.0" y="53.7" fill="#666"><tspan x="15" y="53.72">Incidence of tuberculosis is the estimated number of new and relapse tuberculosis cases arising in a given year,</tspan><tspan x="15" y="69.56">expressed as the rate per 100,000 population. All forms of TB are included, including cases in people living with HIV. </tspan></text></g><g class="LineChart"><defs><clipPath id="boundsClip-1003"><rect x="37.216" y="0" width="830" height="928.8"></rect></clipPath></defs><g class="AxisBoxView"><g class="HorizontalAxis"><text x="47.2" y="556.5" fill="#666" text-anchor="middle" font-size="16.2">2000</text><text x="132.4" y="556.5" fill="#666" text-anchor="middle" font-size="16.2">2002</text><text x="217.5" y="556.5" fill="#666" text-anchor="middle" font-size="16.2">2004</text><text x="302.6" y="556.5" fill="#666" text-anchor="middle" font-size="16.2">2006</text><text x="387.8" y="556.5" fill="#666" text-anchor="middle" font-size="16.2">2008</text><text x="472.9" y="556.5" fill="#666" text-anchor="middle" font-size="16.2">2010</text><text x="558" y="556.5" fill="#666" text-anchor="middle" font-size="16.2">2012</text><text x="643.2" y="556.5" fill="#666" text-anchor="middle" font-size="16.2">2014</text><text x="728.3" y="556.5" fill="#666" text-anchor="middle" font-size="16.2">2016</text></g><g class="VerticalAxis"><text x="42.22" y="535.3" fill="#666" dominant-baseline="middle" text-anchor="end" font-size="16.2">0</text><text x="42.22" y="458.6" fill="#666" dominant-baseline="middle" text-anchor="end" font-size="16.2">50</text><text x="42.22" y="381.9" fill="#666" dominant-baseline="middle" text-anchor="end" font-size="16.2">100</text><text x="42.22" y="305.3" fill="#666" dominant-baseline="middle" text-anchor="end" font-size="16.2">150</text><text x="42.22" y="228.6" fill="#666" dominant-baseline="middle" text-anchor="end" font-size="16.2">200</text><text x="42.22" y="151.9" fill="#666" dominant-baseline="middle" text-anchor="end" font-size="16.2">250</text></g><g class="AxisGridLines"><line x1="47.22" y1="535.3" x2="728.32" y2="535.3" stroke="#ccc"></line><line x1="47.22" y1="458.6" x2="728.32" y2="458.6" stroke="#ddd" stroke-dasharray="3,2"></line><line x1="47.22" y1="381.9" x2="728.32" y2="381.9" stroke="#ddd" stroke-dasharray="3,2"></line><line x1="47.22" y1="305.3" x2="728.32" y2="305.3" stroke="#ddd" stroke-dasharray="3,2"></line><line x1="47.22" y1="228.6" x2="728.32" y2="228.6" stroke="#ddd" stroke-dasharray="3,2"></line><line x1="47.22" y1="151.9" x2="728.32" y2="151.9" stroke="#ddd" stroke-dasharray="3,2"></line></g></g><g clip-path="url(#boundsClip-1003)"><g class="HeightedLegend clickable"><g class="legendMark"><g class="indicator"><line x1="733.315" y1="124.3" x2="745.815" y2="124.3" stroke="#666" stroke-width="0.5"></line><line x1="745.815" y1="124.3" x2="745.815" y2="124.3" stroke="#666" stroke-width="0.5"></line><line x1="745.815" y1="124.3" x2="758.315" y2="124.3" stroke="#666" stroke-width="0.5"></line></g><rect x="728.315" y="117.55" width="86.975" height="13.5" fill="#fff" opacity="0"></rect><text font-size="13.50" x="763.3" y="128.4" fill="#2a939b"><tspan x="763.315" y="128.35000000000002">Pakistan</tspan></text></g><g class="legendMark"><g class="indicator"><line x1="733.315" y1="196.4" x2="752.4816666666667" y2="196.4" stroke="#666" stroke-width="0.5"></line><line x1="752.4816666666667" y1="196.4" x2="752.4816666666667" y2="196.4" stroke="#666" stroke-width="0.5"></line><line x1="752.4816666666667" y1="196.4" x2="758.315" y2="196.4" stroke="#666" stroke-width="0.5"></line></g><rect x="728.315" y="189.65" width="106.685" height="13.5" fill="#fff" opacity="0"></rect><text font-size="13.50" x="763.3" y="200.5" fill="#a652ba"><tspan x="763.315" y="200.45000000000002">Bangladesh</tspan></text></g><g class="legendMark"><g class="indicator"><line x1="733.315" y1="205.6" x2="745.815" y2="205.6" stroke="#666" stroke-width="0.5"></line><line x1="745.815" y1="205.6" x2="745.815" y2="211.9" stroke="#666" stroke-width="0.5"></line><line x1="745.815" y1="211.9" x2="758.315" y2="211.9" stroke="#666" stroke-width="0.5"></line></g><rect x="728.315" y="205.15" width="100.61" height="13.5" fill="#fff" opacity="0"></rect><text font-size="13.50" x="763.3" y="216.0" fill="#f6a324"><tspan x="763.315" y="215.95000000000002">South Asia</tspan></text></g><g class="legendMark"><g class="indicator"><line x1="733.315" y1="211.7" x2="739.1483333333334" y2="211.7" stroke="#666" stroke-width="0.5"></line><line x1="739.1483333333334" y1="211.7" x2="739.1483333333334" y2="227.4" stroke="#666" stroke-width="0.5"></line><line x1="739.1483333333334" y1="227.4" x2="758.315" y2="227.4" stroke="#666" stroke-width="0.5"></line></g><rect x="728.315" y="220.65" width="64.43" height="13.5" fill="#fff" opacity="0"></rect><text font-size="13.50" x="763.3" y="231.5" fill="#34983f"><tspan x="763.315" y="231.45000000000002">India</tspan></text></g><g class="legendMark"><g class="indicator"><line x1="733.315" y1="299.1" x2="745.815" y2="299.1" stroke="#666" stroke-width="0.5"></line><line x1="745.815" y1="299.1" x2="745.815" y2="299.1" stroke="#666" stroke-width="0.5"></line><line x1="745.815" y1="299.1" x2="758.315" y2="299.1" stroke="#666" stroke-width="0.5"></line></g><rect x="728.315" y="292.35" width="70.37" height="13.5" fill="#fff" opacity="0"></rect><text font-size="13.50" x="763.3" y="303.2" fill="#ca2628"><tspan x="763.315" y="303.15000000000003">Nepal</tspan></text></g><g class="legendMark"><g class="indicator"><line x1="733.315" y1="320.6" x2="745.815" y2="320.6" stroke="#666" stroke-width="0.5"></line><line x1="745.815" y1="320.6" x2="745.815" y2="320.6" stroke="#666" stroke-width="0.5"></line><line x1="745.815" y1="320.6" x2="758.315" y2="320.6" stroke="#666" stroke-width="0.5"></line></g><rect x="728.315" y="313.85" width="70.235" height="13.5" fill="#fff" opacity="0"></rect><text font-size="13.50" x="763.3" y="324.7" fill="#3360a9"><tspan x="763.315" y="324.65000000000003">World</tspan></text></g></g><g class="Lines"><rect x="47" y="92" width="681" height="443" fill="rgba(255,255,255,0)" opacity="0"></rect><g class="key-India_0"><path stroke="#34983f" stroke-linecap="round" d="M47 92L90 94L132 95L175 98L218 103L260 107L303 115L345 124L388 135L430 146L473 157L516 166L558 176L601 186L643 193L686 203L728 212" fill="none" stroke-width="1.5"></path><g fill="#34983f"><circle cx="47" cy="92" r="2"></circle><circle cx="90" cy="94" r="2"></circle><circle cx="132" cy="95" r="2"></circle><circle cx="175" cy="98" r="2"></circle><circle cx="218" cy="103" r="2"></circle><circle cx="260" cy="107" r="2"></circle><circle cx="303" cy="115" r="2"></circle><circle cx="345" cy="124" r="2"></circle><circle cx="388" cy="135" r="2"></circle><circle cx="430" cy="146" r="2"></circle><circle cx="473" cy="157" r="2"></circle><circle cx="516" cy="166" r="2"></circle><circle cx="558" cy="176" r="2"></circle><circle cx="601" cy="186" r="2"></circle><circle cx="643" cy="193" r="2"></circle><circle cx="686" cy="203" r="2"></circle><circle cx="728" cy="212" r="2"></circle></g></g><g class="key-World_0"><path stroke="#3360a9" stroke-linecap="round" d="M47 270L90 270L132 270L175 272L218 273L260 275L303 279L345 282L388 287L430 290L473 296L516 299L558 304L601 308L643 313L686 318L728 321" fill="none" stroke-width="1.5"></path><g fill="#3360a9"><circle cx="47" cy="270" r="2"></circle><circle cx="90" cy="270" r="2"></circle><circle cx="132" cy="270" r="2"></circle><circle cx="175" cy="272" r="2"></circle><circle cx="218" cy="273" r="2"></circle><circle cx="260" cy="275" r="2"></circle><circle cx="303" cy="279" r="2"></circle><circle cx="345" cy="282" r="2"></circle><circle cx="388" cy="287" r="2"></circle><circle cx="430" cy="290" r="2"></circle><circle cx="473" cy="296" r="2"></circle><circle cx="516" cy="299" r="2"></circle><circle cx="558" cy="304" r="2"></circle><circle cx="601" cy="308" r="2"></circle><circle cx="643" cy="313" r="2"></circle><circle cx="686" cy="318" r="2"></circle><circle cx="728" cy="321" r="2"></circle></g></g><g class="key-South-Asia_0"><path stroke="#f6a324" stroke-linecap="round" d="M47 115L90 115L132 117L175 120L218 123L260 126L303 132L345 140L388 146L430 155L473 163L516 170L558 178L601 184L643 192L686 198L728 206" fill="none" stroke-width="1.5"></path><g fill="#f6a324"><circle cx="47" cy="115" r="2"></circle><circle cx="90" cy="115" r="2"></circle><circle cx="132" cy="117" r="2"></circle><circle cx="175" cy="120" r="2"></circle><circle cx="218" cy="123" r="2"></circle><circle cx="260" cy="126" r="2"></circle><circle cx="303" cy="132" r="2"></circle><circle cx="345" cy="140" r="2"></circle><circle cx="388" cy="146" r="2"></circle><circle cx="430" cy="155" r="2"></circle><circle cx="473" cy="163" r="2"></circle><circle cx="516" cy="170" r="2"></circle><circle cx="558" cy="178" r="2"></circle><circle cx="601" cy="184" r="2"></circle><circle cx="643" cy="192" r="2"></circle><circle cx="686" cy="198" r="2"></circle><circle cx="728" cy="206" r="2"></circle></g></g><g class="key-Pakistan_0"><path stroke="#2a939b" stroke-linecap="round" d="M47 114L90 114L132 114L175 112L218 112L260 112L303 112L345 112L388 112L430 112L473 112L516 112L558 112L601 114L643 121L686 121L728 124" fill="none" stroke-width="1.5"></path><g fill="#2a939b"><circle cx="47" cy="114" r="2"></circle><circle cx="90" cy="114" r="2"></circle><circle cx="132" cy="114" r="2"></circle><circle cx="175" cy="112" r="2"></circle><circle cx="218" cy="112" r="2"></circle><circle cx="260" cy="112" r="2"></circle><circle cx="303" cy="112" r="2"></circle><circle cx="345" cy="112" r="2"></circle><circle cx="388" cy="112" r="2"></circle><circle cx="430" cy="112" r="2"></circle><circle cx="473" cy="112" r="2"></circle><circle cx="516" cy="112" r="2"></circle><circle cx="558" cy="112" r="2"></circle><circle cx="601" cy="114" r="2"></circle><circle cx="643" cy="121" r="2"></circle><circle cx="686" cy="121" r="2"></circle><circle cx="728" cy="124" r="2"></circle></g></g><g class="key-Bangladesh_0"><path stroke="#a652ba" stroke-linecap="round" d="M47 196L90 196L132 196L175 196L218 196L260 196L303 196L345 196L388 196L430 196L473 196L516 196L558 196L601 196L643 196L686 196L728 196" fill="none" stroke-width="1.5"></path><g fill="#a652ba"><circle cx="47" cy="196" r="2"></circle><circle cx="90" cy="196" r="2"></circle><circle cx="132" cy="196" r="2"></circle><circle cx="175" cy="196" r="2"></circle><circle cx="218" cy="196" r="2"></circle><circle cx="260" cy="196" r="2"></circle><circle cx="303" cy="196" r="2"></circle><circle cx="345" cy="196" r="2"></circle><circle cx="388" cy="196" r="2"></circle><circle cx="430" cy="196" r="2"></circle><circle cx="473" cy="196" r="2"></circle><circle cx="516" cy="196" r="2"></circle><circle cx="558" cy="196" r="2"></circle><circle cx="601" cy="196" r="2"></circle><circle cx="643" cy="196" r="2"></circle><circle cx="686" cy="196" r="2"></circle><circle cx="728" cy="196" r="2"></circle></g></g><g class="key-Nepal_0"><path stroke="#ca2628" stroke-linecap="round" d="M47 285L90 285L132 285L175 285L218 285L260 285L303 284L345 284L388 284L430 284L473 285L516 287L558 288L601 292L643 293L686 296L728 299" fill="none" stroke-width="1.5"></path><g fill="#ca2628"><circle cx="47" cy="285" r="2"></circle><circle cx="90" cy="285" r="2"></circle><circle cx="132" cy="285" r="2"></circle><circle cx="175" cy="285" r="2"></circle><circle cx="218" cy="285" r="2"></circle><circle cx="260" cy="285" r="2"></circle><circle cx="303" cy="284" r="2"></circle><circle cx="345" cy="284" r="2"></circle><circle cx="388" cy="284" r="2"></circle><circle cx="430" cy="284" r="2"></circle><circle cx="473" cy="285" r="2"></circle><circle cx="516" cy="287" r="2"></circle><circle cx="558" cy="288" r="2"></circle><circle cx="601" cy="292" r="2"></circle><circle cx="643" cy="293" r="2"></circle><circle cx="686" cy="296" r="2"></circle><circle cx="728" cy="299" r="2"></circle></g></g></g></g></g><g style="fill: #777;" class="SourcesFooter"><g style="fill: #777;" class="clickable"><text font-size="12.60" x="15.0" y="581.6"><tspan x="15" y="581.58">Source: World Bank</tspan></text></g><text font-size="12.60" x="775.4" y="581.6"><tspan x="775.402" y="581.58"><a style="fill: #777;" class="cclogo" href="http://creativecommons.org/licenses/by-sa/4.0/deed.en_US" target="_blank">CC BY-SA</a></tspan></text></g></g></svg>