<svg xmlns="http://www.w3.org/2000/svg" version="1.1" style="font-family:Lato, &#x27;Helvetica Neue&#x27;, Helvetica, Arial, sans-serif;font-size:18px;background-color:white;text-rendering:optimizeLegibility;-webkit-font-smoothing:antialiased" width="850" height="600"><g class="HeaderView"><a href="https://mispytest.ourworldindata.org/grapher/uk-government-debt-as-a-percentage-of-gdp" target="_blank"><text font-size="25.20" x="15.0" y="35.2" fill="#555"><tspan x="15" y="35.160000000000004">UK government debt as a percentage of GDP (1700–2015)</tspan></text></a><text font-size="14.40" x="15.0" y="53.7" fill="#666"><tspan x="15" y="53.72">Unit 14 &#x27;Unemployment and fiscal policy’ Section 14.8 &#x27;The government&#x27;s finances&#x27; in The CORE Team, The Economy.</tspan><tspan x="15" y="69.56">Available at: https://tinyco.re/1408155 [Figure 14.15]</tspan></text></g><g class="LineChart"><defs><clipPath id="boundsClip-305"><rect x="51.634" y="0" width="830" height="932.8"></rect></clipPath></defs><g class="AxisBoxView"><g class="HorizontalAxis"><text x="61.6" y="556.5" fill="#666" text-anchor="middle" font-size="16.2">1700</text><text x="163.5" y="556.5" fill="#666" text-anchor="middle" font-size="16.2">1750</text><text x="265.4" y="556.5" fill="#666" text-anchor="middle" font-size="16.2">1800</text><text x="367.3" y="556.5" fill="#666" text-anchor="middle" font-size="16.2">1850</text><text x="469.2" y="556.5" fill="#666" text-anchor="middle" font-size="16.2">1900</text><text x="571.1" y="556.5" fill="#666" text-anchor="middle" font-size="16.2">1950</text><text x="703.6" y="556.5" fill="#666" text-anchor="middle" font-size="16.2">2015</text></g><g class="VerticalAxis"><text x="56.63" y="535.3" fill="#666" dominant-baseline="middle" text-anchor="end" font-size="16.2">0%</text><text x="56.63" y="461.2" fill="#666" dominant-baseline="middle" text-anchor="end" font-size="16.2">50%</text><text x="56.63" y="387.2" fill="#666" dominant-baseline="middle" text-anchor="end" font-size="16.2">100%</text><text x="56.63" y="313.1" fill="#666" dominant-baseline="middle" text-anchor="end" font-size="16.2">150%</text><text x="56.63" y="239.1" fill="#666" dominant-baseline="middle" text-anchor="end" font-size="16.2">200%</text><text x="56.63" y="165" fill="#666" dominant-baseline="middle" text-anchor="end" font-size="16.2">250%</text><text x="56.63" y="90.9" fill="#666" dominant-baseline="middle" text-anchor="end" font-size="16.2">300%</text></g><g class="AxisGridLines"><line x1="61.63" y1="535.3" x2="703.61" y2="535.3" stroke="#ccc"></line><line x1="61.63" y1="461.2" x2="703.61" y2="461.2" stroke="#ddd" stroke-dasharray="3,2"></line><line x1="61.63" y1="387.2" x2="703.61" y2="387.2" stroke="#ddd" stroke-dasharray="3,2"></line><line x1="61.63" y1="313.1" x2="703.61" y2="313.1" stroke="#ddd" stroke-dasharray="3,2"></line><line x1="61.63" y1="239.1" x2="703.61" y2="239.1" stroke="#ddd" stroke-dasharray="3,2"></line><line x1="61.63" y1="165" x2="703.61" y2="165" stroke="#ddd" stroke-dasharray="3,2"></line><line x1="61.63" y1="90.9" x2="703.61" y2="90.9" stroke="#ddd" stroke-dasharray="3,2"></line></g></g><g clip-path="url(#boundsClip-305)"><g class="HeightedLegend"><g class="legendMark"><rect x="703.61" y="384.45" width="131.39" height="13.5" fill="#fff" opacity="0"></rect><text font-size="13.50" x="708.6" y="395.3" fill="#3360a9"><tspan x="708.61" y="395.25">United Kingdom</tspan></text></g></g><g class="Lines"><rect x="62" y="90" width="642" height="445" fill="rgba(255,255,255,0)" opacity="0"></rect><g class="key-United-Kingdom_0"><path stroke="#3360a9" stroke-linecap="round" d="M62 508L64 509L66 509L68 507L70 513L72 511L74 503L76 504L78 500L80 494L82 489L84 463L86 461L88 457L90 463L92 457L94 457L96 461L98 462L100 436L102 444L104 440L107 437L109 437L111 438L113 442L115 442L117 439L119 448L121 442L123 437L125 438L127 441L129 446L131 446L133 445L135 452L137 448L139 449L141 448L143 452L145 450L147 447L149 437L151 429L153 420L155 419L157 411L160 409L162 409L164 410L166 410L168 423L170 426L172 422L174 420L176 418L178 425L180 415L182 392L184 379L186 365L188 355L190 362L192 364L194 364L196 369L198 377L200 375L202 376L204 375L206 386L208 387L210 392L212 391L215 392L217 389L219 390L221 378L223 357L225 342L227 347L229 330L231 315L233 303L235 299L237 317L239 311L241 302L243 304L245 328L247 330L249 350L251 339L253 319L255 333L257 312L259 290L261 277L263 297L265 319L268 315L270 263L272 250L274 258L276 270L278 262L280 279L282 266L284 289L286 314L288 296L290 291L292 284L294 261L296 258L298 228L300 213L302 224L304 200L306 205L308 189L310 168L312 191L314 221L316 260L318 217L321 233L323 233L325 224L327 242L329 244L331 228L333 224L335 246L337 240L339 262L341 250L343 270L345 285L347 265L349 249L351 236L353 235L355 265L357 282L359 302L361 309L363 300L365 304L367 282L369 298L371 302L374 331L376 342L378 342L380 349L382 349L384 343L386 356L388 359L390 370L392 372L394 382L396 389L398 397L400 402L402 401L404 401L406 404L408 413L410 423L412 431L414 437L416 437L418 434L420 432L422 430L424 428L426 423L429 432L431 434L433 438L435 440L437 437L439 435L441 436L443 444L445 449L447 455L449 457L451 458L453 457L455 457L457 462L459 464L461 467L463 470L465 474L467 477L469 474L471 469L473 466L475 465L477 465L479 468L482 472L484 475L486 473L488 474L490 478L492 482L494 485L496 487L498 457L500 413L502 341L504 313L506 302L508 303L510 329L512 275L514 240L516 227L518 240L520 251L522 238L524 254L526 254L528 262L530 259L532 234L535 216L537 216L539 236L541 250L543 264L545 275L547 279L549 274L551 260L553 251L555 225L557 197L559 154L561 123L563 90L565 121L567 171L569 188L571 201L573 238L575 261L577 275L579 286L581 305L583 323L585 335L587 344L590 350L592 361L594 369L596 369L598 377L600 389L602 395L604 401L606 400L608 412L610 423L612 435L614 441L616 449L618 456L620 445L622 445L624 449L626 454L628 458L630 462L632 463L634 463L636 466L638 467L640 466L643 470L645 473L647 479L649 489L651 494L653 498L655 496L657 489L659 481L661 475L663 471L665 471L667 472L669 474L671 478L673 486L675 487L677 485L679 482L681 478L683 476L685 475L687 474L689 454L691 426L693 413L696 407L698 399L700 394L702 392L704 391" fill="none" stroke-width="1.5"></path><g fill="#3360a9"><circle cx="62" cy="508" r="2"></circle><circle cx="64" cy="509" r="2"></circle><circle cx="66" cy="509" r="2"></circle><circle cx="68" cy="507" r="2"></circle><circle cx="70" cy="513" r="2"></circle><circle cx="72" cy="511" r="2"></circle><circle cx="74" cy="503" r="2"></circle><circle cx="76" cy="504" r="2"></circle><circle cx="78" cy="500" r="2"></circle><circle cx="80" cy="494" r="2"></circle><circle cx="82" cy="489" r="2"></circle><circle cx="84" cy="463" r="2"></circle><circle cx="86" cy="461" r="2"></circle><circle cx="88" cy="457" r="2"></circle><circle cx="90" cy="463" r="2"></circle><circle cx="92" cy="457" r="2"></circle><circle cx="94" cy="457" r="2"></circle><circle cx="96" cy="461" r="2"></circle><circle cx="98" cy="462" r="2"></circle><circle cx="100" cy="436" r="2"></circle><circle cx="102" cy="444" r="2"></circle><circle cx="104" cy="440" r="2"></circle><circle cx="107" cy="437" r="2"></circle><circle cx="109" cy="437" r="2"></circle><circle cx="111" cy="438" r="2"></circle><circle cx="113" cy="442" r="2"></circle><circle cx="115" cy="442" r="2"></circle><circle cx="117" cy="439" r="2"></circle><circle cx="119" cy="448" r="2"></circle><circle cx="121" cy="442" r="2"></circle><circle cx="123" cy="437" r="2"></circle><circle cx="125" cy="438" r="2"></circle><circle cx="127" cy="441" r="2"></circle><circle cx="129" cy="446" r="2"></circle><circle cx="131" cy="446" r="2"></circle><circle cx="133" cy="445" r="2"></circle><circle cx="135" cy="452" r="2"></circle><circle cx="137" cy="448" r="2"></circle><circle cx="139" cy="449" r="2"></circle><circle cx="141" cy="448" r="2"></circle><circle cx="143" cy="452" r="2"></circle><circle cx="145" cy="450" r="2"></circle><circle cx="147" cy="447" r="2"></circle><circle cx="149" cy="437" r="2"></circle><circle cx="151" cy="429" r="2"></circle><circle cx="153" cy="420" r="2"></circle><circle cx="155" cy="419" r="2"></circle><circle cx="157" cy="411" r="2"></circle><circle cx="160" cy="409" r="2"></circle><circle cx="162" cy="409" r="2"></circle><circle cx="164" cy="410" r="2"></circle><circle cx="166" cy="410" r="2"></circle><circle cx="168" cy="423" r="2"></circle><circle cx="170" cy="426" r="2"></circle><circle cx="172" cy="422" r="2"></circle><circle cx="174" cy="420" r="2"></circle><circle cx="176" cy="418" r="2"></circle><circle cx="178" cy="425" r="2"></circle><circle cx="180" cy="415" r="2"></circle><circle cx="182" cy="392" r="2"></circle><circle cx="184" cy="379" r="2"></circle><circle cx="186" cy="365" r="2"></circle><circle cx="188" cy="355" r="2"></circle><circle cx="190" cy="362" r="2"></circle><circle cx="192" cy="364" r="2"></circle><circle cx="194" cy="364" r="2"></circle><circle cx="196" cy="369" r="2"></circle><circle cx="198" cy="377" r="2"></circle><circle cx="200" cy="375" r="2"></circle><circle cx="202" cy="376" r="2"></circle><circle cx="204" cy="375" r="2"></circle><circle cx="206" cy="386" r="2"></circle><circle cx="208" cy="387" r="2"></circle><circle cx="210" cy="392" r="2"></circle><circle cx="212" cy="391" r="2"></circle><circle cx="215" cy="392" r="2"></circle><circle cx="217" cy="389" r="2"></circle><circle cx="219" cy="390" r="2"></circle><circle cx="221" cy="378" r="2"></circle><circle cx="223" cy="357" r="2"></circle><circle cx="225" cy="342" r="2"></circle><circle cx="227" cy="347" r="2"></circle><circle cx="229" cy="330" r="2"></circle><circle cx="231" cy="315" r="2"></circle><circle cx="233" cy="303" r="2"></circle><circle cx="235" cy="299" r="2"></circle><circle cx="237" cy="317" r="2"></circle><circle cx="239" cy="311" r="2"></circle><circle cx="241" cy="302" r="2"></circle><circle cx="243" cy="304" r="2"></circle><circle cx="245" cy="328" r="2"></circle><circle cx="247" cy="330" r="2"></circle><circle cx="249" cy="350" r="2"></circle><circle cx="251" cy="339" r="2"></circle><circle cx="253" cy="319" r="2"></circle><circle cx="255" cy="333" r="2"></circle><circle cx="257" cy="312" r="2"></circle><circle cx="259" cy="290" r="2"></circle><circle cx="261" cy="277" r="2"></circle><circle cx="263" cy="297" r="2"></circle><circle cx="265" cy="319" r="2"></circle><circle cx="268" cy="315" r="2"></circle><circle cx="270" cy="263" r="2"></circle><circle cx="272" cy="250" r="2"></circle><circle cx="274" cy="258" r="2"></circle><circle cx="276" cy="270" r="2"></circle><circle cx="278" cy="262" r="2"></circle><circle cx="280" cy="279" r="2"></circle><circle cx="282" cy="266" r="2"></circle><circle cx="284" cy="289" r="2"></circle><circle cx="286" cy="314" r="2"></circle><circle cx="288" cy="296" r="2"></circle><circle cx="290" cy="291" r="2"></circle><circle cx="292" cy="284" r="2"></circle><circle cx="294" cy="261" r="2"></circle><circle cx="296" cy="258" r="2"></circle><circle cx="298" cy="228" r="2"></circle><circle cx="300" cy="213" r="2"></circle><circle cx="302" cy="224" r="2"></circle><circle cx="304" cy="200" r="2"></circle><circle cx="306" cy="205" r="2"></circle><circle cx="308" cy="189" r="2"></circle><circle cx="310" cy="168" r="2"></circle><circle cx="312" cy="191" r="2"></circle><circle cx="314" cy="221" r="2"></circle><circle cx="316" cy="260" r="2"></circle><circle cx="318" cy="217" r="2"></circle><circle cx="321" cy="233" r="2"></circle><circle cx="323" cy="233" r="2"></circle><circle cx="325" cy="224" r="2"></circle><circle cx="327" cy="242" r="2"></circle><circle cx="329" cy="244" r="2"></circle><circle cx="331" cy="228" r="2"></circle><circle cx="333" cy="224" r="2"></circle><circle cx="335" cy="246" r="2"></circle><circle cx="337" cy="240" r="2"></circle><circle cx="339" cy="262" r="2"></circle><circle cx="341" cy="250" r="2"></circle><circle cx="343" cy="270" r="2"></circle><circle cx="345" cy="285" r="2"></circle><circle cx="347" cy="265" r="2"></circle><circle cx="349" cy="249" r="2"></circle><circle cx="351" cy="236" r="2"></circle><circle cx="353" cy="235" r="2"></circle><circle cx="355" cy="265" r="2"></circle><circle cx="357" cy="282" r="2"></circle><circle cx="359" cy="302" r="2"></circle><circle cx="361" cy="309" r="2"></circle><circle cx="363" cy="300" r="2"></circle><circle cx="365" cy="304" r="2"></circle><circle cx="367" cy="282" r="2"></circle><circle cx="369" cy="298" r="2"></circle><circle cx="371" cy="302" r="2"></circle><circle cx="374" cy="331" r="2"></circle><circle cx="376" cy="342" r="2"></circle><circle cx="378" cy="342" r="2"></circle><circle cx="380" cy="349" r="2"></circle><circle cx="382" cy="349" r="2"></circle><circle cx="384" cy="343" r="2"></circle><circle cx="386" cy="356" r="2"></circle><circle cx="388" cy="359" r="2"></circle><circle cx="390" cy="370" r="2"></circle><circle cx="392" cy="372" r="2"></circle><circle cx="394" cy="382" r="2"></circle><circle cx="396" cy="389" r="2"></circle><circle cx="398" cy="397" r="2"></circle><circle cx="400" cy="402" r="2"></circle><circle cx="402" cy="401" r="2"></circle><circle cx="404" cy="401" r="2"></circle><circle cx="406" cy="404" r="2"></circle><circle cx="408" cy="413" r="2"></circle><circle cx="410" cy="423" r="2"></circle><circle cx="412" cy="431" r="2"></circle><circle cx="414" cy="437" r="2"></circle><circle cx="416" cy="437" r="2"></circle><circle cx="418" cy="434" r="2"></circle><circle cx="420" cy="432" r="2"></circle><circle cx="422" cy="430" r="2"></circle><circle cx="424" cy="428" r="2"></circle><circle cx="426" cy="423" r="2"></circle><circle cx="429" cy="432" r="2"></circle><circle cx="431" cy="434" r="2"></circle><circle cx="433" cy="438" r="2"></circle><circle cx="435" cy="440" r="2"></circle><circle cx="437" cy="437" r="2"></circle><circle cx="439" cy="435" r="2"></circle><circle cx="441" cy="436" r="2"></circle><circle cx="443" cy="444" r="2"></circle><circle cx="445" cy="449" r="2"></circle><circle cx="447" cy="455" r="2"></circle><circle cx="449" cy="457" r="2"></circle><circle cx="451" cy="458" r="2"></circle><circle cx="453" cy="457" r="2"></circle><circle cx="455" cy="457" r="2"></circle><circle cx="457" cy="462" r="2"></circle><circle cx="459" cy="464" r="2"></circle><circle cx="461" cy="467" r="2"></circle><circle cx="463" cy="470" r="2"></circle><circle cx="465" cy="474" r="2"></circle><circle cx="467" cy="477" r="2"></circle><circle cx="469" cy="474" r="2"></circle><circle cx="471" cy="469" r="2"></circle><circle cx="473" cy="466" r="2"></circle><circle cx="475" cy="465" r="2"></circle><circle cx="477" cy="465" r="2"></circle><circle cx="479" cy="468" r="2"></circle><circle cx="482" cy="472" r="2"></circle><circle cx="484" cy="475" r="2"></circle><circle cx="486" cy="473" r="2"></circle><circle cx="488" cy="474" r="2"></circle><circle cx="490" cy="478" r="2"></circle><circle cx="492" cy="482" r="2"></circle><circle cx="494" cy="485" r="2"></circle><circle cx="496" cy="487" r="2"></circle><circle cx="498" cy="457" r="2"></circle><circle cx="500" cy="413" r="2"></circle><circle cx="502" cy="341" r="2"></circle><circle cx="504" cy="313" r="2"></circle><circle cx="506" cy="302" r="2"></circle><circle cx="508" cy="303" r="2"></circle><circle cx="510" cy="329" r="2"></circle><circle cx="512" cy="275" r="2"></circle><circle cx="514" cy="240" r="2"></circle><circle cx="516" cy="227" r="2"></circle><circle cx="518" cy="240" r="2"></circle><circle cx="520" cy="251" r="2"></circle><circle cx="522" cy="238" r="2"></circle><circle cx="524" cy="254" r="2"></circle><circle cx="526" cy="254" r="2"></circle><circle cx="528" cy="262" r="2"></circle><circle cx="530" cy="259" r="2"></circle><circle cx="532" cy="234" r="2"></circle><circle cx="535" cy="216" r="2"></circle><circle cx="537" cy="216" r="2"></circle><circle cx="539" cy="236" r="2"></circle><circle cx="541" cy="250" r="2"></circle><circle cx="543" cy="264" r="2"></circle><circle cx="545" cy="275" r="2"></circle><circle cx="547" cy="279" r="2"></circle><circle cx="549" cy="274" r="2"></circle><circle cx="551" cy="260" r="2"></circle><circle cx="553" cy="251" r="2"></circle><circle cx="555" cy="225" r="2"></circle><circle cx="557" cy="197" r="2"></circle><circle cx="559" cy="154" r="2"></circle><circle cx="561" cy="123" r="2"></circle><circle cx="563" cy="90" r="2"></circle><circle cx="565" cy="121" r="2"></circle><circle cx="567" cy="171" r="2"></circle><circle cx="569" cy="188" r="2"></circle><circle cx="571" cy="201" r="2"></circle><circle cx="573" cy="238" r="2"></circle><circle cx="575" cy="261" r="2"></circle><circle cx="577" cy="275" r="2"></circle><circle cx="579" cy="286" r="2"></circle><circle cx="581" cy="305" r="2"></circle><circle cx="583" cy="323" r="2"></circle><circle cx="585" cy="335" r="2"></circle><circle cx="587" cy="344" r="2"></circle><circle cx="590" cy="350" r="2"></circle><circle cx="592" cy="361" r="2"></circle><circle cx="594" cy="369" r="2"></circle><circle cx="596" cy="369" r="2"></circle><circle cx="598" cy="377" r="2"></circle><circle cx="600" cy="389" r="2"></circle><circle cx="602" cy="395" r="2"></circle><circle cx="604" cy="401" r="2"></circle><circle cx="606" cy="400" r="2"></circle><circle cx="608" cy="412" r="2"></circle><circle cx="610" cy="423" r="2"></circle><circle cx="612" cy="435" r="2"></circle><circle cx="614" cy="441" r="2"></circle><circle cx="616" cy="449" r="2"></circle><circle cx="618" cy="456" r="2"></circle><circle cx="620" cy="445" r="2"></circle><circle cx="622" cy="445" r="2"></circle><circle cx="624" cy="449" r="2"></circle><circle cx="626" cy="454" r="2"></circle><circle cx="628" cy="458" r="2"></circle><circle cx="630" cy="462" r="2"></circle><circle cx="632" cy="463" r="2"></circle><circle cx="634" cy="463" r="2"></circle><circle cx="636" cy="466" r="2"></circle><circle cx="638" cy="467" r="2"></circle><circle cx="640" cy="466" r="2"></circle><circle cx="643" cy="470" r="2"></circle><circle cx="645" cy="473" r="2"></circle><circle cx="647" cy="479" r="2"></circle><circle cx="649" cy="489" r="2"></circle><circle cx="651" cy="494" r="2"></circle><circle cx="653" cy="498" r="2"></circle><circle cx="655" cy="496" r="2"></circle><circle cx="657" cy="489" r="2"></circle><circle cx="659" cy="481" r="2"></circle><circle cx="661" cy="475" r="2"></circle><circle cx="663" cy="471" r="2"></circle><circle cx="665" cy="471" r="2"></circle><circle cx="667" cy="472" r="2"></circle><circle cx="669" cy="474" r="2"></circle><circle cx="671" cy="478" r="2"></circle><circle cx="673" cy="486" r="2"></circle><circle cx="675" cy="487" r="2"></circle><circle cx="677" cy="485" r="2"></circle><circle cx="679" cy="482" r="2"></circle><circle cx="681" cy="478" r="2"></circle><circle cx="683" cy="476" r="2"></circle><circle cx="685" cy="475" r="2"></circle><circle cx="687" cy="474" r="2"></circle><circle cx="689" cy="454" r="2"></circle><circle cx="691" cy="426" r="2"></circle><circle cx="693" cy="413" r="2"></circle><circle cx="696" cy="407" r="2"></circle><circle cx="698" cy="399" r="2"></circle><circle cx="700" cy="394" r="2"></circle><circle cx="702" cy="392" r="2"></circle><circle cx="704" cy="391" r="2"></circle></g></g></g></g></g><g class="SourcesFooter" style="fill:#777"><g class="clickable" style="fill:#777"><text font-size="12.60" x="15.0" y="581.6"><tspan x="15" y="581.58">Source: Thomas and Dimsdale (2017)</tspan></text></g><text font-size="12.60" x="660.0" y="581.6"><tspan x="659.986" y="581.58"><a href="https://ourworldindata.org" target="_blank">Powered by ourworldindata.org</a></tspan></text></g></svg>