<svg xmlns="http://www.w3.org/2000/svg" version="1.1" style="font-family:Lato, &#x27;Helvetica Neue&#x27;, Helvetica, Arial, sans-serif;font-size:18px;background-color:white;text-rendering:optimizeLegibility;-webkit-font-smoothing:antialiased" width="850" height="600"><g class="HeaderView"><a href="https://mispytest.ourworldindata.org/grapher/union-wage-bargaining-coverage-and-unemployment-across-the-oecd-20002017" target="_blank"><text font-size="21.60" x="15.0" y="32.3" fill="#555"><tspan x="15" y="32.279999999999994">Union wage bargaining coverage and unemployment across the OECD</tspan><tspan x="15" y="53.87999999999999">(2000–2017)</tspan></text></a><text font-size="14.40" x="15.0" y="72.7" fill="#666"><tspan x="15" y="72.72">Unit 16 &#x27;Technological progress, employment, and living standards in the long run’ Section 16.9 &#x27;Technological change, labour</tspan><tspan x="15" y="88.56">markets and trade unions&#x27; in The CORE Team, The Economy. Available at: https://tinyco.re/1609144 [Figure 16.14]</tspan></text></g><g><g class="AxisBoxView"><g class="HorizontalAxis"><text font-size="12.60" x="86.7" y="554.0"><tspan x="86.666" y="553.98">Employees covered by union wage bargains (latest available year in the ICTWSS Database (2016))</tspan></text><text x="167.5" y="533.9" fill="#666" text-anchor="middle" font-size="16.2">20%</text><text x="304.4" y="533.9" fill="#666" text-anchor="middle" font-size="16.2">40%</text><text x="441.2" y="533.9" fill="#666" text-anchor="middle" font-size="16.2">60%</text><text x="578.1" y="533.9" fill="#666" text-anchor="middle" font-size="16.2">80%</text><text x="715" y="533.9" fill="#666" text-anchor="middle" font-size="16.2">100%</text></g><g class="VerticalAxis"><text font-size="12.60" x="-457.9" y="25.1" transform="rotate(-90)"><tspan x="-457.91799999999995" y="25.080000000000002">Unemployment rate (2000-2017 average, %)</tspan></text><text x="70.16" y="512.7" fill="#666" dominant-baseline="middle" text-anchor="end" font-size="16.2">0%</text><text x="70.16" y="465.2" fill="#666" dominant-baseline="middle" text-anchor="end" font-size="16.2">2%</text><text x="70.16" y="417.7" fill="#666" dominant-baseline="middle" text-anchor="end" font-size="16.2">4%</text><text x="70.16" y="370.3" fill="#666" dominant-baseline="middle" text-anchor="end" font-size="16.2">6%</text><text x="70.16" y="322.8" fill="#666" dominant-baseline="middle" text-anchor="end" font-size="16.2">8%</text><text x="70.16" y="275.3" fill="#666" dominant-baseline="middle" text-anchor="end" font-size="16.2">10%</text><text x="70.16" y="227.8" fill="#666" dominant-baseline="middle" text-anchor="end" font-size="16.2">12%</text><text x="70.16" y="180.3" fill="#666" dominant-baseline="middle" text-anchor="end" font-size="16.2">14%</text><text x="70.16" y="132.8" fill="#666" dominant-baseline="middle" text-anchor="end" font-size="16.2">16%</text></g><g class="AxisGridLines"><line x1="75.16" y1="512.7" x2="715.00" y2="512.7" stroke="#ccc"></line><line x1="75.16" y1="465.2" x2="715.00" y2="465.2" stroke="#ddd" stroke-dasharray="3,2"></line><line x1="75.16" y1="417.7" x2="715.00" y2="417.7" stroke="#ddd" stroke-dasharray="3,2"></line><line x1="75.16" y1="370.3" x2="715.00" y2="370.3" stroke="#ddd" stroke-dasharray="3,2"></line><line x1="75.16" y1="322.8" x2="715.00" y2="322.8" stroke="#ddd" stroke-dasharray="3,2"></line><line x1="75.16" y1="275.3" x2="715.00" y2="275.3" stroke="#ddd" stroke-dasharray="3,2"></line><line x1="75.16" y1="227.8" x2="715.00" y2="227.8" stroke="#ddd" stroke-dasharray="3,2"></line><line x1="75.16" y1="180.3" x2="715.00" y2="180.3" stroke="#ddd" stroke-dasharray="3,2"></line><line x1="75.16" y1="132.8" x2="715.00" y2="132.8" stroke="#ddd" stroke-dasharray="3,2"></line></g><g class="AxisGridLines"><line x1="167.5" y1="512.70" x2="167.5" y2="109.10" stroke="#ddd" stroke-dasharray="3,2"></line><line x1="304.4" y1="512.70" x2="304.4" y2="109.10" stroke="#ddd" stroke-dasharray="3,2"></line><line x1="441.2" y1="512.70" x2="441.2" y2="109.10" stroke="#ddd" stroke-dasharray="3,2"></line><line x1="578.1" y1="512.70" x2="578.1" y2="109.10" stroke="#ddd" stroke-dasharray="3,2"></line><line x1="715" y1="512.70" x2="715" y2="109.10" stroke="#ddd" stroke-dasharray="3,2"></line></g></g><g class="PointsWithLabels clickable" clip-path="url(#scatterBounds-325)" font-family="Arial, sans-serif"><rect x="75.162" y="109.1" width="639.838" height="403.59999999999997" fill="rgba(255,255,255,0)"></rect><defs><clipPath id="scatterBounds-325"><rect x="65.162" y="99.1" width="659.838" height="423.59999999999997"></rect></clipPath></defs><g class="key-Australia_0"><circle cx="441.00" cy="381.00" r="3.57" fill="#a652ba" opacity="0.8" stroke="#333" stroke-width="0.7"></circle></g><g class="key-Austria_0"><circle cx="701.00" cy="395.00" r="3.57" fill="#ffd336" opacity="0.8" stroke="#333" stroke-width="0.7"></circle></g><g class="key-Belgium_0"><circle cx="687.00" cy="328.00" r="3.57" fill="#ffd336" opacity="0.8" stroke="#333" stroke-width="0.7"></circle></g><g class="key-Canada_0"><circle cx="229.00" cy="345.00" r="3.57" fill="#4d824b" opacity="0.8" stroke="#333" stroke-width="0.7"></circle></g><g class="key-Czech-Republic_0"><circle cx="354.00" cy="357.00" r="3.57" fill="#ffd336" opacity="0.8" stroke="#333" stroke-width="0.7"></circle></g><g class="key-Denmark_0"><circle cx="605.00" cy="381.00" r="3.57" fill="#ffd336" opacity="0.8" stroke="#333" stroke-width="0.7"></circle></g><g class="key-Finland_0"><circle cx="667.00" cy="313.00" r="3.57" fill="#ffd336" opacity="0.8" stroke="#333" stroke-width="0.7"></circle></g><g class="key-France_0"><circle cx="701.00" cy="308.00" r="3.57" fill="#ffd336" opacity="0.8" stroke="#fff" stroke-width="0.7"></circle></g><g class="key-Germany_0"><circle cx="424.00" cy="340.00" r="3.57" fill="#ffd336" opacity="0.8" stroke="#333" stroke-width="0.7"></circle></g><g class="key-Greece_0"><circle cx="318.00" cy="155.00" r="3.57" fill="#ffd336" opacity="0.8" stroke="#333" stroke-width="0.7"></circle></g><g class="key-Hungary_0"><circle cx="187.00" cy="330.00" r="3.57" fill="#ffd336" opacity="0.8" stroke="#333" stroke-width="0.7"></circle></g><g class="key-Iceland_0"><circle cx="639.00" cy="416.00" r="3.57" fill="#ffd336" opacity="0.8" stroke="#333" stroke-width="0.7"></circle></g><g class="key-Ireland_0"><circle cx="307.00" cy="316.00" r="3.57" fill="#ffd336" opacity="0.8" stroke="#333" stroke-width="0.7"></circle></g><g class="key-Italy_0"><circle cx="578.00" cy="289.00" r="3.57" fill="#ffd336" opacity="0.8" stroke="#333" stroke-width="0.7"></circle></g><g class="key-Japan_0"><circle cx="147.00" cy="410.00" r="3.57" fill="#d14e5b" opacity="0.8" stroke="#333" stroke-width="0.7"></circle></g><g class="key-Korea_0"><circle cx="110.00" cy="428.00" r="3.57" fill="#ffcb1f" opacity="0.8" stroke="#333" stroke-width="0.7"></circle></g><g class="key-Luxembourg_0"><circle cx="434.00" cy="399.00" r="3.57" fill="#ffd336" opacity="0.8" stroke="#333" stroke-width="0.7"></circle></g><g class="key-Netherlands_0"><circle cx="611.00" cy="407.00" r="3.57" fill="#ffd336" opacity="0.8" stroke="#fff" stroke-width="0.7"></circle></g><g class="key-New-Zealand_0"><circle cx="135.00" cy="388.00" r="3.57" fill="#a652ba" opacity="0.8" stroke="#333" stroke-width="0.7"></circle></g><g class="key-Norway_0"><circle cx="489.00" cy="424.00" r="3.57" fill="#ffd336" opacity="0.8" stroke="#333" stroke-width="0.7"></circle></g><g class="key-Poland_0"><circle cx="131.00" cy="227.00" r="3.57" fill="#ffd336" opacity="0.8" stroke="#333" stroke-width="0.7"></circle></g><g class="key-Portugal_0"><circle cx="489.00" cy="290.00" r="3.57" fill="#ffd336" opacity="0.8" stroke="#333" stroke-width="0.7"></circle></g><g class="key-Slovak-Republic_0"><circle cx="201.00" cy="178.00" r="3.57" fill="#ffcb1f" opacity="0.8" stroke="#333" stroke-width="0.7"></circle></g><g class="key-Spain_0"><circle cx="561.00" cy="130.00" r="3.57" fill="#ffd336" opacity="0.8" stroke="#333" stroke-width="0.7"></circle></g><g class="key-Sweden_0"><circle cx="639.00" cy="347.00" r="3.57" fill="#ffd336" opacity="0.8" stroke="#333" stroke-width="0.7"></circle></g><g class="key-Switzerland_0"><circle cx="363.00" cy="421.00" r="3.57" fill="#ffd336" opacity="0.8" stroke="#333" stroke-width="0.7"></circle></g><g class="key-Turkey_0"><circle cx="75.00" cy="268.00" r="3.57" fill="#d14e5b" opacity="0.8" stroke="#333" stroke-width="0.7"></circle></g><g class="key-United-Kingdom_0"><circle cx="232.00" cy="373.00" r="3.57" fill="#ffd336" opacity="0.8" stroke="#333" stroke-width="0.7"></circle></g><g class="key-United-States_0"><circle cx="112.00" cy="367.00" r="3.57" fill="#4d824b" opacity="0.8" stroke="#333" stroke-width="0.7"></circle></g><g class="backgroundLabels" fill="#333"><text x="441.00" y="376.43" font-size="11.00">Australia</text><text x="666.68" y="390.43" font-size="11.00">Austria</text><text x="647.18" y="323.43" font-size="11.00">Belgium</text><text x="229.00" y="340.43" font-size="11.00">Canada</text><text x="354.00" y="352.43" font-size="11.00">Czech Republic</text><text x="605.00" y="376.43" font-size="11.00">Denmark</text><text x="667.00" y="308.43" font-size="11.00">Finland</text><text x="424.00" y="335.43" font-size="11.00">Germany</text><text x="318.00" y="150.43" font-size="11.00">Greece</text><text x="187.00" y="325.43" font-size="11.00">Hungary</text><text x="639.00" y="411.43" font-size="11.00">Iceland</text><text x="307.00" y="311.43" font-size="11.00">Ireland</text><text x="578.00" y="284.43" font-size="11.00">Italy</text><text x="147.00" y="405.43" font-size="11.00">Japan</text><text x="110.00" y="423.43" font-size="11.00">Korea</text><text x="434.00" y="394.43" font-size="11.00">Luxembourg</text><text x="135.00" y="383.43" font-size="11.00">New Zealand</text><text x="489.00" y="419.43" font-size="11.00">Norway</text><text x="131.00" y="222.43" font-size="11.00">Poland</text><text x="489.00" y="285.43" font-size="11.00">Portugal</text><text x="201.00" y="173.43" font-size="11.00">Slovak Republic</text><text x="561.00" y="125.43" font-size="11.00">Spain</text><text x="639.00" y="342.43" font-size="11.00">Sweden</text><text x="363.00" y="416.43" font-size="11.00">Switzerland</text><text x="75.00" y="263.43" font-size="11.00">Turkey</text><text x="232.00" y="368.43" font-size="11.00">United Kingdom</text><text x="112.00" y="362.43" font-size="11.00">United States</text></g></g><g class="ScatterColorLegend clickable" style="cursor:pointer"><g class="legendMark"><rect x="735" y="106.6" width="35.57" height="17.6" fill="#fff" opacity="0"></rect>,<rect x="735" y="112.1" width="6" height="6" fill="#d14e5b"></rect>,<text font-size="12.60" x="746.0" y="119.2"><tspan x="746" y="119.17999999999999">Asia</tspan></text></g><g class="legendMark"><rect x="735" y="124.19999999999999" width="51.824" height="17.6" fill="#fff" opacity="0"></rect>,<rect x="735" y="129.7" width="6" height="6" fill="#ffd336"></rect>,<text font-size="12.60" x="746.0" y="136.8"><tspan x="746" y="136.77999999999997">Europe</tspan></text></g><g class="legendMark"><rect x="735" y="141.8" width="91.64" height="17.6" fill="#fff" opacity="0"></rect>,<rect x="735" y="147.3" width="6" height="6" fill="#4d824b"></rect>,<text font-size="12.60" x="746.0" y="154.4"><tspan x="746" y="154.38">North America</tspan></text></g><g class="legendMark"><rect x="735" y="159.4" width="58.124" height="17.6" fill="#fff" opacity="0"></rect>,<rect x="735" y="164.9" width="6" height="6" fill="#a652ba"></rect>,<text font-size="12.60" x="746.0" y="172.0"><tspan x="746" y="171.98">Oceania</tspan></text></g></g></g><g class="SourcesFooter" style="fill:#777"><g class="clickable" style="fill:#777"><text font-size="12.60" x="15.0" y="581.6"><tspan x="15" y="581.58">Source: OECD (2019), J. Visser (2016)</tspan></text></g><text font-size="12.60" x="546.0" y="581.6"><tspan x="545.956" y="581.58"><a target='_blank' style='fill: #777;' href='https://tinyco.re/1609144'>tinyco.re/1609144</a> • <a href="https://ourworldindata.org" target="_blank">Powered by ourworldindata.org</a></tspan></text></g></svg>