<svg xmlns="http://www.w3.org/2000/svg" version="1.1" style="font-family:Lato, &#x27;Helvetica Neue&#x27;, Helvetica, Arial, sans-serif;font-size:18px;background-color:white;text-rendering:optimizeLegibility;-webkit-font-smoothing:antialiased" width="850" height="600"><g class="HeaderView"><a href="https://mispytest.ourworldindata.org/grapher/union-wage-bargaining-coverage-and-unemployment-across-the-oecd" target="_blank"><text font-size="21.60" x="15.0" y="32.3" fill="#555"><tspan x="15" y="32.279999999999994">Union wage bargaining coverage and unemployment across the OECD</tspan><tspan x="15" y="53.87999999999999">(2000–2014)</tspan></text></a><text font-size="14.40" x="15.0" y="72.7" fill="#666"><tspan x="15" y="72.72">Unit 16 &#x27;Technological progress, employment, and living standards in the long run’ Section 16.9 &#x27;Technological change, labour</tspan><tspan x="15" y="88.56">markets and trade unions&#x27; in The CORE Team, The Economy. Available at: https://tinyco.re/1609144 [Figure 16.14]</tspan></text></g><g><g class="AxisBoxView"><g class="HorizontalAxis"><text font-size="12.60" x="86.7" y="554.0"><tspan x="86.666" y="553.98">Employees covered by union wage bargains (latest available year in the ICTWSS Database (2016))</tspan></text><text x="169.5" y="533.9" fill="#666" text-anchor="middle" font-size="16.2">20%</text><text x="309.4" y="533.9" fill="#666" text-anchor="middle" font-size="16.2">40%</text><text x="449.2" y="533.9" fill="#666" text-anchor="middle" font-size="16.2">60%</text><text x="589.1" y="533.9" fill="#666" text-anchor="middle" font-size="16.2">80%</text></g><g class="VerticalAxis"><text font-size="12.60" x="-457.9" y="25.1" transform="rotate(-90)"><tspan x="-457.91799999999995" y="25.080000000000002">Unemployment rate (2000-2014 average, %)</tspan></text><text x="70.16" y="512.7" fill="#666" dominant-baseline="middle" text-anchor="end" font-size="16.2">0%</text><text x="70.16" y="460.2" fill="#666" dominant-baseline="middle" text-anchor="end" font-size="16.2">2%</text><text x="70.16" y="407.7" fill="#666" dominant-baseline="middle" text-anchor="end" font-size="16.2">4%</text><text x="70.16" y="355.2" fill="#666" dominant-baseline="middle" text-anchor="end" font-size="16.2">6%</text><text x="70.16" y="302.8" fill="#666" dominant-baseline="middle" text-anchor="end" font-size="16.2">8%</text><text x="70.16" y="250.3" fill="#666" dominant-baseline="middle" text-anchor="end" font-size="16.2">10%</text><text x="70.16" y="197.8" fill="#666" dominant-baseline="middle" text-anchor="end" font-size="16.2">12%</text><text x="70.16" y="145.3" fill="#666" dominant-baseline="middle" text-anchor="end" font-size="16.2">14%</text></g><g class="AxisGridLines"><line x1="75.16" y1="512.7" x2="715.00" y2="512.7" stroke="#ccc"></line><line x1="75.16" y1="460.2" x2="715.00" y2="460.2" stroke="#ddd" stroke-dasharray="3,2"></line><line x1="75.16" y1="407.7" x2="715.00" y2="407.7" stroke="#ddd" stroke-dasharray="3,2"></line><line x1="75.16" y1="355.2" x2="715.00" y2="355.2" stroke="#ddd" stroke-dasharray="3,2"></line><line x1="75.16" y1="302.8" x2="715.00" y2="302.8" stroke="#ddd" stroke-dasharray="3,2"></line><line x1="75.16" y1="250.3" x2="715.00" y2="250.3" stroke="#ddd" stroke-dasharray="3,2"></line><line x1="75.16" y1="197.8" x2="715.00" y2="197.8" stroke="#ddd" stroke-dasharray="3,2"></line><line x1="75.16" y1="145.3" x2="715.00" y2="145.3" stroke="#ddd" stroke-dasharray="3,2"></line></g><g class="AxisGridLines"><line x1="169.5" y1="512.70" x2="169.5" y2="109.10" stroke="#ddd" stroke-dasharray="3,2"></line><line x1="309.4" y1="512.70" x2="309.4" y2="109.10" stroke="#ddd" stroke-dasharray="3,2"></line><line x1="449.2" y1="512.70" x2="449.2" y2="109.10" stroke="#ddd" stroke-dasharray="3,2"></line><line x1="589.1" y1="512.70" x2="589.1" y2="109.10" stroke="#ddd" stroke-dasharray="3,2"></line></g></g><g class="PointsWithLabels clickable" clip-path="url(#scatterBounds-311)" font-family="Arial, sans-serif"><rect x="75.162" y="109.1" width="639.838" height="403.59999999999997" fill="rgba(255,255,255,0)"></rect><defs><clipPath id="scatterBounds-311"><rect x="65.162" y="99.1" width="659.838" height="423.59999999999997"></rect></clipPath></defs><g class="key-Australia_0"><circle cx="449.00" cy="369.00" r="3.57" fill="#a652ba" opacity="0.8" stroke="#333" stroke-width="0.7"></circle></g><g class="key-Austria_0"><circle cx="715.00" cy="388.00" r="3.57" fill="#ffd336" opacity="0.8" stroke="#333" stroke-width="0.7"></circle></g><g class="key-Belgium_0"><circle cx="701.00" cy="308.00" r="3.57" fill="#ffd336" opacity="0.8" stroke="#333" stroke-width="0.7"></circle></g><g class="key-Canada_0"><circle cx="232.00" cy="325.00" r="3.57" fill="#4d824b" opacity="0.8" stroke="#333" stroke-width="0.7"></circle></g><g class="key-Czech-Republic_0"><circle cx="360.00" cy="326.00" r="3.57" fill="#ffd336" opacity="0.8" stroke="#333" stroke-width="0.7"></circle></g><g class="key-Denmark_0"><circle cx="617.00" cy="369.00" r="3.57" fill="#ffd336" opacity="0.8" stroke="#333" stroke-width="0.7"></circle></g><g class="key-Finland_0"><circle cx="680.00" cy="295.00" r="3.57" fill="#ffd336" opacity="0.8" stroke="#333" stroke-width="0.7"></circle></g><g class="key-France_0"><circle cx="715.00" cy="293.00" r="3.57" fill="#ffd336" opacity="0.8" stroke="#333" stroke-width="0.7"></circle></g><g class="key-Germany_0"><circle cx="432.00" cy="306.00" r="3.57" fill="#ffd336" opacity="0.8" stroke="#333" stroke-width="0.7"></circle></g><g class="key-Greece_0"><circle cx="323.00" cy="161.00" r="3.57" fill="#ffd336" opacity="0.8" stroke="#333" stroke-width="0.7"></circle></g><g class="key-Hungary_0"><circle cx="190.00" cy="299.00" r="3.57" fill="#ffd336" opacity="0.8" stroke="#333" stroke-width="0.7"></circle></g><g class="key-Iceland_0"><circle cx="652.00" cy="401.00" r="3.57" fill="#ffd336" opacity="0.8" stroke="#333" stroke-width="0.7"></circle></g><g class="key-Ireland_0"><circle cx="312.00" cy="295.00" r="3.57" fill="#ffd336" opacity="0.8" stroke="#333" stroke-width="0.7"></circle></g><g class="key-Italy_0"><circle cx="589.00" cy="277.00" r="3.57" fill="#ffd336" opacity="0.8" stroke="#333" stroke-width="0.7"></circle></g><g class="key-Japan_0"><circle cx="149.00" cy="393.00" r="3.57" fill="#d14e5b" opacity="0.8" stroke="#333" stroke-width="0.7"></circle></g><g class="key-Korea_0"><circle cx="111.00" cy="419.00" r="3.57" fill="#ffcb1f" opacity="0.8" stroke="#333" stroke-width="0.7"></circle></g><g class="key-Luxembourg_0"><circle cx="442.00" cy="394.00" r="3.57" fill="#ffd336" opacity="0.8" stroke="#333" stroke-width="0.7"></circle></g><g class="key-Netherlands_0"><circle cx="623.00" cy="404.00" r="3.57" fill="#ffd336" opacity="0.8" stroke="#fff" stroke-width="0.7"></circle></g><g class="key-New-Zealand_0"><circle cx="136.00" cy="374.00" r="3.57" fill="#a652ba" opacity="0.8" stroke="#333" stroke-width="0.7"></circle></g><g class="key-Norway_0"><circle cx="498.00" cy="419.00" r="3.57" fill="#ffd336" opacity="0.8" stroke="#333" stroke-width="0.7"></circle></g><g class="key-Poland_0"><circle cx="132.00" cy="166.00" r="3.57" fill="#ffd336" opacity="0.8" stroke="#333" stroke-width="0.7"></circle></g><g class="key-Portugal_0"><circle cx="498.00" cy="274.00" r="3.57" fill="#ffd336" opacity="0.8" stroke="#333" stroke-width="0.7"></circle></g><g class="key-Slovak-Republic_0"><circle cx="203.00" cy="121.00" r="3.57" fill="#ffcb1f" opacity="0.8" stroke="#333" stroke-width="0.7"></circle></g><g class="key-Spain_0"><circle cx="572.00" cy="109.00" r="3.57" fill="#ffd336" opacity="0.8" stroke="#333" stroke-width="0.7"></circle></g><g class="key-Sweden_0"><circle cx="652.00" cy="329.00" r="3.57" fill="#ffd336" opacity="0.8" stroke="#333" stroke-width="0.7"></circle></g><g class="key-Switzerland_0"><circle cx="369.00" cy="417.00" r="3.57" fill="#ffd336" opacity="0.8" stroke="#333" stroke-width="0.7"></circle></g><g class="key-Turkey_0"><circle cx="75.00" cy="244.00" r="3.57" fill="#d14e5b" opacity="0.8" stroke="#333" stroke-width="0.7"></circle></g><g class="key-United-Kingdom_0"><circle cx="235.00" cy="353.00" r="3.57" fill="#ffd336" opacity="0.8" stroke="#333" stroke-width="0.7"></circle></g><g class="key-United-States_0"><circle cx="113.00" cy="345.00" r="3.57" fill="#4d824b" opacity="0.8" stroke="#333" stroke-width="0.7"></circle></g><g class="backgroundLabels" fill="#333"><text x="449.00" y="364.43" font-size="11.00">Australia</text><text x="680.68" y="383.43" font-size="11.00">Austria</text><text x="661.18" y="303.43" font-size="11.00">Belgium</text><text x="232.00" y="320.43" font-size="11.00">Canada</text><text x="360.00" y="321.43" font-size="11.00">Czech Republic</text><text x="617.00" y="364.43" font-size="11.00">Denmark</text><text x="643.81" y="290.43" font-size="11.00">Finland</text><text x="680.68" y="288.43" font-size="11.00">France</text><text x="432.00" y="301.43" font-size="11.00">Germany</text><text x="323.00" y="156.43" font-size="11.00">Greece</text><text x="190.00" y="294.43" font-size="11.00">Hungary</text><text x="652.00" y="396.43" font-size="11.00">Iceland</text><text x="312.00" y="290.43" font-size="11.00">Ireland</text><text x="589.00" y="272.43" font-size="11.00">Italy</text><text x="149.00" y="388.43" font-size="11.00">Japan</text><text x="111.00" y="414.43" font-size="11.00">Korea</text><text x="442.00" y="389.43" font-size="11.00">Luxembourg</text><text x="136.00" y="369.43" font-size="11.00">New Zealand</text><text x="498.00" y="414.43" font-size="11.00">Norway</text><text x="132.00" y="161.43" font-size="11.00">Poland</text><text x="498.00" y="269.43" font-size="11.00">Portugal</text><text x="203.00" y="120.10" font-size="11.00">Slovak Republic</text><text x="572.00" y="120.10" font-size="11.00">Spain</text><text x="652.00" y="324.43" font-size="11.00">Sweden</text><text x="369.00" y="412.43" font-size="11.00">Switzerland</text><text x="75.00" y="239.43" font-size="11.00">Turkey</text><text x="235.00" y="348.43" font-size="11.00">United Kingdom</text><text x="113.00" y="340.43" font-size="11.00">United States</text></g></g><g class="ScatterColorLegend clickable" style="cursor:pointer"><g class="legendMark"><rect x="735" y="106.6" width="35.57" height="17.6" fill="#fff" opacity="0"></rect>,<rect x="735" y="112.1" width="6" height="6" fill="#d14e5b"></rect>,<text font-size="12.60" x="746.0" y="119.2"><tspan x="746" y="119.17999999999999">Asia</tspan></text></g><g class="legendMark"><rect x="735" y="124.19999999999999" width="51.824" height="17.6" fill="#fff" opacity="0"></rect>,<rect x="735" y="129.7" width="6" height="6" fill="#ffd336"></rect>,<text font-size="12.60" x="746.0" y="136.8"><tspan x="746" y="136.77999999999997">Europe</tspan></text></g><g class="legendMark"><rect x="735" y="141.8" width="91.64" height="17.6" fill="#fff" opacity="0"></rect>,<rect x="735" y="147.3" width="6" height="6" fill="#4d824b"></rect>,<text font-size="12.60" x="746.0" y="154.4"><tspan x="746" y="154.38">North America</tspan></text></g><g class="legendMark"><rect x="735" y="159.4" width="58.124" height="17.6" fill="#fff" opacity="0"></rect>,<rect x="735" y="164.9" width="6" height="6" fill="#a652ba"></rect>,<text font-size="12.60" x="746.0" y="172.0"><tspan x="746" y="171.98">Oceania</tspan></text></g></g></g><g class="SourcesFooter" style="fill:#777"><g class="clickable" style="fill:#777"><text font-size="12.60" x="15.0" y="581.6"><tspan x="15" y="581.58">Source: OECD (2015), J. Visser (2016)</tspan></text></g><text font-size="12.60" x="660.0" y="581.6"><tspan x="659.986" y="581.58"><a href="https://ourworldindata.org" target="_blank">Powered by ourworldindata.org</a></tspan></text></g></svg>