<svg xmlns="http://www.w3.org/2000/svg" version="1.1" style="font-family: 'Helvetica Neue', Helvetica, Arial, sans-serif; font-size: 18px; background-color: white; text-rendering: optimizeLegibility; -webkit-font-smoothing: antialiased;" width="850" height="600"><g class="ChartTab"><g class="HeaderView"><g opacity="0.8" transform="translate(778, 15) scale(0.27)"><a xmlns:xlink="http://www.w3.org/1999/xlink" xlink:href="https://ourworldindata.org" target="_blank"><g><rect x="0" y="0" fill="#1B2543" width="211.2" height="130.1"/><rect x="0" y="112.2" fill="#E63912" width="211.2" height="17.9"/><g><rect x="1.2" y="12.3" fill="none" width="210.2" height="99.2"/><path fill="#FFFFFF" d="M37.8,32.2c0,12.7-7.7,19.4-17.1,19.4c-9.7,0-16.6-7.5-16.6-18.7c0-11.7,7.3-19.3,17.1-19.3 C31.3,13.7,37.8,21.3,37.8,32.2z M9.2,32.8c0,7.9,4.3,14.9,11.8,14.9c7.5,0,11.8-6.9,11.8-15.3c0-7.3-3.8-14.9-11.8-14.9 C13.1,17.5,9.2,24.8,9.2,32.8z"/><path fill="#FFFFFF" d="M62.7,43.8c0,2.7,0.1,5.1,0.2,7.2h-4.3l-0.3-4.3h-0.1c-1.3,2.1-4,4.9-8.8,4.9c-4.2,0-9.1-2.3-9.1-11.6 V24.6h4.8v14.6c0,5,1.5,8.4,5.9,8.4c3.2,0,5.5-2.2,6.3-4.4c0.3-0.7,0.4-1.6,0.4-2.5V24.6h4.8V43.8z"/><path fill="#FFFFFF" d="M67.3,32.8c0-3.1-0.1-5.8-0.2-8.2h4.2l0.2,5.2h0.2c1.2-3.5,4.1-5.8,7.3-5.8c0.5,0,0.9,0.1,1.4,0.2v4.5 c-0.5-0.1-1-0.2-1.6-0.2c-3.4,0-5.8,2.6-6.5,6.2c-0.1,0.7-0.2,1.4-0.2,2.2V51h-4.8V32.8z"/><path fill="#FFFFFF" d="M95.4,51l-9.4-36.8h5l4.4,18.6c1.1,4.6,2.1,9.2,2.7,12.7h0.1c0.6-3.7,1.8-8,3-12.8l4.9-18.5h5l4.5,18.7 c1,4.4,2,8.7,2.6,12.6h0.1c0.8-4,1.8-8.1,3-12.7l4.9-18.5h4.9L120.6,51h-5L111,31.9c-1.1-4.7-1.9-8.3-2.4-12h-0.1 c-0.7,3.7-1.5,7.3-2.8,12L100.4,51H95.4z"/><path fill="#FFFFFF" d="M154.9,37.6c0,9.8-6.8,14-13.2,14c-7.2,0-12.7-5.2-12.7-13.6c0-8.8,5.8-14,13.1-14 C149.8,24,154.9,29.5,154.9,37.6z M133.9,37.9c0,5.8,3.3,10.1,8,10.1c4.6,0,8-4.3,8-10.3c0-4.5-2.2-10.1-7.9-10.1 C136.3,27.6,133.9,32.8,133.9,37.9z"/><path fill="#FFFFFF" d="M158.2,32.8c0-3.1-0.1-5.8-0.2-8.2h4.2l0.2,5.2h0.2c1.2-3.5,4.1-5.8,7.3-5.8c0.5,0,0.9,0.1,1.4,0.2v4.5 c-0.5-0.1-1-0.2-1.6-0.2c-3.4,0-5.8,2.6-6.5,6.2c-0.1,0.7-0.2,1.4-0.2,2.2V51h-4.8V32.8z"/><path fill="#FFFFFF" d="M173.5,12.3h4.8V51h-4.8V12.3z"/><path fill="#FFFFFF" d="M206.5,12.3v31.9c0,2.3,0.1,5,0.2,6.8h-4.3l-0.2-4.6H202c-1.5,2.9-4.7,5.2-9,5.2 c-6.4,0-11.3-5.4-11.3-13.4c-0.1-8.8,5.4-14.2,11.9-14.2c4,0,6.8,1.9,8,4h0.1V12.3H206.5z M201.7,35.4c0-0.6-0.1-1.4-0.2-2 c-0.7-3.1-3.3-5.6-6.9-5.6c-5,0-7.9,4.4-7.9,10.2c0,5.3,2.6,9.8,7.8,9.8c3.2,0,6.2-2.1,7.1-5.7c0.2-0.7,0.2-1.3,0.2-2.1V35.4z"/><path fill="#FFFFFF" d="M42.8,64c0.1,1.6-1.1,2.9-3.1,2.9c-1.7,0-2.9-1.3-2.9-2.9c0-1.7,1.3-3,3-3C41.7,61,42.8,62.3,42.8,64z M37.4,97.8V71.4h4.8v26.4H37.4z"/><path fill="#FFFFFF" d="M47.5,78.6c0-2.7-0.1-5-0.2-7.1h4.3l0.3,4.4h0.1c1.3-2.5,4.4-5,8.8-5c3.7,0,9.4,2.2,9.4,11.2v15.8h-4.8 V82.6c0-4.3-1.6-7.8-6.1-7.8c-3.2,0-5.6,2.2-6.5,4.9c-0.2,0.6-0.3,1.4-0.3,2.2v15.9h-4.8V78.6z"/><path fill="#FFFFFF" d="M84,61.6c2.9-0.4,6.3-0.8,10.1-0.8c6.8,0,11.7,1.6,14.9,4.6c3.3,3,5.2,7.3,5.2,13.2c0,6-1.9,10.9-5.3,14.3 c-3.4,3.4-9.1,5.3-16.3,5.3c-3.4,0-6.2-0.2-8.6-0.4V61.6z M88.8,94.1c1.2,0.2,3,0.3,4.8,0.3c10.2,0,15.7-5.7,15.7-15.6 c0.1-8.7-4.9-14.2-14.9-14.2c-2.5,0-4.3,0.2-5.6,0.5V94.1z"/><path fill="#FFFFFF" d="M132.1,97.8l-0.4-3.3h-0.2c-1.5,2.1-4.3,3.9-8.1,3.9c-5.4,0-8.1-3.8-8.1-7.6c0-6.4,5.7-9.9,15.9-9.8v-0.5 c0-2.2-0.6-6.1-6-6.1c-2.5,0-5,0.8-6.9,2l-1.1-3.2c2.2-1.4,5.4-2.3,8.7-2.3c8.1,0,10.1,5.5,10.1,10.8v9.9c0,2.3,0.1,4.5,0.4,6.3 H132.1z M131.4,84.4c-5.3-0.1-11.2,0.8-11.2,5.9c0,3.1,2.1,4.6,4.5,4.6c3.4,0,5.6-2.2,6.4-4.4c0.2-0.5,0.3-1,0.3-1.5V84.4z"/><path fill="#FFFFFF" d="M146.6,63.9v7.6h6.9v3.7h-6.9v14.2c0,3.3,0.9,5.1,3.6,5.1c1.3,0,2.2-0.2,2.8-0.3l0.2,3.6 c-0.9,0.4-2.4,0.7-4.3,0.7c-2.2,0-4-0.7-5.2-2c-1.4-1.4-1.9-3.8-1.9-6.9V75.1h-4.1v-3.7h4.1v-6.3L146.6,63.9z"/><path fill="#FFFFFF" d="M171.4,97.8l-0.4-3.3h-0.2c-1.5,2.1-4.3,3.9-8.1,3.9c-5.4,0-8.1-3.8-8.1-7.6c0-6.4,5.7-9.9,15.9-9.8v-0.5 c0-2.2-0.6-6.1-6-6.1c-2.5,0-5,0.8-6.9,2l-1.1-3.2c2.2-1.4,5.4-2.3,8.7-2.3c8.1,0,10.1,5.5,10.1,10.8v9.9c0,2.3,0.1,4.5,0.4,6.3 H171.4z M170.7,84.4c-5.3-0.1-11.2,0.8-11.2,5.9c0,3.1,2.1,4.6,4.5,4.6c3.4,0,5.6-2.2,6.4-4.4c0.2-0.5,0.3-1,0.3-1.5V84.4z"/></g></g></a></g><a href="https://ourworldindata.org/grapher/urban-and-rural-population-sizes" target="_blank"><text font-size="25.20" x="15.0" y="35.2" fill="#555"><tspan x="15" y="35.160000000000004">Urban and rural population sizes, World</tspan></text></a><text font-size="14.40" x="15.0" y="53.7" fill="#666"><tspan x="15" y="53.72">The total number of people living in urban or rural areas. Urban populations are defined based on the definition of</tspan><tspan x="15" y="69.56">urban areas by national statistical offices.</tspan></text></g><g class="StackedArea"><defs><clipPath id="boundsClip-1039"><rect x="75.08" y="0" width="820" height="928.8"></rect></clipPath></defs><g class="AxisBoxView"><g class="HorizontalAxis"><text x="75.1" y="556.5" fill="#666" text-anchor="middle" font-size="16.2">1960</text><text x="184.1" y="556.5" fill="#666" text-anchor="middle" font-size="16.2">1970</text><text x="293.2" y="556.5" fill="#666" text-anchor="middle" font-size="16.2">1980</text><text x="402.3" y="556.5" fill="#666" text-anchor="middle" font-size="16.2">1990</text><text x="511.3" y="556.5" fill="#666" text-anchor="middle" font-size="16.2">2000</text><text x="620.4" y="556.5" fill="#666" text-anchor="middle" font-size="16.2">2010</text><text x="696.7" y="556.5" fill="#666" text-anchor="middle" font-size="16.2">2017</text></g><g class="VerticalAxis"><text x="70.08" y="535.3" fill="#666" dominant-baseline="middle" text-anchor="end" font-size="16.2">0</text><text x="70.08" y="476.4" fill="#666" dominant-baseline="middle" text-anchor="end" font-size="16.2">1 billion</text><text x="70.08" y="417.6" fill="#666" dominant-baseline="middle" text-anchor="end" font-size="16.2">2 billion</text><text x="70.08" y="358.7" fill="#666" dominant-baseline="middle" text-anchor="end" font-size="16.2">3 billion</text><text x="70.08" y="299.8" fill="#666" dominant-baseline="middle" text-anchor="end" font-size="16.2">4 billion</text><text x="70.08" y="241" fill="#666" dominant-baseline="middle" text-anchor="end" font-size="16.2">5 billion</text><text x="70.08" y="182.1" fill="#666" dominant-baseline="middle" text-anchor="end" font-size="16.2">6 billion</text><text x="70.08" y="123.2" fill="#666" dominant-baseline="middle" text-anchor="end" font-size="16.2">7 billion</text></g><g class="AxisGridLines"><line x1="75.08" y1="535.3" x2="696.73" y2="535.3" stroke="#ccc"></line><line x1="75.08" y1="476.4" x2="696.73" y2="476.4" stroke="#ddd" stroke-dasharray="3,2"></line><line x1="75.08" y1="417.6" x2="696.73" y2="417.6" stroke="#ddd" stroke-dasharray="3,2"></line><line x1="75.08" y1="358.7" x2="696.73" y2="358.7" stroke="#ddd" stroke-dasharray="3,2"></line><line x1="75.08" y1="299.8" x2="696.73" y2="299.8" stroke="#ddd" stroke-dasharray="3,2"></line><line x1="75.08" y1="241" x2="696.73" y2="241" stroke="#ddd" stroke-dasharray="3,2"></line><line x1="75.08" y1="182.1" x2="696.73" y2="182.1" stroke="#ddd" stroke-dasharray="3,2"></line><line x1="75.08" y1="123.2" x2="696.73" y2="123.2" stroke="#ddd" stroke-dasharray="3,2"></line></g></g><g clip-path="url(#boundsClip-1039)"><g class="HeightedLegend clickable"><g class="legendMark"><rect x="696.725" y="206.85" width="138.275" height="13.5" fill="#fff" opacity="0"></rect><text font-size="13.50" x="701.7" y="217.7" fill="#818282"><tspan x="701.725" y="217.65">Urban population</tspan></text></g><g class="legendMark"><rect x="696.725" y="428.45" width="133.685" height="13.5" fill="#fff" opacity="0"></rect><text font-size="13.50" x="701.7" y="439.3" fill="#34983f"><tspan x="701.725" y="439.25">Rural population</tspan></text></g></g><g class="Areas"><rect x="75.08" y="92.1" width="621.645" height="443.19999999999993" opacity="0" fill="rgba(255,255,255,0)"></rect><path stroke-linecap="round" d="M75.1 416.8L86 416.2L96.9 414.9L107.8 413.1L118.7 411.4L129.6 409.2L140.5 407L151.4 404.8L162.3 402.5L173.2 400.1L184.1 397.7L195 395.2L206 392.8L216.9 390.6L227.8 388.4L238.7 386.2L249.6 384.1L260.5 382.1L271.4 380.3L282.3 378.6L293.2 376.9L304.1 375.2L315 373.4L325.9 371.4L336.8 369.6L347.7 367.7L358.6 365.8L369.5 363.8L380.4 361.9L391.4 360L402.3 358.1L413.2 356.3L424.1 354.6L435 352.9L445.9 351.4L456.8 349.9L467.7 348.4L478.6 347L489.5 345.7L500.4 344.4L511.3 343.3L522.2 342.4L533.1 341.8L544 341.2L554.9 340.7L565.9 340.2L576.8 339.7L587.7 339.2L598.6 338.8L609.5 338.4L620.4 338.1L631.3 337.6L642.2 337.1L653.1 336.6L664 336.1L674.9 335.8L685.8 335.4L696.7 335.1L696.725 535.3L75.08 535.3" fill="#34983f" fill-opacity="0.7" class="World_1-area"></path><path stroke-linecap="round" d="M75.1 356.9L86 354.4L96.9 351.3L107.8 347.5L118.7 343.6L129.6 339.6L140.5 335.5L151.4 331.4L162.3 327.2L173.2 322.8L184.1 318.4L195 313.8L206 309.3L216.9 304.8L227.8 300.3L238.7 295.9L249.6 291.6L260.5 287.3L271.4 283L282.3 278.5L293.2 274L304.1 269.4L315 264.6L325.9 259.8L336.8 255L347.7 250.1L358.6 245.1L369.5 239.9L380.4 234.7L391.4 229.4L402.3 224.1L413.2 219L424.1 214L435 209L445.9 204.1L456.8 199.1L467.7 194.2L478.6 189.3L489.5 184.5L500.4 179.7L511.3 175L522.2 170.3L533.1 165.7L544 161L554.9 156.3L565.9 151.6L576.8 146.8L587.7 142L598.6 137.1L609.5 132.2L620.4 127.3L631.3 122.4L642.2 117.5L653.1 112.4L664 107.3L674.9 102.3L685.8 97.2L696.7 92.1L696.7 335.1L685.8 335.4L674.9 335.8L664 336.1L653.1 336.6L642.2 337.1L631.3 337.6L620.4 338.1L609.5 338.4L598.6 338.8L587.7 339.2L576.8 339.7L565.9 340.2L554.9 340.7L544 341.2L533.1 341.8L522.2 342.4L511.3 343.3L500.4 344.4L489.5 345.7L478.6 347L467.7 348.4L456.8 349.9L445.9 351.4L435 352.9L424.1 354.6L413.2 356.3L402.3 358.1L391.4 360L380.4 361.9L369.5 363.8L358.6 365.8L347.7 367.7L336.8 369.6L325.9 371.4L315 373.4L304.1 375.2L293.2 376.9L282.3 378.6L271.4 380.3L260.5 382.1L249.6 384.1L238.7 386.2L227.8 388.4L216.9 390.6L206 392.8L195 395.2L184.1 397.7L173.2 400.1L162.3 402.5L151.4 404.8L140.5 407L129.6 409.2L118.7 411.4L107.8 413.1L96.9 414.9L86 416.2L75.1 416.8" fill="#818282" fill-opacity="0.7" class="World_0-area"></path><path stroke-linecap="round" d="M75.1 416.8L86 416.2L96.9 414.9L107.8 413.1L118.7 411.4L129.6 409.2L140.5 407L151.4 404.8L162.3 402.5L173.2 400.1L184.1 397.7L195 395.2L206 392.8L216.9 390.6L227.8 388.4L238.7 386.2L249.6 384.1L260.5 382.1L271.4 380.3L282.3 378.6L293.2 376.9L304.1 375.2L315 373.4L325.9 371.4L336.8 369.6L347.7 367.7L358.6 365.8L369.5 363.8L380.4 361.9L391.4 360L402.3 358.1L413.2 356.3L424.1 354.6L435 352.9L445.9 351.4L456.8 349.9L467.7 348.4L478.6 347L489.5 345.7L500.4 344.4L511.3 343.3L522.2 342.4L533.1 341.8L544 341.2L554.9 340.7L565.9 340.2L576.8 339.7L587.7 339.2L598.6 338.8L609.5 338.4L620.4 338.1L631.3 337.6L642.2 337.1L653.1 336.6L664 336.1L674.9 335.8L685.8 335.4L696.7 335.1" stroke="rgb(44, 127, 53)" stroke-opacity="0.7" stroke-width="0.5" fill="none" class="World_1-border"></path><path stroke-linecap="round" d="M75.1 356.9L86 354.4L96.9 351.3L107.8 347.5L118.7 343.6L129.6 339.6L140.5 335.5L151.4 331.4L162.3 327.2L173.2 322.8L184.1 318.4L195 313.8L206 309.3L216.9 304.8L227.8 300.3L238.7 295.9L249.6 291.6L260.5 287.3L271.4 283L282.3 278.5L293.2 274L304.1 269.4L315 264.6L325.9 259.8L336.8 255L347.7 250.1L358.6 245.1L369.5 239.9L380.4 234.7L391.4 229.4L402.3 224.1L413.2 219L424.1 214L435 209L445.9 204.1L456.8 199.1L467.7 194.2L478.6 189.3L489.5 184.5L500.4 179.7L511.3 175L522.2 170.3L533.1 165.7L544 161L554.9 156.3L565.9 151.6L576.8 146.8L587.7 142L598.6 137.1L609.5 132.2L620.4 127.3L631.3 122.4L642.2 117.5L653.1 112.4L664 107.3L674.9 102.3L685.8 97.2L696.7 92.1" stroke="rgb(108, 109, 109)" stroke-opacity="0.7" stroke-width="0.5" fill="none" class="World_0-border"></path></g></g></g><g style="fill: #777;" class="SourcesFooter"><g style="fill: #777;" class="clickable"><text font-size="12.60" x="15.0" y="581.6"><tspan x="15" y="581.58">Source: World Bank, based on UN estimates</tspan></text></g><text font-size="12.60" x="775.4" y="581.6"><tspan x="775.402" y="581.58"><a style="fill: #777;" class="cclogo" href="http://creativecommons.org/licenses/by-sa/4.0/deed.en_US" target="_blank">CC BY-SA</a></tspan></text></g></g></svg>