<svg xmlns="http://www.w3.org/2000/svg" version="1.1" style="font-family:Lato, &#x27;Helvetica Neue&#x27;, Helvetica, Arial, sans-serif;font-size:18px;background-color:white;text-rendering:optimizeLegibility;-webkit-font-smoothing:antialiased" width="850" height="600"><g class="HeaderView"><a href="https://mispytest.ourworldindata.org/grapher/wages-relative-to-the-cost-of-capital" target="_blank"><text font-size="21.60" x="15.0" y="32.3" fill="#555"><tspan x="15" y="32.279999999999994">Wages relative to the cost of capital (late sixteenth to the early nineteenth century)</tspan></text></a><text font-size="14.40" x="15.0" y="50.1" fill="#666"><tspan x="15" y="50.11999999999999">Unit 2 &#x27;Technology, population, and growth’ Section 2.6 &#x27;The British Industrial Revolution and incentives for new technologies&#x27;</tspan><tspan x="15" y="65.96">in The CORE Team, The Economy. Available at: https://tinyco.re/2183446 [Figure 2.11]</tspan></text></g><g class="LineChart"><defs><clipPath id="boundsClip-355"><rect x="32.68" y="0" width="830" height="912.6"></rect></clipPath></defs><g class="AxisBoxView"><g class="HorizontalAxis"><text x="42.7" y="542.8" fill="#666" text-anchor="middle" font-size="16.2">1582</text><text x="94.7" y="542.8" fill="#666" text-anchor="middle" font-size="16.2">1600</text><text x="239" y="542.8" fill="#666" text-anchor="middle" font-size="16.2">1650</text><text x="383.4" y="542.8" fill="#666" text-anchor="middle" font-size="16.2">1700</text><text x="527.8" y="542.8" fill="#666" text-anchor="middle" font-size="16.2">1750</text><text x="672.2" y="542.8" fill="#666" text-anchor="middle" font-size="16.2">1800</text><text x="750.2" y="542.8" fill="#666" text-anchor="middle" font-size="16.2">1827</text></g><g class="VerticalAxis"><text x="37.68" y="521.6" fill="#666" dominant-baseline="middle" text-anchor="end" font-size="16.2">0</text><text x="37.68" y="471.4" fill="#666" dominant-baseline="middle" text-anchor="end" font-size="16.2">0.2</text><text x="37.68" y="421.2" fill="#666" dominant-baseline="middle" text-anchor="end" font-size="16.2">0.4</text><text x="37.68" y="371" fill="#666" dominant-baseline="middle" text-anchor="end" font-size="16.2">0.6</text><text x="37.68" y="320.8" fill="#666" dominant-baseline="middle" text-anchor="end" font-size="16.2">0.8</text><text x="37.68" y="270.6" fill="#666" dominant-baseline="middle" text-anchor="end" font-size="16.2">1</text><text x="37.68" y="220.4" fill="#666" dominant-baseline="middle" text-anchor="end" font-size="16.2">1.2</text><text x="37.68" y="170.2" fill="#666" dominant-baseline="middle" text-anchor="end" font-size="16.2">1.4</text><text x="37.68" y="120" fill="#666" dominant-baseline="middle" text-anchor="end" font-size="16.2">1.6</text></g><g class="AxisGridLines"><line x1="42.68" y1="521.6" x2="750.18" y2="521.6" stroke="#ccc"></line><line x1="42.68" y1="471.4" x2="750.18" y2="471.4" stroke="#ddd" stroke-dasharray="3,2"></line><line x1="42.68" y1="421.2" x2="750.18" y2="421.2" stroke="#ddd" stroke-dasharray="3,2"></line><line x1="42.68" y1="371" x2="750.18" y2="371" stroke="#ddd" stroke-dasharray="3,2"></line><line x1="42.68" y1="320.8" x2="750.18" y2="320.8" stroke="#ddd" stroke-dasharray="3,2"></line><line x1="42.68" y1="270.6" x2="750.18" y2="270.6" stroke="#ddd" stroke-dasharray="3,2"></line><line x1="42.68" y1="220.4" x2="750.18" y2="220.4" stroke="#ddd" stroke-dasharray="3,2"></line><line x1="42.68" y1="170.2" x2="750.18" y2="170.2" stroke="#ddd" stroke-dasharray="3,2"></line><line x1="42.68" y1="120" x2="750.18" y2="120" stroke="#ddd" stroke-dasharray="3,2"></line></g></g><g clip-path="url(#boundsClip-355)"><g class="HeightedLegend clickable"><g class="legendMark"><rect x="750.185" y="79.75" width="84.815" height="13.5" fill="#fff" opacity="0"></rect><text font-size="13.50" x="755.2" y="90.5" fill="#3360a9"><tspan x="755.185" y="90.55">England</tspan></text></g><g class="legendMark"><rect x="750.185" y="282.95" width="77.12" height="13.5" fill="#fff" opacity="0"></rect><text font-size="13.50" x="755.2" y="293.8" fill="#ce8ebd"><tspan x="755.185" y="293.75">France</tspan></text></g></g><g class="Lines"><rect x="43" y="87" width="708" height="435" fill="rgba(255,255,255,0)" opacity="0"></rect><g class="key-England_0"><path stroke="#3360a9" stroke-linecap="round" d="M43 282L46 281L49 284L51 288L54 288L57 288L60 286L63 286L66 283L69 283L72 284L74 287L77 289L80 291L83 294L86 295L89 293L92 293L95 292L98 291L100 293L103 300L106 303L109 307L112 310L115 311L118 306L121 303L124 303L126 301L129 300L132 301L135 303L138 305L141 304L144 304L147 306L150 307L152 305L155 306L158 307L161 302L164 298L167 292L170 286L173 280L176 277L178 274L181 274L184 274L187 273L190 272L193 271L196 271L199 270L202 271L204 267L207 264L210 260L213 256L216 255L219 257L222 257L225 257L228 254L230 252L233 255L236 247L239 241L242 237L245 231L248 225L251 229L254 233L256 238L259 241L262 242L265 243L268 242L271 241L274 242L277 242L280 243L282 242L285 242L288 241L291 241L294 241L297 242L300 243L303 244L306 244L308 244L311 244L314 244L317 244L320 244L323 244L326 244L329 245L332 244L334 244L337 242L340 241L343 239L346 238L349 237L352 238L355 239L357 240L360 238L363 236L366 235L369 234L372 232L375 234L378 235L381 235L383 233L386 230L389 226L392 222L395 216L398 213L401 211L404 208L407 208L409 207L412 207L415 207L418 206L421 201L424 196L427 192L430 189L433 188L435 190L438 192L441 194L444 194L447 194L450 195L453 197L456 199L459 202L461 205L464 206L467 205L470 200L473 195L476 190L479 184L482 180L485 178L487 176L490 175L493 174L496 174L499 174L502 174L505 172L508 171L511 170L513 168L516 167L519 167L522 167L525 168L528 168L531 168L534 168L537 168L539 168L542 170L545 171L548 172L551 173L554 172L557 171L560 170L563 169L565 169L568 169L571 169L574 169L577 169L580 169L583 170L586 172L589 174L591 172L594 171L597 168L600 162L603 156L606 153L609 151L612 148L615 148L617 148L620 150L623 150L626 150L629 150L632 150L635 148L638 149L640 155L643 160L646 166L649 169L652 171L655 168L658 168L661 168L664 170L666 174L669 169L672 173L675 158L678 145L681 144L684 152L687 139L690 142L692 150L695 139L698 130L701 129L704 128L707 122L710 120L713 110L716 106L718 105L721 105L724 101L727 102L730 100L733 96L736 94L739 95L742 94L744 89L747 89L750 87" fill="none" stroke-width="1.5"></path><g fill="#3360a9"><circle cx="43" cy="282" r="2"></circle><circle cx="46" cy="281" r="2"></circle><circle cx="49" cy="284" r="2"></circle><circle cx="51" cy="288" r="2"></circle><circle cx="54" cy="288" r="2"></circle><circle cx="57" cy="288" r="2"></circle><circle cx="60" cy="286" r="2"></circle><circle cx="63" cy="286" r="2"></circle><circle cx="66" cy="283" r="2"></circle><circle cx="69" cy="283" r="2"></circle><circle cx="72" cy="284" r="2"></circle><circle cx="74" cy="287" r="2"></circle><circle cx="77" cy="289" r="2"></circle><circle cx="80" cy="291" r="2"></circle><circle cx="83" cy="294" r="2"></circle><circle cx="86" cy="295" r="2"></circle><circle cx="89" cy="293" r="2"></circle><circle cx="92" cy="293" r="2"></circle><circle cx="95" cy="292" r="2"></circle><circle cx="98" cy="291" r="2"></circle><circle cx="100" cy="293" r="2"></circle><circle cx="103" cy="300" r="2"></circle><circle cx="106" cy="303" r="2"></circle><circle cx="109" cy="307" r="2"></circle><circle cx="112" cy="310" r="2"></circle><circle cx="115" cy="311" r="2"></circle><circle cx="118" cy="306" r="2"></circle><circle cx="121" cy="303" r="2"></circle><circle cx="124" cy="303" r="2"></circle><circle cx="126" cy="301" r="2"></circle><circle cx="129" cy="300" r="2"></circle><circle cx="132" cy="301" r="2"></circle><circle cx="135" cy="303" r="2"></circle><circle cx="138" cy="305" r="2"></circle><circle cx="141" cy="304" r="2"></circle><circle cx="144" cy="304" r="2"></circle><circle cx="147" cy="306" r="2"></circle><circle cx="150" cy="307" r="2"></circle><circle cx="152" cy="305" r="2"></circle><circle cx="155" cy="306" r="2"></circle><circle cx="158" cy="307" r="2"></circle><circle cx="161" cy="302" r="2"></circle><circle cx="164" cy="298" r="2"></circle><circle cx="167" cy="292" r="2"></circle><circle cx="170" cy="286" r="2"></circle><circle cx="173" cy="280" r="2"></circle><circle cx="176" cy="277" r="2"></circle><circle cx="178" cy="274" r="2"></circle><circle cx="181" cy="274" r="2"></circle><circle cx="184" cy="274" r="2"></circle><circle cx="187" cy="273" r="2"></circle><circle cx="190" cy="272" r="2"></circle><circle cx="193" cy="271" r="2"></circle><circle cx="196" cy="271" r="2"></circle><circle cx="199" cy="270" r="2"></circle><circle cx="202" cy="271" r="2"></circle><circle cx="204" cy="267" r="2"></circle><circle cx="207" cy="264" r="2"></circle><circle cx="210" cy="260" r="2"></circle><circle cx="213" cy="256" r="2"></circle><circle cx="216" cy="255" r="2"></circle><circle cx="219" cy="257" r="2"></circle><circle cx="222" cy="257" r="2"></circle><circle cx="225" cy="257" r="2"></circle><circle cx="228" cy="254" r="2"></circle><circle cx="230" cy="252" r="2"></circle><circle cx="233" cy="255" r="2"></circle><circle cx="236" cy="247" r="2"></circle><circle cx="239" cy="241" r="2"></circle><circle cx="242" cy="237" r="2"></circle><circle cx="245" cy="231" r="2"></circle><circle cx="248" cy="225" r="2"></circle><circle cx="251" cy="229" r="2"></circle><circle cx="254" cy="233" r="2"></circle><circle cx="256" cy="238" r="2"></circle><circle cx="259" cy="241" r="2"></circle><circle cx="262" cy="242" r="2"></circle><circle cx="265" cy="243" r="2"></circle><circle cx="268" cy="242" r="2"></circle><circle cx="271" cy="241" r="2"></circle><circle cx="274" cy="242" r="2"></circle><circle cx="277" cy="242" r="2"></circle><circle cx="280" cy="243" r="2"></circle><circle cx="282" cy="242" r="2"></circle><circle cx="285" cy="242" r="2"></circle><circle cx="288" cy="241" r="2"></circle><circle cx="291" cy="241" r="2"></circle><circle cx="294" cy="241" r="2"></circle><circle cx="297" cy="242" r="2"></circle><circle cx="300" cy="243" r="2"></circle><circle cx="303" cy="244" r="2"></circle><circle cx="306" cy="244" r="2"></circle><circle cx="308" cy="244" r="2"></circle><circle cx="311" cy="244" r="2"></circle><circle cx="314" cy="244" r="2"></circle><circle cx="317" cy="244" r="2"></circle><circle cx="320" cy="244" r="2"></circle><circle cx="323" cy="244" r="2"></circle><circle cx="326" cy="244" r="2"></circle><circle cx="329" cy="245" r="2"></circle><circle cx="332" cy="244" r="2"></circle><circle cx="334" cy="244" r="2"></circle><circle cx="337" cy="242" r="2"></circle><circle cx="340" cy="241" r="2"></circle><circle cx="343" cy="239" r="2"></circle><circle cx="346" cy="238" r="2"></circle><circle cx="349" cy="237" r="2"></circle><circle cx="352" cy="238" r="2"></circle><circle cx="355" cy="239" r="2"></circle><circle cx="357" cy="240" r="2"></circle><circle cx="360" cy="238" r="2"></circle><circle cx="363" cy="236" r="2"></circle><circle cx="366" cy="235" r="2"></circle><circle cx="369" cy="234" r="2"></circle><circle cx="372" cy="232" r="2"></circle><circle cx="375" cy="234" r="2"></circle><circle cx="378" cy="235" r="2"></circle><circle cx="381" cy="235" r="2"></circle><circle cx="383" cy="233" r="2"></circle><circle cx="386" cy="230" r="2"></circle><circle cx="389" cy="226" r="2"></circle><circle cx="392" cy="222" r="2"></circle><circle cx="395" cy="216" r="2"></circle><circle cx="398" cy="213" r="2"></circle><circle cx="401" cy="211" r="2"></circle><circle cx="404" cy="208" r="2"></circle><circle cx="407" cy="208" r="2"></circle><circle cx="409" cy="207" r="2"></circle><circle cx="412" cy="207" r="2"></circle><circle cx="415" cy="207" r="2"></circle><circle cx="418" cy="206" r="2"></circle><circle cx="421" cy="201" r="2"></circle><circle cx="424" cy="196" r="2"></circle><circle cx="427" cy="192" r="2"></circle><circle cx="430" cy="189" r="2"></circle><circle cx="433" cy="188" r="2"></circle><circle cx="435" cy="190" r="2"></circle><circle cx="438" cy="192" r="2"></circle><circle cx="441" cy="194" r="2"></circle><circle cx="444" cy="194" r="2"></circle><circle cx="447" cy="194" r="2"></circle><circle cx="450" cy="195" r="2"></circle><circle cx="453" cy="197" r="2"></circle><circle cx="456" cy="199" r="2"></circle><circle cx="459" cy="202" r="2"></circle><circle cx="461" cy="205" r="2"></circle><circle cx="464" cy="206" r="2"></circle><circle cx="467" cy="205" r="2"></circle><circle cx="470" cy="200" r="2"></circle><circle cx="473" cy="195" r="2"></circle><circle cx="476" cy="190" r="2"></circle><circle cx="479" cy="184" r="2"></circle><circle cx="482" cy="180" r="2"></circle><circle cx="485" cy="178" r="2"></circle><circle cx="487" cy="176" r="2"></circle><circle cx="490" cy="175" r="2"></circle><circle cx="493" cy="174" r="2"></circle><circle cx="496" cy="174" r="2"></circle><circle cx="499" cy="174" r="2"></circle><circle cx="502" cy="174" r="2"></circle><circle cx="505" cy="172" r="2"></circle><circle cx="508" cy="171" r="2"></circle><circle cx="511" cy="170" r="2"></circle><circle cx="513" cy="168" r="2"></circle><circle cx="516" cy="167" r="2"></circle><circle cx="519" cy="167" r="2"></circle><circle cx="522" cy="167" r="2"></circle><circle cx="525" cy="168" r="2"></circle><circle cx="528" cy="168" r="2"></circle><circle cx="531" cy="168" r="2"></circle><circle cx="534" cy="168" r="2"></circle><circle cx="537" cy="168" r="2"></circle><circle cx="539" cy="168" r="2"></circle><circle cx="542" cy="170" r="2"></circle><circle cx="545" cy="171" r="2"></circle><circle cx="548" cy="172" r="2"></circle><circle cx="551" cy="173" r="2"></circle><circle cx="554" cy="172" r="2"></circle><circle cx="557" cy="171" r="2"></circle><circle cx="560" cy="170" r="2"></circle><circle cx="563" cy="169" r="2"></circle><circle cx="565" cy="169" r="2"></circle><circle cx="568" cy="169" r="2"></circle><circle cx="571" cy="169" r="2"></circle><circle cx="574" cy="169" r="2"></circle><circle cx="577" cy="169" r="2"></circle><circle cx="580" cy="169" r="2"></circle><circle cx="583" cy="170" r="2"></circle><circle cx="586" cy="172" r="2"></circle><circle cx="589" cy="174" r="2"></circle><circle cx="591" cy="172" r="2"></circle><circle cx="594" cy="171" r="2"></circle><circle cx="597" cy="168" r="2"></circle><circle cx="600" cy="162" r="2"></circle><circle cx="603" cy="156" r="2"></circle><circle cx="606" cy="153" r="2"></circle><circle cx="609" cy="151" r="2"></circle><circle cx="612" cy="148" r="2"></circle><circle cx="615" cy="148" r="2"></circle><circle cx="617" cy="148" r="2"></circle><circle cx="620" cy="150" r="2"></circle><circle cx="623" cy="150" r="2"></circle><circle cx="626" cy="150" r="2"></circle><circle cx="629" cy="150" r="2"></circle><circle cx="632" cy="150" r="2"></circle><circle cx="635" cy="148" r="2"></circle><circle cx="638" cy="149" r="2"></circle><circle cx="640" cy="155" r="2"></circle><circle cx="643" cy="160" r="2"></circle><circle cx="646" cy="166" r="2"></circle><circle cx="649" cy="169" r="2"></circle><circle cx="652" cy="171" r="2"></circle><circle cx="655" cy="168" r="2"></circle><circle cx="658" cy="168" r="2"></circle><circle cx="661" cy="168" r="2"></circle><circle cx="664" cy="170" r="2"></circle><circle cx="666" cy="174" r="2"></circle><circle cx="669" cy="169" r="2"></circle><circle cx="672" cy="173" r="2"></circle><circle cx="675" cy="158" r="2"></circle><circle cx="678" cy="145" r="2"></circle><circle cx="681" cy="144" r="2"></circle><circle cx="684" cy="152" r="2"></circle><circle cx="687" cy="139" r="2"></circle><circle cx="690" cy="142" r="2"></circle><circle cx="692" cy="150" r="2"></circle><circle cx="695" cy="139" r="2"></circle><circle cx="698" cy="130" r="2"></circle><circle cx="701" cy="129" r="2"></circle><circle cx="704" cy="128" r="2"></circle><circle cx="707" cy="122" r="2"></circle><circle cx="710" cy="120" r="2"></circle><circle cx="713" cy="110" r="2"></circle><circle cx="716" cy="106" r="2"></circle><circle cx="718" cy="105" r="2"></circle><circle cx="721" cy="105" r="2"></circle><circle cx="724" cy="101" r="2"></circle><circle cx="727" cy="102" r="2"></circle><circle cx="730" cy="100" r="2"></circle><circle cx="733" cy="96" r="2"></circle><circle cx="736" cy="94" r="2"></circle><circle cx="739" cy="95" r="2"></circle><circle cx="742" cy="94" r="2"></circle><circle cx="744" cy="89" r="2"></circle><circle cx="747" cy="89" r="2"></circle><circle cx="750" cy="87" r="2"></circle></g></g><g class="key-France_0"><path stroke="#ce8ebd" stroke-linecap="round" d="M43 237L46 238L49 239L51 248L54 248L57 248L60 249L63 250L66 248L69 247L72 247L74 246L77 247L80 249L83 250L86 250L89 249L92 248L95 245L98 239L100 234L103 229L106 223L109 221L112 222L115 222L118 222L121 222L124 223L126 226L129 229L132 232L135 235L138 238L141 238L144 238L147 238L150 238L152 238L155 238L158 238L161 238L164 243L167 249L170 254L173 260L176 265L178 265L181 265L184 265L187 265L190 265L193 265L196 265L199 265L202 265L204 265L207 265L210 265L213 265L216 265L219 265L222 268L225 271L228 273L230 276L233 280L236 285L239 290L242 294L245 298L248 299L251 299L254 298L256 299L259 300L262 301L265 302L268 303L271 304L274 304L277 304L280 304L282 303L285 302L288 301L291 302L294 302L297 302L300 303L303 303L306 303L308 302L311 301L314 299L317 299L320 298L323 298L326 299L329 298L332 296L334 294L337 292L340 291L343 292L346 292L349 293L352 295L355 294L357 294L360 294L363 293L366 292L369 292L372 292L375 290L378 291L381 289L383 287L386 286L389 285L392 285L395 286L398 286L401 288L404 286L407 283L409 282L412 281L415 278L418 279L421 280L424 281L427 280L430 277L433 276L435 276L438 276L441 276L444 278L447 279L450 278L453 283L456 288L459 293L461 297L464 304L467 305L470 306L473 308L476 310L479 311L482 311L485 312L487 312L490 311L493 310L496 310L499 310L502 311L505 313L508 314L511 316L513 317L516 319L519 317L522 315L525 312L528 310L531 308L534 307L537 306L539 306L542 306L545 305L548 305L551 306L554 306L557 306L560 307L563 308L565 306L568 298L571 290L574 281L577 271L580 265L583 271L586 276L589 282L591 288L594 294L597 294L600 294L603 293L606 294L609 294L612 294L615 293L617 292L620 294L623 295L626 297L629 300L632 301L635 299L638 298L640 295L643 291L646 287L649 284L652 280L655 277L658 274L661 270L664 267L666 263L669 260L672 257L675 254L678 252L681 252L684 254L687 255L690 257L692 261L695 263L698 262L701 263L704 264L707 261L710 260L713 260L716 261L718 258L721 259L724 261L727 261L730 259L733 260L736 260L739 259L742 266L744 276L747 283L750 290" fill="none" stroke-width="1.5"></path><g fill="#ce8ebd"><circle cx="43" cy="237" r="2"></circle><circle cx="46" cy="238" r="2"></circle><circle cx="49" cy="239" r="2"></circle><circle cx="51" cy="248" r="2"></circle><circle cx="54" cy="248" r="2"></circle><circle cx="57" cy="248" r="2"></circle><circle cx="60" cy="249" r="2"></circle><circle cx="63" cy="250" r="2"></circle><circle cx="66" cy="248" r="2"></circle><circle cx="69" cy="247" r="2"></circle><circle cx="72" cy="247" r="2"></circle><circle cx="74" cy="246" r="2"></circle><circle cx="77" cy="247" r="2"></circle><circle cx="80" cy="249" r="2"></circle><circle cx="83" cy="250" r="2"></circle><circle cx="86" cy="250" r="2"></circle><circle cx="89" cy="249" r="2"></circle><circle cx="92" cy="248" r="2"></circle><circle cx="95" cy="245" r="2"></circle><circle cx="98" cy="239" r="2"></circle><circle cx="100" cy="234" r="2"></circle><circle cx="103" cy="229" r="2"></circle><circle cx="106" cy="223" r="2"></circle><circle cx="109" cy="221" r="2"></circle><circle cx="112" cy="222" r="2"></circle><circle cx="115" cy="222" r="2"></circle><circle cx="118" cy="222" r="2"></circle><circle cx="121" cy="222" r="2"></circle><circle cx="124" cy="223" r="2"></circle><circle cx="126" cy="226" r="2"></circle><circle cx="129" cy="229" r="2"></circle><circle cx="132" cy="232" r="2"></circle><circle cx="135" cy="235" r="2"></circle><circle cx="138" cy="238" r="2"></circle><circle cx="141" cy="238" r="2"></circle><circle cx="144" cy="238" r="2"></circle><circle cx="147" cy="238" r="2"></circle><circle cx="150" cy="238" r="2"></circle><circle cx="152" cy="238" r="2"></circle><circle cx="155" cy="238" r="2"></circle><circle cx="158" cy="238" r="2"></circle><circle cx="161" cy="238" r="2"></circle><circle cx="164" cy="243" r="2"></circle><circle cx="167" cy="249" r="2"></circle><circle cx="170" cy="254" r="2"></circle><circle cx="173" cy="260" r="2"></circle><circle cx="176" cy="265" r="2"></circle><circle cx="178" cy="265" r="2"></circle><circle cx="181" cy="265" r="2"></circle><circle cx="184" cy="265" r="2"></circle><circle cx="187" cy="265" r="2"></circle><circle cx="190" cy="265" r="2"></circle><circle cx="193" cy="265" r="2"></circle><circle cx="196" cy="265" r="2"></circle><circle cx="199" cy="265" r="2"></circle><circle cx="202" cy="265" r="2"></circle><circle cx="204" cy="265" r="2"></circle><circle cx="207" cy="265" r="2"></circle><circle cx="210" cy="265" r="2"></circle><circle cx="213" cy="265" r="2"></circle><circle cx="216" cy="265" r="2"></circle><circle cx="219" cy="265" r="2"></circle><circle cx="222" cy="268" r="2"></circle><circle cx="225" cy="271" r="2"></circle><circle cx="228" cy="273" r="2"></circle><circle cx="230" cy="276" r="2"></circle><circle cx="233" cy="280" r="2"></circle><circle cx="236" cy="285" r="2"></circle><circle cx="239" cy="290" r="2"></circle><circle cx="242" cy="294" r="2"></circle><circle cx="245" cy="298" r="2"></circle><circle cx="248" cy="299" r="2"></circle><circle cx="251" cy="299" r="2"></circle><circle cx="254" cy="298" r="2"></circle><circle cx="256" cy="299" r="2"></circle><circle cx="259" cy="300" r="2"></circle><circle cx="262" cy="301" r="2"></circle><circle cx="265" cy="302" r="2"></circle><circle cx="268" cy="303" r="2"></circle><circle cx="271" cy="304" r="2"></circle><circle cx="274" cy="304" r="2"></circle><circle cx="277" cy="304" r="2"></circle><circle cx="280" cy="304" r="2"></circle><circle cx="282" cy="303" r="2"></circle><circle cx="285" cy="302" r="2"></circle><circle cx="288" cy="301" r="2"></circle><circle cx="291" cy="302" r="2"></circle><circle cx="294" cy="302" r="2"></circle><circle cx="297" cy="302" r="2"></circle><circle cx="300" cy="303" r="2"></circle><circle cx="303" cy="303" r="2"></circle><circle cx="306" cy="303" r="2"></circle><circle cx="308" cy="302" r="2"></circle><circle cx="311" cy="301" r="2"></circle><circle cx="314" cy="299" r="2"></circle><circle cx="317" cy="299" r="2"></circle><circle cx="320" cy="298" r="2"></circle><circle cx="323" cy="298" r="2"></circle><circle cx="326" cy="299" r="2"></circle><circle cx="329" cy="298" r="2"></circle><circle cx="332" cy="296" r="2"></circle><circle cx="334" cy="294" r="2"></circle><circle cx="337" cy="292" r="2"></circle><circle cx="340" cy="291" r="2"></circle><circle cx="343" cy="292" r="2"></circle><circle cx="346" cy="292" r="2"></circle><circle cx="349" cy="293" r="2"></circle><circle cx="352" cy="295" r="2"></circle><circle cx="355" cy="294" r="2"></circle><circle cx="357" cy="294" r="2"></circle><circle cx="360" cy="294" r="2"></circle><circle cx="363" cy="293" r="2"></circle><circle cx="366" cy="292" r="2"></circle><circle cx="369" cy="292" r="2"></circle><circle cx="372" cy="292" r="2"></circle><circle cx="375" cy="290" r="2"></circle><circle cx="378" cy="291" r="2"></circle><circle cx="381" cy="289" r="2"></circle><circle cx="383" cy="287" r="2"></circle><circle cx="386" cy="286" r="2"></circle><circle cx="389" cy="285" r="2"></circle><circle cx="392" cy="285" r="2"></circle><circle cx="395" cy="286" r="2"></circle><circle cx="398" cy="286" r="2"></circle><circle cx="401" cy="288" r="2"></circle><circle cx="404" cy="286" r="2"></circle><circle cx="407" cy="283" r="2"></circle><circle cx="409" cy="282" r="2"></circle><circle cx="412" cy="281" r="2"></circle><circle cx="415" cy="278" r="2"></circle><circle cx="418" cy="279" r="2"></circle><circle cx="421" cy="280" r="2"></circle><circle cx="424" cy="281" r="2"></circle><circle cx="427" cy="280" r="2"></circle><circle cx="430" cy="277" r="2"></circle><circle cx="433" cy="276" r="2"></circle><circle cx="435" cy="276" r="2"></circle><circle cx="438" cy="276" r="2"></circle><circle cx="441" cy="276" r="2"></circle><circle cx="444" cy="278" r="2"></circle><circle cx="447" cy="279" r="2"></circle><circle cx="450" cy="278" r="2"></circle><circle cx="453" cy="283" r="2"></circle><circle cx="456" cy="288" r="2"></circle><circle cx="459" cy="293" r="2"></circle><circle cx="461" cy="297" r="2"></circle><circle cx="464" cy="304" r="2"></circle><circle cx="467" cy="305" r="2"></circle><circle cx="470" cy="306" r="2"></circle><circle cx="473" cy="308" r="2"></circle><circle cx="476" cy="310" r="2"></circle><circle cx="479" cy="311" r="2"></circle><circle cx="482" cy="311" r="2"></circle><circle cx="485" cy="312" r="2"></circle><circle cx="487" cy="312" r="2"></circle><circle cx="490" cy="311" r="2"></circle><circle cx="493" cy="310" r="2"></circle><circle cx="496" cy="310" r="2"></circle><circle cx="499" cy="310" r="2"></circle><circle cx="502" cy="311" r="2"></circle><circle cx="505" cy="313" r="2"></circle><circle cx="508" cy="314" r="2"></circle><circle cx="511" cy="316" r="2"></circle><circle cx="513" cy="317" r="2"></circle><circle cx="516" cy="319" r="2"></circle><circle cx="519" cy="317" r="2"></circle><circle cx="522" cy="315" r="2"></circle><circle cx="525" cy="312" r="2"></circle><circle cx="528" cy="310" r="2"></circle><circle cx="531" cy="308" r="2"></circle><circle cx="534" cy="307" r="2"></circle><circle cx="537" cy="306" r="2"></circle><circle cx="539" cy="306" r="2"></circle><circle cx="542" cy="306" r="2"></circle><circle cx="545" cy="305" r="2"></circle><circle cx="548" cy="305" r="2"></circle><circle cx="551" cy="306" r="2"></circle><circle cx="554" cy="306" r="2"></circle><circle cx="557" cy="306" r="2"></circle><circle cx="560" cy="307" r="2"></circle><circle cx="563" cy="308" r="2"></circle><circle cx="565" cy="306" r="2"></circle><circle cx="568" cy="298" r="2"></circle><circle cx="571" cy="290" r="2"></circle><circle cx="574" cy="281" r="2"></circle><circle cx="577" cy="271" r="2"></circle><circle cx="580" cy="265" r="2"></circle><circle cx="583" cy="271" r="2"></circle><circle cx="586" cy="276" r="2"></circle><circle cx="589" cy="282" r="2"></circle><circle cx="591" cy="288" r="2"></circle><circle cx="594" cy="294" r="2"></circle><circle cx="597" cy="294" r="2"></circle><circle cx="600" cy="294" r="2"></circle><circle cx="603" cy="293" r="2"></circle><circle cx="606" cy="294" r="2"></circle><circle cx="609" cy="294" r="2"></circle><circle cx="612" cy="294" r="2"></circle><circle cx="615" cy="293" r="2"></circle><circle cx="617" cy="292" r="2"></circle><circle cx="620" cy="294" r="2"></circle><circle cx="623" cy="295" r="2"></circle><circle cx="626" cy="297" r="2"></circle><circle cx="629" cy="300" r="2"></circle><circle cx="632" cy="301" r="2"></circle><circle cx="635" cy="299" r="2"></circle><circle cx="638" cy="298" r="2"></circle><circle cx="640" cy="295" r="2"></circle><circle cx="643" cy="291" r="2"></circle><circle cx="646" cy="287" r="2"></circle><circle cx="649" cy="284" r="2"></circle><circle cx="652" cy="280" r="2"></circle><circle cx="655" cy="277" r="2"></circle><circle cx="658" cy="274" r="2"></circle><circle cx="661" cy="270" r="2"></circle><circle cx="664" cy="267" r="2"></circle><circle cx="666" cy="263" r="2"></circle><circle cx="669" cy="260" r="2"></circle><circle cx="672" cy="257" r="2"></circle><circle cx="675" cy="254" r="2"></circle><circle cx="678" cy="252" r="2"></circle><circle cx="681" cy="252" r="2"></circle><circle cx="684" cy="254" r="2"></circle><circle cx="687" cy="255" r="2"></circle><circle cx="690" cy="257" r="2"></circle><circle cx="692" cy="261" r="2"></circle><circle cx="695" cy="263" r="2"></circle><circle cx="698" cy="262" r="2"></circle><circle cx="701" cy="263" r="2"></circle><circle cx="704" cy="264" r="2"></circle><circle cx="707" cy="261" r="2"></circle><circle cx="710" cy="260" r="2"></circle><circle cx="713" cy="260" r="2"></circle><circle cx="716" cy="261" r="2"></circle><circle cx="718" cy="258" r="2"></circle><circle cx="721" cy="259" r="2"></circle><circle cx="724" cy="261" r="2"></circle><circle cx="727" cy="261" r="2"></circle><circle cx="730" cy="259" r="2"></circle><circle cx="733" cy="260" r="2"></circle><circle cx="736" cy="260" r="2"></circle><circle cx="739" cy="259" r="2"></circle><circle cx="742" cy="266" r="2"></circle><circle cx="744" cy="276" r="2"></circle><circle cx="747" cy="283" r="2"></circle><circle cx="750" cy="290" r="2"></circle></g></g></g></g></g><g class="SourcesFooter" style="fill:#777"><g class="clickable" style="fill:#777"><text font-size="12.60" x="15.0" y="567.9"><tspan x="15" y="567.88">Source: Allen, R. C. (2009)</tspan></text></g><text font-size="12.60" x="15.0" y="582.5"><tspan x="15" y="582.48">Note: The chart shows the wages of building labourers divided by the cost of using capital goods.</tspan></text><text font-size="12.60" x="660.0" y="567.9"><tspan x="659.986" y="567.88"><a href="https://ourworldindata.org" target="_blank">Powered by ourworldindata.org</a></tspan></text></g></svg>