<svg xmlns="http://www.w3.org/2000/svg" version="1.1" style="font-family:Lato, &#x27;Helvetica Neue&#x27;, Helvetica, Arial, sans-serif;font-size:18px;background-color:white;text-rendering:optimizeLegibility;-webkit-font-smoothing:antialiased" width="850" height="600"><g class="HeaderView"><a href="https://mispytest.ourworldindata.org/grapher/worldwide-public-goods-experiments-with-opportunities-for-peer-punishment" target="_blank"><text font-size="23.40" x="15.0" y="33.7" fill="#555"><tspan x="15" y="33.72">Worldwide public goods experiments with opportunities for peer punishment</tspan></text></a><text font-size="14.40" x="15.0" y="51.9" fill="#666"><tspan x="15" y="51.919999999999995">Unit 4 &#x27;Social Interactions’ Section 4.7 &#x27;Public good contributions and peer punishment&#x27; in The CORE Team, The Economy.</tspan><tspan x="15" y="67.75999999999999">Available at: https://tinyco.re/0404749 [Figure 4.9b]</tspan></text></g><g class="LineChart"><defs><clipPath id="boundsClip-393"><rect x="37.216" y="0" width="830" height="936.4000000000001"></rect></clipPath></defs><g class="AxisBoxView"><g class="HorizontalAxis"><text font-size="12.60" x="342.5" y="554.0"><tspan x="342.4525" y="553.98">Period</tspan></text><text x="47.2" y="533.9" fill="#666" text-anchor="middle" font-size="16.2">1</text><text x="120.5" y="533.9" fill="#666" text-anchor="middle" font-size="16.2">2</text><text x="267" y="533.9" fill="#666" text-anchor="middle" font-size="16.2">4</text><text x="413.5" y="533.9" fill="#666" text-anchor="middle" font-size="16.2">6</text><text x="559.9" y="533.9" fill="#666" text-anchor="middle" font-size="16.2">8</text><text x="706.4" y="533.9" fill="#666" text-anchor="middle" font-size="16.2">10</text></g><g class="VerticalAxis"><text x="42.22" y="512.7" fill="#666" dominant-baseline="middle" text-anchor="end" font-size="16.2">$0</text><text x="42.22" y="467.7" fill="#666" dominant-baseline="middle" text-anchor="end" font-size="16.2">$2</text><text x="42.22" y="422.8" fill="#666" dominant-baseline="middle" text-anchor="end" font-size="16.2">$4</text><text x="42.22" y="377.8" fill="#666" dominant-baseline="middle" text-anchor="end" font-size="16.2">$6</text><text x="42.22" y="332.8" fill="#666" dominant-baseline="middle" text-anchor="end" font-size="16.2">$8</text><text x="42.22" y="287.9" fill="#666" dominant-baseline="middle" text-anchor="end" font-size="16.2">$10</text><text x="42.22" y="242.9" fill="#666" dominant-baseline="middle" text-anchor="end" font-size="16.2">$12</text><text x="42.22" y="197.9" fill="#666" dominant-baseline="middle" text-anchor="end" font-size="16.2">$14</text><text x="42.22" y="152.9" fill="#666" dominant-baseline="middle" text-anchor="end" font-size="16.2">$16</text><text x="42.22" y="108" fill="#666" dominant-baseline="middle" text-anchor="end" font-size="16.2">$18</text></g><g class="AxisGridLines"><line x1="47.22" y1="512.7" x2="706.44" y2="512.7" stroke="#ccc"></line><line x1="47.22" y1="467.7" x2="706.44" y2="467.7" stroke="#ddd" stroke-dasharray="3,2"></line><line x1="47.22" y1="422.8" x2="706.44" y2="422.8" stroke="#ddd" stroke-dasharray="3,2"></line><line x1="47.22" y1="377.8" x2="706.44" y2="377.8" stroke="#ddd" stroke-dasharray="3,2"></line><line x1="47.22" y1="332.8" x2="706.44" y2="332.8" stroke="#ddd" stroke-dasharray="3,2"></line><line x1="47.22" y1="287.9" x2="706.44" y2="287.9" stroke="#ddd" stroke-dasharray="3,2"></line><line x1="47.22" y1="242.9" x2="706.44" y2="242.9" stroke="#ddd" stroke-dasharray="3,2"></line><line x1="47.22" y1="197.9" x2="706.44" y2="197.9" stroke="#ddd" stroke-dasharray="3,2"></line><line x1="47.22" y1="152.9" x2="706.44" y2="152.9" stroke="#ddd" stroke-dasharray="3,2"></line><line x1="47.22" y1="108" x2="706.44" y2="108" stroke="#ddd" stroke-dasharray="3,2"></line></g></g><g clip-path="url(#boundsClip-393)"><g class="HeightedLegend clickable"><g class="legendMark"><g class="indicator"><line x1="711.4449999999999" y1="118.9" x2="733.9449999999999" y2="118.9" stroke="#666" stroke-width="0.5"></line><line x1="733.9449999999999" y1="118.9" x2="733.9449999999999" y2="118.9" stroke="#666" stroke-width="0.5"></line><line x1="733.9449999999999" y1="118.9" x2="736.4449999999999" y2="118.9" stroke="#666" stroke-width="0.5"></line></g><rect x="706.4449999999999" y="112.15" width="69.695" height="13.5" fill="#fff" opacity="0"></rect><text font-size="13.50" x="741.4" y="123.0" fill="#5eb77e"><tspan x="741.4449999999999" y="122.95">Seoul</tspan></text></g><g class="legendMark"><g class="indicator"><line x1="711.4449999999999" y1="130.1" x2="732.2783333333333" y2="130.1" stroke="#666" stroke-width="0.5"></line><line x1="732.2783333333333" y1="130.1" x2="732.2783333333333" y2="134.4" stroke="#666" stroke-width="0.5"></line><line x1="732.2783333333333" y1="134.4" x2="736.4449999999999" y2="134.4" stroke="#666" stroke-width="0.5"></line></g><rect x="706.4449999999999" y="127.65" width="112.76" height="13.5" fill="#fff" opacity="0"></rect><text font-size="13.50" x="741.4" y="138.5" fill="#ce8ebd"><tspan x="741.4449999999999" y="138.45000000000002">Copenhagen</tspan></text></g><g class="legendMark"><g class="indicator"><line x1="711.4449999999999" y1="134.1" x2="730.6116666666666" y2="134.1" stroke="#666" stroke-width="0.5"></line><line x1="730.6116666666666" y1="134.1" x2="730.6116666666666" y2="149.9" stroke="#666" stroke-width="0.5"></line><line x1="730.6116666666666" y1="149.9" x2="736.4449999999999" y2="149.9" stroke="#666" stroke-width="0.5"></line></g><rect x="706.4449999999999" y="143.15" width="77.255" height="13.5" fill="#fff" opacity="0"></rect><text font-size="13.50" x="741.4" y="154.0" fill="#f07f59"><tspan x="741.4449999999999" y="153.95000000000002">Boston</tspan></text></g><g class="legendMark"><g class="indicator"><line x1="711.4449999999999" y1="142.7" x2="728.9449999999999" y2="142.7" stroke="#666" stroke-width="0.5"></line><line x1="728.9449999999999" y1="142.7" x2="728.9449999999999" y2="165.4" stroke="#666" stroke-width="0.5"></line><line x1="728.9449999999999" y1="165.4" x2="736.4449999999999" y2="165.4" stroke="#666" stroke-width="0.5"></line></g><rect x="706.4449999999999" y="158.65" width="72.53" height="13.5" fill="#fff" opacity="0"></rect><text font-size="13.50" x="741.4" y="169.5" fill="#6bb537"><tspan x="741.4449999999999" y="169.45000000000002">Zurich</tspan></text></g><g class="legendMark"><g class="indicator"><line x1="711.4449999999999" y1="156.3" x2="727.2783333333333" y2="156.3" stroke="#666" stroke-width="0.5"></line><line x1="727.2783333333333" y1="156.3" x2="727.2783333333333" y2="180.9" stroke="#666" stroke-width="0.5"></line><line x1="727.2783333333333" y1="180.9" x2="736.4449999999999" y2="180.9" stroke="#666" stroke-width="0.5"></line></g><rect x="706.4449999999999" y="174.15" width="98.99000000000001" height="13.5" fill="#fff" opacity="0"></rect><text font-size="13.50" x="741.4" y="185.0" fill="#e6332e"><tspan x="741.4449999999999" y="184.95000000000002">Melbourne</tspan></text></g><g class="legendMark"><g class="indicator"><line x1="711.4449999999999" y1="171.9" x2="725.6116666666666" y2="171.9" stroke="#666" stroke-width="0.5"></line><line x1="725.6116666666666" y1="171.9" x2="725.6116666666666" y2="196.4" stroke="#666" stroke-width="0.5"></line><line x1="725.6116666666666" y1="196.4" x2="736.4449999999999" y2="196.4" stroke="#666" stroke-width="0.5"></line></g><rect x="706.4449999999999" y="189.65" width="94.535" height="13.5" fill="#fff" opacity="0"></rect><text font-size="13.50" x="741.4" y="200.5" fill="#7ec7ce"><tspan x="741.4449999999999" y="200.45000000000002">St. Gallen</tspan></text></g><g class="legendMark"><g class="indicator"><line x1="711.4449999999999" y1="179.6" x2="723.9449999999999" y2="179.6" stroke="#666" stroke-width="0.5"></line><line x1="723.9449999999999" y1="179.6" x2="723.9449999999999" y2="211.9" stroke="#666" stroke-width="0.5"></line><line x1="723.9449999999999" y1="211.9" x2="736.4449999999999" y2="211.9" stroke="#666" stroke-width="0.5"></line></g><rect x="706.4449999999999" y="205.15" width="90.08000000000001" height="13.5" fill="#fff" opacity="0"></rect><text font-size="13.50" x="741.4" y="216.0" fill="#b077b1"><tspan x="741.4449999999999" y="215.95000000000002">Chengdu</tspan></text></g><g class="legendMark"><g class="indicator"><line x1="711.4449999999999" y1="182.3" x2="722.2783333333333" y2="182.3" stroke="#666" stroke-width="0.5"></line><line x1="722.2783333333333" y1="182.3" x2="722.2783333333333" y2="227.4" stroke="#666" stroke-width="0.5"></line><line x1="722.2783333333333" y1="227.4" x2="736.4449999999999" y2="227.4" stroke="#666" stroke-width="0.5"></line></g><rect x="706.4449999999999" y="220.65" width="104.25500000000001" height="13.5" fill="#fff" opacity="0"></rect><text font-size="13.50" x="741.4" y="231.5" fill="#ffd53e"><tspan x="741.4449999999999" y="231.45000000000002">Nottingham</tspan></text></g><g class="legendMark"><g class="indicator"><line x1="711.4449999999999" y1="182.5" x2="720.6116666666666" y2="182.5" stroke="#666" stroke-width="0.5"></line><line x1="720.6116666666666" y1="182.5" x2="720.6116666666666" y2="242.9" stroke="#666" stroke-width="0.5"></line><line x1="720.6116666666666" y1="242.9" x2="736.4449999999999" y2="242.9" stroke="#666" stroke-width="0.5"></line></g><rect x="706.4449999999999" y="236.15" width="66.725" height="13.5" fill="#fff" opacity="0"></rect><text font-size="13.50" x="741.4" y="247.0" fill="#9ecc8a"><tspan x="741.4449999999999" y="246.95000000000002">Bonn</tspan></text></g><g class="legendMark"><g class="indicator"><line x1="711.4449999999999" y1="249.5" x2="718.9449999999999" y2="249.5" stroke="#666" stroke-width="0.5"></line><line x1="718.9449999999999" y1="249.5" x2="718.9449999999999" y2="258.4" stroke="#666" stroke-width="0.5"></line><line x1="718.9449999999999" y1="258.4" x2="736.4449999999999" y2="258.4" stroke="#666" stroke-width="0.5"></line></g><rect x="706.4449999999999" y="251.65" width="70.235" height="13.5" fill="#fff" opacity="0"></rect><text font-size="13.50" x="741.4" y="262.4" fill="#e6332e"><tspan x="741.4449999999999" y="262.45">Minsk</tspan></text></g><g class="legendMark"><g class="indicator"><line x1="711.4449999999999" y1="252.5" x2="717.2783333333333" y2="252.5" stroke="#666" stroke-width="0.5"></line><line x1="717.2783333333333" y1="252.5" x2="717.2783333333333" y2="273.9" stroke="#666" stroke-width="0.5"></line><line x1="717.2783333333333" y1="273.9" x2="736.4449999999999" y2="273.9" stroke="#666" stroke-width="0.5"></line></g><rect x="706.4449999999999" y="267.15" width="82.385" height="13.5" fill="#fff" opacity="0"></rect><text font-size="13.50" x="741.4" y="277.9" fill="#2a939b"><tspan x="741.4449999999999" y="277.95">Samara</tspan></text></g><g class="legendMark"><g class="indicator"><line x1="711.4449999999999" y1="286.3" x2="715.6116666666666" y2="286.3" stroke="#666" stroke-width="0.5"></line><line x1="715.6116666666666" y1="286.3" x2="715.6116666666666" y2="289.4" stroke="#666" stroke-width="0.5"></line><line x1="715.6116666666666" y1="289.4" x2="736.4449999999999" y2="289.4" stroke="#666" stroke-width="0.5"></line></g><rect x="706.4449999999999" y="282.65" width="128.555" height="13.5" fill="#fff" opacity="0"></rect><text font-size="13.50" x="741.4" y="293.4" fill="#a652ba"><tspan x="741.4449999999999" y="293.45">Dnipropetrovs&#x27;k</tspan></text></g><g class="legendMark"><g class="indicator"><line x1="711.4449999999999" y1="308.2" x2="723.9449999999999" y2="308.2" stroke="#666" stroke-width="0.5"></line><line x1="723.9449999999999" y1="308.2" x2="723.9449999999999" y2="308.2" stroke="#666" stroke-width="0.5"></line><line x1="723.9449999999999" y1="308.2" x2="736.4449999999999" y2="308.2" stroke="#666" stroke-width="0.5"></line></g><rect x="706.4449999999999" y="301.45" width="78.605" height="13.5" fill="#fff" opacity="0"></rect><text font-size="13.50" x="741.4" y="312.3" fill="#f6a324"><tspan x="741.4449999999999" y="312.25">Muscat</tspan></text></g><g class="legendMark"><g class="indicator"><line x1="711.4449999999999" y1="341.3" x2="723.9449999999999" y2="341.3" stroke="#666" stroke-width="0.5"></line><line x1="723.9449999999999" y1="341.3" x2="723.9449999999999" y2="341.3" stroke="#666" stroke-width="0.5"></line><line x1="723.9449999999999" y1="341.3" x2="736.4449999999999" y2="341.3" stroke="#666" stroke-width="0.5"></line></g><rect x="706.4449999999999" y="334.55" width="82.52000000000001" height="13.5" fill="#fff" opacity="0"></rect><text font-size="13.50" x="741.4" y="345.4" fill="#34983f"><tspan x="741.4449999999999" y="345.35">Istanbul</tspan></text></g><g class="legendMark"><g class="indicator"><line x1="711.4449999999999" y1="363.7" x2="733.9449999999999" y2="363.7" stroke="#666" stroke-width="0.5"></line><line x1="733.9449999999999" y1="363.7" x2="733.9449999999999" y2="363.7" stroke="#666" stroke-width="0.5"></line><line x1="733.9449999999999" y1="363.7" x2="736.4449999999999" y2="363.7" stroke="#666" stroke-width="0.5"></line></g><rect x="706.4449999999999" y="356.95" width="77.12" height="13.5" fill="#fff" opacity="0"></rect><text font-size="13.50" x="741.4" y="367.8" fill="#ca2628"><tspan x="741.4449999999999" y="367.75">Riyadh</tspan></text></g><g class="legendMark"><g class="indicator"><line x1="711.4449999999999" y1="373.2" x2="723.9449999999999" y2="373.2" stroke="#666" stroke-width="0.5"></line><line x1="723.9449999999999" y1="373.2" x2="723.9449999999999" y2="379.2" stroke="#666" stroke-width="0.5"></line><line x1="723.9449999999999" y1="379.2" x2="736.4449999999999" y2="379.2" stroke="#666" stroke-width="0.5"></line></g><rect x="706.4449999999999" y="372.45" width="77.255" height="13.5" fill="#fff" opacity="0"></rect><text font-size="13.50" x="741.4" y="383.3" fill="#3360a9"><tspan x="741.4449999999999" y="383.25">Athens</tspan></text></g></g><g class="Lines"><rect x="47" y="88" width="659" height="424" fill="rgba(255,255,255,0)" opacity="0"></rect><g class="key-Riyadh_0"><path stroke="#ca2628" stroke-linecap="round" d="M47 375L121 361L194 362L267 334L340 342L414 342L487 372L560 369L633 353L706 364" fill="none" stroke-width="1.5"></path><g fill="#ca2628"><circle cx="47" cy="375" r="2"></circle><circle cx="121" cy="361" r="2"></circle><circle cx="194" cy="362" r="2"></circle><circle cx="267" cy="334" r="2"></circle><circle cx="340" cy="342" r="2"></circle><circle cx="414" cy="342" r="2"></circle><circle cx="487" cy="372" r="2"></circle><circle cx="560" cy="369" r="2"></circle><circle cx="633" cy="353" r="2"></circle><circle cx="706" cy="364" r="2"></circle></g></g><g class="key-Athens_0"><path stroke="#3360a9" stroke-linecap="round" d="M47 382L121 386L194 381L267 372L340 373L414 381L487 386L560 404L633 407L706 373" fill="none" stroke-width="1.5"></path><g fill="#3360a9"><circle cx="47" cy="382" r="2"></circle><circle cx="121" cy="386" r="2"></circle><circle cx="194" cy="381" r="2"></circle><circle cx="267" cy="372" r="2"></circle><circle cx="340" cy="373" r="2"></circle><circle cx="414" cy="381" r="2"></circle><circle cx="487" cy="386" r="2"></circle><circle cx="560" cy="404" r="2"></circle><circle cx="633" cy="407" r="2"></circle><circle cx="706" cy="373" r="2"></circle></g></g><g class="key-Istanbul_0"><path stroke="#34983f" stroke-linecap="round" d="M47 366L121 365L194 362L267 368L340 356L414 352L487 343L560 336L633 336L706 341" fill="none" stroke-width="1.5"></path><g fill="#34983f"><circle cx="47" cy="366" r="2"></circle><circle cx="121" cy="365" r="2"></circle><circle cx="194" cy="362" r="2"></circle><circle cx="267" cy="368" r="2"></circle><circle cx="340" cy="356" r="2"></circle><circle cx="414" cy="352" r="2"></circle><circle cx="487" cy="343" r="2"></circle><circle cx="560" cy="336" r="2"></circle><circle cx="633" cy="336" r="2"></circle><circle cx="706" cy="341" r="2"></circle></g></g><g class="key-Bonn_0"><path stroke="#9ecc8a" stroke-linecap="round" d="M47 242L121 210L194 196L267 197L340 166L414 189L487 171L560 164L633 153L706 183" fill="none" stroke-width="1.5"></path><g fill="#9ecc8a"><circle cx="47" cy="242" r="2"></circle><circle cx="121" cy="210" r="2"></circle><circle cx="194" cy="196" r="2"></circle><circle cx="267" cy="197" r="2"></circle><circle cx="340" cy="166" r="2"></circle><circle cx="414" cy="189" r="2"></circle><circle cx="487" cy="171" r="2"></circle><circle cx="560" cy="164" r="2"></circle><circle cx="633" cy="153" r="2"></circle><circle cx="706" cy="183" r="2"></circle></g></g><g class="key-Boston_0"><path stroke="#f07f59" stroke-linecap="round" d="M47 153L121 112L194 96L267 88L340 103L414 96L487 93L560 107L633 104L706 134" fill="none" stroke-width="1.5"></path><g fill="#f07f59"><circle cx="47" cy="153" r="2"></circle><circle cx="121" cy="112" r="2"></circle><circle cx="194" cy="96" r="2"></circle><circle cx="267" cy="88" r="2"></circle><circle cx="340" cy="103" r="2"></circle><circle cx="414" cy="96" r="2"></circle><circle cx="487" cy="93" r="2"></circle><circle cx="560" cy="107" r="2"></circle><circle cx="633" cy="104" r="2"></circle><circle cx="706" cy="134" r="2"></circle></g></g><g class="key-Chengdu_0"><path stroke="#b077b1" stroke-linecap="round" d="M47 290L121 264L194 236L267 212L340 190L414 166L487 160L560 153L633 156L706 180" fill="none" stroke-width="1.5"></path><g fill="#b077b1"><circle cx="47" cy="290" r="2"></circle><circle cx="121" cy="264" r="2"></circle><circle cx="194" cy="236" r="2"></circle><circle cx="267" cy="212" r="2"></circle><circle cx="340" cy="190" r="2"></circle><circle cx="414" cy="166" r="2"></circle><circle cx="487" cy="160" r="2"></circle><circle cx="560" cy="153" r="2"></circle><circle cx="633" cy="156" r="2"></circle><circle cx="706" cy="180" r="2"></circle></g></g><g class="key-Copenhagen_0"><path stroke="#ce8ebd" stroke-linecap="round" d="M47 166L121 131L194 114L267 104L340 100L414 92L487 91L560 101L633 106L706 130" fill="none" stroke-width="1.5"></path><g fill="#ce8ebd"><circle cx="47" cy="166" r="2"></circle><circle cx="121" cy="131" r="2"></circle><circle cx="194" cy="114" r="2"></circle><circle cx="267" cy="104" r="2"></circle><circle cx="340" cy="100" r="2"></circle><circle cx="414" cy="92" r="2"></circle><circle cx="487" cy="91" r="2"></circle><circle cx="560" cy="101" r="2"></circle><circle cx="633" cy="106" r="2"></circle><circle cx="706" cy="130" r="2"></circle></g></g><g class="key-Dnipropetrovs__0027k_0"><path stroke="#a652ba" stroke-linecap="round" d="M47 300L121 290L194 247L267 255L340 228L414 249L487 260L560 273L633 295L706 286" fill="none" stroke-width="1.5"></path><g fill="#a652ba"><circle cx="47" cy="300" r="2"></circle><circle cx="121" cy="290" r="2"></circle><circle cx="194" cy="247" r="2"></circle><circle cx="267" cy="255" r="2"></circle><circle cx="340" cy="228" r="2"></circle><circle cx="414" cy="249" r="2"></circle><circle cx="487" cy="260" r="2"></circle><circle cx="560" cy="273" r="2"></circle><circle cx="633" cy="295" r="2"></circle><circle cx="706" cy="286" r="2"></circle></g></g><g class="key-Melbourne_0"><path stroke="#e6332e" stroke-linecap="round" d="M47 336L121 277L194 225L267 208L340 174L414 158L487 148L560 141L633 128L706 156" fill="none" stroke-width="1.5"></path><g fill="#e6332e"><circle cx="47" cy="336" r="2"></circle><circle cx="121" cy="277" r="2"></circle><circle cx="194" cy="225" r="2"></circle><circle cx="267" cy="208" r="2"></circle><circle cx="340" cy="174" r="2"></circle><circle cx="414" cy="158" r="2"></circle><circle cx="487" cy="148" r="2"></circle><circle cx="560" cy="141" r="2"></circle><circle cx="633" cy="128" r="2"></circle><circle cx="706" cy="156" r="2"></circle></g></g><g class="key-Minsk_0"><path stroke="#e6332e" stroke-linecap="round" d="M47 249L121 215L194 223L267 212L340 199L414 220L487 216L560 205L633 234L706 250" fill="none" stroke-width="1.5"></path><g fill="#e6332e"><circle cx="47" cy="249" r="2"></circle><circle cx="121" cy="215" r="2"></circle><circle cx="194" cy="223" r="2"></circle><circle cx="267" cy="212" r="2"></circle><circle cx="340" cy="199" r="2"></circle><circle cx="414" cy="220" r="2"></circle><circle cx="487" cy="216" r="2"></circle><circle cx="560" cy="205" r="2"></circle><circle cx="633" cy="234" r="2"></circle><circle cx="706" cy="250" r="2"></circle></g></g><g class="key-Muscat_0"><path stroke="#f6a324" stroke-linecap="round" d="M47 306L121 281L194 287L267 288L340 297L414 290L487 282L560 269L633 294L706 308" fill="none" stroke-width="1.5"></path><g fill="#f6a324"><circle cx="47" cy="306" r="2"></circle><circle cx="121" cy="281" r="2"></circle><circle cx="194" cy="287" r="2"></circle><circle cx="267" cy="288" r="2"></circle><circle cx="340" cy="297" r="2"></circle><circle cx="414" cy="290" r="2"></circle><circle cx="487" cy="282" r="2"></circle><circle cx="560" cy="269" r="2"></circle><circle cx="633" cy="294" r="2"></circle><circle cx="706" cy="308" r="2"></circle></g></g><g class="key-Nottingham_0"><path stroke="#ffd53e" stroke-linecap="round" d="M47 258L121 200L194 182L267 189L340 169L414 143L487 145L560 137L633 146L706 182" fill="none" stroke-width="1.5"></path><g fill="#ffd53e"><circle cx="47" cy="258" r="2"></circle><circle cx="121" cy="200" r="2"></circle><circle cx="194" cy="182" r="2"></circle><circle cx="267" cy="189" r="2"></circle><circle cx="340" cy="169" r="2"></circle><circle cx="414" cy="143" r="2"></circle><circle cx="487" cy="145" r="2"></circle><circle cx="560" cy="137" r="2"></circle><circle cx="633" cy="146" r="2"></circle><circle cx="706" cy="182" r="2"></circle></g></g><g class="key-Samara_0"><path stroke="#2a939b" stroke-linecap="round" d="M47 271L121 259L194 249L267 248L340 261L414 239L487 240L560 239L633 234L706 253" fill="none" stroke-width="1.5"></path><g fill="#2a939b"><circle cx="47" cy="271" r="2"></circle><circle cx="121" cy="259" r="2"></circle><circle cx="194" cy="249" r="2"></circle><circle cx="267" cy="248" r="2"></circle><circle cx="340" cy="261" r="2"></circle><circle cx="414" cy="239" r="2"></circle><circle cx="487" cy="240" r="2"></circle><circle cx="560" cy="239" r="2"></circle><circle cx="633" cy="234" r="2"></circle><circle cx="706" cy="253" r="2"></circle></g></g><g class="key-Seoul_0"><path stroke="#5eb77e" stroke-linecap="round" d="M47 295L121 241L194 214L267 196L340 189L414 169L487 152L560 135L633 124L706 119" fill="none" stroke-width="1.5"></path><g fill="#5eb77e"><circle cx="47" cy="295" r="2"></circle><circle cx="121" cy="241" r="2"></circle><circle cx="194" cy="214" r="2"></circle><circle cx="267" cy="196" r="2"></circle><circle cx="340" cy="189" r="2"></circle><circle cx="414" cy="169" r="2"></circle><circle cx="487" cy="152" r="2"></circle><circle cx="560" cy="135" r="2"></circle><circle cx="633" cy="124" r="2"></circle><circle cx="706" cy="119" r="2"></circle></g></g><g class="key-St__002e-Gallen_0"><path stroke="#7ec7ce" stroke-linecap="round" d="M47 175L121 137L194 118L267 121L340 116L414 123L487 135L560 136L633 133L706 172" fill="none" stroke-width="1.5"></path><g fill="#7ec7ce"><circle cx="47" cy="175" r="2"></circle><circle cx="121" cy="137" r="2"></circle><circle cx="194" cy="118" r="2"></circle><circle cx="267" cy="121" r="2"></circle><circle cx="340" cy="116" r="2"></circle><circle cx="414" cy="123" r="2"></circle><circle cx="487" cy="135" r="2"></circle><circle cx="560" cy="136" r="2"></circle><circle cx="633" cy="133" r="2"></circle><circle cx="706" cy="172" r="2"></circle></g></g><g class="key-Zurich_0"><path stroke="#6bb537" stroke-linecap="round" d="M47 215L121 175L194 158L267 147L340 145L414 139L487 126L560 130L633 118L706 143" fill="none" stroke-width="1.5"></path><g fill="#6bb537"><circle cx="47" cy="215" r="2"></circle><circle cx="121" cy="175" r="2"></circle><circle cx="194" cy="158" r="2"></circle><circle cx="267" cy="147" r="2"></circle><circle cx="340" cy="145" r="2"></circle><circle cx="414" cy="139" r="2"></circle><circle cx="487" cy="126" r="2"></circle><circle cx="560" cy="130" r="2"></circle><circle cx="633" cy="118" r="2"></circle><circle cx="706" cy="143" r="2"></circle></g></g></g></g></g><g class="SourcesFooter" style="fill:#777"><g class="clickable" style="fill:#777"><text font-size="12.60" x="15.0" y="581.6"><tspan x="15" y="581.58">Source: Herrmann, Thöni and Gächter (2008)</tspan></text></g><text font-size="12.60" x="546.0" y="581.6"><tspan x="545.956" y="581.58"><a target='_blank' style='fill: #777;' href='https://tinyco.re/0404749'>tinyco.re/0404749</a> • <a href="https://ourworldindata.org" target="_blank">Powered by ourworldindata.org</a></tspan></text></g></svg>