<svg xmlns="http://www.w3.org/2000/svg" version="1.1" style="font-family:&#x27;Helvetica Neue&#x27;, Helvetica, Arial, sans-serif;font-size:18px;background-color:white;text-rendering:optimizeLegibility;-webkit-font-smoothing:antialiased" width="850" height="600"><g class="ChartTab"><g class="HeaderView"><g opacity="0.8" transform="translate(778, 15) scale(0.27)"><a xmlns:xlink="http://www.w3.org/1999/xlink" xlink:href="https://ourworldindata.org" target="_blank"><g><rect x="0" y="0" fill="#1B2543" width="211.2" height="130.1"/><rect x="0" y="112.2" fill="#E63912" width="211.2" height="17.9"/><g><rect x="1.2" y="12.3" fill="none" width="210.2" height="99.2"/><path fill="#FFFFFF" d="M37.8,32.2c0,12.7-7.7,19.4-17.1,19.4c-9.7,0-16.6-7.5-16.6-18.7c0-11.7,7.3-19.3,17.1-19.3 C31.3,13.7,37.8,21.3,37.8,32.2z M9.2,32.8c0,7.9,4.3,14.9,11.8,14.9c7.5,0,11.8-6.9,11.8-15.3c0-7.3-3.8-14.9-11.8-14.9 C13.1,17.5,9.2,24.8,9.2,32.8z"/><path fill="#FFFFFF" d="M62.7,43.8c0,2.7,0.1,5.1,0.2,7.2h-4.3l-0.3-4.3h-0.1c-1.3,2.1-4,4.9-8.8,4.9c-4.2,0-9.1-2.3-9.1-11.6 V24.6h4.8v14.6c0,5,1.5,8.4,5.9,8.4c3.2,0,5.5-2.2,6.3-4.4c0.3-0.7,0.4-1.6,0.4-2.5V24.6h4.8V43.8z"/><path fill="#FFFFFF" d="M67.3,32.8c0-3.1-0.1-5.8-0.2-8.2h4.2l0.2,5.2h0.2c1.2-3.5,4.1-5.8,7.3-5.8c0.5,0,0.9,0.1,1.4,0.2v4.5 c-0.5-0.1-1-0.2-1.6-0.2c-3.4,0-5.8,2.6-6.5,6.2c-0.1,0.7-0.2,1.4-0.2,2.2V51h-4.8V32.8z"/><path fill="#FFFFFF" d="M95.4,51l-9.4-36.8h5l4.4,18.6c1.1,4.6,2.1,9.2,2.7,12.7h0.1c0.6-3.7,1.8-8,3-12.8l4.9-18.5h5l4.5,18.7 c1,4.4,2,8.7,2.6,12.6h0.1c0.8-4,1.8-8.1,3-12.7l4.9-18.5h4.9L120.6,51h-5L111,31.9c-1.1-4.7-1.9-8.3-2.4-12h-0.1 c-0.7,3.7-1.5,7.3-2.8,12L100.4,51H95.4z"/><path fill="#FFFFFF" d="M154.9,37.6c0,9.8-6.8,14-13.2,14c-7.2,0-12.7-5.2-12.7-13.6c0-8.8,5.8-14,13.1-14 C149.8,24,154.9,29.5,154.9,37.6z M133.9,37.9c0,5.8,3.3,10.1,8,10.1c4.6,0,8-4.3,8-10.3c0-4.5-2.2-10.1-7.9-10.1 C136.3,27.6,133.9,32.8,133.9,37.9z"/><path fill="#FFFFFF" d="M158.2,32.8c0-3.1-0.1-5.8-0.2-8.2h4.2l0.2,5.2h0.2c1.2-3.5,4.1-5.8,7.3-5.8c0.5,0,0.9,0.1,1.4,0.2v4.5 c-0.5-0.1-1-0.2-1.6-0.2c-3.4,0-5.8,2.6-6.5,6.2c-0.1,0.7-0.2,1.4-0.2,2.2V51h-4.8V32.8z"/><path fill="#FFFFFF" d="M173.5,12.3h4.8V51h-4.8V12.3z"/><path fill="#FFFFFF" d="M206.5,12.3v31.9c0,2.3,0.1,5,0.2,6.8h-4.3l-0.2-4.6H202c-1.5,2.9-4.7,5.2-9,5.2 c-6.4,0-11.3-5.4-11.3-13.4c-0.1-8.8,5.4-14.2,11.9-14.2c4,0,6.8,1.9,8,4h0.1V12.3H206.5z M201.7,35.4c0-0.6-0.1-1.4-0.2-2 c-0.7-3.1-3.3-5.6-6.9-5.6c-5,0-7.9,4.4-7.9,10.2c0,5.3,2.6,9.8,7.8,9.8c3.2,0,6.2-2.1,7.1-5.7c0.2-0.7,0.2-1.3,0.2-2.1V35.4z"/><path fill="#FFFFFF" d="M42.8,64c0.1,1.6-1.1,2.9-3.1,2.9c-1.7,0-2.9-1.3-2.9-2.9c0-1.7,1.3-3,3-3C41.7,61,42.8,62.3,42.8,64z M37.4,97.8V71.4h4.8v26.4H37.4z"/><path fill="#FFFFFF" d="M47.5,78.6c0-2.7-0.1-5-0.2-7.1h4.3l0.3,4.4h0.1c1.3-2.5,4.4-5,8.8-5c3.7,0,9.4,2.2,9.4,11.2v15.8h-4.8 V82.6c0-4.3-1.6-7.8-6.1-7.8c-3.2,0-5.6,2.2-6.5,4.9c-0.2,0.6-0.3,1.4-0.3,2.2v15.9h-4.8V78.6z"/><path fill="#FFFFFF" d="M84,61.6c2.9-0.4,6.3-0.8,10.1-0.8c6.8,0,11.7,1.6,14.9,4.6c3.3,3,5.2,7.3,5.2,13.2c0,6-1.9,10.9-5.3,14.3 c-3.4,3.4-9.1,5.3-16.3,5.3c-3.4,0-6.2-0.2-8.6-0.4V61.6z M88.8,94.1c1.2,0.2,3,0.3,4.8,0.3c10.2,0,15.7-5.7,15.7-15.6 c0.1-8.7-4.9-14.2-14.9-14.2c-2.5,0-4.3,0.2-5.6,0.5V94.1z"/><path fill="#FFFFFF" d="M132.1,97.8l-0.4-3.3h-0.2c-1.5,2.1-4.3,3.9-8.1,3.9c-5.4,0-8.1-3.8-8.1-7.6c0-6.4,5.7-9.9,15.9-9.8v-0.5 c0-2.2-0.6-6.1-6-6.1c-2.5,0-5,0.8-6.9,2l-1.1-3.2c2.2-1.4,5.4-2.3,8.7-2.3c8.1,0,10.1,5.5,10.1,10.8v9.9c0,2.3,0.1,4.5,0.4,6.3 H132.1z M131.4,84.4c-5.3-0.1-11.2,0.8-11.2,5.9c0,3.1,2.1,4.6,4.5,4.6c3.4,0,5.6-2.2,6.4-4.4c0.2-0.5,0.3-1,0.3-1.5V84.4z"/><path fill="#FFFFFF" d="M146.6,63.9v7.6h6.9v3.7h-6.9v14.2c0,3.3,0.9,5.1,3.6,5.1c1.3,0,2.2-0.2,2.8-0.3l0.2,3.6 c-0.9,0.4-2.4,0.7-4.3,0.7c-2.2,0-4-0.7-5.2-2c-1.4-1.4-1.9-3.8-1.9-6.9V75.1h-4.1v-3.7h4.1v-6.3L146.6,63.9z"/><path fill="#FFFFFF" d="M171.4,97.8l-0.4-3.3h-0.2c-1.5,2.1-4.3,3.9-8.1,3.9c-5.4,0-8.1-3.8-8.1-7.6c0-6.4,5.7-9.9,15.9-9.8v-0.5 c0-2.2-0.6-6.1-6-6.1c-2.5,0-5,0.8-6.9,2l-1.1-3.2c2.2-1.4,5.4-2.3,8.7-2.3c8.1,0,10.1,5.5,10.1,10.8v9.9c0,2.3,0.1,4.5,0.4,6.3 H171.4z M170.7,84.4c-5.3-0.1-11.2,0.8-11.2,5.9c0,3.1,2.1,4.6,4.5,4.6c3.4,0,5.6-2.2,6.4-4.4c0.2-0.5,0.3-1,0.3-1.5V84.4z"/></g></g></a></g><a href="https://ourworldindata.org/grapher/aid-received-per-capita?tab=chart" target="_blank"><text font-size="25.20" x="15.0" y="35.2" fill="#555"><tspan x="15" y="35.160000000000004">Aid received per capita</tspan></text></a><text font-size="14.40" x="15.0" y="53.7" fill="#666"><tspan x="15" y="53.72">Total aid received directly per capita. This is the sum of country programmable aid (CPA), humanitarian and food aid,</tspan><tspan x="15" y="69.56">divided by the population size. This is measured in constant 2016 USD per person. Data from 2017 to 2019 is based</tspan><tspan x="15" y="85.4">on forward spending plans of CPA.</tspan></text></g><g class="LineChart"><defs><clipPath id="boundsClip-578"><rect x="46.288000000000004" y="0" width="830" height="897.8"></rect></clipPath></defs><g class="AxisBoxView"><g class="HorizontalAxis"><text x="56.3" y="556.5" fill="#666" text-anchor="middle" font-size="16.2">2000</text><text x="120.3" y="556.5" fill="#666" text-anchor="middle" font-size="16.2">2002</text><text x="184.3" y="556.5" fill="#666" text-anchor="middle" font-size="16.2">2004</text><text x="248.3" y="556.5" fill="#666" text-anchor="middle" font-size="16.2">2006</text><text x="312.2" y="556.5" fill="#666" text-anchor="middle" font-size="16.2">2008</text><text x="376.2" y="556.5" fill="#666" text-anchor="middle" font-size="16.2">2010</text><text x="440.2" y="556.5" fill="#666" text-anchor="middle" font-size="16.2">2012</text><text x="504.2" y="556.5" fill="#666" text-anchor="middle" font-size="16.2">2014</text><text x="568.2" y="556.5" fill="#666" text-anchor="middle" font-size="16.2">2016</text></g><g class="VerticalAxis"><text x="51.29" y="535.3" fill="#666" dominant-baseline="middle" text-anchor="end" font-size="16.2">$0</text><text x="51.29" y="483.1" fill="#666" dominant-baseline="middle" text-anchor="end" font-size="16.2">$20</text><text x="51.29" y="431" fill="#666" dominant-baseline="middle" text-anchor="end" font-size="16.2">$40</text><text x="51.29" y="378.8" fill="#666" dominant-baseline="middle" text-anchor="end" font-size="16.2">$60</text><text x="51.29" y="326.7" fill="#666" dominant-baseline="middle" text-anchor="end" font-size="16.2">$80</text><text x="51.29" y="274.5" fill="#666" dominant-baseline="middle" text-anchor="end" font-size="16.2">$100</text><text x="51.29" y="222.3" fill="#666" dominant-baseline="middle" text-anchor="end" font-size="16.2">$120</text><text x="51.29" y="170.2" fill="#666" dominant-baseline="middle" text-anchor="end" font-size="16.2">$140</text><text x="51.29" y="118" fill="#666" dominant-baseline="middle" text-anchor="end" font-size="16.2">$160</text></g><g class="AxisGridLines"><line x1="56.29" y1="535.3" x2="568.20" y2="535.3" stroke="#ccc"></line><line x1="56.29" y1="483.1" x2="568.20" y2="483.1" stroke="#ddd" stroke-dasharray="3,2"></line><line x1="56.29" y1="431" x2="568.20" y2="431" stroke="#ddd" stroke-dasharray="3,2"></line><line x1="56.29" y1="378.8" x2="568.20" y2="378.8" stroke="#ddd" stroke-dasharray="3,2"></line><line x1="56.29" y1="326.7" x2="568.20" y2="326.7" stroke="#ddd" stroke-dasharray="3,2"></line><line x1="56.29" y1="274.5" x2="568.20" y2="274.5" stroke="#ddd" stroke-dasharray="3,2"></line><line x1="56.29" y1="222.3" x2="568.20" y2="222.3" stroke="#ddd" stroke-dasharray="3,2"></line><line x1="56.29" y1="170.2" x2="568.20" y2="170.2" stroke="#ddd" stroke-dasharray="3,2"></line><line x1="56.29" y1="118" x2="568.20" y2="118" stroke="#ddd" stroke-dasharray="3,2"></line></g></g><g clip-path="url(#boundsClip-578)"><g class="HeightedLegend clickable"><g class="legendMark"><g class="indicator"><line x1="573.2049999999999" y1="511.6" x2="592.3716666666666" y2="511.6" stroke="#666" stroke-width="0.5"></line><line x1="592.3716666666666" y1="511.6" x2="592.3716666666666" y2="511.6" stroke="#666" stroke-width="0.5"></line><line x1="592.3716666666666" y1="511.6" x2="598.2049999999999" y2="511.6" stroke="#666" stroke-width="0.5"></line></g><rect x="568.2049999999999" y="504.85" width="101.15" height="13.5" fill="#fff" opacity="0"></rect><text font-size="13.50" x="603.2" y="515.6" fill="#3360a9"><tspan x="603.2049999999999" y="515.65">Non-fragile</tspan></text></g><g class="legendMark"><g class="indicator"><line x1="573.2049999999999" y1="506.6" x2="585.7049999999999" y2="506.6" stroke="#666" stroke-width="0.5"></line><line x1="585.7049999999999" y1="506.6" x2="585.7049999999999" y2="496.1" stroke="#666" stroke-width="0.5"></line><line x1="585.7049999999999" y1="496.1" x2="598.2049999999999" y2="496.1" stroke="#666" stroke-width="0.5"></line></g><rect x="568.2049999999999" y="489.35" width="233.18" height="13.5" fill="#fff" opacity="0"></rect><text font-size="13.50" x="603.2" y="500.2" fill="#34983f"><tspan x="603.2049999999999" y="500.15000000000003">Latin America and the Caribbean</tspan></text></g><g class="legendMark"><g class="indicator"><line x1="573.2049999999999" y1="504.6" x2="579.0383333333333" y2="504.6" stroke="#666" stroke-width="0.5"></line><line x1="579.0383333333333" y1="504.6" x2="579.0383333333333" y2="480.6" stroke="#666" stroke-width="0.5"></line><line x1="579.0383333333333" y1="480.6" x2="598.2049999999999" y2="480.6" stroke="#666" stroke-width="0.5"></line></g><rect x="568.2049999999999" y="473.85" width="61.325" height="13.5" fill="#fff" opacity="0"></rect><text font-size="13.50" x="603.2" y="484.7" fill="#ca2628"><tspan x="603.2049999999999" y="484.65000000000003">Asia</tspan></text></g><g class="legendMark"><g class="indicator"><line x1="573.2049999999999" y1="458" x2="585.7049999999999" y2="458" stroke="#666" stroke-width="0.5"></line><line x1="585.7049999999999" y1="458" x2="585.7049999999999" y2="458" stroke="#666" stroke-width="0.5"></line><line x1="585.7049999999999" y1="458" x2="598.2049999999999" y2="458" stroke="#666" stroke-width="0.5"></line></g><rect x="568.2049999999999" y="451.25" width="76.31" height="13.5" fill="#fff" opacity="0"></rect><text font-size="13.50" x="603.2" y="462.1" fill="#f6a324"><tspan x="603.2049999999999" y="462.05">Fragile</tspan></text></g><g class="legendMark"><g class="indicator"><line x1="573.2049999999999" y1="438.3" x2="585.7049999999999" y2="438.3" stroke="#666" stroke-width="0.5"></line><line x1="585.7049999999999" y1="438.3" x2="585.7049999999999" y2="438.3" stroke="#666" stroke-width="0.5"></line><line x1="585.7049999999999" y1="438.3" x2="598.2049999999999" y2="438.3" stroke="#666" stroke-width="0.5"></line></g><rect x="568.2049999999999" y="431.55" width="69.56" height="13.5" fill="#fff" opacity="0"></rect><text font-size="13.50" x="603.2" y="442.4" fill="#a652ba"><tspan x="603.2049999999999" y="442.35">Africa</tspan></text></g><g class="legendMark"><g class="indicator"><line x1="573.2049999999999" y1="420.9" x2="585.7049999999999" y2="420.9" stroke="#666" stroke-width="0.5"></line><line x1="585.7049999999999" y1="420.9" x2="585.7049999999999" y2="420.9" stroke="#666" stroke-width="0.5"></line><line x1="585.7049999999999" y1="420.9" x2="598.2049999999999" y2="420.9" stroke="#666" stroke-width="0.5"></line></g><rect x="568.2049999999999" y="414.15" width="239.79500000000002" height="13.5" fill="#fff" opacity="0"></rect><text font-size="13.50" x="603.2" y="424.9" fill="#e6332e"><tspan x="603.2049999999999" y="424.95">Least developed countries (LDCs)</tspan></text></g><g class="legendMark"><g class="indicator"><line x1="573.2049999999999" y1="373.6" x2="595.7049999999999" y2="373.6" stroke="#666" stroke-width="0.5"></line><line x1="595.7049999999999" y1="373.6" x2="595.7049999999999" y2="373.6" stroke="#666" stroke-width="0.5"></line><line x1="595.7049999999999" y1="373.6" x2="598.2049999999999" y2="373.6" stroke="#666" stroke-width="0.5"></line></g><rect x="568.2049999999999" y="366.85" width="266.795" height="13.5" fill="#fff" opacity="0"></rect><text font-size="13.50" x="603.2" y="377.7" fill="#9ecc8a"><tspan x="603.2049999999999" y="377.65000000000003">Small Island Developing States (SIDS)</tspan></text></g><g class="legendMark"><g class="indicator"><line x1="573.2049999999999" y1="367.3" x2="585.7049999999999" y2="367.3" stroke="#666" stroke-width="0.5"></line><line x1="585.7049999999999" y1="367.3" x2="585.7049999999999" y2="358.1" stroke="#666" stroke-width="0.5"></line><line x1="585.7049999999999" y1="358.1" x2="598.2049999999999" y2="358.1" stroke="#666" stroke-width="0.5"></line></g><rect x="568.2049999999999" y="351.35" width="136.385" height="13.5" fill="#fff" opacity="0"></rect><text font-size="13.50" x="603.2" y="362.2" fill="#2a939b"><tspan x="603.2049999999999" y="362.15000000000003">Extreme Fragility</tspan></text></g><g class="legendMark"><g class="indicator"><line x1="573.2049999999999" y1="180.6" x2="585.7049999999999" y2="180.6" stroke="#666" stroke-width="0.5"></line><line x1="585.7049999999999" y1="180.6" x2="585.7049999999999" y2="180.6" stroke="#666" stroke-width="0.5"></line><line x1="585.7049999999999" y1="180.6" x2="598.2049999999999" y2="180.6" stroke="#666" stroke-width="0.5"></line></g><rect x="568.2049999999999" y="173.85" width="85.49000000000001" height="13.5" fill="#fff" opacity="0"></rect><text font-size="13.50" x="603.2" y="184.7" fill="#ffd53e"><tspan x="603.2049999999999" y="184.65">Oceania</tspan></text></g></g><g class="Lines"><rect x="56" y="108" width="512" height="428" fill="rgba(255,255,255,0)" opacity="0"></rect><g class="key-Africa_0"><path stroke="#a652ba" stroke-linecap="round" d="M56 472L88 470L120 459L152 468L184 460L216 460L248 459L280 452L312 443L344 438L376 443L408 444L440 446L472 431L504 441L536 437L568 438" fill="none" stroke-width="1.5"></path><g fill="#a652ba"><circle cx="56" cy="472" r="2"></circle><circle cx="88" cy="470" r="2"></circle><circle cx="120" cy="459" r="2"></circle><circle cx="152" cy="468" r="2"></circle><circle cx="184" cy="460" r="2"></circle><circle cx="216" cy="460" r="2"></circle><circle cx="248" cy="459" r="2"></circle><circle cx="280" cy="452" r="2"></circle><circle cx="312" cy="443" r="2"></circle><circle cx="344" cy="438" r="2"></circle><circle cx="376" cy="443" r="2"></circle><circle cx="408" cy="444" r="2"></circle><circle cx="440" cy="446" r="2"></circle><circle cx="472" cy="431" r="2"></circle><circle cx="504" cy="441" r="2"></circle><circle cx="536" cy="437" r="2"></circle><circle cx="568" cy="438" r="2"></circle></g></g><g class="key-Asia_0"><path stroke="#ca2628" stroke-linecap="round" d="M56 519L88 517L120 516L152 515L184 514L216 510L248 511L280 511L312 511L344 509L376 510L408 511L440 513L472 509L504 509L536 507L568 505" fill="none" stroke-width="1.5"></path><g fill="#ca2628"><circle cx="56" cy="519" r="2"></circle><circle cx="88" cy="517" r="2"></circle><circle cx="120" cy="516" r="2"></circle><circle cx="152" cy="515" r="2"></circle><circle cx="184" cy="514" r="2"></circle><circle cx="216" cy="510" r="2"></circle><circle cx="248" cy="511" r="2"></circle><circle cx="280" cy="511" r="2"></circle><circle cx="312" cy="511" r="2"></circle><circle cx="344" cy="509" r="2"></circle><circle cx="376" cy="510" r="2"></circle><circle cx="408" cy="511" r="2"></circle><circle cx="440" cy="513" r="2"></circle><circle cx="472" cy="509" r="2"></circle><circle cx="504" cy="509" r="2"></circle><circle cx="536" cy="507" r="2"></circle><circle cx="568" cy="505" r="2"></circle></g></g><g class="key-Oceania_0"><path stroke="#ffd53e" stroke-linecap="round" d="M56 115L88 115L120 165L152 173L184 183L216 160L248 155L280 165L312 173L344 144L376 144L408 113L440 110L472 108L504 157L536 118L568 181" fill="none" stroke-width="1.5"></path><g fill="#ffd53e"><circle cx="56" cy="115" r="2"></circle><circle cx="88" cy="115" r="2"></circle><circle cx="120" cy="165" r="2"></circle><circle cx="152" cy="173" r="2"></circle><circle cx="184" cy="183" r="2"></circle><circle cx="216" cy="160" r="2"></circle><circle cx="248" cy="155" r="2"></circle><circle cx="280" cy="165" r="2"></circle><circle cx="312" cy="173" r="2"></circle><circle cx="344" cy="144" r="2"></circle><circle cx="376" cy="144" r="2"></circle><circle cx="408" cy="113" r="2"></circle><circle cx="440" cy="110" r="2"></circle><circle cx="472" cy="108" r="2"></circle><circle cx="504" cy="157" r="2"></circle><circle cx="536" cy="118" r="2"></circle><circle cx="568" cy="181" r="2"></circle></g></g><g class="key-Least-developed-countries-__0028LDCs__0029_0"><path stroke="#e6332e" stroke-linecap="round" d="M56 472L88 467L120 451L152 455L184 451L216 448L248 449L280 435L312 430L344 420L376 422L408 429L440 427L472 416L504 429L536 421L568 421" fill="none" stroke-width="1.5"></path><g fill="#e6332e"><circle cx="56" cy="472" r="2"></circle><circle cx="88" cy="467" r="2"></circle><circle cx="120" cy="451" r="2"></circle><circle cx="152" cy="455" r="2"></circle><circle cx="184" cy="451" r="2"></circle><circle cx="216" cy="448" r="2"></circle><circle cx="248" cy="449" r="2"></circle><circle cx="280" cy="435" r="2"></circle><circle cx="312" cy="430" r="2"></circle><circle cx="344" cy="420" r="2"></circle><circle cx="376" cy="422" r="2"></circle><circle cx="408" cy="429" r="2"></circle><circle cx="440" cy="427" r="2"></circle><circle cx="472" cy="416" r="2"></circle><circle cx="504" cy="429" r="2"></circle><circle cx="536" cy="421" r="2"></circle><circle cx="568" cy="421" r="2"></circle></g></g><g class="key-Small-Island-Developing-States-__0028SIDS__0029_0"><path stroke="#9ecc8a" stroke-linecap="round" d="M56 391L88 386L120 383L152 405L184 403L216 382L248 384L280 375L312 373L344 353L376 324L408 341L440 349L472 359L504 366L536 356L568 374" fill="none" stroke-width="1.5"></path><g fill="#9ecc8a"><circle cx="56" cy="391" r="2"></circle><circle cx="88" cy="386" r="2"></circle><circle cx="120" cy="383" r="2"></circle><circle cx="152" cy="405" r="2"></circle><circle cx="184" cy="403" r="2"></circle><circle cx="216" cy="382" r="2"></circle><circle cx="248" cy="384" r="2"></circle><circle cx="280" cy="375" r="2"></circle><circle cx="312" cy="373" r="2"></circle><circle cx="344" cy="353" r="2"></circle><circle cx="376" cy="324" r="2"></circle><circle cx="408" cy="341" r="2"></circle><circle cx="440" cy="349" r="2"></circle><circle cx="472" cy="359" r="2"></circle><circle cx="504" cy="366" r="2"></circle><circle cx="536" cy="356" r="2"></circle><circle cx="568" cy="374" r="2"></circle></g></g><g class="key-Extreme-Fragility_0"><path stroke="#2a939b" stroke-linecap="round" d="M56 504L88 495L120 466L152 455L184 424L216 366L248 397L280 396L312 399L344 382L376 392L408 406L440 414L472 406L504 420L536 398L568 367" fill="none" stroke-width="1.5"></path><g fill="#2a939b"><circle cx="56" cy="504" r="2"></circle><circle cx="88" cy="495" r="2"></circle><circle cx="120" cy="466" r="2"></circle><circle cx="152" cy="455" r="2"></circle><circle cx="184" cy="424" r="2"></circle><circle cx="216" cy="366" r="2"></circle><circle cx="248" cy="397" r="2"></circle><circle cx="280" cy="396" r="2"></circle><circle cx="312" cy="399" r="2"></circle><circle cx="344" cy="382" r="2"></circle><circle cx="376" cy="392" r="2"></circle><circle cx="408" cy="406" r="2"></circle><circle cx="440" cy="414" r="2"></circle><circle cx="472" cy="406" r="2"></circle><circle cx="504" cy="420" r="2"></circle><circle cx="536" cy="398" r="2"></circle><circle cx="568" cy="367" r="2"></circle></g></g><g class="key-Fragile_0"><path stroke="#f6a324" stroke-linecap="round" d="M56 484L88 479L120 475L152 483L184 479L216 482L248 477L280 473L312 469L344 465L376 466L408 467L440 468L472 448L504 459L536 455L568 458" fill="none" stroke-width="1.5"></path><g fill="#f6a324"><circle cx="56" cy="484" r="2"></circle><circle cx="88" cy="479" r="2"></circle><circle cx="120" cy="475" r="2"></circle><circle cx="152" cy="483" r="2"></circle><circle cx="184" cy="479" r="2"></circle><circle cx="216" cy="482" r="2"></circle><circle cx="248" cy="477" r="2"></circle><circle cx="280" cy="473" r="2"></circle><circle cx="312" cy="469" r="2"></circle><circle cx="344" cy="465" r="2"></circle><circle cx="376" cy="466" r="2"></circle><circle cx="408" cy="467" r="2"></circle><circle cx="440" cy="468" r="2"></circle><circle cx="472" cy="448" r="2"></circle><circle cx="504" cy="459" r="2"></circle><circle cx="536" cy="455" r="2"></circle><circle cx="568" cy="458" r="2"></circle></g></g><g class="key-Non__002dfragile_0"><path stroke="#3360a9" stroke-linecap="round" d="M56 514L88 513L120 513L152 513L184 514L216 514L248 514L280 514L312 513L344 511L376 512L408 513L440 514L472 513L504 512L536 512L568 512" fill="none" stroke-width="1.5"></path><g fill="#3360a9"><circle cx="56" cy="514" r="2"></circle><circle cx="88" cy="513" r="2"></circle><circle cx="120" cy="513" r="2"></circle><circle cx="152" cy="513" r="2"></circle><circle cx="184" cy="514" r="2"></circle><circle cx="216" cy="514" r="2"></circle><circle cx="248" cy="514" r="2"></circle><circle cx="280" cy="514" r="2"></circle><circle cx="312" cy="513" r="2"></circle><circle cx="344" cy="511" r="2"></circle><circle cx="376" cy="512" r="2"></circle><circle cx="408" cy="513" r="2"></circle><circle cx="440" cy="514" r="2"></circle><circle cx="472" cy="513" r="2"></circle><circle cx="504" cy="512" r="2"></circle><circle cx="536" cy="512" r="2"></circle><circle cx="568" cy="512" r="2"></circle></g></g><g class="key-Latin-America-and-the-Caribbean_0"><path stroke="#34983f" stroke-linecap="round" d="M56 507L88 501L120 501L152 501L184 504L216 504L248 504L280 507L312 507L344 504L376 501L408 501L440 507L472 507L504 504L536 504L568 507" fill="none" stroke-width="1.5"></path><g fill="#34983f"><circle cx="56" cy="507" r="2"></circle><circle cx="88" cy="501" r="2"></circle><circle cx="120" cy="501" r="2"></circle><circle cx="152" cy="501" r="2"></circle><circle cx="184" cy="504" r="2"></circle><circle cx="216" cy="504" r="2"></circle><circle cx="248" cy="504" r="2"></circle><circle cx="280" cy="507" r="2"></circle><circle cx="312" cy="507" r="2"></circle><circle cx="344" cy="504" r="2"></circle><circle cx="376" cy="501" r="2"></circle><circle cx="408" cy="501" r="2"></circle><circle cx="440" cy="507" r="2"></circle><circle cx="472" cy="507" r="2"></circle><circle cx="504" cy="504" r="2"></circle><circle cx="536" cy="504" r="2"></circle><circle cx="568" cy="507" r="2"></circle></g></g></g></g></g><g class="SourcesFooter" style="fill:#777"><g class="clickable" style="fill:#777"><text font-size="12.60" x="15.0" y="581.6"><tspan x="15" y="581.58">Source: Organisation for Economic Co-operation and Development (OECD)</tspan></text></g><text font-size="12.60" x="775.4" y="581.6"><tspan x="775.402" y="581.58"><a style="fill: #777;" class="cclogo" href="http://creativecommons.org/licenses/by-sa/4.0/deed.en_US" target="_blank">CC BY-SA</a></tspan></text></g></g></svg>