<svg xmlns="http://www.w3.org/2000/svg" version="1.1" style="font-family:&#x27;Helvetica Neue&#x27;, Helvetica, Arial, sans-serif;font-size:18px;background-color:white;text-rendering:optimizeLegibility;-webkit-font-smoothing:antialiased" width="850" height="600"><g class="ChartTab"><g class="HeaderView"><g opacity="0.8" transform="translate(778, 15) scale(0.27)"><a xmlns:xlink="http://www.w3.org/1999/xlink" xlink:href="https://ourworldindata.org" target="_blank"><g><rect x="0" y="0" fill="#1B2543" width="211.2" height="130.1"/><rect x="0" y="112.2" fill="#E63912" width="211.2" height="17.9"/><g><rect x="1.2" y="12.3" fill="none" width="210.2" height="99.2"/><path fill="#FFFFFF" d="M37.8,32.2c0,12.7-7.7,19.4-17.1,19.4c-9.7,0-16.6-7.5-16.6-18.7c0-11.7,7.3-19.3,17.1-19.3 C31.3,13.7,37.8,21.3,37.8,32.2z M9.2,32.8c0,7.9,4.3,14.9,11.8,14.9c7.5,0,11.8-6.9,11.8-15.3c0-7.3-3.8-14.9-11.8-14.9 C13.1,17.5,9.2,24.8,9.2,32.8z"/><path fill="#FFFFFF" d="M62.7,43.8c0,2.7,0.1,5.1,0.2,7.2h-4.3l-0.3-4.3h-0.1c-1.3,2.1-4,4.9-8.8,4.9c-4.2,0-9.1-2.3-9.1-11.6 V24.6h4.8v14.6c0,5,1.5,8.4,5.9,8.4c3.2,0,5.5-2.2,6.3-4.4c0.3-0.7,0.4-1.6,0.4-2.5V24.6h4.8V43.8z"/><path fill="#FFFFFF" d="M67.3,32.8c0-3.1-0.1-5.8-0.2-8.2h4.2l0.2,5.2h0.2c1.2-3.5,4.1-5.8,7.3-5.8c0.5,0,0.9,0.1,1.4,0.2v4.5 c-0.5-0.1-1-0.2-1.6-0.2c-3.4,0-5.8,2.6-6.5,6.2c-0.1,0.7-0.2,1.4-0.2,2.2V51h-4.8V32.8z"/><path fill="#FFFFFF" d="M95.4,51l-9.4-36.8h5l4.4,18.6c1.1,4.6,2.1,9.2,2.7,12.7h0.1c0.6-3.7,1.8-8,3-12.8l4.9-18.5h5l4.5,18.7 c1,4.4,2,8.7,2.6,12.6h0.1c0.8-4,1.8-8.1,3-12.7l4.9-18.5h4.9L120.6,51h-5L111,31.9c-1.1-4.7-1.9-8.3-2.4-12h-0.1 c-0.7,3.7-1.5,7.3-2.8,12L100.4,51H95.4z"/><path fill="#FFFFFF" d="M154.9,37.6c0,9.8-6.8,14-13.2,14c-7.2,0-12.7-5.2-12.7-13.6c0-8.8,5.8-14,13.1-14 C149.8,24,154.9,29.5,154.9,37.6z M133.9,37.9c0,5.8,3.3,10.1,8,10.1c4.6,0,8-4.3,8-10.3c0-4.5-2.2-10.1-7.9-10.1 C136.3,27.6,133.9,32.8,133.9,37.9z"/><path fill="#FFFFFF" d="M158.2,32.8c0-3.1-0.1-5.8-0.2-8.2h4.2l0.2,5.2h0.2c1.2-3.5,4.1-5.8,7.3-5.8c0.5,0,0.9,0.1,1.4,0.2v4.5 c-0.5-0.1-1-0.2-1.6-0.2c-3.4,0-5.8,2.6-6.5,6.2c-0.1,0.7-0.2,1.4-0.2,2.2V51h-4.8V32.8z"/><path fill="#FFFFFF" d="M173.5,12.3h4.8V51h-4.8V12.3z"/><path fill="#FFFFFF" d="M206.5,12.3v31.9c0,2.3,0.1,5,0.2,6.8h-4.3l-0.2-4.6H202c-1.5,2.9-4.7,5.2-9,5.2 c-6.4,0-11.3-5.4-11.3-13.4c-0.1-8.8,5.4-14.2,11.9-14.2c4,0,6.8,1.9,8,4h0.1V12.3H206.5z M201.7,35.4c0-0.6-0.1-1.4-0.2-2 c-0.7-3.1-3.3-5.6-6.9-5.6c-5,0-7.9,4.4-7.9,10.2c0,5.3,2.6,9.8,7.8,9.8c3.2,0,6.2-2.1,7.1-5.7c0.2-0.7,0.2-1.3,0.2-2.1V35.4z"/><path fill="#FFFFFF" d="M42.8,64c0.1,1.6-1.1,2.9-3.1,2.9c-1.7,0-2.9-1.3-2.9-2.9c0-1.7,1.3-3,3-3C41.7,61,42.8,62.3,42.8,64z M37.4,97.8V71.4h4.8v26.4H37.4z"/><path fill="#FFFFFF" d="M47.5,78.6c0-2.7-0.1-5-0.2-7.1h4.3l0.3,4.4h0.1c1.3-2.5,4.4-5,8.8-5c3.7,0,9.4,2.2,9.4,11.2v15.8h-4.8 V82.6c0-4.3-1.6-7.8-6.1-7.8c-3.2,0-5.6,2.2-6.5,4.9c-0.2,0.6-0.3,1.4-0.3,2.2v15.9h-4.8V78.6z"/><path fill="#FFFFFF" d="M84,61.6c2.9-0.4,6.3-0.8,10.1-0.8c6.8,0,11.7,1.6,14.9,4.6c3.3,3,5.2,7.3,5.2,13.2c0,6-1.9,10.9-5.3,14.3 c-3.4,3.4-9.1,5.3-16.3,5.3c-3.4,0-6.2-0.2-8.6-0.4V61.6z M88.8,94.1c1.2,0.2,3,0.3,4.8,0.3c10.2,0,15.7-5.7,15.7-15.6 c0.1-8.7-4.9-14.2-14.9-14.2c-2.5,0-4.3,0.2-5.6,0.5V94.1z"/><path fill="#FFFFFF" d="M132.1,97.8l-0.4-3.3h-0.2c-1.5,2.1-4.3,3.9-8.1,3.9c-5.4,0-8.1-3.8-8.1-7.6c0-6.4,5.7-9.9,15.9-9.8v-0.5 c0-2.2-0.6-6.1-6-6.1c-2.5,0-5,0.8-6.9,2l-1.1-3.2c2.2-1.4,5.4-2.3,8.7-2.3c8.1,0,10.1,5.5,10.1,10.8v9.9c0,2.3,0.1,4.5,0.4,6.3 H132.1z M131.4,84.4c-5.3-0.1-11.2,0.8-11.2,5.9c0,3.1,2.1,4.6,4.5,4.6c3.4,0,5.6-2.2,6.4-4.4c0.2-0.5,0.3-1,0.3-1.5V84.4z"/><path fill="#FFFFFF" d="M146.6,63.9v7.6h6.9v3.7h-6.9v14.2c0,3.3,0.9,5.1,3.6,5.1c1.3,0,2.2-0.2,2.8-0.3l0.2,3.6 c-0.9,0.4-2.4,0.7-4.3,0.7c-2.2,0-4-0.7-5.2-2c-1.4-1.4-1.9-3.8-1.9-6.9V75.1h-4.1v-3.7h4.1v-6.3L146.6,63.9z"/><path fill="#FFFFFF" d="M171.4,97.8l-0.4-3.3h-0.2c-1.5,2.1-4.3,3.9-8.1,3.9c-5.4,0-8.1-3.8-8.1-7.6c0-6.4,5.7-9.9,15.9-9.8v-0.5 c0-2.2-0.6-6.1-6-6.1c-2.5,0-5,0.8-6.9,2l-1.1-3.2c2.2-1.4,5.4-2.3,8.7-2.3c8.1,0,10.1,5.5,10.1,10.8v9.9c0,2.3,0.1,4.5,0.4,6.3 H171.4z M170.7,84.4c-5.3-0.1-11.2,0.8-11.2,5.9c0,3.1,2.1,4.6,4.5,4.6c3.4,0,5.6-2.2,6.4-4.4c0.2-0.5,0.3-1,0.3-1.5V84.4z"/></g></g></a></g><a href="https://ourworldindata.org/grapher/capture-fishery-production" target="_blank"><text font-size="25.20" x="15.0" y="35.2" fill="#555"><tspan x="15" y="35.160000000000004">Capture fishery production</tspan></text></a><text font-size="14.40" x="15.0" y="53.7" fill="#666"><tspan x="15" y="53.72">Capture (wild) fishery production, measured in metric tons per year.</tspan></text></g><g class="StackedArea"><defs><clipPath id="boundsClip-347"><rect x="88.526" y="0" width="820" height="959.8"></rect></clipPath></defs><g class="AxisBoxView"><g class="HorizontalAxis"><text x="88.5" y="556.5" fill="#666" text-anchor="middle" font-size="16.2">1960</text><text x="195.3" y="556.5" fill="#666" text-anchor="middle" font-size="16.2">1970</text><text x="302" y="556.5" fill="#666" text-anchor="middle" font-size="16.2">1980</text><text x="408.8" y="556.5" fill="#666" text-anchor="middle" font-size="16.2">1990</text><text x="515.5" y="556.5" fill="#666" text-anchor="middle" font-size="16.2">2000</text><text x="622.3" y="556.5" fill="#666" text-anchor="middle" font-size="16.2">2010</text><text x="686.3" y="556.5" fill="#666" text-anchor="middle" font-size="16.2">2016</text></g><g class="VerticalAxis"><text x="83.53" y="535.3" fill="#666" dominant-baseline="middle" text-anchor="end" font-size="16.2">0</text><text x="83.53" y="438.6" fill="#666" dominant-baseline="middle" text-anchor="end" font-size="16.2">20 million</text><text x="83.53" y="341.9" fill="#666" dominant-baseline="middle" text-anchor="end" font-size="16.2">40 million</text><text x="83.53" y="245.3" fill="#666" dominant-baseline="middle" text-anchor="end" font-size="16.2">60 million</text><text x="83.53" y="148.6" fill="#666" dominant-baseline="middle" text-anchor="end" font-size="16.2">80 million</text></g><g class="AxisGridLines"><line x1="88.53" y1="535.3" x2="686.33" y2="535.3" stroke="#ccc"></line><line x1="88.53" y1="438.6" x2="686.33" y2="438.6" stroke="#ddd" stroke-dasharray="3,2"></line><line x1="88.53" y1="341.9" x2="686.33" y2="341.9" stroke="#ddd" stroke-dasharray="3,2"></line><line x1="88.53" y1="245.3" x2="686.33" y2="245.3" stroke="#ddd" stroke-dasharray="3,2"></line><line x1="88.53" y1="148.6" x2="686.33" y2="148.6" stroke="#ddd" stroke-dasharray="3,2"></line></g></g><g clip-path="url(#boundsClip-347)"><g class="HeightedLegend clickable"><g class="legendMark"><g class="indicator"><line x1="691.3299999999999" y1="99.3" x2="713.8299999999999" y2="99.3" stroke="#666" stroke-width="0.5"></line><line x1="713.8299999999999" y1="99.3" x2="713.8299999999999" y2="99.3" stroke="#666" stroke-width="0.5"></line><line x1="713.8299999999999" y1="99.3" x2="716.3299999999999" y2="99.3" stroke="#666" stroke-width="0.5"></line></g><rect x="686.3299999999999" y="85.25" width="118.56500000000001" height="28.1" fill="#fff" opacity="0"></rect><text font-size="13.50" x="721.3" y="96.0" fill="#2a939b"><tspan x="721.3299999999999" y="96.05">Middle East &amp;</tspan><tspan x="721.3299999999999" y="110.9">North Africa</tspan></text></g><g class="legendMark"><g class="indicator"><line x1="691.3299999999999" y1="124.9" x2="703.8299999999999" y2="124.9" stroke="#666" stroke-width="0.5"></line><line x1="703.8299999999999" y1="124.9" x2="703.8299999999999" y2="129.4" stroke="#666" stroke-width="0.5"></line><line x1="703.8299999999999" y1="129.4" x2="716.3299999999999" y2="129.4" stroke="#666" stroke-width="0.5"></line></g><rect x="686.3299999999999" y="115.35" width="114.92" height="28.1" fill="#fff" opacity="0"></rect><text font-size="13.50" x="721.3" y="126.1" fill="#3360a9"><tspan x="721.3299999999999" y="126.14999999999999">Sub-Saharan</tspan><tspan x="721.3299999999999" y="141">Africa</tspan></text></g><g class="legendMark"><g class="indicator"><line x1="691.3299999999999" y1="156.4" x2="703.8299999999999" y2="156.4" stroke="#666" stroke-width="0.5"></line><line x1="703.8299999999999" y1="156.4" x2="703.8299999999999" y2="156.4" stroke="#666" stroke-width="0.5"></line><line x1="703.8299999999999" y1="156.4" x2="716.3299999999999" y2="156.4" stroke="#666" stroke-width="0.5"></line></g><rect x="686.3299999999999" y="149.65" width="121.4" height="13.5" fill="#fff" opacity="0"></rect><text font-size="13.50" x="721.3" y="160.5" fill="#34983f"><tspan x="721.3299999999999" y="160.45000000000002">North America</tspan></text></g><g class="legendMark"><g class="indicator"><line x1="691.3299999999999" y1="195.8" x2="703.8299999999999" y2="195.8" stroke="#666" stroke-width="0.5"></line><line x1="703.8299999999999" y1="195.8" x2="703.8299999999999" y2="195.8" stroke="#666" stroke-width="0.5"></line><line x1="703.8299999999999" y1="195.8" x2="716.3299999999999" y2="195.8" stroke="#666" stroke-width="0.5"></line></g><rect x="686.3299999999999" y="181.75" width="130.58" height="28.1" fill="#fff" opacity="0"></rect><text font-size="13.50" x="721.3" y="192.6" fill="#9ecc8a"><tspan x="721.3299999999999" y="192.55">Latin America &amp;</tspan><tspan x="721.3299999999999" y="207.4">Caribbean</tspan></text></g><g class="legendMark"><g class="indicator"><line x1="691.3299999999999" y1="256.8" x2="703.8299999999999" y2="256.8" stroke="#666" stroke-width="0.5"></line><line x1="703.8299999999999" y1="256.8" x2="703.8299999999999" y2="256.8" stroke="#666" stroke-width="0.5"></line><line x1="703.8299999999999" y1="256.8" x2="716.3299999999999" y2="256.8" stroke="#666" stroke-width="0.5"></line></g><rect x="686.3299999999999" y="242.75" width="138.95" height="28.1" fill="#fff" opacity="0"></rect><text font-size="13.50" x="721.3" y="253.6" fill="#ffd53e"><tspan x="721.3299999999999" y="253.55">Europe &amp; Central</tspan><tspan x="721.3299999999999" y="268.40000000000003">Asia</tspan></text></g><g class="legendMark"><g class="indicator"><line x1="691.3299999999999" y1="311.6" x2="703.8299999999999" y2="311.6" stroke="#666" stroke-width="0.5"></line><line x1="703.8299999999999" y1="311.6" x2="703.8299999999999" y2="311.6" stroke="#666" stroke-width="0.5"></line><line x1="703.8299999999999" y1="311.6" x2="716.3299999999999" y2="311.6" stroke="#666" stroke-width="0.5"></line></g><rect x="686.3299999999999" y="304.85" width="100.61" height="13.5" fill="#fff" opacity="0"></rect><text font-size="13.50" x="721.3" y="315.7" fill="#ca2628"><tspan x="721.3299999999999" y="315.65000000000003">South Asia</tspan></text></g><g class="legendMark"><g class="indicator"><line x1="691.3299999999999" y1="433" x2="703.8299999999999" y2="433" stroke="#666" stroke-width="0.5"></line><line x1="703.8299999999999" y1="433" x2="703.8299999999999" y2="433" stroke="#666" stroke-width="0.5"></line><line x1="703.8299999999999" y1="433" x2="716.3299999999999" y2="433" stroke="#666" stroke-width="0.5"></line></g><rect x="686.3299999999999" y="426.25" width="148.67000000000002" height="13.5" fill="#fff" opacity="0"></rect><text font-size="13.50" x="721.3" y="437.1" fill="#e6332e"><tspan x="721.3299999999999" y="437.05">East Asia &amp; Pacific</tspan></text></g></g><g class="Areas"><rect x="88.526" y="76.6" width="597.804" height="458.69999999999993" opacity="0" fill="rgba(255,255,255,0)"></rect><path class="East-Asia-__0026-Pacific_0-area" stroke-linecap="round" d="M88.5 479.7L99.2 474.5L109.9 472L120.6 471.8L131.2 471.7L141.9 467.2L152.6 464.2L163.3 458.8L173.9 452L184.6 450.8L195.3 447.5L206 441.2L216.6 434.7L227.3 430.4L238 428.8L248.7 428.1L259.3 424.9L270 420.8L280.7 419.3L291.4 422.2L302 420.2L312.7 414.8L323.4 411.8L334.1 406.8L344.7 401.2L355.4 401.4L366.1 390.7L376.8 386L387.4 384.6L398.1 383.5L408.8 384.6L419.5 386.5L430.1 381.3L440.8 377.3L451.5 371.4L462.2 364L472.8 357.3L483.5 353.3L494.2 352L504.9 351.1L515.5 352.5L526.2 353.9L536.9 354.9L547.6 349.4L558.2 348.4L568.9 346.6L579.6 344.9L590.3 342.3L600.9 344.7L611.6 346L622.3 342.2L633 340.7L643.6 338.4L654.3 335.6L665 327.7L675.7 326.8L686.3 330.8L686.3299999999999 535.3L88.526 535.3" fill="#e6332e" fill-opacity="0.7"></path><path class="South-Asia_0-area" stroke-linecap="round" d="M88.5 471.9L99.2 467.5L109.9 464.6L120.6 464L131.2 462.2L141.9 457.5L152.6 454.1L163.3 448.6L173.9 440.8L184.6 439.3L195.3 435.1L206 428.2L216.6 422.3L227.3 416.4L238 413.6L248.7 413.9L259.3 411L270 406L280.7 404.5L291.4 407.4L302 405.1L312.7 399.6L323.4 396.9L334.1 391.2L344.7 384.2L355.4 384.5L366.1 373.2L376.8 369L387.4 366.8L398.1 363.7L408.8 364L419.5 365.3L430.1 359.7L440.8 353.9L451.5 347.1L462.2 339.7L472.8 331.8L483.5 327.1L494.2 326.3L504.9 323.9L515.5 324.6L526.2 325.7L536.9 326.5L547.6 321L558.2 321.3L568.9 318L579.6 314.5L590.3 311.9L600.9 312.7L611.6 313L622.3 306.2L633 307.1L643.6 302.1L654.3 300.1L665 290.2L675.7 289.9L686.3 292.4L686.3 330.8L675.7 326.8L665 327.7L654.3 335.6L643.6 338.4L633 340.7L622.3 342.2L611.6 346L600.9 344.7L590.3 342.3L579.6 344.9L568.9 346.6L558.2 348.4L547.6 349.4L536.9 354.9L526.2 353.9L515.5 352.5L504.9 351.1L494.2 352L483.5 353.3L472.8 357.3L462.2 364L451.5 371.4L440.8 377.3L430.1 381.3L419.5 386.5L408.8 384.6L398.1 383.5L387.4 384.6L376.8 386L366.1 390.7L355.4 401.4L344.7 401.2L334.1 406.8L323.4 411.8L312.7 414.8L302 420.2L291.4 422.2L280.7 419.3L270 420.8L259.3 424.9L248.7 428.1L238 428.8L227.3 430.4L216.6 434.7L206 441.2L195.3 447.5L184.6 450.8L173.9 452L163.3 458.8L152.6 464.2L141.9 467.2L131.2 471.7L120.6 471.8L109.9 472L99.2 474.5L88.5 479.7" fill="#ca2628" fill-opacity="0.7"></path><path class="Europe-__0026-Central-Asia_0-area" stroke-linecap="round" d="M88.5 434.1L99.2 427.7L109.9 424.3L120.6 421.7L131.2 416.2L141.9 405.6L152.6 398.9L163.3 390.6L173.9 383.8L184.6 384.9L195.3 377.5L206 369.9L216.6 363.2L227.3 356L238 352.5L248.7 353.8L259.3 346.2L270 341.7L280.7 343.6L291.4 346.9L302 343.7L312.7 337.8L323.4 337.3L334.1 329.3L344.7 320.4L355.4 321.9L366.1 311.7L376.8 307.2L387.4 251.5L398.1 252.6L408.8 263.7L419.5 269.2L430.1 267.8L440.8 268.9L451.5 265.1L462.2 250.9L472.8 242.2L483.5 235.5L494.2 238.7L504.9 240.4L515.5 240.6L526.2 243.3L536.9 246.6L547.6 245.3L558.2 248.2L568.9 246L579.6 244.1L590.3 241.1L600.9 244.1L611.6 243.4L622.3 234.1L633 237.3L643.6 234.4L654.3 230L665 219.1L675.7 216.6L686.3 221.2L686.3 292.4L675.7 289.9L665 290.2L654.3 300.1L643.6 302.1L633 307.1L622.3 306.2L611.6 313L600.9 312.7L590.3 311.9L579.6 314.5L568.9 318L558.2 321.3L547.6 321L536.9 326.5L526.2 325.7L515.5 324.6L504.9 323.9L494.2 326.3L483.5 327.1L472.8 331.8L462.2 339.7L451.5 347.1L440.8 353.9L430.1 359.7L419.5 365.3L408.8 364L398.1 363.7L387.4 366.8L376.8 369L366.1 373.2L355.4 384.5L344.7 384.2L334.1 391.2L323.4 396.9L312.7 399.6L302 405.1L291.4 407.4L280.7 404.5L270 406L259.3 411L248.7 413.9L238 413.6L227.3 416.4L216.6 422.3L206 428.2L195.3 435.1L184.6 439.3L173.9 440.8L163.3 448.6L152.6 454.1L141.9 457.5L131.2 462.2L120.6 464L109.9 464.6L99.2 467.5L88.5 471.9" fill="#ffd53e" fill-opacity="0.7"></path><path class="Latin-America-__0026-Caribbean_0-area" stroke-linecap="round" d="M88.5 411.5L99.2 396.1L109.9 382.9L120.6 379.9L131.2 361.3L141.9 360.3L152.6 343.3L163.3 329.2L173.9 319L184.6 327.9L195.3 302.8L206 302.8L216.6 326.8L227.3 330.1L238 316.2L248.7 321.4L259.3 306L270 308.6L280.7 300.1L291.4 297.8L302 297.1L312.7 287.3L323.4 281.5L334.1 283.9L344.7 261.5L355.4 254.5L366.1 234L376.8 239.3L387.4 171.9L398.1 165.9L408.8 185.4L419.5 186.3L430.1 181L440.8 175.6L451.5 147.9L462.2 146.4L472.8 136.8L483.5 142.4L494.2 178.5L504.9 151.8L515.5 143.7L526.2 160.3L536.9 158.2L547.6 173.4L558.2 152.6L568.9 154.1L579.6 163.3L590.3 161.2L600.9 163.1L611.6 165.9L622.3 174.7L633 156.7L643.6 173.3L654.3 167.2L665 165.3L675.7 159.8L686.3 170.5L686.3 221.2L675.7 216.6L665 219.1L654.3 230L643.6 234.4L633 237.3L622.3 234.1L611.6 243.4L600.9 244.1L590.3 241.1L579.6 244.1L568.9 246L558.2 248.2L547.6 245.3L536.9 246.6L526.2 243.3L515.5 240.6L504.9 240.4L494.2 238.7L483.5 235.5L472.8 242.2L462.2 250.9L451.5 265.1L440.8 268.9L430.1 267.8L419.5 269.2L408.8 263.7L398.1 252.6L387.4 251.5L376.8 307.2L366.1 311.7L355.4 321.9L344.7 320.4L334.1 329.3L323.4 337.3L312.7 337.8L302 343.7L291.4 346.9L280.7 343.6L270 341.7L259.3 346.2L248.7 353.8L238 352.5L227.3 356L216.6 363.2L206 369.9L195.3 377.5L184.6 384.9L173.9 383.8L163.3 390.6L152.6 398.9L141.9 405.6L131.2 416.2L120.6 421.7L109.9 424.3L99.2 427.7L88.5 434.1" fill="#9ecc8a" fill-opacity="0.7"></path><path class="North-America_0-area" stroke-linecap="round" d="M88.5 393.9L99.2 377.3L109.9 363.5L120.6 361.3L131.2 343.2L141.9 341.5L152.6 325L163.3 311.8L173.9 300.2L184.6 309.3L195.3 282.5L206 282.5L216.6 307.8L227.3 310.8L238 297.2L248.7 302.6L259.3 285.6L270 287.8L280.7 276.4L291.4 273.5L302 272.6L312.7 262.4L323.4 255.5L334.1 257.2L344.7 232.4L355.4 224.6L366.1 203L376.8 203.9L387.4 136.2L398.1 131.4L408.8 150.1L419.5 153.7L430.1 149.1L440.8 142.9L451.5 115.5L462.2 116.6L472.8 107.9L483.5 113.1L494.2 150.6L504.9 123.4L515.5 115.7L526.2 131L536.9 128.8L547.6 143.7L558.2 122.6L568.9 124.5L579.6 134.4L590.3 133L600.9 137.3L611.6 140.6L622.3 148.7L633 127.7L643.6 144.6L654.3 138.1L665 136.9L675.7 131.3L686.3 142.4L686.3 170.5L675.7 159.8L665 165.3L654.3 167.2L643.6 173.3L633 156.7L622.3 174.7L611.6 165.9L600.9 163.1L590.3 161.2L579.6 163.3L568.9 154.1L558.2 152.6L547.6 173.4L536.9 158.2L526.2 160.3L515.5 143.7L504.9 151.8L494.2 178.5L483.5 142.4L472.8 136.8L462.2 146.4L451.5 147.9L440.8 175.6L430.1 181L419.5 186.3L408.8 185.4L398.1 165.9L387.4 171.9L376.8 239.3L366.1 234L355.4 254.5L344.7 261.5L334.1 283.9L323.4 281.5L312.7 287.3L302 297.1L291.4 297.8L280.7 300.1L270 308.6L259.3 306L248.7 321.4L238 316.2L227.3 330.1L216.6 326.8L206 302.8L195.3 302.8L184.6 327.9L173.9 319L163.3 329.2L152.6 343.3L141.9 360.3L131.2 361.3L120.6 379.9L109.9 382.9L99.2 396.1L88.5 411.5" fill="#34983f" fill-opacity="0.7"></path><path class="Sub__002dSaharan-Africa_0-area" stroke-linecap="round" d="M88.5 384.4L99.2 366.9L109.9 352.4L120.6 349.5L131.2 330.1L141.9 328L152.6 310.7L163.3 295.6L173.9 281.5L184.6 290.7L195.3 266.3L206 265.9L216.6 289.6L227.3 292L238 278.3L248.7 284.8L259.3 269.2L270 271.4L280.7 260.2L291.4 257.8L302 257.6L312.7 247L323.4 240.2L334.1 240.9L344.7 216.5L355.4 208.5L366.1 185.7L376.8 182.8L387.4 115.3L398.1 112.3L408.8 130.5L419.5 135.6L430.1 126.8L440.8 121L451.5 94.9L462.2 94.8L472.8 86.3L483.5 90.6L494.2 127.1L504.9 99.1L515.5 90.4L526.2 105.3L536.9 103L547.6 116.4L558.2 93.9L568.9 96L579.6 107.9L590.3 105.8L600.9 110L611.6 113.2L622.3 119.7L633 97.8L643.6 112.5L654.3 106.8L665 104.7L675.7 98.5L686.3 107.5L686.3 142.4L675.7 131.3L665 136.9L654.3 138.1L643.6 144.6L633 127.7L622.3 148.7L611.6 140.6L600.9 137.3L590.3 133L579.6 134.4L568.9 124.5L558.2 122.6L547.6 143.7L536.9 128.8L526.2 131L515.5 115.7L504.9 123.4L494.2 150.6L483.5 113.1L472.8 107.9L462.2 116.6L451.5 115.5L440.8 142.9L430.1 149.1L419.5 153.7L408.8 150.1L398.1 131.4L387.4 136.2L376.8 203.9L366.1 203L355.4 224.6L344.7 232.4L334.1 257.2L323.4 255.5L312.7 262.4L302 272.6L291.4 273.5L280.7 276.4L270 287.8L259.3 285.6L248.7 302.6L238 297.2L227.3 310.8L216.6 307.8L206 282.5L195.3 282.5L184.6 309.3L173.9 300.2L163.3 311.8L152.6 325L141.9 341.5L131.2 343.2L120.6 361.3L109.9 363.5L99.2 377.3L88.5 393.9" fill="#3360a9" fill-opacity="0.7"></path><path class="Middle-East-__0026-North-Africa_0-area" stroke-linecap="round" d="M88.5 382.2L99.2 364.6L109.9 350L120.6 347L131.2 327.4L141.9 325.3L152.6 307.4L163.3 292.6L173.9 278.6L184.6 287.8L195.3 263.1L206 262.7L216.6 286.1L227.3 287.7L238 273.9L248.7 280.5L259.3 264.6L270 267L280.7 255.8L291.4 253.2L302 252.9L312.7 242.2L323.4 235.2L334.1 235.3L344.7 210.7L355.4 202.3L366.1 178.8L376.8 175.6L387.4 107.3L398.1 104.6L408.8 122.5L419.5 127.3L430.1 118.4L440.8 112L451.5 85L462.2 84.1L472.8 76.6L483.5 79.9L494.2 116.6L504.9 88.2L515.5 78.8L526.2 92.3L536.9 90.7L547.6 103.9L558.2 81.3L568.9 83L579.6 95L590.3 93.4L600.9 97.5L611.6 99.6L622.3 106.4L633 85.3L643.6 98.1L654.3 91.8L665 89L675.7 82.7L686.3 91.1L686.3 107.5L675.7 98.5L665 104.7L654.3 106.8L643.6 112.5L633 97.8L622.3 119.7L611.6 113.2L600.9 110L590.3 105.8L579.6 107.9L568.9 96L558.2 93.9L547.6 116.4L536.9 103L526.2 105.3L515.5 90.4L504.9 99.1L494.2 127.1L483.5 90.6L472.8 86.3L462.2 94.8L451.5 94.9L440.8 121L430.1 126.8L419.5 135.6L408.8 130.5L398.1 112.3L387.4 115.3L376.8 182.8L366.1 185.7L355.4 208.5L344.7 216.5L334.1 240.9L323.4 240.2L312.7 247L302 257.6L291.4 257.8L280.7 260.2L270 271.4L259.3 269.2L248.7 284.8L238 278.3L227.3 292L216.6 289.6L206 265.9L195.3 266.3L184.6 290.7L173.9 281.5L163.3 295.6L152.6 310.7L141.9 328L131.2 330.1L120.6 349.5L109.9 352.4L99.2 366.9L88.5 384.4" fill="#2a939b" fill-opacity="0.7"></path><path class="East-Asia-__0026-Pacific_0-border" stroke-linecap="round" d="M88.5 479.7L99.2 474.5L109.9 472L120.6 471.8L131.2 471.7L141.9 467.2L152.6 464.2L163.3 458.8L173.9 452L184.6 450.8L195.3 447.5L206 441.2L216.6 434.7L227.3 430.4L238 428.8L248.7 428.1L259.3 424.9L270 420.8L280.7 419.3L291.4 422.2L302 420.2L312.7 414.8L323.4 411.8L334.1 406.8L344.7 401.2L355.4 401.4L366.1 390.7L376.8 386L387.4 384.6L398.1 383.5L408.8 384.6L419.5 386.5L430.1 381.3L440.8 377.3L451.5 371.4L462.2 364L472.8 357.3L483.5 353.3L494.2 352L504.9 351.1L515.5 352.5L526.2 353.9L536.9 354.9L547.6 349.4L558.2 348.4L568.9 346.6L579.6 344.9L590.3 342.3L600.9 344.7L611.6 346L622.3 342.2L633 340.7L643.6 338.4L654.3 335.6L665 327.7L675.7 326.8L686.3 330.8" stroke="rgb(192, 43, 38)" stroke-opacity="0.7" stroke-width="0.5" fill="none"></path><path class="South-Asia_0-border" stroke-linecap="round" d="M88.5 471.9L99.2 467.5L109.9 464.6L120.6 464L131.2 462.2L141.9 457.5L152.6 454.1L163.3 448.6L173.9 440.8L184.6 439.3L195.3 435.1L206 428.2L216.6 422.3L227.3 416.4L238 413.6L248.7 413.9L259.3 411L270 406L280.7 404.5L291.4 407.4L302 405.1L312.7 399.6L323.4 396.9L334.1 391.2L344.7 384.2L355.4 384.5L366.1 373.2L376.8 369L387.4 366.8L398.1 363.7L408.8 364L419.5 365.3L430.1 359.7L440.8 353.9L451.5 347.1L462.2 339.7L472.8 331.8L483.5 327.1L494.2 326.3L504.9 323.9L515.5 324.6L526.2 325.7L536.9 326.5L547.6 321L558.2 321.3L568.9 318L579.6 314.5L590.3 311.9L600.9 312.7L611.6 313L622.3 306.2L633 307.1L643.6 302.1L654.3 300.1L665 290.2L675.7 289.9L686.3 292.4" stroke="rgb(169, 32, 33)" stroke-opacity="0.7" stroke-width="0.5" fill="none"></path><path class="Europe-__0026-Central-Asia_0-border" stroke-linecap="round" d="M88.5 434.1L99.2 427.7L109.9 424.3L120.6 421.7L131.2 416.2L141.9 405.6L152.6 398.9L163.3 390.6L173.9 383.8L184.6 384.9L195.3 377.5L206 369.9L216.6 363.2L227.3 356L238 352.5L248.7 353.8L259.3 346.2L270 341.7L280.7 343.6L291.4 346.9L302 343.7L312.7 337.8L323.4 337.3L334.1 329.3L344.7 320.4L355.4 321.9L366.1 311.7L376.8 307.2L387.4 251.5L398.1 252.6L408.8 263.7L419.5 269.2L430.1 267.8L440.8 268.9L451.5 265.1L462.2 250.9L472.8 242.2L483.5 235.5L494.2 238.7L504.9 240.4L515.5 240.6L526.2 243.3L536.9 246.6L547.6 245.3L558.2 248.2L568.9 246L579.6 244.1L590.3 241.1L600.9 244.1L611.6 243.4L622.3 234.1L633 237.3L643.6 234.4L654.3 230L665 219.1L675.7 216.6L686.3 221.2" stroke="rgb(213, 178, 52)" stroke-opacity="0.7" stroke-width="0.5" fill="none"></path><path class="Latin-America-__0026-Caribbean_0-border" stroke-linecap="round" d="M88.5 411.5L99.2 396.1L109.9 382.9L120.6 379.9L131.2 361.3L141.9 360.3L152.6 343.3L163.3 329.2L173.9 319L184.6 327.9L195.3 302.8L206 302.8L216.6 326.8L227.3 330.1L238 316.2L248.7 321.4L259.3 306L270 308.6L280.7 300.1L291.4 297.8L302 297.1L312.7 287.3L323.4 281.5L334.1 283.9L344.7 261.5L355.4 254.5L366.1 234L376.8 239.3L387.4 171.9L398.1 165.9L408.8 185.4L419.5 186.3L430.1 181L440.8 175.6L451.5 147.9L462.2 146.4L472.8 136.8L483.5 142.4L494.2 178.5L504.9 151.8L515.5 143.7L526.2 160.3L536.9 158.2L547.6 173.4L558.2 152.6L568.9 154.1L579.6 163.3L590.3 161.2L600.9 163.1L611.6 165.9L622.3 174.7L633 156.7L643.6 173.3L654.3 167.2L665 165.3L675.7 159.8L686.3 170.5" stroke="rgb(132, 171, 115)" stroke-opacity="0.7" stroke-width="0.5" fill="none"></path><path class="North-America_0-border" stroke-linecap="round" d="M88.5 393.9L99.2 377.3L109.9 363.5L120.6 361.3L131.2 343.2L141.9 341.5L152.6 325L163.3 311.8L173.9 300.2L184.6 309.3L195.3 282.5L206 282.5L216.6 307.8L227.3 310.8L238 297.2L248.7 302.6L259.3 285.6L270 287.8L280.7 276.4L291.4 273.5L302 272.6L312.7 262.4L323.4 255.5L334.1 257.2L344.7 232.4L355.4 224.6L366.1 203L376.8 203.9L387.4 136.2L398.1 131.4L408.8 150.1L419.5 153.7L430.1 149.1L440.8 142.9L451.5 115.5L462.2 116.6L472.8 107.9L483.5 113.1L494.2 150.6L504.9 123.4L515.5 115.7L526.2 131L536.9 128.8L547.6 143.7L558.2 122.6L568.9 124.5L579.6 134.4L590.3 133L600.9 137.3L611.6 140.6L622.3 148.7L633 127.7L643.6 144.6L654.3 138.1L665 136.9L675.7 131.3L686.3 142.4" stroke="rgb(44, 127, 53)" stroke-opacity="0.7" stroke-width="0.5" fill="none"></path><path class="Sub__002dSaharan-Africa_0-border" stroke-linecap="round" d="M88.5 384.4L99.2 366.9L109.9 352.4L120.6 349.5L131.2 330.1L141.9 328L152.6 310.7L163.3 295.6L173.9 281.5L184.6 290.7L195.3 266.3L206 265.9L216.6 289.6L227.3 292L238 278.3L248.7 284.8L259.3 269.2L270 271.4L280.7 260.2L291.4 257.8L302 257.6L312.7 247L323.4 240.2L334.1 240.9L344.7 216.5L355.4 208.5L366.1 185.7L376.8 182.8L387.4 115.3L398.1 112.3L408.8 130.5L419.5 135.6L430.1 126.8L440.8 121L451.5 94.9L462.2 94.8L472.8 86.3L483.5 90.6L494.2 127.1L504.9 99.1L515.5 90.4L526.2 105.3L536.9 103L547.6 116.4L558.2 93.9L568.9 96L579.6 107.9L590.3 105.8L600.9 110L611.6 113.2L622.3 119.7L633 97.8L643.6 112.5L654.3 106.8L665 104.7L675.7 98.5L686.3 107.5" stroke="rgb(43, 80, 141)" stroke-opacity="0.7" stroke-width="0.5" fill="none"></path><path class="Middle-East-__0026-North-Africa_0-border" stroke-linecap="round" d="M88.5 382.2L99.2 364.6L109.9 350L120.6 347L131.2 327.4L141.9 325.3L152.6 307.4L163.3 292.6L173.9 278.6L184.6 287.8L195.3 263.1L206 262.7L216.6 286.1L227.3 287.7L238 273.9L248.7 280.5L259.3 264.6L270 267L280.7 255.8L291.4 253.2L302 252.9L312.7 242.2L323.4 235.2L334.1 235.3L344.7 210.7L355.4 202.3L366.1 178.8L376.8 175.6L387.4 107.3L398.1 104.6L408.8 122.5L419.5 127.3L430.1 118.4L440.8 112L451.5 85L462.2 84.1L472.8 76.6L483.5 79.9L494.2 116.6L504.9 88.2L515.5 78.8L526.2 92.3L536.9 90.7L547.6 103.9L558.2 81.3L568.9 83L579.6 95L590.3 93.4L600.9 97.5L611.6 99.6L622.3 106.4L633 85.3L643.6 98.1L654.3 91.8L665 89L675.7 82.7L686.3 91.1" stroke="rgb(35, 123, 130)" stroke-opacity="0.7" stroke-width="0.5" fill="none"></path></g></g></g><g class="SourcesFooter" style="fill:#777"><g class="clickable" style="fill:#777"><text font-size="12.60" x="15.0" y="581.6"><tspan x="15" y="581.58">Source: World Bank</tspan></text></g><text font-size="12.60" x="400.2" y="581.6"><tspan x="400.174" y="581.58"><a target='_blank' style='fill: #777;' href='https://ourworldindata.org/meat-and-seafood-production-consumption/'>OurWorldInData.org/meat-and-seafood-production-consumption/</a> • <a style="fill: #777;" class="cclogo" href="http://creativecommons.org/licenses/by-sa/4.0/deed.en_US" target="_blank">CC BY-SA</a></tspan></text></g></g></svg>