<svg xmlns="http://www.w3.org/2000/svg" version="1.1" style="font-family:&#x27;Helvetica Neue&#x27;, Helvetica, Arial, sans-serif;font-size:18px;background-color:white;text-rendering:optimizeLegibility;-webkit-font-smoothing:antialiased" width="850" height="600"><g class="HeaderView"><g opacity="0.8" transform="translate(774, 15) scale(0.29)"><svg width="210" height="120" viewBox="0 0 210 120" fill="none" xmlns="http://www.w3.org/2000/svg">
    <a xmlns:xlink="http://www.w3.org/1999/xlink" xlink:href="https://ourworldindata.org" target="_blank">
        <g clip-path="url(#clip0)">
            <path d="M0 0H210V107.89H0V0Z" fill="#002147"/>
            <path d="M40.9788 32.248C40.9788 34.6093 40.6048 36.78 39.8568 38.76C39.1088 40.7253 38.0528 42.4193 36.6888 43.842C35.3248 45.2647 33.6821 46.372 31.7608 47.164C29.8541 47.9413 27.7421 48.33 25.4248 48.33C23.1074 48.33 20.9954 47.9413 19.0888 47.164C17.1821 46.372 15.5468 45.2647 14.1828 43.842C12.8188 42.4193 11.7628 40.7253 11.0148 38.76C10.2668 36.78 9.89277 34.6093 9.89277 32.248C9.89277 29.8867 10.2668 27.7233 11.0148 25.758C11.7628 23.778 12.8188 22.0767 14.1828 20.654C15.5468 19.2167 17.1821 18.102 19.0888 17.31C20.9954 16.518 23.1074 16.122 25.4248 16.122C27.7421 16.122 29.8541 16.518 31.7608 17.31C33.6821 18.102 35.3248 19.2167 36.6888 20.654C38.0528 22.0767 39.1088 23.778 39.8568 25.758C40.6048 27.7233 40.9788 29.8867 40.9788 32.248ZM36.6008 32.248C36.6008 30.312 36.3368 28.574 35.8088 27.034C35.2808 25.494 34.5328 24.196 33.5648 23.14C32.5968 22.0693 31.4234 21.248 30.0448 20.676C28.6661 20.104 27.1261 19.818 25.4248 19.818C23.7381 19.818 22.2054 20.104 20.8268 20.676C19.4481 21.248 18.2674 22.0693 17.2848 23.14C16.3168 24.196 15.5688 25.494 15.0408 27.034C14.5128 28.574 14.2488 30.312 14.2488 32.248C14.2488 34.184 14.5128 35.922 15.0408 37.462C15.5688 38.9873 16.3168 40.2853 17.2848 41.356C18.2674 42.412 19.4481 43.226 20.8268 43.798C22.2054 44.3553 23.7381 44.634 25.4248 44.634C27.1261 44.634 28.6661 44.3553 30.0448 43.798C31.4234 43.226 32.5968 42.412 33.5648 41.356C34.5328 40.2853 35.2808 38.9873 35.8088 37.462C36.3368 35.922 36.6008 34.184 36.6008 32.248ZM62.8234 25.714V48H60.4914C59.9341 48 59.5821 47.7287 59.4354 47.186L59.1274 44.788C58.1594 45.8587 57.0741 46.724 55.8714 47.384C54.6687 48.0293 53.2901 48.352 51.7354 48.352C50.5181 48.352 49.4401 48.154 48.5014 47.758C47.5774 47.3473 46.8001 46.7753 46.1694 46.042C45.5387 45.3087 45.0621 44.4213 44.7394 43.38C44.4314 42.3387 44.2774 41.1873 44.2774 39.926V25.714H48.1934V39.926C48.1934 41.6127 48.5747 42.918 49.3374 43.842C50.1147 44.766 51.2954 45.228 52.8794 45.228C54.0381 45.228 55.1161 44.9567 56.1134 44.414C57.1254 43.8567 58.0567 43.094 58.9074 42.126V25.714H62.8234ZM71.4305 30.18C72.1346 28.6547 72.9999 27.4667 74.0266 26.616C75.0532 25.7507 76.3072 25.318 77.7886 25.318C78.2579 25.318 78.7052 25.3693 79.1306 25.472C79.5706 25.5747 79.9592 25.736 80.2966 25.956L80.0106 28.882C79.9226 29.2487 79.7026 29.432 79.3506 29.432C79.1452 29.432 78.8446 29.388 78.4486 29.3C78.0526 29.212 77.6052 29.168 77.1066 29.168C76.4026 29.168 75.7719 29.2707 75.2146 29.476C74.6719 29.6813 74.1806 29.9893 73.7406 30.4C73.3152 30.796 72.9266 31.2947 72.5746 31.896C72.2372 32.4827 71.9292 33.1573 71.6506 33.92V48H67.7125V25.714H69.9566C70.3819 25.714 70.6752 25.7947 70.8366 25.956C70.9979 26.1173 71.1079 26.396 71.1666 26.792L71.4305 30.18ZM132.589 16.474L122.755 48H118.927L110.941 23.954C110.867 23.7193 110.794 23.47 110.721 23.206C110.662 22.942 110.596 22.6633 110.523 22.37C110.449 22.6633 110.376 22.942 110.303 23.206C110.23 23.47 110.156 23.7193 110.083 23.954L102.053 48H98.2248L88.3908 16.474H91.9328C92.3142 16.474 92.6295 16.5693 92.8788 16.76C93.1428 16.9507 93.3115 17.1927 93.3848 17.486L99.8968 39.398C99.9995 39.794 100.095 40.2193 100.183 40.674C100.285 41.1287 100.381 41.6127 100.469 42.126C100.571 41.6127 100.674 41.1287 100.777 40.674C100.894 40.2047 101.019 39.7793 101.151 39.398L108.565 17.486C108.653 17.2367 108.821 17.0093 109.071 16.804C109.335 16.584 109.65 16.474 110.017 16.474H111.249C111.63 16.474 111.938 16.5693 112.173 16.76C112.407 16.9507 112.583 17.1927 112.701 17.486L120.093 39.398C120.225 39.7793 120.342 40.19 120.445 40.63C120.562 41.07 120.672 41.532 120.775 42.016C120.848 41.532 120.929 41.07 121.017 40.63C121.105 40.19 121.2 39.7793 121.303 39.398L127.837 17.486C127.91 17.222 128.072 16.9873 128.321 16.782C128.585 16.5767 128.9 16.474 129.267 16.474H132.589ZM141.94 25.362C143.568 25.362 145.034 25.6333 146.34 26.176C147.645 26.7187 148.76 27.4887 149.684 28.486C150.608 29.4833 151.312 30.6933 151.796 32.116C152.294 33.524 152.544 35.1007 152.544 36.846C152.544 38.606 152.294 40.19 151.796 41.598C151.312 43.006 150.608 44.2087 149.684 45.206C148.76 46.2033 147.645 46.9733 146.34 47.516C145.034 48.044 143.568 48.308 141.94 48.308C140.297 48.308 138.816 48.044 137.496 47.516C136.19 46.9733 135.076 46.2033 134.152 45.206C133.228 44.2087 132.516 43.006 132.018 41.598C131.534 40.19 131.292 38.606 131.292 36.846C131.292 35.1007 131.534 33.524 132.018 32.116C132.516 30.6933 133.228 29.4833 134.152 28.486C135.076 27.4887 136.19 26.7187 137.496 26.176C138.816 25.6333 140.297 25.362 141.94 25.362ZM141.94 45.25C144.14 45.25 145.782 44.5167 146.868 43.05C147.953 41.5687 148.496 39.508 148.496 36.868C148.496 34.2133 147.953 32.1453 146.868 30.664C145.782 29.1827 144.14 28.442 141.94 28.442C140.825 28.442 139.85 28.6327 139.014 29.014C138.192 29.3953 137.503 29.9453 136.946 30.664C136.403 31.3827 135.992 32.27 135.714 33.326C135.45 34.3673 135.318 35.548 135.318 36.868C135.318 39.508 135.86 41.5687 136.946 43.05C138.046 44.5167 139.71 45.25 141.94 45.25ZM159.908 30.18C160.612 28.6547 161.478 27.4667 162.504 26.616C163.531 25.7507 164.785 25.318 166.266 25.318C166.736 25.318 167.183 25.3693 167.608 25.472C168.048 25.5747 168.437 25.736 168.774 25.956L168.488 28.882C168.4 29.2487 168.18 29.432 167.828 29.432C167.623 29.432 167.322 29.388 166.926 29.3C166.53 29.212 166.083 29.168 165.584 29.168C164.88 29.168 164.25 29.2707 163.692 29.476C163.15 29.6813 162.658 29.9893 162.218 30.4C161.793 30.796 161.404 31.2947 161.052 31.896C160.715 32.4827 160.407 33.1573 160.128 33.92V48H156.19V25.714H158.434C158.86 25.714 159.153 25.7947 159.314 25.956C159.476 26.1173 159.586 26.396 159.644 26.792L159.908 30.18ZM174.946 15.594V48H171.03V15.594H174.946ZM194.496 31.016C193.763 30.0333 192.971 29.3513 192.12 28.97C191.269 28.574 190.316 28.376 189.26 28.376C187.192 28.376 185.601 29.1167 184.486 30.598C183.371 32.0793 182.814 34.1913 182.814 36.934C182.814 38.386 182.939 39.6327 183.188 40.674C183.437 41.7007 183.804 42.5513 184.288 43.226C184.772 43.886 185.366 44.37 186.07 44.678C186.774 44.986 187.573 45.14 188.468 45.14C189.759 45.14 190.881 44.8467 191.834 44.26C192.802 43.6733 193.689 42.8447 194.496 41.774V31.016ZM198.412 15.594V48H196.08C195.523 48 195.171 47.7287 195.024 47.186L194.672 44.48C193.719 45.624 192.633 46.548 191.416 47.252C190.199 47.956 188.791 48.308 187.192 48.308C185.916 48.308 184.757 48.066 183.716 47.582C182.675 47.0833 181.787 46.3573 181.054 45.404C180.321 44.4507 179.756 43.2627 179.36 41.84C178.964 40.4173 178.766 38.782 178.766 36.934C178.766 35.2913 178.986 33.766 179.426 32.358C179.866 30.9353 180.497 29.7033 181.318 28.662C182.139 27.6207 183.144 26.8067 184.332 26.22C185.535 25.6187 186.884 25.318 188.38 25.318C189.744 25.318 190.91 25.5527 191.878 26.022C192.861 26.4767 193.733 27.1147 194.496 27.936V15.594H198.412ZM46.6139 70.714V93H42.6979V70.714H46.6139ZM47.4499 63.718C47.4499 64.0993 47.3692 64.4587 47.2079 64.796C47.0612 65.1187 46.8559 65.412 46.5919 65.676C46.3425 65.9253 46.0419 66.1233 45.6899 66.27C45.3525 66.4167 44.9932 66.49 44.6119 66.49C44.2305 66.49 43.8712 66.4167 43.5339 66.27C43.2112 66.1233 42.9252 65.9253 42.6759 65.676C42.4265 65.412 42.2285 65.1187 42.0819 64.796C41.9352 64.4587 41.8619 64.0993 41.8619 63.718C41.8619 63.3367 41.9352 62.9773 42.0819 62.64C42.2285 62.288 42.4265 61.9873 42.6759 61.738C42.9252 61.474 43.2112 61.2687 43.5339 61.122C43.8712 60.9753 44.2305 60.902 44.6119 60.902C44.9932 60.902 45.3525 60.9753 45.6899 61.122C46.0419 61.2687 46.3425 61.474 46.5919 61.738C46.8559 61.9873 47.0612 62.288 47.2079 62.64C47.3692 62.9773 47.4499 63.3367 47.4499 63.718ZM55.4242 73.948C55.9082 73.4053 56.4215 72.914 56.9642 72.474C57.5068 72.034 58.0788 71.66 58.6802 71.352C59.2962 71.0293 59.9415 70.7873 60.6162 70.626C61.3055 70.45 62.0462 70.362 62.8382 70.362C64.0555 70.362 65.1262 70.5673 66.0502 70.978C66.9888 71.374 67.7662 71.946 68.3822 72.694C69.0128 73.4273 69.4895 74.3147 69.8122 75.356C70.1348 76.3973 70.2962 77.5487 70.2962 78.81V93H66.3582V78.81C66.3582 77.1233 65.9695 75.818 65.1922 74.894C64.4295 73.9553 63.2635 73.486 61.6942 73.486C60.5355 73.486 59.4502 73.7647 58.4382 74.322C57.4408 74.8793 56.5168 75.6347 55.6662 76.588V93H51.7282V70.714H54.0822C54.6395 70.714 54.9842 70.9853 55.1162 71.528L55.4242 73.948ZM113.129 77.248C113.129 79.6093 112.755 81.758 112.007 83.694C111.259 85.63 110.203 87.2873 108.839 88.666C107.475 90.0447 105.832 91.1153 103.911 91.878C102.004 92.626 99.8925 93 97.5751 93H85.8051V61.474H97.5751C99.8925 61.474 102.004 61.8553 103.911 62.618C105.832 63.366 107.475 64.4367 108.839 65.83C110.203 67.2087 111.259 68.866 112.007 70.802C112.755 72.738 113.129 74.8867 113.129 77.248ZM108.751 77.248C108.751 75.312 108.487 73.5813 107.959 72.056C107.431 70.5307 106.683 69.24 105.715 68.184C104.747 67.128 103.574 66.3213 102.195 65.764C100.816 65.2067 99.2765 64.928 97.5751 64.928H90.0731V89.546H97.5751C99.2765 89.546 100.816 89.2673 102.195 88.71C103.574 88.1527 104.747 87.3533 105.715 86.312C106.683 85.256 107.431 83.9653 107.959 82.44C108.487 80.9147 108.751 79.184 108.751 77.248ZM128.553 82.968C126.749 83.0267 125.209 83.1733 123.933 83.408C122.672 83.628 121.638 83.9213 120.831 84.288C120.039 84.6547 119.46 85.0873 119.093 85.586C118.741 86.0847 118.565 86.642 118.565 87.258C118.565 87.8447 118.661 88.3507 118.851 88.776C119.042 89.2013 119.299 89.5533 119.621 89.832C119.959 90.096 120.347 90.294 120.787 90.426C121.242 90.5433 121.726 90.602 122.239 90.602C122.929 90.602 123.559 90.536 124.131 90.404C124.703 90.2573 125.239 90.052 125.737 89.788C126.251 89.524 126.735 89.2087 127.189 88.842C127.659 88.4753 128.113 88.0573 128.553 87.588V82.968ZM115.903 73.86C117.135 72.672 118.463 71.7847 119.885 71.198C121.308 70.6113 122.885 70.318 124.615 70.318C125.862 70.318 126.969 70.5233 127.937 70.934C128.905 71.3447 129.719 71.9167 130.379 72.65C131.039 73.3833 131.538 74.2707 131.875 75.312C132.213 76.3533 132.381 77.4973 132.381 78.744V93H130.643C130.262 93 129.969 92.9413 129.763 92.824C129.558 92.692 129.397 92.4427 129.279 92.076L128.839 89.964C128.253 90.5067 127.681 90.9907 127.123 91.416C126.566 91.8267 125.979 92.1787 125.363 92.472C124.747 92.7507 124.087 92.9633 123.383 93.11C122.694 93.2713 121.924 93.352 121.073 93.352C120.208 93.352 119.394 93.2347 118.631 93C117.869 92.7507 117.201 92.384 116.629 91.9C116.072 91.416 115.625 90.8073 115.287 90.074C114.965 89.326 114.803 88.446 114.803 87.434C114.803 86.554 115.045 85.7107 115.529 84.904C116.013 84.0827 116.798 83.3567 117.883 82.726C118.969 82.0953 120.384 81.582 122.129 81.186C123.875 80.7753 126.016 80.5407 128.553 80.482V78.744C128.553 77.0133 128.179 75.708 127.431 74.828C126.683 73.9333 125.591 73.486 124.153 73.486C123.185 73.486 122.371 73.6107 121.711 73.86C121.066 74.0947 120.501 74.366 120.017 74.674C119.548 74.9673 119.137 75.2387 118.785 75.488C118.448 75.7227 118.111 75.84 117.773 75.84C117.509 75.84 117.282 75.774 117.091 75.642C116.901 75.4953 116.739 75.3193 116.607 75.114L115.903 73.86ZM143.568 93.352C141.808 93.352 140.451 92.8607 139.498 91.878C138.559 90.8953 138.09 89.48 138.09 87.632V73.992H135.406C135.171 73.992 134.973 73.926 134.812 73.794C134.65 73.6473 134.57 73.4273 134.57 73.134V71.572L138.222 71.11L139.124 64.224C139.168 64.004 139.263 63.828 139.41 63.696C139.571 63.5493 139.776 63.476 140.026 63.476H142.006V71.154H148.452V73.992H142.006V87.368C142.006 88.3067 142.233 89.0033 142.688 89.458C143.142 89.9127 143.729 90.14 144.448 90.14C144.858 90.14 145.21 90.0887 145.504 89.986C145.812 89.8687 146.076 89.744 146.296 89.612C146.516 89.48 146.699 89.3627 146.846 89.26C147.007 89.1427 147.146 89.084 147.264 89.084C147.469 89.084 147.652 89.2087 147.814 89.458L148.958 91.328C148.283 91.9587 147.469 92.4573 146.516 92.824C145.562 93.176 144.58 93.352 143.568 93.352ZM163.253 82.968C161.449 83.0267 159.909 83.1733 158.633 83.408C157.372 83.628 156.338 83.9213 155.531 84.288C154.739 84.6547 154.16 85.0873 153.793 85.586C153.441 86.0847 153.265 86.642 153.265 87.258C153.265 87.8447 153.36 88.3507 153.551 88.776C153.742 89.2013 153.998 89.5533 154.321 89.832C154.658 90.096 155.047 90.294 155.487 90.426C155.942 90.5433 156.426 90.602 156.939 90.602C157.628 90.602 158.259 90.536 158.831 90.404C159.403 90.2573 159.938 90.052 160.437 89.788C160.95 89.524 161.434 89.2087 161.889 88.842C162.358 88.4753 162.813 88.0573 163.253 87.588V82.968ZM150.603 73.86C151.835 72.672 153.162 71.7847 154.585 71.198C156.008 70.6113 157.584 70.318 159.315 70.318C160.562 70.318 161.669 70.5233 162.637 70.934C163.605 71.3447 164.419 71.9167 165.079 72.65C165.739 73.3833 166.238 74.2707 166.575 75.312C166.912 76.3533 167.081 77.4973 167.081 78.744V93H165.343C164.962 93 164.668 92.9413 164.463 92.824C164.258 92.692 164.096 92.4427 163.979 92.076L163.539 89.964C162.952 90.5067 162.38 90.9907 161.823 91.416C161.266 91.8267 160.679 92.1787 160.063 92.472C159.447 92.7507 158.787 92.9633 158.083 93.11C157.394 93.2713 156.624 93.352 155.773 93.352C154.908 93.352 154.094 93.2347 153.331 93C152.568 92.7507 151.901 92.384 151.329 91.9C150.772 91.416 150.324 90.8073 149.987 90.074C149.664 89.326 149.503 88.446 149.503 87.434C149.503 86.554 149.745 85.7107 150.229 84.904C150.713 84.0827 151.498 83.3567 152.583 82.726C153.668 82.0953 155.084 81.582 156.829 81.186C158.574 80.7753 160.716 80.5407 163.253 80.482V78.744C163.253 77.0133 162.879 75.708 162.131 74.828C161.383 73.9333 160.29 73.486 158.853 73.486C157.885 73.486 157.071 73.6107 156.411 73.86C155.766 74.0947 155.201 74.366 154.717 74.674C154.248 74.9673 153.837 75.2387 153.485 75.488C153.148 75.7227 152.81 75.84 152.473 75.84C152.209 75.84 151.982 75.774 151.791 75.642C151.6 75.4953 151.439 75.3193 151.307 75.114L150.603 73.86Z" fill="white"/>
            <rect y="106.789" width="210" height="13.211" fill="#D42B21"/>
        </g>
        <defs>
            <clipPath id="clip0">
                <rect width="210" height="120" fill="white"/>
            </clipPath>
        </defs>
    </a>
</svg></g><a href="https://mispytest-owid.netlify.com/grapher/child-mortality?tab=chart" target="_blank"><text font-size="25.20" x="15.0" y="35.2" fill="#555"><tspan x="15" y="35.160000000000004">Child mortality rate</tspan></text></a><text font-size="14.40" x="15.0" y="53.7" fill="#666"><tspan x="15" y="53.72">Shown is the share of children (born alive) who die before they are five years old.</tspan></text></g><g class="LineChart"><defs><clipPath id="boundsClip-21"><rect x="42.562" y="0" width="830" height="963.8"></rect></clipPath></defs><g class="AxisBoxView"><g class="HorizontalAxis"><text x="52.6" y="556.5" fill="#666" text-anchor="middle" font-size="16.2">1800</text><text x="195.9" y="556.5" fill="#666" text-anchor="middle" font-size="16.2">1850</text><text x="339.2" y="556.5" fill="#666" text-anchor="middle" font-size="16.2">1900</text><text x="482.6" y="556.5" fill="#666" text-anchor="middle" font-size="16.2">1950</text><text x="625.9" y="556.5" fill="#666" text-anchor="middle" font-size="16.2">2000</text><text x="668.9" y="556.5" fill="#666" text-anchor="middle" font-size="16.2">2015</text></g><g class="VerticalAxis"><text x="47.56" y="535.3" fill="#666" dominant-baseline="middle" text-anchor="end" font-size="16.2">0%</text><text x="47.56" y="449.5" fill="#666" dominant-baseline="middle" text-anchor="end" font-size="16.2">10%</text><text x="47.56" y="363.8" fill="#666" dominant-baseline="middle" text-anchor="end" font-size="16.2">20%</text><text x="47.56" y="278" fill="#666" dominant-baseline="middle" text-anchor="end" font-size="16.2">30%</text><text x="47.56" y="192.3" fill="#666" dominant-baseline="middle" text-anchor="end" font-size="16.2">40%</text><text x="47.56" y="106.5" fill="#666" dominant-baseline="middle" text-anchor="end" font-size="16.2">50%</text></g><g class="AxisGridLines"><line x1="52.56" y1="535.3" x2="668.91" y2="535.3" stroke="#ccc"></line><line x1="52.56" y1="449.5" x2="668.91" y2="449.5" stroke="#ddd" stroke-dasharray="3,2"></line><line x1="52.56" y1="363.8" x2="668.91" y2="363.8" stroke="#ddd" stroke-dasharray="3,2"></line><line x1="52.56" y1="278" x2="668.91" y2="278" stroke="#ddd" stroke-dasharray="3,2"></line><line x1="52.56" y1="192.3" x2="668.91" y2="192.3" stroke="#ddd" stroke-dasharray="3,2"></line><line x1="52.56" y1="106.5" x2="668.91" y2="106.5" stroke="#ddd" stroke-dasharray="3,2"></line></g></g><g clip-path="url(#boundsClip-21)"><g class="HeightedLegend clickable"><g class="legendMark"><g class="indicator"><line x1="673.915" y1="533.1" x2="696.415" y2="533.1" stroke="#666" stroke-width="0.5"></line><line x1="696.415" y1="533.1" x2="696.415" y2="528.55" stroke="#666" stroke-width="0.5"></line><line x1="696.415" y1="528.55" x2="698.915" y2="528.55" stroke="#666" stroke-width="0.5"></line></g><rect x="668.915" y="521.8" width="118.7" height="13.5" fill="#fff" opacity="0"></rect><text font-size="13.50" x="703.9" y="532.6" fill="#3360a9"><tspan x="703.915" y="532.5999999999999">0.3% Sweden</tspan></text></g><g class="legendMark"><g class="indicator"><line x1="673.915" y1="531.4" x2="693.0816666666666" y2="531.4" stroke="#666" stroke-width="0.5"></line><line x1="693.0816666666666" y1="531.4" x2="693.0816666666666" y2="513.05" stroke="#666" stroke-width="0.5"></line><line x1="693.0816666666666" y1="513.05" x2="698.915" y2="513.05" stroke="#666" stroke-width="0.5"></line></g><rect x="668.915" y="506.29999999999995" width="166.085" height="13.5" fill="#fff" opacity="0"></rect><text font-size="13.50" x="703.9" y="517.1" fill="#ca2628"><tspan x="703.915" y="517.0999999999999">0.5% United Kingdom</tspan></text></g><g class="legendMark"><g class="indicator"><line x1="673.915" y1="529.7" x2="689.7483333333333" y2="529.7" stroke="#666" stroke-width="0.5"></line><line x1="689.7483333333333" y1="529.7" x2="689.7483333333333" y2="497.54999999999995" stroke="#666" stroke-width="0.5"></line><line x1="689.7483333333333" y1="497.54999999999995" x2="698.915" y2="497.54999999999995" stroke="#666" stroke-width="0.5"></line></g><rect x="668.915" y="490.79999999999995" width="151.10000000000002" height="13.5" fill="#fff" opacity="0"></rect><text font-size="13.50" x="703.9" y="501.6" fill="#34983f"><tspan x="703.915" y="501.59999999999997">0.7% United States</tspan></text></g><g class="legendMark"><g class="indicator"><line x1="673.915" y1="521.2" x2="686.415" y2="521.2" stroke="#666" stroke-width="0.5"></line><line x1="686.415" y1="521.2" x2="686.415" y2="482.04999999999995" stroke="#666" stroke-width="0.5"></line><line x1="686.415" y1="482.04999999999995" x2="698.915" y2="482.04999999999995" stroke="#666" stroke-width="0.5"></line></g><rect x="668.915" y="475.29999999999995" width="103.44500000000001" height="13.5" fill="#fff" opacity="0"></rect><text font-size="13.50" x="703.9" y="486.1" fill="#f6a324"><tspan x="703.915" y="486.09999999999997">1.7% Brazil</tspan></text></g><g class="legendMark"><g class="indicator"><line x1="673.915" y1="496.7" x2="683.0816666666666" y2="496.7" stroke="#666" stroke-width="0.5"></line><line x1="683.0816666666666" y1="496.7" x2="683.0816666666666" y2="466.54999999999995" stroke="#666" stroke-width="0.5"></line><line x1="683.0816666666666" y1="466.54999999999995" x2="698.915" y2="466.54999999999995" stroke="#666" stroke-width="0.5"></line></g><rect x="668.915" y="459.79999999999995" width="104.93" height="13.5" fill="#fff" opacity="0"></rect><text font-size="13.50" x="703.9" y="470.6" fill="#a652ba"><tspan x="703.915" y="470.59999999999997">4.5% World</tspan></text></g><g class="legendMark"><g class="indicator"><line x1="673.915" y1="494.1" x2="679.7483333333333" y2="494.1" stroke="#666" stroke-width="0.5"></line><line x1="679.7483333333333" y1="494.1" x2="679.7483333333333" y2="451.04999999999995" stroke="#666" stroke-width="0.5"></line><line x1="679.7483333333333" y1="451.04999999999995" x2="698.915" y2="451.04999999999995" stroke="#666" stroke-width="0.5"></line></g><rect x="668.915" y="444.29999999999995" width="99.125" height="13.5" fill="#fff" opacity="0"></rect><text font-size="13.50" x="703.9" y="455.1" fill="#2a939b"><tspan x="703.915" y="455.09999999999997">4.8% India</tspan></text></g></g><g class="Lines"><rect x="53" y="75" width="616" height="461" fill="rgba(255,255,255,0)" opacity="0"></rect><g class="key-Sweden_0"><path stroke="#3360a9" stroke-linecap="round" d="M53 209L55 253L58 293L61 299L64 302L67 307L70 250L73 297L76 236L78 222L81 239L84 257L87 268L90 275L93 279L96 300L98 301L101 299L104 304L107 284L110 312L113 274L116 325L119 349L121 343L124 340L127 328L130 341L133 293L136 275L139 317L141 299L144 316L147 326L150 319L153 364L156 342L159 296L162 318L164 320L167 346L170 346L173 328L176 336L179 341L182 351L184 321L187 304L190 353L193 341L196 348L199 336L202 321L205 315L207 347L210 341L213 325L216 270L219 323L222 336L225 367L227 349L230 308L233 332L236 333L239 336L242 345L245 355L248 321L250 303L253 346L256 378L259 375L262 366L265 338L268 336L270 332L273 340L276 341L279 366L282 360L285 368L288 358L291 366L293 370L296 368L299 378L302 387L305 398L308 396L311 383L313 382L316 389L319 392L322 397L325 409L328 401L331 408L334 415L336 388L339 402L342 401L345 419L348 416L351 426L354 422L356 434L359 439L362 431L365 447L368 443L371 446L374 446L377 451L379 448L382 444L385 447L388 455L391 443L394 444L397 450L399 461L402 465L405 471L408 464L411 471L414 472L417 466L420 466L422 471L425 474L428 472L431 478L434 481L437 482L440 483L442 484L445 483L448 487L451 491L454 493L457 493L460 501L463 501L465 498L468 501L471 506L474 508L477 510L480 510L483 514L485 514L488 515L491 515L494 516L497 517L500 517L503 518L506 518L508 518L511 519L514 519L517 520L520 520L523 521L526 521L528 522L531 522L534 523L537 524L540 524L543 524L546 525L549 525L551 526L554 526L557 527L560 527L563 528L566 528L569 528L571 528L574 528L577 529L580 529L583 529L586 529L589 529L592 529L594 529L597 530L600 530L603 530L606 530L609 531L612 531L614 531L617 531L620 532L623 532L626 532L629 532L632 532L635 532L637 532L640 532L643 532L646 532L649 533L652 533L655 533L657 533L660 533L663 533L666 533L669 533" fill="none" stroke-width="1.5"></path></g><g class="key-United-States_0"><path stroke="#34983f" stroke-linecap="round" d="M53 138L55 139L58 139L61 139L64 139L67 139L70 139L73 140L76 140L78 140L81 140L84 141L87 141L90 141L93 142L96 142L98 143L101 143L104 144L107 144L110 145L113 145L116 146L119 147L121 148L124 149L127 150L130 150L133 151L136 152L139 153L141 155L144 156L147 158L150 160L153 161L156 163L159 165L162 166L164 168L167 170L170 173L173 176L176 179L179 181L182 184L184 187L187 190L190 193L193 196L196 199L199 204L202 209L205 214L207 220L210 225L213 230L216 235L219 241L222 246L225 251L227 253L230 254L233 256L236 258L239 259L242 261L245 262L248 264L250 266L253 267L256 263L259 260L262 256L265 252L268 249L270 245L273 241L276 237L279 234L282 230L285 238L288 246L291 255L293 263L296 271L299 279L302 288L305 296L308 300L311 306L313 309L316 312L319 315L322 318L325 322L328 324L331 327L334 331L336 334L339 337L342 340L345 350L348 351L351 343L354 349L356 348L359 349L362 362L365 369L368 362L371 375L374 380L377 376L379 385L382 389L385 383L388 382L391 332L394 392L397 394L399 412L402 412L405 409L408 418L411 426L414 434L417 441L420 448L422 454L425 460L428 465L431 470L434 474L437 469L440 473L442 472L445 474L448 478L451 483L454 484L457 486L460 490L463 491L465 494L468 496L471 497L474 500L477 502L480 502L483 504L485 504L488 505L491 506L494 506L497 507L500 508L503 508L506 509L508 509L511 509L514 510L517 510L520 511L523 511L526 512L528 512L531 513L534 514L537 514L540 515L543 516L546 517L549 518L551 519L554 519L557 520L560 521L563 521L566 522L569 523L571 523L574 523L577 524L580 524L583 524L586 525L589 525L592 525L594 525L597 526L600 526L603 526L606 527L609 527L612 527L614 527L617 528L620 528L623 528L626 528L629 528L632 528L635 528L637 528L640 528L643 528L646 529L649 529L652 529L655 529L657 529L660 529L663 529L666 530L669 530" fill="none" stroke-width="1.5"></path></g><g class="key-United-Kingdom_0"><path stroke="#ca2628" stroke-linecap="round" d="M53 253L55 255L58 257L61 259L64 260L67 261L70 263L73 264L76 264L78 265L81 266L84 268L87 269L90 271L93 270L96 269L98 268L101 267L104 266L107 266L110 265L113 264L116 264L119 264L121 265L124 267L127 268L130 270L133 272L136 271L139 270L141 269L144 275L147 280L150 286L153 291L156 296L159 301L162 306L164 311L167 315L170 320L173 311L176 314L179 313L182 322L184 294L187 294L190 296L193 295L196 323L199 310L202 306L205 309L207 294L210 312L213 323L216 310L219 295L222 300L225 326L227 314L230 318L233 296L236 302L239 306L242 305L245 322L248 310L250 310L253 305L256 314L259 326L262 333L265 319L268 319L270 331L273 342L276 320L279 340L282 320L285 355L288 336L291 345L293 335L296 348L299 338L302 341L305 353L308 340L311 336L313 336L316 340L319 333L322 358L325 332L328 342L331 341L334 337L336 336L339 342L342 350L345 364L348 371L351 356L354 376L356 372L359 384L362 385L365 396L368 402L371 373L374 410L377 400L379 402L382 393L385 421L388 418L391 389L394 420L397 421L399 438L402 433L405 448L408 438L411 439L414 447L417 447L420 451L422 438L425 459L428 454L431 456L434 460L437 461L440 466L442 464L445 467L448 473L451 479L454 469L457 466L460 477L463 480L465 485L468 488L471 490L474 490L477 501L480 503L483 504L485 505L488 507L491 508L494 509L497 510L500 511L503 511L506 512L508 512L511 513L514 513L517 514L520 514L523 515L526 515L528 516L531 516L534 517L537 517L540 517L543 518L546 518L549 519L551 519L554 520L557 521L560 521L563 522L566 523L569 523L571 524L574 524L577 525L580 525L583 526L586 526L589 526L592 527L594 527L597 527L600 528L603 528L606 529L609 529L612 529L614 529L617 529L620 530L623 530L626 530L629 530L632 530L635 530L637 530L640 530L643 530L646 530L649 531L652 531L655 531L657 531L660 531L663 531L666 531L669 531" fill="none" stroke-width="1.5"></path></g><g class="key-World_0"><path stroke="#a652ba" stroke-linecap="round" d="M483 342L485 345L488 349L491 354L494 357L497 361L500 363L503 366L506 368L508 370L511 372L514 375L517 377L520 381L523 384L526 389L528 393L531 398L534 402L537 406L540 409L543 412L546 415L549 418L551 420L554 423L557 425L560 428L563 430L566 433L569 435L571 438L574 441L577 443L580 446L583 448L586 450L589 452L592 453L594 454L597 455L600 456L603 457L606 458L609 459L612 461L614 462L617 464L620 466L623 468L626 470L629 472L632 474L635 476L637 479L640 481L643 483L646 485L649 487L652 489L655 490L657 492L660 493L663 495L666 496L669 497" fill="none" stroke-width="1.5"></path></g><g class="key-India_0"><path stroke="#2a939b" stroke-linecap="round" d="M53 99L55 99L58 99L61 99L64 99L67 99L70 99L73 99L76 99L78 99L81 99L84 99L87 99L90 99L93 99L96 99L98 99L101 99L104 99L107 99L110 99L113 99L116 99L119 99L121 99L124 99L127 99L130 99L133 99L136 99L139 99L141 99L144 99L147 99L150 99L153 99L156 99L159 99L162 99L164 99L167 99L170 99L173 99L176 99L179 99L182 99L184 99L187 99L190 99L193 99L196 99L199 99L202 99L205 99L207 99L210 99L213 99L216 99L219 99L222 99L225 99L227 99L230 99L233 99L236 99L239 99L242 99L245 99L248 99L250 99L253 99L256 99L259 99L262 99L265 99L268 99L270 99L273 99L276 99L279 99L282 99L285 99L288 97L291 96L293 95L296 93L299 92L302 89L305 88L308 87L311 85L313 84L316 83L319 81L322 80L325 80L328 79L331 78L334 76L336 75L339 76L342 75L345 96L348 117L351 136L354 155L356 172L359 189L362 205L365 221L368 235L371 249L374 245L377 263L379 240L382 254L385 254L388 249L391 163L394 223L397 263L399 259L402 291L405 290L408 272L411 293L414 271L417 302L420 294L422 287L425 283L428 285L431 299L434 297L437 274L440 306L442 309L445 309L448 302L451 318L454 312L457 315L460 307L463 305L465 299L468 325L471 321L474 318L477 314L480 310L483 288L485 290L488 294L491 299L494 303L497 307L500 311L503 315L506 318L508 322L511 325L514 328L517 331L520 334L523 337L526 340L528 343L531 345L534 348L537 351L540 354L543 357L546 361L549 364L551 368L554 372L557 376L560 380L563 385L566 389L569 394L571 398L574 402L577 406L580 409L583 413L586 416L589 419L592 423L594 426L597 429L600 432L603 435L606 438L609 441L612 444L614 447L617 450L620 453L623 456L626 459L629 461L632 464L635 467L637 470L640 473L643 476L646 478L649 481L652 483L655 485L657 487L660 489L663 491L666 493L669 494" fill="none" stroke-width="1.5"></path></g><g class="key-Brazil_0"><path stroke="#f6a324" stroke-linecap="round" d="M53 177L55 177L58 177L61 177L64 177L67 177L70 177L73 177L76 177L78 177L81 177L84 177L87 177L90 177L93 177L96 177L98 177L101 177L104 177L107 177L110 177L113 177L116 177L119 177L121 177L124 177L127 177L130 177L133 177L136 177L139 177L141 177L144 177L147 177L150 177L153 177L156 177L159 177L162 177L164 177L167 177L170 177L173 177L176 177L179 177L182 177L184 177L187 177L190 177L193 177L196 177L199 177L202 177L205 177L207 177L210 177L213 177L216 177L219 177L222 177L225 177L227 177L230 177L233 177L236 177L239 177L242 177L245 177L248 177L250 177L253 177L256 177L259 177L262 177L265 177L268 177L270 177L273 177L276 177L279 177L282 177L285 177L288 177L291 177L293 177L296 177L299 177L302 177L305 177L308 177L311 177L313 177L316 177L319 177L322 177L325 177L328 177L331 178L334 178L336 178L339 178L342 178L345 179L348 179L351 180L354 180L356 181L359 181L362 182L365 183L368 184L371 185L374 185L377 186L379 187L382 188L385 189L388 190L391 191L394 192L397 193L399 194L402 195L405 196L408 197L411 198L414 199L417 200L420 201L422 202L425 203L428 209L431 214L434 220L437 226L440 231L442 237L445 241L448 247L451 252L454 257L457 268L460 279L463 289L465 300L468 309L471 316L474 322L477 328L480 334L483 367L485 368L488 371L491 374L494 377L497 380L500 383L503 386L506 389L508 392L511 395L514 398L517 401L520 404L523 407L526 409L528 412L531 415L534 418L537 421L540 424L543 427L546 430L549 433L551 436L554 439L557 442L560 445L563 448L566 451L569 455L571 458L574 461L577 465L580 468L583 472L586 475L589 478L592 481L594 484L597 487L600 490L603 492L606 494L609 496L612 497L614 499L617 500L620 501L623 502L626 503L629 504L632 506L635 507L637 509L640 510L643 512L646 513L649 515L652 516L655 517L657 518L660 519L663 520L666 521L669 521" fill="none" stroke-width="1.5"></path></g></g></g></g><g class="SourcesFooter" style="fill:#777"><g class="clickable" style="fill:#777"><text font-size="12.60" x="15.0" y="581.6"><tspan x="15" y="581.58">Source: Gapminder estimates up until 1949 and UN Population Division from 1950 to today</tspan></text></g><text font-size="12.60" x="796.4" y="581.6"><tspan x="796.444" y="581.58"><a style="fill: #777;" class="cclogo" href="http://creativecommons.org/licenses/by/4.0/deed.en_US" target="_blank">CC BY</a></tspan></text></g></svg>