<svg xmlns="http://www.w3.org/2000/svg" version="1.1" style="font-family:&#x27;Helvetica Neue&#x27;, Helvetica, Arial, sans-serif;font-size:18px;background-color:white;text-rendering:optimizeLegibility;-webkit-font-smoothing:antialiased" width="850" height="600"><g class="ChartTab"><g class="HeaderView"><g opacity="0.8" transform="translate(778, 15) scale(0.27)"><a xmlns:xlink="http://www.w3.org/1999/xlink" xlink:href="https://ourworldindata.org" target="_blank"><g><rect x="0" y="0" fill="#1B2543" width="211.2" height="130.1"/><rect x="0" y="112.2" fill="#E63912" width="211.2" height="17.9"/><g><rect x="1.2" y="12.3" fill="none" width="210.2" height="99.2"/><path fill="#FFFFFF" d="M37.8,32.2c0,12.7-7.7,19.4-17.1,19.4c-9.7,0-16.6-7.5-16.6-18.7c0-11.7,7.3-19.3,17.1-19.3 C31.3,13.7,37.8,21.3,37.8,32.2z M9.2,32.8c0,7.9,4.3,14.9,11.8,14.9c7.5,0,11.8-6.9,11.8-15.3c0-7.3-3.8-14.9-11.8-14.9 C13.1,17.5,9.2,24.8,9.2,32.8z"/><path fill="#FFFFFF" d="M62.7,43.8c0,2.7,0.1,5.1,0.2,7.2h-4.3l-0.3-4.3h-0.1c-1.3,2.1-4,4.9-8.8,4.9c-4.2,0-9.1-2.3-9.1-11.6 V24.6h4.8v14.6c0,5,1.5,8.4,5.9,8.4c3.2,0,5.5-2.2,6.3-4.4c0.3-0.7,0.4-1.6,0.4-2.5V24.6h4.8V43.8z"/><path fill="#FFFFFF" d="M67.3,32.8c0-3.1-0.1-5.8-0.2-8.2h4.2l0.2,5.2h0.2c1.2-3.5,4.1-5.8,7.3-5.8c0.5,0,0.9,0.1,1.4,0.2v4.5 c-0.5-0.1-1-0.2-1.6-0.2c-3.4,0-5.8,2.6-6.5,6.2c-0.1,0.7-0.2,1.4-0.2,2.2V51h-4.8V32.8z"/><path fill="#FFFFFF" d="M95.4,51l-9.4-36.8h5l4.4,18.6c1.1,4.6,2.1,9.2,2.7,12.7h0.1c0.6-3.7,1.8-8,3-12.8l4.9-18.5h5l4.5,18.7 c1,4.4,2,8.7,2.6,12.6h0.1c0.8-4,1.8-8.1,3-12.7l4.9-18.5h4.9L120.6,51h-5L111,31.9c-1.1-4.7-1.9-8.3-2.4-12h-0.1 c-0.7,3.7-1.5,7.3-2.8,12L100.4,51H95.4z"/><path fill="#FFFFFF" d="M154.9,37.6c0,9.8-6.8,14-13.2,14c-7.2,0-12.7-5.2-12.7-13.6c0-8.8,5.8-14,13.1-14 C149.8,24,154.9,29.5,154.9,37.6z M133.9,37.9c0,5.8,3.3,10.1,8,10.1c4.6,0,8-4.3,8-10.3c0-4.5-2.2-10.1-7.9-10.1 C136.3,27.6,133.9,32.8,133.9,37.9z"/><path fill="#FFFFFF" d="M158.2,32.8c0-3.1-0.1-5.8-0.2-8.2h4.2l0.2,5.2h0.2c1.2-3.5,4.1-5.8,7.3-5.8c0.5,0,0.9,0.1,1.4,0.2v4.5 c-0.5-0.1-1-0.2-1.6-0.2c-3.4,0-5.8,2.6-6.5,6.2c-0.1,0.7-0.2,1.4-0.2,2.2V51h-4.8V32.8z"/><path fill="#FFFFFF" d="M173.5,12.3h4.8V51h-4.8V12.3z"/><path fill="#FFFFFF" d="M206.5,12.3v31.9c0,2.3,0.1,5,0.2,6.8h-4.3l-0.2-4.6H202c-1.5,2.9-4.7,5.2-9,5.2 c-6.4,0-11.3-5.4-11.3-13.4c-0.1-8.8,5.4-14.2,11.9-14.2c4,0,6.8,1.9,8,4h0.1V12.3H206.5z M201.7,35.4c0-0.6-0.1-1.4-0.2-2 c-0.7-3.1-3.3-5.6-6.9-5.6c-5,0-7.9,4.4-7.9,10.2c0,5.3,2.6,9.8,7.8,9.8c3.2,0,6.2-2.1,7.1-5.7c0.2-0.7,0.2-1.3,0.2-2.1V35.4z"/><path fill="#FFFFFF" d="M42.8,64c0.1,1.6-1.1,2.9-3.1,2.9c-1.7,0-2.9-1.3-2.9-2.9c0-1.7,1.3-3,3-3C41.7,61,42.8,62.3,42.8,64z M37.4,97.8V71.4h4.8v26.4H37.4z"/><path fill="#FFFFFF" d="M47.5,78.6c0-2.7-0.1-5-0.2-7.1h4.3l0.3,4.4h0.1c1.3-2.5,4.4-5,8.8-5c3.7,0,9.4,2.2,9.4,11.2v15.8h-4.8 V82.6c0-4.3-1.6-7.8-6.1-7.8c-3.2,0-5.6,2.2-6.5,4.9c-0.2,0.6-0.3,1.4-0.3,2.2v15.9h-4.8V78.6z"/><path fill="#FFFFFF" d="M84,61.6c2.9-0.4,6.3-0.8,10.1-0.8c6.8,0,11.7,1.6,14.9,4.6c3.3,3,5.2,7.3,5.2,13.2c0,6-1.9,10.9-5.3,14.3 c-3.4,3.4-9.1,5.3-16.3,5.3c-3.4,0-6.2-0.2-8.6-0.4V61.6z M88.8,94.1c1.2,0.2,3,0.3,4.8,0.3c10.2,0,15.7-5.7,15.7-15.6 c0.1-8.7-4.9-14.2-14.9-14.2c-2.5,0-4.3,0.2-5.6,0.5V94.1z"/><path fill="#FFFFFF" d="M132.1,97.8l-0.4-3.3h-0.2c-1.5,2.1-4.3,3.9-8.1,3.9c-5.4,0-8.1-3.8-8.1-7.6c0-6.4,5.7-9.9,15.9-9.8v-0.5 c0-2.2-0.6-6.1-6-6.1c-2.5,0-5,0.8-6.9,2l-1.1-3.2c2.2-1.4,5.4-2.3,8.7-2.3c8.1,0,10.1,5.5,10.1,10.8v9.9c0,2.3,0.1,4.5,0.4,6.3 H132.1z M131.4,84.4c-5.3-0.1-11.2,0.8-11.2,5.9c0,3.1,2.1,4.6,4.5,4.6c3.4,0,5.6-2.2,6.4-4.4c0.2-0.5,0.3-1,0.3-1.5V84.4z"/><path fill="#FFFFFF" d="M146.6,63.9v7.6h6.9v3.7h-6.9v14.2c0,3.3,0.9,5.1,3.6,5.1c1.3,0,2.2-0.2,2.8-0.3l0.2,3.6 c-0.9,0.4-2.4,0.7-4.3,0.7c-2.2,0-4-0.7-5.2-2c-1.4-1.4-1.9-3.8-1.9-6.9V75.1h-4.1v-3.7h4.1v-6.3L146.6,63.9z"/><path fill="#FFFFFF" d="M171.4,97.8l-0.4-3.3h-0.2c-1.5,2.1-4.3,3.9-8.1,3.9c-5.4,0-8.1-3.8-8.1-7.6c0-6.4,5.7-9.9,15.9-9.8v-0.5 c0-2.2-0.6-6.1-6-6.1c-2.5,0-5,0.8-6.9,2l-1.1-3.2c2.2-1.4,5.4-2.3,8.7-2.3c8.1,0,10.1,5.5,10.1,10.8v9.9c0,2.3,0.1,4.5,0.4,6.3 H171.4z M170.7,84.4c-5.3-0.1-11.2,0.8-11.2,5.9c0,3.1,2.1,4.6,4.5,4.6c3.4,0,5.6-2.2,6.4-4.4c0.2-0.5,0.3-1,0.3-1.5V84.4z"/></g></g></a></g><a href="https://ourworldindata.org/grapher/children-in-employment-ages-7-14-vs-weekly-hours-worked-by-children-ages-7-14" target="_blank"><text font-size="21.60" x="15.0" y="32.3" fill="#555"><tspan x="15" y="32.279999999999994">Children in employment (ages 7-14) vs Weekly hours worked by children</tspan><tspan x="15" y="53.87999999999999">(ages 7-14), 2015</tspan></text></a><text font-size="14.40" x="15.0" y="72.7" fill="#666"><tspan x="15" y="72.72">The horizontal axis shows the share of children ages 7-14 who are involved in an economic activity for at least one hour in the</tspan><tspan x="15" y="88.56">reference week of the corresponding survey (irrespective of school attendance). The vertical axis shows the average weekly</tspan><tspan x="15" y="104.4">working hours among these economically active children.</tspan></text></g><g><g class="AxisBoxView"><g class="HorizontalAxis"><text font-size="12.60" x="210.8" y="554.0"><tspan x="210.776" y="553.98">Children in employment, total (% of children ages 7-14)</tspan></text><text x="202.9" y="533.9" fill="#666" text-anchor="middle" font-size="16.2">10%</text><text x="297.9" y="533.9" fill="#666" text-anchor="middle" font-size="16.2">20%</text><text x="392.9" y="533.9" fill="#666" text-anchor="middle" font-size="16.2">30%</text><text x="487.9" y="533.9" fill="#666" text-anchor="middle" font-size="16.2">40%</text><text x="582.8" y="533.9" fill="#666" text-anchor="middle" font-size="16.2">50%</text><text x="677.8" y="533.9" fill="#666" text-anchor="middle" font-size="16.2">60%</text></g><g class="VerticalAxis"><text font-size="12.60" x="-534.5" y="25.1" transform="rotate(-90)"><tspan x="-534.519" y="25.080000000000002">Average working hours of children, study and work, ages 7-14 (hours</tspan><tspan x="-534.519" y="38.940000000000005">per week)</tspan></text><text x="114.64" y="512.7" fill="#666" dominant-baseline="middle" text-anchor="end" font-size="16.2">0 hours</text><text x="114.64" y="456.6" fill="#666" dominant-baseline="middle" text-anchor="end" font-size="16.2">5 hours</text><text x="114.64" y="400.5" fill="#666" dominant-baseline="middle" text-anchor="end" font-size="16.2">10 hours</text><text x="114.64" y="344.3" fill="#666" dominant-baseline="middle" text-anchor="end" font-size="16.2">15 hours</text><text x="114.64" y="288.2" fill="#666" dominant-baseline="middle" text-anchor="end" font-size="16.2">20 hours</text><text x="114.64" y="232.1" fill="#666" dominant-baseline="middle" text-anchor="end" font-size="16.2">25 hours</text><text x="114.64" y="176" fill="#666" dominant-baseline="middle" text-anchor="end" font-size="16.2">30 hours</text></g><g class="AxisGridLines"><line x1="119.64" y1="512.7" x2="715.00" y2="512.7" stroke="#ccc"></line><line x1="119.64" y1="456.6" x2="715.00" y2="456.6" stroke="#ddd" stroke-dasharray="3,2"></line><line x1="119.64" y1="400.5" x2="715.00" y2="400.5" stroke="#ddd" stroke-dasharray="3,2"></line><line x1="119.64" y1="344.3" x2="715.00" y2="344.3" stroke="#ddd" stroke-dasharray="3,2"></line><line x1="119.64" y1="288.2" x2="715.00" y2="288.2" stroke="#ddd" stroke-dasharray="3,2"></line><line x1="119.64" y1="232.1" x2="715.00" y2="232.1" stroke="#ddd" stroke-dasharray="3,2"></line><line x1="119.64" y1="176" x2="715.00" y2="176" stroke="#ddd" stroke-dasharray="3,2"></line></g><g class="AxisGridLines"><line x1="202.9" y1="512.70" x2="202.9" y2="126.60" stroke="#ddd" stroke-dasharray="3,2"></line><line x1="297.9" y1="512.70" x2="297.9" y2="126.60" stroke="#ddd" stroke-dasharray="3,2"></line><line x1="392.9" y1="512.70" x2="392.9" y2="126.60" stroke="#ddd" stroke-dasharray="3,2"></line><line x1="487.9" y1="512.70" x2="487.9" y2="126.60" stroke="#ddd" stroke-dasharray="3,2"></line><line x1="582.8" y1="512.70" x2="582.8" y2="126.60" stroke="#ddd" stroke-dasharray="3,2"></line><line x1="677.8" y1="512.70" x2="677.8" y2="126.60" stroke="#ddd" stroke-dasharray="3,2"></line></g></g><g class="PointsWithLabels clickable" clip-path="url(#scatterBounds-230)" font-family="Arial Narrow, Arial, sans-serif"><rect x="119.642" y="126.6" width="595.358" height="386.09999999999997" fill="rgba(255,255,255,0)"></rect><defs><clipPath id="scatterBounds-230"><rect x="109.642" y="116.6" width="615.358" height="406.09999999999997"></rect></clipPath></defs><g class="key-Indonesia_0"><circle cx="143.00" cy="351.00" r="17.84" fill="#d14e5b" opacity="0.8" stroke="#333" stroke-width="0.7"></circle></g><g class="key-Brazil_0"><circle cx="132.00" cy="346.00" r="16.06" fill="#69c487" opacity="0.8" stroke="#fff" stroke-width="0.7"></circle></g><g class="key-Pakistan_0"><circle cx="231.00" cy="233.00" r="15.37" fill="#d14e5b" opacity="0.8" stroke="#333" stroke-width="0.7"></circle></g><g class="key-Nigeria_0"><circle cx="441.00" cy="433.00" r="14.85" fill="#5675c1" opacity="0.8" stroke="#333" stroke-width="0.7"></circle></g><g class="key-Bangladesh_0"><circle cx="155.00" cy="153.00" r="14.12" fill="#d14e5b" opacity="0.8" stroke="#333" stroke-width="0.7"></circle></g><g class="key-Mexico_0"><circle cx="161.00" cy="359.00" r="12.34" fill="#4d824b" opacity="0.8" stroke="#333" stroke-width="0.7"></circle></g><g class="key-Philippines_0"><circle cx="193.00" cy="433.00" r="11.29" fill="#d14e5b" opacity="0.8" stroke="#333" stroke-width="0.7"></circle></g><g class="key-Vietnam_0"><circle cx="211.00" cy="382.00" r="10.86" fill="#d14e5b" opacity="0.8" stroke="#333" stroke-width="0.7"></circle></g><g class="key-Ethiopia_0"><circle cx="355.00" cy="301.00" r="10.72" fill="#5675c1" opacity="0.8" stroke="#333" stroke-width="0.7"></circle></g><g class="key-Democratic-Republic-of-Congo_0"><circle cx="501.00" cy="433.00" r="9.66" fill="#5675c1" opacity="0.8" stroke="#333" stroke-width="0.7"></circle></g><g class="key-Tanzania_0"><circle cx="437.00" cy="353.00" r="8.04" fill="#5675c1" opacity="0.8" stroke="#333" stroke-width="0.7"></circle></g><g class="key-Colombia_0"><circle cx="160.00" cy="354.00" r="7.97" fill="#69c487" opacity="0.8" stroke="#fff" stroke-width="0.7"></circle></g><g class="key-Ukraine_0"><circle cx="155.00" cy="479.00" r="7.68" fill="#ffd336" opacity="0.8" stroke="#333" stroke-width="0.7"></circle></g><g class="key-Algeria_0"><circle cx="179.00" cy="472.00" r="7.01" fill="#5675c1" opacity="0.8" stroke="#fff" stroke-width="0.7"></circle></g><g class="key-Uganda_0"><circle cx="456.00" cy="393.00" r="6.99" fill="#5675c1" opacity="0.8" stroke="#333" stroke-width="0.7"></circle></g><g class="key-Sudan_0"><circle cx="398.00" cy="412.00" r="6.91" fill="#5675c1" opacity="0.8" stroke="#333" stroke-width="0.7"></circle></g><g class="key-Iraq_0"><circle cx="168.00" cy="397.00" r="6.80" fill="#d14e5b" opacity="0.8" stroke="#333" stroke-width="0.7"></circle></g><g class="key-Afghanistan_0"><circle cx="196.00" cy="365.00" r="6.78" fill="#d14e5b" opacity="0.8" stroke="#333" stroke-width="0.7"></circle></g><g class="key-Nepal_0"><circle cx="514.00" cy="413.00" r="6.49" fill="#d14e5b" opacity="0.8" stroke="#333" stroke-width="0.7"></circle></g><g class="key-Venezuela_0"><circle cx="145.00" cy="329.00" r="6.37" fill="#69c487" opacity="0.8" stroke="#fff" stroke-width="0.7"></circle></g><g class="key-Peru_0"><circle cx="322.00" cy="389.00" r="6.35" fill="#69c487" opacity="0.8" stroke="#333" stroke-width="0.7"></circle></g><g class="key-Cote-d__0027Ivoire_0"><circle cx="454.00" cy="400.00" r="5.36" fill="#5675c1" opacity="0.8" stroke="#fff" stroke-width="0.7"></circle></g><g class="key-Cameroon_0"><circle cx="696.00" cy="384.00" r="5.34" fill="#5675c1" opacity="0.8" stroke="#333" stroke-width="0.7"></circle></g><g class="key-Burkina-Faso_0"><circle cx="585.00" cy="315.00" r="4.98" fill="#5675c1" opacity="0.8" stroke="#333" stroke-width="0.7"></circle></g><g class="key-Chile_0"><circle cx="150.00" cy="424.00" r="4.93" fill="#69c487" opacity="0.8" stroke="#333" stroke-width="0.7"></circle></g><g class="key-Niger_0"><circle cx="568.00" cy="431.00" r="4.88" fill="#5675c1" opacity="0.8" stroke="#fff" stroke-width="0.7"></circle></g><g class="key-Mali_0"><circle cx="390.00" cy="329.00" r="4.83" fill="#5675c1" opacity="0.8" stroke="#333" stroke-width="0.7"></circle></g><g class="key-Malawi_0"><circle cx="572.00" cy="392.00" r="4.77" fill="#5675c1" opacity="0.8" stroke="#333" stroke-width="0.7"></circle></g><g class="key-Guatemala_0"><circle cx="176.00" cy="304.00" r="4.65" fill="#4d824b" opacity="0.8" stroke="#333" stroke-width="0.7"></circle></g><g class="key-Ecuador_0"><circle cx="160.00" cy="391.00" r="4.59" fill="#69c487" opacity="0.8" stroke="#fff" stroke-width="0.7"></circle></g><g class="key-Cambodia_0"><circle cx="217.00" cy="314.00" r="4.53" fill="#d14e5b" opacity="0.8" stroke="#fff" stroke-width="0.7"></circle></g><g class="key-Senegal_0"><circle cx="346.00" cy="298.00" r="4.36" fill="#5675c1" opacity="0.8" stroke="#fff" stroke-width="0.7"></circle></g><g class="key-Chad_0"><circle cx="638.00" cy="413.00" r="4.16" fill="#5675c1" opacity="0.8" stroke="#333" stroke-width="0.7"></circle></g><g class="key-Rwanda_0"><circle cx="164.00" cy="380.00" r="4.08" fill="#5675c1" opacity="0.8" stroke="#333" stroke-width="0.7"></circle></g><g class="key-Tunisia_0"><circle cx="140.00" cy="473.00" r="3.95" fill="#5675c1" opacity="0.8" stroke="#fff" stroke-width="0.7"></circle></g><g class="key-Guinea_0"><circle cx="469.00" cy="337.00" r="3.94" fill="#5675c1" opacity="0.8" stroke="#333" stroke-width="0.7"></circle></g><g class="key-Bolivia_0"><circle cx="240.00" cy="249.00" r="3.89" fill="#69c487" opacity="0.8" stroke="#333" stroke-width="0.7"></circle></g><g class="key-Haiti_0"><circle cx="467.00" cy="446.00" r="3.88" fill="#4d824b" opacity="0.8" stroke="#333" stroke-width="0.7"></circle></g><g class="key-Dominican-Republic_0"><circle cx="233.00" cy="427.00" r="3.87" fill="#4d824b" opacity="0.8" stroke="#fff" stroke-width="0.7"></circle></g><g class="key-Serbia_0"><circle cx="278.00" cy="467.00" r="3.79" fill="#ffd336" opacity="0.8" stroke="#333" stroke-width="0.7"></circle></g><g class="key-Benin_0"><circle cx="336.00" cy="393.00" r="3.75" fill="#5675c1" opacity="0.8" stroke="#fff" stroke-width="0.7"></circle></g><g class="key-Belarus_0"><circle cx="129.00" cy="486.00" r="3.73" fill="#ffd336" opacity="0.8" stroke="#fff" stroke-width="0.7"></circle></g><g class="key-Burundi_0"><circle cx="410.00" cy="376.00" r="3.63" fill="#5675c1" opacity="0.8" stroke="#333" stroke-width="0.7"></circle></g><g class="key-Honduras_0"><circle cx="207.00" cy="352.00" r="3.48" fill="#4d824b" opacity="0.8" stroke="#fff" stroke-width="0.7"></circle></g><g class="key-Paraguay_0"><circle cx="206.00" cy="183.00" r="3.24" fill="#69c487" opacity="0.8" stroke="#333" stroke-width="0.7"></circle></g><g class="key-Jordan_0"><circle cx="119.00" cy="338.00" r="3.19" fill="#d14e5b" opacity="0.8" stroke="#fff" stroke-width="0.7"></circle></g><g class="key-Laos_0"><circle cx="189.00" cy="126.00" r="3.17" fill="#d14e5b" opacity="0.8" stroke="#fff" stroke-width="0.7"></circle></g><g class="key-Togo_0"><circle cx="442.00" cy="421.00" r="3.16" fill="#5675c1" opacity="0.8" stroke="#fff" stroke-width="0.7"></circle></g><g class="key-El-Salvador_0"><circle cx="182.00" cy="288.00" r="3.14" fill="#4d824b" opacity="0.8" stroke="#333" stroke-width="0.7"></circle></g><g class="key-Sierra-Leone_0"><circle cx="670.00" cy="418.00" r="3.13" fill="#5675c1" opacity="0.8" stroke="#fff" stroke-width="0.7"></circle></g><g class="key-Nicaragua_0"><circle cx="561.00" cy="354.00" r="3.08" fill="#4d824b" opacity="0.8" stroke="#333" stroke-width="0.7"></circle></g><g class="key-Kyrgyzstan_0"><circle cx="498.00" cy="368.00" r="2.97" fill="#d14e5b" opacity="0.8" stroke="#333" stroke-width="0.7"></circle></g><g class="key-Costa-Rica_0"><circle cx="120.00" cy="398.00" r="2.83" fill="#4d824b" opacity="0.8" stroke="#fff" stroke-width="0.7"></circle></g><g class="key-Central-African-Republic_0"><circle cx="461.00" cy="336.00" r="2.78" fill="#5675c1" opacity="0.8" stroke="#fff" stroke-width="0.7"></circle></g><g class="key-Liberia_0"><circle cx="282.00" cy="261.00" r="2.71" fill="#5675c1" opacity="0.8" stroke="#333" stroke-width="0.7"></circle></g><g class="key-Congo_0"><circle cx="407.00" cy="430.00" r="2.70" fill="#5675c1" opacity="0.8" stroke="#333" stroke-width="0.7"></circle></g><g class="key-Mauritania_0"><circle cx="245.00" cy="301.00" r="2.55" fill="#5675c1" opacity="0.8" stroke="#333" stroke-width="0.7"></circle></g><g class="key-Panama_0"><circle cx="161.00" cy="414.00" r="2.55" fill="#4d824b" opacity="0.8" stroke="#fff" stroke-width="0.7"></circle></g><g class="key-Albania_0"><circle cx="160.00" cy="360.00" r="2.43" fill="#ffd336" opacity="0.8" stroke="#fff" stroke-width="0.7"></circle></g><g class="key-Armenia_0"><circle cx="202.00" cy="452.00" r="2.40" fill="#d14e5b" opacity="0.8" stroke="#333" stroke-width="0.7"></circle></g><g class="key-Mongolia_0"><circle cx="247.00" cy="359.00" r="2.34" fill="#d14e5b" opacity="0.8" stroke="#fff" stroke-width="0.7"></circle></g><g class="key-Jamaica_0"><circle cx="166.00" cy="491.00" r="2.31" fill="#4d824b" opacity="0.8" stroke="#333" stroke-width="0.7"></circle></g><g class="key-Macedonia_0"><circle cx="296.00" cy="486.00" r="2.10" fill="#ffd336" opacity="0.8" stroke="#333" stroke-width="0.7"></circle></g><g class="key-Gambia_0"><circle cx="333.00" cy="397.00" r="2.04" fill="#5675c1" opacity="0.8" stroke="#333" stroke-width="0.7"></circle></g><g class="key-Guinea__002dBissau_0"><circle cx="715.00" cy="447.00" r="1.96" fill="#5675c1" opacity="0.8" stroke="#333" stroke-width="0.7"></circle></g><g class="key-Gabon_0"><circle cx="335.00" cy="428.00" r="1.95" fill="#5675c1" opacity="0.8" stroke="#333" stroke-width="0.7"></circle></g><g class="key-Swaziland_0"><circle cx="234.00" cy="466.00" r="1.83" fill="#5675c1" opacity="0.8" stroke="#fff" stroke-width="0.7"></circle></g><g class="key-Yemen_0"><circle cx="260.00" cy="323.00" r="1.33" fill="#d14e5b" opacity="0.8" stroke="#333" stroke-width="0.7"></circle></g><g class="backgroundLabels" fill="#333"><text x="143.00" y="332.16" font-size="14.30">Indonesia</text><text x="231.00" y="216.63" font-size="13.44">Pakistan</text><text x="441.00" y="417.15" font-size="13.28">Nigeria</text><text x="155.00" y="139.66" font-size="13.06">Bangladesh</text><text x="161.00" y="345.66" font-size="12.56">Mexico</text><text x="193.00" y="420.71" font-size="12.30">Philippines</text><text x="211.00" y="370.14" font-size="12.20">Vietnam</text><text x="355.00" y="289.28" font-size="12.17">Ethiopia</text><text x="501.00" y="422.34" font-size="11.94">Democratic Republic of Congo</text><text x="437.00" y="343.96" font-size="11.64">Tanzania</text><text x="155.00" y="470.32" font-size="11.58">Ukraine</text><text x="456.00" y="385.01" font-size="11.48">Uganda</text><text x="398.00" y="404.09" font-size="11.47">Sudan</text><text x="168.00" y="389.20" font-size="11.45">Iraq</text><text x="196.00" y="357.22" font-size="11.45">Afghanistan</text><text x="514.00" y="405.51" font-size="11.41">Nepal</text><text x="322.00" y="381.65" font-size="11.39">Peru</text><text x="643.28" y="377.66" font-size="11.27">Cameroon</text><text x="585.00" y="309.02" font-size="11.23">Burkina Faso</text><text x="150.00" y="418.07" font-size="11.22">Chile</text><text x="390.00" y="323.17" font-size="11.21">Mali</text><text x="572.00" y="386.23" font-size="11.21">Malawi</text><text x="176.00" y="298.35" font-size="11.19">Guatemala</text><text x="638.00" y="407.84" font-size="11.15">Chad</text><text x="164.00" y="374.92" font-size="11.14">Rwanda</text><text x="469.00" y="332.06" font-size="11.13">Guinea</text><text x="240.00" y="244.11" font-size="11.12">Bolivia</text><text x="467.00" y="441.12" font-size="11.12">Haiti</text><text x="278.00" y="462.21" font-size="11.12">Serbia</text><text x="410.00" y="371.37" font-size="11.10">Burundi</text><text x="206.00" y="178.76" font-size="11.08">Paraguay</text><text x="182.00" y="283.86" font-size="11.07">El Salvador</text><text x="561.00" y="349.92" font-size="11.07">Nicaragua</text><text x="498.00" y="364.03" font-size="11.06">Kyrgyzstan</text><text x="282.00" y="257.29" font-size="11.04">Liberia</text><text x="407.00" y="426.30" font-size="11.04">Congo</text><text x="245.00" y="297.45" font-size="11.03">Mauritania</text><text x="202.00" y="448.60" font-size="11.03">Armenia</text><text x="166.00" y="487.69" font-size="11.02">Jamaica</text><text x="296.00" y="482.90" font-size="11.01">Macedonia</text><text x="333.00" y="393.96" font-size="11.01">Gambia</text><text x="642.58" y="444.04" font-size="11.01">Guinea-Bissau</text><text x="335.00" y="425.05" font-size="11.01">Gabon</text><text x="260.00" y="320.67" font-size="10.99">Yemen</text></g></g><g class="ScatterColorLegend clickable" style="cursor:pointer"><g class="legendMark"><rect x="735" y="124.1" width="43.256" height="17.6" fill="#fff" opacity="0"></rect>,<rect x="735" y="129.6" width="6" height="6" fill="#5675c1"></rect>,<text font-size="12.60" x="746.0" y="136.7"><tspan x="746" y="136.67999999999998">Africa</tspan></text></g><g class="legendMark"><rect x="735" y="141.7" width="35.57" height="17.6" fill="#fff" opacity="0"></rect>,<rect x="735" y="147.2" width="6" height="6" fill="#d14e5b"></rect>,<text font-size="12.60" x="746.0" y="154.3"><tspan x="746" y="154.27999999999997">Asia</tspan></text></g><g class="legendMark"><rect x="735" y="159.3" width="51.824" height="17.6" fill="#fff" opacity="0"></rect>,<rect x="735" y="164.8" width="6" height="6" fill="#ffd336"></rect>,<text font-size="12.60" x="746.0" y="171.9"><tspan x="746" y="171.88">Europe</tspan></text></g><g class="legendMark"><rect x="735" y="176.9" width="91.64" height="17.6" fill="#fff" opacity="0"></rect>,<rect x="735" y="182.4" width="6" height="6" fill="#4d824b"></rect>,<text font-size="12.60" x="746.0" y="189.5"><tspan x="746" y="189.48">North America</tspan></text></g><g class="legendMark"><rect x="735" y="194.5" width="93.908" height="17.6" fill="#fff" opacity="0"></rect>,<rect x="735" y="200" width="6" height="6" fill="#69c487"></rect>,<text font-size="12.60" x="746.0" y="207.1"><tspan x="746" y="207.07999999999998">South America</tspan></text></g></g></g><g class="SourcesFooter" style="fill:#777"><g class="clickable" style="fill:#777"><text font-size="12.60" x="15.0" y="581.6"><tspan x="15" y="581.58">Source: World Bank</tspan></text></g><text font-size="12.60" x="583.8" y="581.6"><tspan x="583.756" y="581.58"><a target='_blank' style='fill: #777;' href='https://ourworldindata.org/child-labor/'>OurWorldInData.org/child-labor/</a> • <a style="fill: #777;" class="cclogo" href="http://creativecommons.org/licenses/by-sa/4.0/deed.en_US" target="_blank">CC BY-SA</a></tspan></text></g></g></svg>