<svg xmlns="http://www.w3.org/2000/svg" version="1.1" style="font-family:Lato, &#x27;Helvetica Neue&#x27;, Helvetica, Arial, sans-serif;font-size:18px;background-color:white;text-rendering:optimizeLegibility;-webkit-font-smoothing:antialiased" width="850" height="600"><g class="HeaderView"><g transform="translate(774, 15) scale(0.29)"><svg width="210" height="120" viewBox="0 0 210 120" fill="none" xmlns="http://www.w3.org/2000/svg">
    <g clip-path="url(#clip0)">
        <path d="M0 0H210V107.89H0V0Z" fill="#002147"/>
        <path d="M40.9788 32.248C40.9788 34.6093 40.6048 36.78 39.8568 38.76C39.1088 40.7253 38.0528 42.4193 36.6888 43.842C35.3248 45.2647 33.6821 46.372 31.7608 47.164C29.8541 47.9413 27.7421 48.33 25.4248 48.33C23.1074 48.33 20.9954 47.9413 19.0888 47.164C17.1821 46.372 15.5468 45.2647 14.1828 43.842C12.8188 42.4193 11.7628 40.7253 11.0148 38.76C10.2668 36.78 9.89277 34.6093 9.89277 32.248C9.89277 29.8867 10.2668 27.7233 11.0148 25.758C11.7628 23.778 12.8188 22.0767 14.1828 20.654C15.5468 19.2167 17.1821 18.102 19.0888 17.31C20.9954 16.518 23.1074 16.122 25.4248 16.122C27.7421 16.122 29.8541 16.518 31.7608 17.31C33.6821 18.102 35.3248 19.2167 36.6888 20.654C38.0528 22.0767 39.1088 23.778 39.8568 25.758C40.6048 27.7233 40.9788 29.8867 40.9788 32.248ZM36.6008 32.248C36.6008 30.312 36.3368 28.574 35.8088 27.034C35.2808 25.494 34.5328 24.196 33.5648 23.14C32.5968 22.0693 31.4234 21.248 30.0448 20.676C28.6661 20.104 27.1261 19.818 25.4248 19.818C23.7381 19.818 22.2054 20.104 20.8268 20.676C19.4481 21.248 18.2674 22.0693 17.2848 23.14C16.3168 24.196 15.5688 25.494 15.0408 27.034C14.5128 28.574 14.2488 30.312 14.2488 32.248C14.2488 34.184 14.5128 35.922 15.0408 37.462C15.5688 38.9873 16.3168 40.2853 17.2848 41.356C18.2674 42.412 19.4481 43.226 20.8268 43.798C22.2054 44.3553 23.7381 44.634 25.4248 44.634C27.1261 44.634 28.6661 44.3553 30.0448 43.798C31.4234 43.226 32.5968 42.412 33.5648 41.356C34.5328 40.2853 35.2808 38.9873 35.8088 37.462C36.3368 35.922 36.6008 34.184 36.6008 32.248ZM62.8234 25.714V48H60.4914C59.9341 48 59.5821 47.7287 59.4354 47.186L59.1274 44.788C58.1594 45.8587 57.0741 46.724 55.8714 47.384C54.6687 48.0293 53.2901 48.352 51.7354 48.352C50.5181 48.352 49.4401 48.154 48.5014 47.758C47.5774 47.3473 46.8001 46.7753 46.1694 46.042C45.5387 45.3087 45.0621 44.4213 44.7394 43.38C44.4314 42.3387 44.2774 41.1873 44.2774 39.926V25.714H48.1934V39.926C48.1934 41.6127 48.5747 42.918 49.3374 43.842C50.1147 44.766 51.2954 45.228 52.8794 45.228C54.0381 45.228 55.1161 44.9567 56.1134 44.414C57.1254 43.8567 58.0567 43.094 58.9074 42.126V25.714H62.8234ZM71.4305 30.18C72.1346 28.6547 72.9999 27.4667 74.0266 26.616C75.0532 25.7507 76.3072 25.318 77.7886 25.318C78.2579 25.318 78.7052 25.3693 79.1306 25.472C79.5706 25.5747 79.9592 25.736 80.2966 25.956L80.0106 28.882C79.9226 29.2487 79.7026 29.432 79.3506 29.432C79.1452 29.432 78.8446 29.388 78.4486 29.3C78.0526 29.212 77.6052 29.168 77.1066 29.168C76.4026 29.168 75.7719 29.2707 75.2146 29.476C74.6719 29.6813 74.1806 29.9893 73.7406 30.4C73.3152 30.796 72.9266 31.2947 72.5746 31.896C72.2372 32.4827 71.9292 33.1573 71.6506 33.92V48H67.7125V25.714H69.9566C70.3819 25.714 70.6752 25.7947 70.8366 25.956C70.9979 26.1173 71.1079 26.396 71.1666 26.792L71.4305 30.18ZM132.589 16.474L122.755 48H118.927L110.941 23.954C110.867 23.7193 110.794 23.47 110.721 23.206C110.662 22.942 110.596 22.6633 110.523 22.37C110.449 22.6633 110.376 22.942 110.303 23.206C110.23 23.47 110.156 23.7193 110.083 23.954L102.053 48H98.2248L88.3908 16.474H91.9328C92.3142 16.474 92.6295 16.5693 92.8788 16.76C93.1428 16.9507 93.3115 17.1927 93.3848 17.486L99.8968 39.398C99.9995 39.794 100.095 40.2193 100.183 40.674C100.285 41.1287 100.381 41.6127 100.469 42.126C100.571 41.6127 100.674 41.1287 100.777 40.674C100.894 40.2047 101.019 39.7793 101.151 39.398L108.565 17.486C108.653 17.2367 108.821 17.0093 109.071 16.804C109.335 16.584 109.65 16.474 110.017 16.474H111.249C111.63 16.474 111.938 16.5693 112.173 16.76C112.407 16.9507 112.583 17.1927 112.701 17.486L120.093 39.398C120.225 39.7793 120.342 40.19 120.445 40.63C120.562 41.07 120.672 41.532 120.775 42.016C120.848 41.532 120.929 41.07 121.017 40.63C121.105 40.19 121.2 39.7793 121.303 39.398L127.837 17.486C127.91 17.222 128.072 16.9873 128.321 16.782C128.585 16.5767 128.9 16.474 129.267 16.474H132.589ZM141.94 25.362C143.568 25.362 145.034 25.6333 146.34 26.176C147.645 26.7187 148.76 27.4887 149.684 28.486C150.608 29.4833 151.312 30.6933 151.796 32.116C152.294 33.524 152.544 35.1007 152.544 36.846C152.544 38.606 152.294 40.19 151.796 41.598C151.312 43.006 150.608 44.2087 149.684 45.206C148.76 46.2033 147.645 46.9733 146.34 47.516C145.034 48.044 143.568 48.308 141.94 48.308C140.297 48.308 138.816 48.044 137.496 47.516C136.19 46.9733 135.076 46.2033 134.152 45.206C133.228 44.2087 132.516 43.006 132.018 41.598C131.534 40.19 131.292 38.606 131.292 36.846C131.292 35.1007 131.534 33.524 132.018 32.116C132.516 30.6933 133.228 29.4833 134.152 28.486C135.076 27.4887 136.19 26.7187 137.496 26.176C138.816 25.6333 140.297 25.362 141.94 25.362ZM141.94 45.25C144.14 45.25 145.782 44.5167 146.868 43.05C147.953 41.5687 148.496 39.508 148.496 36.868C148.496 34.2133 147.953 32.1453 146.868 30.664C145.782 29.1827 144.14 28.442 141.94 28.442C140.825 28.442 139.85 28.6327 139.014 29.014C138.192 29.3953 137.503 29.9453 136.946 30.664C136.403 31.3827 135.992 32.27 135.714 33.326C135.45 34.3673 135.318 35.548 135.318 36.868C135.318 39.508 135.86 41.5687 136.946 43.05C138.046 44.5167 139.71 45.25 141.94 45.25ZM159.908 30.18C160.612 28.6547 161.478 27.4667 162.504 26.616C163.531 25.7507 164.785 25.318 166.266 25.318C166.736 25.318 167.183 25.3693 167.608 25.472C168.048 25.5747 168.437 25.736 168.774 25.956L168.488 28.882C168.4 29.2487 168.18 29.432 167.828 29.432C167.623 29.432 167.322 29.388 166.926 29.3C166.53 29.212 166.083 29.168 165.584 29.168C164.88 29.168 164.25 29.2707 163.692 29.476C163.15 29.6813 162.658 29.9893 162.218 30.4C161.793 30.796 161.404 31.2947 161.052 31.896C160.715 32.4827 160.407 33.1573 160.128 33.92V48H156.19V25.714H158.434C158.86 25.714 159.153 25.7947 159.314 25.956C159.476 26.1173 159.586 26.396 159.644 26.792L159.908 30.18ZM174.946 15.594V48H171.03V15.594H174.946ZM194.496 31.016C193.763 30.0333 192.971 29.3513 192.12 28.97C191.269 28.574 190.316 28.376 189.26 28.376C187.192 28.376 185.601 29.1167 184.486 30.598C183.371 32.0793 182.814 34.1913 182.814 36.934C182.814 38.386 182.939 39.6327 183.188 40.674C183.437 41.7007 183.804 42.5513 184.288 43.226C184.772 43.886 185.366 44.37 186.07 44.678C186.774 44.986 187.573 45.14 188.468 45.14C189.759 45.14 190.881 44.8467 191.834 44.26C192.802 43.6733 193.689 42.8447 194.496 41.774V31.016ZM198.412 15.594V48H196.08C195.523 48 195.171 47.7287 195.024 47.186L194.672 44.48C193.719 45.624 192.633 46.548 191.416 47.252C190.199 47.956 188.791 48.308 187.192 48.308C185.916 48.308 184.757 48.066 183.716 47.582C182.675 47.0833 181.787 46.3573 181.054 45.404C180.321 44.4507 179.756 43.2627 179.36 41.84C178.964 40.4173 178.766 38.782 178.766 36.934C178.766 35.2913 178.986 33.766 179.426 32.358C179.866 30.9353 180.497 29.7033 181.318 28.662C182.139 27.6207 183.144 26.8067 184.332 26.22C185.535 25.6187 186.884 25.318 188.38 25.318C189.744 25.318 190.91 25.5527 191.878 26.022C192.861 26.4767 193.733 27.1147 194.496 27.936V15.594H198.412ZM46.6139 70.714V93H42.6979V70.714H46.6139ZM47.4499 63.718C47.4499 64.0993 47.3692 64.4587 47.2079 64.796C47.0612 65.1187 46.8559 65.412 46.5919 65.676C46.3425 65.9253 46.0419 66.1233 45.6899 66.27C45.3525 66.4167 44.9932 66.49 44.6119 66.49C44.2305 66.49 43.8712 66.4167 43.5339 66.27C43.2112 66.1233 42.9252 65.9253 42.6759 65.676C42.4265 65.412 42.2285 65.1187 42.0819 64.796C41.9352 64.4587 41.8619 64.0993 41.8619 63.718C41.8619 63.3367 41.9352 62.9773 42.0819 62.64C42.2285 62.288 42.4265 61.9873 42.6759 61.738C42.9252 61.474 43.2112 61.2687 43.5339 61.122C43.8712 60.9753 44.2305 60.902 44.6119 60.902C44.9932 60.902 45.3525 60.9753 45.6899 61.122C46.0419 61.2687 46.3425 61.474 46.5919 61.738C46.8559 61.9873 47.0612 62.288 47.2079 62.64C47.3692 62.9773 47.4499 63.3367 47.4499 63.718ZM55.4242 73.948C55.9082 73.4053 56.4215 72.914 56.9642 72.474C57.5068 72.034 58.0788 71.66 58.6802 71.352C59.2962 71.0293 59.9415 70.7873 60.6162 70.626C61.3055 70.45 62.0462 70.362 62.8382 70.362C64.0555 70.362 65.1262 70.5673 66.0502 70.978C66.9888 71.374 67.7662 71.946 68.3822 72.694C69.0128 73.4273 69.4895 74.3147 69.8122 75.356C70.1348 76.3973 70.2962 77.5487 70.2962 78.81V93H66.3582V78.81C66.3582 77.1233 65.9695 75.818 65.1922 74.894C64.4295 73.9553 63.2635 73.486 61.6942 73.486C60.5355 73.486 59.4502 73.7647 58.4382 74.322C57.4408 74.8793 56.5168 75.6347 55.6662 76.588V93H51.7282V70.714H54.0822C54.6395 70.714 54.9842 70.9853 55.1162 71.528L55.4242 73.948ZM113.129 77.248C113.129 79.6093 112.755 81.758 112.007 83.694C111.259 85.63 110.203 87.2873 108.839 88.666C107.475 90.0447 105.832 91.1153 103.911 91.878C102.004 92.626 99.8925 93 97.5751 93H85.8051V61.474H97.5751C99.8925 61.474 102.004 61.8553 103.911 62.618C105.832 63.366 107.475 64.4367 108.839 65.83C110.203 67.2087 111.259 68.866 112.007 70.802C112.755 72.738 113.129 74.8867 113.129 77.248ZM108.751 77.248C108.751 75.312 108.487 73.5813 107.959 72.056C107.431 70.5307 106.683 69.24 105.715 68.184C104.747 67.128 103.574 66.3213 102.195 65.764C100.816 65.2067 99.2765 64.928 97.5751 64.928H90.0731V89.546H97.5751C99.2765 89.546 100.816 89.2673 102.195 88.71C103.574 88.1527 104.747 87.3533 105.715 86.312C106.683 85.256 107.431 83.9653 107.959 82.44C108.487 80.9147 108.751 79.184 108.751 77.248ZM128.553 82.968C126.749 83.0267 125.209 83.1733 123.933 83.408C122.672 83.628 121.638 83.9213 120.831 84.288C120.039 84.6547 119.46 85.0873 119.093 85.586C118.741 86.0847 118.565 86.642 118.565 87.258C118.565 87.8447 118.661 88.3507 118.851 88.776C119.042 89.2013 119.299 89.5533 119.621 89.832C119.959 90.096 120.347 90.294 120.787 90.426C121.242 90.5433 121.726 90.602 122.239 90.602C122.929 90.602 123.559 90.536 124.131 90.404C124.703 90.2573 125.239 90.052 125.737 89.788C126.251 89.524 126.735 89.2087 127.189 88.842C127.659 88.4753 128.113 88.0573 128.553 87.588V82.968ZM115.903 73.86C117.135 72.672 118.463 71.7847 119.885 71.198C121.308 70.6113 122.885 70.318 124.615 70.318C125.862 70.318 126.969 70.5233 127.937 70.934C128.905 71.3447 129.719 71.9167 130.379 72.65C131.039 73.3833 131.538 74.2707 131.875 75.312C132.213 76.3533 132.381 77.4973 132.381 78.744V93H130.643C130.262 93 129.969 92.9413 129.763 92.824C129.558 92.692 129.397 92.4427 129.279 92.076L128.839 89.964C128.253 90.5067 127.681 90.9907 127.123 91.416C126.566 91.8267 125.979 92.1787 125.363 92.472C124.747 92.7507 124.087 92.9633 123.383 93.11C122.694 93.2713 121.924 93.352 121.073 93.352C120.208 93.352 119.394 93.2347 118.631 93C117.869 92.7507 117.201 92.384 116.629 91.9C116.072 91.416 115.625 90.8073 115.287 90.074C114.965 89.326 114.803 88.446 114.803 87.434C114.803 86.554 115.045 85.7107 115.529 84.904C116.013 84.0827 116.798 83.3567 117.883 82.726C118.969 82.0953 120.384 81.582 122.129 81.186C123.875 80.7753 126.016 80.5407 128.553 80.482V78.744C128.553 77.0133 128.179 75.708 127.431 74.828C126.683 73.9333 125.591 73.486 124.153 73.486C123.185 73.486 122.371 73.6107 121.711 73.86C121.066 74.0947 120.501 74.366 120.017 74.674C119.548 74.9673 119.137 75.2387 118.785 75.488C118.448 75.7227 118.111 75.84 117.773 75.84C117.509 75.84 117.282 75.774 117.091 75.642C116.901 75.4953 116.739 75.3193 116.607 75.114L115.903 73.86ZM143.568 93.352C141.808 93.352 140.451 92.8607 139.498 91.878C138.559 90.8953 138.09 89.48 138.09 87.632V73.992H135.406C135.171 73.992 134.973 73.926 134.812 73.794C134.65 73.6473 134.57 73.4273 134.57 73.134V71.572L138.222 71.11L139.124 64.224C139.168 64.004 139.263 63.828 139.41 63.696C139.571 63.5493 139.776 63.476 140.026 63.476H142.006V71.154H148.452V73.992H142.006V87.368C142.006 88.3067 142.233 89.0033 142.688 89.458C143.142 89.9127 143.729 90.14 144.448 90.14C144.858 90.14 145.21 90.0887 145.504 89.986C145.812 89.8687 146.076 89.744 146.296 89.612C146.516 89.48 146.699 89.3627 146.846 89.26C147.007 89.1427 147.146 89.084 147.264 89.084C147.469 89.084 147.652 89.2087 147.814 89.458L148.958 91.328C148.283 91.9587 147.469 92.4573 146.516 92.824C145.562 93.176 144.58 93.352 143.568 93.352ZM163.253 82.968C161.449 83.0267 159.909 83.1733 158.633 83.408C157.372 83.628 156.338 83.9213 155.531 84.288C154.739 84.6547 154.16 85.0873 153.793 85.586C153.441 86.0847 153.265 86.642 153.265 87.258C153.265 87.8447 153.36 88.3507 153.551 88.776C153.742 89.2013 153.998 89.5533 154.321 89.832C154.658 90.096 155.047 90.294 155.487 90.426C155.942 90.5433 156.426 90.602 156.939 90.602C157.628 90.602 158.259 90.536 158.831 90.404C159.403 90.2573 159.938 90.052 160.437 89.788C160.95 89.524 161.434 89.2087 161.889 88.842C162.358 88.4753 162.813 88.0573 163.253 87.588V82.968ZM150.603 73.86C151.835 72.672 153.162 71.7847 154.585 71.198C156.008 70.6113 157.584 70.318 159.315 70.318C160.562 70.318 161.669 70.5233 162.637 70.934C163.605 71.3447 164.419 71.9167 165.079 72.65C165.739 73.3833 166.238 74.2707 166.575 75.312C166.912 76.3533 167.081 77.4973 167.081 78.744V93H165.343C164.962 93 164.668 92.9413 164.463 92.824C164.258 92.692 164.096 92.4427 163.979 92.076L163.539 89.964C162.952 90.5067 162.38 90.9907 161.823 91.416C161.266 91.8267 160.679 92.1787 160.063 92.472C159.447 92.7507 158.787 92.9633 158.083 93.11C157.394 93.2713 156.624 93.352 155.773 93.352C154.908 93.352 154.094 93.2347 153.331 93C152.568 92.7507 151.901 92.384 151.329 91.9C150.772 91.416 150.324 90.8073 149.987 90.074C149.664 89.326 149.503 88.446 149.503 87.434C149.503 86.554 149.745 85.7107 150.229 84.904C150.713 84.0827 151.498 83.3567 152.583 82.726C153.668 82.0953 155.084 81.582 156.829 81.186C158.574 80.7753 160.716 80.5407 163.253 80.482V78.744C163.253 77.0133 162.879 75.708 162.131 74.828C161.383 73.9333 160.29 73.486 158.853 73.486C157.885 73.486 157.071 73.6107 156.411 73.86C155.766 74.0947 155.201 74.366 154.717 74.674C154.248 74.9673 153.837 75.2387 153.485 75.488C153.148 75.7227 152.81 75.84 152.473 75.84C152.209 75.84 151.982 75.774 151.791 75.642C151.6 75.4953 151.439 75.3193 151.307 75.114L150.603 73.86Z" fill="white"/>
        <rect y="106.789" width="210" height="13.211" fill="#D42B21"/>
    </g>
    <defs>
        <clipPath id="clip0">
            <rect width="210" height="120" fill="white"/>
        </clipPath>
    </defs>
</svg></g><a href="https://staging-owid.netlify.com/grapher/child-mortality?tab=chart&amp;time=1832..2016&amp;country=BRA+FRA+DEU+IND+SWE+GBR" target="_blank"><text font-size="25.20" x="15.0" y="35.2" fill="#555"><tspan x="15" y="35.160000000000004">Child mortality</tspan></text></a><text font-size="14.40" x="15.0" y="53.7" fill="#666"><tspan x="15" y="53.72">Shown is the share of children (born alive) who die before they are five years old.</tspan></text></g><g class="LineChart"><defs><clipPath id="boundsClip-47"><rect x="42.562" y="0" width="830" height="963.8"></rect></clipPath></defs><g class="AxisBoxView"><g class="HorizontalAxis"><text x="52.6" y="556.5" fill="#666" text-anchor="middle" font-size="16.2">1832</text><text x="151.6" y="556.5" fill="#666" text-anchor="middle" font-size="16.2">1860</text><text x="222.4" y="556.5" fill="#666" text-anchor="middle" font-size="16.2">1880</text><text x="293.2" y="556.5" fill="#666" text-anchor="middle" font-size="16.2">1900</text><text x="363.9" y="556.5" fill="#666" text-anchor="middle" font-size="16.2">1920</text><text x="434.7" y="556.5" fill="#666" text-anchor="middle" font-size="16.2">1940</text><text x="505.5" y="556.5" fill="#666" text-anchor="middle" font-size="16.2">1960</text><text x="576.2" y="556.5" fill="#666" text-anchor="middle" font-size="16.2">1980</text><text x="647" y="556.5" fill="#666" text-anchor="middle" font-size="16.2">2000</text><text x="703.6" y="556.5" fill="#666" text-anchor="middle" font-size="16.2">2016</text></g><g class="VerticalAxis"><text x="47.56" y="535.3" fill="#666" dominant-baseline="middle" text-anchor="end" font-size="16.2">0%</text><text x="47.56" y="449.9" fill="#666" dominant-baseline="middle" text-anchor="end" font-size="16.2">10%</text><text x="47.56" y="364.4" fill="#666" dominant-baseline="middle" text-anchor="end" font-size="16.2">20%</text><text x="47.56" y="279" fill="#666" dominant-baseline="middle" text-anchor="end" font-size="16.2">30%</text><text x="47.56" y="193.5" fill="#666" dominant-baseline="middle" text-anchor="end" font-size="16.2">40%</text><text x="47.56" y="108.1" fill="#666" dominant-baseline="middle" text-anchor="end" font-size="16.2">50%</text></g><g class="AxisGridLines"><line x1="52.56" y1="535.3" x2="703.61" y2="535.3" stroke="#ccc"></line><line x1="52.56" y1="449.9" x2="703.61" y2="449.9" stroke="#ddd" stroke-dasharray="3,2"></line><line x1="52.56" y1="364.4" x2="703.61" y2="364.4" stroke="#ddd" stroke-dasharray="3,2"></line><line x1="52.56" y1="279" x2="703.61" y2="279" stroke="#ddd" stroke-dasharray="3,2"></line><line x1="52.56" y1="193.5" x2="703.61" y2="193.5" stroke="#ddd" stroke-dasharray="3,2"></line><line x1="52.56" y1="108.1" x2="703.61" y2="108.1" stroke="#ddd" stroke-dasharray="3,2"></line></g></g><g clip-path="url(#boundsClip-47)"><g class="HeightedLegend clickable"><g class="legendMark"><g class="indicator"><line x1="708.61" y1="532.8" x2="731.11" y2="532.8" stroke="#666" stroke-width="0.5"></line><line x1="731.11" y1="532.8" x2="731.11" y2="528.55" stroke="#666" stroke-width="0.5"></line><line x1="731.11" y1="528.55" x2="733.61" y2="528.55" stroke="#666" stroke-width="0.5"></line></g><rect x="703.61" y="521.8" width="84.005" height="13.5" fill="#fff" opacity="0"></rect><text font-size="13.50" x="738.6" y="532.6" fill="#3360a9"><tspan x="738.61" y="532.5999999999999">Sweden</tspan></text></g><g class="legendMark"><g class="indicator"><line x1="708.61" y1="532.1" x2="727.7766666666666" y2="532.1" stroke="#666" stroke-width="0.5"></line><line x1="727.7766666666666" y1="532.1" x2="727.7766666666666" y2="513.05" stroke="#666" stroke-width="0.5"></line><line x1="727.7766666666666" y1="513.05" x2="733.61" y2="513.05" stroke="#666" stroke-width="0.5"></line></g><rect x="703.61" y="506.29999999999995" width="90.62" height="13.5" fill="#fff" opacity="0"></rect><text font-size="13.50" x="738.6" y="517.1" fill="#ca2628"><tspan x="738.61" y="517.0999999999999">Germany</tspan></text></g><g class="legendMark"><g class="indicator"><line x1="708.61" y1="532" x2="724.4433333333334" y2="532" stroke="#666" stroke-width="0.5"></line><line x1="724.4433333333334" y1="532" x2="724.4433333333334" y2="497.54999999999995" stroke="#666" stroke-width="0.5"></line><line x1="724.4433333333334" y1="497.54999999999995" x2="733.61" y2="497.54999999999995" stroke="#666" stroke-width="0.5"></line></g><rect x="703.61" y="490.79999999999995" width="77.12" height="13.5" fill="#fff" opacity="0"></rect><text font-size="13.50" x="738.6" y="501.6" fill="#34983f"><tspan x="738.61" y="501.59999999999997">France</tspan></text></g><g class="legendMark"><g class="indicator"><line x1="708.61" y1="531.6" x2="721.11" y2="531.6" stroke="#666" stroke-width="0.5"></line><line x1="721.11" y1="531.6" x2="721.11" y2="482.04999999999995" stroke="#666" stroke-width="0.5"></line><line x1="721.11" y1="482.04999999999995" x2="733.61" y2="482.04999999999995" stroke="#666" stroke-width="0.5"></line></g><rect x="703.61" y="475.29999999999995" width="131.39" height="13.5" fill="#fff" opacity="0"></rect><text font-size="13.50" x="738.6" y="486.1" fill="#f6a324"><tspan x="738.61" y="486.09999999999997">United Kingdom</tspan></text></g><g class="legendMark"><g class="indicator"><line x1="708.61" y1="522.4" x2="717.7766666666666" y2="522.4" stroke="#666" stroke-width="0.5"></line><line x1="717.7766666666666" y1="522.4" x2="717.7766666666666" y2="466.54999999999995" stroke="#666" stroke-width="0.5"></line><line x1="717.7766666666666" y1="466.54999999999995" x2="733.61" y2="466.54999999999995" stroke="#666" stroke-width="0.5"></line></g><rect x="703.61" y="459.79999999999995" width="68.75" height="13.5" fill="#fff" opacity="0"></rect><text font-size="13.50" x="738.6" y="470.6" fill="#a652ba"><tspan x="738.61" y="470.59999999999997">Brazil</tspan></text></g><g class="legendMark"><g class="indicator"><line x1="708.61" y1="498.6" x2="714.4433333333334" y2="498.6" stroke="#666" stroke-width="0.5"></line><line x1="714.4433333333334" y1="498.6" x2="714.4433333333334" y2="451.04999999999995" stroke="#666" stroke-width="0.5"></line><line x1="714.4433333333334" y1="451.04999999999995" x2="733.61" y2="451.04999999999995" stroke="#666" stroke-width="0.5"></line></g><rect x="703.61" y="444.29999999999995" width="64.43" height="13.5" fill="#fff" opacity="0"></rect><text font-size="13.50" x="738.6" y="455.1" fill="#2a939b"><tspan x="738.61" y="455.09999999999997">India</tspan></text></g></g><g class="Lines"><rect x="53" y="75" width="651" height="461" fill="rgba(255,255,255,0)" opacity="0"></rect><g class="key-Brazil_0"><path stroke="#a652ba" stroke-linecap="round" d="M488 367L491 372L495 376L498 381L502 385L506 389L509 393L513 397L516 400L520 404L523 407L527 410L530 412L534 415L537 418L541 421L544 424L548 427L552 430L555 433L559 436L562 439L566 442L569 445L573 449L576 452L580 456L583 459L587 463L590 466L594 469L598 471L601 474L605 476L608 478L612 480L615 483L619 485L622 488L626 491L629 493L633 496L636 498L640 501L644 503L647 505L651 507L654 508L658 510L661 512L665 513L668 514L672 516L675 517L679 518L682 518L686 519L690 520L693 521L697 521L700 522L704 522" fill="none" stroke-width="1.5"></path></g><g class="key-France_0"><path stroke="#34983f" stroke-linecap="round" d="M53 281L56 291L60 247L63 298L67 314L70 301L74 291L77 306L81 313L84 311L88 305L92 306L95 320L99 333L102 303L106 315L109 309L113 278L116 332L120 311L123 309L127 326L130 281L134 297L138 306L141 291L145 294L148 239L152 327L155 287L159 315L162 300L166 309L169 293L173 319L176 310L180 289L184 302L187 279L191 241L194 318L198 307L201 329L205 325L208 330L212 333L215 322L219 334L222 316L226 327L230 323L233 324L237 313L240 330L244 322L247 328L251 329L254 339L258 321L261 334L265 322L268 323L272 342L276 340L279 362L283 358L286 340L290 335L293 344L297 359L300 367L304 369L307 363L311 372L314 364L318 378L322 380L325 392L329 399L332 361L336 401L339 396L343 403L346 394L350 395L353 381L357 346L360 383L364 392L368 403L371 434L375 421L378 434L382 426L385 421L389 435L392 427L396 424L399 442L403 446L406 445L410 450L414 452L417 457L421 456L424 459L428 459L431 462L435 437L438 455L442 453L445 449L449 446L452 419L456 452L460 465L463 480L467 475L470 486L474 490L477 493L481 496L484 498L488 501L491 503L495 506L498 508L502 509L506 511L509 512L513 513L516 514L520 515L523 516L527 517L530 518L534 518L537 519L541 520L544 520L548 521L552 522L555 522L559 523L562 523L566 523L569 524L573 524L576 525L580 525L583 526L587 526L590 526L594 526L598 527L601 527L605 527L608 527L612 528L615 528L619 528L622 529L626 529L629 530L633 530L636 530L640 531L644 531L647 531L651 531L654 531L658 531L661 531L665 531L668 532L672 532L675 532L679 532L682 532L686 532L690 532L693 532L697 532L700 532L704 532" fill="none" stroke-width="1.5"></path></g><g class="key-Germany_0"><path stroke="#ca2628" stroke-linecap="round" d="M67 130L70 116L74 123L77 140L81 120L84 119L88 94L92 137L95 137L99 134L102 94L106 138L109 102L113 140L116 123L120 137L123 122L127 140L130 132L134 140L138 184L141 109L145 134L148 86L152 175L162 122L166 123L169 75L173 118L176 102L180 109L184 129L187 122L191 77L194 118L198 109L201 123L205 199L208 219L212 223L215 221L219 232L222 202L226 224L230 219L233 213L237 209L240 221L244 209L247 234L251 232L254 221L258 221L261 231L265 216L268 224L272 231L276 216L279 246L283 227L286 244L290 235L293 217L297 248L300 281L304 252L307 263L311 250L314 278L318 291L322 288L325 299L329 310L332 269L336 333L339 327L343 307L346 331L350 344L353 330L357 316L360 336L364 358L368 353L371 360L375 358L378 395L382 400L385 405L389 412L392 425L396 412L399 431L403 434L406 440L410 443L414 458L417 410L421 458L424 461L428 466L431 450L435 461L506 501L530 511L534 512L537 513L541 513L544 514L548 515L552 516L555 517L559 518L562 519L566 520L569 521L573 522L576 523L580 523L583 524L587 525L590 525L594 526L598 526L601 527L605 527L608 528L612 528L615 529L619 529L622 529L626 530L629 530L633 530L636 530L640 530L644 531L647 531L651 531L654 531L658 531L661 531L665 531L668 531L672 532L675 532L679 532L682 532L686 532L690 532L693 532L697 532L700 532L704 532" fill="none" stroke-width="1.5"></path></g><g class="key-India_0"><path stroke="#2a939b" stroke-linecap="round" d="M332 250L336 246L339 264L343 241L346 255L350 255L353 250L357 165L360 224L364 264L368 260L371 292L375 291L378 273L382 294L385 273L389 303L392 295L396 288L399 284L403 286L406 299L410 295L414 271L417 302L421 304L424 303L428 295L431 311L435 303L438 306L442 297L445 293L449 286L452 313L470 288L481 299L484 303L488 307L491 311L495 314L498 318L502 322L506 325L509 329L513 332L516 335L520 338L523 340L527 343L530 345L534 348L537 351L541 353L544 356L548 359L552 363L555 366L559 370L562 374L566 378L569 383L573 388L576 392L580 396L583 401L587 404L590 408L594 411L598 415L601 418L605 421L608 425L612 428L615 431L619 434L622 436L626 439L629 442L633 445L636 448L640 451L644 454L647 457L651 460L654 463L658 466L661 469L665 472L668 475L672 477L675 480L679 482L682 485L686 488L690 490L693 492L697 495L700 497L704 499" fill="none" stroke-width="1.5"></path></g><g class="key-Sweden_0"><path stroke="#3360a9" stroke-linecap="round" d="M53 317L56 326L60 319L63 364L67 343L70 296L74 319L77 320L81 347L84 347L88 328L92 337L95 342L99 352L102 322L106 305L109 354L113 341L116 349L120 337L123 321L127 315L130 348L134 342L138 325L141 271L145 323L148 337L152 367L155 350L159 308L162 333L166 334L169 336L173 346L176 355L180 322L184 303L187 347L191 379L194 376L198 367L201 339L205 337L208 333L212 341L215 341L219 367L222 361L226 369L230 359L233 367L237 371L240 369L244 379L247 387L251 398L254 397L258 384L261 382L265 389L268 393L272 397L276 410L279 402L283 408L286 415L290 389L293 403L297 401L300 419L304 417L307 427L311 423L314 435L318 439L322 431L325 447L329 443L332 446L336 447L339 452L343 449L346 445L350 449L353 456L357 445L360 446L364 452L368 463L371 467L375 472L378 466L382 473L385 473L389 468L392 468L396 473L399 476L403 474L406 480L410 483L414 485L417 486L421 486L424 485L428 489L431 493L435 495L438 495L442 503L445 503L449 500L452 503L456 508L460 509L463 511L467 512L470 512L474 513L477 515L481 516L484 516L488 517L491 517L495 518L498 518L502 518L506 519L509 519L513 519L516 520L520 521L523 521L527 522L530 523L534 523L537 523L541 524L544 524L548 525L552 525L555 526L559 527L562 527L566 527L569 528L573 528L576 528L580 528L583 529L587 529L590 529L594 529L598 529L601 529L605 529L608 529L612 529L615 530L619 530L622 530L626 531L629 531L633 532L636 532L640 532L644 532L647 532L651 532L654 532L658 532L661 532L665 532L668 532L672 533L675 533L679 533L682 533L686 533L690 533L693 533L697 533L700 533L704 533" fill="none" stroke-width="1.5"></path></g><g class="key-United-Kingdom_0"><path stroke="#f6a324" stroke-linecap="round" d="M84 321L88 312L92 315L95 314L99 323L102 295L106 295L109 297L113 296L116 324L120 311L123 307L127 309L130 295L134 312L138 324L141 311L145 296L148 301L152 327L155 314L159 319L162 297L166 303L169 307L173 306L176 323L180 311L184 311L187 306L191 315L194 327L198 334L201 319L205 320L208 331L212 343L215 320L219 340L222 321L226 356L230 337L233 346L237 336L240 348L244 338L247 341L251 353L254 341L258 337L261 336L265 341L268 334L272 358L276 333L279 343L283 342L286 338L290 337L293 343L297 351L300 365L304 372L307 357L311 377L314 373L318 385L322 385L325 396L329 402L332 374L336 411L339 400L343 403L346 394L350 421L353 419L357 389L360 420L364 421L368 438L371 433L375 448L378 438L382 439L385 447L389 447L392 452L396 438L399 459L403 454L406 456L410 460L414 461L417 467L421 464L424 467L428 473L431 479L435 469L438 466L442 477L445 480L449 485L452 488L456 490L460 490L463 501L467 503L470 504L474 505L477 507L481 508L484 509L488 510L491 511L495 511L498 512L502 512L506 513L509 513L513 513L516 514L520 515L523 515L527 516L530 516L534 517L537 517L541 517L544 518L548 518L552 519L555 519L559 520L562 521L566 521L569 522L573 523L576 523L580 524L583 524L587 525L590 525L594 526L598 526L601 526L605 526L608 527L612 527L615 528L619 528L622 529L626 529L629 529L633 529L636 529L640 530L644 530L647 530L651 530L654 530L658 530L661 530L665 530L668 530L672 530L675 531L679 531L682 531L686 531L690 531L693 531L697 532L700 532L704 532" fill="none" stroke-width="1.5"></path></g></g></g></g><g class="SourcesFooter" style="fill:#777"><g class="clickable" style="fill:#777"><text font-size="12.60" x="15.0" y="581.6"><tspan x="15" y="581.58">Source: Gapminder (2017) &amp; UN IGME (2018)</tspan></text></g><text font-size="12.60" x="796.4" y="581.6"><tspan x="796.444" y="581.58"><a style="fill: #777;" class="cclogo" href="http://creativecommons.org/licenses/by/4.0/deed.en_US" target="_blank">CC BY</a></tspan></text></g></svg>