<svg xmlns="http://www.w3.org/2000/svg" version="1.1" style="font-family:&#x27;Helvetica Neue&#x27;, Helvetica, Arial, sans-serif;font-size:18px;background-color:white;text-rendering:optimizeLegibility;-webkit-font-smoothing:antialiased" width="850" height="600"><g class="ChartTab"><g class="HeaderView"><g opacity="0.8" transform="translate(778, 15) scale(0.27)"><a xmlns:xlink="http://www.w3.org/1999/xlink" xlink:href="https://ourworldindata.org" target="_blank"><g><rect x="0" y="0" fill="#1B2543" width="211.2" height="130.1"/><rect x="0" y="112.2" fill="#E63912" width="211.2" height="17.9"/><g><rect x="1.2" y="12.3" fill="none" width="210.2" height="99.2"/><path fill="#FFFFFF" d="M37.8,32.2c0,12.7-7.7,19.4-17.1,19.4c-9.7,0-16.6-7.5-16.6-18.7c0-11.7,7.3-19.3,17.1-19.3 C31.3,13.7,37.8,21.3,37.8,32.2z M9.2,32.8c0,7.9,4.3,14.9,11.8,14.9c7.5,0,11.8-6.9,11.8-15.3c0-7.3-3.8-14.9-11.8-14.9 C13.1,17.5,9.2,24.8,9.2,32.8z"/><path fill="#FFFFFF" d="M62.7,43.8c0,2.7,0.1,5.1,0.2,7.2h-4.3l-0.3-4.3h-0.1c-1.3,2.1-4,4.9-8.8,4.9c-4.2,0-9.1-2.3-9.1-11.6 V24.6h4.8v14.6c0,5,1.5,8.4,5.9,8.4c3.2,0,5.5-2.2,6.3-4.4c0.3-0.7,0.4-1.6,0.4-2.5V24.6h4.8V43.8z"/><path fill="#FFFFFF" d="M67.3,32.8c0-3.1-0.1-5.8-0.2-8.2h4.2l0.2,5.2h0.2c1.2-3.5,4.1-5.8,7.3-5.8c0.5,0,0.9,0.1,1.4,0.2v4.5 c-0.5-0.1-1-0.2-1.6-0.2c-3.4,0-5.8,2.6-6.5,6.2c-0.1,0.7-0.2,1.4-0.2,2.2V51h-4.8V32.8z"/><path fill="#FFFFFF" d="M95.4,51l-9.4-36.8h5l4.4,18.6c1.1,4.6,2.1,9.2,2.7,12.7h0.1c0.6-3.7,1.8-8,3-12.8l4.9-18.5h5l4.5,18.7 c1,4.4,2,8.7,2.6,12.6h0.1c0.8-4,1.8-8.1,3-12.7l4.9-18.5h4.9L120.6,51h-5L111,31.9c-1.1-4.7-1.9-8.3-2.4-12h-0.1 c-0.7,3.7-1.5,7.3-2.8,12L100.4,51H95.4z"/><path fill="#FFFFFF" d="M154.9,37.6c0,9.8-6.8,14-13.2,14c-7.2,0-12.7-5.2-12.7-13.6c0-8.8,5.8-14,13.1-14 C149.8,24,154.9,29.5,154.9,37.6z M133.9,37.9c0,5.8,3.3,10.1,8,10.1c4.6,0,8-4.3,8-10.3c0-4.5-2.2-10.1-7.9-10.1 C136.3,27.6,133.9,32.8,133.9,37.9z"/><path fill="#FFFFFF" d="M158.2,32.8c0-3.1-0.1-5.8-0.2-8.2h4.2l0.2,5.2h0.2c1.2-3.5,4.1-5.8,7.3-5.8c0.5,0,0.9,0.1,1.4,0.2v4.5 c-0.5-0.1-1-0.2-1.6-0.2c-3.4,0-5.8,2.6-6.5,6.2c-0.1,0.7-0.2,1.4-0.2,2.2V51h-4.8V32.8z"/><path fill="#FFFFFF" d="M173.5,12.3h4.8V51h-4.8V12.3z"/><path fill="#FFFFFF" d="M206.5,12.3v31.9c0,2.3,0.1,5,0.2,6.8h-4.3l-0.2-4.6H202c-1.5,2.9-4.7,5.2-9,5.2 c-6.4,0-11.3-5.4-11.3-13.4c-0.1-8.8,5.4-14.2,11.9-14.2c4,0,6.8,1.9,8,4h0.1V12.3H206.5z M201.7,35.4c0-0.6-0.1-1.4-0.2-2 c-0.7-3.1-3.3-5.6-6.9-5.6c-5,0-7.9,4.4-7.9,10.2c0,5.3,2.6,9.8,7.8,9.8c3.2,0,6.2-2.1,7.1-5.7c0.2-0.7,0.2-1.3,0.2-2.1V35.4z"/><path fill="#FFFFFF" d="M42.8,64c0.1,1.6-1.1,2.9-3.1,2.9c-1.7,0-2.9-1.3-2.9-2.9c0-1.7,1.3-3,3-3C41.7,61,42.8,62.3,42.8,64z M37.4,97.8V71.4h4.8v26.4H37.4z"/><path fill="#FFFFFF" d="M47.5,78.6c0-2.7-0.1-5-0.2-7.1h4.3l0.3,4.4h0.1c1.3-2.5,4.4-5,8.8-5c3.7,0,9.4,2.2,9.4,11.2v15.8h-4.8 V82.6c0-4.3-1.6-7.8-6.1-7.8c-3.2,0-5.6,2.2-6.5,4.9c-0.2,0.6-0.3,1.4-0.3,2.2v15.9h-4.8V78.6z"/><path fill="#FFFFFF" d="M84,61.6c2.9-0.4,6.3-0.8,10.1-0.8c6.8,0,11.7,1.6,14.9,4.6c3.3,3,5.2,7.3,5.2,13.2c0,6-1.9,10.9-5.3,14.3 c-3.4,3.4-9.1,5.3-16.3,5.3c-3.4,0-6.2-0.2-8.6-0.4V61.6z M88.8,94.1c1.2,0.2,3,0.3,4.8,0.3c10.2,0,15.7-5.7,15.7-15.6 c0.1-8.7-4.9-14.2-14.9-14.2c-2.5,0-4.3,0.2-5.6,0.5V94.1z"/><path fill="#FFFFFF" d="M132.1,97.8l-0.4-3.3h-0.2c-1.5,2.1-4.3,3.9-8.1,3.9c-5.4,0-8.1-3.8-8.1-7.6c0-6.4,5.7-9.9,15.9-9.8v-0.5 c0-2.2-0.6-6.1-6-6.1c-2.5,0-5,0.8-6.9,2l-1.1-3.2c2.2-1.4,5.4-2.3,8.7-2.3c8.1,0,10.1,5.5,10.1,10.8v9.9c0,2.3,0.1,4.5,0.4,6.3 H132.1z M131.4,84.4c-5.3-0.1-11.2,0.8-11.2,5.9c0,3.1,2.1,4.6,4.5,4.6c3.4,0,5.6-2.2,6.4-4.4c0.2-0.5,0.3-1,0.3-1.5V84.4z"/><path fill="#FFFFFF" d="M146.6,63.9v7.6h6.9v3.7h-6.9v14.2c0,3.3,0.9,5.1,3.6,5.1c1.3,0,2.2-0.2,2.8-0.3l0.2,3.6 c-0.9,0.4-2.4,0.7-4.3,0.7c-2.2,0-4-0.7-5.2-2c-1.4-1.4-1.9-3.8-1.9-6.9V75.1h-4.1v-3.7h4.1v-6.3L146.6,63.9z"/><path fill="#FFFFFF" d="M171.4,97.8l-0.4-3.3h-0.2c-1.5,2.1-4.3,3.9-8.1,3.9c-5.4,0-8.1-3.8-8.1-7.6c0-6.4,5.7-9.9,15.9-9.8v-0.5 c0-2.2-0.6-6.1-6-6.1c-2.5,0-5,0.8-6.9,2l-1.1-3.2c2.2-1.4,5.4-2.3,8.7-2.3c8.1,0,10.1,5.5,10.1,10.8v9.9c0,2.3,0.1,4.5,0.4,6.3 H171.4z M170.7,84.4c-5.3-0.1-11.2,0.8-11.2,5.9c0,3.1,2.1,4.6,4.5,4.6c3.4,0,5.6-2.2,6.4-4.4c0.2-0.5,0.3-1,0.3-1.5V84.4z"/></g></g></a></g><a href="https://ourworldindata.org/grapher/correlation-between-mean-years-of-schooling-and-gdp-per-capita" target="_blank"><text font-size="21.60" x="15.0" y="32.3" fill="#555"><tspan x="15" y="32.279999999999994">Correlation between mean years of schooling and GDP per capita, 2010</tspan></text></a><text font-size="14.40" x="15.0" y="50.1" fill="#666"><tspan x="15" y="50.11999999999999">Mean years of schooling for those aged 15+ and GDP per capita in inflation-adjusted international dollars. Bubble</tspan><tspan x="15" y="65.96">size represents the size of the population.</tspan></text></g><g><g class="AxisBoxView"><g class="HorizontalAxis"><text font-size="12.60" x="296.5" y="554.0"><tspan x="296.456" y="553.98">Mean years of schooling</tspan></text><text x="110.6" y="533.9" fill="#666" text-anchor="middle" font-size="16.2">0</text><text x="191.2" y="533.9" fill="#666" text-anchor="middle" font-size="16.2">2</text><text x="271.8" y="533.9" fill="#666" text-anchor="middle" font-size="16.2">4</text><text x="352.4" y="533.9" fill="#666" text-anchor="middle" font-size="16.2">6</text><text x="433" y="533.9" fill="#666" text-anchor="middle" font-size="16.2">8</text><text x="513.5" y="533.9" fill="#666" text-anchor="middle" font-size="16.2">10</text><text x="594.1" y="533.9" fill="#666" text-anchor="middle" font-size="16.2">12</text><text x="674.7" y="533.9" fill="#666" text-anchor="middle" font-size="16.2">14</text></g><g class="VerticalAxis"><text font-size="12.60" x="-365.7" y="25.1" transform="rotate(-90)"><tspan x="-365.718" y="25.080000000000002">GDP per capita</tspan></text><text x="105.64" y="466.2" fill="#666" dominant-baseline="middle" text-anchor="end" font-size="16.2">$1,000</text><text x="105.64" y="277.3" fill="#666" dominant-baseline="middle" text-anchor="end" font-size="16.2">$10,000</text><text x="105.64" y="88.5" fill="#666" dominant-baseline="middle" text-anchor="end" font-size="16.2">$100,000</text><text x="15" y="80.5" style="font-size:12px;text-transform:uppercase;cursor:pointer" class="clickable"><tspan style="font-family:FontAwesome"></tspan> log</text></g><g class="AxisGridLines"><line x1="110.64" y1="466.2" x2="715.00" y2="466.2" stroke="#ddd" stroke-dasharray="3,2"></line><line x1="110.64" y1="277.3" x2="715.00" y2="277.3" stroke="#ddd" stroke-dasharray="3,2"></line><line x1="110.64" y1="88.5" x2="715.00" y2="88.5" stroke="#ddd" stroke-dasharray="3,2"></line></g><g class="AxisGridLines"><line x1="110.6" y1="512.70" x2="110.6" y2="88.50" stroke="#ccc"></line><line x1="191.2" y1="512.70" x2="191.2" y2="88.50" stroke="#ddd" stroke-dasharray="3,2"></line><line x1="271.8" y1="512.70" x2="271.8" y2="88.50" stroke="#ddd" stroke-dasharray="3,2"></line><line x1="352.4" y1="512.70" x2="352.4" y2="88.50" stroke="#ddd" stroke-dasharray="3,2"></line><line x1="433" y1="512.70" x2="433" y2="88.50" stroke="#ddd" stroke-dasharray="3,2"></line><line x1="513.5" y1="512.70" x2="513.5" y2="88.50" stroke="#ddd" stroke-dasharray="3,2"></line><line x1="594.1" y1="512.70" x2="594.1" y2="88.50" stroke="#ddd" stroke-dasharray="3,2"></line><line x1="674.7" y1="512.70" x2="674.7" y2="88.50" stroke="#ddd" stroke-dasharray="3,2"></line></g></g><g class="PointsWithLabels clickable" clip-path="url(#scatterBounds-224)" font-family="Arial Narrow, Arial, sans-serif"><rect x="110.64000000000001" y="88.5" width="604.36" height="424.2" fill="rgba(255,255,255,0)"></rect><defs><clipPath id="scatterBounds-224"><rect x="100.64000000000001" y="78.5" width="624.36" height="444.2"></rect></clipPath></defs><g class="key-China_0"><circle cx="443.00" cy="281.00" r="17.84" fill="#d14e5b" opacity="0.8" stroke="#333" stroke-width="0.7"></circle></g><g class="key-India_0"><circle cx="376.00" cy="347.00" r="17.06" fill="#d14e5b" opacity="0.8" stroke="#333" stroke-width="0.7"></circle></g><g class="key-United-States_0"><circle cx="644.00" cy="146.00" r="8.72" fill="#4d824b" opacity="0.8" stroke="#333" stroke-width="0.7"></circle></g><g class="key-Indonesia_0"><circle cx="433.00" cy="301.00" r="7.71" fill="#d14e5b" opacity="0.8" stroke="#333" stroke-width="0.7"></circle></g><g class="key-Brazil_0"><circle cx="439.00" cy="252.00" r="7.00" fill="#69c487" opacity="0.8" stroke="#333" stroke-width="0.7"></circle></g><g class="key-Pakistan_0"><circle cx="319.00" cy="351.00" r="6.63" fill="#d14e5b" opacity="0.8" stroke="#333" stroke-width="0.7"></circle></g><g class="key-Bangladesh_0"><circle cx="361.00" cy="397.00" r="6.17" fill="#d14e5b" opacity="0.8" stroke="#333" stroke-width="0.7"></circle></g><g class="key-Russia_0"><circle cx="594.00" cy="219.00" r="6.06" fill="#ffd336" opacity="0.8" stroke="#333" stroke-width="0.7"></circle></g><g class="key-Japan_0"><circle cx="611.00" cy="175.00" r="5.73" fill="#d14e5b" opacity="0.8" stroke="#333" stroke-width="0.7"></circle></g><g class="key-Mexico_0"><circle cx="480.00" cy="246.00" r="5.46" fill="#4d824b" opacity="0.8" stroke="#333" stroke-width="0.7"></circle></g><g class="key-Philippines_0"><circle cx="459.00" cy="326.00" r="5.01" fill="#d14e5b" opacity="0.8" stroke="#333" stroke-width="0.7"></circle></g><g class="key-Germany_0"><circle cx="617.00" cy="162.00" r="4.74" fill="#ffd336" opacity="0.8" stroke="#333" stroke-width="0.7"></circle></g><g class="key-Egypt_0"><circle cx="410.00" cy="287.00" r="4.71" fill="#5675c1" opacity="0.8" stroke="#fff" stroke-width="0.7"></circle></g><g class="key-Iran_0"><circle cx="479.00" cy="232.00" r="4.53" fill="#d14e5b" opacity="0.8" stroke="#333" stroke-width="0.7"></circle></g><g class="key-Turkey_0"><circle cx="410.00" cy="237.00" r="4.50" fill="#d14e5b" opacity="0.8" stroke="#333" stroke-width="0.7"></circle></g><g class="key-Thailand_0"><circle cx="451.00" cy="255.00" r="4.40" fill="#d14e5b" opacity="0.8" stroke="#fff" stroke-width="0.7"></circle></g><g class="key-Democratic-Republic-of-Congo_0"><circle cx="263.00" cy="512.00" r="4.32" fill="#5675c1" opacity="0.8" stroke="#333" stroke-width="0.7"></circle></g><g class="key-France_0"><circle cx="567.00" cy="170.00" r="4.23" fill="#ffd336" opacity="0.8" stroke="#333" stroke-width="0.7"></circle></g><g class="key-United-Kingdom_0"><circle cx="612.00" cy="171.00" r="4.21" fill="#ffd336" opacity="0.8" stroke="#fff" stroke-width="0.7"></circle></g><g class="key-Italy_0"><circle cx="542.00" cy="173.00" r="4.17" fill="#ffd336" opacity="0.8" stroke="#333" stroke-width="0.7"></circle></g><g class="key-South-Africa_0"><circle cx="509.00" cy="265.00" r="3.86" fill="#5675c1" opacity="0.8" stroke="#333" stroke-width="0.7"></circle></g><g class="key-South-Korea_0"><circle cx="632.00" cy="181.00" r="3.80" fill="#d14e5b" opacity="0.8" stroke="#fff" stroke-width="0.7"></circle></g><g class="key-Myanmar_0"><circle cx="316.00" cy="363.00" r="3.80" fill="#d14e5b" opacity="0.8" stroke="#333" stroke-width="0.7"></circle></g><g class="key-Colombia_0"><circle cx="487.00" cy="273.00" r="3.75" fill="#69c487" opacity="0.8" stroke="#fff" stroke-width="0.7"></circle></g><g class="key-Spain_0"><circle cx="543.00" cy="178.00" r="3.74" fill="#ffd336" opacity="0.8" stroke="#fff" stroke-width="0.7"></circle></g><g class="key-Kenya_0"><circle cx="371.00" cy="393.00" r="3.56" fill="#5675c1" opacity="0.8" stroke="#fff" stroke-width="0.7"></circle></g><g class="key-Argentina_0"><circle cx="501.00" cy="226.00" r="3.56" fill="#69c487" opacity="0.8" stroke="#333" stroke-width="0.7"></circle></g><g class="key-Poland_0"><circle cx="578.00" cy="216.00" r="3.49" fill="#ffd336" opacity="0.8" stroke="#fff" stroke-width="0.7"></circle></g><g class="key-Algeria_0"><circle cx="392.00" cy="259.00" r="3.39" fill="#5675c1" opacity="0.8" stroke="#333" stroke-width="0.7"></circle></g><g class="key-Canada_0"><circle cx="623.00" cy="163.00" r="3.34" fill="#4d824b" opacity="0.8" stroke="#fff" stroke-width="0.7"></circle></g><g class="key-Uganda_0"><circle cx="347.00" cy="423.00" r="3.32" fill="#5675c1" opacity="0.8" stroke="#333" stroke-width="0.7"></circle></g><g class="key-Morocco_0"><circle cx="323.00" cy="315.00" r="3.27" fill="#5675c1" opacity="0.8" stroke="#333" stroke-width="0.7"></circle></g><g class="key-Iraq_0"><circle cx="410.00" cy="282.00" r="3.26" fill="#d14e5b" opacity="0.8" stroke="#333" stroke-width="0.7"></circle></g><g class="key-Nepal_0"><circle cx="289.00" cy="417.00" r="3.19" fill="#d14e5b" opacity="0.8" stroke="#333" stroke-width="0.7"></circle></g><g class="key-Peru_0"><circle cx="484.00" cy="280.00" r="3.16" fill="#69c487" opacity="0.8" stroke="#333" stroke-width="0.7"></circle></g><g class="key-Venezuela_0"><circle cx="464.00" cy="243.00" r="3.16" fill="#69c487" opacity="0.8" stroke="#fff" stroke-width="0.7"></circle></g><g class="key-Malaysia_0"><circle cx="549.00" cy="221.00" r="3.13" fill="#d14e5b" opacity="0.8" stroke="#333" stroke-width="0.7"></circle></g><g class="key-Ghana_0"><circle cx="419.00" cy="385.00" r="2.98" fill="#5675c1" opacity="0.8" stroke="#fff" stroke-width="0.7"></circle></g><g class="key-Mozambique_0"><circle cx="192.00" cy="471.00" r="2.94" fill="#5675c1" opacity="0.8" stroke="#333" stroke-width="0.7"></circle></g><g class="key-Taiwan_0"><circle cx="592.00" cy="163.00" r="2.93" fill="#d14e5b" opacity="0.8" stroke="#fff" stroke-width="0.7"></circle></g><g class="key-Australia_0"><circle cx="581.00" cy="157.00" r="2.90" fill="#a652ba" opacity="0.8" stroke="#fff" stroke-width="0.7"></circle></g><g class="key-Romania_0"><circle cx="557.00" cy="235.00" r="2.86" fill="#ffd336" opacity="0.8" stroke="#333" stroke-width="0.7"></circle></g><g class="key-Sri-Lanka_0"><circle cx="540.00" cy="299.00" r="2.84" fill="#d14e5b" opacity="0.8" stroke="#333" stroke-width="0.7"></circle></g><g class="key-Syria_0"><circle cx="395.00" cy="324.00" r="2.82" fill="#d14e5b" opacity="0.8" stroke="#fff" stroke-width="0.7"></circle></g><g class="key-Cote-d__0027Ivoire_0"><circle cx="309.00" cy="382.00" r="2.79" fill="#5675c1" opacity="0.8" stroke="#333" stroke-width="0.7"></circle></g><g class="key-Cameroon_0"><circle cx="368.00" cy="393.00" r="2.79" fill="#5675c1" opacity="0.8" stroke="#fff" stroke-width="0.7"></circle></g><g class="key-Chile_0"><circle cx="527.00" cy="224.00" r="2.68" fill="#69c487" opacity="0.8" stroke="#fff" stroke-width="0.7"></circle></g><g class="key-Netherlands_0"><circle cx="582.00" cy="154.00" r="2.66" fill="#ffd336" opacity="0.8" stroke="#fff" stroke-width="0.7"></circle></g><g class="key-Niger_0"><circle cx="189.00" cy="488.00" r="2.61" fill="#5675c1" opacity="0.8" stroke="#333" stroke-width="0.7"></circle></g><g class="key-Mali_0"><circle cx="196.00" cy="435.00" r="2.60" fill="#5675c1" opacity="0.8" stroke="#333" stroke-width="0.7"></circle></g><g class="key-Malawi_0"><circle cx="312.00" cy="463.00" r="2.58" fill="#5675c1" opacity="0.8" stroke="#333" stroke-width="0.7"></circle></g><g class="key-Ecuador_0"><circle cx="433.00" cy="286.00" r="2.56" fill="#69c487" opacity="0.8" stroke="#fff" stroke-width="0.7"></circle></g><g class="key-Guatemala_0"><circle cx="320.00" cy="315.00" r="2.56" fill="#4d824b" opacity="0.8" stroke="#fff" stroke-width="0.7"></circle></g><g class="key-Cambodia_0"><circle cx="309.00" cy="392.00" r="2.54" fill="#d14e5b" opacity="0.8" stroke="#fff" stroke-width="0.7"></circle></g><g class="key-Zambia_0"><circle cx="408.00" cy="374.00" r="2.50" fill="#5675c1" opacity="0.8" stroke="#333" stroke-width="0.7"></circle></g><g class="key-Zimbabwe_0"><circle cx="427.00" cy="434.00" r="2.47" fill="#5675c1" opacity="0.8" stroke="#333" stroke-width="0.7"></circle></g><g class="key-Senegal_0"><circle cx="235.00" cy="405.00" r="2.46" fill="#5675c1" opacity="0.8" stroke="#333" stroke-width="0.7"></circle></g><g class="key-Greece_0"><circle cx="568.00" cy="189.00" r="2.41" fill="#ffd336" opacity="0.8" stroke="#333" stroke-width="0.7"></circle></g><g class="key-Belgium_0"><circle cx="565.00" cy="162.00" r="2.38" fill="#ffd336" opacity="0.8" stroke="#fff" stroke-width="0.7"></circle></g><g class="key-Portugal_0"><circle cx="461.00" cy="194.00" r="2.38" fill="#ffd336" opacity="0.8" stroke="#333" stroke-width="0.7"></circle></g><g class="key-Czech-Republic_0"><circle cx="626.00" cy="194.00" r="2.37" fill="#ffd336" opacity="0.8" stroke="#333" stroke-width="0.7"></circle></g><g class="key-Tunisia_0"><circle cx="433.00" cy="273.00" r="2.37" fill="#5675c1" opacity="0.8" stroke="#fff" stroke-width="0.7"></circle></g><g class="key-Haiti_0"><circle cx="318.00" cy="435.00" r="2.35" fill="#4d824b" opacity="0.8" stroke="#333" stroke-width="0.7"></circle></g><g class="key-Hungary_0"><circle cx="593.00" cy="211.00" r="2.35" fill="#ffd336" opacity="0.8" stroke="#fff" stroke-width="0.7"></circle></g><g class="key-Bolivia_0"><circle cx="455.00" cy="332.00" r="2.34" fill="#69c487" opacity="0.8" stroke="#fff" stroke-width="0.7"></circle></g><g class="key-Dominican-Republic_0"><circle cx="437.00" cy="268.00" r="2.34" fill="#4d824b" opacity="0.8" stroke="#fff" stroke-width="0.7"></circle></g><g class="key-Serbia_0"><circle cx="574.00" cy="265.00" r="2.34" fill="#ffd336" opacity="0.8" stroke="#333" stroke-width="0.7"></circle></g><g class="key-Sweden_0"><circle cx="592.00" cy="159.00" r="2.31" fill="#ffd336" opacity="0.8" stroke="#fff" stroke-width="0.7"></circle></g><g class="key-Benin_0"><circle cx="294.00" cy="421.00" r="2.29" fill="#5675c1" opacity="0.8" stroke="#fff" stroke-width="0.7"></circle></g><g class="key-Austria_0"><circle cx="518.00" cy="158.00" r="2.26" fill="#ffd336" opacity="0.8" stroke="#333" stroke-width="0.7"></circle></g><g class="key-Switzerland_0"><circle cx="631.00" cy="142.00" r="2.23" fill="#ffd336" opacity="0.8" stroke="#fff" stroke-width="0.7"></circle></g><g class="key-Honduras_0"><circle cx="376.00" cy="350.00" r="2.22" fill="#4d824b" opacity="0.8" stroke="#333" stroke-width="0.7"></circle></g><g class="key-Bulgaria_0"><circle cx="556.00" cy="242.00" r="2.22" fill="#ffd336" opacity="0.8" stroke="#fff" stroke-width="0.7"></circle></g><g class="key-Hong-Kong_0"><circle cx="602.00" cy="148.00" r="2.19" fill="#d14e5b" opacity="0.8" stroke="#fff" stroke-width="0.7"></circle></g><g class="key-Paraguay_0"><circle cx="432.00" cy="308.00" r="2.16" fill="#69c487" opacity="0.8" stroke="#333" stroke-width="0.7"></circle></g><g class="key-El-Salvador_0"><circle cx="435.00" cy="316.00" r="2.15" fill="#4d824b" opacity="0.8" stroke="#fff" stroke-width="0.7"></circle></g><g class="key-Jordan_0"><circle cx="513.00" cy="279.00" r="2.15" fill="#d14e5b" opacity="0.8" stroke="#333" stroke-width="0.7"></circle></g><g class="key-Togo_0"><circle cx="356.00" cy="450.00" r="2.14" fill="#5675c1" opacity="0.8" stroke="#333" stroke-width="0.7"></circle></g><g class="key-Sierra-Leone_0"><circle cx="283.00" cy="448.00" r="2.13" fill="#5675c1" opacity="0.8" stroke="#333" stroke-width="0.7"></circle></g><g class="key-Nicaragua_0"><circle cx="385.00" cy="353.00" r="2.12" fill="#4d824b" opacity="0.8" stroke="#fff" stroke-width="0.7"></circle></g><g class="key-Denmark_0"><circle cx="592.00" cy="159.00" r="2.11" fill="#ffd336" opacity="0.8" stroke="#fff" stroke-width="0.7"></circle></g><g class="key-Finland_0"><circle cx="542.00" cy="165.00" r="2.10" fill="#ffd336" opacity="0.8" stroke="#fff" stroke-width="0.7"></circle></g><g class="key-Norway_0"><circle cx="580.00" cy="133.00" r="2.07" fill="#ffd336" opacity="0.8" stroke="#333" stroke-width="0.7"></circle></g><g class="key-Costa-Rica_0"><circle cx="450.00" cy="258.00" r="2.06" fill="#4d824b" opacity="0.8" stroke="#fff" stroke-width="0.7"></circle></g><g class="key-Ireland_0"><circle cx="612.00" cy="156.00" r="2.05" fill="#ffd336" opacity="0.8" stroke="#fff" stroke-width="0.7"></circle></g><g class="key-New-Zealand_0"><circle cx="558.00" cy="183.00" r="2.04" fill="#a652ba" opacity="0.8" stroke="#fff" stroke-width="0.7"></circle></g><g class="key-Liberia_0"><circle cx="285.00" cy="494.00" r="2.02" fill="#5675c1" opacity="0.8" stroke="#333" stroke-width="0.7"></circle></g><g class="key-Panama_0"><circle cx="502.00" cy="246.00" r="2.00" fill="#4d824b" opacity="0.8" stroke="#fff" stroke-width="0.7"></circle></g><g class="key-Uruguay_0"><circle cx="457.00" cy="236.00" r="1.99" fill="#69c487" opacity="0.8" stroke="#fff" stroke-width="0.7"></circle></g><g class="key-Albania_0"><circle cx="531.00" cy="286.00" r="1.98" fill="#ffd336" opacity="0.8" stroke="#fff" stroke-width="0.7"></circle></g><g class="key-Jamaica_0"><circle cx="526.00" cy="302.00" r="1.95" fill="#4d824b" opacity="0.8" stroke="#fff" stroke-width="0.7"></circle></g><g class="key-Kuwait_0"><circle cx="368.00" cy="126.00" r="1.95" fill="#d14e5b" opacity="0.8" stroke="#333" stroke-width="0.7"></circle></g><g class="key-Lesotho_0"><circle cx="355.00" cy="403.00" r="1.91" fill="#5675c1" opacity="0.8" stroke="#fff" stroke-width="0.7"></circle></g><g class="key-Gambia_0"><circle cx="268.00" cy="422.00" r="1.89" fill="#5675c1" opacity="0.8" stroke="#fff" stroke-width="0.7"></circle></g><g class="key-Trinidad-and-Tobago_0"><circle cx="552.00" cy="199.00" r="1.86" fill="#4d824b" opacity="0.8" stroke="#fff" stroke-width="0.7"></circle></g><g class="key-Mauritius_0"><circle cx="491.00" cy="242.00" r="1.86" fill="#5675c1" opacity="0.8" stroke="#fff" stroke-width="0.7"></circle></g><g class="key-Swaziland_0"><circle cx="325.00" cy="297.00" r="1.85" fill="#5675c1" opacity="0.8" stroke="#333" stroke-width="0.7"></circle></g><g class="key-Cyprus_0"><circle cx="584.00" cy="174.00" r="1.85" fill="#ffd336" opacity="0.8" stroke="#fff" stroke-width="0.7"></circle></g><g class="key-Fiji_0"><circle cx="527.00" cy="307.00" r="1.83" fill="#a652ba" opacity="0.8" stroke="#fff" stroke-width="0.7"></circle></g><g class="key-Luxembourg_0"><circle cx="567.00" cy="102.00" r="1.81" fill="#ffd336" opacity="0.8" stroke="#333" stroke-width="0.7"></circle></g><g class="key-Malta_0"><circle cx="556.00" cy="189.00" r="1.80" fill="#ffd336" opacity="0.8" stroke="#fff" stroke-width="0.7"></circle></g><g class="key-Iceland_0"><circle cx="573.00" cy="166.00" r="1.80" fill="#ffd336" opacity="0.8" stroke="#fff" stroke-width="0.7"></circle></g><g class="key-Belize_0"><circle cx="498.00" cy="299.00" r="1.80" fill="#4d824b" opacity="0.8" stroke="#333" stroke-width="0.7"></circle></g><g class="key-Barbados_0"><circle cx="496.00" cy="232.00" r="1.79" fill="#4d824b" opacity="0.8" stroke="#fff" stroke-width="0.7"></circle></g><g class="key-Yemen_0"><circle cx="265.00" cy="350.00" r="1.78" fill="#d14e5b" opacity="0.8" stroke="#333" stroke-width="0.7"></circle></g><g class="backgroundLabels" fill="#333"><text x="443.00" y="262.16" font-size="14.30">China</text><text x="376.00" y="328.94" font-size="14.01">India</text><text x="644.00" y="136.28" font-size="11.76">United States</text><text x="433.00" y="292.29" font-size="11.59">Indonesia</text><text x="439.00" y="244.00" font-size="11.48">Brazil</text><text x="319.00" y="343.37" font-size="11.43">Pakistan</text><text x="361.00" y="389.83" font-size="11.37">Bangladesh</text><text x="594.00" y="211.94" font-size="11.35">Russia</text><text x="611.00" y="168.27" font-size="11.31">Japan</text><text x="480.00" y="239.54" font-size="11.28">Mexico</text><text x="459.00" y="319.99" font-size="11.23">Philippines</text><text x="617.00" y="156.26" font-size="11.20">Germany</text><text x="479.00" y="226.47" font-size="11.18">Iran</text><text x="410.00" y="231.50" font-size="11.18">Turkey</text><text x="263.00" y="506.68" font-size="11.16">Democratic Republic of Congo</text><text x="567.00" y="164.77" font-size="11.15">France</text><text x="542.00" y="167.83" font-size="11.15">Italy</text><text x="509.00" y="260.14" font-size="11.12">South Africa</text><text x="316.00" y="358.20" font-size="11.12">Myanmar</text><text x="501.00" y="221.44" font-size="11.10">Argentina</text><text x="392.00" y="254.61" font-size="11.09">Algeria</text><text x="347.00" y="418.68" font-size="11.08">Uganda</text><text x="323.00" y="310.73" font-size="11.08">Morocco</text><text x="410.00" y="277.74" font-size="11.08">Iraq</text><text x="289.00" y="412.81" font-size="11.07">Nepal</text><text x="484.00" y="275.84" font-size="11.07">Peru</text><text x="549.00" y="216.87" font-size="11.07">Malaysia</text><text x="192.00" y="467.06" font-size="11.06">Mozambique</text><text x="557.00" y="231.14" font-size="11.05">Romania</text><text x="540.00" y="295.16" font-size="11.05">Sri Lanka</text><text x="309.00" y="378.21" font-size="11.05">Cote d&#x27;Ivoire</text><text x="189.00" y="484.39" font-size="11.04">Niger</text><text x="196.00" y="431.40" font-size="11.04">Mali</text><text x="312.00" y="459.42" font-size="11.04">Malawi</text><text x="408.00" y="370.50" font-size="11.03">Zambia</text><text x="427.00" y="430.53" font-size="11.03">Zimbabwe</text><text x="235.00" y="401.54" font-size="11.03">Senegal</text><text x="568.00" y="185.59" font-size="11.03">Greece</text><text x="461.00" y="190.62" font-size="11.03">Portugal</text><text x="626.00" y="190.63" font-size="11.03">Czech Republic</text><text x="318.00" y="431.65" font-size="11.02">Haiti</text><text x="574.00" y="261.66" font-size="11.02">Serbia</text><text x="518.00" y="154.74" font-size="11.02">Austria</text><text x="376.00" y="346.78" font-size="11.02">Honduras</text><text x="432.00" y="304.84" font-size="11.02">Paraguay</text><text x="513.00" y="275.85" font-size="11.01">Jordan</text><text x="356.00" y="446.86" font-size="11.01">Togo</text><text x="283.00" y="444.87" font-size="11.01">Sierra Leone</text><text x="580.00" y="129.93" font-size="11.01">Norway</text><text x="285.00" y="490.98" font-size="11.01">Liberia</text><text x="368.00" y="123.05" font-size="11.01">Kuwait</text><text x="325.00" y="294.15" font-size="11.00">Swaziland</text><text x="567.00" y="99.19" font-size="11.00">Luxembourg</text><text x="498.00" y="296.20" font-size="11.00">Belize</text><text x="265.00" y="347.22" font-size="11.00">Yemen</text></g></g><g class="ScatterColorLegend clickable" style="cursor:pointer"><g class="legendMark"><rect x="735" y="86" width="43.256" height="17.6" fill="#fff" opacity="0"></rect>,<rect x="735" y="91.5" width="6" height="6" fill="#5675c1"></rect>,<text font-size="12.60" x="746.0" y="98.6"><tspan x="746" y="98.58">Africa</tspan></text></g><g class="legendMark"><rect x="735" y="103.6" width="35.57" height="17.6" fill="#fff" opacity="0"></rect>,<rect x="735" y="109.1" width="6" height="6" fill="#d14e5b"></rect>,<text font-size="12.60" x="746.0" y="116.2"><tspan x="746" y="116.17999999999999">Asia</tspan></text></g><g class="legendMark"><rect x="735" y="121.2" width="51.824" height="17.6" fill="#fff" opacity="0"></rect>,<rect x="735" y="126.7" width="6" height="6" fill="#ffd336"></rect>,<text font-size="12.60" x="746.0" y="133.8"><tspan x="746" y="133.78">Europe</tspan></text></g><g class="legendMark"><rect x="735" y="138.8" width="91.64" height="17.6" fill="#fff" opacity="0"></rect>,<rect x="735" y="144.3" width="6" height="6" fill="#4d824b"></rect>,<text font-size="12.60" x="746.0" y="151.4"><tspan x="746" y="151.38">North America</tspan></text></g><g class="legendMark"><rect x="735" y="156.4" width="58.124" height="17.6" fill="#fff" opacity="0"></rect>,<rect x="735" y="161.9" width="6" height="6" fill="#a652ba"></rect>,<text font-size="12.60" x="746.0" y="169.0"><tspan x="746" y="168.98">Oceania</tspan></text></g><g class="legendMark"><rect x="735" y="174" width="93.908" height="17.6" fill="#fff" opacity="0"></rect>,<rect x="735" y="179.5" width="6" height="6" fill="#69c487"></rect>,<text font-size="12.60" x="746.0" y="186.6"><tspan x="746" y="186.57999999999998">South America</tspan></text></g></g></g><g class="SourcesFooter" style="fill:#777"><g class="clickable" style="fill:#777"><text font-size="12.60" x="15.0" y="581.6"><tspan x="15" y="581.58">Source: GDP per capita, Lee and Lee (2016)</tspan></text></g><text font-size="12.60" x="492.4" y="581.6"><tspan x="492.406" y="581.58"><a target='_blank' style='fill: #777;' href='https://ourworldindata.org/global-rise-of-education-old'>OurWorldInData.org/global-rise-of-education-old</a> • <a style="fill: #777;" class="cclogo" href="http://creativecommons.org/licenses/by-sa/4.0/deed.en_US" target="_blank">CC BY-SA</a></tspan></text></g></g></svg>