<svg xmlns="http://www.w3.org/2000/svg" version="1.1" style="font-family:&#x27;Helvetica Neue&#x27;, Helvetica, Arial, sans-serif;font-size:18px;background-color:white;text-rendering:optimizeLegibility;-webkit-font-smoothing:antialiased" width="850" height="600"><g class="ChartTab"><g class="HeaderView"><g opacity="0.8" transform="translate(778, 15) scale(0.27)"><a xmlns:xlink="http://www.w3.org/1999/xlink" xlink:href="https://ourworldindata.org" target="_blank"><g><rect x="0" y="0" fill="#1B2543" width="211.2" height="130.1"/><rect x="0" y="112.2" fill="#E63912" width="211.2" height="17.9"/><g><rect x="1.2" y="12.3" fill="none" width="210.2" height="99.2"/><path fill="#FFFFFF" d="M37.8,32.2c0,12.7-7.7,19.4-17.1,19.4c-9.7,0-16.6-7.5-16.6-18.7c0-11.7,7.3-19.3,17.1-19.3 C31.3,13.7,37.8,21.3,37.8,32.2z M9.2,32.8c0,7.9,4.3,14.9,11.8,14.9c7.5,0,11.8-6.9,11.8-15.3c0-7.3-3.8-14.9-11.8-14.9 C13.1,17.5,9.2,24.8,9.2,32.8z"/><path fill="#FFFFFF" d="M62.7,43.8c0,2.7,0.1,5.1,0.2,7.2h-4.3l-0.3-4.3h-0.1c-1.3,2.1-4,4.9-8.8,4.9c-4.2,0-9.1-2.3-9.1-11.6 V24.6h4.8v14.6c0,5,1.5,8.4,5.9,8.4c3.2,0,5.5-2.2,6.3-4.4c0.3-0.7,0.4-1.6,0.4-2.5V24.6h4.8V43.8z"/><path fill="#FFFFFF" d="M67.3,32.8c0-3.1-0.1-5.8-0.2-8.2h4.2l0.2,5.2h0.2c1.2-3.5,4.1-5.8,7.3-5.8c0.5,0,0.9,0.1,1.4,0.2v4.5 c-0.5-0.1-1-0.2-1.6-0.2c-3.4,0-5.8,2.6-6.5,6.2c-0.1,0.7-0.2,1.4-0.2,2.2V51h-4.8V32.8z"/><path fill="#FFFFFF" d="M95.4,51l-9.4-36.8h5l4.4,18.6c1.1,4.6,2.1,9.2,2.7,12.7h0.1c0.6-3.7,1.8-8,3-12.8l4.9-18.5h5l4.5,18.7 c1,4.4,2,8.7,2.6,12.6h0.1c0.8-4,1.8-8.1,3-12.7l4.9-18.5h4.9L120.6,51h-5L111,31.9c-1.1-4.7-1.9-8.3-2.4-12h-0.1 c-0.7,3.7-1.5,7.3-2.8,12L100.4,51H95.4z"/><path fill="#FFFFFF" d="M154.9,37.6c0,9.8-6.8,14-13.2,14c-7.2,0-12.7-5.2-12.7-13.6c0-8.8,5.8-14,13.1-14 C149.8,24,154.9,29.5,154.9,37.6z M133.9,37.9c0,5.8,3.3,10.1,8,10.1c4.6,0,8-4.3,8-10.3c0-4.5-2.2-10.1-7.9-10.1 C136.3,27.6,133.9,32.8,133.9,37.9z"/><path fill="#FFFFFF" d="M158.2,32.8c0-3.1-0.1-5.8-0.2-8.2h4.2l0.2,5.2h0.2c1.2-3.5,4.1-5.8,7.3-5.8c0.5,0,0.9,0.1,1.4,0.2v4.5 c-0.5-0.1-1-0.2-1.6-0.2c-3.4,0-5.8,2.6-6.5,6.2c-0.1,0.7-0.2,1.4-0.2,2.2V51h-4.8V32.8z"/><path fill="#FFFFFF" d="M173.5,12.3h4.8V51h-4.8V12.3z"/><path fill="#FFFFFF" d="M206.5,12.3v31.9c0,2.3,0.1,5,0.2,6.8h-4.3l-0.2-4.6H202c-1.5,2.9-4.7,5.2-9,5.2 c-6.4,0-11.3-5.4-11.3-13.4c-0.1-8.8,5.4-14.2,11.9-14.2c4,0,6.8,1.9,8,4h0.1V12.3H206.5z M201.7,35.4c0-0.6-0.1-1.4-0.2-2 c-0.7-3.1-3.3-5.6-6.9-5.6c-5,0-7.9,4.4-7.9,10.2c0,5.3,2.6,9.8,7.8,9.8c3.2,0,6.2-2.1,7.1-5.7c0.2-0.7,0.2-1.3,0.2-2.1V35.4z"/><path fill="#FFFFFF" d="M42.8,64c0.1,1.6-1.1,2.9-3.1,2.9c-1.7,0-2.9-1.3-2.9-2.9c0-1.7,1.3-3,3-3C41.7,61,42.8,62.3,42.8,64z M37.4,97.8V71.4h4.8v26.4H37.4z"/><path fill="#FFFFFF" d="M47.5,78.6c0-2.7-0.1-5-0.2-7.1h4.3l0.3,4.4h0.1c1.3-2.5,4.4-5,8.8-5c3.7,0,9.4,2.2,9.4,11.2v15.8h-4.8 V82.6c0-4.3-1.6-7.8-6.1-7.8c-3.2,0-5.6,2.2-6.5,4.9c-0.2,0.6-0.3,1.4-0.3,2.2v15.9h-4.8V78.6z"/><path fill="#FFFFFF" d="M84,61.6c2.9-0.4,6.3-0.8,10.1-0.8c6.8,0,11.7,1.6,14.9,4.6c3.3,3,5.2,7.3,5.2,13.2c0,6-1.9,10.9-5.3,14.3 c-3.4,3.4-9.1,5.3-16.3,5.3c-3.4,0-6.2-0.2-8.6-0.4V61.6z M88.8,94.1c1.2,0.2,3,0.3,4.8,0.3c10.2,0,15.7-5.7,15.7-15.6 c0.1-8.7-4.9-14.2-14.9-14.2c-2.5,0-4.3,0.2-5.6,0.5V94.1z"/><path fill="#FFFFFF" d="M132.1,97.8l-0.4-3.3h-0.2c-1.5,2.1-4.3,3.9-8.1,3.9c-5.4,0-8.1-3.8-8.1-7.6c0-6.4,5.7-9.9,15.9-9.8v-0.5 c0-2.2-0.6-6.1-6-6.1c-2.5,0-5,0.8-6.9,2l-1.1-3.2c2.2-1.4,5.4-2.3,8.7-2.3c8.1,0,10.1,5.5,10.1,10.8v9.9c0,2.3,0.1,4.5,0.4,6.3 H132.1z M131.4,84.4c-5.3-0.1-11.2,0.8-11.2,5.9c0,3.1,2.1,4.6,4.5,4.6c3.4,0,5.6-2.2,6.4-4.4c0.2-0.5,0.3-1,0.3-1.5V84.4z"/><path fill="#FFFFFF" d="M146.6,63.9v7.6h6.9v3.7h-6.9v14.2c0,3.3,0.9,5.1,3.6,5.1c1.3,0,2.2-0.2,2.8-0.3l0.2,3.6 c-0.9,0.4-2.4,0.7-4.3,0.7c-2.2,0-4-0.7-5.2-2c-1.4-1.4-1.9-3.8-1.9-6.9V75.1h-4.1v-3.7h4.1v-6.3L146.6,63.9z"/><path fill="#FFFFFF" d="M171.4,97.8l-0.4-3.3h-0.2c-1.5,2.1-4.3,3.9-8.1,3.9c-5.4,0-8.1-3.8-8.1-7.6c0-6.4,5.7-9.9,15.9-9.8v-0.5 c0-2.2-0.6-6.1-6-6.1c-2.5,0-5,0.8-6.9,2l-1.1-3.2c2.2-1.4,5.4-2.3,8.7-2.3c8.1,0,10.1,5.5,10.1,10.8v9.9c0,2.3,0.1,4.5,0.4,6.3 H171.4z M170.7,84.4c-5.3-0.1-11.2,0.8-11.2,5.9c0,3.1,2.1,4.6,4.5,4.6c3.4,0,5.6-2.2,6.4-4.4c0.2-0.5,0.3-1,0.3-1.5V84.4z"/></g></g></a></g><a href="https://ourworldindata.org/grapher/death-rate-from-cancers-vs-income-inequality" target="_blank"><text font-size="25.20" x="15.0" y="35.2" fill="#555"><tspan x="15" y="35.160000000000004">Death rate from cancers vs. income inequality, 2014</tspan></text></a><text font-size="14.40" x="15.0" y="53.7" fill="#666"><tspan x="15" y="53.72">The death rate (measured as the number of deaths per 100,000 individuals) refers to all forms of cancers and is</tspan><tspan x="15" y="69.56">standardized for age to allow cross-country comparisons.</tspan></text></g><g><g class="AxisBoxView"><g class="HorizontalAxis"><text font-size="12.60" x="204.3" y="554.0"><tspan x="204.287" y="553.98">Income inequality (Gini; higher values = higher inequality)</tspan></text><text x="86.4" y="533.9" fill="#666" text-anchor="middle" font-size="16.2">0.25  </text><text x="169.1" y="533.9" fill="#666" text-anchor="middle" font-size="16.2">0.3  </text><text x="251.8" y="533.9" fill="#666" text-anchor="middle" font-size="16.2">0.35  </text><text x="334.5" y="533.9" fill="#666" text-anchor="middle" font-size="16.2">0.4  </text><text x="417.2" y="533.9" fill="#666" text-anchor="middle" font-size="16.2">0.45  </text><text x="499.9" y="533.9" fill="#666" text-anchor="middle" font-size="16.2">0.5  </text><text x="582.7" y="533.9" fill="#666" text-anchor="middle" font-size="16.2">0.55  </text><text x="665.4" y="533.9" fill="#666" text-anchor="middle" font-size="16.2">0.6  </text></g><g class="VerticalAxis"><text font-size="12.60" x="-433.7" y="25.1" transform="rotate(-90)"><tspan x="-433.66799999999995" y="25.080000000000002">Cancers – age-standardized death rate</tspan></text><text x="64.82" y="512.7" fill="#666" dominant-baseline="middle" text-anchor="end" font-size="16.2">0</text><text x="64.82" y="435.2" fill="#666" dominant-baseline="middle" text-anchor="end" font-size="16.2">50</text><text x="64.82" y="357.6" fill="#666" dominant-baseline="middle" text-anchor="end" font-size="16.2">100</text><text x="64.82" y="280.1" fill="#666" dominant-baseline="middle" text-anchor="end" font-size="16.2">150</text><text x="64.82" y="202.6" fill="#666" dominant-baseline="middle" text-anchor="end" font-size="16.2">200</text><text x="64.82" y="125.1" fill="#666" dominant-baseline="middle" text-anchor="end" font-size="16.2">250</text></g><g class="AxisGridLines"><line x1="69.82" y1="512.7" x2="715.00" y2="512.7" stroke="#ccc"></line><line x1="69.82" y1="435.2" x2="715.00" y2="435.2" stroke="#ddd" stroke-dasharray="3,2"></line><line x1="69.82" y1="357.6" x2="715.00" y2="357.6" stroke="#ddd" stroke-dasharray="3,2"></line><line x1="69.82" y1="280.1" x2="715.00" y2="280.1" stroke="#ddd" stroke-dasharray="3,2"></line><line x1="69.82" y1="202.6" x2="715.00" y2="202.6" stroke="#ddd" stroke-dasharray="3,2"></line><line x1="69.82" y1="125.1" x2="715.00" y2="125.1" stroke="#ddd" stroke-dasharray="3,2"></line></g><g class="AxisGridLines"><line x1="86.4" y1="512.70" x2="86.4" y2="92.10" stroke="#ddd" stroke-dasharray="3,2"></line><line x1="169.1" y1="512.70" x2="169.1" y2="92.10" stroke="#ddd" stroke-dasharray="3,2"></line><line x1="251.8" y1="512.70" x2="251.8" y2="92.10" stroke="#ddd" stroke-dasharray="3,2"></line><line x1="334.5" y1="512.70" x2="334.5" y2="92.10" stroke="#ddd" stroke-dasharray="3,2"></line><line x1="417.2" y1="512.70" x2="417.2" y2="92.10" stroke="#ddd" stroke-dasharray="3,2"></line><line x1="499.9" y1="512.70" x2="499.9" y2="92.10" stroke="#ddd" stroke-dasharray="3,2"></line><line x1="582.7" y1="512.70" x2="582.7" y2="92.10" stroke="#ddd" stroke-dasharray="3,2"></line><line x1="665.4" y1="512.70" x2="665.4" y2="92.10" stroke="#ddd" stroke-dasharray="3,2"></line></g></g><g class="PointsWithLabels clickable" clip-path="url(#scatterBounds-206)" font-family="Arial Narrow, Arial, sans-serif"><rect x="69.816" y="92.1" width="645.184" height="420.59999999999997" fill="rgba(255,255,255,0)"></rect><defs><clipPath id="scatterBounds-206"><rect x="59.816" y="82.1" width="665.184" height="440.59999999999997"></rect></clipPath></defs><g class="key-China_0"><circle cx="370.00" cy="260.00" r="17.84" fill="#d14e5b" opacity="0.8" stroke="#333" stroke-width="0.7"></circle></g><g class="key-India_0"><circle cx="253.00" cy="378.00" r="17.29" fill="#d14e5b" opacity="0.8" stroke="#333" stroke-width="0.7"></circle></g><g class="key-United-States_0"><circle cx="351.00" cy="290.00" r="8.78" fill="#4d824b" opacity="0.8" stroke="#333" stroke-width="0.7"></circle></g><g class="key-Indonesia_0"><circle cx="326.00" cy="383.00" r="7.78" fill="#d14e5b" opacity="0.8" stroke="#333" stroke-width="0.7"></circle></g><g class="key-Brazil_0"><circle cx="524.00" cy="318.00" r="7.04" fill="#69c487" opacity="0.8" stroke="#333" stroke-width="0.7"></circle></g><g class="key-Pakistan_0"><circle cx="180.00" cy="328.00" r="6.76" fill="#d14e5b" opacity="0.8" stroke="#333" stroke-width="0.7"></circle></g><g class="key-Nigeria_0"><circle cx="384.00" cy="349.00" r="6.54" fill="#5675c1" opacity="0.8" stroke="#333" stroke-width="0.7"></circle></g><g class="key-Bangladesh_0"><circle cx="208.00" cy="373.00" r="6.24" fill="#d14e5b" opacity="0.8" stroke="#fff" stroke-width="0.7"></circle></g><g class="key-Russia_0"><circle cx="360.00" cy="283.00" r="6.02" fill="#ffd336" opacity="0.8" stroke="#fff" stroke-width="0.7"></circle></g><g class="key-Mexico_0"><circle cx="430.00" cy="366.00" r="5.51" fill="#4d824b" opacity="0.8" stroke="#333" stroke-width="0.7"></circle></g><g class="key-Philippines_0"><circle cx="384.00" cy="325.00" r="5.09" fill="#d14e5b" opacity="0.8" stroke="#333" stroke-width="0.7"></circle></g><g class="key-Vietnam_0"><circle cx="248.00" cy="265.00" r="4.92" fill="#d14e5b" opacity="0.8" stroke="#333" stroke-width="0.7"></circle></g><g class="key-Ethiopia_0"><circle cx="319.00" cy="277.00" r="4.86" fill="#5675c1" opacity="0.8" stroke="#fff" stroke-width="0.7"></circle></g><g class="key-Egypt_0"><circle cx="198.00" cy="382.00" r="4.79" fill="#5675c1" opacity="0.8" stroke="#333" stroke-width="0.7"></circle></g><g class="key-Germany_0"><circle cx="187.00" cy="286.00" r="4.70" fill="#ffd336" opacity="0.8" stroke="#333" stroke-width="0.7"></circle></g><g class="key-Iran_0"><circle cx="314.00" cy="346.00" r="4.57" fill="#d14e5b" opacity="0.8" stroke="#333" stroke-width="0.7"></circle></g><g class="key-Turkey_0"><circle cx="354.00" cy="333.00" r="4.54" fill="#d14e5b" opacity="0.8" stroke="#fff" stroke-width="0.7"></circle></g><g class="key-Democratic-Republic-of-Congo_0"><circle cx="369.00" cy="336.00" r="4.44" fill="#5675c1" opacity="0.8" stroke="#fff" stroke-width="0.7"></circle></g><g class="key-Thailand_0"><circle cx="284.00" cy="310.00" r="4.41" fill="#d14e5b" opacity="0.8" stroke="#333" stroke-width="0.7"></circle></g><g class="key-France_0"><circle cx="207.00" cy="278.00" r="4.24" fill="#ffd336" opacity="0.8" stroke="#fff" stroke-width="0.7"></circle></g><g class="key-United-Kingdom_0"><circle cx="235.00" cy="265.00" r="4.22" fill="#ffd336" opacity="0.8" stroke="#fff" stroke-width="0.7"></circle></g><g class="key-Italy_0"><circle cx="246.00" cy="288.00" r="4.16" fill="#ffd336" opacity="0.8" stroke="#333" stroke-width="0.7"></circle></g><g class="key-South-Africa_0"><circle cx="715.00" cy="302.00" r="3.87" fill="#5675c1" opacity="0.8" stroke="#333" stroke-width="0.7"></circle></g><g class="key-Tanzania_0"><circle cx="298.00" cy="286.00" r="3.82" fill="#5675c1" opacity="0.8" stroke="#333" stroke-width="0.7"></circle></g><g class="key-Myanmar_0"><circle cx="303.00" cy="235.00" r="3.81" fill="#d14e5b" opacity="0.8" stroke="#333" stroke-width="0.7"></circle></g><g class="key-South-Korea_0"><circle cx="195.00" cy="287.00" r="3.80" fill="#d14e5b" opacity="0.8" stroke="#fff" stroke-width="0.7"></circle></g><g class="key-Colombia_0"><circle cx="546.00" cy="340.00" r="3.79" fill="#69c487" opacity="0.8" stroke="#333" stroke-width="0.7"></circle></g><g class="key-Spain_0"><circle cx="270.00" cy="307.00" r="3.75" fill="#ffd336" opacity="0.8" stroke="#fff" stroke-width="0.7"></circle></g><g class="key-Ukraine_0"><circle cx="69.00" cy="316.00" r="3.68" fill="#ffd336" opacity="0.8" stroke="#333" stroke-width="0.7"></circle></g><g class="key-Kenya_0"><circle cx="347.00" cy="382.00" r="3.65" fill="#5675c1" opacity="0.8" stroke="#fff" stroke-width="0.7"></circle></g><g class="key-Argentina_0"><circle cx="357.00" cy="271.00" r="3.58" fill="#69c487" opacity="0.8" stroke="#333" stroke-width="0.7"></circle></g><g class="key-Poland_0"><circle cx="203.00" cy="239.00" r="3.47" fill="#ffd336" opacity="0.8" stroke="#333" stroke-width="0.7"></circle></g><g class="key-Algeria_0"><circle cx="129.00" cy="408.00" r="3.43" fill="#5675c1" opacity="0.8" stroke="#333" stroke-width="0.7"></circle></g><g class="key-Uganda_0"><circle cx="351.00" cy="232.00" r="3.42" fill="#5675c1" opacity="0.8" stroke="#fff" stroke-width="0.7"></circle></g><g class="key-Sudan_0"><circle cx="258.00" cy="366.00" r="3.39" fill="#5675c1" opacity="0.8" stroke="#fff" stroke-width="0.7"></circle></g><g class="key-Canada_0"><circle cx="235.00" cy="282.00" r="3.36" fill="#4d824b" opacity="0.8" stroke="#fff" stroke-width="0.7"></circle></g><g class="key-Iraq_0"><circle cx="160.00" cy="357.00" r="3.35" fill="#d14e5b" opacity="0.8" stroke="#333" stroke-width="0.7"></circle></g><g class="key-Morocco_0"><circle cx="326.00" cy="386.00" r="3.29" fill="#5675c1" opacity="0.8" stroke="#fff" stroke-width="0.7"></circle></g><g class="key-Nepal_0"><circle cx="215.00" cy="373.00" r="3.24" fill="#d14e5b" opacity="0.8" stroke="#fff" stroke-width="0.7"></circle></g><g class="key-Peru_0"><circle cx="390.00" cy="347.00" r="3.18" fill="#69c487" opacity="0.8" stroke="#fff" stroke-width="0.7"></circle></g><g class="key-Malaysia_0"><circle cx="356.00" cy="324.00" r="3.17" fill="#d14e5b" opacity="0.8" stroke="#fff" stroke-width="0.7"></circle></g><g class="key-Ghana_0"><circle cx="374.00" cy="323.00" r="3.04" fill="#5675c1" opacity="0.8" stroke="#fff" stroke-width="0.7"></circle></g><g class="key-Mozambique_0"><circle cx="566.00" cy="305.00" r="2.99" fill="#5675c1" opacity="0.8" stroke="#333" stroke-width="0.7"></circle></g><g class="key-Australia_0"><circle cx="246.00" cy="302.00" r="2.92" fill="#a652ba" opacity="0.8" stroke="#fff" stroke-width="0.7"></circle></g><g class="key-Madagascar_0"><circle cx="377.00" cy="320.00" r="2.90" fill="#5675c1" opacity="0.8" stroke="#fff" stroke-width="0.7"></circle></g><g class="key-Sri-Lanka_0"><circle cx="321.00" cy="395.00" r="2.85" fill="#d14e5b" opacity="0.8" stroke="#333" stroke-width="0.7"></circle></g><g class="key-Romania_0"><circle cx="268.00" cy="271.00" r="2.85" fill="#ffd336" opacity="0.8" stroke="#fff" stroke-width="0.7"></circle></g><g class="key-Cote-d__0027Ivoire_0"><circle cx="359.00" cy="291.00" r="2.84" fill="#5675c1" opacity="0.8" stroke="#fff" stroke-width="0.7"></circle></g><g class="key-Cameroon_0"><circle cx="443.00" cy="264.00" r="2.83" fill="#5675c1" opacity="0.8" stroke="#333" stroke-width="0.7"></circle></g><g class="key-Burkina-Faso_0"><circle cx="256.00" cy="294.00" r="2.71" fill="#5675c1" opacity="0.8" stroke="#fff" stroke-width="0.7"></circle></g><g class="key-Chile_0"><circle cx="455.00" cy="300.00" r="2.69" fill="#69c487" opacity="0.8" stroke="#333" stroke-width="0.7"></circle></g><g class="key-Niger_0"><circle cx="240.00" cy="334.00" r="2.68" fill="#5675c1" opacity="0.8" stroke="#333" stroke-width="0.7"></circle></g><g class="key-Mali_0"><circle cx="218.00" cy="307.00" r="2.66" fill="#5675c1" opacity="0.8" stroke="#333" stroke-width="0.7"></circle></g><g class="key-Netherlands_0"><circle cx="145.00" cy="249.00" r="2.66" fill="#ffd336" opacity="0.8" stroke="#fff" stroke-width="0.7"></circle></g><g class="key-Kazakhstan_0"><circle cx="119.00" cy="319.00" r="2.65" fill="#d14e5b" opacity="0.8" stroke="#333" stroke-width="0.7"></circle></g><g class="key-Malawi_0"><circle cx="425.00" cy="234.00" r="2.64" fill="#5675c1" opacity="0.8" stroke="#333" stroke-width="0.7"></circle></g><g class="key-Guatemala_0"><circle cx="471.00" cy="337.00" r="2.60" fill="#4d824b" opacity="0.8" stroke="#333" stroke-width="0.7"></circle></g><g class="key-Ecuador_0"><circle cx="417.00" cy="344.00" r="2.58" fill="#69c487" opacity="0.8" stroke="#fff" stroke-width="0.7"></circle></g><g class="key-Cambodia_0"><circle cx="181.00" cy="296.00" r="2.56" fill="#d14e5b" opacity="0.8" stroke="#fff" stroke-width="0.7"></circle></g><g class="key-Zambia_0"><circle cx="617.00" cy="250.00" r="2.55" fill="#5675c1" opacity="0.8" stroke="#333" stroke-width="0.7"></circle></g><g class="key-Senegal_0"><circle cx="339.00" cy="284.00" r="2.51" fill="#5675c1" opacity="0.8" stroke="#fff" stroke-width="0.7"></circle></g><g class="key-Zimbabwe_0"><circle cx="387.00" cy="131.00" r="2.50" fill="#5675c1" opacity="0.8" stroke="#333" stroke-width="0.7"></circle></g><g class="key-Chad_0"><circle cx="389.00" cy="315.00" r="2.45" fill="#5675c1" opacity="0.8" stroke="#fff" stroke-width="0.7"></circle></g><g class="key-Rwanda_0"><circle cx="418.00" cy="307.00" r="2.42" fill="#5675c1" opacity="0.8" stroke="#fff" stroke-width="0.7"></circle></g><g class="key-Greece_0"><circle cx="265.00" cy="295.00" r="2.41" fill="#ffd336" opacity="0.8" stroke="#fff" stroke-width="0.7"></circle></g><g class="key-South-Sudan_0"><circle cx="438.00" cy="320.00" r="2.39" fill="#5675c1" opacity="0.8" stroke="#fff" stroke-width="0.7"></circle></g><g class="key-Belgium_0"><circle cx="137.00" cy="275.00" r="2.38" fill="#ffd336" opacity="0.8" stroke="#333" stroke-width="0.7"></circle></g><g class="key-Tunisia_0"><circle cx="265.00" cy="350.00" r="2.38" fill="#5675c1" opacity="0.8" stroke="#fff" stroke-width="0.7"></circle></g><g class="key-Guinea_0"><circle cx="230.00" cy="297.00" r="2.38" fill="#5675c1" opacity="0.8" stroke="#fff" stroke-width="0.7"></circle></g><g class="key-Portugal_0"><circle cx="261.00" cy="290.00" r="2.38" fill="#ffd336" opacity="0.8" stroke="#fff" stroke-width="0.7"></circle></g><g class="key-Czech-Republic_0"><circle cx="101.00" cy="260.00" r="2.37" fill="#ffd336" opacity="0.8" stroke="#333" stroke-width="0.7"></circle></g><g class="key-Bolivia_0"><circle cx="463.00" cy="276.00" r="2.36" fill="#69c487" opacity="0.8" stroke="#333" stroke-width="0.7"></circle></g><g class="key-Haiti_0"><circle cx="352.00" cy="238.00" r="2.36" fill="#4d824b" opacity="0.8" stroke="#fff" stroke-width="0.7"></circle></g><g class="key-Dominican-Republic_0"><circle cx="402.00" cy="353.00" r="2.36" fill="#4d824b" opacity="0.8" stroke="#fff" stroke-width="0.7"></circle></g><g class="key-Hungary_0"><circle cx="184.00" cy="192.00" r="2.34" fill="#ffd336" opacity="0.8" stroke="#333" stroke-width="0.7"></circle></g><g class="key-Serbia_0"><circle cx="153.00" cy="233.00" r="2.33" fill="#ffd336" opacity="0.8" stroke="#333" stroke-width="0.7"></circle></g><g class="key-Benin_0"><circle cx="463.00" cy="300.00" r="2.32" fill="#5675c1" opacity="0.8" stroke="#fff" stroke-width="0.7"></circle></g><g class="key-Sweden_0"><circle cx="142.00" cy="305.00" r="2.32" fill="#ffd336" opacity="0.8" stroke="#333" stroke-width="0.7"></circle></g><g class="key-Belarus_0"><circle cx="122.00" cy="300.00" r="2.32" fill="#ffd336" opacity="0.8" stroke="#fff" stroke-width="0.7"></circle></g><g class="key-Burundi_0"><circle cx="311.00" cy="291.00" r="2.29" fill="#5675c1" opacity="0.8" stroke="#fff" stroke-width="0.7"></circle></g><g class="key-Austria_0"><circle cx="177.00" cy="302.00" r="2.26" fill="#ffd336" opacity="0.8" stroke="#fff" stroke-width="0.7"></circle></g><g class="key-Honduras_0"><circle cx="506.00" cy="327.00" r="2.24" fill="#4d824b" opacity="0.8" stroke="#fff" stroke-width="0.7"></circle></g><g class="key-Israel_0"><circle cx="357.00" cy="303.00" r="2.23" fill="#d14e5b" opacity="0.8" stroke="#333" stroke-width="0.7"></circle></g><g class="key-Switzerland_0"><circle cx="210.00" cy="324.00" r="2.23" fill="#ffd336" opacity="0.8" stroke="#fff" stroke-width="0.7"></circle></g><g class="key-Bulgaria_0"><circle cx="291.00" cy="291.00" r="2.21" fill="#ffd336" opacity="0.8" stroke="#fff" stroke-width="0.7"></circle></g><g class="key-Papua-New-Guinea_0"><circle cx="365.00" cy="322.00" r="2.21" fill="#a652ba" opacity="0.8" stroke="#fff" stroke-width="0.7"></circle></g><g class="key-Tajikistan_0"><circle cx="181.00" cy="381.00" r="2.20" fill="#d14e5b" opacity="0.8" stroke="#fff" stroke-width="0.7"></circle></g><g class="key-Paraguay_0"><circle cx="511.00" cy="302.00" r="2.18" fill="#69c487" opacity="0.8" stroke="#fff" stroke-width="0.7"></circle></g><g class="key-Jordan_0"><circle cx="230.00" cy="360.00" r="2.17" fill="#d14e5b" opacity="0.8" stroke="#fff" stroke-width="0.7"></circle></g><g class="key-Laos_0"><circle cx="275.00" cy="320.00" r="2.16" fill="#d14e5b" opacity="0.8" stroke="#333" stroke-width="0.7"></circle></g><g class="key-Togo_0"><circle cx="385.00" cy="289.00" r="2.16" fill="#5675c1" opacity="0.8" stroke="#fff" stroke-width="0.7"></circle></g><g class="key-El-Salvador_0"><circle cx="361.00" cy="357.00" r="2.15" fill="#4d824b" opacity="0.8" stroke="#333" stroke-width="0.7"></circle></g><g class="key-Sierra-Leone_0"><circle cx="235.00" cy="301.00" r="2.15" fill="#5675c1" opacity="0.8" stroke="#fff" stroke-width="0.7"></circle></g><g class="key-Nicaragua_0"><circle cx="437.00" cy="385.00" r="2.14" fill="#4d824b" opacity="0.8" stroke="#333" stroke-width="0.7"></circle></g><g class="key-Denmark_0"><circle cx="142.00" cy="245.00" r="2.11" fill="#ffd336" opacity="0.8" stroke="#333" stroke-width="0.7"></circle></g><g class="key-Kyrgyzstan_0"><circle cx="116.00" cy="359.00" r="2.11" fill="#d14e5b" opacity="0.8" stroke="#fff" stroke-width="0.7"></circle></g><g class="key-Slovakia_0"><circle cx="104.00" cy="249.00" r="2.11" fill="#ffd336" opacity="0.8" stroke="#fff" stroke-width="0.7"></circle></g><g class="key-Finland_0"><circle cx="116.00" cy="324.00" r="2.10" fill="#ffd336" opacity="0.8" stroke="#fff" stroke-width="0.7"></circle></g><g class="key-Norway_0"><circle cx="116.00" cy="295.00" r="2.08" fill="#ffd336" opacity="0.8" stroke="#fff" stroke-width="0.7"></circle></g><g class="key-Costa-Rica_0"><circle cx="476.00" cy="341.00" r="2.07" fill="#4d824b" opacity="0.8" stroke="#fff" stroke-width="0.7"></circle></g><g class="key-Ireland_0"><circle cx="200.00" cy="276.00" r="2.06" fill="#ffd336" opacity="0.8" stroke="#fff" stroke-width="0.7"></circle></g><g class="key-Croatia_0"><circle cx="203.00" cy="228.00" r="2.04" fill="#ffd336" opacity="0.8" stroke="#fff" stroke-width="0.7"></circle></g><g class="key-Liberia_0"><circle cx="222.00" cy="306.00" r="2.04" fill="#5675c1" opacity="0.8" stroke="#fff" stroke-width="0.7"></circle></g><g class="key-Congo_0"><circle cx="481.00" cy="288.00" r="2.04" fill="#5675c1" opacity="0.8" stroke="#333" stroke-width="0.7"></circle></g><g class="key-Lebanon_0"><circle cx="198.00" cy="304.00" r="2.04" fill="#d14e5b" opacity="0.8" stroke="#fff" stroke-width="0.7"></circle></g><g class="key-Georgia_0"><circle cx="289.00" cy="311.00" r="2.04" fill="#d14e5b" opacity="0.8" stroke="#fff" stroke-width="0.7"></circle></g><g class="key-Bosnia-and-Herzegovina_0"><circle cx="213.00" cy="256.00" r="2.01" fill="#ffd336" opacity="0.8" stroke="#fff" stroke-width="0.7"></circle></g><g class="key-Mauritania_0"><circle cx="212.00" cy="317.00" r="2.01" fill="#5675c1" opacity="0.8" stroke="#fff" stroke-width="0.7"></circle></g><g class="key-Panama_0"><circle cx="509.00" cy="352.00" r="2.00" fill="#4d824b" opacity="0.8" stroke="#333" stroke-width="0.7"></circle></g><g class="key-Moldova_0"><circle cx="116.00" cy="315.00" r="1.99" fill="#ffd336" opacity="0.8" stroke="#fff" stroke-width="0.7"></circle></g><g class="key-Uruguay_0"><circle cx="336.00" cy="213.00" r="1.99" fill="#69c487" opacity="0.8" stroke="#333" stroke-width="0.7"></circle></g><g class="key-Lithuania_0"><circle cx="296.00" cy="276.00" r="1.98" fill="#ffd336" opacity="0.8" stroke="#fff" stroke-width="0.7"></circle></g><g class="key-Albania_0"><circle cx="152.00" cy="321.00" r="1.98" fill="#ffd336" opacity="0.8" stroke="#fff" stroke-width="0.7"></circle></g><g class="key-Armenia_0"><circle cx="193.00" cy="278.00" r="1.97" fill="#d14e5b" opacity="0.8" stroke="#fff" stroke-width="0.7"></circle></g><g class="key-Mongolia_0"><circle cx="202.00" cy="92.00" r="1.96" fill="#d14e5b" opacity="0.8" stroke="#333" stroke-width="0.7"></circle></g><g class="key-Namibia_0"><circle cx="650.00" cy="376.00" r="1.93" fill="#5675c1" opacity="0.8" stroke="#333" stroke-width="0.7"></circle></g><g class="key-Lesotho_0"><circle cx="569.00" cy="245.00" r="1.92" fill="#5675c1" opacity="0.8" stroke="#333" stroke-width="0.7"></circle></g><g class="key-Latvia_0"><circle cx="253.00" cy="267.00" r="1.92" fill="#ffd336" opacity="0.8" stroke="#fff" stroke-width="0.7"></circle></g><g class="key-Botswana_0"><circle cx="673.00" cy="291.00" r="1.91" fill="#5675c1" opacity="0.8" stroke="#fff" stroke-width="0.7"></circle></g><g class="key-Macedonia_0"><circle cx="261.00" cy="247.00" r="1.91" fill="#ffd336" opacity="0.8" stroke="#333" stroke-width="0.7"></circle></g><g class="key-Slovenia_0"><circle cx="97.00" cy="270.00" r="1.91" fill="#ffd336" opacity="0.8" stroke="#fff" stroke-width="0.7"></circle></g><g class="key-Gambia_0"><circle cx="266.00" cy="321.00" r="1.90" fill="#5675c1" opacity="0.8" stroke="#fff" stroke-width="0.7"></circle></g><g class="key-Guinea__002dBissau_0"><circle cx="511.00" cy="256.00" r="1.88" fill="#5675c1" opacity="0.8" stroke="#333" stroke-width="0.7"></circle></g><g class="key-Gabon_0"><circle cx="301.00" cy="282.00" r="1.88" fill="#5675c1" opacity="0.8" stroke="#fff" stroke-width="0.7"></circle></g><g class="key-Estonia_0"><circle cx="245.00" cy="280.00" r="1.86" fill="#ffd336" opacity="0.8" stroke="#fff" stroke-width="0.7"></circle></g><g class="key-Mauritius_0"><circle cx="265.00" cy="364.00" r="1.86" fill="#5675c1" opacity="0.8" stroke="#fff" stroke-width="0.7"></circle></g><g class="key-Swaziland_0"><circle cx="524.00" cy="278.00" r="1.86" fill="#5675c1" opacity="0.8" stroke="#333" stroke-width="0.7"></circle></g><g class="key-Cyprus_0"><circle cx="261.00" cy="315.00" r="1.85" fill="#ffd336" opacity="0.8" stroke="#fff" stroke-width="0.7"></circle></g><g class="key-Djibouti_0"><circle cx="402.00" cy="296.00" r="1.84" fill="#5675c1" opacity="0.8" stroke="#333" stroke-width="0.7"></circle></g><g class="key-Fiji_0"><circle cx="279.00" cy="323.00" r="1.84" fill="#a652ba" opacity="0.8" stroke="#fff" stroke-width="0.7"></circle></g><g class="key-Comoros_0"><circle cx="422.00" cy="294.00" r="1.83" fill="#5675c1" opacity="0.8" stroke="#fff" stroke-width="0.7"></circle></g><g class="key-Bhutan_0"><circle cx="314.00" cy="389.00" r="1.83" fill="#d14e5b" opacity="0.8" stroke="#fff" stroke-width="0.7"></circle></g><g class="key-Montenegro_0"><circle cx="200.00" cy="285.00" r="1.82" fill="#ffd336" opacity="0.8" stroke="#fff" stroke-width="0.7"></circle></g><g class="key-Solomon-Islands_0"><circle cx="286.00" cy="264.00" r="1.82" fill="#a652ba" opacity="0.8" stroke="#fff" stroke-width="0.7"></circle></g><g class="key-Luxembourg_0"><circle cx="188.00" cy="291.00" r="1.81" fill="#ffd336" opacity="0.8" stroke="#fff" stroke-width="0.7"></circle></g><g class="key-Malta_0"><circle cx="152.00" cy="319.00" r="1.81" fill="#ffd336" opacity="0.8" stroke="#fff" stroke-width="0.7"></circle></g><g class="key-Iceland_0"><circle cx="132.00" cy="288.00" r="1.80" fill="#ffd336" opacity="0.8" stroke="#333" stroke-width="0.7"></circle></g><g class="key-Maldives_0"><circle cx="308.00" cy="400.00" r="1.80" fill="#d14e5b" opacity="0.8" stroke="#fff" stroke-width="0.7"></circle></g><g class="key-Vanuatu_0"><circle cx="294.00" cy="294.00" r="1.80" fill="#a652ba" opacity="0.8" stroke="#fff" stroke-width="0.7"></circle></g><g class="key-Sao-Tome-and-Principe_0"><circle cx="182.00" cy="310.00" r="1.79" fill="#5675c1" opacity="0.8" stroke="#fff" stroke-width="0.7"></circle></g><g class="key-Tonga_0"><circle cx="293.00" cy="217.00" r="1.79" fill="#a652ba" opacity="0.8" stroke="#333" stroke-width="0.7"></circle></g><g class="key-Seychelles_0"><circle cx="447.00" cy="260.00" r="1.78" fill="#5675c1" opacity="0.8" stroke="#fff" stroke-width="0.7"></circle></g><g class="key-Micronesia-__0028country__0029_0"><circle cx="336.00" cy="276.00" r="1.78" fill="#a652ba" opacity="0.8" stroke="#fff" stroke-width="0.7"></circle></g><g class="key-Palestine_0"><circle cx="230.00" cy="305.00" r="1.78" fill="#d14e5b" opacity="0.8" stroke="#fff" stroke-width="0.7"></circle></g><g class="key-Yemen_0"><circle cx="279.00" cy="352.00" r="1.78" fill="#d14e5b" opacity="0.8" stroke="#fff" stroke-width="0.7"></circle></g><g class="backgroundLabels" fill="#333"><text x="370.00" y="241.16" font-size="14.30">China</text><text x="253.00" y="359.71" font-size="14.10">India</text><text x="351.00" y="280.22" font-size="11.77">United States</text><text x="326.00" y="374.22" font-size="11.60">Indonesia</text><text x="524.00" y="309.96" font-size="11.49">Brazil</text><text x="180.00" y="320.24" font-size="11.44">Pakistan</text><text x="384.00" y="341.46" font-size="11.41">Nigeria</text><text x="430.00" y="359.49" font-size="11.29">Mexico</text><text x="384.00" y="318.91" font-size="11.24">Philippines</text><text x="248.00" y="259.08" font-size="11.22">Vietnam</text><text x="198.00" y="376.21" font-size="11.21">Egypt</text><text x="187.00" y="280.30" font-size="11.20">Germany</text><text x="314.00" y="340.43" font-size="11.19">Iran</text><text x="284.00" y="304.59" font-size="11.17">Thailand</text><text x="246.00" y="282.84" font-size="11.15">Italy</text><text x="654.15" y="297.13" font-size="11.12">South Africa</text><text x="298.00" y="281.18" font-size="11.12">Tanzania</text><text x="303.00" y="230.19" font-size="11.12">Myanmar</text><text x="546.00" y="335.21" font-size="11.12">Colombia</text><text x="69.00" y="311.32" font-size="11.11">Ukraine</text><text x="357.00" y="266.42" font-size="11.10">Argentina</text><text x="203.00" y="234.53" font-size="11.09">Poland</text><text x="129.00" y="403.57" font-size="11.09">Algeria</text><text x="160.00" y="352.65" font-size="11.08">Iraq</text><text x="566.00" y="301.01" font-size="11.06">Mozambique</text><text x="321.00" y="391.15" font-size="11.05">Sri Lanka</text><text x="443.00" y="260.17" font-size="11.05">Cameroon</text><text x="455.00" y="296.31" font-size="11.04">Chile</text><text x="240.00" y="330.32" font-size="11.04">Niger</text><text x="218.00" y="303.34" font-size="11.04">Mali</text><text x="119.00" y="315.35" font-size="11.04">Kazakhstan</text><text x="425.00" y="230.36" font-size="11.04">Malawi</text><text x="471.00" y="333.40" font-size="11.04">Guatemala</text><text x="617.00" y="246.45" font-size="11.03">Zambia</text><text x="387.00" y="127.50" font-size="11.03">Zimbabwe</text><text x="137.00" y="271.62" font-size="11.03">Belgium</text><text x="101.00" y="256.63" font-size="11.03">Czech Republic</text><text x="463.00" y="272.64" font-size="11.03">Bolivia</text><text x="184.00" y="188.66" font-size="11.02">Hungary</text><text x="153.00" y="229.67" font-size="11.02">Serbia</text><text x="142.00" y="301.68" font-size="11.02">Sweden</text><text x="357.00" y="299.77" font-size="11.02">Israel</text><text x="275.00" y="316.84" font-size="11.02">Laos</text><text x="361.00" y="353.85" font-size="11.02">El Salvador</text><text x="437.00" y="381.86" font-size="11.01">Nicaragua</text><text x="142.00" y="241.89" font-size="11.01">Denmark</text><text x="481.00" y="284.96" font-size="11.01">Congo</text><text x="509.00" y="349.00" font-size="11.01">Panama</text><text x="336.00" y="210.01" font-size="11.01">Uruguay</text><text x="202.00" y="103.11" font-size="11.01">Mongolia</text><text x="650.00" y="373.07" font-size="11.01">Namibia</text><text x="569.00" y="242.08" font-size="11.01">Lesotho</text><text x="261.00" y="244.09" font-size="11.00">Macedonia</text><text x="511.00" y="253.12" font-size="11.00">Guinea-Bissau</text><text x="524.00" y="275.14" font-size="11.00">Swaziland</text><text x="402.00" y="293.16" font-size="11.00">Djibouti</text><text x="132.00" y="285.20" font-size="11.00">Iceland</text><text x="293.00" y="214.21" font-size="11.00">Tonga</text></g></g><g class="ScatterColorLegend clickable" style="cursor:pointer"><g class="legendMark"><rect x="735" y="89.6" width="43.256" height="17.6" fill="#fff" opacity="0"></rect>,<rect x="735" y="95.1" width="6" height="6" fill="#5675c1"></rect>,<text font-size="12.60" x="746.0" y="102.2"><tspan x="746" y="102.17999999999999">Africa</tspan></text></g><g class="legendMark"><rect x="735" y="107.19999999999999" width="35.57" height="17.6" fill="#fff" opacity="0"></rect>,<rect x="735" y="112.69999999999999" width="6" height="6" fill="#d14e5b"></rect>,<text font-size="12.60" x="746.0" y="119.8"><tspan x="746" y="119.77999999999999">Asia</tspan></text></g><g class="legendMark"><rect x="735" y="124.8" width="51.824" height="17.6" fill="#fff" opacity="0"></rect>,<rect x="735" y="130.3" width="6" height="6" fill="#ffd336"></rect>,<text font-size="12.60" x="746.0" y="137.4"><tspan x="746" y="137.38">Europe</tspan></text></g><g class="legendMark"><rect x="735" y="142.4" width="91.64" height="17.6" fill="#fff" opacity="0"></rect>,<rect x="735" y="147.9" width="6" height="6" fill="#4d824b"></rect>,<text font-size="12.60" x="746.0" y="155.0"><tspan x="746" y="154.98">North America</tspan></text></g><g class="legendMark"><rect x="735" y="160" width="58.124" height="17.6" fill="#fff" opacity="0"></rect>,<rect x="735" y="165.5" width="6" height="6" fill="#a652ba"></rect>,<text font-size="12.60" x="746.0" y="172.6"><tspan x="746" y="172.57999999999998">Oceania</tspan></text></g><g class="legendMark"><rect x="735" y="177.6" width="93.908" height="17.6" fill="#fff" opacity="0"></rect>,<rect x="735" y="183.1" width="6" height="6" fill="#69c487"></rect>,<text font-size="12.60" x="746.0" y="190.2"><tspan x="746" y="190.17999999999998">South America</tspan></text></g></g></g><g class="SourcesFooter" style="fill:#777"><g class="clickable" style="fill:#777"><text font-size="12.60" x="15.0" y="581.6"><tspan x="15" y="581.58">Source: IHME (2017), World Bank – WDI</tspan></text></g><text font-size="12.60" x="775.4" y="581.6"><tspan x="775.402" y="581.58"><a style="fill: #777;" class="cclogo" href="http://creativecommons.org/licenses/by-sa/4.0/deed.en_US" target="_blank">CC BY-SA</a></tspan></text></g></g></svg>