<svg xmlns="http://www.w3.org/2000/svg" version="1.1" style="font-family:&#x27;Helvetica Neue&#x27;, Helvetica, Arial, sans-serif;font-size:18px;background-color:white;text-rendering:optimizeLegibility;-webkit-font-smoothing:antialiased" width="850" height="600"><g class="ChartTab"><g class="HeaderView"><g opacity="0.8" transform="translate(778, 15) scale(0.27)"><a xmlns:xlink="http://www.w3.org/1999/xlink" xlink:href="https://ourworldindata.org" target="_blank"><g><rect x="0" y="0" fill="#1B2543" width="211.2" height="130.1"/><rect x="0" y="112.2" fill="#E63912" width="211.2" height="17.9"/><g><rect x="1.2" y="12.3" fill="none" width="210.2" height="99.2"/><path fill="#FFFFFF" d="M37.8,32.2c0,12.7-7.7,19.4-17.1,19.4c-9.7,0-16.6-7.5-16.6-18.7c0-11.7,7.3-19.3,17.1-19.3 C31.3,13.7,37.8,21.3,37.8,32.2z M9.2,32.8c0,7.9,4.3,14.9,11.8,14.9c7.5,0,11.8-6.9,11.8-15.3c0-7.3-3.8-14.9-11.8-14.9 C13.1,17.5,9.2,24.8,9.2,32.8z"/><path fill="#FFFFFF" d="M62.7,43.8c0,2.7,0.1,5.1,0.2,7.2h-4.3l-0.3-4.3h-0.1c-1.3,2.1-4,4.9-8.8,4.9c-4.2,0-9.1-2.3-9.1-11.6 V24.6h4.8v14.6c0,5,1.5,8.4,5.9,8.4c3.2,0,5.5-2.2,6.3-4.4c0.3-0.7,0.4-1.6,0.4-2.5V24.6h4.8V43.8z"/><path fill="#FFFFFF" d="M67.3,32.8c0-3.1-0.1-5.8-0.2-8.2h4.2l0.2,5.2h0.2c1.2-3.5,4.1-5.8,7.3-5.8c0.5,0,0.9,0.1,1.4,0.2v4.5 c-0.5-0.1-1-0.2-1.6-0.2c-3.4,0-5.8,2.6-6.5,6.2c-0.1,0.7-0.2,1.4-0.2,2.2V51h-4.8V32.8z"/><path fill="#FFFFFF" d="M95.4,51l-9.4-36.8h5l4.4,18.6c1.1,4.6,2.1,9.2,2.7,12.7h0.1c0.6-3.7,1.8-8,3-12.8l4.9-18.5h5l4.5,18.7 c1,4.4,2,8.7,2.6,12.6h0.1c0.8-4,1.8-8.1,3-12.7l4.9-18.5h4.9L120.6,51h-5L111,31.9c-1.1-4.7-1.9-8.3-2.4-12h-0.1 c-0.7,3.7-1.5,7.3-2.8,12L100.4,51H95.4z"/><path fill="#FFFFFF" d="M154.9,37.6c0,9.8-6.8,14-13.2,14c-7.2,0-12.7-5.2-12.7-13.6c0-8.8,5.8-14,13.1-14 C149.8,24,154.9,29.5,154.9,37.6z M133.9,37.9c0,5.8,3.3,10.1,8,10.1c4.6,0,8-4.3,8-10.3c0-4.5-2.2-10.1-7.9-10.1 C136.3,27.6,133.9,32.8,133.9,37.9z"/><path fill="#FFFFFF" d="M158.2,32.8c0-3.1-0.1-5.8-0.2-8.2h4.2l0.2,5.2h0.2c1.2-3.5,4.1-5.8,7.3-5.8c0.5,0,0.9,0.1,1.4,0.2v4.5 c-0.5-0.1-1-0.2-1.6-0.2c-3.4,0-5.8,2.6-6.5,6.2c-0.1,0.7-0.2,1.4-0.2,2.2V51h-4.8V32.8z"/><path fill="#FFFFFF" d="M173.5,12.3h4.8V51h-4.8V12.3z"/><path fill="#FFFFFF" d="M206.5,12.3v31.9c0,2.3,0.1,5,0.2,6.8h-4.3l-0.2-4.6H202c-1.5,2.9-4.7,5.2-9,5.2 c-6.4,0-11.3-5.4-11.3-13.4c-0.1-8.8,5.4-14.2,11.9-14.2c4,0,6.8,1.9,8,4h0.1V12.3H206.5z M201.7,35.4c0-0.6-0.1-1.4-0.2-2 c-0.7-3.1-3.3-5.6-6.9-5.6c-5,0-7.9,4.4-7.9,10.2c0,5.3,2.6,9.8,7.8,9.8c3.2,0,6.2-2.1,7.1-5.7c0.2-0.7,0.2-1.3,0.2-2.1V35.4z"/><path fill="#FFFFFF" d="M42.8,64c0.1,1.6-1.1,2.9-3.1,2.9c-1.7,0-2.9-1.3-2.9-2.9c0-1.7,1.3-3,3-3C41.7,61,42.8,62.3,42.8,64z M37.4,97.8V71.4h4.8v26.4H37.4z"/><path fill="#FFFFFF" d="M47.5,78.6c0-2.7-0.1-5-0.2-7.1h4.3l0.3,4.4h0.1c1.3-2.5,4.4-5,8.8-5c3.7,0,9.4,2.2,9.4,11.2v15.8h-4.8 V82.6c0-4.3-1.6-7.8-6.1-7.8c-3.2,0-5.6,2.2-6.5,4.9c-0.2,0.6-0.3,1.4-0.3,2.2v15.9h-4.8V78.6z"/><path fill="#FFFFFF" d="M84,61.6c2.9-0.4,6.3-0.8,10.1-0.8c6.8,0,11.7,1.6,14.9,4.6c3.3,3,5.2,7.3,5.2,13.2c0,6-1.9,10.9-5.3,14.3 c-3.4,3.4-9.1,5.3-16.3,5.3c-3.4,0-6.2-0.2-8.6-0.4V61.6z M88.8,94.1c1.2,0.2,3,0.3,4.8,0.3c10.2,0,15.7-5.7,15.7-15.6 c0.1-8.7-4.9-14.2-14.9-14.2c-2.5,0-4.3,0.2-5.6,0.5V94.1z"/><path fill="#FFFFFF" d="M132.1,97.8l-0.4-3.3h-0.2c-1.5,2.1-4.3,3.9-8.1,3.9c-5.4,0-8.1-3.8-8.1-7.6c0-6.4,5.7-9.9,15.9-9.8v-0.5 c0-2.2-0.6-6.1-6-6.1c-2.5,0-5,0.8-6.9,2l-1.1-3.2c2.2-1.4,5.4-2.3,8.7-2.3c8.1,0,10.1,5.5,10.1,10.8v9.9c0,2.3,0.1,4.5,0.4,6.3 H132.1z M131.4,84.4c-5.3-0.1-11.2,0.8-11.2,5.9c0,3.1,2.1,4.6,4.5,4.6c3.4,0,5.6-2.2,6.4-4.4c0.2-0.5,0.3-1,0.3-1.5V84.4z"/><path fill="#FFFFFF" d="M146.6,63.9v7.6h6.9v3.7h-6.9v14.2c0,3.3,0.9,5.1,3.6,5.1c1.3,0,2.2-0.2,2.8-0.3l0.2,3.6 c-0.9,0.4-2.4,0.7-4.3,0.7c-2.2,0-4-0.7-5.2-2c-1.4-1.4-1.9-3.8-1.9-6.9V75.1h-4.1v-3.7h4.1v-6.3L146.6,63.9z"/><path fill="#FFFFFF" d="M171.4,97.8l-0.4-3.3h-0.2c-1.5,2.1-4.3,3.9-8.1,3.9c-5.4,0-8.1-3.8-8.1-7.6c0-6.4,5.7-9.9,15.9-9.8v-0.5 c0-2.2-0.6-6.1-6-6.1c-2.5,0-5,0.8-6.9,2l-1.1-3.2c2.2-1.4,5.4-2.3,8.7-2.3c8.1,0,10.1,5.5,10.1,10.8v9.9c0,2.3,0.1,4.5,0.4,6.3 H171.4z M170.7,84.4c-5.3-0.1-11.2,0.8-11.2,5.9c0,3.1,2.1,4.6,4.5,4.6c3.4,0,5.6-2.2,6.4-4.4c0.2-0.5,0.3-1,0.3-1.5V84.4z"/></g></g></a></g><a href="https://ourworldindata.org/grapher/death-rates-from-indoor-air-pollution-vs-share-of-population-in-absolute-poverty?time=2015" target="_blank"><text font-size="21.60" x="15.0" y="32.3" fill="#555"><tspan x="15" y="32.279999999999994">Death rates from indoor air pollution vs. share of population in absolute</tspan><tspan x="15" y="53.87999999999999">poverty, 2015</tspan></text></a><text font-size="14.40" x="15.0" y="72.7" fill="#666"><tspan x="15" y="72.72">Age-standardized death rates from illness attributed to household air pollution from solid cooking fuels, measured per 100,000</tspan><tspan x="15" y="88.56">individuals versus the share of the total population in absolute poverty (which is defined by a $1.90 poverty line corrected for</tspan><tspan x="15" y="104.4">cross-country price differences).</tspan></text></g><g><g class="AxisBoxView"><g class="HorizontalAxis"><text font-size="12.60" x="172.2" y="539.4"><tspan x="172.157" y="539.38">Poverty headcount ratio at $1.90 a day (2011 PPP) (% of population)</tspan></text><text x="60.7" y="519.3" fill="#666" text-anchor="middle" font-size="16.2">0%</text><text x="174.5" y="519.3" fill="#666" text-anchor="middle" font-size="16.2">10%</text><text x="288.3" y="519.3" fill="#666" text-anchor="middle" font-size="16.2">20%</text><text x="402.1" y="519.3" fill="#666" text-anchor="middle" font-size="16.2">30%</text><text x="515.9" y="519.3" fill="#666" text-anchor="middle" font-size="16.2">40%</text><text x="629.7" y="519.3" fill="#666" text-anchor="middle" font-size="16.2">50%</text></g><g class="VerticalAxis"><text font-size="12.60" x="-509.3" y="25.1" transform="rotate(-90)"><tspan x="-509.264" y="25.080000000000002">Air pollution death rates (indoor solid fuels) per 100,000- IHME</tspan></text><text x="55.74" y="498.1" fill="#666" dominant-baseline="middle" text-anchor="end" font-size="16.2">0</text><text x="55.74" y="451" fill="#666" dominant-baseline="middle" text-anchor="end" font-size="16.2">10</text><text x="55.74" y="403.8" fill="#666" dominant-baseline="middle" text-anchor="end" font-size="16.2">20</text><text x="55.74" y="356.7" fill="#666" dominant-baseline="middle" text-anchor="end" font-size="16.2">30</text><text x="55.74" y="309.5" fill="#666" dominant-baseline="middle" text-anchor="end" font-size="16.2">40</text><text x="55.74" y="262.4" fill="#666" dominant-baseline="middle" text-anchor="end" font-size="16.2">50</text><text x="55.74" y="215.2" fill="#666" dominant-baseline="middle" text-anchor="end" font-size="16.2">60</text><text x="55.74" y="168.1" fill="#666" dominant-baseline="middle" text-anchor="end" font-size="16.2">70</text></g><g class="AxisGridLines"><line x1="60.74" y1="498.1" x2="715.00" y2="498.1" stroke="#ccc"></line><line x1="60.74" y1="451" x2="715.00" y2="451" stroke="#ddd" stroke-dasharray="3,2"></line><line x1="60.74" y1="403.8" x2="715.00" y2="403.8" stroke="#ddd" stroke-dasharray="3,2"></line><line x1="60.74" y1="356.7" x2="715.00" y2="356.7" stroke="#ddd" stroke-dasharray="3,2"></line><line x1="60.74" y1="309.5" x2="715.00" y2="309.5" stroke="#ddd" stroke-dasharray="3,2"></line><line x1="60.74" y1="262.4" x2="715.00" y2="262.4" stroke="#ddd" stroke-dasharray="3,2"></line><line x1="60.74" y1="215.2" x2="715.00" y2="215.2" stroke="#ddd" stroke-dasharray="3,2"></line><line x1="60.74" y1="168.1" x2="715.00" y2="168.1" stroke="#ddd" stroke-dasharray="3,2"></line></g><g class="AxisGridLines"><line x1="60.7" y1="498.10" x2="60.7" y2="126.60" stroke="#ccc"></line><line x1="174.5" y1="498.10" x2="174.5" y2="126.60" stroke="#ddd" stroke-dasharray="3,2"></line><line x1="288.3" y1="498.10" x2="288.3" y2="126.60" stroke="#ddd" stroke-dasharray="3,2"></line><line x1="402.1" y1="498.10" x2="402.1" y2="126.60" stroke="#ddd" stroke-dasharray="3,2"></line><line x1="515.9" y1="498.10" x2="515.9" y2="126.60" stroke="#ddd" stroke-dasharray="3,2"></line><line x1="629.7" y1="498.10" x2="629.7" y2="126.60" stroke="#ddd" stroke-dasharray="3,2"></line></g></g><g class="PointsWithLabels clickable" clip-path="url(#scatterBounds-155)" font-family="Arial Narrow, Arial, sans-serif"><rect x="60.744" y="126.6" width="654.256" height="371.49999999999994" fill="rgba(255,255,255,0)"></rect><defs><clipPath id="scatterBounds-155"><rect x="50.744" y="116.6" width="674.256" height="391.49999999999994"></rect></clipPath></defs><g class="key-China_0"><circle cx="68.00" cy="297.00" r="17.84" fill="#d14e5b" opacity="0.8" stroke="#333" stroke-width="0.7"></circle></g><g class="key-Indonesia_0"><circle cx="142.00" cy="390.00" r="7.78" fill="#d14e5b" opacity="0.8" stroke="#333" stroke-width="0.7"></circle></g><g class="key-Brazil_0"><circle cx="99.00" cy="458.00" r="7.04" fill="#69c487" opacity="0.8" stroke="#333" stroke-width="0.7"></circle></g><g class="key-Pakistan_0"><circle cx="106.00" cy="196.00" r="6.75" fill="#d14e5b" opacity="0.8" stroke="#333" stroke-width="0.7"></circle></g><g class="key-Ethiopia_0"><circle cx="364.00" cy="203.00" r="4.86" fill="#5675c1" opacity="0.8" stroke="#333" stroke-width="0.7"></circle></g><g class="key-Egypt_0"><circle cx="75.00" cy="498.00" r="4.79" fill="#5675c1" opacity="0.8" stroke="#333" stroke-width="0.7"></circle></g><g class="key-Germany_0"><circle cx="60.00" cy="498.00" r="4.70" fill="#ffd336" opacity="0.8" stroke="#fff" stroke-width="0.7"></circle></g><g class="key-Turkey_0"><circle cx="64.00" cy="488.00" r="4.54" fill="#d14e5b" opacity="0.8" stroke="#fff" stroke-width="0.7"></circle></g><g class="key-Thailand_0"><circle cx="60.00" cy="379.00" r="4.41" fill="#d14e5b" opacity="0.8" stroke="#333" stroke-width="0.7"></circle></g><g class="key-France_0"><circle cx="60.00" cy="498.00" r="4.24" fill="#ffd336" opacity="0.8" stroke="#fff" stroke-width="0.7"></circle></g><g class="key-United-Kingdom_0"><circle cx="63.00" cy="498.00" r="4.22" fill="#ffd336" opacity="0.8" stroke="#fff" stroke-width="0.7"></circle></g><g class="key-Italy_0"><circle cx="83.00" cy="498.00" r="4.16" fill="#ffd336" opacity="0.8" stroke="#fff" stroke-width="0.7"></circle></g><g class="key-Myanmar_0"><circle cx="133.00" cy="232.00" r="3.81" fill="#d14e5b" opacity="0.8" stroke="#333" stroke-width="0.7"></circle></g><g class="key-Colombia_0"><circle cx="111.00" cy="454.00" r="3.78" fill="#69c487" opacity="0.8" stroke="#fff" stroke-width="0.7"></circle></g><g class="key-Spain_0"><circle cx="72.00" cy="498.00" r="3.75" fill="#ffd336" opacity="0.8" stroke="#fff" stroke-width="0.7"></circle></g><g class="key-Ukraine_0"><circle cx="61.00" cy="442.00" r="3.68" fill="#ffd336" opacity="0.8" stroke="#333" stroke-width="0.7"></circle></g><g class="key-Kenya_0"><circle cx="479.00" cy="290.00" r="3.65" fill="#5675c1" opacity="0.8" stroke="#333" stroke-width="0.7"></circle></g><g class="key-Peru_0"><circle cx="101.00" cy="398.00" r="3.18" fill="#69c487" opacity="0.8" stroke="#333" stroke-width="0.7"></circle></g><g class="key-Malaysia_0"><circle cx="60.00" cy="495.00" r="3.17" fill="#d14e5b" opacity="0.8" stroke="#fff" stroke-width="0.7"></circle></g><g class="key-Cote-d__0027Ivoire_0"><circle cx="381.00" cy="139.00" r="2.83" fill="#5675c1" opacity="0.8" stroke="#333" stroke-width="0.7"></circle></g><g class="key-Chile_0"><circle cx="75.00" cy="487.00" r="2.69" fill="#69c487" opacity="0.8" stroke="#fff" stroke-width="0.7"></circle></g><g class="key-Netherlands_0"><circle cx="60.00" cy="498.00" r="2.65" fill="#ffd336" opacity="0.8" stroke="#fff" stroke-width="0.7"></circle></g><g class="key-Kazakhstan_0"><circle cx="60.00" cy="414.00" r="2.64" fill="#d14e5b" opacity="0.8" stroke="#333" stroke-width="0.7"></circle></g><g class="key-Ecuador_0"><circle cx="99.00" cy="484.00" r="2.58" fill="#69c487" opacity="0.8" stroke="#333" stroke-width="0.7"></circle></g><g class="key-Zambia_0"><circle cx="715.00" cy="147.00" r="2.54" fill="#5675c1" opacity="0.8" stroke="#333" stroke-width="0.7"></circle></g><g class="key-Greece_0"><circle cx="77.00" cy="498.00" r="2.41" fill="#ffd336" opacity="0.8" stroke="#fff" stroke-width="0.7"></circle></g><g class="key-Belgium_0"><circle cx="60.00" cy="498.00" r="2.38" fill="#ffd336" opacity="0.8" stroke="#fff" stroke-width="0.7"></circle></g><g class="key-Portugal_0"><circle cx="66.00" cy="498.00" r="2.37" fill="#ffd336" opacity="0.8" stroke="#fff" stroke-width="0.7"></circle></g><g class="key-Czech-Republic_0"><circle cx="60.00" cy="483.00" r="2.37" fill="#ffd336" opacity="0.8" stroke="#fff" stroke-width="0.7"></circle></g><g class="key-Bolivia_0"><circle cx="133.00" cy="401.00" r="2.36" fill="#69c487" opacity="0.8" stroke="#333" stroke-width="0.7"></circle></g><g class="key-Dominican-Republic_0"><circle cx="82.00" cy="462.00" r="2.35" fill="#4d824b" opacity="0.8" stroke="#fff" stroke-width="0.7"></circle></g><g class="key-Hungary_0"><circle cx="66.00" cy="421.00" r="2.34" fill="#ffd336" opacity="0.8" stroke="#fff" stroke-width="0.7"></circle></g><g class="key-Benin_0"><circle cx="625.00" cy="126.00" r="2.32" fill="#5675c1" opacity="0.8" stroke="#333" stroke-width="0.7"></circle></g><g class="key-Sweden_0"><circle cx="66.00" cy="498.00" r="2.32" fill="#ffd336" opacity="0.8" stroke="#fff" stroke-width="0.7"></circle></g><g class="key-Belarus_0"><circle cx="60.00" cy="485.00" r="2.31" fill="#ffd336" opacity="0.8" stroke="#fff" stroke-width="0.7"></circle></g><g class="key-Austria_0"><circle cx="68.00" cy="498.00" r="2.26" fill="#ffd336" opacity="0.8" stroke="#fff" stroke-width="0.7"></circle></g><g class="key-Honduras_0"><circle cx="245.00" cy="354.00" r="2.24" fill="#4d824b" opacity="0.8" stroke="#333" stroke-width="0.7"></circle></g><g class="key-Switzerland_0"><circle cx="60.00" cy="498.00" r="2.22" fill="#ffd336" opacity="0.8" stroke="#fff" stroke-width="0.7"></circle></g><g class="key-Tajikistan_0"><circle cx="115.00" cy="364.00" r="2.19" fill="#d14e5b" opacity="0.8" stroke="#333" stroke-width="0.7"></circle></g><g class="key-Paraguay_0"><circle cx="82.00" cy="385.00" r="2.17" fill="#69c487" opacity="0.8" stroke="#fff" stroke-width="0.7"></circle></g><g class="key-Togo_0"><circle cx="620.00" cy="162.00" r="2.15" fill="#5675c1" opacity="0.8" stroke="#333" stroke-width="0.7"></circle></g><g class="key-El-Salvador_0"><circle cx="82.00" cy="438.00" r="2.15" fill="#4d824b" opacity="0.8" stroke="#fff" stroke-width="0.7"></circle></g><g class="key-Denmark_0"><circle cx="63.00" cy="498.00" r="2.11" fill="#ffd336" opacity="0.8" stroke="#fff" stroke-width="0.7"></circle></g><g class="key-Kyrgyzstan_0"><circle cx="89.00" cy="344.00" r="2.10" fill="#d14e5b" opacity="0.8" stroke="#333" stroke-width="0.7"></circle></g><g class="key-Finland_0"><circle cx="60.00" cy="498.00" r="2.10" fill="#ffd336" opacity="0.8" stroke="#fff" stroke-width="0.7"></circle></g><g class="key-Norway_0"><circle cx="63.00" cy="498.00" r="2.08" fill="#ffd336" opacity="0.8" stroke="#fff" stroke-width="0.7"></circle></g><g class="key-Costa-Rica_0"><circle cx="77.00" cy="487.00" r="2.07" fill="#4d824b" opacity="0.8" stroke="#fff" stroke-width="0.7"></circle></g><g class="key-Ireland_0"><circle cx="63.00" cy="498.00" r="2.06" fill="#ffd336" opacity="0.8" stroke="#fff" stroke-width="0.7"></circle></g><g class="key-Croatia_0"><circle cx="68.00" cy="415.00" r="2.04" fill="#ffd336" opacity="0.8" stroke="#fff" stroke-width="0.7"></circle></g><g class="key-Georgia_0"><circle cx="106.00" cy="205.00" r="2.04" fill="#d14e5b" opacity="0.8" stroke="#333" stroke-width="0.7"></circle></g><g class="key-Bosnia-and-Herzegovina_0"><circle cx="63.00" cy="194.00" r="2.00" fill="#ffd336" opacity="0.8" stroke="#fff" stroke-width="0.7"></circle></g><g class="key-Panama_0"><circle cx="83.00" cy="461.00" r="2.00" fill="#4d824b" opacity="0.8" stroke="#fff" stroke-width="0.7"></circle></g><g class="key-Moldova_0"><circle cx="60.00" cy="434.00" r="1.99" fill="#ffd336" opacity="0.8" stroke="#fff" stroke-width="0.7"></circle></g><g class="key-Uruguay_0"><circle cx="61.00" cy="492.00" r="1.98" fill="#69c487" opacity="0.8" stroke="#fff" stroke-width="0.7"></circle></g><g class="key-Lithuania_0"><circle cx="68.00" cy="439.00" r="1.98" fill="#ffd336" opacity="0.8" stroke="#fff" stroke-width="0.7"></circle></g><g class="key-Armenia_0"><circle cx="82.00" cy="472.00" r="1.97" fill="#d14e5b" opacity="0.8" stroke="#333" stroke-width="0.7"></circle></g><g class="key-Namibia_0"><circle cx="213.00" cy="280.00" r="1.93" fill="#5675c1" opacity="0.8" stroke="#333" stroke-width="0.7"></circle></g><g class="key-Latvia_0"><circle cx="68.00" cy="430.00" r="1.91" fill="#ffd336" opacity="0.8" stroke="#fff" stroke-width="0.7"></circle></g><g class="key-Slovenia_0"><circle cx="60.00" cy="449.00" r="1.90" fill="#ffd336" opacity="0.8" stroke="#fff" stroke-width="0.7"></circle></g><g class="key-Gambia_0"><circle cx="175.00" cy="260.00" r="1.89" fill="#5675c1" opacity="0.8" stroke="#333" stroke-width="0.7"></circle></g><g class="key-Estonia_0"><circle cx="66.00" cy="430.00" r="1.86" fill="#ffd336" opacity="0.8" stroke="#fff" stroke-width="0.7"></circle></g><g class="key-Cyprus_0"><circle cx="60.00" cy="498.00" r="1.85" fill="#ffd336" opacity="0.8" stroke="#fff" stroke-width="0.7"></circle></g><g class="key-Luxembourg_0"><circle cx="63.00" cy="498.00" r="1.81" fill="#ffd336" opacity="0.8" stroke="#fff" stroke-width="0.7"></circle></g><g class="key-Malta_0"><circle cx="60.00" cy="498.00" r="1.80" fill="#ffd336" opacity="0.8" stroke="#fff" stroke-width="0.7"></circle></g><g class="key-World_0"><circle cx="174.00" cy="315.00" r="1.77" fill="#000" opacity="0.8" stroke="#333" stroke-width="0.7"></circle></g><g class="backgroundLabels" fill="#333"><text x="68.00" y="278.16" font-size="14.30">China</text><text x="142.00" y="381.22" font-size="11.60">Indonesia</text><text x="99.00" y="449.96" font-size="11.49">Brazil</text><text x="106.00" y="188.25" font-size="11.44">Pakistan</text><text x="364.00" y="197.14" font-size="11.21">Ethiopia</text><text x="75.00" y="492.21" font-size="11.21">Egypt</text><text x="60.00" y="373.59" font-size="11.17">Thailand</text><text x="133.00" y="227.19" font-size="11.12">Myanmar</text><text x="61.00" y="437.32" font-size="11.11">Ukraine</text><text x="479.00" y="285.35" font-size="11.11">Kenya</text><text x="101.00" y="393.82" font-size="11.07">Peru</text><text x="381.00" y="137.65" font-size="11.05">Cote d&#x27;Ivoire</text><text x="60.00" y="410.36" font-size="11.04">Kazakhstan</text><text x="99.00" y="480.42" font-size="11.04">Ecuador</text><text x="678.15" y="143.46" font-size="11.03">Zambia</text><text x="133.00" y="397.64" font-size="11.02">Bolivia</text><text x="625.00" y="137.62" font-size="11.02">Benin</text><text x="245.00" y="350.76" font-size="11.02">Honduras</text><text x="115.00" y="360.81" font-size="11.02">Tajikistan</text><text x="620.00" y="158.85" font-size="11.02">Togo</text><text x="89.00" y="340.90" font-size="11.01">Kyrgyzstan</text><text x="106.00" y="201.96" font-size="11.01">Georgia</text><text x="82.00" y="469.03" font-size="11.01">Armenia</text><text x="213.00" y="277.07" font-size="11.01">Namibia</text><text x="175.00" y="257.11" font-size="11.00">Gambia</text><text x="174.00" y="312.23" font-size="11.00">World</text></g></g><g class="ScatterColorLegend clickable" style="cursor:pointer"><g class="legendMark"><rect x="735" y="124.1" width="43.256" height="17.6" fill="#fff" opacity="0"></rect>,<rect x="735" y="129.6" width="6" height="6" fill="#5675c1"></rect>,<text font-size="12.60" x="746.0" y="136.7"><tspan x="746" y="136.67999999999998">Africa</tspan></text></g><g class="legendMark"><rect x="735" y="141.7" width="35.57" height="17.6" fill="#fff" opacity="0"></rect>,<rect x="735" y="147.2" width="6" height="6" fill="#d14e5b"></rect>,<text font-size="12.60" x="746.0" y="154.3"><tspan x="746" y="154.27999999999997">Asia</tspan></text></g><g class="legendMark"><rect x="735" y="159.3" width="51.824" height="17.6" fill="#fff" opacity="0"></rect>,<rect x="735" y="164.8" width="6" height="6" fill="#ffd336"></rect>,<text font-size="12.60" x="746.0" y="171.9"><tspan x="746" y="171.88">Europe</tspan></text></g><g class="legendMark"><rect x="735" y="176.9" width="91.64" height="17.6" fill="#fff" opacity="0"></rect>,<rect x="735" y="182.4" width="6" height="6" fill="#4d824b"></rect>,<text font-size="12.60" x="746.0" y="189.5"><tspan x="746" y="189.48">North America</tspan></text></g><g class="legendMark"><rect x="735" y="194.5" width="93.908" height="17.6" fill="#fff" opacity="0"></rect>,<rect x="735" y="200" width="6" height="6" fill="#69c487"></rect>,<text font-size="12.60" x="746.0" y="207.1"><tspan x="746" y="207.07999999999998">South America</tspan></text></g></g></g><g class="SourcesFooter" style="fill:#777"><g class="clickable" style="fill:#777"><text font-size="12.60" x="15.0" y="567.0"><tspan x="15" y="566.98">Source: Institute for Health Metrics and Evaluation (IHME); World Bank - World Development Indicators</tspan></text></g><text font-size="12.60" x="15.0" y="582.5"><tspan x="15" y="582.48"><a target='_blank' style='fill: #777;' href='https://ourworldindata.org/indoor-air-pollution/'>OurWorldInData.org/indoor-air-pollution/</a> • <a style="fill: #777;" class="cclogo" href="http://creativecommons.org/licenses/by-sa/4.0/deed.en_US" target="_blank">CC BY-SA</a></tspan></text></g></g></svg>