<svg xmlns="http://www.w3.org/2000/svg" version="1.1" style="font-family:&#x27;Helvetica Neue&#x27;, Helvetica, Arial, sans-serif;font-size:18px;background-color:white;text-rendering:optimizeLegibility;-webkit-font-smoothing:antialiased" width="850" height="600"><g class="ChartTab"><g class="HeaderView"><g opacity="0.8" transform="translate(778, 15) scale(0.27)"><a xmlns:xlink="http://www.w3.org/1999/xlink" xlink:href="https://ourworldindata.org" target="_blank"><g><rect x="0" y="0" fill="#1B2543" width="211.2" height="130.1"/><rect x="0" y="112.2" fill="#E63912" width="211.2" height="17.9"/><g><rect x="1.2" y="12.3" fill="none" width="210.2" height="99.2"/><path fill="#FFFFFF" d="M37.8,32.2c0,12.7-7.7,19.4-17.1,19.4c-9.7,0-16.6-7.5-16.6-18.7c0-11.7,7.3-19.3,17.1-19.3 C31.3,13.7,37.8,21.3,37.8,32.2z M9.2,32.8c0,7.9,4.3,14.9,11.8,14.9c7.5,0,11.8-6.9,11.8-15.3c0-7.3-3.8-14.9-11.8-14.9 C13.1,17.5,9.2,24.8,9.2,32.8z"/><path fill="#FFFFFF" d="M62.7,43.8c0,2.7,0.1,5.1,0.2,7.2h-4.3l-0.3-4.3h-0.1c-1.3,2.1-4,4.9-8.8,4.9c-4.2,0-9.1-2.3-9.1-11.6 V24.6h4.8v14.6c0,5,1.5,8.4,5.9,8.4c3.2,0,5.5-2.2,6.3-4.4c0.3-0.7,0.4-1.6,0.4-2.5V24.6h4.8V43.8z"/><path fill="#FFFFFF" d="M67.3,32.8c0-3.1-0.1-5.8-0.2-8.2h4.2l0.2,5.2h0.2c1.2-3.5,4.1-5.8,7.3-5.8c0.5,0,0.9,0.1,1.4,0.2v4.5 c-0.5-0.1-1-0.2-1.6-0.2c-3.4,0-5.8,2.6-6.5,6.2c-0.1,0.7-0.2,1.4-0.2,2.2V51h-4.8V32.8z"/><path fill="#FFFFFF" d="M95.4,51l-9.4-36.8h5l4.4,18.6c1.1,4.6,2.1,9.2,2.7,12.7h0.1c0.6-3.7,1.8-8,3-12.8l4.9-18.5h5l4.5,18.7 c1,4.4,2,8.7,2.6,12.6h0.1c0.8-4,1.8-8.1,3-12.7l4.9-18.5h4.9L120.6,51h-5L111,31.9c-1.1-4.7-1.9-8.3-2.4-12h-0.1 c-0.7,3.7-1.5,7.3-2.8,12L100.4,51H95.4z"/><path fill="#FFFFFF" d="M154.9,37.6c0,9.8-6.8,14-13.2,14c-7.2,0-12.7-5.2-12.7-13.6c0-8.8,5.8-14,13.1-14 C149.8,24,154.9,29.5,154.9,37.6z M133.9,37.9c0,5.8,3.3,10.1,8,10.1c4.6,0,8-4.3,8-10.3c0-4.5-2.2-10.1-7.9-10.1 C136.3,27.6,133.9,32.8,133.9,37.9z"/><path fill="#FFFFFF" d="M158.2,32.8c0-3.1-0.1-5.8-0.2-8.2h4.2l0.2,5.2h0.2c1.2-3.5,4.1-5.8,7.3-5.8c0.5,0,0.9,0.1,1.4,0.2v4.5 c-0.5-0.1-1-0.2-1.6-0.2c-3.4,0-5.8,2.6-6.5,6.2c-0.1,0.7-0.2,1.4-0.2,2.2V51h-4.8V32.8z"/><path fill="#FFFFFF" d="M173.5,12.3h4.8V51h-4.8V12.3z"/><path fill="#FFFFFF" d="M206.5,12.3v31.9c0,2.3,0.1,5,0.2,6.8h-4.3l-0.2-4.6H202c-1.5,2.9-4.7,5.2-9,5.2 c-6.4,0-11.3-5.4-11.3-13.4c-0.1-8.8,5.4-14.2,11.9-14.2c4,0,6.8,1.9,8,4h0.1V12.3H206.5z M201.7,35.4c0-0.6-0.1-1.4-0.2-2 c-0.7-3.1-3.3-5.6-6.9-5.6c-5,0-7.9,4.4-7.9,10.2c0,5.3,2.6,9.8,7.8,9.8c3.2,0,6.2-2.1,7.1-5.7c0.2-0.7,0.2-1.3,0.2-2.1V35.4z"/><path fill="#FFFFFF" d="M42.8,64c0.1,1.6-1.1,2.9-3.1,2.9c-1.7,0-2.9-1.3-2.9-2.9c0-1.7,1.3-3,3-3C41.7,61,42.8,62.3,42.8,64z M37.4,97.8V71.4h4.8v26.4H37.4z"/><path fill="#FFFFFF" d="M47.5,78.6c0-2.7-0.1-5-0.2-7.1h4.3l0.3,4.4h0.1c1.3-2.5,4.4-5,8.8-5c3.7,0,9.4,2.2,9.4,11.2v15.8h-4.8 V82.6c0-4.3-1.6-7.8-6.1-7.8c-3.2,0-5.6,2.2-6.5,4.9c-0.2,0.6-0.3,1.4-0.3,2.2v15.9h-4.8V78.6z"/><path fill="#FFFFFF" d="M84,61.6c2.9-0.4,6.3-0.8,10.1-0.8c6.8,0,11.7,1.6,14.9,4.6c3.3,3,5.2,7.3,5.2,13.2c0,6-1.9,10.9-5.3,14.3 c-3.4,3.4-9.1,5.3-16.3,5.3c-3.4,0-6.2-0.2-8.6-0.4V61.6z M88.8,94.1c1.2,0.2,3,0.3,4.8,0.3c10.2,0,15.7-5.7,15.7-15.6 c0.1-8.7-4.9-14.2-14.9-14.2c-2.5,0-4.3,0.2-5.6,0.5V94.1z"/><path fill="#FFFFFF" d="M132.1,97.8l-0.4-3.3h-0.2c-1.5,2.1-4.3,3.9-8.1,3.9c-5.4,0-8.1-3.8-8.1-7.6c0-6.4,5.7-9.9,15.9-9.8v-0.5 c0-2.2-0.6-6.1-6-6.1c-2.5,0-5,0.8-6.9,2l-1.1-3.2c2.2-1.4,5.4-2.3,8.7-2.3c8.1,0,10.1,5.5,10.1,10.8v9.9c0,2.3,0.1,4.5,0.4,6.3 H132.1z M131.4,84.4c-5.3-0.1-11.2,0.8-11.2,5.9c0,3.1,2.1,4.6,4.5,4.6c3.4,0,5.6-2.2,6.4-4.4c0.2-0.5,0.3-1,0.3-1.5V84.4z"/><path fill="#FFFFFF" d="M146.6,63.9v7.6h6.9v3.7h-6.9v14.2c0,3.3,0.9,5.1,3.6,5.1c1.3,0,2.2-0.2,2.8-0.3l0.2,3.6 c-0.9,0.4-2.4,0.7-4.3,0.7c-2.2,0-4-0.7-5.2-2c-1.4-1.4-1.9-3.8-1.9-6.9V75.1h-4.1v-3.7h4.1v-6.3L146.6,63.9z"/><path fill="#FFFFFF" d="M171.4,97.8l-0.4-3.3h-0.2c-1.5,2.1-4.3,3.9-8.1,3.9c-5.4,0-8.1-3.8-8.1-7.6c0-6.4,5.7-9.9,15.9-9.8v-0.5 c0-2.2-0.6-6.1-6-6.1c-2.5,0-5,0.8-6.9,2l-1.1-3.2c2.2-1.4,5.4-2.3,8.7-2.3c8.1,0,10.1,5.5,10.1,10.8v9.9c0,2.3,0.1,4.5,0.4,6.3 H171.4z M170.7,84.4c-5.3-0.1-11.2,0.8-11.2,5.9c0,3.1,2.1,4.6,4.5,4.6c3.4,0,5.6-2.2,6.4-4.4c0.2-0.5,0.3-1,0.3-1.5V84.4z"/></g></g></a></g><a href="https://ourworldindata.org/grapher/dietary-land-use-vs-gdp-per-capita" target="_blank"><text font-size="25.20" x="15.0" y="35.2" fill="#555"><tspan x="15" y="35.160000000000004">Dietary land use vs. GDP per capita, 2011</tspan></text></a><text font-size="14.40" x="15.0" y="53.7" fill="#666"><tspan x="15" y="53.72">The share of global habitable land which would be required for agriculture if everyone in the world adopted the</tspan><tspan x="15" y="69.56">average diet of a given country versus gross domestic product (GDP) per capita, measured in 2011 international-$.</tspan><tspan x="15" y="85.4">We currently use approximately 50% of habitable land for agriculture, as shown by the horizontal line.</tspan></text></g><g><g class="AxisBoxView"><g class="HorizontalAxis"><text font-size="12.60" x="287.7" y="554.0"><tspan x="287.699" y="553.98">GDP per capita (2011 int-$)</tspan></text><text x="124.6" y="533.9" fill="#666" text-anchor="middle" font-size="16.2">$1,000</text><text x="425.2" y="533.9" fill="#666" text-anchor="middle" font-size="16.2">$10,000</text><text x="715" y="551.5" style="font-size:12px;text-transform:uppercase;cursor:pointer" class="clickable"><tspan style="font-family:FontAwesome"></tspan> log</text></g><g class="VerticalAxis"><text font-size="12.60" x="-460.5" y="25.1" transform="rotate(-90)"><tspan x="-460.507" y="25.080000000000002">Share of habitable land needed for agriculture</tspan></text><text x="79.23" y="512.7" fill="#666" dominant-baseline="middle" text-anchor="end" font-size="16.2">0%</text><text x="79.23" y="406.8" fill="#666" dominant-baseline="middle" text-anchor="end" font-size="16.2">50%</text><text x="79.23" y="300.8" fill="#666" dominant-baseline="middle" text-anchor="end" font-size="16.2">100%</text><text x="79.23" y="194.9" fill="#666" dominant-baseline="middle" text-anchor="end" font-size="16.2">150%</text></g><g class="AxisGridLines"><line x1="84.23" y1="512.7" x2="715.00" y2="512.7" stroke="#ccc"></line><line x1="84.23" y1="406.8" x2="715.00" y2="406.8" stroke="#ddd" stroke-dasharray="3,2"></line><line x1="84.23" y1="300.8" x2="715.00" y2="300.8" stroke="#ddd" stroke-dasharray="3,2"></line><line x1="84.23" y1="194.9" x2="715.00" y2="194.9" stroke="#ddd" stroke-dasharray="3,2"></line></g><g class="AxisGridLines"><line x1="124.6" y1="512.70" x2="124.6" y2="107.60" stroke="#ddd" stroke-dasharray="3,2"></line><line x1="425.2" y1="512.70" x2="425.2" y2="107.60" stroke="#ddd" stroke-dasharray="3,2"></line></g></g><g class="ComparisonLine"><defs><clipPath id="axisBounds-605"><rect x="84.23400000000001" y="107.60000000000001" width="630.766" height="405.09999999999997"></rect></clipPath></defs><path d="M84.2,406.8L189.7,406.8L247.3,406.8L287.1,406.8L317.6,406.8L342.3,406.8L363,406.8L380.9,406.8L396.7,406.8L410.7,406.8L423.4,406.8L435,406.8L445.6,406.8L455.4,406.8L464.5,406.8L473.1,406.8L481.1,406.8L488.6,406.8L495.8,406.8L502.5,406.8L508.9,406.8L515.1,406.8L520.9,406.8L526.5,406.8L531.9,406.8L537.1,406.8L542,406.8L546.8,406.8L551.4,406.8L555.9,406.8L560.2,406.8L564.4,406.8L568.4,406.8L572.3,406.8L576.1,406.8L579.8,406.8L583.4,406.8L586.9,406.8L590.3,406.8L593.7,406.8L596.9,406.8L600.1,406.8L603.2,406.8L606.2,406.8L609.1,406.8L612,406.8L614.8,406.8L617.6,406.8L620.3,406.8L622.9,406.8L625.5,406.8L628.1,406.8L630.6,406.8L633,406.8L635.4,406.8L637.8,406.8L640.1,406.8L642.4,406.8L644.6,406.8L646.8,406.8L649,406.8L651.1,406.8L653.2,406.8L655.3,406.8L657.3,406.8L659.3,406.8L661.3,406.8L663.2,406.8L665.1,406.8L667,406.8L668.9,406.8L670.7,406.8L672.5,406.8L674.3,406.8L676,406.8L677.8,406.8L679.5,406.8L681.2,406.8L682.9,406.8L684.5,406.8L686.1,406.8L687.7,406.8L689.3,406.8L690.9,406.8L692.4,406.8L694,406.8L695.5,406.8L697,406.8L698.5,406.8L699.9,406.8L701.4,406.8L702.8,406.8L704.2,406.8L705.6,406.8L707,406.8L708.4,406.8L709.7,406.8L711.1,406.8L712.4,406.8L713.7,406.8" clip-path="url(#axisBounds-605)" fill="none" stroke="#ccc"></path></g><g class="PointsWithLabels clickable" clip-path="url(#scatterBounds-606)" font-family="Arial Narrow, Arial, sans-serif"><rect x="84.23400000000001" y="107.60000000000001" width="630.766" height="405.09999999999997" fill="rgba(255,255,255,0)"></rect><defs><clipPath id="scatterBounds-606"><rect x="74.23400000000001" y="97.60000000000001" width="650.766" height="425.09999999999997"></rect></clipPath></defs><g class="key-China_0"><circle cx="430.00" cy="427.00" r="17.84" fill="#d14e5b" opacity="0.8" stroke="#333" stroke-width="0.7"></circle></g><g class="key-India_0"><circle cx="324.00" cy="465.00" r="17.13" fill="#d14e5b" opacity="0.8" stroke="#333" stroke-width="0.7"></circle></g><g class="key-United-States_0"><circle cx="634.00" cy="221.00" r="8.74" fill="#4d824b" opacity="0.8" stroke="#333" stroke-width="0.7"></circle></g><g class="key-Indonesia_0"><circle cx="409.00" cy="473.00" r="7.74" fill="#d14e5b" opacity="0.8" stroke="#333" stroke-width="0.7"></circle></g><g class="key-Brazil_0"><circle cx="477.00" cy="249.00" r="7.01" fill="#69c487" opacity="0.8" stroke="#333" stroke-width="0.7"></circle></g><g class="key-Pakistan_0"><circle cx="315.00" cy="406.00" r="6.67" fill="#d14e5b" opacity="0.8" stroke="#333" stroke-width="0.7"></circle></g><g class="key-Nigeria_0"><circle cx="341.00" cy="458.00" r="6.42" fill="#5675c1" opacity="0.8" stroke="#fff" stroke-width="0.7"></circle></g><g class="key-Bangladesh_0"><circle cx="247.00" cy="481.00" r="6.19" fill="#d14e5b" opacity="0.8" stroke="#333" stroke-width="0.7"></circle></g><g class="key-Russia_0"><circle cx="539.00" cy="339.00" r="6.05" fill="#ffd336" opacity="0.8" stroke="#333" stroke-width="0.7"></circle></g><g class="key-Japan_0"><circle cx="591.00" cy="422.00" r="5.72" fill="#d14e5b" opacity="0.8" stroke="#333" stroke-width="0.7"></circle></g><g class="key-Mexico_0"><circle cx="487.00" cy="374.00" r="5.48" fill="#4d824b" opacity="0.8" stroke="#333" stroke-width="0.7"></circle></g><g class="key-Philippines_0"><circle cx="352.00" cy="453.00" r="5.04" fill="#d14e5b" opacity="0.8" stroke="#fff" stroke-width="0.7"></circle></g><g class="key-Vietnam_0"><circle cx="324.00" cy="434.00" r="4.89" fill="#d14e5b" opacity="0.8" stroke="#333" stroke-width="0.7"></circle></g><g class="key-Ethiopia_0"><circle cx="144.00" cy="455.00" r="4.79" fill="#5675c1" opacity="0.8" stroke="#333" stroke-width="0.7"></circle></g><g class="key-Egypt_0"><circle cx="422.00" cy="399.00" r="4.74" fill="#5675c1" opacity="0.8" stroke="#333" stroke-width="0.7"></circle></g><g class="key-Germany_0"><circle cx="614.00" cy="303.00" r="4.73" fill="#ffd336" opacity="0.8" stroke="#333" stroke-width="0.7"></circle></g><g class="key-Iran_0"><circle cx="503.00" cy="424.00" r="4.55" fill="#d14e5b" opacity="0.8" stroke="#333" stroke-width="0.7"></circle></g><g class="key-Turkey_0"><circle cx="513.00" cy="383.00" r="4.52" fill="#d14e5b" opacity="0.8" stroke="#fff" stroke-width="0.7"></circle></g><g class="key-Thailand_0"><circle cx="464.00" cy="468.00" r="4.41" fill="#d14e5b" opacity="0.8" stroke="#333" stroke-width="0.7"></circle></g><g class="key-France_0"><circle cx="597.00" cy="254.00" r="4.23" fill="#ffd336" opacity="0.8" stroke="#333" stroke-width="0.7"></circle></g><g class="key-United-Kingdom_0"><circle cx="594.00" cy="312.00" r="4.22" fill="#ffd336" opacity="0.8" stroke="#fff" stroke-width="0.7"></circle></g><g class="key-Italy_0"><circle cx="593.00" cy="265.00" r="4.17" fill="#ffd336" opacity="0.8" stroke="#fff" stroke-width="0.7"></circle></g><g class="key-South-Africa_0"><circle cx="450.00" cy="384.00" r="3.87" fill="#5675c1" opacity="0.8" stroke="#333" stroke-width="0.7"></circle></g><g class="key-South-Korea_0"><circle cx="573.00" cy="389.00" r="3.81" fill="#d14e5b" opacity="0.8" stroke="#333" stroke-width="0.7"></circle></g><g class="key-Myanmar_0"><circle cx="302.00" cy="447.00" r="3.80" fill="#d14e5b" opacity="0.8" stroke="#fff" stroke-width="0.7"></circle></g><g class="key-Colombia_0"><circle cx="443.00" cy="379.00" r="3.76" fill="#69c487" opacity="0.8" stroke="#fff" stroke-width="0.7"></circle></g><g class="key-Spain_0"><circle cx="577.00" cy="344.00" r="3.75" fill="#ffd336" opacity="0.8" stroke="#333" stroke-width="0.7"></circle></g><g class="key-Tanzania_0"><circle cx="226.00" cy="450.00" r="3.74" fill="#5675c1" opacity="0.8" stroke="#333" stroke-width="0.7"></circle></g><g class="key-Ukraine_0"><circle cx="400.00" cy="401.00" r="3.71" fill="#ffd336" opacity="0.8" stroke="#fff" stroke-width="0.7"></circle></g><g class="key-Kenya_0"><circle cx="247.00" cy="409.00" r="3.59" fill="#5675c1" opacity="0.8" stroke="#333" stroke-width="0.7"></circle></g><g class="key-Argentina_0"><circle cx="513.00" cy="169.00" r="3.56" fill="#69c487" opacity="0.8" stroke="#333" stroke-width="0.7"></circle></g><g class="key-Poland_0"><circle cx="533.00" cy="393.00" r="3.48" fill="#ffd336" opacity="0.8" stroke="#333" stroke-width="0.7"></circle></g><g class="key-Algeria_0"><circle cx="459.00" cy="408.00" r="3.40" fill="#5675c1" opacity="0.8" stroke="#fff" stroke-width="0.7"></circle></g><g class="key-Uganda_0"><circle cx="186.00" cy="446.00" r="3.35" fill="#5675c1" opacity="0.8" stroke="#333" stroke-width="0.7"></circle></g><g class="key-Canada_0"><circle cx="611.00" cy="237.00" r="3.35" fill="#4d824b" opacity="0.8" stroke="#333" stroke-width="0.7"></circle></g><g class="key-Iraq_0"><circle cx="462.00" cy="468.00" r="3.29" fill="#d14e5b" opacity="0.8" stroke="#fff" stroke-width="0.7"></circle></g><g class="key-Afghanistan_0"><circle cx="190.00" cy="441.00" r="3.28" fill="#d14e5b" opacity="0.8" stroke="#fff" stroke-width="0.7"></circle></g><g class="key-Morocco_0"><circle cx="372.00" cy="416.00" r="3.27" fill="#5675c1" opacity="0.8" stroke="#333" stroke-width="0.7"></circle></g><g class="key-Nepal_0"><circle cx="217.00" cy="433.00" r="3.21" fill="#d14e5b" opacity="0.8" stroke="#333" stroke-width="0.7"></circle></g><g class="key-Venezuela_0"><circle cx="494.00" cy="326.00" r="3.17" fill="#69c487" opacity="0.8" stroke="#fff" stroke-width="0.7"></circle></g><g class="key-Peru_0"><circle cx="431.00" cy="452.00" r="3.17" fill="#69c487" opacity="0.8" stroke="#333" stroke-width="0.7"></circle></g><g class="key-Malaysia_0"><circle cx="527.00" cy="444.00" r="3.15" fill="#d14e5b" opacity="0.8" stroke="#333" stroke-width="0.7"></circle></g><g class="key-Saudi-Arabia_0"><circle cx="631.00" cy="413.00" r="3.12" fill="#d14e5b" opacity="0.8" stroke="#333" stroke-width="0.7"></circle></g><g class="key-Uzbekistan_0"><circle cx="320.00" cy="316.00" r="3.11" fill="#d14e5b" opacity="0.8" stroke="#333" stroke-width="0.7"></circle></g><g class="key-Ghana_0"><circle cx="284.00" cy="457.00" r="3.00" fill="#5675c1" opacity="0.8" stroke="#333" stroke-width="0.7"></circle></g><g class="key-Mozambique_0"><circle cx="118.00" cy="484.00" r="2.96" fill="#5675c1" opacity="0.8" stroke="#333" stroke-width="0.7"></circle></g><g class="key-Australia_0"><circle cx="612.00" cy="177.00" r="2.91" fill="#a652ba" opacity="0.8" stroke="#333" stroke-width="0.7"></circle></g><g class="key-Romania_0"><circle cx="502.00" cy="374.00" r="2.86" fill="#ffd336" opacity="0.8" stroke="#fff" stroke-width="0.7"></circle></g><g class="key-Madagascar_0"><circle cx="165.00" cy="449.00" r="2.86" fill="#5675c1" opacity="0.8" stroke="#fff" stroke-width="0.7"></circle></g><g class="key-Sri-Lanka_0"><circle cx="414.00" cy="478.00" r="2.84" fill="#d14e5b" opacity="0.8" stroke="#fff" stroke-width="0.7"></circle></g><g class="key-Cote-d__0027Ivoire_0"><circle cx="244.00" cy="454.00" r="2.81" fill="#5675c1" opacity="0.8" stroke="#fff" stroke-width="0.7"></circle></g><g class="key-Cameroon_0"><circle cx="266.00" cy="437.00" r="2.80" fill="#5675c1" opacity="0.8" stroke="#333" stroke-width="0.7"></circle></g><g class="key-Angola_0"><circle cx="356.00" cy="449.00" r="2.79" fill="#5675c1" opacity="0.8" stroke="#333" stroke-width="0.7"></circle></g><g class="key-Chile_0"><circle cx="518.00" cy="350.00" r="2.69" fill="#69c487" opacity="0.8" stroke="#333" stroke-width="0.7"></circle></g><g class="key-Burkina-Faso_0"><circle cx="175.00" cy="412.00" r="2.67" fill="#5675c1" opacity="0.8" stroke="#333" stroke-width="0.7"></circle></g><g class="key-Netherlands_0"><circle cx="624.00" cy="301.00" r="2.66" fill="#ffd336" opacity="0.8" stroke="#fff" stroke-width="0.7"></circle></g><g class="key-Kazakhstan_0"><circle cx="523.00" cy="282.00" r="2.64" fill="#d14e5b" opacity="0.8" stroke="#333" stroke-width="0.7"></circle></g><g class="key-Niger_0"><circle cx="95.00" cy="382.00" r="2.63" fill="#5675c1" opacity="0.8" stroke="#333" stroke-width="0.7"></circle></g><g class="key-Mali_0"><circle cx="206.00" cy="380.00" r="2.62" fill="#5675c1" opacity="0.8" stroke="#333" stroke-width="0.7"></circle></g><g class="key-Malawi_0"><circle cx="131.00" cy="474.00" r="2.60" fill="#5675c1" opacity="0.8" stroke="#fff" stroke-width="0.7"></circle></g><g class="key-Guatemala_0"><circle cx="375.00" cy="448.00" r="2.57" fill="#4d824b" opacity="0.8" stroke="#fff" stroke-width="0.7"></circle></g><g class="key-Ecuador_0"><circle cx="424.00" cy="352.00" r="2.57" fill="#69c487" opacity="0.8" stroke="#333" stroke-width="0.7"></circle></g><g class="key-Cambodia_0"><circle cx="252.00" cy="464.00" r="2.55" fill="#d14e5b" opacity="0.8" stroke="#fff" stroke-width="0.7"></circle></g><g class="key-Zambia_0"><circle cx="282.00" cy="465.00" r="2.51" fill="#5675c1" opacity="0.8" stroke="#fff" stroke-width="0.7"></circle></g><g class="key-Senegal_0"><circle cx="225.00" cy="444.00" r="2.48" fill="#5675c1" opacity="0.8" stroke="#fff" stroke-width="0.7"></circle></g><g class="key-Zimbabwe_0"><circle cx="191.00" cy="442.00" r="2.48" fill="#5675c1" opacity="0.8" stroke="#fff" stroke-width="0.7"></circle></g><g class="key-Chad_0"><circle cx="205.00" cy="428.00" r="2.42" fill="#5675c1" opacity="0.8" stroke="#fff" stroke-width="0.7"></circle></g><g class="key-Greece_0"><circle cx="550.00" cy="270.00" r="2.42" fill="#ffd336" opacity="0.8" stroke="#333" stroke-width="0.7"></circle></g><g class="key-Rwanda_0"><circle cx="171.00" cy="456.00" r="2.39" fill="#5675c1" opacity="0.8" stroke="#fff" stroke-width="0.7"></circle></g><g class="key-Belgium_0"><circle cx="610.00" cy="291.00" r="2.38" fill="#ffd336" opacity="0.8" stroke="#fff" stroke-width="0.7"></circle></g><g class="key-Portugal_0"><circle cx="553.00" cy="309.00" r="2.38" fill="#ffd336" opacity="0.8" stroke="#333" stroke-width="0.7"></circle></g><g class="key-Tunisia_0"><circle cx="426.00" cy="413.00" r="2.38" fill="#5675c1" opacity="0.8" stroke="#fff" stroke-width="0.7"></circle></g><g class="key-Czech-Republic_0"><circle cx="563.00" cy="356.00" r="2.37" fill="#ffd336" opacity="0.8" stroke="#333" stroke-width="0.7"></circle></g><g class="key-Guinea_0"><circle cx="188.00" cy="462.00" r="2.36" fill="#5675c1" opacity="0.8" stroke="#333" stroke-width="0.7"></circle></g><g class="key-Haiti_0"><circle cx="182.00" cy="461.00" r="2.35" fill="#4d824b" opacity="0.8" stroke="#fff" stroke-width="0.7"></circle></g><g class="key-Bolivia_0"><circle cx="349.00" cy="363.00" r="2.35" fill="#69c487" opacity="0.8" stroke="#333" stroke-width="0.7"></circle></g><g class="key-Dominican-Republic_0"><circle cx="441.00" cy="416.00" r="2.35" fill="#4d824b" opacity="0.8" stroke="#fff" stroke-width="0.7"></circle></g><g class="key-Hungary_0"><circle cx="533.00" cy="381.00" r="2.35" fill="#ffd336" opacity="0.8" stroke="#fff" stroke-width="0.7"></circle></g><g class="key-Serbia_0"><circle cx="459.00" cy="395.00" r="2.34" fill="#ffd336" opacity="0.8" stroke="#333" stroke-width="0.7"></circle></g><g class="key-Belarus_0"><circle cx="495.00" cy="340.00" r="2.33" fill="#ffd336" opacity="0.8" stroke="#fff" stroke-width="0.7"></circle></g><g class="key-Sweden_0"><circle cx="618.00" cy="244.00" r="2.32" fill="#ffd336" opacity="0.8" stroke="#fff" stroke-width="0.7"></circle></g><g class="key-Azerbaijan_0"><circle cx="484.00" cy="368.00" r="2.31" fill="#d14e5b" opacity="0.8" stroke="#fff" stroke-width="0.7"></circle></g><g class="key-Benin_0"><circle cx="202.00" cy="465.00" r="2.30" fill="#5675c1" opacity="0.8" stroke="#fff" stroke-width="0.7"></circle></g><g class="key-Austria_0"><circle cx="620.00" cy="274.00" r="2.27" fill="#ffd336" opacity="0.8" stroke="#333" stroke-width="0.7"></circle></g><g class="key-United-Arab-Emirates_0"><circle cx="655.00" cy="396.00" r="2.24" fill="#d14e5b" opacity="0.8" stroke="#fff" stroke-width="0.7"></circle></g><g class="key-Honduras_0"><circle cx="307.00" cy="429.00" r="2.23" fill="#4d824b" opacity="0.8" stroke="#fff" stroke-width="0.7"></circle></g><g class="key-Switzerland_0"><circle cx="650.00" cy="276.00" r="2.23" fill="#ffd336" opacity="0.8" stroke="#fff" stroke-width="0.7"></circle></g><g class="key-Israel_0"><circle cx="571.00" cy="291.00" r="2.22" fill="#d14e5b" opacity="0.8" stroke="#fff" stroke-width="0.7"></circle></g><g class="key-Bulgaria_0"><circle cx="483.00" cy="413.00" r="2.22" fill="#ffd336" opacity="0.8" stroke="#fff" stroke-width="0.7"></circle></g><g class="key-Tajikistan_0"><circle cx="228.00" cy="450.00" r="2.19" fill="#d14e5b" opacity="0.8" stroke="#fff" stroke-width="0.7"></circle></g><g class="key-Paraguay_0"><circle cx="387.00" cy="363.00" r="2.17" fill="#69c487" opacity="0.8" stroke="#333" stroke-width="0.7"></circle></g><g class="key-Jordan_0"><circle cx="414.00" cy="414.00" r="2.16" fill="#d14e5b" opacity="0.8" stroke="#fff" stroke-width="0.7"></circle></g><g class="key-Laos_0"><circle cx="320.00" cy="449.00" r="2.15" fill="#d14e5b" opacity="0.8" stroke="#fff" stroke-width="0.7"></circle></g><g class="key-El-Salvador_0"><circle cx="369.00" cy="425.00" r="2.15" fill="#4d824b" opacity="0.8" stroke="#fff" stroke-width="0.7"></circle></g><g class="key-Togo_0"><circle cx="152.00" cy="475.00" r="2.15" fill="#5675c1" opacity="0.8" stroke="#fff" stroke-width="0.7"></circle></g><g class="key-Sierra-Leone_0"><circle cx="153.00" cy="474.00" r="2.14" fill="#5675c1" opacity="0.8" stroke="#fff" stroke-width="0.7"></circle></g><g class="key-Nicaragua_0"><circle cx="312.00" cy="445.00" r="2.13" fill="#4d824b" opacity="0.8" stroke="#fff" stroke-width="0.7"></circle></g><g class="key-Denmark_0"><circle cx="619.00" cy="224.00" r="2.12" fill="#ffd336" opacity="0.8" stroke="#fff" stroke-width="0.7"></circle></g><g class="key-Slovakia_0"><circle cx="549.00" cy="394.00" r="2.11" fill="#ffd336" opacity="0.8" stroke="#fff" stroke-width="0.7"></circle></g><g class="key-Kyrgyzstan_0"><circle cx="264.00" cy="353.00" r="2.11" fill="#d14e5b" opacity="0.8" stroke="#333" stroke-width="0.7"></circle></g><g class="key-Finland_0"><circle cx="608.00" cy="283.00" r="2.10" fill="#ffd336" opacity="0.8" stroke="#fff" stroke-width="0.7"></circle></g><g class="key-Turkmenistan_0"><circle cx="440.00" cy="250.00" r="2.09" fill="#d14e5b" opacity="0.8" stroke="#fff" stroke-width="0.7"></circle></g><g class="key-Norway_0"><circle cx="663.00" cy="286.00" r="2.08" fill="#ffd336" opacity="0.8" stroke="#333" stroke-width="0.7"></circle></g><g class="key-Costa-Rica_0"><circle cx="463.00" cy="353.00" r="2.07" fill="#4d824b" opacity="0.8" stroke="#fff" stroke-width="0.7"></circle></g><g class="key-Ireland_0"><circle cx="622.00" cy="288.00" r="2.06" fill="#ffd336" opacity="0.8" stroke="#333" stroke-width="0.7"></circle></g><g class="key-Central-African-Republic_0"><circle cx="111.00" cy="354.00" r="2.05" fill="#5675c1" opacity="0.8" stroke="#333" stroke-width="0.7"></circle></g><g class="key-New-Zealand_0"><circle cx="580.00" cy="107.00" r="2.05" fill="#a652ba" opacity="0.8" stroke="#333" stroke-width="0.7"></circle></g><g class="key-Croatia_0"><circle cx="520.00" cy="368.00" r="2.05" fill="#ffd336" opacity="0.8" stroke="#fff" stroke-width="0.7"></circle></g><g class="key-Georgia_0"><circle cx="384.00" cy="419.00" r="2.05" fill="#d14e5b" opacity="0.8" stroke="#fff" stroke-width="0.7"></circle></g><g class="key-Lebanon_0"><circle cx="484.00" cy="368.00" r="2.04" fill="#d14e5b" opacity="0.8" stroke="#fff" stroke-width="0.7"></circle></g><g class="key-Congo_0"><circle cx="340.00" cy="448.00" r="2.03" fill="#5675c1" opacity="0.8" stroke="#fff" stroke-width="0.7"></circle></g><g class="key-Liberia_0"><circle cx="84.00" cy="484.00" r="2.03" fill="#5675c1" opacity="0.8" stroke="#333" stroke-width="0.7"></circle></g><g class="key-Bosnia-and-Herzegovina_0"><circle cx="423.00" cy="399.00" r="2.01" fill="#ffd336" opacity="0.8" stroke="#fff" stroke-width="0.7"></circle></g><g class="key-Panama_0"><circle cx="495.00" cy="352.00" r="2.00" fill="#4d824b" opacity="0.8" stroke="#fff" stroke-width="0.7"></circle></g><g class="key-Moldova_0"><circle cx="311.00" cy="450.00" r="2.00" fill="#ffd336" opacity="0.8" stroke="#fff" stroke-width="0.7"></circle></g><g class="key-Mauritania_0"><circle cx="283.00" cy="372.00" r="2.00" fill="#5675c1" opacity="0.8" stroke="#333" stroke-width="0.7"></circle></g><g class="key-Uruguay_0"><circle cx="501.00" cy="291.00" r="1.99" fill="#69c487" opacity="0.8" stroke="#fff" stroke-width="0.7"></circle></g><g class="key-Lithuania_0"><circle cx="533.00" cy="365.00" r="1.99" fill="#ffd336" opacity="0.8" stroke="#fff" stroke-width="0.7"></circle></g><g class="key-Albania_0"><circle cx="427.00" cy="319.00" r="1.98" fill="#ffd336" opacity="0.8" stroke="#333" stroke-width="0.7"></circle></g><g class="key-Armenia_0"><circle cx="379.00" cy="344.00" r="1.97" fill="#d14e5b" opacity="0.8" stroke="#333" stroke-width="0.7"></circle></g><g class="key-Oman_0"><circle cx="613.00" cy="353.00" r="1.96" fill="#d14e5b" opacity="0.8" stroke="#fff" stroke-width="0.7"></circle></g><g class="key-Kuwait_0"><circle cx="692.00" cy="371.00" r="1.96" fill="#d14e5b" opacity="0.8" stroke="#333" stroke-width="0.7"></circle></g><g class="key-Mongolia_0"><circle cx="409.00" cy="216.00" r="1.96" fill="#d14e5b" opacity="0.8" stroke="#333" stroke-width="0.7"></circle></g><g class="key-Jamaica_0"><circle cx="397.00" cy="433.00" r="1.95" fill="#4d824b" opacity="0.8" stroke="#333" stroke-width="0.7"></circle></g><g class="key-Namibia_0"><circle cx="407.00" cy="398.00" r="1.93" fill="#5675c1" opacity="0.8" stroke="#fff" stroke-width="0.7"></circle></g><g class="key-Latvia_0"><circle cx="514.00" cy="362.00" r="1.92" fill="#ffd336" opacity="0.8" stroke="#fff" stroke-width="0.7"></circle></g><g class="key-Lesotho_0"><circle cx="244.00" cy="434.00" r="1.92" fill="#5675c1" opacity="0.8" stroke="#fff" stroke-width="0.7"></circle></g><g class="key-Macedonia_0"><circle cx="444.00" cy="395.00" r="1.91" fill="#ffd336" opacity="0.8" stroke="#fff" stroke-width="0.7"></circle></g><g class="key-Slovenia_0"><circle cx="563.00" cy="300.00" r="1.91" fill="#ffd336" opacity="0.8" stroke="#fff" stroke-width="0.7"></circle></g><g class="key-Botswana_0"><circle cx="468.00" cy="393.00" r="1.91" fill="#5675c1" opacity="0.8" stroke="#fff" stroke-width="0.7"></circle></g><g class="key-Gambia_0"><circle cx="179.00" cy="453.00" r="1.89" fill="#5675c1" opacity="0.8" stroke="#fff" stroke-width="0.7"></circle></g><g class="key-Guinea__002dBissau_0"><circle cx="175.00" cy="462.00" r="1.88" fill="#5675c1" opacity="0.8" stroke="#fff" stroke-width="0.7"></circle></g><g class="key-Gabon_0"><circle cx="485.00" cy="388.00" r="1.88" fill="#5675c1" opacity="0.8" stroke="#fff" stroke-width="0.7"></circle></g><g class="key-Trinidad-and-Tobago_0"><circle cx="573.00" cy="426.00" r="1.87" fill="#4d824b" opacity="0.8" stroke="#fff" stroke-width="0.7"></circle></g><g class="key-Estonia_0"><circle cx="542.00" cy="354.00" r="1.87" fill="#ffd336" opacity="0.8" stroke="#fff" stroke-width="0.7"></circle></g><g class="key-Mauritius_0"><circle cx="491.00" cy="416.00" r="1.86" fill="#5675c1" opacity="0.8" stroke="#fff" stroke-width="0.7"></circle></g><g class="key-Swaziland_0"><circle cx="384.00" cy="406.00" r="1.86" fill="#5675c1" opacity="0.8" stroke="#fff" stroke-width="0.7"></circle></g><g class="key-Cyprus_0"><circle cx="581.00" cy="393.00" r="1.85" fill="#ffd336" opacity="0.8" stroke="#fff" stroke-width="0.7"></circle></g><g class="key-Djibouti_0"><circle cx="254.00" cy="425.00" r="1.84" fill="#5675c1" opacity="0.8" stroke="#fff" stroke-width="0.7"></circle></g><g class="key-Fiji_0"><circle cx="387.00" cy="395.00" r="1.84" fill="#a652ba" opacity="0.8" stroke="#333" stroke-width="0.7"></circle></g><g class="key-Guyana_0"><circle cx="361.00" cy="448.00" r="1.83" fill="#69c487" opacity="0.8" stroke="#fff" stroke-width="0.7"></circle></g><g class="key-Montenegro_0"><circle cx="473.00" cy="349.00" r="1.82" fill="#ffd336" opacity="0.8" stroke="#fff" stroke-width="0.7"></circle></g><g class="key-Solomon-Islands_0"><circle cx="219.00" cy="456.00" r="1.82" fill="#a652ba" opacity="0.8" stroke="#fff" stroke-width="0.7"></circle></g><g class="key-Suriname_0"><circle cx="477.00" cy="415.00" r="1.82" fill="#69c487" opacity="0.8" stroke="#fff" stroke-width="0.7"></circle></g><g class="key-Luxembourg_0"><circle cx="715.00" cy="244.00" r="1.81" fill="#ffd336" opacity="0.8" stroke="#333" stroke-width="0.7"></circle></g><g class="key-Malta_0"><circle cx="562.00" cy="302.00" r="1.81" fill="#ffd336" opacity="0.8" stroke="#fff" stroke-width="0.7"></circle></g><g class="key-Brunei_0"><circle cx="700.00" cy="392.00" r="1.81" fill="#d14e5b" opacity="0.8" stroke="#333" stroke-width="0.7"></circle></g><g class="key-Bahamas_0"><circle cx="564.00" cy="361.00" r="1.80" fill="#4d824b" opacity="0.8" stroke="#fff" stroke-width="0.7"></circle></g><g class="key-Iceland_0"><circle cx="605.00" cy="259.00" r="1.80" fill="#ffd336" opacity="0.8" stroke="#fff" stroke-width="0.7"></circle></g><g class="key-Maldives_0"><circle cx="456.00" cy="430.00" r="1.80" fill="#d14e5b" opacity="0.8" stroke="#333" stroke-width="0.7"></circle></g><g class="key-Belize_0"><circle cx="393.00" cy="432.00" r="1.80" fill="#4d824b" opacity="0.8" stroke="#fff" stroke-width="0.7"></circle></g><g class="key-Barbados_0"><circle cx="490.00" cy="370.00" r="1.80" fill="#4d824b" opacity="0.8" stroke="#fff" stroke-width="0.7"></circle></g><g class="key-Vanuatu_0"><circle cx="264.00" cy="429.00" r="1.80" fill="#a652ba" opacity="0.8" stroke="#fff" stroke-width="0.7"></circle></g><g class="key-Samoa_0"><circle cx="351.00" cy="401.00" r="1.79" fill="#a652ba" opacity="0.8" stroke="#fff" stroke-width="0.7"></circle></g><g class="key-Saint-Lucia_0"><circle cx="435.00" cy="417.00" r="1.79" fill="#4d824b" opacity="0.8" stroke="#fff" stroke-width="0.7"></circle></g><g class="key-Sao-Tome-and-Principe_0"><circle cx="254.00" cy="455.00" r="1.79" fill="#5675c1" opacity="0.8" stroke="#fff" stroke-width="0.7"></circle></g><g class="key-Saint-Vincent-and-the-Grenadines_0"><circle cx="423.00" cy="393.00" r="1.79" fill="#4d824b" opacity="0.8" stroke="#fff" stroke-width="0.7"></circle></g><g class="key-Grenada_0"><circle cx="440.00" cy="423.00" r="1.79" fill="#4d824b" opacity="0.8" stroke="#fff" stroke-width="0.7"></circle></g><g class="key-Kiribati_0"><circle cx="194.00" cy="451.00" r="1.79" fill="#a652ba" opacity="0.8" stroke="#fff" stroke-width="0.7"></circle></g><g class="key-Antigua-and-Barbuda_0"><circle cx="506.00" cy="375.00" r="1.79" fill="#4d824b" opacity="0.8" stroke="#fff" stroke-width="0.7"></circle></g><g class="key-Dominica_0"><circle cx="427.00" cy="391.00" r="1.79" fill="#4d824b" opacity="0.8" stroke="#fff" stroke-width="0.7"></circle></g><g class="key-Bermuda_0"><circle cx="647.00" cy="182.00" r="1.78" fill="#4d824b" opacity="0.8" stroke="#fff" stroke-width="0.7"></circle></g><g class="key-Saint-Kitts-and-Nevis_0"><circle cx="526.00" cy="393.00" r="1.78" fill="#4d824b" opacity="0.8" stroke="#fff" stroke-width="0.7"></circle></g><g class="key-World_0"><circle cx="464.00" cy="407.00" r="1.78" fill="#000" opacity="0.8" stroke="#fff" stroke-width="0.7"></circle></g><g class="key-Yemen_0"><circle cx="299.00" cy="453.00" r="1.78" fill="#d14e5b" opacity="0.8" stroke="#fff" stroke-width="0.7"></circle></g><g class="key-Cabo-Verde_0"><circle cx="358.00" cy="429.00" r="1.78" fill="#000" opacity="0.8" stroke="#fff" stroke-width="0.7"></circle></g><g class="key-Timor_0"><circle cx="212.00" cy="428.00" r="1.78" fill="#d14e5b" opacity="0.8" stroke="#fff" stroke-width="0.7"></circle></g><g class="backgroundLabels" fill="#333"><text x="430.00" y="408.16" font-size="14.30">China</text><text x="324.00" y="446.87" font-size="14.04">India</text><text x="634.00" y="211.26" font-size="11.77">United States</text><text x="409.00" y="464.26" font-size="11.59">Indonesia</text><text x="477.00" y="240.99" font-size="11.48">Brazil</text><text x="315.00" y="398.33" font-size="11.43">Pakistan</text><text x="247.00" y="473.81" font-size="11.37">Bangladesh</text><text x="539.00" y="331.95" font-size="11.35">Russia</text><text x="591.00" y="415.28" font-size="11.31">Japan</text><text x="487.00" y="367.52" font-size="11.28">Mexico</text><text x="324.00" y="428.11" font-size="11.22">Vietnam</text><text x="144.00" y="449.21" font-size="11.21">Ethiopia</text><text x="422.00" y="393.26" font-size="11.20">Egypt</text><text x="614.00" y="297.27" font-size="11.20">Germany</text><text x="503.00" y="418.45" font-size="11.18">Iran</text><text x="464.00" y="462.59" font-size="11.17">Thailand</text><text x="597.00" y="248.77" font-size="11.15">France</text><text x="450.00" y="379.13" font-size="11.12">South Africa</text><text x="573.00" y="384.19" font-size="11.12">South Korea</text><text x="577.00" y="339.25" font-size="11.11">Spain</text><text x="226.00" y="445.26" font-size="11.11">Tanzania</text><text x="247.00" y="404.41" font-size="11.10">Kenya</text><text x="513.00" y="164.44" font-size="11.10">Argentina</text><text x="533.00" y="388.52" font-size="11.09">Poland</text><text x="186.00" y="441.65" font-size="11.08">Uganda</text><text x="611.00" y="232.65" font-size="11.08">Canada</text><text x="372.00" y="411.73" font-size="11.08">Morocco</text><text x="217.00" y="428.79" font-size="11.07">Nepal</text><text x="431.00" y="447.83" font-size="11.07">Peru</text><text x="527.00" y="439.85" font-size="11.07">Malaysia</text><text x="631.00" y="408.88" font-size="11.07">Saudi Arabia</text><text x="320.00" y="311.89" font-size="11.07">Uzbekistan</text><text x="284.00" y="453.00" font-size="11.06">Ghana</text><text x="118.00" y="480.04" font-size="11.06">Mozambique</text><text x="612.00" y="173.09" font-size="11.06">Australia</text><text x="266.00" y="433.20" font-size="11.05">Cameroon</text><text x="356.00" y="445.21" font-size="11.05">Angola</text><text x="518.00" y="346.31" font-size="11.04">Chile</text><text x="175.00" y="408.33" font-size="11.04">Burkina Faso</text><text x="523.00" y="278.36" font-size="11.04">Kazakhstan</text><text x="95.00" y="378.37" font-size="11.04">Niger</text><text x="206.00" y="376.38" font-size="11.04">Mali</text><text x="424.00" y="348.43" font-size="11.04">Ecuador</text><text x="550.00" y="266.58" font-size="11.03">Greece</text><text x="553.00" y="305.62" font-size="11.03">Portugal</text><text x="563.00" y="352.63" font-size="11.03">Czech Republic</text><text x="188.00" y="458.64" font-size="11.02">Guinea</text><text x="349.00" y="359.65" font-size="11.02">Bolivia</text><text x="459.00" y="391.66" font-size="11.02">Serbia</text><text x="620.00" y="270.73" font-size="11.02">Austria</text><text x="387.00" y="359.83" font-size="11.02">Paraguay</text><text x="264.00" y="349.89" font-size="11.01">Kyrgyzstan</text><text x="663.00" y="282.92" font-size="11.01">Norway</text><text x="622.00" y="284.94" font-size="11.01">Ireland</text><text x="111.00" y="350.95" font-size="11.01">Central African Republic</text><text x="580.00" y="118.61" font-size="11.01">New Zealand</text><text x="84.00" y="480.97" font-size="11.01">Liberia</text><text x="283.00" y="369.00" font-size="11.01">Mauritania</text><text x="427.00" y="316.02" font-size="11.01">Albania</text><text x="379.00" y="341.03" font-size="11.01">Armenia</text><text x="658.87" y="368.04" font-size="11.01">Kuwait</text><text x="409.00" y="213.04" font-size="11.01">Mongolia</text><text x="397.00" y="430.05" font-size="11.01">Jamaica</text><text x="387.00" y="392.16" font-size="11.00">Fiji</text><text x="653.61" y="241.19" font-size="11.00">Luxembourg</text><text x="668.10" y="389.19" font-size="11.00">Brunei</text><text x="456.00" y="427.20" font-size="11.00">Maldives</text></g></g><g class="ScatterColorLegend clickable" style="cursor:pointer"><g class="legendMark"><rect x="735" y="105.10000000000001" width="43.256" height="17.6" fill="#fff" opacity="0"></rect>,<rect x="735" y="110.60000000000001" width="6" height="6" fill="#5675c1"></rect>,<text font-size="12.60" x="746.0" y="117.7"><tspan x="746" y="117.68">Africa</tspan></text></g><g class="legendMark"><rect x="735" y="122.70000000000002" width="35.57" height="17.6" fill="#fff" opacity="0"></rect>,<rect x="735" y="128.20000000000002" width="6" height="6" fill="#d14e5b"></rect>,<text font-size="12.60" x="746.0" y="135.3"><tspan x="746" y="135.28">Asia</tspan></text></g><g class="legendMark"><rect x="735" y="140.3" width="51.824" height="17.6" fill="#fff" opacity="0"></rect>,<rect x="735" y="145.8" width="6" height="6" fill="#ffd336"></rect>,<text font-size="12.60" x="746.0" y="152.9"><tspan x="746" y="152.88">Europe</tspan></text></g><g class="legendMark"><rect x="735" y="157.9" width="91.64" height="17.6" fill="#fff" opacity="0"></rect>,<rect x="735" y="163.4" width="6" height="6" fill="#4d824b"></rect>,<text font-size="12.60" x="746.0" y="170.5"><tspan x="746" y="170.48">North America</tspan></text></g><g class="legendMark"><rect x="735" y="175.5" width="58.124" height="17.6" fill="#fff" opacity="0"></rect>,<rect x="735" y="181" width="6" height="6" fill="#a652ba"></rect>,<text font-size="12.60" x="746.0" y="188.1"><tspan x="746" y="188.07999999999998">Oceania</tspan></text></g><g class="legendMark"><rect x="735" y="193.10000000000002" width="93.908" height="17.6" fill="#fff" opacity="0"></rect>,<rect x="735" y="198.60000000000002" width="6" height="6" fill="#69c487"></rect>,<text font-size="12.60" x="746.0" y="205.7"><tspan x="746" y="205.68">South America</tspan></text></g></g></g><g class="SourcesFooter" style="fill:#777"><g class="clickable" style="fill:#777"><text font-size="12.60" x="15.0" y="581.6"><tspan x="15" y="581.58">Source: World Bank, HALF Index (Land Use) - Alexander et al. (2016)</tspan></text></g><text font-size="12.60" x="469.3" y="581.6"><tspan x="469.348" y="581.58"><a target='_blank' style='fill: #777;' href='https://ourworldindata.org/agricultural-land-by-global-diets'>OurWorldInData.org/agricultural-land-by-global-diets</a> • <a style="fill: #777;" class="cclogo" href="http://creativecommons.org/licenses/by-sa/4.0/deed.en_US" target="_blank">CC BY-SA</a></tspan></text></g></g></svg>