<svg xmlns="http://www.w3.org/2000/svg" version="1.1" style="font-family:&#x27;Helvetica Neue&#x27;, Helvetica, Arial, sans-serif;font-size:18px;background-color:white;text-rendering:optimizeLegibility;-webkit-font-smoothing:antialiased" width="850" height="600"><g class="ChartTab"><g class="HeaderView"><g opacity="0.8" transform="translate(778, 15) scale(0.27)"><a xmlns:xlink="http://www.w3.org/1999/xlink" xlink:href="https://ourworldindata.org" target="_blank"><g><rect x="0" y="0" fill="#1B2543" width="211.2" height="130.1"/><rect x="0" y="112.2" fill="#E63912" width="211.2" height="17.9"/><g><rect x="1.2" y="12.3" fill="none" width="210.2" height="99.2"/><path fill="#FFFFFF" d="M37.8,32.2c0,12.7-7.7,19.4-17.1,19.4c-9.7,0-16.6-7.5-16.6-18.7c0-11.7,7.3-19.3,17.1-19.3 C31.3,13.7,37.8,21.3,37.8,32.2z M9.2,32.8c0,7.9,4.3,14.9,11.8,14.9c7.5,0,11.8-6.9,11.8-15.3c0-7.3-3.8-14.9-11.8-14.9 C13.1,17.5,9.2,24.8,9.2,32.8z"/><path fill="#FFFFFF" d="M62.7,43.8c0,2.7,0.1,5.1,0.2,7.2h-4.3l-0.3-4.3h-0.1c-1.3,2.1-4,4.9-8.8,4.9c-4.2,0-9.1-2.3-9.1-11.6 V24.6h4.8v14.6c0,5,1.5,8.4,5.9,8.4c3.2,0,5.5-2.2,6.3-4.4c0.3-0.7,0.4-1.6,0.4-2.5V24.6h4.8V43.8z"/><path fill="#FFFFFF" d="M67.3,32.8c0-3.1-0.1-5.8-0.2-8.2h4.2l0.2,5.2h0.2c1.2-3.5,4.1-5.8,7.3-5.8c0.5,0,0.9,0.1,1.4,0.2v4.5 c-0.5-0.1-1-0.2-1.6-0.2c-3.4,0-5.8,2.6-6.5,6.2c-0.1,0.7-0.2,1.4-0.2,2.2V51h-4.8V32.8z"/><path fill="#FFFFFF" d="M95.4,51l-9.4-36.8h5l4.4,18.6c1.1,4.6,2.1,9.2,2.7,12.7h0.1c0.6-3.7,1.8-8,3-12.8l4.9-18.5h5l4.5,18.7 c1,4.4,2,8.7,2.6,12.6h0.1c0.8-4,1.8-8.1,3-12.7l4.9-18.5h4.9L120.6,51h-5L111,31.9c-1.1-4.7-1.9-8.3-2.4-12h-0.1 c-0.7,3.7-1.5,7.3-2.8,12L100.4,51H95.4z"/><path fill="#FFFFFF" d="M154.9,37.6c0,9.8-6.8,14-13.2,14c-7.2,0-12.7-5.2-12.7-13.6c0-8.8,5.8-14,13.1-14 C149.8,24,154.9,29.5,154.9,37.6z M133.9,37.9c0,5.8,3.3,10.1,8,10.1c4.6,0,8-4.3,8-10.3c0-4.5-2.2-10.1-7.9-10.1 C136.3,27.6,133.9,32.8,133.9,37.9z"/><path fill="#FFFFFF" d="M158.2,32.8c0-3.1-0.1-5.8-0.2-8.2h4.2l0.2,5.2h0.2c1.2-3.5,4.1-5.8,7.3-5.8c0.5,0,0.9,0.1,1.4,0.2v4.5 c-0.5-0.1-1-0.2-1.6-0.2c-3.4,0-5.8,2.6-6.5,6.2c-0.1,0.7-0.2,1.4-0.2,2.2V51h-4.8V32.8z"/><path fill="#FFFFFF" d="M173.5,12.3h4.8V51h-4.8V12.3z"/><path fill="#FFFFFF" d="M206.5,12.3v31.9c0,2.3,0.1,5,0.2,6.8h-4.3l-0.2-4.6H202c-1.5,2.9-4.7,5.2-9,5.2 c-6.4,0-11.3-5.4-11.3-13.4c-0.1-8.8,5.4-14.2,11.9-14.2c4,0,6.8,1.9,8,4h0.1V12.3H206.5z M201.7,35.4c0-0.6-0.1-1.4-0.2-2 c-0.7-3.1-3.3-5.6-6.9-5.6c-5,0-7.9,4.4-7.9,10.2c0,5.3,2.6,9.8,7.8,9.8c3.2,0,6.2-2.1,7.1-5.7c0.2-0.7,0.2-1.3,0.2-2.1V35.4z"/><path fill="#FFFFFF" d="M42.8,64c0.1,1.6-1.1,2.9-3.1,2.9c-1.7,0-2.9-1.3-2.9-2.9c0-1.7,1.3-3,3-3C41.7,61,42.8,62.3,42.8,64z M37.4,97.8V71.4h4.8v26.4H37.4z"/><path fill="#FFFFFF" d="M47.5,78.6c0-2.7-0.1-5-0.2-7.1h4.3l0.3,4.4h0.1c1.3-2.5,4.4-5,8.8-5c3.7,0,9.4,2.2,9.4,11.2v15.8h-4.8 V82.6c0-4.3-1.6-7.8-6.1-7.8c-3.2,0-5.6,2.2-6.5,4.9c-0.2,0.6-0.3,1.4-0.3,2.2v15.9h-4.8V78.6z"/><path fill="#FFFFFF" d="M84,61.6c2.9-0.4,6.3-0.8,10.1-0.8c6.8,0,11.7,1.6,14.9,4.6c3.3,3,5.2,7.3,5.2,13.2c0,6-1.9,10.9-5.3,14.3 c-3.4,3.4-9.1,5.3-16.3,5.3c-3.4,0-6.2-0.2-8.6-0.4V61.6z M88.8,94.1c1.2,0.2,3,0.3,4.8,0.3c10.2,0,15.7-5.7,15.7-15.6 c0.1-8.7-4.9-14.2-14.9-14.2c-2.5,0-4.3,0.2-5.6,0.5V94.1z"/><path fill="#FFFFFF" d="M132.1,97.8l-0.4-3.3h-0.2c-1.5,2.1-4.3,3.9-8.1,3.9c-5.4,0-8.1-3.8-8.1-7.6c0-6.4,5.7-9.9,15.9-9.8v-0.5 c0-2.2-0.6-6.1-6-6.1c-2.5,0-5,0.8-6.9,2l-1.1-3.2c2.2-1.4,5.4-2.3,8.7-2.3c8.1,0,10.1,5.5,10.1,10.8v9.9c0,2.3,0.1,4.5,0.4,6.3 H132.1z M131.4,84.4c-5.3-0.1-11.2,0.8-11.2,5.9c0,3.1,2.1,4.6,4.5,4.6c3.4,0,5.6-2.2,6.4-4.4c0.2-0.5,0.3-1,0.3-1.5V84.4z"/><path fill="#FFFFFF" d="M146.6,63.9v7.6h6.9v3.7h-6.9v14.2c0,3.3,0.9,5.1,3.6,5.1c1.3,0,2.2-0.2,2.8-0.3l0.2,3.6 c-0.9,0.4-2.4,0.7-4.3,0.7c-2.2,0-4-0.7-5.2-2c-1.4-1.4-1.9-3.8-1.9-6.9V75.1h-4.1v-3.7h4.1v-6.3L146.6,63.9z"/><path fill="#FFFFFF" d="M171.4,97.8l-0.4-3.3h-0.2c-1.5,2.1-4.3,3.9-8.1,3.9c-5.4,0-8.1-3.8-8.1-7.6c0-6.4,5.7-9.9,15.9-9.8v-0.5 c0-2.2-0.6-6.1-6-6.1c-2.5,0-5,0.8-6.9,2l-1.1-3.2c2.2-1.4,5.4-2.3,8.7-2.3c8.1,0,10.1,5.5,10.1,10.8v9.9c0,2.3,0.1,4.5,0.4,6.3 H171.4z M170.7,84.4c-5.3-0.1-11.2,0.8-11.2,5.9c0,3.1,2.1,4.6,4.5,4.6c3.4,0,5.6-2.2,6.4-4.4c0.2-0.5,0.3-1,0.3-1.5V84.4z"/></g></g></a></g><a href="https://ourworldindata.org/grapher/energy-intensity-of-economies" target="_blank"><text font-size="25.20" x="15.0" y="35.2" fill="#555"><tspan x="15" y="35.160000000000004">Energy intensity of economies</tspan></text></a><text font-size="14.40" x="15.0" y="53.7" fill="#666"><tspan x="15" y="53.72">Energy intensity of production, measured in kilowatt-hours per 2011 international-$ of gross domestic product (kWh</tspan><tspan x="15" y="69.56">per 2011 int-$ GDP).</tspan></text></g><g class="LineChart"><defs><clipPath id="boundsClip-176"><rect x="83.224" y="0" width="830" height="928.8"></rect></clipPath></defs><g class="AxisBoxView"><g class="HorizontalAxis"><text x="93.2" y="556.5" fill="#666" text-anchor="middle" font-size="16.2">1990</text><text x="209" y="556.5" fill="#666" text-anchor="middle" font-size="16.2">1995</text><text x="324.8" y="556.5" fill="#666" text-anchor="middle" font-size="16.2">2000</text><text x="440.6" y="556.5" fill="#666" text-anchor="middle" font-size="16.2">2005</text><text x="556.4" y="556.5" fill="#666" text-anchor="middle" font-size="16.2">2010</text><text x="672.2" y="556.5" fill="#666" text-anchor="middle" font-size="16.2">2015</text></g><g class="VerticalAxis"><text x="88.22" y="535.3" fill="#666" dominant-baseline="middle" text-anchor="end" font-size="16.2">0 kWh/$</text><text x="88.22" y="472.8" fill="#666" dominant-baseline="middle" text-anchor="end" font-size="16.2">0.5 kWh/$</text><text x="88.22" y="410.3" fill="#666" dominant-baseline="middle" text-anchor="end" font-size="16.2">1 kWh/$</text><text x="88.22" y="347.9" fill="#666" dominant-baseline="middle" text-anchor="end" font-size="16.2">1.5 kWh/$</text><text x="88.22" y="285.4" fill="#666" dominant-baseline="middle" text-anchor="end" font-size="16.2">2 kWh/$</text><text x="88.22" y="222.9" fill="#666" dominant-baseline="middle" text-anchor="end" font-size="16.2">2.5 kWh/$</text><text x="88.22" y="160.4" fill="#666" dominant-baseline="middle" text-anchor="end" font-size="16.2">3 kWh/$</text><text x="88.22" y="98" fill="#666" dominant-baseline="middle" text-anchor="end" font-size="16.2">3.5 kWh/$</text></g><g class="AxisGridLines"><line x1="93.22" y1="535.3" x2="672.15" y2="535.3" stroke="#ccc"></line><line x1="93.22" y1="472.8" x2="672.15" y2="472.8" stroke="#ddd" stroke-dasharray="3,2"></line><line x1="93.22" y1="410.3" x2="672.15" y2="410.3" stroke="#ddd" stroke-dasharray="3,2"></line><line x1="93.22" y1="347.9" x2="672.15" y2="347.9" stroke="#ddd" stroke-dasharray="3,2"></line><line x1="93.22" y1="285.4" x2="672.15" y2="285.4" stroke="#ddd" stroke-dasharray="3,2"></line><line x1="93.22" y1="222.9" x2="672.15" y2="222.9" stroke="#ddd" stroke-dasharray="3,2"></line><line x1="93.22" y1="160.4" x2="672.15" y2="160.4" stroke="#ddd" stroke-dasharray="3,2"></line><line x1="93.22" y1="98" x2="672.15" y2="98" stroke="#ddd" stroke-dasharray="3,2"></line></g></g><g clip-path="url(#boundsClip-176)"><g class="HeightedLegend clickable"><g class="legendMark"><g class="indicator"><line x1="677.155" y1="227.8" x2="689.655" y2="227.8" stroke="#666" stroke-width="0.5"></line><line x1="689.655" y1="227.8" x2="689.655" y2="227.8" stroke="#666" stroke-width="0.5"></line><line x1="689.655" y1="227.8" x2="702.155" y2="227.8" stroke="#666" stroke-width="0.5"></line></g><rect x="672.155" y="221.05" width="107.22500000000001" height="13.5" fill="#fff" opacity="0"></rect><text font-size="13.50" x="707.2" y="231.9" fill="#2a939b"><tspan x="707.155" y="231.85000000000002">Low income</tspan></text></g><g class="legendMark"><g class="indicator"><line x1="677.155" y1="326.9" x2="689.655" y2="326.9" stroke="#666" stroke-width="0.5"></line><line x1="689.655" y1="326.9" x2="689.655" y2="326.9" stroke="#666" stroke-width="0.5"></line><line x1="689.655" y1="326.9" x2="702.155" y2="326.9" stroke="#666" stroke-width="0.5"></line></g><rect x="672.155" y="320.15" width="162.84500000000003" height="13.5" fill="#fff" opacity="0"></rect><text font-size="13.50" x="707.2" y="330.9" fill="#a652ba"><tspan x="707.155" y="330.95">Upper middle income</tspan></text></g><g class="legendMark"><g class="indicator"><line x1="677.155" y1="342.5" x2="689.655" y2="342.5" stroke="#666" stroke-width="0.5"></line><line x1="689.655" y1="342.5" x2="689.655" y2="342.5" stroke="#666" stroke-width="0.5"></line><line x1="689.655" y1="342.5" x2="702.155" y2="342.5" stroke="#666" stroke-width="0.5"></line></g><rect x="672.155" y="335.75" width="122.21000000000001" height="13.5" fill="#fff" opacity="0"></rect><text font-size="13.50" x="707.2" y="346.6" fill="#f6a324"><tspan x="707.155" y="346.55">Middle income</tspan></text></g><g class="legendMark"><g class="indicator"><line x1="677.155" y1="357.2" x2="689.655" y2="357.2" stroke="#666" stroke-width="0.5"></line><line x1="689.655" y1="357.2" x2="689.655" y2="357.2" stroke="#666" stroke-width="0.5"></line><line x1="689.655" y1="357.2" x2="702.155" y2="357.2" stroke="#666" stroke-width="0.5"></line></g><rect x="672.155" y="350.45" width="70.235" height="13.5" fill="#fff" opacity="0"></rect><text font-size="13.50" x="707.2" y="361.3" fill="#34983f"><tspan x="707.155" y="361.25">World</tspan></text></g><g class="legendMark"><g class="indicator"><line x1="677.155" y1="375.8" x2="699.655" y2="375.8" stroke="#666" stroke-width="0.5"></line><line x1="699.655" y1="375.8" x2="699.655" y2="375.8" stroke="#666" stroke-width="0.5"></line><line x1="699.655" y1="375.8" x2="702.155" y2="375.8" stroke="#666" stroke-width="0.5"></line></g><rect x="672.155" y="369.05" width="110.19500000000001" height="13.5" fill="#fff" opacity="0"></rect><text font-size="13.50" x="707.2" y="379.9" fill="#ca2628"><tspan x="707.155" y="379.85">High income</tspan></text></g><g class="legendMark"><g class="indicator"><line x1="677.155" y1="376.1" x2="689.655" y2="376.1" stroke="#666" stroke-width="0.5"></line><line x1="689.655" y1="376.1" x2="689.655" y2="391.3" stroke="#666" stroke-width="0.5"></line><line x1="689.655" y1="391.3" x2="702.155" y2="391.3" stroke="#666" stroke-width="0.5"></line></g><rect x="672.155" y="384.55" width="162.84500000000003" height="13.5" fill="#fff" opacity="0"></rect><text font-size="13.50" x="707.2" y="395.4" fill="#3360a9"><tspan x="707.155" y="395.35">Lower middle income</tspan></text></g></g><g class="Lines"><rect x="93" y="92" width="579" height="443" fill="rgba(255,255,255,0)" opacity="0"></rect><g class="key-World_0"><path stroke="#34983f" stroke-linecap="round" d="M93 272L116 273L140 278L163 279L186 285L209 286L232 289L255 297L279 301L302 305L325 310L348 313L371 314L394 315L417 317L441 321L464 326L487 331L510 334L533 335L556 334L580 339L603 341L626 345L649 352L672 357" fill="none" stroke-width="1.5"></path><g fill="#34983f"><circle cx="93" cy="272" r="2"></circle><circle cx="116" cy="273" r="2"></circle><circle cx="140" cy="278" r="2"></circle><circle cx="163" cy="279" r="2"></circle><circle cx="186" cy="285" r="2"></circle><circle cx="209" cy="286" r="2"></circle><circle cx="232" cy="289" r="2"></circle><circle cx="255" cy="297" r="2"></circle><circle cx="279" cy="301" r="2"></circle><circle cx="302" cy="305" r="2"></circle><circle cx="325" cy="310" r="2"></circle><circle cx="348" cy="313" r="2"></circle><circle cx="371" cy="314" r="2"></circle><circle cx="394" cy="315" r="2"></circle><circle cx="417" cy="317" r="2"></circle><circle cx="441" cy="321" r="2"></circle><circle cx="464" cy="326" r="2"></circle><circle cx="487" cy="331" r="2"></circle><circle cx="510" cy="334" r="2"></circle><circle cx="533" cy="335" r="2"></circle><circle cx="556" cy="334" r="2"></circle><circle cx="580" cy="339" r="2"></circle><circle cx="603" cy="341" r="2"></circle><circle cx="626" cy="345" r="2"></circle><circle cx="649" cy="352" r="2"></circle><circle cx="672" cy="357" r="2"></circle></g></g><g class="key-Low-income_0"><path stroke="#2a939b" stroke-linecap="round" d="M93 117L116 110L140 94L163 94L186 96L209 92L232 111L255 121L279 124L302 124L325 129L348 133L371 151L394 154L417 162L441 168L464 174L487 185L510 193L533 198L556 208L580 208L603 218L626 222L649 233L672 228" fill="none" stroke-width="1.5"></path><g fill="#2a939b"><circle cx="93" cy="117" r="2"></circle><circle cx="116" cy="110" r="2"></circle><circle cx="140" cy="94" r="2"></circle><circle cx="163" cy="94" r="2"></circle><circle cx="186" cy="96" r="2"></circle><circle cx="209" cy="92" r="2"></circle><circle cx="232" cy="111" r="2"></circle><circle cx="255" cy="121" r="2"></circle><circle cx="279" cy="124" r="2"></circle><circle cx="302" cy="124" r="2"></circle><circle cx="325" cy="129" r="2"></circle><circle cx="348" cy="133" r="2"></circle><circle cx="371" cy="151" r="2"></circle><circle cx="394" cy="154" r="2"></circle><circle cx="417" cy="162" r="2"></circle><circle cx="441" cy="168" r="2"></circle><circle cx="464" cy="174" r="2"></circle><circle cx="487" cy="185" r="2"></circle><circle cx="510" cy="193" r="2"></circle><circle cx="533" cy="198" r="2"></circle><circle cx="556" cy="208" r="2"></circle><circle cx="580" cy="208" r="2"></circle><circle cx="603" cy="218" r="2"></circle><circle cx="626" cy="222" r="2"></circle><circle cx="649" cy="233" r="2"></circle><circle cx="672" cy="228" r="2"></circle></g></g><g class="key-High-income_0"><path stroke="#ca2628" stroke-linecap="round" d="M93 308L116 308L140 310L163 310L186 312L209 313L232 313L255 319L279 324L302 327L325 330L348 333L371 335L394 337L417 339L441 344L464 349L487 354L510 356L533 357L556 356L580 363L603 366L626 368L649 372L672 376" fill="none" stroke-width="1.5"></path><g fill="#ca2628"><circle cx="93" cy="308" r="2"></circle><circle cx="116" cy="308" r="2"></circle><circle cx="140" cy="310" r="2"></circle><circle cx="163" cy="310" r="2"></circle><circle cx="186" cy="312" r="2"></circle><circle cx="209" cy="313" r="2"></circle><circle cx="232" cy="313" r="2"></circle><circle cx="255" cy="319" r="2"></circle><circle cx="279" cy="324" r="2"></circle><circle cx="302" cy="327" r="2"></circle><circle cx="325" cy="330" r="2"></circle><circle cx="348" cy="333" r="2"></circle><circle cx="371" cy="335" r="2"></circle><circle cx="394" cy="337" r="2"></circle><circle cx="417" cy="339" r="2"></circle><circle cx="441" cy="344" r="2"></circle><circle cx="464" cy="349" r="2"></circle><circle cx="487" cy="354" r="2"></circle><circle cx="510" cy="356" r="2"></circle><circle cx="533" cy="357" r="2"></circle><circle cx="556" cy="356" r="2"></circle><circle cx="580" cy="363" r="2"></circle><circle cx="603" cy="366" r="2"></circle><circle cx="626" cy="368" r="2"></circle><circle cx="649" cy="372" r="2"></circle><circle cx="672" cy="376" r="2"></circle></g></g><g class="key-Middle-income_0"><path stroke="#f6a324" stroke-linecap="round" d="M93 215L116 217L140 225L163 231L186 241L209 243L232 252L255 262L279 267L302 272L325 280L348 283L371 286L394 285L417 287L441 291L464 297L487 306L510 311L533 312L556 313L580 316L603 320L626 326L649 336L672 343" fill="none" stroke-width="1.5"></path><g fill="#f6a324"><circle cx="93" cy="215" r="2"></circle><circle cx="116" cy="217" r="2"></circle><circle cx="140" cy="225" r="2"></circle><circle cx="163" cy="231" r="2"></circle><circle cx="186" cy="241" r="2"></circle><circle cx="209" cy="243" r="2"></circle><circle cx="232" cy="252" r="2"></circle><circle cx="255" cy="262" r="2"></circle><circle cx="279" cy="267" r="2"></circle><circle cx="302" cy="272" r="2"></circle><circle cx="325" cy="280" r="2"></circle><circle cx="348" cy="283" r="2"></circle><circle cx="371" cy="286" r="2"></circle><circle cx="394" cy="285" r="2"></circle><circle cx="417" cy="287" r="2"></circle><circle cx="441" cy="291" r="2"></circle><circle cx="464" cy="297" r="2"></circle><circle cx="487" cy="306" r="2"></circle><circle cx="510" cy="311" r="2"></circle><circle cx="533" cy="312" r="2"></circle><circle cx="556" cy="313" r="2"></circle><circle cx="580" cy="316" r="2"></circle><circle cx="603" cy="320" r="2"></circle><circle cx="626" cy="326" r="2"></circle><circle cx="649" cy="336" r="2"></circle><circle cx="672" cy="343" r="2"></circle></g></g><g class="key-Upper-middle-income_0"><path stroke="#a652ba" stroke-linecap="round" d="M93 202L116 206L140 212L163 218L186 226L209 228L232 237L255 250L279 257L302 263L325 273L348 276L371 279L394 273L417 273L441 276L464 281L487 290L510 296L533 296L556 296L580 298L603 301L626 307L649 320L672 327" fill="none" stroke-width="1.5"></path><g fill="#a652ba"><circle cx="93" cy="202" r="2"></circle><circle cx="116" cy="206" r="2"></circle><circle cx="140" cy="212" r="2"></circle><circle cx="163" cy="218" r="2"></circle><circle cx="186" cy="226" r="2"></circle><circle cx="209" cy="228" r="2"></circle><circle cx="232" cy="237" r="2"></circle><circle cx="255" cy="250" r="2"></circle><circle cx="279" cy="257" r="2"></circle><circle cx="302" cy="263" r="2"></circle><circle cx="325" cy="273" r="2"></circle><circle cx="348" cy="276" r="2"></circle><circle cx="371" cy="279" r="2"></circle><circle cx="394" cy="273" r="2"></circle><circle cx="417" cy="273" r="2"></circle><circle cx="441" cy="276" r="2"></circle><circle cx="464" cy="281" r="2"></circle><circle cx="487" cy="290" r="2"></circle><circle cx="510" cy="296" r="2"></circle><circle cx="533" cy="296" r="2"></circle><circle cx="556" cy="296" r="2"></circle><circle cx="580" cy="298" r="2"></circle><circle cx="603" cy="301" r="2"></circle><circle cx="626" cy="307" r="2"></circle><circle cx="649" cy="320" r="2"></circle><circle cx="672" cy="327" r="2"></circle></g></g><g class="key-Lower-middle-income_0"><path stroke="#3360a9" stroke-linecap="round" d="M93 245L116 243L140 254L163 259L186 272L209 275L232 286L255 289L279 288L302 290L325 295L348 301L371 302L394 310L417 318L441 326L464 335L487 342L510 346L533 349L556 353L580 358L603 360L626 368L649 370L672 376" fill="none" stroke-width="1.5"></path><g fill="#3360a9"><circle cx="93" cy="245" r="2"></circle><circle cx="116" cy="243" r="2"></circle><circle cx="140" cy="254" r="2"></circle><circle cx="163" cy="259" r="2"></circle><circle cx="186" cy="272" r="2"></circle><circle cx="209" cy="275" r="2"></circle><circle cx="232" cy="286" r="2"></circle><circle cx="255" cy="289" r="2"></circle><circle cx="279" cy="288" r="2"></circle><circle cx="302" cy="290" r="2"></circle><circle cx="325" cy="295" r="2"></circle><circle cx="348" cy="301" r="2"></circle><circle cx="371" cy="302" r="2"></circle><circle cx="394" cy="310" r="2"></circle><circle cx="417" cy="318" r="2"></circle><circle cx="441" cy="326" r="2"></circle><circle cx="464" cy="335" r="2"></circle><circle cx="487" cy="342" r="2"></circle><circle cx="510" cy="346" r="2"></circle><circle cx="533" cy="349" r="2"></circle><circle cx="556" cy="353" r="2"></circle><circle cx="580" cy="358" r="2"></circle><circle cx="603" cy="360" r="2"></circle><circle cx="626" cy="368" r="2"></circle><circle cx="649" cy="370" r="2"></circle><circle cx="672" cy="376" r="2"></circle></g></g></g></g></g><g class="SourcesFooter" style="fill:#777"><g class="clickable" style="fill:#777"><text font-size="12.60" x="15.0" y="581.6"><tspan x="15" y="581.58">Source: World Bank, Sustainable Energy for All (SE4ALL)</tspan></text></g><text font-size="12.60" x="367.9" y="581.6"><tspan x="367.918" y="581.58"><a target='_blank' style='fill: #777;' href='https://ourworldindata.org/energy-production-and-changing-energy-sources/'>OurWorldInData.org/energy-production-and-changing-energy-sources/</a> • <a style="fill: #777;" class="cclogo" href="http://creativecommons.org/licenses/by-sa/4.0/deed.en_US" target="_blank">CC BY-SA</a></tspan></text></g></g></svg>