<svg xmlns="http://www.w3.org/2000/svg" version="1.1" style="font-family:&#x27;Helvetica Neue&#x27;, Helvetica, Arial, sans-serif;font-size:18px;background-color:white;text-rendering:optimizeLegibility;-webkit-font-smoothing:antialiased" width="850" height="600"><g class="ChartTab"><g class="HeaderView"><g opacity="0.8" transform="translate(778, 15) scale(0.27)"><a xmlns:xlink="http://www.w3.org/1999/xlink" xlink:href="https://ourworldindata.org" target="_blank"><g><rect x="0" y="0" fill="#1B2543" width="211.2" height="130.1"/><rect x="0" y="112.2" fill="#E63912" width="211.2" height="17.9"/><g><rect x="1.2" y="12.3" fill="none" width="210.2" height="99.2"/><path fill="#FFFFFF" d="M37.8,32.2c0,12.7-7.7,19.4-17.1,19.4c-9.7,0-16.6-7.5-16.6-18.7c0-11.7,7.3-19.3,17.1-19.3 C31.3,13.7,37.8,21.3,37.8,32.2z M9.2,32.8c0,7.9,4.3,14.9,11.8,14.9c7.5,0,11.8-6.9,11.8-15.3c0-7.3-3.8-14.9-11.8-14.9 C13.1,17.5,9.2,24.8,9.2,32.8z"/><path fill="#FFFFFF" d="M62.7,43.8c0,2.7,0.1,5.1,0.2,7.2h-4.3l-0.3-4.3h-0.1c-1.3,2.1-4,4.9-8.8,4.9c-4.2,0-9.1-2.3-9.1-11.6 V24.6h4.8v14.6c0,5,1.5,8.4,5.9,8.4c3.2,0,5.5-2.2,6.3-4.4c0.3-0.7,0.4-1.6,0.4-2.5V24.6h4.8V43.8z"/><path fill="#FFFFFF" d="M67.3,32.8c0-3.1-0.1-5.8-0.2-8.2h4.2l0.2,5.2h0.2c1.2-3.5,4.1-5.8,7.3-5.8c0.5,0,0.9,0.1,1.4,0.2v4.5 c-0.5-0.1-1-0.2-1.6-0.2c-3.4,0-5.8,2.6-6.5,6.2c-0.1,0.7-0.2,1.4-0.2,2.2V51h-4.8V32.8z"/><path fill="#FFFFFF" d="M95.4,51l-9.4-36.8h5l4.4,18.6c1.1,4.6,2.1,9.2,2.7,12.7h0.1c0.6-3.7,1.8-8,3-12.8l4.9-18.5h5l4.5,18.7 c1,4.4,2,8.7,2.6,12.6h0.1c0.8-4,1.8-8.1,3-12.7l4.9-18.5h4.9L120.6,51h-5L111,31.9c-1.1-4.7-1.9-8.3-2.4-12h-0.1 c-0.7,3.7-1.5,7.3-2.8,12L100.4,51H95.4z"/><path fill="#FFFFFF" d="M154.9,37.6c0,9.8-6.8,14-13.2,14c-7.2,0-12.7-5.2-12.7-13.6c0-8.8,5.8-14,13.1-14 C149.8,24,154.9,29.5,154.9,37.6z M133.9,37.9c0,5.8,3.3,10.1,8,10.1c4.6,0,8-4.3,8-10.3c0-4.5-2.2-10.1-7.9-10.1 C136.3,27.6,133.9,32.8,133.9,37.9z"/><path fill="#FFFFFF" d="M158.2,32.8c0-3.1-0.1-5.8-0.2-8.2h4.2l0.2,5.2h0.2c1.2-3.5,4.1-5.8,7.3-5.8c0.5,0,0.9,0.1,1.4,0.2v4.5 c-0.5-0.1-1-0.2-1.6-0.2c-3.4,0-5.8,2.6-6.5,6.2c-0.1,0.7-0.2,1.4-0.2,2.2V51h-4.8V32.8z"/><path fill="#FFFFFF" d="M173.5,12.3h4.8V51h-4.8V12.3z"/><path fill="#FFFFFF" d="M206.5,12.3v31.9c0,2.3,0.1,5,0.2,6.8h-4.3l-0.2-4.6H202c-1.5,2.9-4.7,5.2-9,5.2 c-6.4,0-11.3-5.4-11.3-13.4c-0.1-8.8,5.4-14.2,11.9-14.2c4,0,6.8,1.9,8,4h0.1V12.3H206.5z M201.7,35.4c0-0.6-0.1-1.4-0.2-2 c-0.7-3.1-3.3-5.6-6.9-5.6c-5,0-7.9,4.4-7.9,10.2c0,5.3,2.6,9.8,7.8,9.8c3.2,0,6.2-2.1,7.1-5.7c0.2-0.7,0.2-1.3,0.2-2.1V35.4z"/><path fill="#FFFFFF" d="M42.8,64c0.1,1.6-1.1,2.9-3.1,2.9c-1.7,0-2.9-1.3-2.9-2.9c0-1.7,1.3-3,3-3C41.7,61,42.8,62.3,42.8,64z M37.4,97.8V71.4h4.8v26.4H37.4z"/><path fill="#FFFFFF" d="M47.5,78.6c0-2.7-0.1-5-0.2-7.1h4.3l0.3,4.4h0.1c1.3-2.5,4.4-5,8.8-5c3.7,0,9.4,2.2,9.4,11.2v15.8h-4.8 V82.6c0-4.3-1.6-7.8-6.1-7.8c-3.2,0-5.6,2.2-6.5,4.9c-0.2,0.6-0.3,1.4-0.3,2.2v15.9h-4.8V78.6z"/><path fill="#FFFFFF" d="M84,61.6c2.9-0.4,6.3-0.8,10.1-0.8c6.8,0,11.7,1.6,14.9,4.6c3.3,3,5.2,7.3,5.2,13.2c0,6-1.9,10.9-5.3,14.3 c-3.4,3.4-9.1,5.3-16.3,5.3c-3.4,0-6.2-0.2-8.6-0.4V61.6z M88.8,94.1c1.2,0.2,3,0.3,4.8,0.3c10.2,0,15.7-5.7,15.7-15.6 c0.1-8.7-4.9-14.2-14.9-14.2c-2.5,0-4.3,0.2-5.6,0.5V94.1z"/><path fill="#FFFFFF" d="M132.1,97.8l-0.4-3.3h-0.2c-1.5,2.1-4.3,3.9-8.1,3.9c-5.4,0-8.1-3.8-8.1-7.6c0-6.4,5.7-9.9,15.9-9.8v-0.5 c0-2.2-0.6-6.1-6-6.1c-2.5,0-5,0.8-6.9,2l-1.1-3.2c2.2-1.4,5.4-2.3,8.7-2.3c8.1,0,10.1,5.5,10.1,10.8v9.9c0,2.3,0.1,4.5,0.4,6.3 H132.1z M131.4,84.4c-5.3-0.1-11.2,0.8-11.2,5.9c0,3.1,2.1,4.6,4.5,4.6c3.4,0,5.6-2.2,6.4-4.4c0.2-0.5,0.3-1,0.3-1.5V84.4z"/><path fill="#FFFFFF" d="M146.6,63.9v7.6h6.9v3.7h-6.9v14.2c0,3.3,0.9,5.1,3.6,5.1c1.3,0,2.2-0.2,2.8-0.3l0.2,3.6 c-0.9,0.4-2.4,0.7-4.3,0.7c-2.2,0-4-0.7-5.2-2c-1.4-1.4-1.9-3.8-1.9-6.9V75.1h-4.1v-3.7h4.1v-6.3L146.6,63.9z"/><path fill="#FFFFFF" d="M171.4,97.8l-0.4-3.3h-0.2c-1.5,2.1-4.3,3.9-8.1,3.9c-5.4,0-8.1-3.8-8.1-7.6c0-6.4,5.7-9.9,15.9-9.8v-0.5 c0-2.2-0.6-6.1-6-6.1c-2.5,0-5,0.8-6.9,2l-1.1-3.2c2.2-1.4,5.4-2.3,8.7-2.3c8.1,0,10.1,5.5,10.1,10.8v9.9c0,2.3,0.1,4.5,0.4,6.3 H171.4z M170.7,84.4c-5.3-0.1-11.2,0.8-11.2,5.9c0,3.1,2.1,4.6,4.5,4.6c3.4,0,5.6-2.2,6.4-4.4c0.2-0.5,0.3-1,0.3-1.5V84.4z"/></g></g></a></g><a href="https://ourworldindata.org/grapher/historical-gov-spending-gdp?country=BRA+DEU+IND+JPN+GBR+USA" target="_blank"><text font-size="25.20" x="15.0" y="35.2" fill="#555"><tspan x="15" y="35.160000000000004">Government spending (% GDP)</tspan></text></a><text font-size="14.40" x="15.0" y="53.7" fill="#666"><tspan x="15" y="53.72">Total government spending, including interest government expenditures, as share of national GDP</tspan></text></g><g class="LineChart"><defs><clipPath id="boundsClip-603"><rect x="42.562" y="0" width="830" height="959.8"></rect></clipPath></defs><g class="AxisBoxView"><g class="HorizontalAxis"><text x="52.6" y="556.5" fill="#666" text-anchor="middle" font-size="16.2">1880</text><text x="152" y="556.5" fill="#666" text-anchor="middle" font-size="16.2">1900</text><text x="251.4" y="556.5" fill="#666" text-anchor="middle" font-size="16.2">1920</text><text x="350.8" y="556.5" fill="#666" text-anchor="middle" font-size="16.2">1940</text><text x="450.1" y="556.5" fill="#666" text-anchor="middle" font-size="16.2">1960</text><text x="549.5" y="556.5" fill="#666" text-anchor="middle" font-size="16.2">1980</text><text x="648.9" y="556.5" fill="#666" text-anchor="middle" font-size="16.2">2000</text><text x="703.6" y="556.5" fill="#666" text-anchor="middle" font-size="16.2">2011</text></g><g class="VerticalAxis"><text x="47.56" y="535.3" fill="#666" dominant-baseline="middle" text-anchor="end" font-size="16.2">0%</text><text x="47.56" y="471.3" fill="#666" dominant-baseline="middle" text-anchor="end" font-size="16.2">10%</text><text x="47.56" y="407.3" fill="#666" dominant-baseline="middle" text-anchor="end" font-size="16.2">20%</text><text x="47.56" y="343.3" fill="#666" dominant-baseline="middle" text-anchor="end" font-size="16.2">30%</text><text x="47.56" y="279.2" fill="#666" dominant-baseline="middle" text-anchor="end" font-size="16.2">40%</text><text x="47.56" y="215.2" fill="#666" dominant-baseline="middle" text-anchor="end" font-size="16.2">50%</text><text x="47.56" y="151.2" fill="#666" dominant-baseline="middle" text-anchor="end" font-size="16.2">60%</text><text x="47.56" y="87.2" fill="#666" dominant-baseline="middle" text-anchor="end" font-size="16.2">70%</text></g><g class="AxisGridLines"><line x1="52.56" y1="535.3" x2="703.61" y2="535.3" stroke="#ccc"></line><line x1="52.56" y1="471.3" x2="703.61" y2="471.3" stroke="#ddd" stroke-dasharray="3,2"></line><line x1="52.56" y1="407.3" x2="703.61" y2="407.3" stroke="#ddd" stroke-dasharray="3,2"></line><line x1="52.56" y1="343.3" x2="703.61" y2="343.3" stroke="#ddd" stroke-dasharray="3,2"></line><line x1="52.56" y1="279.2" x2="703.61" y2="279.2" stroke="#ddd" stroke-dasharray="3,2"></line><line x1="52.56" y1="215.2" x2="703.61" y2="215.2" stroke="#ddd" stroke-dasharray="3,2"></line><line x1="52.56" y1="151.2" x2="703.61" y2="151.2" stroke="#ddd" stroke-dasharray="3,2"></line><line x1="52.56" y1="87.2" x2="703.61" y2="87.2" stroke="#ddd" stroke-dasharray="3,2"></line></g></g><g clip-path="url(#boundsClip-603)"><g class="HeightedLegend clickable"><g class="legendMark"><g class="indicator"><line x1="708.61" y1="226.8" x2="729.11" y2="226.8" stroke="#666" stroke-width="0.5"></line><line x1="729.11" y1="226.8" x2="729.11" y2="226.8" stroke="#666" stroke-width="0.5"></line><line x1="729.11" y1="226.8" x2="733.61" y2="226.8" stroke="#666" stroke-width="0.5"></line></g><rect x="703.61" y="220.05" width="131.39" height="13.5" fill="#fff" opacity="0"></rect><text font-size="13.50" x="738.6" y="230.9" fill="#2a939b"><tspan x="738.61" y="230.85000000000002">United Kingdom</tspan></text></g><g class="legendMark"><g class="indicator"><line x1="708.61" y1="234.1" x2="725.11" y2="234.1" stroke="#666" stroke-width="0.5"></line><line x1="725.11" y1="234.1" x2="725.11" y2="242.3" stroke="#666" stroke-width="0.5"></line><line x1="725.11" y1="242.3" x2="733.61" y2="242.3" stroke="#666" stroke-width="0.5"></line></g><rect x="703.61" y="235.55" width="90.62" height="13.5" fill="#fff" opacity="0"></rect><text font-size="13.50" x="738.6" y="246.4" fill="#a652ba"><tspan x="738.61" y="246.35000000000002">Germany</tspan></text></g><g class="legendMark"><g class="indicator"><line x1="708.61" y1="255.4" x2="721.11" y2="255.4" stroke="#666" stroke-width="0.5"></line><line x1="721.11" y1="255.4" x2="721.11" y2="257.8" stroke="#666" stroke-width="0.5"></line><line x1="721.11" y1="257.8" x2="733.61" y2="257.8" stroke="#666" stroke-width="0.5"></line></g><rect x="703.61" y="251.05" width="116.405" height="13.5" fill="#fff" opacity="0"></rect><text font-size="13.50" x="738.6" y="261.9" fill="#f6a324"><tspan x="738.61" y="261.85">United States</tspan></text></g><g class="legendMark"><g class="indicator"><line x1="708.61" y1="257.9" x2="717.11" y2="257.9" stroke="#666" stroke-width="0.5"></line><line x1="717.11" y1="257.9" x2="717.11" y2="273.3" stroke="#666" stroke-width="0.5"></line><line x1="717.11" y1="273.3" x2="733.61" y2="273.3" stroke="#666" stroke-width="0.5"></line></g><rect x="703.61" y="266.55" width="68.75" height="13.5" fill="#fff" opacity="0"></rect><text font-size="13.50" x="738.6" y="277.4" fill="#34983f"><tspan x="738.61" y="277.35">Brazil</tspan></text></g><g class="legendMark"><g class="indicator"><line x1="708.61" y1="271.4" x2="713.11" y2="271.4" stroke="#666" stroke-width="0.5"></line><line x1="713.11" y1="271.4" x2="713.11" y2="288.8" stroke="#666" stroke-width="0.5"></line><line x1="713.11" y1="288.8" x2="733.61" y2="288.8" stroke="#666" stroke-width="0.5"></line></g><rect x="703.61" y="282.05" width="71.99000000000001" height="13.5" fill="#fff" opacity="0"></rect><text font-size="13.50" x="738.6" y="292.9" fill="#ca2628"><tspan x="738.61" y="292.85">Japan</tspan></text></g><g class="legendMark"><g class="indicator"><line x1="708.61" y1="332.5" x2="721.11" y2="332.5" stroke="#666" stroke-width="0.5"></line><line x1="721.11" y1="332.5" x2="721.11" y2="332.5" stroke="#666" stroke-width="0.5"></line><line x1="721.11" y1="332.5" x2="733.61" y2="332.5" stroke="#666" stroke-width="0.5"></line></g><rect x="703.61" y="325.75" width="64.43" height="13.5" fill="#fff" opacity="0"></rect><text font-size="13.50" x="738.6" y="336.6" fill="#3360a9"><tspan x="738.61" y="336.55">India</tspan></text></g></g><g class="Lines"><rect x="53" y="77" width="651" height="459" fill="rgba(255,255,255,0)" opacity="0"></rect><g class="key-Brazil_0"><path stroke="#34983f" stroke-linecap="round" d="M53 380L58 328L63 325L68 346L72 292L77 321L82 337L87 329L92 338L97 304L102 327L107 416L112 415L117 428L122 420L127 430L132 425L137 428L142 353L147 430L152 419L157 429L162 452L167 435L172 417L177 427L182 433L187 427L192 432L197 440L202 439L207 443L212 433L217 434L222 431L227 437L232 444L236 442L241 434L246 463L251 455L256 459L261 459L266 473L271 489L276 484L281 485L286 484L291 478L296 467L301 450L306 444L311 415L316 436L321 457L326 474L331 480L336 472L341 476L346 474L351 466L356 466L361 464L366 472L371 460L376 462L381 474L386 489L391 484L396 478L401 480L405 487L410 484L415 480L420 479L425 486L430 487L435 483L440 479L445 485L450 448L455 459L460 388L465 390L470 373L475 438L480 433L485 442L490 435L495 454L500 450L505 449L510 444L515 455L520 459L525 451L530 452L535 449L540 445L545 456L550 462L555 450L560 443L565 434L569 429L574 439L579 440L629 251L634 250L639 218L644 221L649 266L654 263L659 233L664 230L669 252L674 237L679 239L684 251L689 259L694 254L699 243L704 258" fill="none" stroke-width="1.5"></path></g><g class="key-Germany_0"><path stroke="#a652ba" stroke-linecap="round" d="M53 463L58 457L63 448L68 446L72 445L77 441L82 437L87 429L92 427L97 427L102 419L107 415L112 415L117 419L122 413L127 419L132 416L137 417L142 411L147 419L152 411L157 404L162 401L167 407L172 418L177 421L182 416L187 412L192 407L197 397L202 399L207 402L212 413L217 284L276 457L281 443L286 453L291 444L296 442L301 429L306 451L311 452L316 459L321 448L401 360L405 341L410 339L415 339L420 334L425 342L430 344L435 350L440 347L445 345L450 386L455 345L460 343L465 343L470 343L475 347L480 347L485 342L490 343L495 336L500 277L505 267L510 261L515 257L520 233L525 204L530 208L535 211L540 219L545 220L550 213L555 205L560 202L565 209L569 214L574 218L579 225L584 223L589 226L594 235L599 232L604 222L609 213L614 207L619 209L624 162L629 199L634 205L639 206L644 206L649 226L654 211L659 209L664 206L669 216L674 217L679 227L684 239L689 236L694 210L699 213L704 234" fill="none" stroke-width="1.5"></path></g><g class="key-India_0"><path stroke="#3360a9" stroke-linecap="round" d="M53 483L58 483L63 483L68 478L72 485L77 483L82 486L87 482L92 478L97 489L102 486L107 486L112 497L117 497L122 496L127 493L132 491L137 497L142 495L147 492L152 489L157 495L162 494L167 489L172 493L177 489L182 498L187 497L192 498L197 501L202 497L207 501L212 500L217 495L222 499L227 501L232 502L236 457L241 496L246 496L251 488L256 500L261 500L266 498L271 502L276 500L281 499L286 499L291 499L296 496L301 488L306 484L311 487L316 487L321 488L326 486L331 489L336 491L341 492L346 495L351 492L356 496L361 479L366 483L371 475L376 442L381 458L386 487L391 491L396 495L401 497L405 496L410 490L415 488L420 480L425 478L430 476L435 468L440 454L445 451L450 459L455 453L460 455L465 449L470 444L475 440L480 439L485 439L490 446L495 453L500 452L505 448L510 441L515 445L520 455L525 446L530 434L535 437L540 429L545 425L550 408L555 413L560 404L565 402L569 387L574 373L579 359L584 361L589 338L594 337L599 334L604 337L609 342L614 344L619 343L624 349L629 348L634 348L639 344L644 334L649 327L654 322L659 318L664 318L669 327L674 334L679 336L684 335L689 327L694 317L699 331L704 333" fill="none" stroke-width="1.5"></path></g><g class="key-Japan_0"><path stroke="#ca2628" stroke-linecap="round" d="M53 528L58 528L63 528L68 527L72 527L77 530L82 527L87 528L92 528L97 529L102 530L107 530L112 530L117 530L122 527L127 525L132 528L137 526L142 526L147 524L152 528L157 527L162 526L167 527L172 519L177 514L182 515L187 516L192 519L197 520L202 513L207 520L212 521L217 520L222 521L227 522L232 524L236 526L241 526L246 524L251 522L256 521L261 521L266 520L271 519L276 521L281 521L286 520L291 520L296 519L301 515L306 516L311 513L316 511L321 510L326 511L331 503L336 509L341 503L346 510L351 508L356 501L361 496L366 485L386 457L391 437L396 418L401 432L405 424L410 411L415 406L420 408L425 408L430 417L435 417L440 414L445 422L450 415L455 416L460 409L465 405L470 406L475 402L480 399L485 404L490 403L495 405L500 402L505 392L510 383L515 381L520 367L525 346L530 340L535 329L540 316L545 307L550 302L555 305L560 302L565 298L569 302L574 309L579 309L584 308L589 315L594 322L599 320L604 322L609 316L614 305L619 302L624 295L629 290L634 296L639 288L644 277L649 275L654 279L659 278L664 282L669 300L674 301L679 298L684 306L689 290L694 262L699 264L704 271" fill="none" stroke-width="1.5"></path></g><g class="key-United-Kingdom_0"><path stroke="#2a939b" stroke-linecap="round" d="M53 481L58 476L63 475L68 480L72 477L77 475L82 474L87 478L92 479L97 480L102 481L107 481L112 480L117 478L122 480L127 478L132 479L137 478L142 479L147 474L152 459L157 459L162 459L167 473L172 476L177 479L182 481L187 483L192 482L197 479L202 477L207 478L212 476L217 478L222 362L227 252L232 79L236 86L241 170L246 294L251 362L256 341L261 356L266 355L271 361L276 365L281 354L286 363L291 364L296 365L301 359L306 344L311 337L316 350L321 366L326 369L331 369L336 376L341 370L346 380L351 331L356 193L361 152L366 114L371 106L376 77L381 113L386 179L391 270L396 299L401 296L405 327L410 300L415 300L420 290L425 327L430 312L435 304L440 295L445 304L450 300L455 310L460 297L465 274L470 305L475 295L480 287L485 259L490 257L495 264L500 241L505 247L510 241L515 233L520 202L525 195L530 192L535 207L540 212L545 217L550 199L555 174L560 177L565 181L569 181L574 191L579 219L584 233L589 251L594 256L599 249L604 242L609 228L614 228L619 230L624 231L629 242L634 253L639 261L644 268L649 283L654 263L659 259L664 253L669 248L674 240L679 239L684 240L689 215L694 194L699 193L704 227" fill="none" stroke-width="1.5"></path></g><g class="key-United-States_0"><path stroke="#f6a324" stroke-linecap="round" d="M53 516L58 517L63 520L68 519L72 520L77 519L82 521L87 521L92 521L97 520L102 520L107 519L112 520L117 518L122 517L127 519L132 519L137 519L142 517L147 513L152 517L157 519L162 521L167 521L172 519L177 521L182 523L187 523L192 519L197 520L202 521L207 521L212 522L217 522L222 521L227 522L232 525L236 511L241 412L246 376L251 481L256 483L261 498L266 504L271 507L276 509L281 511L286 511L291 511L296 512L301 507L306 500L311 478L316 475L321 464L326 471L331 465L336 475L341 478L346 467L351 472L356 463L361 396L366 273L371 251L376 243L381 348L386 420L391 445L396 428L401 437L405 442L410 408L415 399L420 406L425 420L430 422L435 419L440 412L445 410L450 345L455 337L460 337L465 337L470 341L475 345L480 339L485 326L490 324L495 327L500 319L505 319L510 320L515 326L520 317L525 301L530 307L535 313L540 318L545 318L550 305L555 300L560 283L565 281L569 285L574 280L579 278L584 278L589 283L594 282L599 276L604 269L609 265L614 270L619 276L624 275L629 280L634 288L639 294L644 299L649 303L654 291L659 287L664 287L669 288L674 286L679 287L684 281L689 268L694 246L699 247L704 255" fill="none" stroke-width="1.5"></path></g></g></g></g><g class="SourcesFooter" style="fill:#777"><g class="clickable" style="fill:#777"><text font-size="12.60" x="15.0" y="581.6"><tspan x="15" y="581.58">Source: IMF Fiscal Affairs Departmental Data, based on Mauro et al. (2015)</tspan></text></g><text font-size="12.60" x="553.4" y="581.6"><tspan x="553.39" y="581.58"><a target='_blank' style='fill: #777;' href='https://ourworldindata.org/public-spending/'>OurWorldInData.org/public-spending/</a> • <a style="fill: #777;" class="cclogo" href="http://creativecommons.org/licenses/by-sa/4.0/deed.en_US" target="_blank">CC BY-SA</a></tspan></text></g></g></svg>