<svg xmlns="http://www.w3.org/2000/svg" version="1.1" style="font-family:Lato, &#x27;Helvetica Neue&#x27;, Helvetica, Arial, sans-serif;font-size:18px;background-color:white;text-rendering:optimizeLegibility;-webkit-font-smoothing:antialiased" width="850" height="600"><g class="HeaderView"><g transform="translate(774, 15) scale(0.29)"><svg width="210" height="120" viewBox="0 0 210 120" fill="none" xmlns="http://www.w3.org/2000/svg">
    <g clip-path="url(#clip0)">
        <path d="M0 0H210V107.89H0V0Z" fill="#002147"/>
        <path d="M40.9788 32.248C40.9788 34.6093 40.6048 36.78 39.8568 38.76C39.1088 40.7253 38.0528 42.4193 36.6888 43.842C35.3248 45.2647 33.6821 46.372 31.7608 47.164C29.8541 47.9413 27.7421 48.33 25.4248 48.33C23.1074 48.33 20.9954 47.9413 19.0888 47.164C17.1821 46.372 15.5468 45.2647 14.1828 43.842C12.8188 42.4193 11.7628 40.7253 11.0148 38.76C10.2668 36.78 9.89277 34.6093 9.89277 32.248C9.89277 29.8867 10.2668 27.7233 11.0148 25.758C11.7628 23.778 12.8188 22.0767 14.1828 20.654C15.5468 19.2167 17.1821 18.102 19.0888 17.31C20.9954 16.518 23.1074 16.122 25.4248 16.122C27.7421 16.122 29.8541 16.518 31.7608 17.31C33.6821 18.102 35.3248 19.2167 36.6888 20.654C38.0528 22.0767 39.1088 23.778 39.8568 25.758C40.6048 27.7233 40.9788 29.8867 40.9788 32.248ZM36.6008 32.248C36.6008 30.312 36.3368 28.574 35.8088 27.034C35.2808 25.494 34.5328 24.196 33.5648 23.14C32.5968 22.0693 31.4234 21.248 30.0448 20.676C28.6661 20.104 27.1261 19.818 25.4248 19.818C23.7381 19.818 22.2054 20.104 20.8268 20.676C19.4481 21.248 18.2674 22.0693 17.2848 23.14C16.3168 24.196 15.5688 25.494 15.0408 27.034C14.5128 28.574 14.2488 30.312 14.2488 32.248C14.2488 34.184 14.5128 35.922 15.0408 37.462C15.5688 38.9873 16.3168 40.2853 17.2848 41.356C18.2674 42.412 19.4481 43.226 20.8268 43.798C22.2054 44.3553 23.7381 44.634 25.4248 44.634C27.1261 44.634 28.6661 44.3553 30.0448 43.798C31.4234 43.226 32.5968 42.412 33.5648 41.356C34.5328 40.2853 35.2808 38.9873 35.8088 37.462C36.3368 35.922 36.6008 34.184 36.6008 32.248ZM62.8234 25.714V48H60.4914C59.9341 48 59.5821 47.7287 59.4354 47.186L59.1274 44.788C58.1594 45.8587 57.0741 46.724 55.8714 47.384C54.6687 48.0293 53.2901 48.352 51.7354 48.352C50.5181 48.352 49.4401 48.154 48.5014 47.758C47.5774 47.3473 46.8001 46.7753 46.1694 46.042C45.5387 45.3087 45.0621 44.4213 44.7394 43.38C44.4314 42.3387 44.2774 41.1873 44.2774 39.926V25.714H48.1934V39.926C48.1934 41.6127 48.5747 42.918 49.3374 43.842C50.1147 44.766 51.2954 45.228 52.8794 45.228C54.0381 45.228 55.1161 44.9567 56.1134 44.414C57.1254 43.8567 58.0567 43.094 58.9074 42.126V25.714H62.8234ZM71.4305 30.18C72.1346 28.6547 72.9999 27.4667 74.0266 26.616C75.0532 25.7507 76.3072 25.318 77.7886 25.318C78.2579 25.318 78.7052 25.3693 79.1306 25.472C79.5706 25.5747 79.9592 25.736 80.2966 25.956L80.0106 28.882C79.9226 29.2487 79.7026 29.432 79.3506 29.432C79.1452 29.432 78.8446 29.388 78.4486 29.3C78.0526 29.212 77.6052 29.168 77.1066 29.168C76.4026 29.168 75.7719 29.2707 75.2146 29.476C74.6719 29.6813 74.1806 29.9893 73.7406 30.4C73.3152 30.796 72.9266 31.2947 72.5746 31.896C72.2372 32.4827 71.9292 33.1573 71.6506 33.92V48H67.7125V25.714H69.9566C70.3819 25.714 70.6752 25.7947 70.8366 25.956C70.9979 26.1173 71.1079 26.396 71.1666 26.792L71.4305 30.18ZM132.589 16.474L122.755 48H118.927L110.941 23.954C110.867 23.7193 110.794 23.47 110.721 23.206C110.662 22.942 110.596 22.6633 110.523 22.37C110.449 22.6633 110.376 22.942 110.303 23.206C110.23 23.47 110.156 23.7193 110.083 23.954L102.053 48H98.2248L88.3908 16.474H91.9328C92.3142 16.474 92.6295 16.5693 92.8788 16.76C93.1428 16.9507 93.3115 17.1927 93.3848 17.486L99.8968 39.398C99.9995 39.794 100.095 40.2193 100.183 40.674C100.285 41.1287 100.381 41.6127 100.469 42.126C100.571 41.6127 100.674 41.1287 100.777 40.674C100.894 40.2047 101.019 39.7793 101.151 39.398L108.565 17.486C108.653 17.2367 108.821 17.0093 109.071 16.804C109.335 16.584 109.65 16.474 110.017 16.474H111.249C111.63 16.474 111.938 16.5693 112.173 16.76C112.407 16.9507 112.583 17.1927 112.701 17.486L120.093 39.398C120.225 39.7793 120.342 40.19 120.445 40.63C120.562 41.07 120.672 41.532 120.775 42.016C120.848 41.532 120.929 41.07 121.017 40.63C121.105 40.19 121.2 39.7793 121.303 39.398L127.837 17.486C127.91 17.222 128.072 16.9873 128.321 16.782C128.585 16.5767 128.9 16.474 129.267 16.474H132.589ZM141.94 25.362C143.568 25.362 145.034 25.6333 146.34 26.176C147.645 26.7187 148.76 27.4887 149.684 28.486C150.608 29.4833 151.312 30.6933 151.796 32.116C152.294 33.524 152.544 35.1007 152.544 36.846C152.544 38.606 152.294 40.19 151.796 41.598C151.312 43.006 150.608 44.2087 149.684 45.206C148.76 46.2033 147.645 46.9733 146.34 47.516C145.034 48.044 143.568 48.308 141.94 48.308C140.297 48.308 138.816 48.044 137.496 47.516C136.19 46.9733 135.076 46.2033 134.152 45.206C133.228 44.2087 132.516 43.006 132.018 41.598C131.534 40.19 131.292 38.606 131.292 36.846C131.292 35.1007 131.534 33.524 132.018 32.116C132.516 30.6933 133.228 29.4833 134.152 28.486C135.076 27.4887 136.19 26.7187 137.496 26.176C138.816 25.6333 140.297 25.362 141.94 25.362ZM141.94 45.25C144.14 45.25 145.782 44.5167 146.868 43.05C147.953 41.5687 148.496 39.508 148.496 36.868C148.496 34.2133 147.953 32.1453 146.868 30.664C145.782 29.1827 144.14 28.442 141.94 28.442C140.825 28.442 139.85 28.6327 139.014 29.014C138.192 29.3953 137.503 29.9453 136.946 30.664C136.403 31.3827 135.992 32.27 135.714 33.326C135.45 34.3673 135.318 35.548 135.318 36.868C135.318 39.508 135.86 41.5687 136.946 43.05C138.046 44.5167 139.71 45.25 141.94 45.25ZM159.908 30.18C160.612 28.6547 161.478 27.4667 162.504 26.616C163.531 25.7507 164.785 25.318 166.266 25.318C166.736 25.318 167.183 25.3693 167.608 25.472C168.048 25.5747 168.437 25.736 168.774 25.956L168.488 28.882C168.4 29.2487 168.18 29.432 167.828 29.432C167.623 29.432 167.322 29.388 166.926 29.3C166.53 29.212 166.083 29.168 165.584 29.168C164.88 29.168 164.25 29.2707 163.692 29.476C163.15 29.6813 162.658 29.9893 162.218 30.4C161.793 30.796 161.404 31.2947 161.052 31.896C160.715 32.4827 160.407 33.1573 160.128 33.92V48H156.19V25.714H158.434C158.86 25.714 159.153 25.7947 159.314 25.956C159.476 26.1173 159.586 26.396 159.644 26.792L159.908 30.18ZM174.946 15.594V48H171.03V15.594H174.946ZM194.496 31.016C193.763 30.0333 192.971 29.3513 192.12 28.97C191.269 28.574 190.316 28.376 189.26 28.376C187.192 28.376 185.601 29.1167 184.486 30.598C183.371 32.0793 182.814 34.1913 182.814 36.934C182.814 38.386 182.939 39.6327 183.188 40.674C183.437 41.7007 183.804 42.5513 184.288 43.226C184.772 43.886 185.366 44.37 186.07 44.678C186.774 44.986 187.573 45.14 188.468 45.14C189.759 45.14 190.881 44.8467 191.834 44.26C192.802 43.6733 193.689 42.8447 194.496 41.774V31.016ZM198.412 15.594V48H196.08C195.523 48 195.171 47.7287 195.024 47.186L194.672 44.48C193.719 45.624 192.633 46.548 191.416 47.252C190.199 47.956 188.791 48.308 187.192 48.308C185.916 48.308 184.757 48.066 183.716 47.582C182.675 47.0833 181.787 46.3573 181.054 45.404C180.321 44.4507 179.756 43.2627 179.36 41.84C178.964 40.4173 178.766 38.782 178.766 36.934C178.766 35.2913 178.986 33.766 179.426 32.358C179.866 30.9353 180.497 29.7033 181.318 28.662C182.139 27.6207 183.144 26.8067 184.332 26.22C185.535 25.6187 186.884 25.318 188.38 25.318C189.744 25.318 190.91 25.5527 191.878 26.022C192.861 26.4767 193.733 27.1147 194.496 27.936V15.594H198.412ZM46.6139 70.714V93H42.6979V70.714H46.6139ZM47.4499 63.718C47.4499 64.0993 47.3692 64.4587 47.2079 64.796C47.0612 65.1187 46.8559 65.412 46.5919 65.676C46.3425 65.9253 46.0419 66.1233 45.6899 66.27C45.3525 66.4167 44.9932 66.49 44.6119 66.49C44.2305 66.49 43.8712 66.4167 43.5339 66.27C43.2112 66.1233 42.9252 65.9253 42.6759 65.676C42.4265 65.412 42.2285 65.1187 42.0819 64.796C41.9352 64.4587 41.8619 64.0993 41.8619 63.718C41.8619 63.3367 41.9352 62.9773 42.0819 62.64C42.2285 62.288 42.4265 61.9873 42.6759 61.738C42.9252 61.474 43.2112 61.2687 43.5339 61.122C43.8712 60.9753 44.2305 60.902 44.6119 60.902C44.9932 60.902 45.3525 60.9753 45.6899 61.122C46.0419 61.2687 46.3425 61.474 46.5919 61.738C46.8559 61.9873 47.0612 62.288 47.2079 62.64C47.3692 62.9773 47.4499 63.3367 47.4499 63.718ZM55.4242 73.948C55.9082 73.4053 56.4215 72.914 56.9642 72.474C57.5068 72.034 58.0788 71.66 58.6802 71.352C59.2962 71.0293 59.9415 70.7873 60.6162 70.626C61.3055 70.45 62.0462 70.362 62.8382 70.362C64.0555 70.362 65.1262 70.5673 66.0502 70.978C66.9888 71.374 67.7662 71.946 68.3822 72.694C69.0128 73.4273 69.4895 74.3147 69.8122 75.356C70.1348 76.3973 70.2962 77.5487 70.2962 78.81V93H66.3582V78.81C66.3582 77.1233 65.9695 75.818 65.1922 74.894C64.4295 73.9553 63.2635 73.486 61.6942 73.486C60.5355 73.486 59.4502 73.7647 58.4382 74.322C57.4408 74.8793 56.5168 75.6347 55.6662 76.588V93H51.7282V70.714H54.0822C54.6395 70.714 54.9842 70.9853 55.1162 71.528L55.4242 73.948ZM113.129 77.248C113.129 79.6093 112.755 81.758 112.007 83.694C111.259 85.63 110.203 87.2873 108.839 88.666C107.475 90.0447 105.832 91.1153 103.911 91.878C102.004 92.626 99.8925 93 97.5751 93H85.8051V61.474H97.5751C99.8925 61.474 102.004 61.8553 103.911 62.618C105.832 63.366 107.475 64.4367 108.839 65.83C110.203 67.2087 111.259 68.866 112.007 70.802C112.755 72.738 113.129 74.8867 113.129 77.248ZM108.751 77.248C108.751 75.312 108.487 73.5813 107.959 72.056C107.431 70.5307 106.683 69.24 105.715 68.184C104.747 67.128 103.574 66.3213 102.195 65.764C100.816 65.2067 99.2765 64.928 97.5751 64.928H90.0731V89.546H97.5751C99.2765 89.546 100.816 89.2673 102.195 88.71C103.574 88.1527 104.747 87.3533 105.715 86.312C106.683 85.256 107.431 83.9653 107.959 82.44C108.487 80.9147 108.751 79.184 108.751 77.248ZM128.553 82.968C126.749 83.0267 125.209 83.1733 123.933 83.408C122.672 83.628 121.638 83.9213 120.831 84.288C120.039 84.6547 119.46 85.0873 119.093 85.586C118.741 86.0847 118.565 86.642 118.565 87.258C118.565 87.8447 118.661 88.3507 118.851 88.776C119.042 89.2013 119.299 89.5533 119.621 89.832C119.959 90.096 120.347 90.294 120.787 90.426C121.242 90.5433 121.726 90.602 122.239 90.602C122.929 90.602 123.559 90.536 124.131 90.404C124.703 90.2573 125.239 90.052 125.737 89.788C126.251 89.524 126.735 89.2087 127.189 88.842C127.659 88.4753 128.113 88.0573 128.553 87.588V82.968ZM115.903 73.86C117.135 72.672 118.463 71.7847 119.885 71.198C121.308 70.6113 122.885 70.318 124.615 70.318C125.862 70.318 126.969 70.5233 127.937 70.934C128.905 71.3447 129.719 71.9167 130.379 72.65C131.039 73.3833 131.538 74.2707 131.875 75.312C132.213 76.3533 132.381 77.4973 132.381 78.744V93H130.643C130.262 93 129.969 92.9413 129.763 92.824C129.558 92.692 129.397 92.4427 129.279 92.076L128.839 89.964C128.253 90.5067 127.681 90.9907 127.123 91.416C126.566 91.8267 125.979 92.1787 125.363 92.472C124.747 92.7507 124.087 92.9633 123.383 93.11C122.694 93.2713 121.924 93.352 121.073 93.352C120.208 93.352 119.394 93.2347 118.631 93C117.869 92.7507 117.201 92.384 116.629 91.9C116.072 91.416 115.625 90.8073 115.287 90.074C114.965 89.326 114.803 88.446 114.803 87.434C114.803 86.554 115.045 85.7107 115.529 84.904C116.013 84.0827 116.798 83.3567 117.883 82.726C118.969 82.0953 120.384 81.582 122.129 81.186C123.875 80.7753 126.016 80.5407 128.553 80.482V78.744C128.553 77.0133 128.179 75.708 127.431 74.828C126.683 73.9333 125.591 73.486 124.153 73.486C123.185 73.486 122.371 73.6107 121.711 73.86C121.066 74.0947 120.501 74.366 120.017 74.674C119.548 74.9673 119.137 75.2387 118.785 75.488C118.448 75.7227 118.111 75.84 117.773 75.84C117.509 75.84 117.282 75.774 117.091 75.642C116.901 75.4953 116.739 75.3193 116.607 75.114L115.903 73.86ZM143.568 93.352C141.808 93.352 140.451 92.8607 139.498 91.878C138.559 90.8953 138.09 89.48 138.09 87.632V73.992H135.406C135.171 73.992 134.973 73.926 134.812 73.794C134.65 73.6473 134.57 73.4273 134.57 73.134V71.572L138.222 71.11L139.124 64.224C139.168 64.004 139.263 63.828 139.41 63.696C139.571 63.5493 139.776 63.476 140.026 63.476H142.006V71.154H148.452V73.992H142.006V87.368C142.006 88.3067 142.233 89.0033 142.688 89.458C143.142 89.9127 143.729 90.14 144.448 90.14C144.858 90.14 145.21 90.0887 145.504 89.986C145.812 89.8687 146.076 89.744 146.296 89.612C146.516 89.48 146.699 89.3627 146.846 89.26C147.007 89.1427 147.146 89.084 147.264 89.084C147.469 89.084 147.652 89.2087 147.814 89.458L148.958 91.328C148.283 91.9587 147.469 92.4573 146.516 92.824C145.562 93.176 144.58 93.352 143.568 93.352ZM163.253 82.968C161.449 83.0267 159.909 83.1733 158.633 83.408C157.372 83.628 156.338 83.9213 155.531 84.288C154.739 84.6547 154.16 85.0873 153.793 85.586C153.441 86.0847 153.265 86.642 153.265 87.258C153.265 87.8447 153.36 88.3507 153.551 88.776C153.742 89.2013 153.998 89.5533 154.321 89.832C154.658 90.096 155.047 90.294 155.487 90.426C155.942 90.5433 156.426 90.602 156.939 90.602C157.628 90.602 158.259 90.536 158.831 90.404C159.403 90.2573 159.938 90.052 160.437 89.788C160.95 89.524 161.434 89.2087 161.889 88.842C162.358 88.4753 162.813 88.0573 163.253 87.588V82.968ZM150.603 73.86C151.835 72.672 153.162 71.7847 154.585 71.198C156.008 70.6113 157.584 70.318 159.315 70.318C160.562 70.318 161.669 70.5233 162.637 70.934C163.605 71.3447 164.419 71.9167 165.079 72.65C165.739 73.3833 166.238 74.2707 166.575 75.312C166.912 76.3533 167.081 77.4973 167.081 78.744V93H165.343C164.962 93 164.668 92.9413 164.463 92.824C164.258 92.692 164.096 92.4427 163.979 92.076L163.539 89.964C162.952 90.5067 162.38 90.9907 161.823 91.416C161.266 91.8267 160.679 92.1787 160.063 92.472C159.447 92.7507 158.787 92.9633 158.083 93.11C157.394 93.2713 156.624 93.352 155.773 93.352C154.908 93.352 154.094 93.2347 153.331 93C152.568 92.7507 151.901 92.384 151.329 91.9C150.772 91.416 150.324 90.8073 149.987 90.074C149.664 89.326 149.503 88.446 149.503 87.434C149.503 86.554 149.745 85.7107 150.229 84.904C150.713 84.0827 151.498 83.3567 152.583 82.726C153.668 82.0953 155.084 81.582 156.829 81.186C158.574 80.7753 160.716 80.5407 163.253 80.482V78.744C163.253 77.0133 162.879 75.708 162.131 74.828C161.383 73.9333 160.29 73.486 158.853 73.486C157.885 73.486 157.071 73.6107 156.411 73.86C155.766 74.0947 155.201 74.366 154.717 74.674C154.248 74.9673 153.837 75.2387 153.485 75.488C153.148 75.7227 152.81 75.84 152.473 75.84C152.209 75.84 151.982 75.774 151.791 75.642C151.6 75.4953 151.439 75.3193 151.307 75.114L150.603 73.86Z" fill="white"/>
        <rect y="106.789" width="210" height="13.211" fill="#D42B21"/>
    </g>
    <defs>
        <clipPath id="clip0">
            <rect width="210" height="120" fill="white"/>
        </clipPath>
    </defs>
</svg></g><a href="https://staging-owid.netlify.com/grapher/historic-and-un-pop-projections-by-age" target="_blank"><text font-size="25.20" x="15.0" y="35.2" fill="#555"><tspan x="15" y="35.160000000000004">Population by age bracket with UN projections, World</tspan></text></a><text font-size="14.40" x="15.0" y="53.7" fill="#666"><tspan x="15" y="53.72">Historical population estimates (from 1950 to 2015), and projections through to 2100 based on UN medium fertility</tspan><tspan x="15" y="69.56">scenarios. This is shown for various age brackets and total population.</tspan></text></g><g class="LineChart"><defs><clipPath id="boundsClip-35"><rect x="74.152" y="0" width="830" height="932.8"></rect></clipPath></defs><g class="AxisBoxView"><g class="HorizontalAxis"><text x="84.2" y="556.5" fill="#666" text-anchor="middle" font-size="16.2">1950</text><text x="208" y="556.5" fill="#666" text-anchor="middle" font-size="16.2">1980</text><text x="290.6" y="556.5" fill="#666" text-anchor="middle" font-size="16.2">2000</text><text x="373.2" y="556.5" fill="#666" text-anchor="middle" font-size="16.2">2020</text><text x="455.7" y="556.5" fill="#666" text-anchor="middle" font-size="16.2">2040</text><text x="538.3" y="556.5" fill="#666" text-anchor="middle" font-size="16.2">2060</text><text x="620.9" y="556.5" fill="#666" text-anchor="middle" font-size="16.2">2080</text><text x="703.5" y="556.5" fill="#666" text-anchor="middle" font-size="16.2">2100</text></g><g class="VerticalAxis"><text x="79.15" y="535.3" fill="#666" dominant-baseline="middle" text-anchor="end" font-size="16.2">0</text><text x="79.15" y="455.7" fill="#666" dominant-baseline="middle" text-anchor="end" font-size="16.2">2 billion</text><text x="79.15" y="376.1" fill="#666" dominant-baseline="middle" text-anchor="end" font-size="16.2">4 billion</text><text x="79.15" y="296.5" fill="#666" dominant-baseline="middle" text-anchor="end" font-size="16.2">6 billion</text><text x="79.15" y="216.9" fill="#666" dominant-baseline="middle" text-anchor="end" font-size="16.2">8 billion</text><text x="79.15" y="137.2" fill="#666" dominant-baseline="middle" text-anchor="end" font-size="16.2">10 billion</text></g><g class="AxisGridLines"><line x1="84.15" y1="535.3" x2="703.48" y2="535.3" stroke="#ccc"></line><line x1="84.15" y1="455.7" x2="703.48" y2="455.7" stroke="#ddd" stroke-dasharray="3,2"></line><line x1="84.15" y1="376.1" x2="703.48" y2="376.1" stroke="#ddd" stroke-dasharray="3,2"></line><line x1="84.15" y1="296.5" x2="703.48" y2="296.5" stroke="#ddd" stroke-dasharray="3,2"></line><line x1="84.15" y1="216.9" x2="703.48" y2="216.9" stroke="#ddd" stroke-dasharray="3,2"></line><line x1="84.15" y1="137.2" x2="703.48" y2="137.2" stroke="#ddd" stroke-dasharray="3,2"></line></g></g><g clip-path="url(#boundsClip-35)"><g class="HeightedLegend"><g class="legendMark"><rect x="703.475" y="83.35" width="131.525" height="13.5" fill="#fff" opacity="0"></rect><text font-size="13.50" x="708.5" y="94.1" fill="#818282"><tspan x="708.475" y="94.14999999999999">Total population</tspan></text></g><g class="legendMark"><rect x="703.475" y="315.95" width="106.55000000000001" height="13.5" fill="#fff" opacity="0"></rect><text font-size="13.50" x="708.5" y="326.8" fill="#ed6c2d"><tspan x="708.475" y="326.75">25-64 years</tspan></text></g><g class="legendMark"><rect x="703.475" y="396.15" width="117.215" height="13.5" fill="#fff" opacity="0"></rect><text font-size="13.50" x="708.5" y="406.9" fill="#34983f"><tspan x="708.475" y="406.95">Under age 25</tspan></text></g><g class="legendMark"><rect x="703.475" y="428.45" width="94.805" height="13.5" fill="#fff" opacity="0"></rect><text font-size="13.50" x="708.5" y="439.3" fill="#a652ba"><tspan x="708.475" y="439.25">65+ years</tspan></text></g><g class="legendMark"><rect x="703.475" y="449.95" width="117.215" height="13.5" fill="#fff" opacity="0"></rect><text font-size="13.50" x="708.5" y="460.8" fill="#ca2628"><tspan x="708.475" y="460.75">Under age 15</tspan></text></g><g class="legendMark"><rect x="703.475" y="502.65" width="90.62" height="13.5" fill="#fff" opacity="0"></rect><text font-size="13.50" x="708.5" y="513.4" fill="#3360a9"><tspan x="708.475" y="513.4499999999999">Under-5s</tspan></text></g></g><g class="Lines"><rect x="84" y="90" width="619" height="445" fill="rgba(255,255,255,0)" opacity="0"></rect><g class="key-World_0"><path stroke="#3360a9" stroke-linecap="round" d="M84 522L88 521L92 520L97 520L101 520L105 519L109 519L113 519L117 518L121 518L125 518L130 518L134 518L138 517L142 517L146 516L150 516L154 515L159 515L163 515L167 515L171 514L175 514L179 514L183 514L187 514L192 514L196 514L200 514L204 514L208 514L212 513L216 513L220 513L225 512L229 512L233 511L237 511L241 510L245 510L249 510L253 509L258 510L262 510L266 510L270 511L274 511L278 511L282 511L287 511L291 511L295 511L299 511L303 511L307 511L311 511L315 510L320 510L324 510L328 510L332 509L336 509L340 509L344 509L348 509L353 509" fill="none" stroke-width="1.5"></path></g><g class="key-World_1"><path stroke="#ca2628" stroke-linecap="round" d="M353 459L357 458L361 457L365 457L369 457L373 456L377 456L381 456L386 455L390 455L394 455L398 455L402 455L406 455L410 455L415 455L419 455L423 455L427 455L431 455L435 455L439 454L443 454L448 454L452 454L456 454L460 454L464 454L468 453L472 453L476 453L481 453L485 453L489 453L493 453L497 452L501 452L505 452L509 452L514 452L518 452L522 452L526 452L530 452L534 452L538 452L543 452L547 452L551 452L555 452L559 452L563 452L567 453L571 453L576 453L580 453L584 453L588 453L592 453L596 453L600 453L604 453L609 453L613 453L617 453L621 453L625 453L629 454L633 454L637 454L642 454L646 454L650 454L654 454L658 455L662 455L666 455L670 455L675 455L679 455L683 456L687 456L691 456L695 456L699 457L704 457" fill="none" stroke-width="1.5" stroke-dasharray="1,4"></path></g><g class="key-World_10"><path stroke="#a652ba" stroke-linecap="round" d="M353 511L357 510L361 509L365 508L369 507L373 506L377 505L381 504L386 503L390 502L394 501L398 500L402 499L406 498L410 497L415 496L419 494L423 493L427 492L431 491L435 489L439 488L443 487L448 486L452 485L456 484L460 483L464 482L468 481L472 480L476 479L481 478L485 477L489 476L493 475L497 474L501 473L505 471L509 470L514 469L518 468L522 467L526 466L530 465L534 464L538 463L543 462L547 462L551 461L555 460L559 460L563 459L567 458L571 458L576 457L580 456L584 456L588 455L592 454L596 453L600 453L604 452L609 451L613 450L617 450L621 449L625 448L629 447L633 447L637 446L642 445L646 444L650 444L654 443L658 442L662 442L666 441L670 440L675 440L679 439L683 438L687 438L691 437L695 437L699 436L704 435" fill="none" stroke-width="1.5" stroke-dasharray="1,4"></path></g><g class="key-World_11"><path stroke="#818282" stroke-linecap="round" d="M353 241L357 238L361 235L365 232L369 228L373 225L377 222L381 219L386 216L390 213L394 210L398 207L402 204L406 201L410 198L415 195L419 192L423 189L427 187L431 184L435 181L439 179L443 176L448 174L452 171L456 169L460 166L464 164L468 162L472 159L476 157L481 155L485 153L489 151L493 148L497 146L501 144L505 142L509 141L514 139L518 137L522 135L526 133L530 132L534 130L538 128L543 127L547 125L551 124L555 122L559 121L563 120L567 118L571 117L576 116L580 114L584 113L588 112L592 111L596 110L600 109L604 107L609 106L613 105L617 104L621 104L625 103L629 102L633 101L637 100L642 99L646 98L650 98L654 97L658 96L662 95L666 95L670 94L675 94L679 93L683 92L687 92L691 91L695 91L699 91L704 90" fill="none" stroke-width="1.5" stroke-dasharray="1,4"></path></g><g class="key-World_2"><path stroke="#ca2628" stroke-linecap="round" d="M84 501L88 500L92 499L97 498L101 497L105 496L109 495L113 494L117 493L121 492L125 491L130 489L134 488L138 487L142 486L146 485L150 484L154 483L159 482L163 481L167 480L171 479L175 478L179 477L183 476L187 476L192 475L196 474L200 474L204 473L208 473L212 472L216 472L220 471L225 470L229 470L233 469L237 468L241 467L245 466L249 466L253 465L258 464L262 463L266 463L270 463L274 462L278 462L282 462L287 462L291 462L295 462L299 462L303 462L307 462L311 462L315 462L320 462L324 462L328 462L332 461L336 461L340 460L344 460L348 459L353 459" fill="none" stroke-width="1.5"></path></g><g class="key-World_3"><path stroke="#3360a9" stroke-linecap="round" d="M353 509L357 508L361 508L365 508L369 508L373 508L377 508L381 508L386 508L390 508L394 508L398 508L402 508L406 508L410 508L415 508L419 508L423 508L427 508L431 508L435 508L439 508L443 508L448 508L452 508L456 508L460 508L464 508L468 508L472 508L476 508L481 507L485 507L489 507L493 507L497 507L501 507L505 507L509 507L514 507L518 507L522 508L526 508L530 508L534 508L538 508L543 508L547 508L551 508L555 508L559 508L563 508L567 508L571 508L576 508L580 508L584 508L588 508L592 508L596 508L600 508L604 508L609 508L613 508L617 508L621 508L625 508L629 508L633 508L637 508L642 508L646 508L650 509L654 509L658 509L662 509L666 509L670 509L675 509L679 509L683 509L687 509L691 509L695 509L699 509L704 509" fill="none" stroke-width="1.5" stroke-dasharray="1,4"></path></g><g class="key-World_4"><path stroke="#34983f" stroke-linecap="round" d="M84 482L88 481L92 480L97 479L101 478L105 477L109 475L113 474L117 473L121 472L125 470L130 469L134 468L138 466L142 464L146 463L150 461L154 459L159 457L163 455L167 453L171 452L175 450L179 448L183 447L187 445L192 444L196 443L200 441L204 440L208 439L212 438L216 436L220 435L225 434L229 432L233 431L237 429L241 428L245 427L249 425L253 424L258 423L262 423L266 422L270 421L274 421L278 420L282 420L287 419L291 418L295 418L299 417L303 416L307 416L311 415L315 414L320 414L324 413L328 413L332 412L336 412L340 412L344 412L348 411L353 411" fill="none" stroke-width="1.5"></path></g><g class="key-World_5"><path stroke="#34983f" stroke-linecap="round" d="M353 411L357 411L361 410L365 410L369 409L373 409L377 408L381 407L386 407L390 406L394 406L398 405L402 404L406 404L410 404L415 403L419 403L423 402L427 402L431 402L435 402L439 401L443 401L448 401L452 401L456 401L460 401L464 400L468 400L472 400L476 400L481 400L485 399L489 399L493 399L497 399L501 399L505 398L509 398L514 398L518 398L522 398L526 398L530 398L534 398L538 397L543 397L547 397L551 397L555 397L559 397L563 397L567 397L571 397L576 397L580 398L584 398L588 398L592 398L596 398L600 398L604 398L609 398L613 398L617 398L621 399L625 399L629 399L633 399L637 399L642 399L646 399L650 400L654 400L658 400L662 400L666 400L670 401L675 401L679 401L683 401L687 402L691 402L695 402L699 403L704 403" fill="none" stroke-width="1.5" stroke-dasharray="1,4"></path></g><g class="key-World_6"><path stroke="#ed6c2d" stroke-linecap="round" d="M353 390L357 388L361 386L365 384L369 383L373 381L377 379L381 378L386 376L390 375L394 373L398 372L402 371L406 369L410 368L415 367L419 366L423 365L427 363L431 362L435 361L439 360L443 359L448 357L452 356L456 355L460 354L464 352L468 351L472 350L476 349L481 348L485 347L489 346L493 345L497 344L501 344L505 343L509 343L514 342L518 342L522 341L526 341L530 340L534 339L538 339L543 338L547 337L551 336L555 336L559 335L563 334L567 333L571 333L576 332L580 331L584 331L588 330L592 330L596 329L600 329L604 328L609 328L613 327L617 327L621 327L625 327L629 326L633 326L637 326L642 326L646 325L650 325L654 325L658 325L662 324L666 324L670 324L675 324L679 324L683 323L687 323L691 323L695 323L699 323L704 323" fill="none" stroke-width="1.5" stroke-dasharray="1,4"></path></g><g class="key-World_7"><path stroke="#ed6c2d" stroke-linecap="round" d="M84 493L88 492L92 491L97 491L101 490L105 489L109 489L113 488L117 487L121 486L125 486L130 485L134 484L138 483L142 482L146 482L150 481L154 480L159 480L163 479L167 478L171 477L175 476L179 475L183 474L187 472L192 471L196 469L200 468L204 466L208 465L212 463L216 461L220 460L225 458L229 456L233 454L237 452L241 450L245 448L249 446L253 444L258 442L262 440L266 438L270 435L274 433L278 431L282 429L287 427L291 425L295 423L299 421L303 419L307 416L311 414L315 412L320 410L324 407L328 405L332 402L336 400L340 397L344 395L348 393L353 390" fill="none" stroke-width="1.5"></path></g><g class="key-World_8"><path stroke="#818282" stroke-linecap="round" d="M84 434L88 432L92 431L97 429L101 427L105 425L109 423L113 421L117 419L121 417L125 415L130 412L134 410L138 408L142 405L146 402L150 400L154 397L159 394L163 391L167 388L171 385L175 382L179 379L183 376L187 373L192 370L196 367L200 364L204 361L208 358L212 355L216 351L220 348L225 345L229 341L233 338L237 334L241 330L245 327L249 323L253 320L258 316L262 313L266 310L270 306L274 303L278 300L282 297L287 294L291 291L295 288L299 284L303 281L307 278L311 275L315 272L320 268L324 265L328 262L332 258L336 255L340 252L344 248L348 245L353 241" fill="none" stroke-width="1.5"></path></g><g class="key-World_9"><path stroke="#a652ba" stroke-linecap="round" d="M84 530L88 530L92 530L97 530L101 530L105 530L109 530L113 530L117 529L121 529L125 529L130 529L134 529L138 529L142 529L146 529L150 528L154 528L159 528L163 528L167 528L171 527L175 527L179 527L183 527L187 526L192 526L196 526L200 525L204 525L208 525L212 525L216 524L220 524L225 524L229 524L233 524L237 523L241 523L245 523L249 522L253 522L258 522L262 521L266 521L270 520L274 520L278 520L282 519L287 519L291 518L295 518L299 518L303 517L307 517L311 516L315 516L320 515L324 515L328 515L332 514L336 514L340 513L344 512L348 512L353 511" fill="none" stroke-width="1.5"></path></g></g></g></g><g class="SourcesFooter" style="fill:#777"><g class="clickable" style="fill:#777"><text font-size="12.60" x="15.0" y="581.6"><tspan x="15" y="581.58">Source: UN Population Division (2017 Revision)</tspan></text></g><text font-size="12.60" x="796.4" y="581.6"><tspan x="796.444" y="581.58"><a style="fill: #777;" class="cclogo" href="http://creativecommons.org/licenses/by/4.0/deed.en_US" target="_blank">CC BY</a></tspan></text></g></svg>