<svg xmlns="http://www.w3.org/2000/svg" version="1.1" style="font-family:&#x27;Helvetica Neue&#x27;, Helvetica, Arial, sans-serif;font-size:18px;background-color:white;text-rendering:optimizeLegibility;-webkit-font-smoothing:antialiased" width="850" height="600"><g class="ChartTab"><g class="HeaderView"><g opacity="0.8" transform="translate(778, 15) scale(0.27)"><a xmlns:xlink="http://www.w3.org/1999/xlink" xlink:href="https://ourworldindata.org" target="_blank"><g><rect x="0" y="0" fill="#1B2543" width="211.2" height="130.1"/><rect x="0" y="112.2" fill="#E63912" width="211.2" height="17.9"/><g><rect x="1.2" y="12.3" fill="none" width="210.2" height="99.2"/><path fill="#FFFFFF" d="M37.8,32.2c0,12.7-7.7,19.4-17.1,19.4c-9.7,0-16.6-7.5-16.6-18.7c0-11.7,7.3-19.3,17.1-19.3 C31.3,13.7,37.8,21.3,37.8,32.2z M9.2,32.8c0,7.9,4.3,14.9,11.8,14.9c7.5,0,11.8-6.9,11.8-15.3c0-7.3-3.8-14.9-11.8-14.9 C13.1,17.5,9.2,24.8,9.2,32.8z"/><path fill="#FFFFFF" d="M62.7,43.8c0,2.7,0.1,5.1,0.2,7.2h-4.3l-0.3-4.3h-0.1c-1.3,2.1-4,4.9-8.8,4.9c-4.2,0-9.1-2.3-9.1-11.6 V24.6h4.8v14.6c0,5,1.5,8.4,5.9,8.4c3.2,0,5.5-2.2,6.3-4.4c0.3-0.7,0.4-1.6,0.4-2.5V24.6h4.8V43.8z"/><path fill="#FFFFFF" d="M67.3,32.8c0-3.1-0.1-5.8-0.2-8.2h4.2l0.2,5.2h0.2c1.2-3.5,4.1-5.8,7.3-5.8c0.5,0,0.9,0.1,1.4,0.2v4.5 c-0.5-0.1-1-0.2-1.6-0.2c-3.4,0-5.8,2.6-6.5,6.2c-0.1,0.7-0.2,1.4-0.2,2.2V51h-4.8V32.8z"/><path fill="#FFFFFF" d="M95.4,51l-9.4-36.8h5l4.4,18.6c1.1,4.6,2.1,9.2,2.7,12.7h0.1c0.6-3.7,1.8-8,3-12.8l4.9-18.5h5l4.5,18.7 c1,4.4,2,8.7,2.6,12.6h0.1c0.8-4,1.8-8.1,3-12.7l4.9-18.5h4.9L120.6,51h-5L111,31.9c-1.1-4.7-1.9-8.3-2.4-12h-0.1 c-0.7,3.7-1.5,7.3-2.8,12L100.4,51H95.4z"/><path fill="#FFFFFF" d="M154.9,37.6c0,9.8-6.8,14-13.2,14c-7.2,0-12.7-5.2-12.7-13.6c0-8.8,5.8-14,13.1-14 C149.8,24,154.9,29.5,154.9,37.6z M133.9,37.9c0,5.8,3.3,10.1,8,10.1c4.6,0,8-4.3,8-10.3c0-4.5-2.2-10.1-7.9-10.1 C136.3,27.6,133.9,32.8,133.9,37.9z"/><path fill="#FFFFFF" d="M158.2,32.8c0-3.1-0.1-5.8-0.2-8.2h4.2l0.2,5.2h0.2c1.2-3.5,4.1-5.8,7.3-5.8c0.5,0,0.9,0.1,1.4,0.2v4.5 c-0.5-0.1-1-0.2-1.6-0.2c-3.4,0-5.8,2.6-6.5,6.2c-0.1,0.7-0.2,1.4-0.2,2.2V51h-4.8V32.8z"/><path fill="#FFFFFF" d="M173.5,12.3h4.8V51h-4.8V12.3z"/><path fill="#FFFFFF" d="M206.5,12.3v31.9c0,2.3,0.1,5,0.2,6.8h-4.3l-0.2-4.6H202c-1.5,2.9-4.7,5.2-9,5.2 c-6.4,0-11.3-5.4-11.3-13.4c-0.1-8.8,5.4-14.2,11.9-14.2c4,0,6.8,1.9,8,4h0.1V12.3H206.5z M201.7,35.4c0-0.6-0.1-1.4-0.2-2 c-0.7-3.1-3.3-5.6-6.9-5.6c-5,0-7.9,4.4-7.9,10.2c0,5.3,2.6,9.8,7.8,9.8c3.2,0,6.2-2.1,7.1-5.7c0.2-0.7,0.2-1.3,0.2-2.1V35.4z"/><path fill="#FFFFFF" d="M42.8,64c0.1,1.6-1.1,2.9-3.1,2.9c-1.7,0-2.9-1.3-2.9-2.9c0-1.7,1.3-3,3-3C41.7,61,42.8,62.3,42.8,64z M37.4,97.8V71.4h4.8v26.4H37.4z"/><path fill="#FFFFFF" d="M47.5,78.6c0-2.7-0.1-5-0.2-7.1h4.3l0.3,4.4h0.1c1.3-2.5,4.4-5,8.8-5c3.7,0,9.4,2.2,9.4,11.2v15.8h-4.8 V82.6c0-4.3-1.6-7.8-6.1-7.8c-3.2,0-5.6,2.2-6.5,4.9c-0.2,0.6-0.3,1.4-0.3,2.2v15.9h-4.8V78.6z"/><path fill="#FFFFFF" d="M84,61.6c2.9-0.4,6.3-0.8,10.1-0.8c6.8,0,11.7,1.6,14.9,4.6c3.3,3,5.2,7.3,5.2,13.2c0,6-1.9,10.9-5.3,14.3 c-3.4,3.4-9.1,5.3-16.3,5.3c-3.4,0-6.2-0.2-8.6-0.4V61.6z M88.8,94.1c1.2,0.2,3,0.3,4.8,0.3c10.2,0,15.7-5.7,15.7-15.6 c0.1-8.7-4.9-14.2-14.9-14.2c-2.5,0-4.3,0.2-5.6,0.5V94.1z"/><path fill="#FFFFFF" d="M132.1,97.8l-0.4-3.3h-0.2c-1.5,2.1-4.3,3.9-8.1,3.9c-5.4,0-8.1-3.8-8.1-7.6c0-6.4,5.7-9.9,15.9-9.8v-0.5 c0-2.2-0.6-6.1-6-6.1c-2.5,0-5,0.8-6.9,2l-1.1-3.2c2.2-1.4,5.4-2.3,8.7-2.3c8.1,0,10.1,5.5,10.1,10.8v9.9c0,2.3,0.1,4.5,0.4,6.3 H132.1z M131.4,84.4c-5.3-0.1-11.2,0.8-11.2,5.9c0,3.1,2.1,4.6,4.5,4.6c3.4,0,5.6-2.2,6.4-4.4c0.2-0.5,0.3-1,0.3-1.5V84.4z"/><path fill="#FFFFFF" d="M146.6,63.9v7.6h6.9v3.7h-6.9v14.2c0,3.3,0.9,5.1,3.6,5.1c1.3,0,2.2-0.2,2.8-0.3l0.2,3.6 c-0.9,0.4-2.4,0.7-4.3,0.7c-2.2,0-4-0.7-5.2-2c-1.4-1.4-1.9-3.8-1.9-6.9V75.1h-4.1v-3.7h4.1v-6.3L146.6,63.9z"/><path fill="#FFFFFF" d="M171.4,97.8l-0.4-3.3h-0.2c-1.5,2.1-4.3,3.9-8.1,3.9c-5.4,0-8.1-3.8-8.1-7.6c0-6.4,5.7-9.9,15.9-9.8v-0.5 c0-2.2-0.6-6.1-6-6.1c-2.5,0-5,0.8-6.9,2l-1.1-3.2c2.2-1.4,5.4-2.3,8.7-2.3c8.1,0,10.1,5.5,10.1,10.8v9.9c0,2.3,0.1,4.5,0.4,6.3 H171.4z M170.7,84.4c-5.3-0.1-11.2,0.8-11.2,5.9c0,3.1,2.1,4.6,4.5,4.6c3.4,0,5.6-2.2,6.4-4.4c0.2-0.5,0.3-1,0.3-1.5V84.4z"/></g></g></a></g><a href="https://ourworldindata.org/grapher/human-rights-protection?tab=chart" target="_blank"><text font-size="25.20" x="15.0" y="35.2" fill="#555"><tspan x="15" y="35.160000000000004">Human Rights Protection</tspan></text></a><text font-size="14.40" x="15.0" y="53.7" fill="#666"><tspan x="15" y="53.72">Higher values indicate better human rights protection. The human rights scores measure protection from political</tspan><tspan x="15" y="69.56">repression and violations of “physical integrity rights”.</tspan></text></g><g class="LineChart"><defs><clipPath id="boundsClip-236"><rect x="24.418" y="0" width="830" height="874"></rect></clipPath></defs><g class="AxisBoxView"><g class="HorizontalAxis"><text x="34.4" y="529.1" fill="#666" text-anchor="middle" font-size="16.2">1949</text><text x="151.2" y="529.1" fill="#666" text-anchor="middle" font-size="16.2">1960</text><text x="257.4" y="529.1" fill="#666" text-anchor="middle" font-size="16.2">1970</text><text x="363.6" y="529.1" fill="#666" text-anchor="middle" font-size="16.2">1980</text><text x="469.7" y="529.1" fill="#666" text-anchor="middle" font-size="16.2">1990</text><text x="575.9" y="529.1" fill="#666" text-anchor="middle" font-size="16.2">2000</text><text x="682.1" y="529.1" fill="#666" text-anchor="middle" font-size="16.2">2010</text><text x="724.5" y="529.1" fill="#666" text-anchor="middle" font-size="16.2">2014</text></g><g class="VerticalAxis"><text x="29.42" y="454.3" fill="#666" dominant-baseline="middle" text-anchor="end" font-size="16.2">-2</text><text x="29.42" y="384.8" fill="#666" dominant-baseline="middle" text-anchor="end" font-size="16.2">-1</text><text x="29.42" y="315.3" fill="#666" dominant-baseline="middle" text-anchor="end" font-size="16.2">0</text><text x="29.42" y="245.9" fill="#666" dominant-baseline="middle" text-anchor="end" font-size="16.2">1</text><text x="29.42" y="176.4" fill="#666" dominant-baseline="middle" text-anchor="end" font-size="16.2">2</text><text x="29.42" y="106.9" fill="#666" dominant-baseline="middle" text-anchor="end" font-size="16.2">3</text></g><g class="AxisGridLines"><line x1="34.42" y1="454.3" x2="724.53" y2="454.3" stroke="#ddd" stroke-dasharray="3,2"></line><line x1="34.42" y1="384.8" x2="724.53" y2="384.8" stroke="#ddd" stroke-dasharray="3,2"></line><line x1="34.42" y1="315.3" x2="724.53" y2="315.3" stroke="#ccc"></line><line x1="34.42" y1="245.9" x2="724.53" y2="245.9" stroke="#ddd" stroke-dasharray="3,2"></line><line x1="34.42" y1="176.4" x2="724.53" y2="176.4" stroke="#ddd" stroke-dasharray="3,2"></line><line x1="34.42" y1="106.9" x2="724.53" y2="106.9" stroke="#ddd" stroke-dasharray="3,2"></line></g></g><g clip-path="url(#boundsClip-236)"><g class="HeightedLegend clickable"><g class="legendMark"><g class="indicator"><line x1="729.535" y1="103.1" x2="742.035" y2="103.1" stroke="#666" stroke-width="0.5"></line><line x1="742.035" y1="103.1" x2="742.035" y2="103.1" stroke="#666" stroke-width="0.5"></line><line x1="742.035" y1="103.1" x2="754.535" y2="103.1" stroke="#666" stroke-width="0.5"></line></g><rect x="724.535" y="96.35" width="80.765" height="13.5" fill="#fff" opacity="0"></rect><text font-size="13.50" x="759.5" y="107.1" fill="#e6332e"><tspan x="759.535" y="107.14999999999999">Norway</tspan></text></g><g class="legendMark"><g class="indicator"><line x1="729.535" y1="247.9" x2="752.035" y2="247.9" stroke="#666" stroke-width="0.5"></line><line x1="752.035" y1="247.9" x2="752.035" y2="247.9" stroke="#666" stroke-width="0.5"></line><line x1="752.035" y1="247.9" x2="754.535" y2="247.9" stroke="#666" stroke-width="0.5"></line></g><rect x="724.535" y="241.15" width="110.465" height="13.5" fill="#fff" opacity="0"></rect><text font-size="13.50" x="759.5" y="252.0" fill="#2a939b"><tspan x="759.535" y="251.95000000000002">South Korea</tspan></text></g><g class="legendMark"><g class="indicator"><line x1="729.535" y1="256.7" x2="747.035" y2="256.7" stroke="#666" stroke-width="0.5"></line><line x1="747.035" y1="256.7" x2="747.035" y2="263.4" stroke="#666" stroke-width="0.5"></line><line x1="747.035" y1="263.4" x2="754.535" y2="263.4" stroke="#666" stroke-width="0.5"></line></g><rect x="724.535" y="256.65" width="70.235" height="13.5" fill="#fff" opacity="0"></rect><text font-size="13.50" x="759.5" y="267.4" fill="#a652ba"><tspan x="759.535" y="267.45">World</tspan></text></g><g class="legendMark"><g class="indicator"><line x1="729.535" y1="260.3" x2="742.035" y2="260.3" stroke="#666" stroke-width="0.5"></line><line x1="742.035" y1="260.3" x2="742.035" y2="278.9" stroke="#666" stroke-width="0.5"></line><line x1="742.035" y1="278.9" x2="754.535" y2="278.9" stroke="#666" stroke-width="0.5"></line></g><rect x="724.535" y="272.15" width="86.165" height="13.5" fill="#fff" opacity="0"></rect><text font-size="13.50" x="759.5" y="282.9" fill="#f6a324"><tspan x="759.535" y="282.95">Hungary</tspan></text></g><g class="legendMark"><g class="indicator"><line x1="729.535" y1="290" x2="737.035" y2="290" stroke="#666" stroke-width="0.5"></line><line x1="737.035" y1="290" x2="737.035" y2="294.4" stroke="#666" stroke-width="0.5"></line><line x1="737.035" y1="294.4" x2="754.535" y2="294.4" stroke="#666" stroke-width="0.5"></line></g><rect x="724.535" y="287.65" width="80.225" height="13.5" fill="#fff" opacity="0"></rect><text font-size="13.50" x="759.5" y="298.4" fill="#34983f"><tspan x="759.535" y="298.45">Albania</tspan></text></g><g class="legendMark"><g class="indicator"><line x1="729.535" y1="392.8" x2="742.035" y2="392.8" stroke="#666" stroke-width="0.5"></line><line x1="742.035" y1="392.8" x2="742.035" y2="392.8" stroke="#666" stroke-width="0.5"></line><line x1="742.035" y1="392.8" x2="754.535" y2="392.8" stroke="#666" stroke-width="0.5"></line></g><rect x="724.535" y="386.05" width="70.37" height="13.5" fill="#fff" opacity="0"></rect><text font-size="13.50" x="759.5" y="396.9" fill="#ca2628"><tspan x="759.535" y="396.85">China</tspan></text></g><g class="legendMark"><g class="indicator"><line x1="729.535" y1="449" x2="742.035" y2="449" stroke="#666" stroke-width="0.5"></line><line x1="742.035" y1="449" x2="742.035" y2="449" stroke="#666" stroke-width="0.5"></line><line x1="742.035" y1="449" x2="754.535" y2="449" stroke="#666" stroke-width="0.5"></line></g><rect x="724.535" y="442.25" width="108.03500000000001" height="13.5" fill="#fff" opacity="0"></rect><text font-size="13.50" x="759.5" y="453.1" fill="#5B5B5B"><tspan x="759.535" y="453.05">North Korea</tspan></text></g></g><g class="Lines"><rect x="34" y="92" width="690" height="416" fill="rgba(255,255,255,0)" opacity="0"></rect><g class="key-World_0"><path stroke="#a652ba" stroke-linecap="round" d="M34 314L45 313L56 312L66 310L77 310L88 313L98 312L109 314L119 314L130 315L141 316L151 315L162 315L172 317L183 318L194 320L204 320L215 319L226 319L236 320L247 321L257 322L268 322L279 322L289 322L300 323L311 324L321 324L332 325L342 324L353 323L364 323L374 321L385 321L395 319L406 318L417 316L427 313L438 312L449 311L459 310L470 308L480 304L491 301L502 298L512 296L523 293L533 291L544 290L555 289L565 286L576 284L587 282L597 281L608 279L618 276L629 274L640 271L650 268L661 265L671 263L682 261L693 261L703 258L714 258L725 257" fill="none" stroke-width="1.5"></path><g fill="#a652ba"><circle cx="34" cy="314" r="2"></circle><circle cx="45" cy="313" r="2"></circle><circle cx="56" cy="312" r="2"></circle><circle cx="66" cy="310" r="2"></circle><circle cx="77" cy="310" r="2"></circle><circle cx="88" cy="313" r="2"></circle><circle cx="98" cy="312" r="2"></circle><circle cx="109" cy="314" r="2"></circle><circle cx="119" cy="314" r="2"></circle><circle cx="130" cy="315" r="2"></circle><circle cx="141" cy="316" r="2"></circle><circle cx="151" cy="315" r="2"></circle><circle cx="162" cy="315" r="2"></circle><circle cx="172" cy="317" r="2"></circle><circle cx="183" cy="318" r="2"></circle><circle cx="194" cy="320" r="2"></circle><circle cx="204" cy="320" r="2"></circle><circle cx="215" cy="319" r="2"></circle><circle cx="226" cy="319" r="2"></circle><circle cx="236" cy="320" r="2"></circle><circle cx="247" cy="321" r="2"></circle><circle cx="257" cy="322" r="2"></circle><circle cx="268" cy="322" r="2"></circle><circle cx="279" cy="322" r="2"></circle><circle cx="289" cy="322" r="2"></circle><circle cx="300" cy="323" r="2"></circle><circle cx="311" cy="324" r="2"></circle><circle cx="321" cy="324" r="2"></circle><circle cx="332" cy="325" r="2"></circle><circle cx="342" cy="324" r="2"></circle><circle cx="353" cy="323" r="2"></circle><circle cx="364" cy="323" r="2"></circle><circle cx="374" cy="321" r="2"></circle><circle cx="385" cy="321" r="2"></circle><circle cx="395" cy="319" r="2"></circle><circle cx="406" cy="318" r="2"></circle><circle cx="417" cy="316" r="2"></circle><circle cx="427" cy="313" r="2"></circle><circle cx="438" cy="312" r="2"></circle><circle cx="449" cy="311" r="2"></circle><circle cx="459" cy="310" r="2"></circle><circle cx="470" cy="308" r="2"></circle><circle cx="480" cy="304" r="2"></circle><circle cx="491" cy="301" r="2"></circle><circle cx="502" cy="298" r="2"></circle><circle cx="512" cy="296" r="2"></circle><circle cx="523" cy="293" r="2"></circle><circle cx="533" cy="291" r="2"></circle><circle cx="544" cy="290" r="2"></circle><circle cx="555" cy="289" r="2"></circle><circle cx="565" cy="286" r="2"></circle><circle cx="576" cy="284" r="2"></circle><circle cx="587" cy="282" r="2"></circle><circle cx="597" cy="281" r="2"></circle><circle cx="608" cy="279" r="2"></circle><circle cx="618" cy="276" r="2"></circle><circle cx="629" cy="274" r="2"></circle><circle cx="640" cy="271" r="2"></circle><circle cx="650" cy="268" r="2"></circle><circle cx="661" cy="265" r="2"></circle><circle cx="671" cy="263" r="2"></circle><circle cx="682" cy="261" r="2"></circle><circle cx="693" cy="261" r="2"></circle><circle cx="703" cy="258" r="2"></circle><circle cx="714" cy="258" r="2"></circle><circle cx="725" cy="257" r="2"></circle></g></g><g class="key-China_0"><path stroke="#ca2628" stroke-linecap="round" d="M34 444L45 456L56 456L66 446L77 440L88 438L98 436L109 435L119 436L130 441L141 452L151 440L162 434L172 431L183 433L194 437L204 450L215 477L226 493L236 503L247 508L257 508L268 504L279 500L289 494L300 485L311 467L321 438L332 419L342 394L353 380L364 373L374 369L385 364L395 363L406 364L417 361L427 360L438 368L449 383L459 411L470 400L480 386L491 384L502 383L512 395L523 395L533 394L544 401L555 404L565 404L576 405L587 407L597 411L608 412L618 413L629 415L640 411L650 407L661 414L671 416L682 415L693 413L703 405L714 400L725 393" fill="none" stroke-width="1.5"></path><g fill="#ca2628"><circle cx="34" cy="444" r="2"></circle><circle cx="45" cy="456" r="2"></circle><circle cx="56" cy="456" r="2"></circle><circle cx="66" cy="446" r="2"></circle><circle cx="77" cy="440" r="2"></circle><circle cx="88" cy="438" r="2"></circle><circle cx="98" cy="436" r="2"></circle><circle cx="109" cy="435" r="2"></circle><circle cx="119" cy="436" r="2"></circle><circle cx="130" cy="441" r="2"></circle><circle cx="141" cy="452" r="2"></circle><circle cx="151" cy="440" r="2"></circle><circle cx="162" cy="434" r="2"></circle><circle cx="172" cy="431" r="2"></circle><circle cx="183" cy="433" r="2"></circle><circle cx="194" cy="437" r="2"></circle><circle cx="204" cy="450" r="2"></circle><circle cx="215" cy="477" r="2"></circle><circle cx="226" cy="493" r="2"></circle><circle cx="236" cy="503" r="2"></circle><circle cx="247" cy="508" r="2"></circle><circle cx="257" cy="508" r="2"></circle><circle cx="268" cy="504" r="2"></circle><circle cx="279" cy="500" r="2"></circle><circle cx="289" cy="494" r="2"></circle><circle cx="300" cy="485" r="2"></circle><circle cx="311" cy="467" r="2"></circle><circle cx="321" cy="438" r="2"></circle><circle cx="332" cy="419" r="2"></circle><circle cx="342" cy="394" r="2"></circle><circle cx="353" cy="380" r="2"></circle><circle cx="364" cy="373" r="2"></circle><circle cx="374" cy="369" r="2"></circle><circle cx="385" cy="364" r="2"></circle><circle cx="395" cy="363" r="2"></circle><circle cx="406" cy="364" r="2"></circle><circle cx="417" cy="361" r="2"></circle><circle cx="427" cy="360" r="2"></circle><circle cx="438" cy="368" r="2"></circle><circle cx="449" cy="383" r="2"></circle><circle cx="459" cy="411" r="2"></circle><circle cx="470" cy="400" r="2"></circle><circle cx="480" cy="386" r="2"></circle><circle cx="491" cy="384" r="2"></circle><circle cx="502" cy="383" r="2"></circle><circle cx="512" cy="395" r="2"></circle><circle cx="523" cy="395" r="2"></circle><circle cx="533" cy="394" r="2"></circle><circle cx="544" cy="401" r="2"></circle><circle cx="555" cy="404" r="2"></circle><circle cx="565" cy="404" r="2"></circle><circle cx="576" cy="405" r="2"></circle><circle cx="587" cy="407" r="2"></circle><circle cx="597" cy="411" r="2"></circle><circle cx="608" cy="412" r="2"></circle><circle cx="618" cy="413" r="2"></circle><circle cx="629" cy="415" r="2"></circle><circle cx="640" cy="411" r="2"></circle><circle cx="650" cy="407" r="2"></circle><circle cx="661" cy="414" r="2"></circle><circle cx="671" cy="416" r="2"></circle><circle cx="682" cy="415" r="2"></circle><circle cx="693" cy="413" r="2"></circle><circle cx="703" cy="405" r="2"></circle><circle cx="714" cy="400" r="2"></circle><circle cx="725" cy="393" r="2"></circle></g></g><g class="key-Hungary_0"><path stroke="#f6a324" stroke-linecap="round" d="M34 395L45 398L56 397L66 398L77 401L88 404L98 410L109 419L119 422L130 421L141 415L151 401L162 375L172 358L183 342L194 330L204 321L215 314L226 308L236 303L247 300L257 297L268 295L279 294L289 294L300 295L311 296L321 298L332 291L342 287L353 284L364 282L374 279L385 280L395 278L406 273L417 269L427 265L438 259L449 243L459 218L470 209L480 209L491 219L502 225L512 223L523 231L533 231L544 237L555 253L565 262L576 266L587 271L597 275L608 277L618 280L629 275L640 273L650 272L661 262L671 259L682 260L693 260L703 259L714 260L725 260" fill="none" stroke-width="1.5"></path><g fill="#f6a324"><circle cx="34" cy="395" r="2"></circle><circle cx="45" cy="398" r="2"></circle><circle cx="56" cy="397" r="2"></circle><circle cx="66" cy="398" r="2"></circle><circle cx="77" cy="401" r="2"></circle><circle cx="88" cy="404" r="2"></circle><circle cx="98" cy="410" r="2"></circle><circle cx="109" cy="419" r="2"></circle><circle cx="119" cy="422" r="2"></circle><circle cx="130" cy="421" r="2"></circle><circle cx="141" cy="415" r="2"></circle><circle cx="151" cy="401" r="2"></circle><circle cx="162" cy="375" r="2"></circle><circle cx="172" cy="358" r="2"></circle><circle cx="183" cy="342" r="2"></circle><circle cx="194" cy="330" r="2"></circle><circle cx="204" cy="321" r="2"></circle><circle cx="215" cy="314" r="2"></circle><circle cx="226" cy="308" r="2"></circle><circle cx="236" cy="303" r="2"></circle><circle cx="247" cy="300" r="2"></circle><circle cx="257" cy="297" r="2"></circle><circle cx="268" cy="295" r="2"></circle><circle cx="279" cy="294" r="2"></circle><circle cx="289" cy="294" r="2"></circle><circle cx="300" cy="295" r="2"></circle><circle cx="311" cy="296" r="2"></circle><circle cx="321" cy="298" r="2"></circle><circle cx="332" cy="291" r="2"></circle><circle cx="342" cy="287" r="2"></circle><circle cx="353" cy="284" r="2"></circle><circle cx="364" cy="282" r="2"></circle><circle cx="374" cy="279" r="2"></circle><circle cx="385" cy="280" r="2"></circle><circle cx="395" cy="278" r="2"></circle><circle cx="406" cy="273" r="2"></circle><circle cx="417" cy="269" r="2"></circle><circle cx="427" cy="265" r="2"></circle><circle cx="438" cy="259" r="2"></circle><circle cx="449" cy="243" r="2"></circle><circle cx="459" cy="218" r="2"></circle><circle cx="470" cy="209" r="2"></circle><circle cx="480" cy="209" r="2"></circle><circle cx="491" cy="219" r="2"></circle><circle cx="502" cy="225" r="2"></circle><circle cx="512" cy="223" r="2"></circle><circle cx="523" cy="231" r="2"></circle><circle cx="533" cy="231" r="2"></circle><circle cx="544" cy="237" r="2"></circle><circle cx="555" cy="253" r="2"></circle><circle cx="565" cy="262" r="2"></circle><circle cx="576" cy="266" r="2"></circle><circle cx="587" cy="271" r="2"></circle><circle cx="597" cy="275" r="2"></circle><circle cx="608" cy="277" r="2"></circle><circle cx="618" cy="280" r="2"></circle><circle cx="629" cy="275" r="2"></circle><circle cx="640" cy="273" r="2"></circle><circle cx="650" cy="272" r="2"></circle><circle cx="661" cy="262" r="2"></circle><circle cx="671" cy="259" r="2"></circle><circle cx="682" cy="260" r="2"></circle><circle cx="693" cy="260" r="2"></circle><circle cx="703" cy="259" r="2"></circle><circle cx="714" cy="260" r="2"></circle><circle cx="725" cy="260" r="2"></circle></g></g><g class="key-North-Korea_0"><path stroke="#5B5B5B" stroke-linecap="round" d="M34 419L45 422L56 425L66 427L77 429L88 427L98 428L109 425L119 423L130 423L141 422L151 422L162 422L172 422L183 422L194 421L204 422L215 422L226 422L236 422L247 422L257 422L268 422L279 423L289 422L300 422L311 422L321 422L332 421L342 421L353 420L364 419L374 416L385 414L395 413L406 411L417 420L427 423L438 419L449 417L459 418L470 411L480 405L491 403L502 406L512 406L523 412L533 430L544 442L555 448L565 449L576 449L587 444L597 433L608 432L618 432L629 432L640 434L650 439L661 450L671 457L682 458L693 456L703 455L714 453L725 449" fill="none" stroke-width="1.5"></path><g fill="#5B5B5B"><circle cx="34" cy="419" r="2"></circle><circle cx="45" cy="422" r="2"></circle><circle cx="56" cy="425" r="2"></circle><circle cx="66" cy="427" r="2"></circle><circle cx="77" cy="429" r="2"></circle><circle cx="88" cy="427" r="2"></circle><circle cx="98" cy="428" r="2"></circle><circle cx="109" cy="425" r="2"></circle><circle cx="119" cy="423" r="2"></circle><circle cx="130" cy="423" r="2"></circle><circle cx="141" cy="422" r="2"></circle><circle cx="151" cy="422" r="2"></circle><circle cx="162" cy="422" r="2"></circle><circle cx="172" cy="422" r="2"></circle><circle cx="183" cy="422" r="2"></circle><circle cx="194" cy="421" r="2"></circle><circle cx="204" cy="422" r="2"></circle><circle cx="215" cy="422" r="2"></circle><circle cx="226" cy="422" r="2"></circle><circle cx="236" cy="422" r="2"></circle><circle cx="247" cy="422" r="2"></circle><circle cx="257" cy="422" r="2"></circle><circle cx="268" cy="422" r="2"></circle><circle cx="279" cy="423" r="2"></circle><circle cx="289" cy="422" r="2"></circle><circle cx="300" cy="422" r="2"></circle><circle cx="311" cy="422" r="2"></circle><circle cx="321" cy="422" r="2"></circle><circle cx="332" cy="421" r="2"></circle><circle cx="342" cy="421" r="2"></circle><circle cx="353" cy="420" r="2"></circle><circle cx="364" cy="419" r="2"></circle><circle cx="374" cy="416" r="2"></circle><circle cx="385" cy="414" r="2"></circle><circle cx="395" cy="413" r="2"></circle><circle cx="406" cy="411" r="2"></circle><circle cx="417" cy="420" r="2"></circle><circle cx="427" cy="423" r="2"></circle><circle cx="438" cy="419" r="2"></circle><circle cx="449" cy="417" r="2"></circle><circle cx="459" cy="418" r="2"></circle><circle cx="470" cy="411" r="2"></circle><circle cx="480" cy="405" r="2"></circle><circle cx="491" cy="403" r="2"></circle><circle cx="502" cy="406" r="2"></circle><circle cx="512" cy="406" r="2"></circle><circle cx="523" cy="412" r="2"></circle><circle cx="533" cy="430" r="2"></circle><circle cx="544" cy="442" r="2"></circle><circle cx="555" cy="448" r="2"></circle><circle cx="565" cy="449" r="2"></circle><circle cx="576" cy="449" r="2"></circle><circle cx="587" cy="444" r="2"></circle><circle cx="597" cy="433" r="2"></circle><circle cx="608" cy="432" r="2"></circle><circle cx="618" cy="432" r="2"></circle><circle cx="629" cy="432" r="2"></circle><circle cx="640" cy="434" r="2"></circle><circle cx="650" cy="439" r="2"></circle><circle cx="661" cy="450" r="2"></circle><circle cx="671" cy="457" r="2"></circle><circle cx="682" cy="458" r="2"></circle><circle cx="693" cy="456" r="2"></circle><circle cx="703" cy="455" r="2"></circle><circle cx="714" cy="453" r="2"></circle><circle cx="725" cy="449" r="2"></circle></g></g><g class="key-South-Korea_0"><path stroke="#2a939b" stroke-linecap="round" d="M34 398L45 402L56 391L66 377L77 360L88 350L98 340L109 334L119 330L130 325L141 322L151 318L162 315L172 309L183 306L194 304L204 302L215 302L226 303L236 306L247 309L257 310L268 312L279 316L289 322L300 330L311 335L321 339L332 338L342 332L353 333L364 342L374 344L385 345L395 346L406 341L417 344L427 345L438 346L449 335L459 344L470 349L480 349L491 340L502 323L512 324L523 323L533 318L544 304L555 299L565 298L576 298L587 303L597 314L608 297L618 285L629 273L640 272L650 279L661 287L671 294L682 296L693 272L703 257L714 249L725 248" fill="none" stroke-width="1.5"></path><g fill="#2a939b"><circle cx="34" cy="398" r="2"></circle><circle cx="45" cy="402" r="2"></circle><circle cx="56" cy="391" r="2"></circle><circle cx="66" cy="377" r="2"></circle><circle cx="77" cy="360" r="2"></circle><circle cx="88" cy="350" r="2"></circle><circle cx="98" cy="340" r="2"></circle><circle cx="109" cy="334" r="2"></circle><circle cx="119" cy="330" r="2"></circle><circle cx="130" cy="325" r="2"></circle><circle cx="141" cy="322" r="2"></circle><circle cx="151" cy="318" r="2"></circle><circle cx="162" cy="315" r="2"></circle><circle cx="172" cy="309" r="2"></circle><circle cx="183" cy="306" r="2"></circle><circle cx="194" cy="304" r="2"></circle><circle cx="204" cy="302" r="2"></circle><circle cx="215" cy="302" r="2"></circle><circle cx="226" cy="303" r="2"></circle><circle cx="236" cy="306" r="2"></circle><circle cx="247" cy="309" r="2"></circle><circle cx="257" cy="310" r="2"></circle><circle cx="268" cy="312" r="2"></circle><circle cx="279" cy="316" r="2"></circle><circle cx="289" cy="322" r="2"></circle><circle cx="300" cy="330" r="2"></circle><circle cx="311" cy="335" r="2"></circle><circle cx="321" cy="339" r="2"></circle><circle cx="332" cy="338" r="2"></circle><circle cx="342" cy="332" r="2"></circle><circle cx="353" cy="333" r="2"></circle><circle cx="364" cy="342" r="2"></circle><circle cx="374" cy="344" r="2"></circle><circle cx="385" cy="345" r="2"></circle><circle cx="395" cy="346" r="2"></circle><circle cx="406" cy="341" r="2"></circle><circle cx="417" cy="344" r="2"></circle><circle cx="427" cy="345" r="2"></circle><circle cx="438" cy="346" r="2"></circle><circle cx="449" cy="335" r="2"></circle><circle cx="459" cy="344" r="2"></circle><circle cx="470" cy="349" r="2"></circle><circle cx="480" cy="349" r="2"></circle><circle cx="491" cy="340" r="2"></circle><circle cx="502" cy="323" r="2"></circle><circle cx="512" cy="324" r="2"></circle><circle cx="523" cy="323" r="2"></circle><circle cx="533" cy="318" r="2"></circle><circle cx="544" cy="304" r="2"></circle><circle cx="555" cy="299" r="2"></circle><circle cx="565" cy="298" r="2"></circle><circle cx="576" cy="298" r="2"></circle><circle cx="587" cy="303" r="2"></circle><circle cx="597" cy="314" r="2"></circle><circle cx="608" cy="297" r="2"></circle><circle cx="618" cy="285" r="2"></circle><circle cx="629" cy="273" r="2"></circle><circle cx="640" cy="272" r="2"></circle><circle cx="650" cy="279" r="2"></circle><circle cx="661" cy="287" r="2"></circle><circle cx="671" cy="294" r="2"></circle><circle cx="682" cy="296" r="2"></circle><circle cx="693" cy="272" r="2"></circle><circle cx="703" cy="257" r="2"></circle><circle cx="714" cy="249" r="2"></circle><circle cx="725" cy="248" r="2"></circle></g></g><g class="key-Norway_0"><path stroke="#e6332e" stroke-linecap="round" d="M34 224L45 219L56 215L66 210L77 206L88 202L98 197L109 193L119 190L130 186L141 183L151 179L162 175L172 172L183 169L194 167L204 163L215 161L226 158L236 155L247 152L257 150L268 147L279 144L289 143L300 140L311 138L321 135L332 133L342 131L353 130L364 128L374 127L385 127L395 127L406 128L417 130L427 134L438 140L449 135L459 132L470 132L480 126L491 122L502 120L512 118L523 110L533 104L544 99L555 96L565 94L576 93L587 92L597 92L608 93L618 95L629 97L640 101L650 105L661 109L671 106L682 104L693 103L703 103L714 103L725 103" fill="none" stroke-width="1.5"></path><g fill="#e6332e"><circle cx="34" cy="224" r="2"></circle><circle cx="45" cy="219" r="2"></circle><circle cx="56" cy="215" r="2"></circle><circle cx="66" cy="210" r="2"></circle><circle cx="77" cy="206" r="2"></circle><circle cx="88" cy="202" r="2"></circle><circle cx="98" cy="197" r="2"></circle><circle cx="109" cy="193" r="2"></circle><circle cx="119" cy="190" r="2"></circle><circle cx="130" cy="186" r="2"></circle><circle cx="141" cy="183" r="2"></circle><circle cx="151" cy="179" r="2"></circle><circle cx="162" cy="175" r="2"></circle><circle cx="172" cy="172" r="2"></circle><circle cx="183" cy="169" r="2"></circle><circle cx="194" cy="167" r="2"></circle><circle cx="204" cy="163" r="2"></circle><circle cx="215" cy="161" r="2"></circle><circle cx="226" cy="158" r="2"></circle><circle cx="236" cy="155" r="2"></circle><circle cx="247" cy="152" r="2"></circle><circle cx="257" cy="150" r="2"></circle><circle cx="268" cy="147" r="2"></circle><circle cx="279" cy="144" r="2"></circle><circle cx="289" cy="143" r="2"></circle><circle cx="300" cy="140" r="2"></circle><circle cx="311" cy="138" r="2"></circle><circle cx="321" cy="135" r="2"></circle><circle cx="332" cy="133" r="2"></circle><circle cx="342" cy="131" r="2"></circle><circle cx="353" cy="130" r="2"></circle><circle cx="364" cy="128" r="2"></circle><circle cx="374" cy="127" r="2"></circle><circle cx="385" cy="127" r="2"></circle><circle cx="395" cy="127" r="2"></circle><circle cx="406" cy="128" r="2"></circle><circle cx="417" cy="130" r="2"></circle><circle cx="427" cy="134" r="2"></circle><circle cx="438" cy="140" r="2"></circle><circle cx="449" cy="135" r="2"></circle><circle cx="459" cy="132" r="2"></circle><circle cx="470" cy="132" r="2"></circle><circle cx="480" cy="126" r="2"></circle><circle cx="491" cy="122" r="2"></circle><circle cx="502" cy="120" r="2"></circle><circle cx="512" cy="118" r="2"></circle><circle cx="523" cy="110" r="2"></circle><circle cx="533" cy="104" r="2"></circle><circle cx="544" cy="99" r="2"></circle><circle cx="555" cy="96" r="2"></circle><circle cx="565" cy="94" r="2"></circle><circle cx="576" cy="93" r="2"></circle><circle cx="587" cy="92" r="2"></circle><circle cx="597" cy="92" r="2"></circle><circle cx="608" cy="93" r="2"></circle><circle cx="618" cy="95" r="2"></circle><circle cx="629" cy="97" r="2"></circle><circle cx="640" cy="101" r="2"></circle><circle cx="650" cy="105" r="2"></circle><circle cx="661" cy="109" r="2"></circle><circle cx="671" cy="106" r="2"></circle><circle cx="682" cy="104" r="2"></circle><circle cx="693" cy="103" r="2"></circle><circle cx="703" cy="103" r="2"></circle><circle cx="714" cy="103" r="2"></circle><circle cx="725" cy="103" r="2"></circle></g></g><g class="key-Albania_0"><path stroke="#34983f" stroke-linecap="round" d="M34 425L45 428L56 431L66 432L77 432L88 431L98 428L109 427L119 424L130 423L141 423L151 424L162 425L172 423L183 422L194 422L204 422L215 422L226 422L236 422L247 422L257 422L268 422L279 421L289 422L300 418L311 413L321 402L332 396L342 388L353 383L364 381L374 384L385 382L395 382L406 381L417 372L427 360L438 353L449 351L459 348L470 342L480 321L491 300L502 297L512 304L523 318L533 329L544 345L555 335L565 336L576 333L587 324L597 325L608 316L618 313L629 309L640 304L650 297L661 286L671 281L682 282L693 287L703 290L714 290L725 290" fill="none" stroke-width="1.5"></path><g fill="#34983f"><circle cx="34" cy="425" r="2"></circle><circle cx="45" cy="428" r="2"></circle><circle cx="56" cy="431" r="2"></circle><circle cx="66" cy="432" r="2"></circle><circle cx="77" cy="432" r="2"></circle><circle cx="88" cy="431" r="2"></circle><circle cx="98" cy="428" r="2"></circle><circle cx="109" cy="427" r="2"></circle><circle cx="119" cy="424" r="2"></circle><circle cx="130" cy="423" r="2"></circle><circle cx="141" cy="423" r="2"></circle><circle cx="151" cy="424" r="2"></circle><circle cx="162" cy="425" r="2"></circle><circle cx="172" cy="423" r="2"></circle><circle cx="183" cy="422" r="2"></circle><circle cx="194" cy="422" r="2"></circle><circle cx="204" cy="422" r="2"></circle><circle cx="215" cy="422" r="2"></circle><circle cx="226" cy="422" r="2"></circle><circle cx="236" cy="422" r="2"></circle><circle cx="247" cy="422" r="2"></circle><circle cx="257" cy="422" r="2"></circle><circle cx="268" cy="422" r="2"></circle><circle cx="279" cy="421" r="2"></circle><circle cx="289" cy="422" r="2"></circle><circle cx="300" cy="418" r="2"></circle><circle cx="311" cy="413" r="2"></circle><circle cx="321" cy="402" r="2"></circle><circle cx="332" cy="396" r="2"></circle><circle cx="342" cy="388" r="2"></circle><circle cx="353" cy="383" r="2"></circle><circle cx="364" cy="381" r="2"></circle><circle cx="374" cy="384" r="2"></circle><circle cx="385" cy="382" r="2"></circle><circle cx="395" cy="382" r="2"></circle><circle cx="406" cy="381" r="2"></circle><circle cx="417" cy="372" r="2"></circle><circle cx="427" cy="360" r="2"></circle><circle cx="438" cy="353" r="2"></circle><circle cx="449" cy="351" r="2"></circle><circle cx="459" cy="348" r="2"></circle><circle cx="470" cy="342" r="2"></circle><circle cx="480" cy="321" r="2"></circle><circle cx="491" cy="300" r="2"></circle><circle cx="502" cy="297" r="2"></circle><circle cx="512" cy="304" r="2"></circle><circle cx="523" cy="318" r="2"></circle><circle cx="533" cy="329" r="2"></circle><circle cx="544" cy="345" r="2"></circle><circle cx="555" cy="335" r="2"></circle><circle cx="565" cy="336" r="2"></circle><circle cx="576" cy="333" r="2"></circle><circle cx="587" cy="324" r="2"></circle><circle cx="597" cy="325" r="2"></circle><circle cx="608" cy="316" r="2"></circle><circle cx="618" cy="313" r="2"></circle><circle cx="629" cy="309" r="2"></circle><circle cx="640" cy="304" r="2"></circle><circle cx="650" cy="297" r="2"></circle><circle cx="661" cy="286" r="2"></circle><circle cx="671" cy="281" r="2"></circle><circle cx="682" cy="282" r="2"></circle><circle cx="693" cy="287" r="2"></circle><circle cx="703" cy="290" r="2"></circle><circle cx="714" cy="290" r="2"></circle><circle cx="725" cy="290" r="2"></circle></g></g></g></g></g><g class="SourcesFooter" style="fill:#777"><g class="clickable" style="fill:#777"><text font-size="12.60" x="15.0" y="554.2"><tspan x="15" y="554.1800000000001">Source: Human Rights Protection Scores – Christopher Farris (2014) and Keith Schnakenberg</tspan></text></g><text font-size="12.60" x="15.0" y="568.8"><tspan x="15" y="568.7800000000001">Note: The protection scores are latent variable estimates and are described in more detail in the Sources Tab. The original dataset is published</tspan><tspan x="15" y="582.6400000000001">with uncertainty estimates, which should be considered but cannot be shown here because of technical limitations.</tspan></text><text font-size="12.60" x="568.3" y="554.2"><tspan x="568.258" y="554.1800000000001"><a target='_blank' style='fill: #777;' href='https://ourworldindata.org/human-rights/'>OurWorldInData.org/human-rights/</a> • <a style="fill: #777;" class="cclogo" href="http://creativecommons.org/licenses/by-sa/4.0/deed.en_US" target="_blank">CC BY-SA</a></tspan></text></g></g></svg>