<svg xmlns="http://www.w3.org/2000/svg" version="1.1" style="font-family:&#x27;Helvetica Neue&#x27;, Helvetica, Arial, sans-serif;font-size:18px;background-color:white;text-rendering:optimizeLegibility;-webkit-font-smoothing:antialiased" width="850" height="600"><g class="HeaderView"><g opacity="0.8" transform="translate(774, 15) scale(0.29)"><svg width="210" height="120" viewBox="0 0 210 120" fill="none" xmlns="http://www.w3.org/2000/svg">
    <a xmlns:xlink="http://www.w3.org/1999/xlink" xlink:href="https://ourworldindata.org" target="_blank">
        <g clip-path="url(#clip0)">
            <path d="M0 0H210V107.89H0V0Z" fill="#002147"/>
            <path d="M40.9788 32.248C40.9788 34.6093 40.6048 36.78 39.8568 38.76C39.1088 40.7253 38.0528 42.4193 36.6888 43.842C35.3248 45.2647 33.6821 46.372 31.7608 47.164C29.8541 47.9413 27.7421 48.33 25.4248 48.33C23.1074 48.33 20.9954 47.9413 19.0888 47.164C17.1821 46.372 15.5468 45.2647 14.1828 43.842C12.8188 42.4193 11.7628 40.7253 11.0148 38.76C10.2668 36.78 9.89277 34.6093 9.89277 32.248C9.89277 29.8867 10.2668 27.7233 11.0148 25.758C11.7628 23.778 12.8188 22.0767 14.1828 20.654C15.5468 19.2167 17.1821 18.102 19.0888 17.31C20.9954 16.518 23.1074 16.122 25.4248 16.122C27.7421 16.122 29.8541 16.518 31.7608 17.31C33.6821 18.102 35.3248 19.2167 36.6888 20.654C38.0528 22.0767 39.1088 23.778 39.8568 25.758C40.6048 27.7233 40.9788 29.8867 40.9788 32.248ZM36.6008 32.248C36.6008 30.312 36.3368 28.574 35.8088 27.034C35.2808 25.494 34.5328 24.196 33.5648 23.14C32.5968 22.0693 31.4234 21.248 30.0448 20.676C28.6661 20.104 27.1261 19.818 25.4248 19.818C23.7381 19.818 22.2054 20.104 20.8268 20.676C19.4481 21.248 18.2674 22.0693 17.2848 23.14C16.3168 24.196 15.5688 25.494 15.0408 27.034C14.5128 28.574 14.2488 30.312 14.2488 32.248C14.2488 34.184 14.5128 35.922 15.0408 37.462C15.5688 38.9873 16.3168 40.2853 17.2848 41.356C18.2674 42.412 19.4481 43.226 20.8268 43.798C22.2054 44.3553 23.7381 44.634 25.4248 44.634C27.1261 44.634 28.6661 44.3553 30.0448 43.798C31.4234 43.226 32.5968 42.412 33.5648 41.356C34.5328 40.2853 35.2808 38.9873 35.8088 37.462C36.3368 35.922 36.6008 34.184 36.6008 32.248ZM62.8234 25.714V48H60.4914C59.9341 48 59.5821 47.7287 59.4354 47.186L59.1274 44.788C58.1594 45.8587 57.0741 46.724 55.8714 47.384C54.6687 48.0293 53.2901 48.352 51.7354 48.352C50.5181 48.352 49.4401 48.154 48.5014 47.758C47.5774 47.3473 46.8001 46.7753 46.1694 46.042C45.5387 45.3087 45.0621 44.4213 44.7394 43.38C44.4314 42.3387 44.2774 41.1873 44.2774 39.926V25.714H48.1934V39.926C48.1934 41.6127 48.5747 42.918 49.3374 43.842C50.1147 44.766 51.2954 45.228 52.8794 45.228C54.0381 45.228 55.1161 44.9567 56.1134 44.414C57.1254 43.8567 58.0567 43.094 58.9074 42.126V25.714H62.8234ZM71.4305 30.18C72.1346 28.6547 72.9999 27.4667 74.0266 26.616C75.0532 25.7507 76.3072 25.318 77.7886 25.318C78.2579 25.318 78.7052 25.3693 79.1306 25.472C79.5706 25.5747 79.9592 25.736 80.2966 25.956L80.0106 28.882C79.9226 29.2487 79.7026 29.432 79.3506 29.432C79.1452 29.432 78.8446 29.388 78.4486 29.3C78.0526 29.212 77.6052 29.168 77.1066 29.168C76.4026 29.168 75.7719 29.2707 75.2146 29.476C74.6719 29.6813 74.1806 29.9893 73.7406 30.4C73.3152 30.796 72.9266 31.2947 72.5746 31.896C72.2372 32.4827 71.9292 33.1573 71.6506 33.92V48H67.7125V25.714H69.9566C70.3819 25.714 70.6752 25.7947 70.8366 25.956C70.9979 26.1173 71.1079 26.396 71.1666 26.792L71.4305 30.18ZM132.589 16.474L122.755 48H118.927L110.941 23.954C110.867 23.7193 110.794 23.47 110.721 23.206C110.662 22.942 110.596 22.6633 110.523 22.37C110.449 22.6633 110.376 22.942 110.303 23.206C110.23 23.47 110.156 23.7193 110.083 23.954L102.053 48H98.2248L88.3908 16.474H91.9328C92.3142 16.474 92.6295 16.5693 92.8788 16.76C93.1428 16.9507 93.3115 17.1927 93.3848 17.486L99.8968 39.398C99.9995 39.794 100.095 40.2193 100.183 40.674C100.285 41.1287 100.381 41.6127 100.469 42.126C100.571 41.6127 100.674 41.1287 100.777 40.674C100.894 40.2047 101.019 39.7793 101.151 39.398L108.565 17.486C108.653 17.2367 108.821 17.0093 109.071 16.804C109.335 16.584 109.65 16.474 110.017 16.474H111.249C111.63 16.474 111.938 16.5693 112.173 16.76C112.407 16.9507 112.583 17.1927 112.701 17.486L120.093 39.398C120.225 39.7793 120.342 40.19 120.445 40.63C120.562 41.07 120.672 41.532 120.775 42.016C120.848 41.532 120.929 41.07 121.017 40.63C121.105 40.19 121.2 39.7793 121.303 39.398L127.837 17.486C127.91 17.222 128.072 16.9873 128.321 16.782C128.585 16.5767 128.9 16.474 129.267 16.474H132.589ZM141.94 25.362C143.568 25.362 145.034 25.6333 146.34 26.176C147.645 26.7187 148.76 27.4887 149.684 28.486C150.608 29.4833 151.312 30.6933 151.796 32.116C152.294 33.524 152.544 35.1007 152.544 36.846C152.544 38.606 152.294 40.19 151.796 41.598C151.312 43.006 150.608 44.2087 149.684 45.206C148.76 46.2033 147.645 46.9733 146.34 47.516C145.034 48.044 143.568 48.308 141.94 48.308C140.297 48.308 138.816 48.044 137.496 47.516C136.19 46.9733 135.076 46.2033 134.152 45.206C133.228 44.2087 132.516 43.006 132.018 41.598C131.534 40.19 131.292 38.606 131.292 36.846C131.292 35.1007 131.534 33.524 132.018 32.116C132.516 30.6933 133.228 29.4833 134.152 28.486C135.076 27.4887 136.19 26.7187 137.496 26.176C138.816 25.6333 140.297 25.362 141.94 25.362ZM141.94 45.25C144.14 45.25 145.782 44.5167 146.868 43.05C147.953 41.5687 148.496 39.508 148.496 36.868C148.496 34.2133 147.953 32.1453 146.868 30.664C145.782 29.1827 144.14 28.442 141.94 28.442C140.825 28.442 139.85 28.6327 139.014 29.014C138.192 29.3953 137.503 29.9453 136.946 30.664C136.403 31.3827 135.992 32.27 135.714 33.326C135.45 34.3673 135.318 35.548 135.318 36.868C135.318 39.508 135.86 41.5687 136.946 43.05C138.046 44.5167 139.71 45.25 141.94 45.25ZM159.908 30.18C160.612 28.6547 161.478 27.4667 162.504 26.616C163.531 25.7507 164.785 25.318 166.266 25.318C166.736 25.318 167.183 25.3693 167.608 25.472C168.048 25.5747 168.437 25.736 168.774 25.956L168.488 28.882C168.4 29.2487 168.18 29.432 167.828 29.432C167.623 29.432 167.322 29.388 166.926 29.3C166.53 29.212 166.083 29.168 165.584 29.168C164.88 29.168 164.25 29.2707 163.692 29.476C163.15 29.6813 162.658 29.9893 162.218 30.4C161.793 30.796 161.404 31.2947 161.052 31.896C160.715 32.4827 160.407 33.1573 160.128 33.92V48H156.19V25.714H158.434C158.86 25.714 159.153 25.7947 159.314 25.956C159.476 26.1173 159.586 26.396 159.644 26.792L159.908 30.18ZM174.946 15.594V48H171.03V15.594H174.946ZM194.496 31.016C193.763 30.0333 192.971 29.3513 192.12 28.97C191.269 28.574 190.316 28.376 189.26 28.376C187.192 28.376 185.601 29.1167 184.486 30.598C183.371 32.0793 182.814 34.1913 182.814 36.934C182.814 38.386 182.939 39.6327 183.188 40.674C183.437 41.7007 183.804 42.5513 184.288 43.226C184.772 43.886 185.366 44.37 186.07 44.678C186.774 44.986 187.573 45.14 188.468 45.14C189.759 45.14 190.881 44.8467 191.834 44.26C192.802 43.6733 193.689 42.8447 194.496 41.774V31.016ZM198.412 15.594V48H196.08C195.523 48 195.171 47.7287 195.024 47.186L194.672 44.48C193.719 45.624 192.633 46.548 191.416 47.252C190.199 47.956 188.791 48.308 187.192 48.308C185.916 48.308 184.757 48.066 183.716 47.582C182.675 47.0833 181.787 46.3573 181.054 45.404C180.321 44.4507 179.756 43.2627 179.36 41.84C178.964 40.4173 178.766 38.782 178.766 36.934C178.766 35.2913 178.986 33.766 179.426 32.358C179.866 30.9353 180.497 29.7033 181.318 28.662C182.139 27.6207 183.144 26.8067 184.332 26.22C185.535 25.6187 186.884 25.318 188.38 25.318C189.744 25.318 190.91 25.5527 191.878 26.022C192.861 26.4767 193.733 27.1147 194.496 27.936V15.594H198.412ZM46.6139 70.714V93H42.6979V70.714H46.6139ZM47.4499 63.718C47.4499 64.0993 47.3692 64.4587 47.2079 64.796C47.0612 65.1187 46.8559 65.412 46.5919 65.676C46.3425 65.9253 46.0419 66.1233 45.6899 66.27C45.3525 66.4167 44.9932 66.49 44.6119 66.49C44.2305 66.49 43.8712 66.4167 43.5339 66.27C43.2112 66.1233 42.9252 65.9253 42.6759 65.676C42.4265 65.412 42.2285 65.1187 42.0819 64.796C41.9352 64.4587 41.8619 64.0993 41.8619 63.718C41.8619 63.3367 41.9352 62.9773 42.0819 62.64C42.2285 62.288 42.4265 61.9873 42.6759 61.738C42.9252 61.474 43.2112 61.2687 43.5339 61.122C43.8712 60.9753 44.2305 60.902 44.6119 60.902C44.9932 60.902 45.3525 60.9753 45.6899 61.122C46.0419 61.2687 46.3425 61.474 46.5919 61.738C46.8559 61.9873 47.0612 62.288 47.2079 62.64C47.3692 62.9773 47.4499 63.3367 47.4499 63.718ZM55.4242 73.948C55.9082 73.4053 56.4215 72.914 56.9642 72.474C57.5068 72.034 58.0788 71.66 58.6802 71.352C59.2962 71.0293 59.9415 70.7873 60.6162 70.626C61.3055 70.45 62.0462 70.362 62.8382 70.362C64.0555 70.362 65.1262 70.5673 66.0502 70.978C66.9888 71.374 67.7662 71.946 68.3822 72.694C69.0128 73.4273 69.4895 74.3147 69.8122 75.356C70.1348 76.3973 70.2962 77.5487 70.2962 78.81V93H66.3582V78.81C66.3582 77.1233 65.9695 75.818 65.1922 74.894C64.4295 73.9553 63.2635 73.486 61.6942 73.486C60.5355 73.486 59.4502 73.7647 58.4382 74.322C57.4408 74.8793 56.5168 75.6347 55.6662 76.588V93H51.7282V70.714H54.0822C54.6395 70.714 54.9842 70.9853 55.1162 71.528L55.4242 73.948ZM113.129 77.248C113.129 79.6093 112.755 81.758 112.007 83.694C111.259 85.63 110.203 87.2873 108.839 88.666C107.475 90.0447 105.832 91.1153 103.911 91.878C102.004 92.626 99.8925 93 97.5751 93H85.8051V61.474H97.5751C99.8925 61.474 102.004 61.8553 103.911 62.618C105.832 63.366 107.475 64.4367 108.839 65.83C110.203 67.2087 111.259 68.866 112.007 70.802C112.755 72.738 113.129 74.8867 113.129 77.248ZM108.751 77.248C108.751 75.312 108.487 73.5813 107.959 72.056C107.431 70.5307 106.683 69.24 105.715 68.184C104.747 67.128 103.574 66.3213 102.195 65.764C100.816 65.2067 99.2765 64.928 97.5751 64.928H90.0731V89.546H97.5751C99.2765 89.546 100.816 89.2673 102.195 88.71C103.574 88.1527 104.747 87.3533 105.715 86.312C106.683 85.256 107.431 83.9653 107.959 82.44C108.487 80.9147 108.751 79.184 108.751 77.248ZM128.553 82.968C126.749 83.0267 125.209 83.1733 123.933 83.408C122.672 83.628 121.638 83.9213 120.831 84.288C120.039 84.6547 119.46 85.0873 119.093 85.586C118.741 86.0847 118.565 86.642 118.565 87.258C118.565 87.8447 118.661 88.3507 118.851 88.776C119.042 89.2013 119.299 89.5533 119.621 89.832C119.959 90.096 120.347 90.294 120.787 90.426C121.242 90.5433 121.726 90.602 122.239 90.602C122.929 90.602 123.559 90.536 124.131 90.404C124.703 90.2573 125.239 90.052 125.737 89.788C126.251 89.524 126.735 89.2087 127.189 88.842C127.659 88.4753 128.113 88.0573 128.553 87.588V82.968ZM115.903 73.86C117.135 72.672 118.463 71.7847 119.885 71.198C121.308 70.6113 122.885 70.318 124.615 70.318C125.862 70.318 126.969 70.5233 127.937 70.934C128.905 71.3447 129.719 71.9167 130.379 72.65C131.039 73.3833 131.538 74.2707 131.875 75.312C132.213 76.3533 132.381 77.4973 132.381 78.744V93H130.643C130.262 93 129.969 92.9413 129.763 92.824C129.558 92.692 129.397 92.4427 129.279 92.076L128.839 89.964C128.253 90.5067 127.681 90.9907 127.123 91.416C126.566 91.8267 125.979 92.1787 125.363 92.472C124.747 92.7507 124.087 92.9633 123.383 93.11C122.694 93.2713 121.924 93.352 121.073 93.352C120.208 93.352 119.394 93.2347 118.631 93C117.869 92.7507 117.201 92.384 116.629 91.9C116.072 91.416 115.625 90.8073 115.287 90.074C114.965 89.326 114.803 88.446 114.803 87.434C114.803 86.554 115.045 85.7107 115.529 84.904C116.013 84.0827 116.798 83.3567 117.883 82.726C118.969 82.0953 120.384 81.582 122.129 81.186C123.875 80.7753 126.016 80.5407 128.553 80.482V78.744C128.553 77.0133 128.179 75.708 127.431 74.828C126.683 73.9333 125.591 73.486 124.153 73.486C123.185 73.486 122.371 73.6107 121.711 73.86C121.066 74.0947 120.501 74.366 120.017 74.674C119.548 74.9673 119.137 75.2387 118.785 75.488C118.448 75.7227 118.111 75.84 117.773 75.84C117.509 75.84 117.282 75.774 117.091 75.642C116.901 75.4953 116.739 75.3193 116.607 75.114L115.903 73.86ZM143.568 93.352C141.808 93.352 140.451 92.8607 139.498 91.878C138.559 90.8953 138.09 89.48 138.09 87.632V73.992H135.406C135.171 73.992 134.973 73.926 134.812 73.794C134.65 73.6473 134.57 73.4273 134.57 73.134V71.572L138.222 71.11L139.124 64.224C139.168 64.004 139.263 63.828 139.41 63.696C139.571 63.5493 139.776 63.476 140.026 63.476H142.006V71.154H148.452V73.992H142.006V87.368C142.006 88.3067 142.233 89.0033 142.688 89.458C143.142 89.9127 143.729 90.14 144.448 90.14C144.858 90.14 145.21 90.0887 145.504 89.986C145.812 89.8687 146.076 89.744 146.296 89.612C146.516 89.48 146.699 89.3627 146.846 89.26C147.007 89.1427 147.146 89.084 147.264 89.084C147.469 89.084 147.652 89.2087 147.814 89.458L148.958 91.328C148.283 91.9587 147.469 92.4573 146.516 92.824C145.562 93.176 144.58 93.352 143.568 93.352ZM163.253 82.968C161.449 83.0267 159.909 83.1733 158.633 83.408C157.372 83.628 156.338 83.9213 155.531 84.288C154.739 84.6547 154.16 85.0873 153.793 85.586C153.441 86.0847 153.265 86.642 153.265 87.258C153.265 87.8447 153.36 88.3507 153.551 88.776C153.742 89.2013 153.998 89.5533 154.321 89.832C154.658 90.096 155.047 90.294 155.487 90.426C155.942 90.5433 156.426 90.602 156.939 90.602C157.628 90.602 158.259 90.536 158.831 90.404C159.403 90.2573 159.938 90.052 160.437 89.788C160.95 89.524 161.434 89.2087 161.889 88.842C162.358 88.4753 162.813 88.0573 163.253 87.588V82.968ZM150.603 73.86C151.835 72.672 153.162 71.7847 154.585 71.198C156.008 70.6113 157.584 70.318 159.315 70.318C160.562 70.318 161.669 70.5233 162.637 70.934C163.605 71.3447 164.419 71.9167 165.079 72.65C165.739 73.3833 166.238 74.2707 166.575 75.312C166.912 76.3533 167.081 77.4973 167.081 78.744V93H165.343C164.962 93 164.668 92.9413 164.463 92.824C164.258 92.692 164.096 92.4427 163.979 92.076L163.539 89.964C162.952 90.5067 162.38 90.9907 161.823 91.416C161.266 91.8267 160.679 92.1787 160.063 92.472C159.447 92.7507 158.787 92.9633 158.083 93.11C157.394 93.2713 156.624 93.352 155.773 93.352C154.908 93.352 154.094 93.2347 153.331 93C152.568 92.7507 151.901 92.384 151.329 91.9C150.772 91.416 150.324 90.8073 149.987 90.074C149.664 89.326 149.503 88.446 149.503 87.434C149.503 86.554 149.745 85.7107 150.229 84.904C150.713 84.0827 151.498 83.3567 152.583 82.726C153.668 82.0953 155.084 81.582 156.829 81.186C158.574 80.7753 160.716 80.5407 163.253 80.482V78.744C163.253 77.0133 162.879 75.708 162.131 74.828C161.383 73.9333 160.29 73.486 158.853 73.486C157.885 73.486 157.071 73.6107 156.411 73.86C155.766 74.0947 155.201 74.366 154.717 74.674C154.248 74.9673 153.837 75.2387 153.485 75.488C153.148 75.7227 152.81 75.84 152.473 75.84C152.209 75.84 151.982 75.774 151.791 75.642C151.6 75.4953 151.439 75.3193 151.307 75.114L150.603 73.86Z" fill="white"/>
            <rect y="106.789" width="210" height="13.211" fill="#D42B21"/>
        </g>
        <defs>
            <clipPath id="clip0">
                <rect width="210" height="120" fill="white"/>
            </clipPath>
        </defs>
    </a>
</svg></g><a href="https://mispytest-owid.netlify.com/grapher/maddison-data-gdp-per-capita-in-2011us-single-benchmark" target="_blank"><text font-size="25.20" x="15.0" y="35.2" fill="#555"><tspan x="15" y="35.160000000000004">GDP per capita</tspan></text></a><text font-size="14.40" x="15.0" y="53.7" fill="#666"><tspan x="15" y="53.72">Real GDP per capita is measured using US$, inflation adjusted at prices of 2011. 
A single benchmark in 2011</tspan><tspan x="15" y="69.56">makes these series suitable for studying the growth of incomes over time (but not for comparing income levels</tspan><tspan x="15" y="85.4">between countries over time).</tspan></text></g><g class="LineChart"><defs><clipPath id="boundsClip-52"><rect x="68.968" y="0" width="830" height="901.8"></rect></clipPath></defs><g class="AxisBoxView"><g class="HorizontalAxis"><text x="79" y="556.5" fill="#666" text-anchor="middle" font-size="16.2">1</text><text x="220.6" y="556.5" fill="#666" text-anchor="middle" font-size="16.2">500</text><text x="362.4" y="556.5" fill="#666" text-anchor="middle" font-size="16.2">1000</text><text x="504.3" y="556.5" fill="#666" text-anchor="middle" font-size="16.2">1500</text><text x="650.7" y="556.5" fill="#666" text-anchor="middle" font-size="16.2">2016</text></g><g class="VerticalAxis"><text x="73.97" y="535.3" fill="#666" dominant-baseline="middle" text-anchor="end" font-size="16.2">$0</text><text x="73.97" y="454.2" fill="#666" dominant-baseline="middle" text-anchor="end" font-size="16.2">$10,000</text><text x="73.97" y="373.2" fill="#666" dominant-baseline="middle" text-anchor="end" font-size="16.2">$20,000</text><text x="73.97" y="292.1" fill="#666" dominant-baseline="middle" text-anchor="end" font-size="16.2">$30,000</text><text x="73.97" y="211.1" fill="#666" dominant-baseline="middle" text-anchor="end" font-size="16.2">$40,000</text><text x="73.97" y="130" fill="#666" dominant-baseline="middle" text-anchor="end" font-size="16.2">$50,000</text><text x="15" y="97.60000000000001" style="font-size:12px;text-transform:uppercase;cursor:pointer" class="clickable">linear</text></g><g class="AxisGridLines"><line x1="78.97" y1="535.3" x2="650.69" y2="535.3" stroke="#ccc"></line><line x1="78.97" y1="454.2" x2="650.69" y2="454.2" stroke="#ddd" stroke-dasharray="3,2"></line><line x1="78.97" y1="373.2" x2="650.69" y2="373.2" stroke="#ddd" stroke-dasharray="3,2"></line><line x1="78.97" y1="292.1" x2="650.69" y2="292.1" stroke="#ddd" stroke-dasharray="3,2"></line><line x1="78.97" y1="211.1" x2="650.69" y2="211.1" stroke="#ddd" stroke-dasharray="3,2"></line><line x1="78.97" y1="130" x2="650.69" y2="130" stroke="#ddd" stroke-dasharray="3,2"></line></g></g><g clip-path="url(#boundsClip-52)"><g class="HeightedLegend clickable"><g class="legendMark"><g class="indicator"><line x1="655.69" y1="105.6" x2="668.19" y2="105.6" stroke="#666" stroke-width="0.5"></line><line x1="668.19" y1="105.6" x2="668.19" y2="105.6" stroke="#666" stroke-width="0.5"></line><line x1="668.19" y1="105.6" x2="680.69" y2="105.6" stroke="#666" stroke-width="0.5"></line></g><rect x="650.69" y="98.85" width="169.32500000000002" height="13.5" fill="#fff" opacity="0"></rect><text font-size="13.50" x="685.7" y="109.6" fill="#e6332e"><tspan x="685.69" y="109.64999999999999">$53,015 United States</tspan></text></g><g class="legendMark"><g class="indicator"><line x1="655.69" y1="199.4" x2="668.19" y2="199.4" stroke="#666" stroke-width="0.5"></line><line x1="668.19" y1="199.4" x2="668.19" y2="199.4" stroke="#666" stroke-width="0.5"></line><line x1="668.19" y1="199.4" x2="680.69" y2="199.4" stroke="#666" stroke-width="0.5"></line></g><rect x="650.69" y="192.65" width="130.04000000000002" height="13.5" fill="#fff" opacity="0"></rect><text font-size="13.50" x="685.7" y="203.5" fill="#2a939b"><tspan x="685.69" y="203.45000000000002">$41,445 Austria</tspan></text></g><g class="legendMark"><g class="indicator"><line x1="655.69" y1="232.7" x2="674.8566666666667" y2="232.7" stroke="#666" stroke-width="0.5"></line><line x1="674.8566666666667" y1="232.7" x2="674.8566666666667" y2="232.7" stroke="#666" stroke-width="0.5"></line><line x1="674.8566666666667" y1="232.7" x2="680.69" y2="232.7" stroke="#666" stroke-width="0.5"></line></g><rect x="650.69" y="225.95" width="184.31" height="13.5" fill="#fff" opacity="0"></rect><text font-size="13.50" x="685.7" y="236.8" fill="#a652ba"><tspan x="685.69" y="236.75">$37,334 United Kingdom</tspan></text></g><g class="legendMark"><g class="indicator"><line x1="655.69" y1="234.4" x2="668.19" y2="234.4" stroke="#666" stroke-width="0.5"></line><line x1="668.19" y1="234.4" x2="668.19" y2="248.2" stroke="#666" stroke-width="0.5"></line><line x1="668.19" y1="248.2" x2="680.69" y2="248.2" stroke="#666" stroke-width="0.5"></line></g><rect x="650.69" y="241.45" width="130.04000000000002" height="13.5" fill="#fff" opacity="0"></rect><text font-size="13.50" x="685.7" y="252.3" fill="#f6a324"><tspan x="685.69" y="252.25">$37,124 France</tspan></text></g><g class="legendMark"><g class="indicator"><line x1="655.69" y1="242.7" x2="661.5233333333334" y2="242.7" stroke="#666" stroke-width="0.5"></line><line x1="661.5233333333334" y1="242.7" x2="661.5233333333334" y2="263.7" stroke="#666" stroke-width="0.5"></line><line x1="661.5233333333334" y1="263.7" x2="680.69" y2="263.7" stroke="#666" stroke-width="0.5"></line></g><rect x="650.69" y="256.95" width="163.38500000000002" height="13.5" fill="#fff" opacity="0"></rect><text font-size="13.50" x="685.7" y="267.8" fill="#34983f"><tspan x="685.69" y="267.75">$36,103 South Korea</tspan></text></g><g class="legendMark"><g class="indicator"><line x1="655.69" y1="382.3" x2="668.19" y2="382.3" stroke="#666" stroke-width="0.5"></line><line x1="668.19" y1="382.3" x2="668.19" y2="382.3" stroke="#666" stroke-width="0.5"></line><line x1="668.19" y1="382.3" x2="680.69" y2="382.3" stroke="#666" stroke-width="0.5"></line></g><rect x="650.69" y="375.55" width="145.97000000000003" height="13.5" fill="#fff" opacity="0"></rect><text font-size="13.50" x="685.7" y="386.4" fill="#ca2628"><tspan x="685.69" y="386.35">$18,875 Argentina</tspan></text></g><g class="legendMark"><g class="indicator"><line x1="655.69" y1="446.9" x2="668.19" y2="446.9" stroke="#666" stroke-width="0.5"></line><line x1="668.19" y1="446.9" x2="668.19" y2="446.9" stroke="#666" stroke-width="0.5"></line><line x1="668.19" y1="446.9" x2="680.69" y2="446.9" stroke="#666" stroke-width="0.5"></line></g><rect x="650.69" y="440.15" width="146.78" height="13.5" fill="#fff" opacity="0"></rect><text font-size="13.50" x="685.7" y="450.9" fill="#3360a9"><tspan x="685.69" y="450.95">$10,911 Indonesia</tspan></text></g></g><g class="Lines"><rect x="79" y="106" width="572" height="430" fill="rgba(255,255,255,0)" opacity="0"></rect><g class="key-Austria_0"><path stroke="#2a939b" stroke-linecap="round" d="M595 518L598 516L601 514L604 512L606 510L609 509L610 508L610 508L610 508L610 508L611 508L611 507L611 507L612 506L612 506L612 506L612 505L613 505L613 504L613 504L614 504L614 503L614 502L614 502L615 503L615 501L615 500L616 500L616 500L616 498L616 498L617 497L617 497L617 495L618 495L618 495L618 495L618 494L619 494L619 494L619 492L620 491L620 488L620 489L620 489L621 489L621 488L621 486L622 487L622 495L622 498L622 498L623 499L623 499L623 504L624 501L624 498L624 495L624 495L625 491L625 488L625 487L625 486L626 484L626 483L626 485L627 489L627 494L627 496L627 495L628 494L628 493L628 491L629 485L629 478L629 480L629 476L630 479L630 478L630 477L631 511L631 508L631 505L631 497L632 489L632 483L632 480L633 480L633 477L633 471L633 464L634 460L634 455L634 452L635 450L635 444L635 439L635 438L636 434L636 429L636 427L637 421L637 419L637 414L637 407L638 398L638 392L638 384L639 377L639 372L639 372L639 364L640 356L640 356L640 346L641 342L641 343L641 339L641 333L642 332L642 328L642 323L643 320L643 314L643 305L643 298L644 292L644 290L644 291L644 286L645 279L645 274L645 268L646 259L646 250L646 241L646 238L647 234L647 234L647 227L648 223L648 214L648 203L648 199L649 213L649 207L649 199L650 198L650 200L650 200L650 201L651 199" fill="none" stroke-width="1.5"></path></g><g class="key-Indonesia_0"><path stroke="#3360a9" stroke-linecap="round" d="M594 528L594 528L594 528L595 528L595 528L595 528L595 528L596 528L596 528L596 528L597 528L597 528L597 528L597 528L598 528L598 528L598 528L599 528L599 528L599 528L599 528L600 528L600 528L600 528L601 528L601 527L601 528L601 528L602 528L602 528L602 528L603 529L603 529L603 528L603 529L604 529L604 529L604 529L604 529L605 529L605 529L605 528L606 529L606 528L606 528L606 528L607 528L607 528L607 528L608 529L608 528L608 528L608 528L609 528L609 528L609 528L610 528L610 528L610 528L610 528L611 528L611 528L611 528L612 528L612 528L612 526L612 526L613 526L613 526L613 525L614 525L614 526L614 526L614 526L615 526L615 526L615 526L616 526L616 526L616 525L616 526L617 526L617 526L617 526L618 525L618 525L618 525L618 526L619 525L619 525L619 525L620 525L620 525L620 525L620 525L621 524L621 524L621 524L622 523L622 523L622 523L622 523L623 523L623 523L623 522L624 523L624 523L624 523L624 523L625 522L625 522L625 521L625 521L626 520L626 520L626 520L627 521L627 522L627 522L627 522L628 522L628 522L628 520L629 521L629 521L629 520L629 519L632 525L632 524L632 523L633 523L633 522L633 522L633 522L634 522L634 521L634 522L635 521L635 521L635 520L635 521L636 521L636 521L636 521L637 522L637 522L637 521L637 520L638 519L638 518L638 516L639 514L639 514L639 514L639 513L640 512L640 511L640 510L641 509L641 508L641 509L641 509L642 507L642 507L642 506L643 505L643 504L643 502L643 500L644 497L644 495L644 493L644 490L645 487L645 485L645 483L646 491L646 491L646 489L646 488L647 487L647 485L647 484L648 481L648 479L648 476L648 473L649 470L649 467L649 464L650 460L650 457L650 454L650 450L651 447" fill="none" stroke-width="1.5"></path></g><g class="key-United-States_0"><path stroke="#e6332e" stroke-linecap="round" d="M547 528L567 524L582 520L589 519L590 519L590 519L590 519L591 519L591 519L591 518L591 518L592 519L592 519L592 518L593 518L593 518L593 518L593 518L594 518L594 518L594 518L595 518L595 518L595 518L595 518L596 518L596 518L596 517L597 517L597 517L597 517L597 517L598 517L598 516L598 515L599 514L599 514L599 515L599 514L600 513L600 514L600 514L601 513L601 514L601 515L601 515L602 515L602 514L602 513L603 513L603 513L603 512L603 513L604 512L604 512L604 510L604 509L605 509L605 509L605 509L606 509L606 509L606 508L606 508L607 508L607 507L607 505L608 505L608 506L608 506L608 505L609 505L609 504L609 505L610 504L610 504L610 503L610 504L611 503L611 504L611 503L612 503L612 499L612 496L612 496L613 494L613 494L613 494L614 495L614 495L614 494L614 495L615 493L615 493L615 492L616 489L616 492L616 494L616 490L617 492L617 489L617 489L618 485L618 485L618 480L618 481L619 479L619 481L619 478L620 472L620 473L620 479L620 473L621 474L621 473L621 471L622 470L622 476L622 475L622 468L623 470L623 465L623 465L624 467L624 469L624 467L624 459L625 458L625 458L625 454L625 454L626 454L626 450L626 458L627 464L627 474L627 476L627 472L628 464L628 457L628 451L629 456L629 451L629 444L629 431L630 420L630 411L630 402L631 406L631 418L631 421L631 417L632 421L632 412L632 405L633 402L633 398L633 402L633 395L634 394L634 394L634 398L635 390L635 389L635 388L635 382L636 377L636 370L636 362L637 353L637 350L637 343L637 339L638 341L638 338L638 329L639 320L639 322L639 325L639 316L640 308L640 298L640 293L641 295L641 292L641 299L641 291L642 275L642 268L642 261L643 254L643 245L643 237L643 236L644 240L644 234L644 229L644 221L645 216L645 208L645 197L646 186L646 174L646 163L646 163L647 160L647 153L647 142L648 133L648 126L648 123L648 128L649 143L649 136L649 133L650 127L650 123L650 117L650 109L651 106" fill="none" stroke-width="1.5"></path></g><g class="key-United-Kingdom_0"><path stroke="#a652ba" stroke-linecap="round" d="M362 526L561 516L561 515L562 515L562 517L562 513L562 514L563 518L563 516L563 514L564 517L564 519L564 517L564 517L565 518L565 517L565 517L566 517L566 516L566 515L566 515L567 514L567 515L567 514L568 515L568 515L568 515L568 516L569 516L569 515L569 516L570 515L570 515L570 514L570 514L571 514L571 515L571 514L572 515L572 515L572 515L572 515L573 515L573 514L573 515L574 515L574 515L574 514L574 513L575 514L575 514L575 514L576 514L576 514L576 514L576 514L577 514L577 514L577 513L578 513L578 513L578 512L578 511L579 512L579 512L579 512L580 513L580 512L580 512L580 512L581 511L581 512L581 512L582 512L582 512L582 513L582 512L583 512L583 511L583 512L583 512L584 511L584 511L584 511L585 511L585 511L585 512L585 512L586 512L586 513L586 512L587 511L587 511L587 510L587 511L588 512L588 510L588 510L589 510L589 510L589 510L589 509L590 509L590 509L590 510L591 510L591 509L591 509L591 508L592 510L592 509L592 508L593 508L593 510L593 509L593 510L594 508L594 510L594 509L595 510L595 511L595 509L595 509L596 509L596 509L596 508L597 507L597 509L597 508L597 508L598 508L598 507L598 507L599 507L599 507L599 506L599 505L600 504L600 505L600 504L601 505L601 503L601 504L601 505L602 504L602 502L602 500L603 501L603 502L603 501L603 500L604 501L604 500L604 499L604 498L605 496L605 498L605 496L606 495L606 497L606 495L606 495L607 495L607 497L607 494L608 494L608 493L608 492L608 492L609 491L609 491L609 489L610 489L610 489L610 489L610 489L611 488L611 488L611 488L612 489L612 489L612 488L612 486L613 486L613 486L613 486L614 487L614 486L614 485L614 483L615 481L615 481L615 481L616 483L616 484L616 481L616 480L617 478L617 478L617 476L618 474L618 475L618 476L618 475L619 476L619 476L619 475L620 473L620 473L620 476L620 475L621 474L621 473L621 472L622 470L622 471L622 467L622 466L623 466L623 467L623 475L624 480L624 481L624 477L624 475L625 473L625 470L625 473L625 468L626 467L626 466L626 466L627 470L627 470L627 468L627 464L628 462L628 459L628 457L629 456L629 456L629 448L629 441L630 439L630 437L630 442L631 446L631 450L631 452L631 450L632 447L632 447L632 445L633 446L633 442L633 439L633 436L634 435L634 434L634 434L635 431L635 426L635 423L635 423L636 419L636 414L636 412L637 410L637 408L637 403L637 402L638 399L638 397L638 392L639 383L639 385L639 385L639 382L640 378L640 373L640 369L641 372L641 374L641 371L641 366L642 362L642 356L642 349L643 340L643 331L643 327L643 327L644 330L644 330L644 325L644 318L645 313L645 308L645 301L646 295L646 287L646 279L646 273L647 268L647 260L647 255L648 248L648 243L648 238L648 242L649 257L649 254L649 252L650 250L650 247L650 240L650 236L651 233" fill="none" stroke-width="1.5"></path></g><g class="key-France_0"><path stroke="#f6a324" stroke-linecap="round" d="M79 527L442 524L442 525L442 525L443 525L443 525L443 525L444 525L444 525L444 524L444 524L445 524L445 524L445 524L446 524L446 525L446 525L446 525L447 525L447 524L447 524L448 523L448 523L448 523L448 522L449 522L449 522L449 521L450 521L450 520L450 520L450 520L451 520L451 520L451 521L452 521L452 521L452 521L452 521L453 521L453 521L453 522L454 522L454 522L454 522L454 521L455 521L455 521L455 521L456 521L456 522L456 522L456 522L457 522L457 522L457 521L458 521L458 521L458 521L458 521L459 521L459 521L459 521L460 521L460 521L460 521L460 521L461 521L461 520L461 520L461 520L462 519L462 519L462 520L463 520L463 519L463 519L463 519L464 519L464 519L464 520L465 520L465 520L465 520L465 520L466 520L466 520L466 520L467 520L467 520L467 519L467 519L468 519L468 519L468 520L469 520L469 520L469 520L469 520L470 520L470 520L470 520L471 520L471 520L471 521L471 521L472 521L472 520L472 520L473 520L473 520L473 520L473 520L474 520L474 520L474 520L475 520L475 520L475 520L475 520L476 520L476 520L476 520L477 521L477 521L477 521L477 521L478 521L478 521L478 521L479 521L479 521L479 521L479 521L480 521L480 521L480 521L481 521L481 521L481 521L481 521L482 521L482 521L482 521L482 521L483 521L483 521L483 521L484 521L484 521L484 521L484 521L485 520L485 520L485 520L486 520L486 520L486 520L486 520L487 520L487 520L487 520L488 520L488 520L488 520L488 520L489 520L489 520L489 520L490 520L490 520L490 520L490 520L491 520L491 520L491 520L492 520L492 520L492 520L492 521L493 521L493 521L493 521L494 521L494 521L494 521L494 521L495 521L495 521L495 521L496 521L496 521L496 521L496 520L497 520L497 521L497 521L498 521L498 521L498 521L498 521L499 521L499 521L499 521L500 521L500 521L500 521L500 521L501 521L501 521L501 521L501 521L502 521L502 521L502 521L503 521L503 521L503 521L503 521L504 521L504 521L504 521L505 521L505 521L505 521L505 521L506 521L506 521L506 521L507 521L507 521L507 521L507 521L508 521L508 522L508 522L509 522L509 522L509 522L509 522L510 522L510 522L510 522L511 522L511 522L511 522L511 522L512 522L512 522L512 522L513 522L513 522L513 522L513 522L514 522L514 522L514 522L515 522L515 522L515 522L515 522L516 522L516 522L516 522L517 522L517 522L517 522L517 522L518 522L518 522L518 523L519 523L519 523L519 523L519 523L520 523L520 523L520 523L521 523L521 523L521 523L521 523L522 523L522 523L522 523L522 523L523 523L523 523L523 523L524 523L524 523L524 523L524 523L525 523L525 523L525 522L526 522L526 522L526 522L526 522L527 523L527 523L527 523L528 522L528 523L528 522L528 522L529 522L529 522L529 522L530 522L530 522L530 522L530 522L531 522L531 522L531 522L532 522L532 522L532 522L532 522L533 522L533 522L533 522L534 522L534 522L534 522L534 522L535 522L535 522L535 522L536 522L536 522L536 522L536 522L537 522L537 522L537 522L538 522L538 522L538 522L538 522L539 522L539 522L539 522L540 522L540 522L540 522L540 522L541 522L541 522L541 522L542 522L542 522L542 521L542 521L543 521L543 521L543 521L543 521L544 521L544 521L544 521L545 521L545 521L545 521L545 521L546 521L546 521L546 521L547 521L547 521L547 521L547 521L548 521L548 521L548 521L549 521L549 521L549 521L549 521L550 521L550 521L550 521L551 521L551 521L551 521L551 521L552 521L552 521L552 521L553 521L553 521L553 521L553 521L554 521L554 521L554 521L555 521L555 521L555 521L555 521L556 521L556 521L556 521L557 521L557 521L557 521L557 521L558 521L558 521L558 521L559 521L559 521L559 521L559 521L560 521L560 521L560 521L561 521L561 521L561 521L561 522L562 522L562 522L562 522L562 522L563 522L563 522L563 522L564 522L564 522L564 522L564 521L565 521L565 521L565 521L566 521L566 521L566 521L566 521L567 521L567 521L567 521L568 521L568 521L568 521L568 521L569 521L569 521L569 521L570 521L570 521L570 521L570 521L571 521L571 521L571 521L572 521L572 521L572 521L572 521L573 521L573 521L573 521L574 521L574 521L574 521L574 521L575 521L575 521L575 521L576 521L576 521L576 521L576 521L577 521L577 521L577 522L578 522L578 522L578 522L578 521L579 521L579 521L579 521L580 521L580 521L580 521L580 521L581 521L581 521L581 521L582 521L582 521L582 521L582 521L583 521L583 521L583 521L583 521L584 521L584 521L584 521L585 520L585 520L585 520L585 521L586 520L586 520L586 520L595 520L595 519L596 520L596 519L596 519L597 519L597 519L597 519L597 519L598 519L598 519L598 519L599 518L599 518L599 518L599 518L600 518L600 518L600 517L601 518L601 516L601 516L601 516L602 516L602 515L602 516L603 516L603 514L603 515L603 514L604 514L604 514L604 513L604 514L605 513L605 514L605 513L606 512L606 510L606 512L606 510L607 512L607 510L607 509L608 509L608 510L608 510L608 511L609 509L609 509L609 510L610 510L610 508L610 510L610 507L611 506L611 508L611 507L612 507L612 509L612 507L612 506L613 505L613 505L613 505L614 506L614 506L614 505L614 505L615 504L615 504L615 503L616 502L616 502L616 500L616 501L617 500L617 500L617 499L618 497L618 497L618 498L618 498L619 498L619 497L619 497L620 496L620 494L620 495L620 493L621 496L621 492L621 488L622 489L622 492L622 492L622 489L623 496L623 503L623 498L624 492L624 494L624 487L624 485L625 480L625 480L625 479L625 480L626 476L626 473L626 475L627 479L627 483L627 479L627 479L628 481L628 479L628 476L629 476L629 471L629 481L629 491L630 496L630 497L630 503L631 501L631 484L631 480L631 477L632 469L632 466L632 463L633 461L633 460L633 456L633 453L634 449L634 445L634 444L635 442L635 437L635 432L635 428L636 424L636 418L636 413L637 408L637 403L637 398L637 390L638 383L638 377L638 372L639 364L639 361L639 363L639 356L640 350L640 345L640 340L641 338L641 337L641 334L641 332L642 330L642 328L642 324L643 320L643 311L643 305L643 300L644 299L644 297L644 299L644 295L645 291L645 289L645 284L646 276L646 269L646 260L646 256L647 255L647 254L647 248L648 245L648 240L648 235L648 236L649 246L649 242L649 238L650 239L650 238L650 239L650 237L651 234" fill="none" stroke-width="1.5"></path></g><g class="key-South-Korea_0"><path stroke="#34983f" stroke-linecap="round" d="M595 532L609 532L621 530L621 530L622 530L622 530L622 529L622 529L623 528L623 528L623 527L624 529L624 528L624 529L624 528L625 528L625 528L625 528L625 528L626 528L626 528L626 529L627 529L627 529L627 528L627 528L628 527L628 526L628 526L629 525L629 526L629 525L632 526L632 527L633 526L633 523L633 523L633 522L634 523L634 522L634 522L635 521L635 522L635 521L635 521L636 521L636 520L636 519L637 518L637 517L637 515L637 513L638 511L638 509L638 508L639 504L639 502L639 500L639 496L640 493L640 490L640 487L641 489L641 487L641 484L641 479L642 475L642 472L642 465L643 458L643 450L643 446L643 438L644 429L644 424L644 417L644 408L645 397L645 388L645 380L646 390L646 375L646 362L646 355L647 343L647 338L647 330L648 322L648 312L648 301L648 296L649 296L649 281L649 274L650 270L650 263L650 256L650 249L651 243" fill="none" stroke-width="1.5"></path></g><g class="key-Argentina_0"><path stroke="#ca2628" stroke-linecap="round" d="M589 522L595 521L604 518L606 516L609 514L611 512L611 512L611 510L612 512L612 512L612 513L612 513L613 508L613 505L613 504L614 500L614 502L614 501L614 498L615 497L615 501L615 503L616 497L616 496L616 491L616 487L617 484L617 495L617 493L618 487L618 494L618 494L618 497L619 493L619 490L619 486L620 485L620 486L620 483L620 483L621 481L621 482L621 480L622 481L622 488L622 489L622 491L623 496L623 489L623 488L624 486L624 486L624 484L624 480L625 478L625 480L625 478L625 476L626 474L626 473L626 477L627 483L627 485L627 484L627 481L628 479L628 480L628 477L629 477L629 476L629 476L629 474L630 474L630 476L630 470L631 473L631 469L631 463L631 461L632 463L632 464L632 463L633 468L633 466L633 464L633 461L634 460L634 458L634 454L635 461L635 456L635 452L635 455L636 458L636 451L636 445L637 445L637 444L637 442L637 435L638 431L638 428L638 427L639 422L639 417L639 420L639 422L640 417L640 424L640 418L641 419L641 427L641 432L641 430L642 430L642 438L642 433L643 431L643 435L643 443L643 444L644 436L644 427L644 421L644 416L645 421L645 416L645 408L646 405L646 410L646 413L646 419L647 433L647 425L647 417L648 407L648 399L648 388L648 383L649 394L649 381L649 373L650 376L650 374L650 380L650 377L651 382" fill="none" stroke-width="1.5"></path></g></g></g></g><g class="SourcesFooter" style="fill:#777"><g class="clickable" style="fill:#777"><text font-size="12.60" x="15.0" y="581.6"><tspan x="15" y="581.58">Source: Maddison Project Database (2018)</tspan></text></g><text font-size="12.60" x="796.4" y="581.6"><tspan x="796.444" y="581.58"><a style="fill: #777;" class="cclogo" href="http://creativecommons.org/licenses/by/4.0/deed.en_US" target="_blank">CC BY</a></tspan></text></g></svg>