<svg xmlns="http://www.w3.org/2000/svg" version="1.1" style="font-family:Lato, &#x27;Helvetica Neue&#x27;, Helvetica, Arial, sans-serif;font-size:18px;background-color:white;text-rendering:optimizeLegibility;-webkit-font-smoothing:antialiased" width="850" height="600"><g class="HeaderView"><g transform="translate(774, 15) scale(0.29)"><svg width="210" height="120" viewBox="0 0 210 120" fill="none" xmlns="http://www.w3.org/2000/svg">
    <g clip-path="url(#clip0)">
        <path d="M0 0H210V107.89H0V0Z" fill="#002147"/>
        <path d="M40.9788 32.248C40.9788 34.6093 40.6048 36.78 39.8568 38.76C39.1088 40.7253 38.0528 42.4193 36.6888 43.842C35.3248 45.2647 33.6821 46.372 31.7608 47.164C29.8541 47.9413 27.7421 48.33 25.4248 48.33C23.1074 48.33 20.9954 47.9413 19.0888 47.164C17.1821 46.372 15.5468 45.2647 14.1828 43.842C12.8188 42.4193 11.7628 40.7253 11.0148 38.76C10.2668 36.78 9.89277 34.6093 9.89277 32.248C9.89277 29.8867 10.2668 27.7233 11.0148 25.758C11.7628 23.778 12.8188 22.0767 14.1828 20.654C15.5468 19.2167 17.1821 18.102 19.0888 17.31C20.9954 16.518 23.1074 16.122 25.4248 16.122C27.7421 16.122 29.8541 16.518 31.7608 17.31C33.6821 18.102 35.3248 19.2167 36.6888 20.654C38.0528 22.0767 39.1088 23.778 39.8568 25.758C40.6048 27.7233 40.9788 29.8867 40.9788 32.248ZM36.6008 32.248C36.6008 30.312 36.3368 28.574 35.8088 27.034C35.2808 25.494 34.5328 24.196 33.5648 23.14C32.5968 22.0693 31.4234 21.248 30.0448 20.676C28.6661 20.104 27.1261 19.818 25.4248 19.818C23.7381 19.818 22.2054 20.104 20.8268 20.676C19.4481 21.248 18.2674 22.0693 17.2848 23.14C16.3168 24.196 15.5688 25.494 15.0408 27.034C14.5128 28.574 14.2488 30.312 14.2488 32.248C14.2488 34.184 14.5128 35.922 15.0408 37.462C15.5688 38.9873 16.3168 40.2853 17.2848 41.356C18.2674 42.412 19.4481 43.226 20.8268 43.798C22.2054 44.3553 23.7381 44.634 25.4248 44.634C27.1261 44.634 28.6661 44.3553 30.0448 43.798C31.4234 43.226 32.5968 42.412 33.5648 41.356C34.5328 40.2853 35.2808 38.9873 35.8088 37.462C36.3368 35.922 36.6008 34.184 36.6008 32.248ZM62.8234 25.714V48H60.4914C59.9341 48 59.5821 47.7287 59.4354 47.186L59.1274 44.788C58.1594 45.8587 57.0741 46.724 55.8714 47.384C54.6687 48.0293 53.2901 48.352 51.7354 48.352C50.5181 48.352 49.4401 48.154 48.5014 47.758C47.5774 47.3473 46.8001 46.7753 46.1694 46.042C45.5387 45.3087 45.0621 44.4213 44.7394 43.38C44.4314 42.3387 44.2774 41.1873 44.2774 39.926V25.714H48.1934V39.926C48.1934 41.6127 48.5747 42.918 49.3374 43.842C50.1147 44.766 51.2954 45.228 52.8794 45.228C54.0381 45.228 55.1161 44.9567 56.1134 44.414C57.1254 43.8567 58.0567 43.094 58.9074 42.126V25.714H62.8234ZM71.4305 30.18C72.1346 28.6547 72.9999 27.4667 74.0266 26.616C75.0532 25.7507 76.3072 25.318 77.7886 25.318C78.2579 25.318 78.7052 25.3693 79.1306 25.472C79.5706 25.5747 79.9592 25.736 80.2966 25.956L80.0106 28.882C79.9226 29.2487 79.7026 29.432 79.3506 29.432C79.1452 29.432 78.8446 29.388 78.4486 29.3C78.0526 29.212 77.6052 29.168 77.1066 29.168C76.4026 29.168 75.7719 29.2707 75.2146 29.476C74.6719 29.6813 74.1806 29.9893 73.7406 30.4C73.3152 30.796 72.9266 31.2947 72.5746 31.896C72.2372 32.4827 71.9292 33.1573 71.6506 33.92V48H67.7125V25.714H69.9566C70.3819 25.714 70.6752 25.7947 70.8366 25.956C70.9979 26.1173 71.1079 26.396 71.1666 26.792L71.4305 30.18ZM132.589 16.474L122.755 48H118.927L110.941 23.954C110.867 23.7193 110.794 23.47 110.721 23.206C110.662 22.942 110.596 22.6633 110.523 22.37C110.449 22.6633 110.376 22.942 110.303 23.206C110.23 23.47 110.156 23.7193 110.083 23.954L102.053 48H98.2248L88.3908 16.474H91.9328C92.3142 16.474 92.6295 16.5693 92.8788 16.76C93.1428 16.9507 93.3115 17.1927 93.3848 17.486L99.8968 39.398C99.9995 39.794 100.095 40.2193 100.183 40.674C100.285 41.1287 100.381 41.6127 100.469 42.126C100.571 41.6127 100.674 41.1287 100.777 40.674C100.894 40.2047 101.019 39.7793 101.151 39.398L108.565 17.486C108.653 17.2367 108.821 17.0093 109.071 16.804C109.335 16.584 109.65 16.474 110.017 16.474H111.249C111.63 16.474 111.938 16.5693 112.173 16.76C112.407 16.9507 112.583 17.1927 112.701 17.486L120.093 39.398C120.225 39.7793 120.342 40.19 120.445 40.63C120.562 41.07 120.672 41.532 120.775 42.016C120.848 41.532 120.929 41.07 121.017 40.63C121.105 40.19 121.2 39.7793 121.303 39.398L127.837 17.486C127.91 17.222 128.072 16.9873 128.321 16.782C128.585 16.5767 128.9 16.474 129.267 16.474H132.589ZM141.94 25.362C143.568 25.362 145.034 25.6333 146.34 26.176C147.645 26.7187 148.76 27.4887 149.684 28.486C150.608 29.4833 151.312 30.6933 151.796 32.116C152.294 33.524 152.544 35.1007 152.544 36.846C152.544 38.606 152.294 40.19 151.796 41.598C151.312 43.006 150.608 44.2087 149.684 45.206C148.76 46.2033 147.645 46.9733 146.34 47.516C145.034 48.044 143.568 48.308 141.94 48.308C140.297 48.308 138.816 48.044 137.496 47.516C136.19 46.9733 135.076 46.2033 134.152 45.206C133.228 44.2087 132.516 43.006 132.018 41.598C131.534 40.19 131.292 38.606 131.292 36.846C131.292 35.1007 131.534 33.524 132.018 32.116C132.516 30.6933 133.228 29.4833 134.152 28.486C135.076 27.4887 136.19 26.7187 137.496 26.176C138.816 25.6333 140.297 25.362 141.94 25.362ZM141.94 45.25C144.14 45.25 145.782 44.5167 146.868 43.05C147.953 41.5687 148.496 39.508 148.496 36.868C148.496 34.2133 147.953 32.1453 146.868 30.664C145.782 29.1827 144.14 28.442 141.94 28.442C140.825 28.442 139.85 28.6327 139.014 29.014C138.192 29.3953 137.503 29.9453 136.946 30.664C136.403 31.3827 135.992 32.27 135.714 33.326C135.45 34.3673 135.318 35.548 135.318 36.868C135.318 39.508 135.86 41.5687 136.946 43.05C138.046 44.5167 139.71 45.25 141.94 45.25ZM159.908 30.18C160.612 28.6547 161.478 27.4667 162.504 26.616C163.531 25.7507 164.785 25.318 166.266 25.318C166.736 25.318 167.183 25.3693 167.608 25.472C168.048 25.5747 168.437 25.736 168.774 25.956L168.488 28.882C168.4 29.2487 168.18 29.432 167.828 29.432C167.623 29.432 167.322 29.388 166.926 29.3C166.53 29.212 166.083 29.168 165.584 29.168C164.88 29.168 164.25 29.2707 163.692 29.476C163.15 29.6813 162.658 29.9893 162.218 30.4C161.793 30.796 161.404 31.2947 161.052 31.896C160.715 32.4827 160.407 33.1573 160.128 33.92V48H156.19V25.714H158.434C158.86 25.714 159.153 25.7947 159.314 25.956C159.476 26.1173 159.586 26.396 159.644 26.792L159.908 30.18ZM174.946 15.594V48H171.03V15.594H174.946ZM194.496 31.016C193.763 30.0333 192.971 29.3513 192.12 28.97C191.269 28.574 190.316 28.376 189.26 28.376C187.192 28.376 185.601 29.1167 184.486 30.598C183.371 32.0793 182.814 34.1913 182.814 36.934C182.814 38.386 182.939 39.6327 183.188 40.674C183.437 41.7007 183.804 42.5513 184.288 43.226C184.772 43.886 185.366 44.37 186.07 44.678C186.774 44.986 187.573 45.14 188.468 45.14C189.759 45.14 190.881 44.8467 191.834 44.26C192.802 43.6733 193.689 42.8447 194.496 41.774V31.016ZM198.412 15.594V48H196.08C195.523 48 195.171 47.7287 195.024 47.186L194.672 44.48C193.719 45.624 192.633 46.548 191.416 47.252C190.199 47.956 188.791 48.308 187.192 48.308C185.916 48.308 184.757 48.066 183.716 47.582C182.675 47.0833 181.787 46.3573 181.054 45.404C180.321 44.4507 179.756 43.2627 179.36 41.84C178.964 40.4173 178.766 38.782 178.766 36.934C178.766 35.2913 178.986 33.766 179.426 32.358C179.866 30.9353 180.497 29.7033 181.318 28.662C182.139 27.6207 183.144 26.8067 184.332 26.22C185.535 25.6187 186.884 25.318 188.38 25.318C189.744 25.318 190.91 25.5527 191.878 26.022C192.861 26.4767 193.733 27.1147 194.496 27.936V15.594H198.412ZM46.6139 70.714V93H42.6979V70.714H46.6139ZM47.4499 63.718C47.4499 64.0993 47.3692 64.4587 47.2079 64.796C47.0612 65.1187 46.8559 65.412 46.5919 65.676C46.3425 65.9253 46.0419 66.1233 45.6899 66.27C45.3525 66.4167 44.9932 66.49 44.6119 66.49C44.2305 66.49 43.8712 66.4167 43.5339 66.27C43.2112 66.1233 42.9252 65.9253 42.6759 65.676C42.4265 65.412 42.2285 65.1187 42.0819 64.796C41.9352 64.4587 41.8619 64.0993 41.8619 63.718C41.8619 63.3367 41.9352 62.9773 42.0819 62.64C42.2285 62.288 42.4265 61.9873 42.6759 61.738C42.9252 61.474 43.2112 61.2687 43.5339 61.122C43.8712 60.9753 44.2305 60.902 44.6119 60.902C44.9932 60.902 45.3525 60.9753 45.6899 61.122C46.0419 61.2687 46.3425 61.474 46.5919 61.738C46.8559 61.9873 47.0612 62.288 47.2079 62.64C47.3692 62.9773 47.4499 63.3367 47.4499 63.718ZM55.4242 73.948C55.9082 73.4053 56.4215 72.914 56.9642 72.474C57.5068 72.034 58.0788 71.66 58.6802 71.352C59.2962 71.0293 59.9415 70.7873 60.6162 70.626C61.3055 70.45 62.0462 70.362 62.8382 70.362C64.0555 70.362 65.1262 70.5673 66.0502 70.978C66.9888 71.374 67.7662 71.946 68.3822 72.694C69.0128 73.4273 69.4895 74.3147 69.8122 75.356C70.1348 76.3973 70.2962 77.5487 70.2962 78.81V93H66.3582V78.81C66.3582 77.1233 65.9695 75.818 65.1922 74.894C64.4295 73.9553 63.2635 73.486 61.6942 73.486C60.5355 73.486 59.4502 73.7647 58.4382 74.322C57.4408 74.8793 56.5168 75.6347 55.6662 76.588V93H51.7282V70.714H54.0822C54.6395 70.714 54.9842 70.9853 55.1162 71.528L55.4242 73.948ZM113.129 77.248C113.129 79.6093 112.755 81.758 112.007 83.694C111.259 85.63 110.203 87.2873 108.839 88.666C107.475 90.0447 105.832 91.1153 103.911 91.878C102.004 92.626 99.8925 93 97.5751 93H85.8051V61.474H97.5751C99.8925 61.474 102.004 61.8553 103.911 62.618C105.832 63.366 107.475 64.4367 108.839 65.83C110.203 67.2087 111.259 68.866 112.007 70.802C112.755 72.738 113.129 74.8867 113.129 77.248ZM108.751 77.248C108.751 75.312 108.487 73.5813 107.959 72.056C107.431 70.5307 106.683 69.24 105.715 68.184C104.747 67.128 103.574 66.3213 102.195 65.764C100.816 65.2067 99.2765 64.928 97.5751 64.928H90.0731V89.546H97.5751C99.2765 89.546 100.816 89.2673 102.195 88.71C103.574 88.1527 104.747 87.3533 105.715 86.312C106.683 85.256 107.431 83.9653 107.959 82.44C108.487 80.9147 108.751 79.184 108.751 77.248ZM128.553 82.968C126.749 83.0267 125.209 83.1733 123.933 83.408C122.672 83.628 121.638 83.9213 120.831 84.288C120.039 84.6547 119.46 85.0873 119.093 85.586C118.741 86.0847 118.565 86.642 118.565 87.258C118.565 87.8447 118.661 88.3507 118.851 88.776C119.042 89.2013 119.299 89.5533 119.621 89.832C119.959 90.096 120.347 90.294 120.787 90.426C121.242 90.5433 121.726 90.602 122.239 90.602C122.929 90.602 123.559 90.536 124.131 90.404C124.703 90.2573 125.239 90.052 125.737 89.788C126.251 89.524 126.735 89.2087 127.189 88.842C127.659 88.4753 128.113 88.0573 128.553 87.588V82.968ZM115.903 73.86C117.135 72.672 118.463 71.7847 119.885 71.198C121.308 70.6113 122.885 70.318 124.615 70.318C125.862 70.318 126.969 70.5233 127.937 70.934C128.905 71.3447 129.719 71.9167 130.379 72.65C131.039 73.3833 131.538 74.2707 131.875 75.312C132.213 76.3533 132.381 77.4973 132.381 78.744V93H130.643C130.262 93 129.969 92.9413 129.763 92.824C129.558 92.692 129.397 92.4427 129.279 92.076L128.839 89.964C128.253 90.5067 127.681 90.9907 127.123 91.416C126.566 91.8267 125.979 92.1787 125.363 92.472C124.747 92.7507 124.087 92.9633 123.383 93.11C122.694 93.2713 121.924 93.352 121.073 93.352C120.208 93.352 119.394 93.2347 118.631 93C117.869 92.7507 117.201 92.384 116.629 91.9C116.072 91.416 115.625 90.8073 115.287 90.074C114.965 89.326 114.803 88.446 114.803 87.434C114.803 86.554 115.045 85.7107 115.529 84.904C116.013 84.0827 116.798 83.3567 117.883 82.726C118.969 82.0953 120.384 81.582 122.129 81.186C123.875 80.7753 126.016 80.5407 128.553 80.482V78.744C128.553 77.0133 128.179 75.708 127.431 74.828C126.683 73.9333 125.591 73.486 124.153 73.486C123.185 73.486 122.371 73.6107 121.711 73.86C121.066 74.0947 120.501 74.366 120.017 74.674C119.548 74.9673 119.137 75.2387 118.785 75.488C118.448 75.7227 118.111 75.84 117.773 75.84C117.509 75.84 117.282 75.774 117.091 75.642C116.901 75.4953 116.739 75.3193 116.607 75.114L115.903 73.86ZM143.568 93.352C141.808 93.352 140.451 92.8607 139.498 91.878C138.559 90.8953 138.09 89.48 138.09 87.632V73.992H135.406C135.171 73.992 134.973 73.926 134.812 73.794C134.65 73.6473 134.57 73.4273 134.57 73.134V71.572L138.222 71.11L139.124 64.224C139.168 64.004 139.263 63.828 139.41 63.696C139.571 63.5493 139.776 63.476 140.026 63.476H142.006V71.154H148.452V73.992H142.006V87.368C142.006 88.3067 142.233 89.0033 142.688 89.458C143.142 89.9127 143.729 90.14 144.448 90.14C144.858 90.14 145.21 90.0887 145.504 89.986C145.812 89.8687 146.076 89.744 146.296 89.612C146.516 89.48 146.699 89.3627 146.846 89.26C147.007 89.1427 147.146 89.084 147.264 89.084C147.469 89.084 147.652 89.2087 147.814 89.458L148.958 91.328C148.283 91.9587 147.469 92.4573 146.516 92.824C145.562 93.176 144.58 93.352 143.568 93.352ZM163.253 82.968C161.449 83.0267 159.909 83.1733 158.633 83.408C157.372 83.628 156.338 83.9213 155.531 84.288C154.739 84.6547 154.16 85.0873 153.793 85.586C153.441 86.0847 153.265 86.642 153.265 87.258C153.265 87.8447 153.36 88.3507 153.551 88.776C153.742 89.2013 153.998 89.5533 154.321 89.832C154.658 90.096 155.047 90.294 155.487 90.426C155.942 90.5433 156.426 90.602 156.939 90.602C157.628 90.602 158.259 90.536 158.831 90.404C159.403 90.2573 159.938 90.052 160.437 89.788C160.95 89.524 161.434 89.2087 161.889 88.842C162.358 88.4753 162.813 88.0573 163.253 87.588V82.968ZM150.603 73.86C151.835 72.672 153.162 71.7847 154.585 71.198C156.008 70.6113 157.584 70.318 159.315 70.318C160.562 70.318 161.669 70.5233 162.637 70.934C163.605 71.3447 164.419 71.9167 165.079 72.65C165.739 73.3833 166.238 74.2707 166.575 75.312C166.912 76.3533 167.081 77.4973 167.081 78.744V93H165.343C164.962 93 164.668 92.9413 164.463 92.824C164.258 92.692 164.096 92.4427 163.979 92.076L163.539 89.964C162.952 90.5067 162.38 90.9907 161.823 91.416C161.266 91.8267 160.679 92.1787 160.063 92.472C159.447 92.7507 158.787 92.9633 158.083 93.11C157.394 93.2713 156.624 93.352 155.773 93.352C154.908 93.352 154.094 93.2347 153.331 93C152.568 92.7507 151.901 92.384 151.329 91.9C150.772 91.416 150.324 90.8073 149.987 90.074C149.664 89.326 149.503 88.446 149.503 87.434C149.503 86.554 149.745 85.7107 150.229 84.904C150.713 84.0827 151.498 83.3567 152.583 82.726C153.668 82.0953 155.084 81.582 156.829 81.186C158.574 80.7753 160.716 80.5407 163.253 80.482V78.744C163.253 77.0133 162.879 75.708 162.131 74.828C161.383 73.9333 160.29 73.486 158.853 73.486C157.885 73.486 157.071 73.6107 156.411 73.86C155.766 74.0947 155.201 74.366 154.717 74.674C154.248 74.9673 153.837 75.2387 153.485 75.488C153.148 75.7227 152.81 75.84 152.473 75.84C152.209 75.84 151.982 75.774 151.791 75.642C151.6 75.4953 151.439 75.3193 151.307 75.114L150.603 73.86Z" fill="white"/>
        <rect y="106.789" width="210" height="13.211" fill="#D42B21"/>
    </g>
    <defs>
        <clipPath id="clip0">
            <rect width="210" height="120" fill="white"/>
        </clipPath>
    </defs>
</svg></g><a href="https://staging-owid.netlify.com/grapher/maddison-data-gdp-per-capita-in-2011us-single-benchmark" target="_blank"><text font-size="25.20" x="15.0" y="35.2" fill="#555"><tspan x="15" y="35.160000000000004">GDP per capita</tspan></text></a><text font-size="14.40" x="15.0" y="53.7" fill="#666"><tspan x="15" y="53.72">GDP per capita adjusted for price changes over time (inflation) and price differences between countries – it is</tspan><tspan x="15" y="69.56">measured in international-$ in 2011 prices.</tspan></text></g><g class="LineChart"><defs><clipPath id="boundsClip-1"><rect x="68.968" y="0" width="830" height="878"></rect></clipPath></defs><g class="AxisBoxView"><g class="HorizontalAxis"><text x="79" y="529.1" fill="#666" text-anchor="middle" font-size="16.2">1</text><text x="233.7" y="529.1" fill="#666" text-anchor="middle" font-size="16.2">500</text><text x="388.7" y="529.1" fill="#666" text-anchor="middle" font-size="16.2">1000</text><text x="543.7" y="529.1" fill="#666" text-anchor="middle" font-size="16.2">1500</text><text x="703.6" y="529.1" fill="#666" text-anchor="middle" font-size="16.2">2016</text></g><g class="VerticalAxis"><text x="73.97" y="507.9" fill="#666" dominant-baseline="middle" text-anchor="end" font-size="16.2">$0</text><text x="73.97" y="429.1" fill="#666" dominant-baseline="middle" text-anchor="end" font-size="16.2">$10,000</text><text x="73.97" y="350.3" fill="#666" dominant-baseline="middle" text-anchor="end" font-size="16.2">$20,000</text><text x="73.97" y="271.5" fill="#666" dominant-baseline="middle" text-anchor="end" font-size="16.2">$30,000</text><text x="73.97" y="192.7" fill="#666" dominant-baseline="middle" text-anchor="end" font-size="16.2">$40,000</text><text x="73.97" y="113.9" fill="#666" dominant-baseline="middle" text-anchor="end" font-size="16.2">$50,000</text></g><g class="AxisGridLines"><line x1="78.97" y1="507.9" x2="703.61" y2="507.9" stroke="#ccc"></line><line x1="78.97" y1="429.1" x2="703.61" y2="429.1" stroke="#ddd" stroke-dasharray="3,2"></line><line x1="78.97" y1="350.3" x2="703.61" y2="350.3" stroke="#ddd" stroke-dasharray="3,2"></line><line x1="78.97" y1="271.5" x2="703.61" y2="271.5" stroke="#ddd" stroke-dasharray="3,2"></line><line x1="78.97" y1="192.7" x2="703.61" y2="192.7" stroke="#ddd" stroke-dasharray="3,2"></line><line x1="78.97" y1="113.9" x2="703.61" y2="113.9" stroke="#ddd" stroke-dasharray="3,2"></line></g></g><g clip-path="url(#boundsClip-1)"><g class="HeightedLegend clickable"><g class="legendMark"><g class="indicator"><line x1="708.61" y1="90.1" x2="721.11" y2="90.1" stroke="#666" stroke-width="0.5"></line><line x1="721.11" y1="90.1" x2="721.11" y2="90.1" stroke="#666" stroke-width="0.5"></line><line x1="721.11" y1="90.1" x2="733.61" y2="90.1" stroke="#666" stroke-width="0.5"></line></g><rect x="703.61" y="83.35" width="116.405" height="13.5" fill="#fff" opacity="0"></rect><text font-size="13.50" x="738.6" y="94.1" fill="#e6332e"><tspan x="738.61" y="94.14999999999999">United States</tspan></text></g><g class="legendMark"><g class="indicator"><line x1="708.61" y1="181.3" x2="721.11" y2="181.3" stroke="#666" stroke-width="0.5"></line><line x1="721.11" y1="181.3" x2="721.11" y2="181.3" stroke="#666" stroke-width="0.5"></line><line x1="721.11" y1="181.3" x2="733.61" y2="181.3" stroke="#666" stroke-width="0.5"></line></g><rect x="703.61" y="174.55" width="77.12" height="13.5" fill="#fff" opacity="0"></rect><text font-size="13.50" x="738.6" y="185.4" fill="#2a939b"><tspan x="738.61" y="185.35000000000002">Austria</tspan></text></g><g class="legendMark"><g class="indicator"><line x1="708.61" y1="213.7" x2="727.7766666666666" y2="213.7" stroke="#666" stroke-width="0.5"></line><line x1="727.7766666666666" y1="213.7" x2="727.7766666666666" y2="213.7" stroke="#666" stroke-width="0.5"></line><line x1="727.7766666666666" y1="213.7" x2="733.61" y2="213.7" stroke="#666" stroke-width="0.5"></line></g><rect x="703.61" y="206.95" width="131.39" height="13.5" fill="#fff" opacity="0"></rect><text font-size="13.50" x="738.6" y="217.8" fill="#a652ba"><tspan x="738.61" y="217.75">United Kingdom</tspan></text></g><g class="legendMark"><g class="indicator"><line x1="708.61" y1="215.3" x2="721.11" y2="215.3" stroke="#666" stroke-width="0.5"></line><line x1="721.11" y1="215.3" x2="721.11" y2="229.2" stroke="#666" stroke-width="0.5"></line><line x1="721.11" y1="229.2" x2="733.61" y2="229.2" stroke="#666" stroke-width="0.5"></line></g><rect x="703.61" y="222.45" width="77.12" height="13.5" fill="#fff" opacity="0"></rect><text font-size="13.50" x="738.6" y="233.3" fill="#f6a324"><tspan x="738.61" y="233.25">France</tspan></text></g><g class="legendMark"><g class="indicator"><line x1="708.61" y1="223.4" x2="714.4433333333334" y2="223.4" stroke="#666" stroke-width="0.5"></line><line x1="714.4433333333334" y1="223.4" x2="714.4433333333334" y2="244.7" stroke="#666" stroke-width="0.5"></line><line x1="714.4433333333334" y1="244.7" x2="733.61" y2="244.7" stroke="#666" stroke-width="0.5"></line></g><rect x="703.61" y="237.95" width="110.465" height="13.5" fill="#fff" opacity="0"></rect><text font-size="13.50" x="738.6" y="248.8" fill="#34983f"><tspan x="738.61" y="248.75">South Korea</tspan></text></g><g class="legendMark"><g class="indicator"><line x1="708.61" y1="359.2" x2="721.11" y2="359.2" stroke="#666" stroke-width="0.5"></line><line x1="721.11" y1="359.2" x2="721.11" y2="359.2" stroke="#666" stroke-width="0.5"></line><line x1="721.11" y1="359.2" x2="733.61" y2="359.2" stroke="#666" stroke-width="0.5"></line></g><rect x="703.61" y="352.45" width="93.05000000000001" height="13.5" fill="#fff" opacity="0"></rect><text font-size="13.50" x="738.6" y="363.3" fill="#ca2628"><tspan x="738.61" y="363.25">Argentina</tspan></text></g><g class="legendMark"><g class="indicator"><line x1="708.61" y1="421.9" x2="721.11" y2="421.9" stroke="#666" stroke-width="0.5"></line><line x1="721.11" y1="421.9" x2="721.11" y2="421.9" stroke="#666" stroke-width="0.5"></line><line x1="721.11" y1="421.9" x2="733.61" y2="421.9" stroke="#666" stroke-width="0.5"></line></g><rect x="703.61" y="415.15" width="93.86000000000001" height="13.5" fill="#fff" opacity="0"></rect><text font-size="13.50" x="738.6" y="425.9" fill="#3360a9"><tspan x="738.61" y="425.95">Indonesia</tspan></text></g></g><g class="Lines"><rect x="79" y="90" width="625" height="418" fill="rgba(255,255,255,0)" opacity="0"></rect><g class="key-Austria_0"><path stroke="#2a939b" stroke-linecap="round" d="M643 491L646 489L649 487L652 485L655 484L658 483L659 481L659 481L659 482L660 481L660 481L660 481L661 480L661 479L661 480L662 480L662 479L662 479L662 478L663 477L663 478L663 477L664 475L664 475L664 476L665 475L665 474L665 473L666 473L666 472L666 471L666 471L667 471L667 469L667 469L668 469L668 469L668 468L669 468L669 468L669 466L670 465L670 462L670 463L670 463L671 463L671 462L671 460L672 461L672 469L672 472L673 472L673 473L673 473L674 477L674 475L674 472L675 469L675 469L675 465L675 462L676 461L676 460L676 458L677 457L677 459L677 463L678 468L678 469L678 469L679 468L679 467L679 465L679 459L680 452L680 454L680 450L681 454L681 452L681 451L682 484L682 481L682 478L683 470L683 463L683 457L684 454L684 454L684 451L684 446L685 439L685 434L685 430L686 427L686 425L686 419L687 415L687 413L687 410L688 405L688 402L688 397L688 395L689 390L689 383L689 375L690 369L690 361L690 354L691 349L691 349L691 341L692 334L692 334L692 324L693 320L693 321L693 317L693 311L694 311L694 306L694 302L695 299L695 293L695 284L696 277L696 272L696 269L697 270L697 265L697 259L697 253L698 248L698 239L698 230L699 221L699 219L699 215L700 214L700 208L700 204L701 195L701 185L701 181L701 194L702 189L702 181L702 180L703 182L703 182L703 183L704 181" fill="none" stroke-width="1.5"></path></g><g class="key-Indonesia_0"><path stroke="#3360a9" stroke-linecap="round" d="M641 501L642 500L642 501L642 501L643 501L643 501L643 501L644 501L644 501L644 501L644 501L645 500L645 500L645 501L646 501L646 501L646 501L647 501L647 501L647 500L648 501L648 501L648 500L648 500L649 501L649 500L649 500L650 500L650 500L650 501L651 501L651 501L651 501L652 501L652 501L652 502L653 501L653 502L653 502L653 502L654 501L654 501L654 501L655 501L655 501L655 501L656 501L656 501L656 501L657 501L657 501L657 501L657 501L658 501L658 501L658 501L659 501L659 501L659 501L660 501L660 501L660 501L661 501L661 500L661 500L662 499L662 498L662 499L662 499L663 498L663 498L663 499L664 498L664 499L664 499L665 499L665 499L665 499L666 498L666 498L666 498L666 498L667 498L667 499L667 498L668 498L668 498L668 499L669 498L669 498L669 498L670 498L670 498L670 498L670 498L671 497L671 497L671 497L672 496L672 496L672 496L673 496L673 496L673 496L674 495L674 496L674 496L675 496L675 496L675 495L675 495L676 494L676 494L676 493L677 493L677 493L677 494L678 495L678 495L678 495L679 495L679 495L679 493L679 494L680 494L680 493L680 492L683 498L683 497L684 496L684 496L684 495L684 495L685 495L685 495L685 494L686 495L686 494L686 494L687 493L687 494L687 494L688 494L688 494L688 495L688 495L689 494L689 493L689 492L690 491L690 490L690 487L691 487L691 487L691 486L692 485L692 484L692 484L693 482L693 481L693 482L693 482L694 481L694 481L694 480L695 479L695 478L695 475L696 473L696 471L696 469L697 467L697 464L697 461L697 459L698 457L698 464L698 465L699 463L699 462L699 461L700 459L700 458L700 455L701 453L701 450L701 447L701 445L702 442L702 438L702 435L703 431L703 428L703 425L704 422" fill="none" stroke-width="1.5"></path></g><g class="key-United-States_0"><path stroke="#e6332e" stroke-linecap="round" d="M590 501L612 497L629 493L637 492L637 492L637 492L638 492L638 492L638 492L639 491L639 491L639 492L639 492L640 491L640 491L640 491L641 491L641 491L641 491L642 491L642 491L642 491L643 491L643 492L643 491L644 491L644 491L644 491L644 490L645 490L645 490L645 490L646 491L646 489L646 488L647 487L647 487L647 488L648 487L648 487L648 487L648 488L649 487L649 488L649 488L650 488L650 488L650 487L651 486L651 486L651 486L652 485L652 486L652 486L653 485L653 484L653 482L653 482L654 482L654 482L654 482L655 482L655 482L655 481L656 482L656 481L656 479L657 478L657 480L657 480L657 479L658 478L658 478L658 479L659 478L659 477L659 477L660 478L660 477L660 477L661 477L661 476L661 473L662 470L662 469L662 468L662 468L663 468L663 469L663 468L664 467L664 468L664 467L665 467L665 466L665 463L666 466L666 468L666 464L666 466L667 463L667 462L667 459L668 459L668 454L668 455L669 453L669 455L669 452L670 447L670 447L670 453L670 448L671 448L671 447L671 445L672 444L672 450L672 449L673 442L673 445L673 440L674 440L674 441L674 444L675 441L675 434L675 433L675 432L676 428L676 429L676 429L677 425L677 433L677 438L678 449L678 451L678 446L679 438L679 431L679 426L679 431L680 426L680 419L680 407L681 396L681 387L681 379L682 382L682 394L682 397L683 393L683 397L683 388L684 381L684 378L684 375L684 378L685 371L685 371L685 371L686 374L686 367L686 366L687 365L687 358L687 354L688 347L688 339L688 330L688 328L689 321L689 317L689 319L690 316L690 308L690 298L691 301L691 303L691 295L692 287L692 277L692 272L693 275L693 271L693 278L693 270L694 255L694 248L694 241L695 234L695 225L695 218L696 217L696 221L696 214L697 210L697 202L697 198L697 189L698 179L698 169L698 157L699 146L699 146L699 143L700 136L700 126L700 117L701 110L701 107L701 112L701 126L702 120L702 116L702 111L703 107L703 101L703 93L704 90" fill="none" stroke-width="1.5"></path></g><g class="key-United-Kingdom_0"><path stroke="#a652ba" stroke-linecap="round" d="M389 499L606 489L606 488L606 488L607 490L607 486L607 488L608 491L608 489L608 488L608 490L609 492L609 491L609 491L610 491L610 490L610 490L611 490L611 489L611 488L612 488L612 487L612 488L613 488L613 488L613 488L613 488L614 489L614 489L614 488L615 489L615 488L615 489L616 487L616 487L616 487L617 488L617 487L617 488L617 488L618 488L618 488L618 488L619 487L619 488L619 488L620 488L620 488L620 487L621 487L621 487L621 487L622 488L622 487L622 487L622 487L623 487L623 488L623 486L624 486L624 486L624 485L625 485L625 485L625 485L626 486L626 486L626 486L626 486L627 485L627 484L627 485L628 485L628 486L628 485L629 486L629 486L629 485L630 485L630 485L630 485L631 484L631 484L631 484L631 485L632 485L632 485L632 485L633 486L633 486L633 486L634 484L634 484L634 484L635 484L635 485L635 483L635 483L636 483L636 484L636 483L637 482L637 482L637 482L638 483L638 483L638 482L639 483L639 481L639 483L639 482L640 481L640 482L640 483L641 482L641 483L641 481L642 483L642 483L642 483L643 484L643 482L643 482L644 482L644 482L644 481L644 481L645 483L645 481L645 481L646 481L646 481L646 481L647 480L647 480L647 480L648 478L648 478L648 478L648 477L649 478L649 477L649 478L650 479L650 477L650 475L651 474L651 474L651 475L652 474L652 474L652 474L653 473L653 472L653 471L653 470L654 471L654 469L654 469L655 470L655 469L655 469L656 469L656 471L656 468L657 467L657 467L657 466L657 466L658 464L658 464L658 463L659 463L659 463L659 463L660 463L660 462L660 462L661 462L661 463L661 463L662 462L662 460L662 460L662 460L663 460L663 461L663 460L664 459L664 457L664 455L665 455L665 456L665 457L666 458L666 455L666 454L666 452L667 452L667 450L667 448L668 449L668 450L668 449L669 450L669 450L669 449L670 448L670 447L670 450L670 450L671 448L671 447L671 446L672 444L672 445L672 441L673 441L673 441L673 441L674 449L674 454L674 455L675 451L675 449L675 447L675 445L676 447L676 442L676 442L677 440L677 441L677 445L678 445L678 443L678 439L679 437L679 434L679 431L679 431L680 431L680 423L680 416L681 414L681 413L681 417L682 421L682 425L682 427L683 425L683 422L683 422L684 420L684 421L684 417L684 414L685 411L685 410L685 409L686 410L686 406L686 401L687 399L687 399L687 395L688 390L688 388L688 386L688 384L689 380L689 378L689 375L690 373L690 369L690 360L691 362L691 362L691 359L692 355L692 350L692 346L693 349L693 351L693 348L693 343L694 339L694 333L694 326L695 318L695 310L695 306L696 306L696 308L696 308L697 304L697 296L697 292L697 287L698 280L698 274L698 267L699 259L699 253L699 248L700 240L700 235L700 229L701 224L701 219L701 223L701 237L702 234L702 232L702 231L703 227L703 221L703 217L704 214" fill="none" stroke-width="1.5"></path></g><g class="key-France_0"><path stroke="#f6a324" stroke-linecap="round" d="M79 500L476 497L476 497L476 498L476 498L477 498L477 498L477 498L478 498L478 497L478 497L479 497L479 497L479 497L480 497L480 498L480 498L480 498L481 497L481 497L481 497L482 496L482 496L482 496L483 495L483 495L483 495L484 494L484 494L484 493L484 493L485 493L485 493L485 493L486 494L486 494L486 494L487 494L487 494L487 494L488 494L488 495L488 495L489 495L489 495L489 494L489 494L490 494L490 494L490 494L491 495L491 495L491 495L492 495L492 495L492 494L493 494L493 494L493 494L493 494L494 494L494 494L494 494L495 494L495 494L495 494L496 494L496 494L496 493L497 493L497 493L497 493L498 493L498 493L498 493L498 492L499 492L499 492L499 493L500 493L500 493L500 493L501 493L501 493L501 493L502 493L502 493L502 493L502 493L503 493L503 493L503 492L504 493L504 493L504 493L505 493L505 493L505 493L506 493L506 493L506 493L507 493L507 493L507 493L507 494L508 494L508 494L508 493L509 493L509 493L509 493L510 493L510 493L510 493L511 493L511 493L511 493L511 493L512 493L512 493L512 493L513 493L513 493L513 494L514 494L514 494L514 494L515 494L515 494L515 494L515 494L516 494L516 494L516 494L517 494L517 494L517 494L518 494L518 494L518 494L519 494L519 494L519 494L520 494L520 494L520 494L520 494L521 494L521 494L521 494L522 494L522 494L522 493L523 493L523 493L523 493L524 493L524 493L524 493L524 493L525 493L525 493L525 493L526 493L526 493L526 493L527 493L527 493L527 493L528 493L528 493L528 493L529 493L529 493L529 493L529 493L530 493L530 493L530 493L531 494L531 494L531 494L532 494L532 494L532 494L533 494L533 494L533 494L533 494L534 494L534 494L534 494L535 494L535 493L535 493L536 494L536 494L536 494L537 494L537 494L537 494L538 494L538 494L538 494L538 494L539 494L539 494L539 494L540 494L540 494L540 494L541 494L541 494L541 494L542 494L542 494L542 494L542 494L543 494L543 494L543 494L544 494L544 494L544 494L545 494L545 494L545 494L546 494L546 494L546 494L546 494L547 494L547 494L547 494L548 495L548 495L548 495L549 495L549 495L549 495L550 495L550 495L550 495L551 495L551 495L551 495L551 495L552 495L552 495L552 495L553 495L553 495L553 495L554 495L554 495L554 495L555 495L555 495L555 495L555 495L556 495L556 495L556 495L557 495L557 495L557 495L558 495L558 495L558 495L559 495L559 496L559 496L560 496L560 496L560 496L560 496L561 496L561 496L561 496L562 496L562 496L562 496L563 496L563 496L563 496L564 496L564 496L564 496L564 496L565 496L565 496L565 496L566 496L566 496L566 496L567 495L567 495L567 495L568 495L568 495L568 496L569 496L569 496L569 495L569 496L570 495L570 495L570 495L571 495L571 495L571 495L572 495L572 495L572 495L573 495L573 495L573 495L573 495L574 495L574 495L574 495L575 495L575 495L575 495L576 495L576 495L576 495L577 495L577 495L577 495L577 495L578 495L578 495L578 495L579 495L579 495L579 495L580 495L580 495L580 495L581 495L581 495L581 495L582 495L582 495L582 495L582 495L583 495L583 495L583 495L584 495L584 495L584 495L585 495L585 494L585 494L586 494L586 494L586 494L586 494L587 494L587 494L587 494L588 494L588 494L588 494L589 494L589 494L589 494L590 494L590 494L590 494L591 494L591 494L591 494L591 494L592 494L592 494L592 494L593 494L593 494L593 494L594 494L594 494L594 494L595 494L595 494L595 494L595 494L596 494L596 494L596 494L597 494L597 494L597 494L598 494L598 494L598 494L599 494L599 494L599 494L600 494L600 494L600 494L600 494L601 494L601 494L601 494L602 494L602 494L602 494L603 494L603 494L603 494L604 494L604 494L604 494L604 494L605 494L605 494L605 494L606 494L606 495L606 495L607 495L607 495L607 495L608 495L608 495L608 495L608 495L609 495L609 495L609 494L610 494L610 494L610 494L611 494L611 494L611 494L612 494L612 494L612 494L613 494L613 494L613 494L613 494L614 494L614 494L614 494L615 494L615 494L615 494L616 494L616 494L616 494L617 494L617 494L617 494L617 494L618 494L618 494L618 494L619 494L619 494L619 494L620 494L620 494L620 494L621 494L621 494L621 494L622 494L622 494L622 494L622 494L623 494L623 494L623 495L624 495L624 495L624 495L625 494L625 494L625 494L626 494L626 494L626 494L626 494L627 494L627 494L627 494L628 494L628 494L628 494L629 494L629 494L629 494L630 494L630 494L630 494L631 494L631 494L631 494L631 493L632 493L632 493L632 494L633 493L633 493L633 493L643 493L643 492L644 493L644 492L644 492L644 493L645 492L645 492L645 493L646 492L646 493L646 492L647 491L647 491L647 491L648 491L648 491L648 491L648 490L649 491L649 489L649 489L650 490L650 489L650 488L651 489L651 489L651 487L652 488L652 488L652 487L653 488L653 486L653 487L653 487L654 487L654 486L654 485L655 483L655 485L655 483L656 485L656 483L656 482L657 482L657 483L657 483L657 484L658 482L658 482L658 484L659 483L659 481L659 483L660 480L660 479L660 482L661 480L661 481L661 483L662 480L662 480L662 478L662 478L663 479L663 479L663 479L664 479L664 479L664 478L665 477L665 476L665 476L666 475L666 474L666 475L666 473L667 474L667 472L667 470L668 471L668 471L668 472L669 471L669 471L669 470L670 470L670 468L670 468L670 467L671 470L671 466L671 462L672 463L672 466L672 466L673 463L673 469L673 477L674 472L674 466L674 468L675 461L675 459L675 454L675 454L676 453L676 454L676 450L677 447L677 449L677 453L678 457L678 453L678 454L679 455L679 453L679 450L679 450L680 446L680 456L680 465L681 469L681 471L681 477L682 475L682 458L682 454L683 451L683 444L683 441L684 437L684 436L684 434L684 431L685 428L685 424L685 420L686 419L686 417L686 412L687 408L687 403L687 400L688 394L688 389L688 384L688 380L689 375L689 367L689 360L690 354L690 349L690 342L691 338L691 340L691 333L692 328L692 323L692 318L693 317L693 316L693 312L693 310L694 309L694 307L694 303L695 298L695 290L695 284L696 279L696 278L696 276L697 279L697 274L697 270L697 268L698 264L698 256L698 249L699 240L699 237L699 235L700 234L700 228L700 226L701 221L701 216L701 217L701 227L702 223L702 219L702 220L703 219L703 220L703 218L704 215" fill="none" stroke-width="1.5"></path></g><g class="key-South-Korea_0"><path stroke="#34983f" stroke-linecap="round" d="M643 504L658 504L671 503L671 503L672 503L672 502L672 502L673 502L673 501L673 501L674 500L674 501L674 501L675 501L675 501L675 501L675 501L676 501L676 501L676 501L677 501L677 502L677 502L678 502L678 500L678 500L679 500L679 499L679 498L679 498L680 499L680 498L683 499L684 499L684 499L684 496L684 496L685 495L685 495L685 495L686 495L686 494L686 495L687 494L687 494L687 494L688 493L688 492L688 491L688 490L689 488L689 486L689 484L690 483L690 481L690 477L691 475L691 474L691 470L692 467L692 464L692 461L693 463L693 461L693 458L693 454L694 450L694 446L694 440L695 433L695 425L695 421L696 413L696 405L696 399L697 393L697 384L697 373L697 364L698 357L698 367L698 352L699 339L699 333L699 321L700 316L700 308L700 300L701 291L701 280L701 275L701 275L702 261L702 254L702 250L703 243L703 236L703 230L704 223" fill="none" stroke-width="1.5"></path></g><g class="key-Argentina_0"><path stroke="#ca2628" stroke-linecap="round" d="M637 495L643 494L652 491L655 489L658 488L660 485L660 485L661 483L661 485L661 485L662 486L662 486L662 481L662 479L663 478L663 474L663 475L664 475L664 471L664 471L665 474L665 476L665 471L666 470L666 465L666 461L666 458L667 469L667 467L667 461L668 468L668 468L668 470L669 467L669 464L669 460L670 459L670 460L670 457L670 457L671 455L671 456L671 454L672 455L672 462L672 463L673 465L673 469L673 463L674 462L674 460L674 460L675 458L675 454L675 452L675 454L676 453L676 450L676 449L677 447L677 451L677 457L678 459L678 458L678 455L679 453L679 454L679 451L679 452L680 451L680 450L680 448L681 449L681 450L681 445L682 448L682 443L682 437L683 435L683 438L683 439L684 438L684 443L684 440L684 439L685 435L685 435L685 432L686 429L686 435L686 431L687 427L687 429L687 432L688 426L688 420L688 420L688 419L689 417L689 411L689 407L690 404L690 402L690 398L691 393L691 396L691 398L692 393L692 400L692 394L693 394L693 403L693 408L693 406L694 405L694 413L694 408L695 407L695 410L695 418L696 419L696 411L696 402L697 397L697 392L697 397L697 392L698 384L698 381L698 387L699 389L699 395L699 409L700 401L700 392L700 384L701 375L701 364L701 360L701 370L702 358L702 350L702 353L703 351L703 357L703 354L704 359" fill="none" stroke-width="1.5"></path></g></g></g></g><g class="SourcesFooter" style="fill:#777"><g class="clickable" style="fill:#777"><text font-size="12.60" x="15.0" y="554.2"><tspan x="15" y="554.1800000000001">Source: Maddison Project Database (2018)</tspan></text></g><text font-size="12.60" x="15.0" y="568.8"><tspan x="15" y="568.7800000000001">Note: These series are adjusted for price differences between countries based on only a single benchmark year, in 2011. This makes them</tspan><tspan x="15" y="582.6400000000001">suitable for studying the growth of incomes over time but not for comparing income levels between countries.</tspan></text><text font-size="12.60" x="796.4" y="554.2"><tspan x="796.444" y="554.1800000000001"><a style="fill: #777;" class="cclogo" href="http://creativecommons.org/licenses/by/4.0/deed.en_US" target="_blank">CC BY</a></tspan></text></g></svg>