<svg xmlns="http://www.w3.org/2000/svg" version="1.1" style="font-family:&#x27;Helvetica Neue&#x27;, Helvetica, Arial, sans-serif;font-size:18px;background-color:white;text-rendering:optimizeLegibility;-webkit-font-smoothing:antialiased" width="850" height="600"><g class="ChartTab"><g class="HeaderView"><g opacity="0.8" transform="translate(778, 15) scale(0.27)"><a xmlns:xlink="http://www.w3.org/1999/xlink" xlink:href="https://ourworldindata.org" target="_blank"><g><rect x="0" y="0" fill="#1B2543" width="211.2" height="130.1"/><rect x="0" y="112.2" fill="#E63912" width="211.2" height="17.9"/><g><rect x="1.2" y="12.3" fill="none" width="210.2" height="99.2"/><path fill="#FFFFFF" d="M37.8,32.2c0,12.7-7.7,19.4-17.1,19.4c-9.7,0-16.6-7.5-16.6-18.7c0-11.7,7.3-19.3,17.1-19.3 C31.3,13.7,37.8,21.3,37.8,32.2z M9.2,32.8c0,7.9,4.3,14.9,11.8,14.9c7.5,0,11.8-6.9,11.8-15.3c0-7.3-3.8-14.9-11.8-14.9 C13.1,17.5,9.2,24.8,9.2,32.8z"/><path fill="#FFFFFF" d="M62.7,43.8c0,2.7,0.1,5.1,0.2,7.2h-4.3l-0.3-4.3h-0.1c-1.3,2.1-4,4.9-8.8,4.9c-4.2,0-9.1-2.3-9.1-11.6 V24.6h4.8v14.6c0,5,1.5,8.4,5.9,8.4c3.2,0,5.5-2.2,6.3-4.4c0.3-0.7,0.4-1.6,0.4-2.5V24.6h4.8V43.8z"/><path fill="#FFFFFF" d="M67.3,32.8c0-3.1-0.1-5.8-0.2-8.2h4.2l0.2,5.2h0.2c1.2-3.5,4.1-5.8,7.3-5.8c0.5,0,0.9,0.1,1.4,0.2v4.5 c-0.5-0.1-1-0.2-1.6-0.2c-3.4,0-5.8,2.6-6.5,6.2c-0.1,0.7-0.2,1.4-0.2,2.2V51h-4.8V32.8z"/><path fill="#FFFFFF" d="M95.4,51l-9.4-36.8h5l4.4,18.6c1.1,4.6,2.1,9.2,2.7,12.7h0.1c0.6-3.7,1.8-8,3-12.8l4.9-18.5h5l4.5,18.7 c1,4.4,2,8.7,2.6,12.6h0.1c0.8-4,1.8-8.1,3-12.7l4.9-18.5h4.9L120.6,51h-5L111,31.9c-1.1-4.7-1.9-8.3-2.4-12h-0.1 c-0.7,3.7-1.5,7.3-2.8,12L100.4,51H95.4z"/><path fill="#FFFFFF" d="M154.9,37.6c0,9.8-6.8,14-13.2,14c-7.2,0-12.7-5.2-12.7-13.6c0-8.8,5.8-14,13.1-14 C149.8,24,154.9,29.5,154.9,37.6z M133.9,37.9c0,5.8,3.3,10.1,8,10.1c4.6,0,8-4.3,8-10.3c0-4.5-2.2-10.1-7.9-10.1 C136.3,27.6,133.9,32.8,133.9,37.9z"/><path fill="#FFFFFF" d="M158.2,32.8c0-3.1-0.1-5.8-0.2-8.2h4.2l0.2,5.2h0.2c1.2-3.5,4.1-5.8,7.3-5.8c0.5,0,0.9,0.1,1.4,0.2v4.5 c-0.5-0.1-1-0.2-1.6-0.2c-3.4,0-5.8,2.6-6.5,6.2c-0.1,0.7-0.2,1.4-0.2,2.2V51h-4.8V32.8z"/><path fill="#FFFFFF" d="M173.5,12.3h4.8V51h-4.8V12.3z"/><path fill="#FFFFFF" d="M206.5,12.3v31.9c0,2.3,0.1,5,0.2,6.8h-4.3l-0.2-4.6H202c-1.5,2.9-4.7,5.2-9,5.2 c-6.4,0-11.3-5.4-11.3-13.4c-0.1-8.8,5.4-14.2,11.9-14.2c4,0,6.8,1.9,8,4h0.1V12.3H206.5z M201.7,35.4c0-0.6-0.1-1.4-0.2-2 c-0.7-3.1-3.3-5.6-6.9-5.6c-5,0-7.9,4.4-7.9,10.2c0,5.3,2.6,9.8,7.8,9.8c3.2,0,6.2-2.1,7.1-5.7c0.2-0.7,0.2-1.3,0.2-2.1V35.4z"/><path fill="#FFFFFF" d="M42.8,64c0.1,1.6-1.1,2.9-3.1,2.9c-1.7,0-2.9-1.3-2.9-2.9c0-1.7,1.3-3,3-3C41.7,61,42.8,62.3,42.8,64z M37.4,97.8V71.4h4.8v26.4H37.4z"/><path fill="#FFFFFF" d="M47.5,78.6c0-2.7-0.1-5-0.2-7.1h4.3l0.3,4.4h0.1c1.3-2.5,4.4-5,8.8-5c3.7,0,9.4,2.2,9.4,11.2v15.8h-4.8 V82.6c0-4.3-1.6-7.8-6.1-7.8c-3.2,0-5.6,2.2-6.5,4.9c-0.2,0.6-0.3,1.4-0.3,2.2v15.9h-4.8V78.6z"/><path fill="#FFFFFF" d="M84,61.6c2.9-0.4,6.3-0.8,10.1-0.8c6.8,0,11.7,1.6,14.9,4.6c3.3,3,5.2,7.3,5.2,13.2c0,6-1.9,10.9-5.3,14.3 c-3.4,3.4-9.1,5.3-16.3,5.3c-3.4,0-6.2-0.2-8.6-0.4V61.6z M88.8,94.1c1.2,0.2,3,0.3,4.8,0.3c10.2,0,15.7-5.7,15.7-15.6 c0.1-8.7-4.9-14.2-14.9-14.2c-2.5,0-4.3,0.2-5.6,0.5V94.1z"/><path fill="#FFFFFF" d="M132.1,97.8l-0.4-3.3h-0.2c-1.5,2.1-4.3,3.9-8.1,3.9c-5.4,0-8.1-3.8-8.1-7.6c0-6.4,5.7-9.9,15.9-9.8v-0.5 c0-2.2-0.6-6.1-6-6.1c-2.5,0-5,0.8-6.9,2l-1.1-3.2c2.2-1.4,5.4-2.3,8.7-2.3c8.1,0,10.1,5.5,10.1,10.8v9.9c0,2.3,0.1,4.5,0.4,6.3 H132.1z M131.4,84.4c-5.3-0.1-11.2,0.8-11.2,5.9c0,3.1,2.1,4.6,4.5,4.6c3.4,0,5.6-2.2,6.4-4.4c0.2-0.5,0.3-1,0.3-1.5V84.4z"/><path fill="#FFFFFF" d="M146.6,63.9v7.6h6.9v3.7h-6.9v14.2c0,3.3,0.9,5.1,3.6,5.1c1.3,0,2.2-0.2,2.8-0.3l0.2,3.6 c-0.9,0.4-2.4,0.7-4.3,0.7c-2.2,0-4-0.7-5.2-2c-1.4-1.4-1.9-3.8-1.9-6.9V75.1h-4.1v-3.7h4.1v-6.3L146.6,63.9z"/><path fill="#FFFFFF" d="M171.4,97.8l-0.4-3.3h-0.2c-1.5,2.1-4.3,3.9-8.1,3.9c-5.4,0-8.1-3.8-8.1-7.6c0-6.4,5.7-9.9,15.9-9.8v-0.5 c0-2.2-0.6-6.1-6-6.1c-2.5,0-5,0.8-6.9,2l-1.1-3.2c2.2-1.4,5.4-2.3,8.7-2.3c8.1,0,10.1,5.5,10.1,10.8v9.9c0,2.3,0.1,4.5,0.4,6.3 H171.4z M170.7,84.4c-5.3-0.1-11.2,0.8-11.2,5.9c0,3.1,2.1,4.6,4.5,4.6c3.4,0,5.6-2.2,6.4-4.4c0.2-0.5,0.3-1,0.3-1.5V84.4z"/></g></g></a></g><a href="https://ourworldindata.org/grapher/per-capita-mismanaged-plastic-waste-vs-gdp-per-capita" target="_blank"><text font-size="25.20" x="15.0" y="35.2" fill="#555"><tspan x="15" y="35.160000000000004">Per capita mismanaged plastic waste vs. GDP per capita</tspan></text></a><text font-size="14.40" x="15.0" y="53.7" fill="#666"><tspan x="15" y="53.72">Daily per capita plastic waste which is mismanaged, measured in kilograms per person per day versus gross</tspan><tspan x="15" y="69.56">domestic product (GDP) per capita, measured in 2011 international-$. Mismanaged waste is that which is littered or</tspan><tspan x="15" y="85.4">inadequately managed. Inadequately managed waste is that which is not formally managed and includes disposal in</tspan><tspan x="15" y="101.24000000000001">dumps or uncontrolled/open landfills.</tspan></text></g><g><g class="AxisBoxView"><g class="HorizontalAxis"><text font-size="12.60" x="218.3" y="554.0"><tspan x="218.336" y="553.98">GDP per capita, PPP (constant 2011 international $)</tspan></text><text x="145.1" y="533.9" fill="#666" text-anchor="middle" font-size="16.2">$1,000</text><text x="416.8" y="533.9" fill="#666" text-anchor="middle" font-size="16.2">$10,000</text><text x="688.5" y="533.9" fill="#666" text-anchor="middle" font-size="16.2">$100,000</text><text x="715" y="551.5" style="font-size:12px;text-transform:uppercase;cursor:pointer" class="clickable"><tspan style="font-family:FontAwesome"></tspan> log</text></g><g class="VerticalAxis"><text font-size="12.60" x="-444.1" y="25.1" transform="rotate(-90)"><tspan x="-444.12799999999993" y="25.080000000000002">Per capita mismanaged plastic waste</tspan></text><text x="91.06" y="512.7" fill="#666" dominant-baseline="middle" text-anchor="end" font-size="16.2">0 kg</text><text x="91.06" y="447.5" fill="#666" dominant-baseline="middle" text-anchor="end" font-size="16.2">0.05 kg</text><text x="91.06" y="382.4" fill="#666" dominant-baseline="middle" text-anchor="end" font-size="16.2">0.1 kg</text><text x="91.06" y="317.2" fill="#666" dominant-baseline="middle" text-anchor="end" font-size="16.2">0.15 kg</text><text x="91.06" y="252.1" fill="#666" dominant-baseline="middle" text-anchor="end" font-size="16.2">0.2 kg</text><text x="91.06" y="186.9" fill="#666" dominant-baseline="middle" text-anchor="end" font-size="16.2">0.25 kg</text></g><g class="AxisGridLines"><line x1="96.06" y1="512.7" x2="715.00" y2="512.7" stroke="#ccc"></line><line x1="96.06" y1="447.5" x2="715.00" y2="447.5" stroke="#ddd" stroke-dasharray="3,2"></line><line x1="96.06" y1="382.4" x2="715.00" y2="382.4" stroke="#ddd" stroke-dasharray="3,2"></line><line x1="96.06" y1="317.2" x2="715.00" y2="317.2" stroke="#ddd" stroke-dasharray="3,2"></line><line x1="96.06" y1="252.1" x2="715.00" y2="252.1" stroke="#ddd" stroke-dasharray="3,2"></line><line x1="96.06" y1="186.9" x2="715.00" y2="186.9" stroke="#ddd" stroke-dasharray="3,2"></line></g><g class="AxisGridLines"><line x1="145.1" y1="512.70" x2="145.1" y2="123.10" stroke="#ddd" stroke-dasharray="3,2"></line><line x1="416.8" y1="512.70" x2="416.8" y2="123.10" stroke="#ddd" stroke-dasharray="3,2"></line><line x1="688.5" y1="512.70" x2="688.5" y2="123.10" stroke="#ddd" stroke-dasharray="3,2"></line></g></g><g class="PointsWithLabels clickable" clip-path="url(#scatterBounds-588)" font-family="Arial Narrow, Arial, sans-serif"><rect x="96.06" y="123.1" width="618.94" height="389.59999999999997" fill="rgba(255,255,255,0)"></rect><defs><clipPath id="scatterBounds-588"><rect x="86.06" y="113.1" width="638.94" height="409.59999999999997"></rect></clipPath></defs><g class="key-China_0"><circle cx="411.00" cy="392.00" r="17.84" fill="#d14e5b" opacity="0.8" stroke="#333" stroke-width="0.7"></circle></g><g class="key-India_0"><circle cx="320.00" cy="501.00" r="17.06" fill="#d14e5b" opacity="0.8" stroke="#333" stroke-width="0.7"></circle></g><g class="key-United-States_0"><circle cx="605.00" cy="503.00" r="8.72" fill="#4d824b" opacity="0.8" stroke="#333" stroke-width="0.7"></circle></g><g class="key-Indonesia_0"><circle cx="396.00" cy="451.00" r="7.72" fill="#d14e5b" opacity="0.8" stroke="#333" stroke-width="0.7"></circle></g><g class="key-Brazil_0"><circle cx="461.00" cy="490.00" r="7.00" fill="#69c487" opacity="0.8" stroke="#333" stroke-width="0.7"></circle></g><g class="key-Pakistan_0"><circle cx="316.00" cy="395.00" r="6.63" fill="#d14e5b" opacity="0.8" stroke="#333" stroke-width="0.7"></circle></g><g class="key-Nigeria_0"><circle cx="338.00" cy="401.00" r="6.36" fill="#5675c1" opacity="0.8" stroke="#fff" stroke-width="0.7"></circle></g><g class="key-Bangladesh_0"><circle cx="250.00" cy="473.00" r="6.17" fill="#d14e5b" opacity="0.8" stroke="#333" stroke-width="0.7"></circle></g><g class="key-Russia_0"><circle cx="515.00" cy="486.00" r="6.06" fill="#ffd336" opacity="0.8" stroke="#333" stroke-width="0.7"></circle></g><g class="key-Japan_0"><circle cx="567.00" cy="508.00" r="5.74" fill="#d14e5b" opacity="0.8" stroke="#333" stroke-width="0.7"></circle></g><g class="key-Mexico_0"><circle cx="470.00" cy="497.00" r="5.46" fill="#4d824b" opacity="0.8" stroke="#fff" stroke-width="0.7"></circle></g><g class="key-Philippines_0"><circle cx="348.00" cy="431.00" r="5.01" fill="#d14e5b" opacity="0.8" stroke="#333" stroke-width="0.7"></circle></g><g class="key-Vietnam_0"><circle cx="320.00" cy="395.00" r="4.88" fill="#d14e5b" opacity="0.8" stroke="#fff" stroke-width="0.7"></circle></g><g class="key-Germany_0"><circle cx="581.00" cy="499.00" r="4.75" fill="#ffd336" opacity="0.8" stroke="#fff" stroke-width="0.7"></circle></g><g class="key-Egypt_0"><circle cx="415.00" cy="353.00" r="4.72" fill="#5675c1" opacity="0.8" stroke="#333" stroke-width="0.7"></circle></g><g class="key-Iran_0"><circle cx="485.00" cy="416.00" r="4.53" fill="#d14e5b" opacity="0.8" stroke="#333" stroke-width="0.7"></circle></g><g class="key-Turkey_0"><circle cx="485.00" cy="461.00" r="4.50" fill="#d14e5b" opacity="0.8" stroke="#333" stroke-width="0.7"></circle></g><g class="key-Thailand_0"><circle cx="452.00" cy="372.00" r="4.41" fill="#d14e5b" opacity="0.8" stroke="#333" stroke-width="0.7"></circle></g><g class="key-Democratic-Republic-of-Congo_0"><circle cx="96.00" cy="461.00" r="4.32" fill="#5675c1" opacity="0.8" stroke="#333" stroke-width="0.7"></circle></g><g class="key-France_0"><circle cx="570.00" cy="507.00" r="4.23" fill="#ffd336" opacity="0.8" stroke="#fff" stroke-width="0.7"></circle></g><g class="key-United-Kingdom_0"><circle cx="569.00" cy="507.00" r="4.21" fill="#ffd336" opacity="0.8" stroke="#fff" stroke-width="0.7"></circle></g><g class="key-Italy_0"><circle cx="568.00" cy="508.00" r="4.17" fill="#ffd336" opacity="0.8" stroke="#fff" stroke-width="0.7"></circle></g><g class="key-South-Africa_0"><circle cx="437.00" cy="338.00" r="3.87" fill="#5675c1" opacity="0.8" stroke="#333" stroke-width="0.7"></circle></g><g class="key-South-Korea_0"><circle cx="547.00" cy="511.00" r="3.81" fill="#d14e5b" opacity="0.8" stroke="#fff" stroke-width="0.7"></circle></g><g class="key-Myanmar_0"><circle cx="300.00" cy="426.00" r="3.80" fill="#d14e5b" opacity="0.8" stroke="#333" stroke-width="0.7"></circle></g><g class="key-Colombia_0"><circle cx="427.00" cy="468.00" r="3.75" fill="#69c487" opacity="0.8" stroke="#333" stroke-width="0.7"></circle></g><g class="key-Spain_0"><circle cx="555.00" cy="504.00" r="3.74" fill="#ffd336" opacity="0.8" stroke="#fff" stroke-width="0.7"></circle></g><g class="key-Ukraine_0"><circle cx="387.00" cy="444.00" r="3.72" fill="#ffd336" opacity="0.8" stroke="#fff" stroke-width="0.7"></circle></g><g class="key-Tanzania_0"><circle cx="232.00" cy="486.00" r="3.70" fill="#5675c1" opacity="0.8" stroke="#333" stroke-width="0.7"></circle></g><g class="key-Kenya_0"><circle cx="252.00" cy="482.00" r="3.56" fill="#5675c1" opacity="0.8" stroke="#fff" stroke-width="0.7"></circle></g><g class="key-Argentina_0"><circle cx="490.00" cy="478.00" r="3.56" fill="#69c487" opacity="0.8" stroke="#fff" stroke-width="0.7"></circle></g><g class="key-Poland_0"><circle cx="508.00" cy="495.00" r="3.49" fill="#ffd336" opacity="0.8" stroke="#333" stroke-width="0.7"></circle></g><g class="key-Algeria_0"><circle cx="446.00" cy="400.00" r="3.39" fill="#5675c1" opacity="0.8" stroke="#333" stroke-width="0.7"></circle></g><g class="key-Sudan_0"><circle cx="288.00" cy="404.00" r="3.35" fill="#5675c1" opacity="0.8" stroke="#333" stroke-width="0.7"></circle></g><g class="key-Canada_0"><circle cx="582.00" cy="510.00" r="3.34" fill="#4d824b" opacity="0.8" stroke="#fff" stroke-width="0.7"></circle></g><g class="key-Morocco_0"><circle cx="364.00" cy="448.00" r="3.27" fill="#5675c1" opacity="0.8" stroke="#fff" stroke-width="0.7"></circle></g><g class="key-Iraq_0"><circle cx="445.00" cy="425.00" r="3.26" fill="#d14e5b" opacity="0.8" stroke="#333" stroke-width="0.7"></circle></g><g class="key-Peru_0"><circle cx="416.00" cy="461.00" r="3.16" fill="#69c487" opacity="0.8" stroke="#fff" stroke-width="0.7"></circle></g><g class="key-Venezuela_0"><circle cx="476.00" cy="490.00" r="3.16" fill="#69c487" opacity="0.8" stroke="#fff" stroke-width="0.7"></circle></g><g class="key-Malaysia_0"><circle cx="505.00" cy="366.00" r="3.14" fill="#d14e5b" opacity="0.8" stroke="#333" stroke-width="0.7"></circle></g><g class="key-Saudi-Arabia_0"><circle cx="595.00" cy="491.00" r="3.10" fill="#d14e5b" opacity="0.8" stroke="#fff" stroke-width="0.7"></circle></g><g class="key-Ghana_0"><circle cx="277.00" cy="471.00" r="2.99" fill="#5675c1" opacity="0.8" stroke="#fff" stroke-width="0.7"></circle></g><g class="key-Mozambique_0"><circle cx="134.00" cy="495.00" r="2.95" fill="#5675c1" opacity="0.8" stroke="#333" stroke-width="0.7"></circle></g><g class="key-Australia_0"><circle cx="584.00" cy="510.00" r="2.90" fill="#a652ba" opacity="0.8" stroke="#fff" stroke-width="0.7"></circle></g><g class="key-Romania_0"><circle cx="483.00" cy="498.00" r="2.87" fill="#ffd336" opacity="0.8" stroke="#fff" stroke-width="0.7"></circle></g><g class="key-Sri-Lanka_0"><circle cx="398.00" cy="123.00" r="2.84" fill="#d14e5b" opacity="0.8" stroke="#333" stroke-width="0.7"></circle></g><g class="key-Madagascar_0"><circle cx="183.00" cy="495.00" r="2.84" fill="#5675c1" opacity="0.8" stroke="#fff" stroke-width="0.7"></circle></g><g class="key-Cote-d__0027Ivoire_0"><circle cx="261.00" cy="400.00" r="2.80" fill="#5675c1" opacity="0.8" stroke="#fff" stroke-width="0.7"></circle></g><g class="key-Cameroon_0"><circle cx="271.00" cy="463.00" r="2.79" fill="#5675c1" opacity="0.8" stroke="#fff" stroke-width="0.7"></circle></g><g class="key-Angola_0"><circle cx="354.00" cy="454.00" r="2.77" fill="#5675c1" opacity="0.8" stroke="#333" stroke-width="0.7"></circle></g><g class="key-Chile_0"><circle cx="495.00" cy="498.00" r="2.68" fill="#69c487" opacity="0.8" stroke="#fff" stroke-width="0.7"></circle></g><g class="key-Netherlands_0"><circle cx="595.00" cy="502.00" r="2.66" fill="#ffd336" opacity="0.8" stroke="#fff" stroke-width="0.7"></circle></g><g class="key-Ecuador_0"><circle cx="408.00" cy="451.00" r="2.56" fill="#69c487" opacity="0.8" stroke="#fff" stroke-width="0.7"></circle></g><g class="key-Guatemala_0"><circle cx="369.00" cy="375.00" r="2.56" fill="#4d824b" opacity="0.8" stroke="#fff" stroke-width="0.7"></circle></g><g class="key-Cambodia_0"><circle cx="254.00" cy="437.00" r="2.55" fill="#d14e5b" opacity="0.8" stroke="#333" stroke-width="0.7"></circle></g><g class="key-Senegal_0"><circle cx="237.00" cy="400.00" r="2.47" fill="#5675c1" opacity="0.8" stroke="#333" stroke-width="0.7"></circle></g><g class="key-Greece_0"><circle cx="541.00" cy="507.00" r="2.42" fill="#ffd336" opacity="0.8" stroke="#fff" stroke-width="0.7"></circle></g><g class="key-Belgium_0"><circle cx="583.00" cy="510.00" r="2.39" fill="#ffd336" opacity="0.8" stroke="#fff" stroke-width="0.7"></circle></g><g class="key-Portugal_0"><circle cx="535.00" cy="506.00" r="2.39" fill="#ffd336" opacity="0.8" stroke="#fff" stroke-width="0.7"></circle></g><g class="key-Tunisia_0"><circle cx="421.00" cy="398.00" r="2.38" fill="#5675c1" opacity="0.8" stroke="#fff" stroke-width="0.7"></circle></g><g class="key-Haiti_0"><circle cx="193.00" cy="455.00" r="2.35" fill="#4d824b" opacity="0.8" stroke="#fff" stroke-width="0.7"></circle></g><g class="key-Guinea_0"><circle cx="198.00" cy="480.00" r="2.35" fill="#5675c1" opacity="0.8" stroke="#fff" stroke-width="0.7"></circle></g><g class="key-Dominican-Republic_0"><circle cx="429.00" cy="461.00" r="2.35" fill="#4d824b" opacity="0.8" stroke="#fff" stroke-width="0.7"></circle></g><g class="key-Sweden_0"><circle cx="588.00" cy="511.00" r="2.32" fill="#ffd336" opacity="0.8" stroke="#fff" stroke-width="0.7"></circle></g><g class="key-Benin_0"><circle cx="215.00" cy="465.00" r="2.29" fill="#5675c1" opacity="0.8" stroke="#fff" stroke-width="0.7"></circle></g><g class="key-Honduras_0"><circle cx="307.00" cy="409.00" r="2.23" fill="#4d824b" opacity="0.8" stroke="#fff" stroke-width="0.7"></circle></g><g class="key-United-Arab-Emirates_0"><circle cx="622.00" cy="507.00" r="2.22" fill="#d14e5b" opacity="0.8" stroke="#fff" stroke-width="0.7"></circle></g><g class="key-Bulgaria_0"><circle cx="466.00" cy="446.00" r="2.22" fill="#ffd336" opacity="0.8" stroke="#333" stroke-width="0.7"></circle></g><g class="key-Israel_0"><circle cx="545.00" cy="502.00" r="2.22" fill="#d14e5b" opacity="0.8" stroke="#fff" stroke-width="0.7"></circle></g><g class="key-Hong-Kong_0"><circle cx="602.00" cy="499.00" r="2.20" fill="#d14e5b" opacity="0.8" stroke="#fff" stroke-width="0.7"></circle></g><g class="key-Papua-New-Guinea_0"><circle cx="282.00" cy="395.00" r="2.19" fill="#a652ba" opacity="0.8" stroke="#fff" stroke-width="0.7"></circle></g><g class="key-Libya_0"><circle cx="545.00" cy="465.00" r="2.16" fill="#5675c1" opacity="0.8" stroke="#333" stroke-width="0.7"></circle></g><g class="key-El-Salvador_0"><circle cx="362.00" cy="446.00" r="2.15" fill="#4d824b" opacity="0.8" stroke="#fff" stroke-width="0.7"></circle></g><g class="key-Jordan_0"><circle cx="410.00" cy="400.00" r="2.15" fill="#d14e5b" opacity="0.8" stroke="#333" stroke-width="0.7"></circle></g><g class="key-Togo_0"><circle cx="167.00" cy="448.00" r="2.14" fill="#5675c1" opacity="0.8" stroke="#fff" stroke-width="0.7"></circle></g><g class="key-Sierra-Leone_0"><circle cx="166.00" cy="467.00" r="2.14" fill="#5675c1" opacity="0.8" stroke="#fff" stroke-width="0.7"></circle></g><g class="key-Nicaragua_0"><circle cx="309.00" cy="426.00" r="2.13" fill="#4d824b" opacity="0.8" stroke="#fff" stroke-width="0.7"></circle></g><g class="key-Denmark_0"><circle cx="591.00" cy="511.00" r="2.12" fill="#ffd336" opacity="0.8" stroke="#fff" stroke-width="0.7"></circle></g><g class="key-Finland_0"><circle cx="579.00" cy="506.00" r="2.11" fill="#ffd336" opacity="0.8" stroke="#fff" stroke-width="0.7"></circle></g><g class="key-Eritrea_0"><circle cx="186.00" cy="467.00" r="2.10" fill="#5675c1" opacity="0.8" stroke="#fff" stroke-width="0.7"></circle></g><g class="key-Singapore_0"><circle cx="650.00" cy="507.00" r="2.09" fill="#d14e5b" opacity="0.8" stroke="#fff" stroke-width="0.7"></circle></g><g class="key-Norway_0"><circle cx="632.00" cy="504.00" r="2.08" fill="#ffd336" opacity="0.8" stroke="#fff" stroke-width="0.7"></circle></g><g class="key-Costa-Rica_0"><circle cx="447.00" cy="451.00" r="2.07" fill="#4d824b" opacity="0.8" stroke="#fff" stroke-width="0.7"></circle></g><g class="key-Ireland_0"><circle cx="591.00" cy="501.00" r="2.06" fill="#ffd336" opacity="0.8" stroke="#fff" stroke-width="0.7"></circle></g><g class="key-Croatia_0"><circle cx="499.00" cy="476.00" r="2.05" fill="#ffd336" opacity="0.8" stroke="#fff" stroke-width="0.7"></circle></g><g class="key-New-Zealand_0"><circle cx="554.00" cy="503.00" r="2.05" fill="#a652ba" opacity="0.8" stroke="#fff" stroke-width="0.7"></circle></g><g class="key-Georgia_0"><circle cx="370.00" cy="467.00" r="2.05" fill="#d14e5b" opacity="0.8" stroke="#333" stroke-width="0.7"></circle></g><g class="key-Lebanon_0"><circle cx="475.00" cy="468.00" r="2.04" fill="#d14e5b" opacity="0.8" stroke="#fff" stroke-width="0.7"></circle></g><g class="key-Congo_0"><circle cx="339.00" cy="442.00" r="2.03" fill="#5675c1" opacity="0.8" stroke="#333" stroke-width="0.7"></circle></g><g class="key-Liberia_0"><circle cx="102.00" cy="418.00" r="2.03" fill="#5675c1" opacity="0.8" stroke="#333" stroke-width="0.7"></circle></g><g class="key-Bosnia-and-Herzegovina_0"><circle cx="413.00" cy="433.00" r="2.02" fill="#ffd336" opacity="0.8" stroke="#fff" stroke-width="0.7"></circle></g><g class="key-Puerto-Rico_0"><circle cx="561.00" cy="498.00" r="2.02" fill="#4d824b" opacity="0.8" stroke="#fff" stroke-width="0.7"></circle></g><g class="key-Panama_0"><circle cx="469.00" cy="474.00" r="2.00" fill="#4d824b" opacity="0.8" stroke="#fff" stroke-width="0.7"></circle></g><g class="key-Mauritania_0"><circle cx="286.00" cy="463.00" r="2.00" fill="#5675c1" opacity="0.8" stroke="#fff" stroke-width="0.7"></circle></g><g class="key-Uruguay_0"><circle cx="480.00" cy="481.00" r="1.99" fill="#69c487" opacity="0.8" stroke="#fff" stroke-width="0.7"></circle></g><g class="key-Lithuania_0"><circle cx="504.00" cy="485.00" r="1.99" fill="#ffd336" opacity="0.8" stroke="#fff" stroke-width="0.7"></circle></g><g class="key-Albania_0"><circle cx="415.00" cy="471.00" r="1.98" fill="#ffd336" opacity="0.8" stroke="#fff" stroke-width="0.7"></circle></g><g class="key-Oman_0"><circle cx="595.00" cy="506.00" r="1.96" fill="#d14e5b" opacity="0.8" stroke="#fff" stroke-width="0.7"></circle></g><g class="key-Jamaica_0"><circle cx="390.00" cy="499.00" r="1.96" fill="#4d824b" opacity="0.8" stroke="#333" stroke-width="0.7"></circle></g><g class="key-Kuwait_0"><circle cx="654.00" cy="494.00" r="1.96" fill="#d14e5b" opacity="0.8" stroke="#fff" stroke-width="0.7"></circle></g><g class="key-Namibia_0"><circle cx="397.00" cy="386.00" r="1.93" fill="#5675c1" opacity="0.8" stroke="#fff" stroke-width="0.7"></circle></g><g class="key-Latvia_0"><circle cx="487.00" cy="486.00" r="1.93" fill="#ffd336" opacity="0.8" stroke="#fff" stroke-width="0.7"></circle></g><g class="key-Slovenia_0"><circle cx="541.00" cy="506.00" r="1.91" fill="#ffd336" opacity="0.8" stroke="#fff" stroke-width="0.7"></circle></g><g class="key-Qatar_0"><circle cx="715.00" cy="508.00" r="1.90" fill="#d14e5b" opacity="0.8" stroke="#333" stroke-width="0.7"></circle></g><g class="key-Gambia_0"><circle cx="203.00" cy="459.00" r="1.89" fill="#5675c1" opacity="0.8" stroke="#fff" stroke-width="0.7"></circle></g><g class="key-Guinea__002dBissau_0"><circle cx="184.00" cy="452.00" r="1.88" fill="#5675c1" opacity="0.8" stroke="#fff" stroke-width="0.7"></circle></g><g class="key-Gabon_0"><circle cx="467.00" cy="487.00" r="1.88" fill="#5675c1" opacity="0.8" stroke="#fff" stroke-width="0.7"></circle></g><g class="key-Trinidad-and-Tobago_0"><circle cx="551.00" cy="265.00" r="1.87" fill="#4d824b" opacity="0.8" stroke="#333" stroke-width="0.7"></circle></g><g class="key-Estonia_0"><circle cx="513.00" cy="487.00" r="1.87" fill="#ffd336" opacity="0.8" stroke="#fff" stroke-width="0.7"></circle></g><g class="key-Mauritius_0"><circle cx="471.00" cy="353.00" r="1.87" fill="#5675c1" opacity="0.8" stroke="#333" stroke-width="0.7"></circle></g><g class="key-Bahrain_0"><circle cx="582.00" cy="491.00" r="1.86" fill="#d14e5b" opacity="0.8" stroke="#fff" stroke-width="0.7"></circle></g><g class="key-Cyprus_0"><circle cx="561.00" cy="504.00" r="1.85" fill="#ffd336" opacity="0.8" stroke="#fff" stroke-width="0.7"></circle></g><g class="key-Djibouti_0"><circle cx="259.00" cy="413.00" r="1.84" fill="#5675c1" opacity="0.8" stroke="#fff" stroke-width="0.7"></circle></g><g class="key-Fiji_0"><circle cx="380.00" cy="315.00" r="1.84" fill="#a652ba" opacity="0.8" stroke="#333" stroke-width="0.7"></circle></g><g class="key-Guyana_0"><circle cx="353.00" cy="220.00" r="1.83" fill="#69c487" opacity="0.8" stroke="#333" stroke-width="0.7"></circle></g><g class="key-Comoros_0"><circle cx="185.00" cy="292.00" r="1.83" fill="#5675c1" opacity="0.8" stroke="#333" stroke-width="0.7"></circle></g><g class="key-Equatorial-Guinea_0"><circle cx="560.00" cy="451.00" r="1.83" fill="#5675c1" opacity="0.8" stroke="#333" stroke-width="0.7"></circle></g><g class="key-Montenegro_0"><circle cx="456.00" cy="452.00" r="1.82" fill="#ffd336" opacity="0.8" stroke="#fff" stroke-width="0.7"></circle></g><g class="key-Macao_0"><circle cx="686.00" cy="503.00" r="1.82" fill="#d14e5b" opacity="0.8" stroke="#fff" stroke-width="0.7"></circle></g><g class="key-Solomon-Islands_0"><circle cx="219.00" cy="395.00" r="1.82" fill="#a652ba" opacity="0.8" stroke="#fff" stroke-width="0.7"></circle></g><g class="key-Suriname_0"><circle cx="458.00" cy="477.00" r="1.82" fill="#69c487" opacity="0.8" stroke="#fff" stroke-width="0.7"></circle></g><g class="key-Cape-Verde_0"><circle cx="353.00" cy="448.00" r="1.82" fill="#5675c1" opacity="0.8" stroke="#fff" stroke-width="0.7"></circle></g><g class="key-Malta_0"><circle cx="539.00" cy="489.00" r="1.81" fill="#ffd336" opacity="0.8" stroke="#fff" stroke-width="0.7"></circle></g><g class="key-Brunei_0"><circle cx="663.00" cy="511.00" r="1.81" fill="#d14e5b" opacity="0.8" stroke="#fff" stroke-width="0.7"></circle></g><g class="key-Bahamas_0"><circle cx="543.00" cy="498.00" r="1.81" fill="#4d824b" opacity="0.8" stroke="#fff" stroke-width="0.7"></circle></g><g class="key-Iceland_0"><circle cx="577.00" cy="504.00" r="1.80" fill="#ffd336" opacity="0.8" stroke="#fff" stroke-width="0.7"></circle></g><g class="key-Maldives_0"><circle cx="438.00" cy="226.00" r="1.80" fill="#d14e5b" opacity="0.8" stroke="#333" stroke-width="0.7"></circle></g><g class="key-Belize_0"><circle cx="388.00" cy="443.00" r="1.80" fill="#4d824b" opacity="0.8" stroke="#fff" stroke-width="0.7"></circle></g><g class="key-Barbados_0"><circle cx="475.00" cy="468.00" r="1.80" fill="#4d824b" opacity="0.8" stroke="#fff" stroke-width="0.7"></circle></g><g class="key-Vanuatu_0"><circle cx="272.00" cy="193.00" r="1.80" fill="#a652ba" opacity="0.8" stroke="#333" stroke-width="0.7"></circle></g><g class="key-Samoa_0"><circle cx="344.00" cy="403.00" r="1.80" fill="#a652ba" opacity="0.8" stroke="#333" stroke-width="0.7"></circle></g><g class="key-Saint-Lucia_0"><circle cx="426.00" cy="365.00" r="1.79" fill="#4d824b" opacity="0.8" stroke="#fff" stroke-width="0.7"></circle></g><g class="key-Sao-Tome-and-Principe_0"><circle cx="259.00" cy="401.00" r="1.79" fill="#5675c1" opacity="0.8" stroke="#fff" stroke-width="0.7"></circle></g><g class="key-Saint-Vincent-and-the-Grenadines_0"><circle cx="415.00" cy="446.00" r="1.79" fill="#4d824b" opacity="0.8" stroke="#fff" stroke-width="0.7"></circle></g><g class="key-Grenada_0"><circle cx="429.00" cy="429.00" r="1.79" fill="#4d824b" opacity="0.8" stroke="#fff" stroke-width="0.7"></circle></g><g class="key-Tonga_0"><circle cx="334.00" cy="283.00" r="1.79" fill="#a652ba" opacity="0.8" stroke="#333" stroke-width="0.7"></circle></g><g class="key-Kiribati_0"><circle cx="209.00" cy="398.00" r="1.79" fill="#a652ba" opacity="0.8" stroke="#fff" stroke-width="0.7"></circle></g><g class="key-Antigua-and-Barbuda_0"><circle cx="493.00" cy="446.00" r="1.79" fill="#4d824b" opacity="0.8" stroke="#fff" stroke-width="0.7"></circle></g><g class="key-Seychelles_0"><circle cx="500.00" cy="331.00" r="1.79" fill="#5675c1" opacity="0.8" stroke="#333" stroke-width="0.7"></circle></g><g class="key-Dominica_0"><circle cx="419.00" cy="472.00" r="1.79" fill="#4d824b" opacity="0.8" stroke="#fff" stroke-width="0.7"></circle></g><g class="key-Bermuda_0"><circle cx="620.00" cy="506.00" r="1.79" fill="#4d824b" opacity="0.8" stroke="#fff" stroke-width="0.7"></circle></g><g class="key-Marshall-Islands_0"><circle cx="292.00" cy="317.00" r="1.79" fill="#a652ba" opacity="0.8" stroke="#333" stroke-width="0.7"></circle></g><g class="key-Saint-Kitts-and-Nevis_0"><circle cx="506.00" cy="442.00" r="1.79" fill="#4d824b" opacity="0.8" stroke="#fff" stroke-width="0.7"></circle></g><g class="key-Palau_0"><circle cx="436.00" cy="403.00" r="1.78" fill="#a652ba" opacity="0.8" stroke="#fff" stroke-width="0.7"></circle></g><g class="key-Nauru_0"><circle cx="367.00" cy="383.00" r="1.78" fill="#a652ba" opacity="0.8" stroke="#333" stroke-width="0.7"></circle></g><g class="key-Tuvalu_0"><circle cx="274.00" cy="372.00" r="1.78" fill="#a652ba" opacity="0.8" stroke="#333" stroke-width="0.7"></circle></g><g class="key-Micronesia-__0028country__0029_0"><circle cx="285.00" cy="401.00" r="1.78" fill="#a652ba" opacity="0.8" stroke="#fff" stroke-width="0.7"></circle></g><g class="key-Palestine_0"><circle cx="313.00" cy="506.00" r="1.78" fill="#d14e5b" opacity="0.8" stroke="#333" stroke-width="0.7"></circle></g><g class="key-Yemen_0"><circle cx="322.00" cy="412.00" r="1.78" fill="#d14e5b" opacity="0.8" stroke="#fff" stroke-width="0.7"></circle></g><g class="backgroundLabels" fill="#333"><text x="411.00" y="373.16" font-size="14.30">China</text><text x="320.00" y="482.94" font-size="14.01">India</text><text x="605.00" y="493.28" font-size="11.76">United States</text><text x="396.00" y="442.28" font-size="11.59">Indonesia</text><text x="461.00" y="482.00" font-size="11.48">Brazil</text><text x="316.00" y="387.37" font-size="11.43">Pakistan</text><text x="250.00" y="465.83" font-size="11.37">Bangladesh</text><text x="515.00" y="478.94" font-size="11.35">Russia</text><text x="567.00" y="501.26" font-size="11.31">Japan</text><text x="348.00" y="424.99" font-size="11.23">Philippines</text><text x="415.00" y="347.28" font-size="11.20">Egypt</text><text x="485.00" y="410.47" font-size="11.18">Iran</text><text x="485.00" y="455.50" font-size="11.18">Turkey</text><text x="452.00" y="366.59" font-size="11.17">Thailand</text><text x="96.00" y="455.68" font-size="11.16">Democratic Republic of Congo</text><text x="437.00" y="333.13" font-size="11.12">South Africa</text><text x="300.00" y="421.20" font-size="11.12">Myanmar</text><text x="427.00" y="463.25" font-size="11.11">Colombia</text><text x="232.00" y="481.30" font-size="11.11">Tanzania</text><text x="508.00" y="490.51" font-size="11.09">Poland</text><text x="446.00" y="395.61" font-size="11.09">Algeria</text><text x="288.00" y="399.65" font-size="11.08">Sudan</text><text x="445.00" y="420.74" font-size="11.08">Iraq</text><text x="505.00" y="361.86" font-size="11.07">Malaysia</text><text x="134.00" y="491.05" font-size="11.06">Mozambique</text><text x="398.00" y="134.15" font-size="11.05">Sri Lanka</text><text x="354.00" y="450.23" font-size="11.05">Angola</text><text x="254.00" y="433.45" font-size="11.03">Cambodia</text><text x="237.00" y="396.53" font-size="11.03">Senegal</text><text x="466.00" y="442.78" font-size="11.02">Bulgaria</text><text x="545.00" y="461.84" font-size="11.02">Libya</text><text x="410.00" y="396.85" font-size="11.02">Jordan</text><text x="370.00" y="463.95" font-size="11.01">Georgia</text><text x="339.00" y="438.97" font-size="11.01">Congo</text><text x="102.00" y="414.97" font-size="11.01">Liberia</text><text x="390.00" y="496.04" font-size="11.01">Jamaica</text><text x="687.38" y="505.10" font-size="11.00">Qatar</text><text x="551.00" y="262.13" font-size="11.00">Trinidad and Tobago</text><text x="471.00" y="350.13" font-size="11.00">Mauritius</text><text x="380.00" y="312.16" font-size="11.00">Fiji</text><text x="353.00" y="217.17" font-size="11.00">Guyana</text><text x="185.00" y="289.17" font-size="11.00">Comoros</text><text x="560.00" y="448.17" font-size="11.00">Equatorial Guinea</text><text x="438.00" y="223.20" font-size="11.00">Maldives</text><text x="272.00" y="190.20" font-size="11.00">Vanuatu</text><text x="344.00" y="400.20" font-size="11.00">Samoa</text><text x="334.00" y="280.21" font-size="11.00">Tonga</text><text x="500.00" y="328.21" font-size="11.00">Seychelles</text><text x="292.00" y="314.21" font-size="11.00">Marshall Islands</text><text x="367.00" y="380.22" font-size="11.00">Nauru</text><text x="274.00" y="369.22" font-size="11.00">Tuvalu</text><text x="313.00" y="503.22" font-size="11.00">Palestine</text></g></g><g class="ScatterColorLegend clickable" style="cursor:pointer"><g class="legendMark"><rect x="735" y="120.6" width="43.256" height="17.6" fill="#fff" opacity="0"></rect>,<rect x="735" y="126.1" width="6" height="6" fill="#5675c1"></rect>,<text font-size="12.60" x="746.0" y="133.2"><tspan x="746" y="133.17999999999998">Africa</tspan></text></g><g class="legendMark"><rect x="735" y="138.2" width="35.57" height="17.6" fill="#fff" opacity="0"></rect>,<rect x="735" y="143.7" width="6" height="6" fill="#d14e5b"></rect>,<text font-size="12.60" x="746.0" y="150.8"><tspan x="746" y="150.77999999999997">Asia</tspan></text></g><g class="legendMark"><rect x="735" y="155.8" width="51.824" height="17.6" fill="#fff" opacity="0"></rect>,<rect x="735" y="161.3" width="6" height="6" fill="#ffd336"></rect>,<text font-size="12.60" x="746.0" y="168.4"><tspan x="746" y="168.38">Europe</tspan></text></g><g class="legendMark"><rect x="735" y="173.4" width="91.64" height="17.6" fill="#fff" opacity="0"></rect>,<rect x="735" y="178.9" width="6" height="6" fill="#4d824b"></rect>,<text font-size="12.60" x="746.0" y="186.0"><tspan x="746" y="185.98">North America</tspan></text></g><g class="legendMark"><rect x="735" y="191" width="58.124" height="17.6" fill="#fff" opacity="0"></rect>,<rect x="735" y="196.5" width="6" height="6" fill="#a652ba"></rect>,<text font-size="12.60" x="746.0" y="203.6"><tspan x="746" y="203.57999999999998">Oceania</tspan></text></g><g class="legendMark"><rect x="735" y="208.6" width="93.908" height="17.6" fill="#fff" opacity="0"></rect>,<rect x="735" y="214.1" width="6" height="6" fill="#69c487"></rect>,<text font-size="12.60" x="746.0" y="221.2"><tspan x="746" y="221.17999999999998">South America</tspan></text></g></g></g><g class="SourcesFooter" style="fill:#777"><g class="clickable" style="fill:#777"><text font-size="12.60" x="15.0" y="581.6"><tspan x="15" y="581.58">Source: Plastic Waste - Jambeck et al. (2015), World Bank</tspan></text></g><text font-size="12.60" x="775.4" y="581.6"><tspan x="775.402" y="581.58"><a style="fill: #777;" class="cclogo" href="http://creativecommons.org/licenses/by-sa/4.0/deed.en_US" target="_blank">CC BY-SA</a></tspan></text></g></g></svg>