<svg xmlns="http://www.w3.org/2000/svg" version="1.1" style="font-family:&#x27;Helvetica Neue&#x27;, Helvetica, Arial, sans-serif;font-size:18px;background-color:white;text-rendering:optimizeLegibility;-webkit-font-smoothing:antialiased" width="850" height="600"><g class="ChartTab"><g class="HeaderView"><g opacity="0.8" transform="translate(778, 15) scale(0.27)"><a xmlns:xlink="http://www.w3.org/1999/xlink" xlink:href="https://ourworldindata.org" target="_blank"><g><rect x="0" y="0" fill="#1B2543" width="211.2" height="130.1"/><rect x="0" y="112.2" fill="#E63912" width="211.2" height="17.9"/><g><rect x="1.2" y="12.3" fill="none" width="210.2" height="99.2"/><path fill="#FFFFFF" d="M37.8,32.2c0,12.7-7.7,19.4-17.1,19.4c-9.7,0-16.6-7.5-16.6-18.7c0-11.7,7.3-19.3,17.1-19.3 C31.3,13.7,37.8,21.3,37.8,32.2z M9.2,32.8c0,7.9,4.3,14.9,11.8,14.9c7.5,0,11.8-6.9,11.8-15.3c0-7.3-3.8-14.9-11.8-14.9 C13.1,17.5,9.2,24.8,9.2,32.8z"/><path fill="#FFFFFF" d="M62.7,43.8c0,2.7,0.1,5.1,0.2,7.2h-4.3l-0.3-4.3h-0.1c-1.3,2.1-4,4.9-8.8,4.9c-4.2,0-9.1-2.3-9.1-11.6 V24.6h4.8v14.6c0,5,1.5,8.4,5.9,8.4c3.2,0,5.5-2.2,6.3-4.4c0.3-0.7,0.4-1.6,0.4-2.5V24.6h4.8V43.8z"/><path fill="#FFFFFF" d="M67.3,32.8c0-3.1-0.1-5.8-0.2-8.2h4.2l0.2,5.2h0.2c1.2-3.5,4.1-5.8,7.3-5.8c0.5,0,0.9,0.1,1.4,0.2v4.5 c-0.5-0.1-1-0.2-1.6-0.2c-3.4,0-5.8,2.6-6.5,6.2c-0.1,0.7-0.2,1.4-0.2,2.2V51h-4.8V32.8z"/><path fill="#FFFFFF" d="M95.4,51l-9.4-36.8h5l4.4,18.6c1.1,4.6,2.1,9.2,2.7,12.7h0.1c0.6-3.7,1.8-8,3-12.8l4.9-18.5h5l4.5,18.7 c1,4.4,2,8.7,2.6,12.6h0.1c0.8-4,1.8-8.1,3-12.7l4.9-18.5h4.9L120.6,51h-5L111,31.9c-1.1-4.7-1.9-8.3-2.4-12h-0.1 c-0.7,3.7-1.5,7.3-2.8,12L100.4,51H95.4z"/><path fill="#FFFFFF" d="M154.9,37.6c0,9.8-6.8,14-13.2,14c-7.2,0-12.7-5.2-12.7-13.6c0-8.8,5.8-14,13.1-14 C149.8,24,154.9,29.5,154.9,37.6z M133.9,37.9c0,5.8,3.3,10.1,8,10.1c4.6,0,8-4.3,8-10.3c0-4.5-2.2-10.1-7.9-10.1 C136.3,27.6,133.9,32.8,133.9,37.9z"/><path fill="#FFFFFF" d="M158.2,32.8c0-3.1-0.1-5.8-0.2-8.2h4.2l0.2,5.2h0.2c1.2-3.5,4.1-5.8,7.3-5.8c0.5,0,0.9,0.1,1.4,0.2v4.5 c-0.5-0.1-1-0.2-1.6-0.2c-3.4,0-5.8,2.6-6.5,6.2c-0.1,0.7-0.2,1.4-0.2,2.2V51h-4.8V32.8z"/><path fill="#FFFFFF" d="M173.5,12.3h4.8V51h-4.8V12.3z"/><path fill="#FFFFFF" d="M206.5,12.3v31.9c0,2.3,0.1,5,0.2,6.8h-4.3l-0.2-4.6H202c-1.5,2.9-4.7,5.2-9,5.2 c-6.4,0-11.3-5.4-11.3-13.4c-0.1-8.8,5.4-14.2,11.9-14.2c4,0,6.8,1.9,8,4h0.1V12.3H206.5z M201.7,35.4c0-0.6-0.1-1.4-0.2-2 c-0.7-3.1-3.3-5.6-6.9-5.6c-5,0-7.9,4.4-7.9,10.2c0,5.3,2.6,9.8,7.8,9.8c3.2,0,6.2-2.1,7.1-5.7c0.2-0.7,0.2-1.3,0.2-2.1V35.4z"/><path fill="#FFFFFF" d="M42.8,64c0.1,1.6-1.1,2.9-3.1,2.9c-1.7,0-2.9-1.3-2.9-2.9c0-1.7,1.3-3,3-3C41.7,61,42.8,62.3,42.8,64z M37.4,97.8V71.4h4.8v26.4H37.4z"/><path fill="#FFFFFF" d="M47.5,78.6c0-2.7-0.1-5-0.2-7.1h4.3l0.3,4.4h0.1c1.3-2.5,4.4-5,8.8-5c3.7,0,9.4,2.2,9.4,11.2v15.8h-4.8 V82.6c0-4.3-1.6-7.8-6.1-7.8c-3.2,0-5.6,2.2-6.5,4.9c-0.2,0.6-0.3,1.4-0.3,2.2v15.9h-4.8V78.6z"/><path fill="#FFFFFF" d="M84,61.6c2.9-0.4,6.3-0.8,10.1-0.8c6.8,0,11.7,1.6,14.9,4.6c3.3,3,5.2,7.3,5.2,13.2c0,6-1.9,10.9-5.3,14.3 c-3.4,3.4-9.1,5.3-16.3,5.3c-3.4,0-6.2-0.2-8.6-0.4V61.6z M88.8,94.1c1.2,0.2,3,0.3,4.8,0.3c10.2,0,15.7-5.7,15.7-15.6 c0.1-8.7-4.9-14.2-14.9-14.2c-2.5,0-4.3,0.2-5.6,0.5V94.1z"/><path fill="#FFFFFF" d="M132.1,97.8l-0.4-3.3h-0.2c-1.5,2.1-4.3,3.9-8.1,3.9c-5.4,0-8.1-3.8-8.1-7.6c0-6.4,5.7-9.9,15.9-9.8v-0.5 c0-2.2-0.6-6.1-6-6.1c-2.5,0-5,0.8-6.9,2l-1.1-3.2c2.2-1.4,5.4-2.3,8.7-2.3c8.1,0,10.1,5.5,10.1,10.8v9.9c0,2.3,0.1,4.5,0.4,6.3 H132.1z M131.4,84.4c-5.3-0.1-11.2,0.8-11.2,5.9c0,3.1,2.1,4.6,4.5,4.6c3.4,0,5.6-2.2,6.4-4.4c0.2-0.5,0.3-1,0.3-1.5V84.4z"/><path fill="#FFFFFF" d="M146.6,63.9v7.6h6.9v3.7h-6.9v14.2c0,3.3,0.9,5.1,3.6,5.1c1.3,0,2.2-0.2,2.8-0.3l0.2,3.6 c-0.9,0.4-2.4,0.7-4.3,0.7c-2.2,0-4-0.7-5.2-2c-1.4-1.4-1.9-3.8-1.9-6.9V75.1h-4.1v-3.7h4.1v-6.3L146.6,63.9z"/><path fill="#FFFFFF" d="M171.4,97.8l-0.4-3.3h-0.2c-1.5,2.1-4.3,3.9-8.1,3.9c-5.4,0-8.1-3.8-8.1-7.6c0-6.4,5.7-9.9,15.9-9.8v-0.5 c0-2.2-0.6-6.1-6-6.1c-2.5,0-5,0.8-6.9,2l-1.1-3.2c2.2-1.4,5.4-2.3,8.7-2.3c8.1,0,10.1,5.5,10.1,10.8v9.9c0,2.3,0.1,4.5,0.4,6.3 H171.4z M170.7,84.4c-5.3-0.1-11.2,0.8-11.2,5.9c0,3.1,2.1,4.6,4.5,4.6c3.4,0,5.6-2.2,6.4-4.4c0.2-0.5,0.3-1,0.3-1.5V84.4z"/></g></g></a></g><a href="https://ourworldindata.org/grapher/primary-completion-rate-of-relevant-age-group" target="_blank"><text font-size="25.20" x="15.0" y="35.2" fill="#555"><tspan x="15" y="35.160000000000004">Primary completion rate (% of relevant age group), World</tspan></text></a><text font-size="14.40" x="15.0" y="53.7" fill="#666"><tspan x="15" y="53.72">The number of new entrants (enrollments minus repeaters) in the last grade of primary education, regardless of age,</tspan><tspan x="15" y="69.56">divided by the population at the entrance age for the last grade of primary education.</tspan></text></g><g class="LineChart"><defs><clipPath id="boundsClip-88"><rect x="42.562" y="0" width="830" height="928.8"></rect></clipPath></defs><g class="AxisBoxView"><g class="HorizontalAxis"><text x="52.6" y="556.5" fill="#666" text-anchor="middle" font-size="16.2">1970</text><text x="165.8" y="556.5" fill="#666" text-anchor="middle" font-size="16.2">1980</text><text x="279.1" y="556.5" fill="#666" text-anchor="middle" font-size="16.2">1990</text><text x="392.4" y="556.5" fill="#666" text-anchor="middle" font-size="16.2">2000</text><text x="505.6" y="556.5" fill="#666" text-anchor="middle" font-size="16.2">2010</text><text x="573.6" y="556.5" fill="#666" text-anchor="middle" font-size="16.2">2016</text></g><g class="VerticalAxis"><text x="47.56" y="535.3" fill="#666" dominant-baseline="middle" text-anchor="end" font-size="16.2">0%</text><text x="47.56" y="438.2" fill="#666" dominant-baseline="middle" text-anchor="end" font-size="16.2">20%</text><text x="47.56" y="341" fill="#666" dominant-baseline="middle" text-anchor="end" font-size="16.2">40%</text><text x="47.56" y="243.9" fill="#666" dominant-baseline="middle" text-anchor="end" font-size="16.2">60%</text><text x="47.56" y="146.8" fill="#666" dominant-baseline="middle" text-anchor="end" font-size="16.2">80%</text></g><g class="AxisGridLines"><line x1="52.56" y1="535.3" x2="573.61" y2="535.3" stroke="#ccc"></line><line x1="52.56" y1="438.2" x2="573.61" y2="438.2" stroke="#ddd" stroke-dasharray="3,2"></line><line x1="52.56" y1="341" x2="573.61" y2="341" stroke="#ddd" stroke-dasharray="3,2"></line><line x1="52.56" y1="243.9" x2="573.61" y2="243.9" stroke="#ddd" stroke-dasharray="3,2"></line><line x1="52.56" y1="146.8" x2="573.61" y2="146.8" stroke="#ddd" stroke-dasharray="3,2"></line></g></g><g clip-path="url(#boundsClip-88)"><g class="HeightedLegend clickable"><g class="legendMark"><g class="indicator"><line x1="578.605" y1="98.7" x2="597.7716666666666" y2="98.7" stroke="#666" stroke-width="0.5"></line><line x1="597.7716666666666" y1="98.7" x2="597.7716666666666" y2="98.7" stroke="#666" stroke-width="0.5"></line><line x1="597.7716666666666" y1="98.7" x2="603.605" y2="98.7" stroke="#666" stroke-width="0.5"></line></g><rect x="573.605" y="84.65" width="250.055" height="28.1" fill="#fff" opacity="0"></rect><text font-size="13.50" x="608.6" y="95.5" fill="#818282"><tspan x="608.605" y="95.45">Primary completion rate, male (% of</tspan><tspan x="608.605" y="110.30000000000001">relevant age group)</tspan></text></g><g class="legendMark"><g class="indicator"><line x1="578.605" y1="100" x2="591.105" y2="100" stroke="#666" stroke-width="0.5"></line><line x1="591.105" y1="100" x2="591.105" y2="128.8" stroke="#666" stroke-width="0.5"></line><line x1="591.105" y1="128.8" x2="603.605" y2="128.8" stroke="#666" stroke-width="0.5"></line></g><rect x="573.605" y="114.75" width="246.41000000000003" height="28.1" fill="#fff" opacity="0"></rect><text font-size="13.50" x="608.6" y="125.5" fill="#7ec7ce"><tspan x="608.605" y="125.55">Primary completion rate, total (% of</tspan><tspan x="608.605" y="140.4">relevant age group)</tspan></text></g><g class="legendMark"><g class="indicator"><line x1="578.605" y1="101.5" x2="584.4383333333334" y2="101.5" stroke="#666" stroke-width="0.5"></line><line x1="584.4383333333334" y1="101.5" x2="584.4383333333334" y2="158.9" stroke="#666" stroke-width="0.5"></line><line x1="584.4383333333334" y1="158.9" x2="603.605" y2="158.9" stroke="#666" stroke-width="0.5"></line></g><rect x="573.605" y="144.85" width="261.395" height="28.1" fill="#fff" opacity="0"></rect><text font-size="13.50" x="608.6" y="155.7" fill="#f9bc8f"><tspan x="608.605" y="155.65">Primary completion rate, female (% of</tspan><tspan x="608.605" y="170.5">relevant age group)</tspan></text></g></g><g class="Lines"><rect x="53" y="92" width="521" height="443" fill="rgba(255,255,255,0)" opacity="0"></rect><g class="key-World_0"><path stroke="#7ec7ce" stroke-linecap="round" d="M53 175L64 175L75 174L87 171L98 170L109 167L121 165L132 161L143 159L155 157L166 152L177 149L189 148L200 146L211 141L223 139L234 139L245 139L256 140L268 142L279 141L290 140L302 142L313 139L324 137L336 140L347 144L358 146L370 145L381 143L392 138L404 134L415 131L426 128L438 125L449 122L460 120L472 113L483 103L494 98L506 97L517 99L528 95L540 95L551 97L562 100L574 100" fill="none" stroke-width="1.5"></path><g fill="#7ec7ce"><circle cx="53" cy="175" r="2"></circle><circle cx="64" cy="175" r="2"></circle><circle cx="75" cy="174" r="2"></circle><circle cx="87" cy="171" r="2"></circle><circle cx="98" cy="170" r="2"></circle><circle cx="109" cy="167" r="2"></circle><circle cx="121" cy="165" r="2"></circle><circle cx="132" cy="161" r="2"></circle><circle cx="143" cy="159" r="2"></circle><circle cx="155" cy="157" r="2"></circle><circle cx="166" cy="152" r="2"></circle><circle cx="177" cy="149" r="2"></circle><circle cx="189" cy="148" r="2"></circle><circle cx="200" cy="146" r="2"></circle><circle cx="211" cy="141" r="2"></circle><circle cx="223" cy="139" r="2"></circle><circle cx="234" cy="139" r="2"></circle><circle cx="245" cy="139" r="2"></circle><circle cx="256" cy="140" r="2"></circle><circle cx="268" cy="142" r="2"></circle><circle cx="279" cy="141" r="2"></circle><circle cx="290" cy="140" r="2"></circle><circle cx="302" cy="142" r="2"></circle><circle cx="313" cy="139" r="2"></circle><circle cx="324" cy="137" r="2"></circle><circle cx="336" cy="140" r="2"></circle><circle cx="347" cy="144" r="2"></circle><circle cx="358" cy="146" r="2"></circle><circle cx="370" cy="145" r="2"></circle><circle cx="381" cy="143" r="2"></circle><circle cx="392" cy="138" r="2"></circle><circle cx="404" cy="134" r="2"></circle><circle cx="415" cy="131" r="2"></circle><circle cx="426" cy="128" r="2"></circle><circle cx="438" cy="125" r="2"></circle><circle cx="449" cy="122" r="2"></circle><circle cx="460" cy="120" r="2"></circle><circle cx="472" cy="113" r="2"></circle><circle cx="483" cy="103" r="2"></circle><circle cx="494" cy="98" r="2"></circle><circle cx="506" cy="97" r="2"></circle><circle cx="517" cy="99" r="2"></circle><circle cx="528" cy="95" r="2"></circle><circle cx="540" cy="95" r="2"></circle><circle cx="551" cy="97" r="2"></circle><circle cx="562" cy="100" r="2"></circle><circle cx="574" cy="100" r="2"></circle></g></g><g class="key-World_1"><path stroke="#f9bc8f" stroke-linecap="round" d="M75 196L87 194L98 193L109 191L121 189L132 185L143 182L155 180L166 175L177 172L189 170L200 168L211 164L223 162L234 161L245 162L256 162L268 164L279 162L290 162L302 163L313 159L324 157L336 159L347 163L358 164L370 162L381 160L392 154L404 148L415 145L426 138L438 135L449 131L460 128L472 121L483 110L494 103L506 102L517 104L528 98L540 97L551 99L562 102L574 102" fill="none" stroke-width="1.5"></path><g fill="#f9bc8f"><circle cx="75" cy="196" r="2"></circle><circle cx="87" cy="194" r="2"></circle><circle cx="98" cy="193" r="2"></circle><circle cx="109" cy="191" r="2"></circle><circle cx="121" cy="189" r="2"></circle><circle cx="132" cy="185" r="2"></circle><circle cx="143" cy="182" r="2"></circle><circle cx="155" cy="180" r="2"></circle><circle cx="166" cy="175" r="2"></circle><circle cx="177" cy="172" r="2"></circle><circle cx="189" cy="170" r="2"></circle><circle cx="200" cy="168" r="2"></circle><circle cx="211" cy="164" r="2"></circle><circle cx="223" cy="162" r="2"></circle><circle cx="234" cy="161" r="2"></circle><circle cx="245" cy="162" r="2"></circle><circle cx="256" cy="162" r="2"></circle><circle cx="268" cy="164" r="2"></circle><circle cx="279" cy="162" r="2"></circle><circle cx="290" cy="162" r="2"></circle><circle cx="302" cy="163" r="2"></circle><circle cx="313" cy="159" r="2"></circle><circle cx="324" cy="157" r="2"></circle><circle cx="336" cy="159" r="2"></circle><circle cx="347" cy="163" r="2"></circle><circle cx="358" cy="164" r="2"></circle><circle cx="370" cy="162" r="2"></circle><circle cx="381" cy="160" r="2"></circle><circle cx="392" cy="154" r="2"></circle><circle cx="404" cy="148" r="2"></circle><circle cx="415" cy="145" r="2"></circle><circle cx="426" cy="138" r="2"></circle><circle cx="438" cy="135" r="2"></circle><circle cx="449" cy="131" r="2"></circle><circle cx="460" cy="128" r="2"></circle><circle cx="472" cy="121" r="2"></circle><circle cx="483" cy="110" r="2"></circle><circle cx="494" cy="103" r="2"></circle><circle cx="506" cy="102" r="2"></circle><circle cx="517" cy="104" r="2"></circle><circle cx="528" cy="98" r="2"></circle><circle cx="540" cy="97" r="2"></circle><circle cx="551" cy="99" r="2"></circle><circle cx="562" cy="102" r="2"></circle><circle cx="574" cy="102" r="2"></circle></g></g><g class="key-World_2"><path stroke="#818282" stroke-linecap="round" d="M75 152L87 150L98 149L109 145L121 143L132 139L143 137L155 135L166 131L177 127L189 126L200 124L211 119L223 118L234 117L245 118L256 118L268 120L279 120L290 119L302 122L313 119L324 118L336 121L347 126L358 129L370 128L381 128L392 123L404 120L415 118L426 118L438 116L449 113L460 112L472 106L483 97L494 93L506 92L517 95L528 92L540 93L551 95L562 98L574 99" fill="none" stroke-width="1.5"></path><g fill="#818282"><circle cx="75" cy="152" r="2"></circle><circle cx="87" cy="150" r="2"></circle><circle cx="98" cy="149" r="2"></circle><circle cx="109" cy="145" r="2"></circle><circle cx="121" cy="143" r="2"></circle><circle cx="132" cy="139" r="2"></circle><circle cx="143" cy="137" r="2"></circle><circle cx="155" cy="135" r="2"></circle><circle cx="166" cy="131" r="2"></circle><circle cx="177" cy="127" r="2"></circle><circle cx="189" cy="126" r="2"></circle><circle cx="200" cy="124" r="2"></circle><circle cx="211" cy="119" r="2"></circle><circle cx="223" cy="118" r="2"></circle><circle cx="234" cy="117" r="2"></circle><circle cx="245" cy="118" r="2"></circle><circle cx="256" cy="118" r="2"></circle><circle cx="268" cy="120" r="2"></circle><circle cx="279" cy="120" r="2"></circle><circle cx="290" cy="119" r="2"></circle><circle cx="302" cy="122" r="2"></circle><circle cx="313" cy="119" r="2"></circle><circle cx="324" cy="118" r="2"></circle><circle cx="336" cy="121" r="2"></circle><circle cx="347" cy="126" r="2"></circle><circle cx="358" cy="129" r="2"></circle><circle cx="370" cy="128" r="2"></circle><circle cx="381" cy="128" r="2"></circle><circle cx="392" cy="123" r="2"></circle><circle cx="404" cy="120" r="2"></circle><circle cx="415" cy="118" r="2"></circle><circle cx="426" cy="118" r="2"></circle><circle cx="438" cy="116" r="2"></circle><circle cx="449" cy="113" r="2"></circle><circle cx="460" cy="112" r="2"></circle><circle cx="472" cy="106" r="2"></circle><circle cx="483" cy="97" r="2"></circle><circle cx="494" cy="93" r="2"></circle><circle cx="506" cy="92" r="2"></circle><circle cx="517" cy="95" r="2"></circle><circle cx="528" cy="92" r="2"></circle><circle cx="540" cy="93" r="2"></circle><circle cx="551" cy="95" r="2"></circle><circle cx="562" cy="98" r="2"></circle><circle cx="574" cy="99" r="2"></circle></g></g></g></g></g><g class="SourcesFooter" style="fill:#777"><g class="clickable" style="fill:#777"><text font-size="12.60" x="15.0" y="581.6"><tspan x="15" y="581.58">Source: World Bank</tspan></text></g><text font-size="12.60" x="456.6" y="581.6"><tspan x="456.622" y="581.58"><a target='_blank' style='fill: #777;' href='https://ourworldindata.org/primary-and-secondary-education'>OurWorldInData.org/primary-and-secondary-education</a> • <a style="fill: #777;" class="cclogo" href="http://creativecommons.org/licenses/by-sa/4.0/deed.en_US" target="_blank">CC BY-SA</a></tspan></text></g></g></svg>