<svg xmlns="http://www.w3.org/2000/svg" version="1.1" style="font-family:&#x27;Helvetica Neue&#x27;, Helvetica, Arial, sans-serif;font-size:18px;background-color:white;text-rendering:optimizeLegibility;-webkit-font-smoothing:antialiased" width="850" height="600"><g class="ChartTab"><g class="HeaderView"><g opacity="0.8" transform="translate(778, 15) scale(0.27)"><a xmlns:xlink="http://www.w3.org/1999/xlink" xlink:href="https://ourworldindata.org" target="_blank"><g><rect x="0" y="0" fill="#1B2543" width="211.2" height="130.1"/><rect x="0" y="112.2" fill="#E63912" width="211.2" height="17.9"/><g><rect x="1.2" y="12.3" fill="none" width="210.2" height="99.2"/><path fill="#FFFFFF" d="M37.8,32.2c0,12.7-7.7,19.4-17.1,19.4c-9.7,0-16.6-7.5-16.6-18.7c0-11.7,7.3-19.3,17.1-19.3 C31.3,13.7,37.8,21.3,37.8,32.2z M9.2,32.8c0,7.9,4.3,14.9,11.8,14.9c7.5,0,11.8-6.9,11.8-15.3c0-7.3-3.8-14.9-11.8-14.9 C13.1,17.5,9.2,24.8,9.2,32.8z"/><path fill="#FFFFFF" d="M62.7,43.8c0,2.7,0.1,5.1,0.2,7.2h-4.3l-0.3-4.3h-0.1c-1.3,2.1-4,4.9-8.8,4.9c-4.2,0-9.1-2.3-9.1-11.6 V24.6h4.8v14.6c0,5,1.5,8.4,5.9,8.4c3.2,0,5.5-2.2,6.3-4.4c0.3-0.7,0.4-1.6,0.4-2.5V24.6h4.8V43.8z"/><path fill="#FFFFFF" d="M67.3,32.8c0-3.1-0.1-5.8-0.2-8.2h4.2l0.2,5.2h0.2c1.2-3.5,4.1-5.8,7.3-5.8c0.5,0,0.9,0.1,1.4,0.2v4.5 c-0.5-0.1-1-0.2-1.6-0.2c-3.4,0-5.8,2.6-6.5,6.2c-0.1,0.7-0.2,1.4-0.2,2.2V51h-4.8V32.8z"/><path fill="#FFFFFF" d="M95.4,51l-9.4-36.8h5l4.4,18.6c1.1,4.6,2.1,9.2,2.7,12.7h0.1c0.6-3.7,1.8-8,3-12.8l4.9-18.5h5l4.5,18.7 c1,4.4,2,8.7,2.6,12.6h0.1c0.8-4,1.8-8.1,3-12.7l4.9-18.5h4.9L120.6,51h-5L111,31.9c-1.1-4.7-1.9-8.3-2.4-12h-0.1 c-0.7,3.7-1.5,7.3-2.8,12L100.4,51H95.4z"/><path fill="#FFFFFF" d="M154.9,37.6c0,9.8-6.8,14-13.2,14c-7.2,0-12.7-5.2-12.7-13.6c0-8.8,5.8-14,13.1-14 C149.8,24,154.9,29.5,154.9,37.6z M133.9,37.9c0,5.8,3.3,10.1,8,10.1c4.6,0,8-4.3,8-10.3c0-4.5-2.2-10.1-7.9-10.1 C136.3,27.6,133.9,32.8,133.9,37.9z"/><path fill="#FFFFFF" d="M158.2,32.8c0-3.1-0.1-5.8-0.2-8.2h4.2l0.2,5.2h0.2c1.2-3.5,4.1-5.8,7.3-5.8c0.5,0,0.9,0.1,1.4,0.2v4.5 c-0.5-0.1-1-0.2-1.6-0.2c-3.4,0-5.8,2.6-6.5,6.2c-0.1,0.7-0.2,1.4-0.2,2.2V51h-4.8V32.8z"/><path fill="#FFFFFF" d="M173.5,12.3h4.8V51h-4.8V12.3z"/><path fill="#FFFFFF" d="M206.5,12.3v31.9c0,2.3,0.1,5,0.2,6.8h-4.3l-0.2-4.6H202c-1.5,2.9-4.7,5.2-9,5.2 c-6.4,0-11.3-5.4-11.3-13.4c-0.1-8.8,5.4-14.2,11.9-14.2c4,0,6.8,1.9,8,4h0.1V12.3H206.5z M201.7,35.4c0-0.6-0.1-1.4-0.2-2 c-0.7-3.1-3.3-5.6-6.9-5.6c-5,0-7.9,4.4-7.9,10.2c0,5.3,2.6,9.8,7.8,9.8c3.2,0,6.2-2.1,7.1-5.7c0.2-0.7,0.2-1.3,0.2-2.1V35.4z"/><path fill="#FFFFFF" d="M42.8,64c0.1,1.6-1.1,2.9-3.1,2.9c-1.7,0-2.9-1.3-2.9-2.9c0-1.7,1.3-3,3-3C41.7,61,42.8,62.3,42.8,64z M37.4,97.8V71.4h4.8v26.4H37.4z"/><path fill="#FFFFFF" d="M47.5,78.6c0-2.7-0.1-5-0.2-7.1h4.3l0.3,4.4h0.1c1.3-2.5,4.4-5,8.8-5c3.7,0,9.4,2.2,9.4,11.2v15.8h-4.8 V82.6c0-4.3-1.6-7.8-6.1-7.8c-3.2,0-5.6,2.2-6.5,4.9c-0.2,0.6-0.3,1.4-0.3,2.2v15.9h-4.8V78.6z"/><path fill="#FFFFFF" d="M84,61.6c2.9-0.4,6.3-0.8,10.1-0.8c6.8,0,11.7,1.6,14.9,4.6c3.3,3,5.2,7.3,5.2,13.2c0,6-1.9,10.9-5.3,14.3 c-3.4,3.4-9.1,5.3-16.3,5.3c-3.4,0-6.2-0.2-8.6-0.4V61.6z M88.8,94.1c1.2,0.2,3,0.3,4.8,0.3c10.2,0,15.7-5.7,15.7-15.6 c0.1-8.7-4.9-14.2-14.9-14.2c-2.5,0-4.3,0.2-5.6,0.5V94.1z"/><path fill="#FFFFFF" d="M132.1,97.8l-0.4-3.3h-0.2c-1.5,2.1-4.3,3.9-8.1,3.9c-5.4,0-8.1-3.8-8.1-7.6c0-6.4,5.7-9.9,15.9-9.8v-0.5 c0-2.2-0.6-6.1-6-6.1c-2.5,0-5,0.8-6.9,2l-1.1-3.2c2.2-1.4,5.4-2.3,8.7-2.3c8.1,0,10.1,5.5,10.1,10.8v9.9c0,2.3,0.1,4.5,0.4,6.3 H132.1z M131.4,84.4c-5.3-0.1-11.2,0.8-11.2,5.9c0,3.1,2.1,4.6,4.5,4.6c3.4,0,5.6-2.2,6.4-4.4c0.2-0.5,0.3-1,0.3-1.5V84.4z"/><path fill="#FFFFFF" d="M146.6,63.9v7.6h6.9v3.7h-6.9v14.2c0,3.3,0.9,5.1,3.6,5.1c1.3,0,2.2-0.2,2.8-0.3l0.2,3.6 c-0.9,0.4-2.4,0.7-4.3,0.7c-2.2,0-4-0.7-5.2-2c-1.4-1.4-1.9-3.8-1.9-6.9V75.1h-4.1v-3.7h4.1v-6.3L146.6,63.9z"/><path fill="#FFFFFF" d="M171.4,97.8l-0.4-3.3h-0.2c-1.5,2.1-4.3,3.9-8.1,3.9c-5.4,0-8.1-3.8-8.1-7.6c0-6.4,5.7-9.9,15.9-9.8v-0.5 c0-2.2-0.6-6.1-6-6.1c-2.5,0-5,0.8-6.9,2l-1.1-3.2c2.2-1.4,5.4-2.3,8.7-2.3c8.1,0,10.1,5.5,10.1,10.8v9.9c0,2.3,0.1,4.5,0.4,6.3 H171.4z M170.7,84.4c-5.3-0.1-11.2,0.8-11.2,5.9c0,3.1,2.1,4.6,4.5,4.6c3.4,0,5.6-2.2,6.4-4.4c0.2-0.5,0.3-1,0.3-1.5V84.4z"/></g></g></a></g><a href="https://ourworldindata.org/grapher/total-government-expenditure-on-education-gdp" target="_blank"><text font-size="25.20" x="15.0" y="35.2" fill="#555"><tspan x="15" y="35.160000000000004">Total government expenditure on education (% GDP)</tspan></text></a><text font-size="14.40" x="15.0" y="53.7" fill="#666"><tspan x="15" y="53.72">Total general government expenditure on education (all levels of government and all levels of education), expressed</tspan><tspan x="15" y="69.56">as a percentage of GDP.</tspan></text></g><g class="LineChart"><defs><clipPath id="boundsClip-243"><rect x="33.49" y="0" width="830" height="928.8"></rect></clipPath></defs><g class="AxisBoxView"><g class="HorizontalAxis"><text x="43.5" y="556.5" fill="#666" text-anchor="middle" font-size="16.2">1970</text><text x="187" y="556.5" fill="#666" text-anchor="middle" font-size="16.2">1980</text><text x="330.5" y="556.5" fill="#666" text-anchor="middle" font-size="16.2">1990</text><text x="474" y="556.5" fill="#666" text-anchor="middle" font-size="16.2">2000</text><text x="617.5" y="556.5" fill="#666" text-anchor="middle" font-size="16.2">2010</text><text x="703.6" y="556.5" fill="#666" text-anchor="middle" font-size="16.2">2016</text></g><g class="VerticalAxis"><text x="38.49" y="535.3" fill="#666" dominant-baseline="middle" text-anchor="end" font-size="16.2">0%</text><text x="38.49" y="480.5" fill="#666" dominant-baseline="middle" text-anchor="end" font-size="16.2">1%</text><text x="38.49" y="425.6" fill="#666" dominant-baseline="middle" text-anchor="end" font-size="16.2">2%</text><text x="38.49" y="370.8" fill="#666" dominant-baseline="middle" text-anchor="end" font-size="16.2">3%</text><text x="38.49" y="315.9" fill="#666" dominant-baseline="middle" text-anchor="end" font-size="16.2">4%</text><text x="38.49" y="261.1" fill="#666" dominant-baseline="middle" text-anchor="end" font-size="16.2">5%</text><text x="38.49" y="206.2" fill="#666" dominant-baseline="middle" text-anchor="end" font-size="16.2">6%</text><text x="38.49" y="151.4" fill="#666" dominant-baseline="middle" text-anchor="end" font-size="16.2">7%</text><text x="38.49" y="96.6" fill="#666" dominant-baseline="middle" text-anchor="end" font-size="16.2">8%</text></g><g class="AxisGridLines"><line x1="43.49" y1="535.3" x2="703.61" y2="535.3" stroke="#ccc"></line><line x1="43.49" y1="480.5" x2="703.61" y2="480.5" stroke="#ddd" stroke-dasharray="3,2"></line><line x1="43.49" y1="425.6" x2="703.61" y2="425.6" stroke="#ddd" stroke-dasharray="3,2"></line><line x1="43.49" y1="370.8" x2="703.61" y2="370.8" stroke="#ddd" stroke-dasharray="3,2"></line><line x1="43.49" y1="315.9" x2="703.61" y2="315.9" stroke="#ddd" stroke-dasharray="3,2"></line><line x1="43.49" y1="261.1" x2="703.61" y2="261.1" stroke="#ddd" stroke-dasharray="3,2"></line><line x1="43.49" y1="206.2" x2="703.61" y2="206.2" stroke="#ddd" stroke-dasharray="3,2"></line><line x1="43.49" y1="151.4" x2="703.61" y2="151.4" stroke="#ddd" stroke-dasharray="3,2"></line><line x1="43.49" y1="96.6" x2="703.61" y2="96.6" stroke="#ddd" stroke-dasharray="3,2"></line></g></g><g clip-path="url(#boundsClip-243)"><g class="HeightedLegend clickable"><g class="legendMark"><g class="indicator"><line x1="708.61" y1="135.7" x2="721.11" y2="135.7" stroke="#666" stroke-width="0.5"></line><line x1="721.11" y1="135.7" x2="721.11" y2="135.7" stroke="#666" stroke-width="0.5"></line><line x1="721.11" y1="135.7" x2="733.61" y2="135.7" stroke="#666" stroke-width="0.5"></line></g><rect x="703.61" y="128.95" width="74.825" height="13.5" fill="#fff" opacity="0"></rect><text font-size="13.50" x="738.6" y="139.8" fill="#FF3E96"><tspan x="738.61" y="139.75">Bolivia</tspan></text></g><g class="legendMark"><g class="indicator"><line x1="708.61" y1="226.5" x2="721.11" y2="226.5" stroke="#666" stroke-width="0.5"></line><line x1="721.11" y1="226.5" x2="721.11" y2="226.5" stroke="#666" stroke-width="0.5"></line><line x1="721.11" y1="226.5" x2="733.61" y2="226.5" stroke="#666" stroke-width="0.5"></line></g><rect x="703.61" y="219.75" width="131.39" height="13.5" fill="#fff" opacity="0"></rect><text font-size="13.50" x="738.6" y="230.6" fill="#9B30FF"><tspan x="738.61" y="230.55">United Kingdom</tspan></text></g><g class="legendMark"><g class="indicator"><line x1="708.61" y1="257.5" x2="731.11" y2="257.5" stroke="#666" stroke-width="0.5"></line><line x1="731.11" y1="257.5" x2="731.11" y2="257.5" stroke="#666" stroke-width="0.5"></line><line x1="731.11" y1="257.5" x2="733.61" y2="257.5" stroke="#666" stroke-width="0.5"></line></g><rect x="703.61" y="250.75" width="110.465" height="13.5" fill="#fff" opacity="0"></rect><text font-size="13.50" x="738.6" y="261.6" fill="#5CACEE"><tspan x="738.61" y="261.55">South Korea</tspan></text></g><g class="legendMark"><g class="indicator"><line x1="708.61" y1="261.7" x2="721.11" y2="261.7" stroke="#666" stroke-width="0.5"></line><line x1="721.11" y1="261.7" x2="721.11" y2="273" stroke="#666" stroke-width="0.5"></line><line x1="721.11" y1="273" x2="733.61" y2="273" stroke="#666" stroke-width="0.5"></line></g><rect x="703.61" y="266.25" width="116.405" height="13.5" fill="#fff" opacity="0"></rect><text font-size="13.50" x="738.6" y="277.1" fill="#34983f"><tspan x="738.61" y="277.05">United States</tspan></text></g><g class="legendMark"><g class="indicator"><line x1="708.61" y1="383.5" x2="721.11" y2="383.5" stroke="#666" stroke-width="0.5"></line><line x1="721.11" y1="383.5" x2="721.11" y2="383.5" stroke="#666" stroke-width="0.5"></line><line x1="721.11" y1="383.5" x2="733.61" y2="383.5" stroke="#666" stroke-width="0.5"></line></g><rect x="703.61" y="376.75" width="98.18" height="13.5" fill="#fff" opacity="0"></rect><text font-size="13.50" x="738.6" y="387.6" fill="#2E8B57"><tspan x="738.61" y="387.55">Cameroon</tspan></text></g><g class="legendMark"><g class="indicator"><line x1="708.61" y1="398.2" x2="721.11" y2="398.2" stroke="#666" stroke-width="0.5"></line><line x1="721.11" y1="398.2" x2="721.11" y2="398.2" stroke="#666" stroke-width="0.5"></line><line x1="721.11" y1="398.2" x2="733.61" y2="398.2" stroke="#666" stroke-width="0.5"></line></g><rect x="703.61" y="391.45" width="106.685" height="13.5" fill="#fff" opacity="0"></rect><text font-size="13.50" x="738.6" y="402.3" fill="#FFC125"><tspan x="738.61" y="402.25">Bangladesh</tspan></text></g></g><g class="Lines"><rect x="43" y="92" width="660" height="443" fill="rgba(255,255,255,0)" opacity="0"></rect><g class="key-South-Korea_0"><path stroke="#5CACEE" stroke-linecap="round" d="M44 348L58 330L72 358L87 388L115 420L130 384L144 402L173 369L187 344L201 375L216 186L230 297L244 314L259 314L273 334L287 348L302 383L316 365L331 366L345 341L359 336L374 329L388 367L402 371L445 346L460 346L488 322L503 327L517 309L531 310L546 321L560 318L575 319L589 291L603 279L646 282L661 265L675 258L689 258" fill="none" stroke-width="1.5"></path><g fill="#5CACEE"><circle cx="44" cy="348" r="2"></circle><circle cx="58" cy="330" r="2"></circle><circle cx="72" cy="358" r="2"></circle><circle cx="87" cy="388" r="2"></circle><circle cx="115" cy="420" r="2"></circle><circle cx="130" cy="384" r="2"></circle><circle cx="144" cy="402" r="2"></circle><circle cx="173" cy="369" r="2"></circle><circle cx="187" cy="344" r="2"></circle><circle cx="201" cy="375" r="2"></circle><circle cx="216" cy="186" r="2"></circle><circle cx="230" cy="297" r="2"></circle><circle cx="244" cy="314" r="2"></circle><circle cx="259" cy="314" r="2"></circle><circle cx="273" cy="334" r="2"></circle><circle cx="287" cy="348" r="2"></circle><circle cx="302" cy="383" r="2"></circle><circle cx="316" cy="365" r="2"></circle><circle cx="331" cy="366" r="2"></circle><circle cx="345" cy="341" r="2"></circle><circle cx="359" cy="336" r="2"></circle><circle cx="374" cy="329" r="2"></circle><circle cx="388" cy="367" r="2"></circle><circle cx="402" cy="371" r="2"></circle><circle cx="445" cy="346" r="2"></circle><circle cx="460" cy="346" r="2"></circle><circle cx="488" cy="322" r="2"></circle><circle cx="503" cy="327" r="2"></circle><circle cx="517" cy="309" r="2"></circle><circle cx="531" cy="310" r="2"></circle><circle cx="546" cy="321" r="2"></circle><circle cx="560" cy="318" r="2"></circle><circle cx="575" cy="319" r="2"></circle><circle cx="589" cy="291" r="2"></circle><circle cx="603" cy="279" r="2"></circle><circle cx="646" cy="282" r="2"></circle><circle cx="661" cy="265" r="2"></circle><circle cx="675" cy="258" r="2"></circle><circle cx="689" cy="258" r="2"></circle></g></g><g class="key-Cameroon_0"><path stroke="#2E8B57" stroke-linecap="round" d="M58 366L72 351L216 372L230 344L244 357L273 379L287 375L302 386L316 390L331 355L345 359L359 384L474 438L488 402L517 366L531 370L546 377L560 385L575 367L589 392L603 365L618 371L632 384L646 387L661 384" fill="none" stroke-width="1.5"></path><g fill="#2E8B57"><circle cx="58" cy="366" r="2"></circle><circle cx="72" cy="351" r="2"></circle><circle cx="216" cy="372" r="2"></circle><circle cx="230" cy="344" r="2"></circle><circle cx="244" cy="357" r="2"></circle><circle cx="273" cy="379" r="2"></circle><circle cx="287" cy="375" r="2"></circle><circle cx="302" cy="386" r="2"></circle><circle cx="316" cy="390" r="2"></circle><circle cx="331" cy="355" r="2"></circle><circle cx="345" cy="359" r="2"></circle><circle cx="359" cy="384" r="2"></circle><circle cx="474" cy="438" r="2"></circle><circle cx="488" cy="402" r="2"></circle><circle cx="517" cy="366" r="2"></circle><circle cx="531" cy="370" r="2"></circle><circle cx="546" cy="377" r="2"></circle><circle cx="560" cy="385" r="2"></circle><circle cx="575" cy="367" r="2"></circle><circle cx="589" cy="392" r="2"></circle><circle cx="603" cy="365" r="2"></circle><circle cx="618" cy="371" r="2"></circle><circle cx="632" cy="384" r="2"></circle><circle cx="646" cy="387" r="2"></circle><circle cx="661" cy="384" r="2"></circle></g></g><g class="key-Bolivia_0"><path stroke="#FF3E96" stroke-linecap="round" d="M388 273L402 228L417 280L445 232L460 225L474 235L488 212L503 194L517 186L560 189L589 149L603 92L618 119L632 158L646 183L661 192L675 136" fill="none" stroke-width="1.5"></path><g fill="#FF3E96"><circle cx="388" cy="273" r="2"></circle><circle cx="402" cy="228" r="2"></circle><circle cx="417" cy="280" r="2"></circle><circle cx="445" cy="232" r="2"></circle><circle cx="460" cy="225" r="2"></circle><circle cx="474" cy="235" r="2"></circle><circle cx="488" cy="212" r="2"></circle><circle cx="503" cy="194" r="2"></circle><circle cx="517" cy="186" r="2"></circle><circle cx="560" cy="189" r="2"></circle><circle cx="589" cy="149" r="2"></circle><circle cx="603" cy="92" r="2"></circle><circle cx="618" cy="119" r="2"></circle><circle cx="632" cy="158" r="2"></circle><circle cx="646" cy="183" r="2"></circle><circle cx="661" cy="192" r="2"></circle><circle cx="675" cy="136" r="2"></circle></g></g><g class="key-Bangladesh_0"><path stroke="#FFC125" stroke-linecap="round" d="M173 473L187 484L201 477L216 480L230 479L244 468L259 466L273 462L287 452L331 452L345 457L359 446L374 443L431 428L460 418L474 419L488 416L503 425L517 422L531 429L560 418L575 415L589 423L603 429L632 418L646 416L661 428L704 398" fill="none" stroke-width="1.5"></path><g fill="#FFC125"><circle cx="173" cy="473" r="2"></circle><circle cx="187" cy="484" r="2"></circle><circle cx="201" cy="477" r="2"></circle><circle cx="216" cy="480" r="2"></circle><circle cx="230" cy="479" r="2"></circle><circle cx="244" cy="468" r="2"></circle><circle cx="259" cy="466" r="2"></circle><circle cx="273" cy="462" r="2"></circle><circle cx="287" cy="452" r="2"></circle><circle cx="331" cy="452" r="2"></circle><circle cx="345" cy="457" r="2"></circle><circle cx="359" cy="446" r="2"></circle><circle cx="374" cy="443" r="2"></circle><circle cx="431" cy="428" r="2"></circle><circle cx="460" cy="418" r="2"></circle><circle cx="474" cy="419" r="2"></circle><circle cx="488" cy="416" r="2"></circle><circle cx="503" cy="425" r="2"></circle><circle cx="517" cy="422" r="2"></circle><circle cx="531" cy="429" r="2"></circle><circle cx="560" cy="418" r="2"></circle><circle cx="575" cy="415" r="2"></circle><circle cx="589" cy="423" r="2"></circle><circle cx="603" cy="429" r="2"></circle><circle cx="632" cy="418" r="2"></circle><circle cx="646" cy="416" r="2"></circle><circle cx="661" cy="428" r="2"></circle><circle cx="704" cy="398" r="2"></circle></g></g><g class="key-United-States_0"><path stroke="#34983f" stroke-linecap="round" d="M273 284L302 279L316 272L331 271L345 267L388 268L402 264L445 271L460 269L488 236L503 238L517 231L531 244L546 258L560 240L575 249L589 245L603 247L618 238L632 249L646 250L661 264L675 262" fill="none" stroke-width="1.5"></path><g fill="#34983f"><circle cx="273" cy="284" r="2"></circle><circle cx="302" cy="279" r="2"></circle><circle cx="316" cy="272" r="2"></circle><circle cx="331" cy="271" r="2"></circle><circle cx="345" cy="267" r="2"></circle><circle cx="388" cy="268" r="2"></circle><circle cx="402" cy="264" r="2"></circle><circle cx="445" cy="271" r="2"></circle><circle cx="460" cy="269" r="2"></circle><circle cx="488" cy="236" r="2"></circle><circle cx="503" cy="238" r="2"></circle><circle cx="517" cy="231" r="2"></circle><circle cx="531" cy="244" r="2"></circle><circle cx="546" cy="258" r="2"></circle><circle cx="560" cy="240" r="2"></circle><circle cx="575" cy="249" r="2"></circle><circle cx="589" cy="245" r="2"></circle><circle cx="603" cy="247" r="2"></circle><circle cx="618" cy="238" r="2"></circle><circle cx="632" cy="249" r="2"></circle><circle cx="646" cy="250" r="2"></circle><circle cx="661" cy="264" r="2"></circle><circle cx="675" cy="262" r="2"></circle></g></g><g class="key-United-Kingdom_0"><path stroke="#9B30FF" stroke-linecap="round" d="M58 259L72 252L87 237L101 240L115 192L130 183L144 203L187 257L201 245L216 251L230 258L244 267L259 283L273 295L287 296L302 301L316 309L331 313L345 309L359 298L388 269L402 270L417 294L445 303L460 315L474 312L488 308L503 278L517 269L531 274L546 262L560 260L575 264L589 265L603 254L618 219L632 224L661 227L675 223L689 227" fill="none" stroke-width="1.5"></path><g fill="#9B30FF"><circle cx="58" cy="259" r="2"></circle><circle cx="72" cy="252" r="2"></circle><circle cx="87" cy="237" r="2"></circle><circle cx="101" cy="240" r="2"></circle><circle cx="115" cy="192" r="2"></circle><circle cx="130" cy="183" r="2"></circle><circle cx="144" cy="203" r="2"></circle><circle cx="187" cy="257" r="2"></circle><circle cx="201" cy="245" r="2"></circle><circle cx="216" cy="251" r="2"></circle><circle cx="230" cy="258" r="2"></circle><circle cx="244" cy="267" r="2"></circle><circle cx="259" cy="283" r="2"></circle><circle cx="273" cy="295" r="2"></circle><circle cx="287" cy="296" r="2"></circle><circle cx="302" cy="301" r="2"></circle><circle cx="316" cy="309" r="2"></circle><circle cx="331" cy="313" r="2"></circle><circle cx="345" cy="309" r="2"></circle><circle cx="359" cy="298" r="2"></circle><circle cx="388" cy="269" r="2"></circle><circle cx="402" cy="270" r="2"></circle><circle cx="417" cy="294" r="2"></circle><circle cx="445" cy="303" r="2"></circle><circle cx="460" cy="315" r="2"></circle><circle cx="474" cy="312" r="2"></circle><circle cx="488" cy="308" r="2"></circle><circle cx="503" cy="278" r="2"></circle><circle cx="517" cy="269" r="2"></circle><circle cx="531" cy="274" r="2"></circle><circle cx="546" cy="262" r="2"></circle><circle cx="560" cy="260" r="2"></circle><circle cx="575" cy="264" r="2"></circle><circle cx="589" cy="265" r="2"></circle><circle cx="603" cy="254" r="2"></circle><circle cx="618" cy="219" r="2"></circle><circle cx="632" cy="224" r="2"></circle><circle cx="661" cy="227" r="2"></circle><circle cx="675" cy="223" r="2"></circle><circle cx="689" cy="227" r="2"></circle></g></g></g></g></g><g class="SourcesFooter" style="fill:#777"><g class="clickable" style="fill:#777"><text font-size="12.60" x="15.0" y="581.6"><tspan x="15" y="581.58">Source: World Bank</tspan></text></g><text font-size="12.60" x="513.4" y="581.6"><tspan x="513.448" y="581.58"><a target='_blank' style='fill: #777;' href='https://ourworldindata.org/global-rise-of-education'>OurWorldInData.org/global-rise-of-education</a> • <a style="fill: #777;" class="cclogo" href="http://creativecommons.org/licenses/by-sa/4.0/deed.en_US" target="_blank">CC BY-SA</a></tspan></text></g></g></svg>