<svg xmlns="http://www.w3.org/2000/svg" version="1.1" style="font-family:&#x27;Helvetica Neue&#x27;, Helvetica, Arial, sans-serif;font-size:18px;background-color:white;text-rendering:optimizeLegibility;-webkit-font-smoothing:antialiased" width="850" height="600"><g class="ChartTab"><g class="HeaderView"><g opacity="0.8" transform="translate(778, 15) scale(0.27)"><a xmlns:xlink="http://www.w3.org/1999/xlink" xlink:href="https://ourworldindata.org" target="_blank"><g><rect x="0" y="0" fill="#1B2543" width="211.2" height="130.1"/><rect x="0" y="112.2" fill="#E63912" width="211.2" height="17.9"/><g><rect x="1.2" y="12.3" fill="none" width="210.2" height="99.2"/><path fill="#FFFFFF" d="M37.8,32.2c0,12.7-7.7,19.4-17.1,19.4c-9.7,0-16.6-7.5-16.6-18.7c0-11.7,7.3-19.3,17.1-19.3 C31.3,13.7,37.8,21.3,37.8,32.2z M9.2,32.8c0,7.9,4.3,14.9,11.8,14.9c7.5,0,11.8-6.9,11.8-15.3c0-7.3-3.8-14.9-11.8-14.9 C13.1,17.5,9.2,24.8,9.2,32.8z"/><path fill="#FFFFFF" d="M62.7,43.8c0,2.7,0.1,5.1,0.2,7.2h-4.3l-0.3-4.3h-0.1c-1.3,2.1-4,4.9-8.8,4.9c-4.2,0-9.1-2.3-9.1-11.6 V24.6h4.8v14.6c0,5,1.5,8.4,5.9,8.4c3.2,0,5.5-2.2,6.3-4.4c0.3-0.7,0.4-1.6,0.4-2.5V24.6h4.8V43.8z"/><path fill="#FFFFFF" d="M67.3,32.8c0-3.1-0.1-5.8-0.2-8.2h4.2l0.2,5.2h0.2c1.2-3.5,4.1-5.8,7.3-5.8c0.5,0,0.9,0.1,1.4,0.2v4.5 c-0.5-0.1-1-0.2-1.6-0.2c-3.4,0-5.8,2.6-6.5,6.2c-0.1,0.7-0.2,1.4-0.2,2.2V51h-4.8V32.8z"/><path fill="#FFFFFF" d="M95.4,51l-9.4-36.8h5l4.4,18.6c1.1,4.6,2.1,9.2,2.7,12.7h0.1c0.6-3.7,1.8-8,3-12.8l4.9-18.5h5l4.5,18.7 c1,4.4,2,8.7,2.6,12.6h0.1c0.8-4,1.8-8.1,3-12.7l4.9-18.5h4.9L120.6,51h-5L111,31.9c-1.1-4.7-1.9-8.3-2.4-12h-0.1 c-0.7,3.7-1.5,7.3-2.8,12L100.4,51H95.4z"/><path fill="#FFFFFF" d="M154.9,37.6c0,9.8-6.8,14-13.2,14c-7.2,0-12.7-5.2-12.7-13.6c0-8.8,5.8-14,13.1-14 C149.8,24,154.9,29.5,154.9,37.6z M133.9,37.9c0,5.8,3.3,10.1,8,10.1c4.6,0,8-4.3,8-10.3c0-4.5-2.2-10.1-7.9-10.1 C136.3,27.6,133.9,32.8,133.9,37.9z"/><path fill="#FFFFFF" d="M158.2,32.8c0-3.1-0.1-5.8-0.2-8.2h4.2l0.2,5.2h0.2c1.2-3.5,4.1-5.8,7.3-5.8c0.5,0,0.9,0.1,1.4,0.2v4.5 c-0.5-0.1-1-0.2-1.6-0.2c-3.4,0-5.8,2.6-6.5,6.2c-0.1,0.7-0.2,1.4-0.2,2.2V51h-4.8V32.8z"/><path fill="#FFFFFF" d="M173.5,12.3h4.8V51h-4.8V12.3z"/><path fill="#FFFFFF" d="M206.5,12.3v31.9c0,2.3,0.1,5,0.2,6.8h-4.3l-0.2-4.6H202c-1.5,2.9-4.7,5.2-9,5.2 c-6.4,0-11.3-5.4-11.3-13.4c-0.1-8.8,5.4-14.2,11.9-14.2c4,0,6.8,1.9,8,4h0.1V12.3H206.5z M201.7,35.4c0-0.6-0.1-1.4-0.2-2 c-0.7-3.1-3.3-5.6-6.9-5.6c-5,0-7.9,4.4-7.9,10.2c0,5.3,2.6,9.8,7.8,9.8c3.2,0,6.2-2.1,7.1-5.7c0.2-0.7,0.2-1.3,0.2-2.1V35.4z"/><path fill="#FFFFFF" d="M42.8,64c0.1,1.6-1.1,2.9-3.1,2.9c-1.7,0-2.9-1.3-2.9-2.9c0-1.7,1.3-3,3-3C41.7,61,42.8,62.3,42.8,64z M37.4,97.8V71.4h4.8v26.4H37.4z"/><path fill="#FFFFFF" d="M47.5,78.6c0-2.7-0.1-5-0.2-7.1h4.3l0.3,4.4h0.1c1.3-2.5,4.4-5,8.8-5c3.7,0,9.4,2.2,9.4,11.2v15.8h-4.8 V82.6c0-4.3-1.6-7.8-6.1-7.8c-3.2,0-5.6,2.2-6.5,4.9c-0.2,0.6-0.3,1.4-0.3,2.2v15.9h-4.8V78.6z"/><path fill="#FFFFFF" d="M84,61.6c2.9-0.4,6.3-0.8,10.1-0.8c6.8,0,11.7,1.6,14.9,4.6c3.3,3,5.2,7.3,5.2,13.2c0,6-1.9,10.9-5.3,14.3 c-3.4,3.4-9.1,5.3-16.3,5.3c-3.4,0-6.2-0.2-8.6-0.4V61.6z M88.8,94.1c1.2,0.2,3,0.3,4.8,0.3c10.2,0,15.7-5.7,15.7-15.6 c0.1-8.7-4.9-14.2-14.9-14.2c-2.5,0-4.3,0.2-5.6,0.5V94.1z"/><path fill="#FFFFFF" d="M132.1,97.8l-0.4-3.3h-0.2c-1.5,2.1-4.3,3.9-8.1,3.9c-5.4,0-8.1-3.8-8.1-7.6c0-6.4,5.7-9.9,15.9-9.8v-0.5 c0-2.2-0.6-6.1-6-6.1c-2.5,0-5,0.8-6.9,2l-1.1-3.2c2.2-1.4,5.4-2.3,8.7-2.3c8.1,0,10.1,5.5,10.1,10.8v9.9c0,2.3,0.1,4.5,0.4,6.3 H132.1z M131.4,84.4c-5.3-0.1-11.2,0.8-11.2,5.9c0,3.1,2.1,4.6,4.5,4.6c3.4,0,5.6-2.2,6.4-4.4c0.2-0.5,0.3-1,0.3-1.5V84.4z"/><path fill="#FFFFFF" d="M146.6,63.9v7.6h6.9v3.7h-6.9v14.2c0,3.3,0.9,5.1,3.6,5.1c1.3,0,2.2-0.2,2.8-0.3l0.2,3.6 c-0.9,0.4-2.4,0.7-4.3,0.7c-2.2,0-4-0.7-5.2-2c-1.4-1.4-1.9-3.8-1.9-6.9V75.1h-4.1v-3.7h4.1v-6.3L146.6,63.9z"/><path fill="#FFFFFF" d="M171.4,97.8l-0.4-3.3h-0.2c-1.5,2.1-4.3,3.9-8.1,3.9c-5.4,0-8.1-3.8-8.1-7.6c0-6.4,5.7-9.9,15.9-9.8v-0.5 c0-2.2-0.6-6.1-6-6.1c-2.5,0-5,0.8-6.9,2l-1.1-3.2c2.2-1.4,5.4-2.3,8.7-2.3c8.1,0,10.1,5.5,10.1,10.8v9.9c0,2.3,0.1,4.5,0.4,6.3 H171.4z M170.7,84.4c-5.3-0.1-11.2,0.8-11.2,5.9c0,3.1,2.1,4.6,4.5,4.6c3.4,0,5.6-2.2,6.4-4.4c0.2-0.5,0.3-1,0.3-1.5V84.4z"/></g></g></a></g><a href="https://ourworldindata.org/grapher/world-electricity-by-source" target="_blank"><text font-size="25.20" x="15.0" y="35.2" fill="#555"><tspan x="15" y="35.160000000000004">Electricity share by fuel source, World</tspan></text></a><text font-size="14.40" x="15.0" y="53.7" fill="#666"><tspan x="15" y="53.72">Electricity production (measured as the percentage of total electricity production) by source (coal, oil, gas, nuclear,</tspan><tspan x="15" y="69.56">hydroelectric power and other renewables). Other renewables in this definition includes biomass, wind, solar,</tspan><tspan x="15" y="85.4">geothermal, and marine power.</tspan></text></g><g class="StackedArea"><defs><clipPath id="boundsClip-179"><rect x="61.634" y="0" width="820" height="897.8"></rect></clipPath></defs><g class="AxisBoxView"><g class="HorizontalAxis"><text x="61.6" y="556.5" fill="#666" text-anchor="middle" font-size="16.2">1971</text><text x="192.9" y="556.5" fill="#666" text-anchor="middle" font-size="16.2">1980</text><text x="338.7" y="556.5" fill="#666" text-anchor="middle" font-size="16.2">1990</text><text x="484.5" y="556.5" fill="#666" text-anchor="middle" font-size="16.2">2000</text><text x="630.3" y="556.5" fill="#666" text-anchor="middle" font-size="16.2">2010</text><text x="688.6" y="556.5" fill="#666" text-anchor="middle" font-size="16.2">2014</text></g><g class="VerticalAxis"><text x="56.63" y="535.3" fill="#666" dominant-baseline="middle" text-anchor="end" font-size="16.2">0%</text><text x="56.63" y="449.8" fill="#666" dominant-baseline="middle" text-anchor="end" font-size="16.2">20%</text><text x="56.63" y="364.2" fill="#666" dominant-baseline="middle" text-anchor="end" font-size="16.2">40%</text><text x="56.63" y="278.7" fill="#666" dominant-baseline="middle" text-anchor="end" font-size="16.2">60%</text><text x="56.63" y="193.1" fill="#666" dominant-baseline="middle" text-anchor="end" font-size="16.2">80%</text><text x="56.63" y="107.6" fill="#666" dominant-baseline="middle" text-anchor="end" font-size="16.2">100%</text></g><g class="AxisGridLines"><line x1="61.63" y1="535.3" x2="688.63" y2="535.3" stroke="#ccc"></line><line x1="61.63" y1="449.8" x2="688.63" y2="449.8" stroke="#ddd" stroke-dasharray="3,2"></line><line x1="61.63" y1="364.2" x2="688.63" y2="364.2" stroke="#ddd" stroke-dasharray="3,2"></line><line x1="61.63" y1="278.7" x2="688.63" y2="278.7" stroke="#ddd" stroke-dasharray="3,2"></line><line x1="61.63" y1="193.1" x2="688.63" y2="193.1" stroke="#ddd" stroke-dasharray="3,2"></line><line x1="61.63" y1="107.6" x2="688.63" y2="107.6" stroke="#ddd" stroke-dasharray="3,2"></line></g></g><g clip-path="url(#boundsClip-179)"><g class="HeightedLegend clickable"><g class="legendMark"><g class="indicator"><line x1="693.625" y1="120.6" x2="706.125" y2="120.6" stroke="#666" stroke-width="0.5"></line><line x1="706.125" y1="120.6" x2="706.125" y2="120.6" stroke="#666" stroke-width="0.5"></line><line x1="706.125" y1="120.6" x2="718.625" y2="120.6" stroke="#666" stroke-width="0.5"></line></g><rect x="688.625" y="106.55" width="141.92000000000002" height="28.1" fill="#fff" opacity="0"></rect><text font-size="13.50" x="723.6" y="117.3" fill="#ffd53e"><tspan x="723.625" y="117.35">Other renewables</tspan><tspan x="723.625" y="132.2">(excluding hydro)</tspan></text></g><g class="legendMark"><g class="indicator"><line x1="693.625" y1="168.9" x2="706.125" y2="168.9" stroke="#666" stroke-width="0.5"></line><line x1="706.125" y1="168.9" x2="706.125" y2="168.9" stroke="#666" stroke-width="0.5"></line><line x1="706.125" y1="168.9" x2="718.625" y2="168.9" stroke="#666" stroke-width="0.5"></line></g><rect x="688.625" y="162.15" width="113.84" height="13.5" fill="#fff" opacity="0"></rect><text font-size="13.50" x="723.6" y="173.0" fill="#3360a9"><tspan x="723.625" y="172.95000000000002">Hydroelectric</tspan></text></g><g class="legendMark"><g class="indicator"><line x1="693.625" y1="227.3" x2="706.125" y2="227.3" stroke="#666" stroke-width="0.5"></line><line x1="706.125" y1="227.3" x2="706.125" y2="227.3" stroke="#666" stroke-width="0.5"></line><line x1="706.125" y1="227.3" x2="718.625" y2="227.3" stroke="#666" stroke-width="0.5"></line></g><rect x="688.625" y="220.55" width="81.575" height="13.5" fill="#fff" opacity="0"></rect><text font-size="13.50" x="723.6" y="231.4" fill="#ed6c2d"><tspan x="723.625" y="231.35000000000002">Nuclear</tspan></text></g><g class="legendMark"><g class="indicator"><line x1="693.625" y1="297.2" x2="716.125" y2="297.2" stroke="#666" stroke-width="0.5"></line><line x1="716.125" y1="297.2" x2="716.125" y2="297.2" stroke="#666" stroke-width="0.5"></line><line x1="716.125" y1="297.2" x2="718.625" y2="297.2" stroke="#666" stroke-width="0.5"></line></g><rect x="688.625" y="261.25" width="129.09500000000003" height="71.9" fill="#fff" opacity="0"></rect><text font-size="13.50" x="723.6" y="272.1" fill="#34983f"><tspan x="723.625" y="272.05">Electricity</tspan><tspan x="723.625" y="286.90000000000003">production from</tspan><tspan x="723.625" y="301.75">natural gas</tspan><tspan x="723.625" y="316.6">sources (% of</tspan><tspan x="723.625" y="331.45000000000005">total)</tspan></text></g><g class="legendMark"><g class="indicator"><line x1="693.625" y1="351.8" x2="706.125" y2="351.8" stroke="#666" stroke-width="0.5"></line><line x1="706.125" y1="351.8" x2="706.125" y2="363.79999999999995" stroke="#666" stroke-width="0.5"></line><line x1="706.125" y1="363.79999999999995" x2="718.625" y2="363.79999999999995" stroke="#666" stroke-width="0.5"></line></g><rect x="688.625" y="335.15" width="146.375" height="57.3" fill="#fff" opacity="0"></rect><text font-size="13.50" x="723.6" y="345.9" fill="#ca2628"><tspan x="723.625" y="345.95">Electricity</tspan><tspan x="723.625" y="360.8">production from oil</tspan><tspan x="723.625" y="375.65">sources (% of</tspan><tspan x="723.625" y="390.5">total)</tspan></text></g><g class="legendMark"><g class="indicator"><line x1="693.625" y1="447.4" x2="706.125" y2="447.4" stroke="#666" stroke-width="0.5"></line><line x1="706.125" y1="447.4" x2="706.125" y2="447.4" stroke="#666" stroke-width="0.5"></line><line x1="706.125" y1="447.4" x2="718.625" y2="447.4" stroke="#666" stroke-width="0.5"></line></g><rect x="688.625" y="440.65" width="62.81" height="13.5" fill="#fff" opacity="0"></rect><text font-size="13.50" x="723.6" y="451.4" fill="#818282"><tspan x="723.625" y="451.45">Coal</tspan></text></g></g><g class="Areas"><rect x="61.634" y="107.60000000000001" width="626.991" height="427.69999999999993" opacity="0" fill="rgba(255,255,255,0)"></rect><path class="World_0-area" stroke-linecap="round" d="M61.6 366.3L76.2 374L90.8 374.6L105.4 381.1L120 379.9L134.5 375.6L149.1 376.3L163.7 379.8L178.3 375.5L192.9 367.7L207.4 366.8L222 363.6L236.6 361.6L251.2 363L265.8 358.3L280.4 359.4L294.9 357.2L309.5 358.6L324.1 361.2L338.7 374L353.3 373.8L367.8 372.2L382.4 372.7L397 371.7L411.6 372.7L426.2 370L440.7 370L455.3 371L469.9 371.9L484.5 367.7L499.1 368.7L513.7 367.3L528.2 362.8L542.8 364.7L557.4 362.6L572 359.8L586.6 356.9L601.1 359.3L615.7 361.8L630.3 361.2L644.9 357.1L659.5 360.2L674 357L688.6 359.5L688.625 535.3L61.634 535.3" fill="#818282" fill-opacity="0.7"></path><path class="World_3-area" stroke-linecap="round" d="M61.6 274.5L76.2 273.2L90.8 267L105.4 280.1L120 284.6L134.5 276.2L149.1 279L163.7 283.5L178.3 286.3L192.9 287.4L207.4 293.3L222 298L236.6 300.7L251.2 307.7L265.8 311.8L280.4 312.3L294.9 312.3L309.5 312.3L324.1 313.4L338.7 329.5L353.3 330L367.8 329.8L382.4 333L397 333.2L411.6 335.7L426.2 334.8L440.7 335L455.3 335.4L469.9 338L484.5 336L499.1 338.2L513.7 338.2L528.2 334.3L542.8 338L557.4 337.7L572 337.8L586.6 335.8L601.1 339.4L615.7 343.7L630.3 344.7L644.9 339.6L659.5 342.2L674 340.6L688.6 344.1L688.6 359.5L674 357L659.5 360.2L644.9 357.1L630.3 361.2L615.7 361.8L601.1 359.3L586.6 356.9L572 359.8L557.4 362.6L542.8 364.7L528.2 362.8L513.7 367.3L499.1 368.7L484.5 367.7L469.9 371.9L455.3 371L440.7 370L426.2 370L411.6 372.7L397 371.7L382.4 372.7L367.8 372.2L353.3 373.8L338.7 374L324.1 361.2L309.5 358.6L294.9 357.2L280.4 359.4L265.8 358.3L251.2 363L236.6 361.6L222 363.6L207.4 366.8L192.9 367.7L178.3 375.5L163.7 379.8L149.1 376.3L134.5 375.6L120 379.9L105.4 381.1L90.8 374.6L76.2 374L61.6 366.3" fill="#ca2628" fill-opacity="0.7"></path><path class="World_2-area" stroke-linecap="round" d="M61.6 221.8L76.2 221.9L90.8 219.3L105.4 232.1L120 238L134.5 232.2L149.1 235.4L163.7 241L178.3 241.6L192.9 242L207.4 249.1L222 255.3L236.6 260.4L251.2 264.7L265.8 270.6L280.4 273.7L294.9 271.7L309.5 272.9L324.1 268.9L338.7 265.2L353.3 266.3L367.8 266.1L382.4 269L397 268.2L411.6 269.7L426.2 268.6L440.7 265.5L455.3 263.5L469.9 262.3L484.5 259.1L499.1 257.6L513.7 255.2L528.2 250.2L542.8 251.6L557.4 250.3L572 249L586.6 243.9L601.1 245.8L615.7 248.7L630.3 247.5L644.9 244.1L659.5 244.8L674 247.2L688.6 250.3L688.6 344.1L674 340.6L659.5 342.2L644.9 339.6L630.3 344.7L615.7 343.7L601.1 339.4L586.6 335.8L572 337.8L557.4 337.7L542.8 338L528.2 334.3L513.7 338.2L499.1 338.2L484.5 336L469.9 338L455.3 335.4L440.7 335L426.2 334.8L411.6 335.7L397 333.2L382.4 333L367.8 329.8L353.3 330L338.7 329.5L324.1 313.4L309.5 312.3L294.9 312.3L280.4 312.3L265.8 311.8L251.2 307.7L236.6 300.7L222 298L207.4 293.3L192.9 287.4L178.3 286.3L163.7 283.5L149.1 279L134.5 276.2L120 284.6L105.4 280.1L90.8 267L76.2 273.2L61.6 274.5" fill="#34983f" fill-opacity="0.7"></path><path class="World_1-area" stroke-linecap="round" d="M61.6 211.6L76.2 209.1L90.8 203.5L105.4 212L120 210.9L134.5 202.9L149.1 200.9L163.7 202.5L178.3 203.7L192.9 202.3L207.4 203.1L222 206.3L236.6 207L251.2 203.9L265.8 201.2L280.4 200.4L294.9 196.5L309.5 195.2L324.1 193.1L338.7 191.5L353.3 190.9L367.8 190.6L382.4 193.2L397 192.3L411.6 193.4L426.2 192L440.7 191.4L455.3 189.8L469.9 188.1L484.5 186.6L499.1 184.5L513.7 184.2L528.2 182.4L542.8 184.2L557.4 185L572 185.6L586.6 184.6L601.1 187.4L615.7 190.8L630.3 191.9L644.9 193.7L659.5 197.8L674 201.2L688.6 204.2L688.6 250.3L674 247.2L659.5 244.8L644.9 244.1L630.3 247.5L615.7 248.7L601.1 245.8L586.6 243.9L572 249L557.4 250.3L542.8 251.6L528.2 250.2L513.7 255.2L499.1 257.6L484.5 259.1L469.9 262.3L455.3 263.5L440.7 265.5L426.2 268.6L411.6 269.7L397 268.2L382.4 269L367.8 266.1L353.3 266.3L338.7 265.2L324.1 268.9L309.5 272.9L294.9 271.7L280.4 273.7L265.8 270.6L251.2 264.7L236.6 260.4L222 255.3L207.4 249.1L192.9 242L178.3 241.6L163.7 241L149.1 235.4L134.5 232.2L120 238L105.4 232.1L90.8 219.3L76.2 221.9L61.6 221.8" fill="#ed6c2d" fill-opacity="0.7"></path><path class="World_4-area" stroke-linecap="round" d="M61.6 108.9L76.2 108.9L90.8 108.9L105.4 108.9L120 109L134.5 109L149.1 109L163.7 109L178.3 109.1L192.9 109.4L207.4 109.5L222 110.1L236.6 110.2L251.2 110.3L265.8 110.4L280.4 110.6L294.9 110.7L309.5 110.7L324.1 113.2L338.7 113.3L353.3 112.1L367.8 112.5L382.4 112.6L397 112.7L411.6 112.7L426.2 112.7L440.7 112.9L455.3 113L469.9 113.4L484.5 113.7L499.1 113.8L513.7 114.4L528.2 114.8L542.8 115.4L557.4 116.1L572 116.8L586.6 117.8L601.1 119.2L615.7 121.2L630.3 123L644.9 125.4L659.5 128L674 131.1L688.6 133.7L688.6 204.2L674 201.2L659.5 197.8L644.9 193.7L630.3 191.9L615.7 190.8L601.1 187.4L586.6 184.6L572 185.6L557.4 185L542.8 184.2L528.2 182.4L513.7 184.2L499.1 184.5L484.5 186.6L469.9 188.1L455.3 189.8L440.7 191.4L426.2 192L411.6 193.4L397 192.3L382.4 193.2L367.8 190.6L353.3 190.9L338.7 191.5L324.1 193.1L309.5 195.2L294.9 196.5L280.4 200.4L265.8 201.2L251.2 203.9L236.6 207L222 206.3L207.4 203.1L192.9 202.3L178.3 203.7L163.7 202.5L149.1 200.9L134.5 202.9L120 210.9L105.4 212L90.8 203.5L76.2 209.1L61.6 211.6" fill="#3360a9" fill-opacity="0.7"></path><path class="World_5-area" stroke-linecap="round" d="M61.6 107.6L76.2 107.6L90.8 107.6L105.4 107.6L120 107.6L134.5 107.6L149.1 107.6L163.7 107.6L178.3 107.6L192.9 107.6L207.4 107.6L222 107.6L236.6 107.6L251.2 107.6L265.8 107.6L280.4 107.6L294.9 107.6L309.5 107.6L324.1 107.6L338.7 107.6L353.3 107.6L367.8 107.6L382.4 107.6L397 107.6L411.6 107.6L426.2 107.6L440.7 107.6L455.3 107.6L469.9 107.6L484.5 107.6L499.1 107.6L513.7 107.6L528.2 107.6L542.8 107.6L557.4 107.6L572 107.6L586.6 107.6L601.1 107.6L615.7 107.6L630.3 107.6L644.9 107.6L659.5 107.6L674 107.6L688.6 107.6L688.6 133.7L674 131.1L659.5 128L644.9 125.4L630.3 123L615.7 121.2L601.1 119.2L586.6 117.8L572 116.8L557.4 116.1L542.8 115.4L528.2 114.8L513.7 114.4L499.1 113.8L484.5 113.7L469.9 113.4L455.3 113L440.7 112.9L426.2 112.7L411.6 112.7L397 112.7L382.4 112.6L367.8 112.5L353.3 112.1L338.7 113.3L324.1 113.2L309.5 110.7L294.9 110.7L280.4 110.6L265.8 110.4L251.2 110.3L236.6 110.2L222 110.1L207.4 109.5L192.9 109.4L178.3 109.1L163.7 109L149.1 109L134.5 109L120 109L105.4 108.9L90.8 108.9L76.2 108.9L61.6 108.9" fill="#ffd53e" fill-opacity="0.7"></path><path class="World_0-border" stroke-linecap="round" d="M61.6 366.3L76.2 374L90.8 374.6L105.4 381.1L120 379.9L134.5 375.6L149.1 376.3L163.7 379.8L178.3 375.5L192.9 367.7L207.4 366.8L222 363.6L236.6 361.6L251.2 363L265.8 358.3L280.4 359.4L294.9 357.2L309.5 358.6L324.1 361.2L338.7 374L353.3 373.8L367.8 372.2L382.4 372.7L397 371.7L411.6 372.7L426.2 370L440.7 370L455.3 371L469.9 371.9L484.5 367.7L499.1 368.7L513.7 367.3L528.2 362.8L542.8 364.7L557.4 362.6L572 359.8L586.6 356.9L601.1 359.3L615.7 361.8L630.3 361.2L644.9 357.1L659.5 360.2L674 357L688.6 359.5" stroke="rgb(108, 109, 109)" stroke-opacity="0.7" stroke-width="0.5" fill="none"></path><path class="World_3-border" stroke-linecap="round" d="M61.6 274.5L76.2 273.2L90.8 267L105.4 280.1L120 284.6L134.5 276.2L149.1 279L163.7 283.5L178.3 286.3L192.9 287.4L207.4 293.3L222 298L236.6 300.7L251.2 307.7L265.8 311.8L280.4 312.3L294.9 312.3L309.5 312.3L324.1 313.4L338.7 329.5L353.3 330L367.8 329.8L382.4 333L397 333.2L411.6 335.7L426.2 334.8L440.7 335L455.3 335.4L469.9 338L484.5 336L499.1 338.2L513.7 338.2L528.2 334.3L542.8 338L557.4 337.7L572 337.8L586.6 335.8L601.1 339.4L615.7 343.7L630.3 344.7L644.9 339.6L659.5 342.2L674 340.6L688.6 344.1" stroke="rgb(169, 32, 33)" stroke-opacity="0.7" stroke-width="0.5" fill="none"></path><path class="World_2-border" stroke-linecap="round" d="M61.6 221.8L76.2 221.9L90.8 219.3L105.4 232.1L120 238L134.5 232.2L149.1 235.4L163.7 241L178.3 241.6L192.9 242L207.4 249.1L222 255.3L236.6 260.4L251.2 264.7L265.8 270.6L280.4 273.7L294.9 271.7L309.5 272.9L324.1 268.9L338.7 265.2L353.3 266.3L367.8 266.1L382.4 269L397 268.2L411.6 269.7L426.2 268.6L440.7 265.5L455.3 263.5L469.9 262.3L484.5 259.1L499.1 257.6L513.7 255.2L528.2 250.2L542.8 251.6L557.4 250.3L572 249L586.6 243.9L601.1 245.8L615.7 248.7L630.3 247.5L644.9 244.1L659.5 244.8L674 247.2L688.6 250.3" stroke="rgb(44, 127, 53)" stroke-opacity="0.7" stroke-width="0.5" fill="none"></path><path class="World_1-border" stroke-linecap="round" d="M61.6 211.6L76.2 209.1L90.8 203.5L105.4 212L120 210.9L134.5 202.9L149.1 200.9L163.7 202.5L178.3 203.7L192.9 202.3L207.4 203.1L222 206.3L236.6 207L251.2 203.9L265.8 201.2L280.4 200.4L294.9 196.5L309.5 195.2L324.1 193.1L338.7 191.5L353.3 190.9L367.8 190.6L382.4 193.2L397 192.3L411.6 193.4L426.2 192L440.7 191.4L455.3 189.8L469.9 188.1L484.5 186.6L499.1 184.5L513.7 184.2L528.2 182.4L542.8 184.2L557.4 185L572 185.6L586.6 184.6L601.1 187.4L615.7 190.8L630.3 191.9L644.9 193.7L659.5 197.8L674 201.2L688.6 204.2" stroke="rgb(198, 90, 38)" stroke-opacity="0.7" stroke-width="0.5" fill="none"></path><path class="World_4-border" stroke-linecap="round" d="M61.6 108.9L76.2 108.9L90.8 108.9L105.4 108.9L120 109L134.5 109L149.1 109L163.7 109L178.3 109.1L192.9 109.4L207.4 109.5L222 110.1L236.6 110.2L251.2 110.3L265.8 110.4L280.4 110.6L294.9 110.7L309.5 110.7L324.1 113.2L338.7 113.3L353.3 112.1L367.8 112.5L382.4 112.6L397 112.7L411.6 112.7L426.2 112.7L440.7 112.9L455.3 113L469.9 113.4L484.5 113.7L499.1 113.8L513.7 114.4L528.2 114.8L542.8 115.4L557.4 116.1L572 116.8L586.6 117.8L601.1 119.2L615.7 121.2L630.3 123L644.9 125.4L659.5 128L674 131.1L688.6 133.7" stroke="rgb(43, 80, 141)" stroke-opacity="0.7" stroke-width="0.5" fill="none"></path><path class="World_5-border" stroke-linecap="round" d="M61.6 107.6L76.2 107.6L90.8 107.6L105.4 107.6L120 107.6L134.5 107.6L149.1 107.6L163.7 107.6L178.3 107.6L192.9 107.6L207.4 107.6L222 107.6L236.6 107.6L251.2 107.6L265.8 107.6L280.4 107.6L294.9 107.6L309.5 107.6L324.1 107.6L338.7 107.6L353.3 107.6L367.8 107.6L382.4 107.6L397 107.6L411.6 107.6L426.2 107.6L440.7 107.6L455.3 107.6L469.9 107.6L484.5 107.6L499.1 107.6L513.7 107.6L528.2 107.6L542.8 107.6L557.4 107.6L572 107.6L586.6 107.6L601.1 107.6L615.7 107.6L630.3 107.6L644.9 107.6L659.5 107.6L674 107.6L688.6 107.6" stroke="rgb(213, 178, 52)" stroke-opacity="0.7" stroke-width="0.5" fill="none"></path></g></g></g><g class="SourcesFooter" style="fill:#777"><g class="clickable" style="fill:#777"><text font-size="12.60" x="15.0" y="581.6"><tspan x="15" y="581.58">Source: International Energy Agency (IEA) via The World Bank</tspan></text></g><text font-size="12.60" x="649.0" y="581.6"><tspan x="649.024" y="581.58"><a target='_blank' style='fill: #777;' href='https://ourworldindata.org'>OurWorldInData.org</a> • <a style="fill: #777;" class="cclogo" href="http://creativecommons.org/licenses/by-sa/4.0/deed.en_US" target="_blank">CC BY-SA</a></tspan></text></g></g></svg>